<?xml version="1.0" encoding="utf-8" standalone="no"?>
<!DOCTYPE svg PUBLIC "-//W3C//DTD SVG 1.1//EN"
  "http://www.w3.org/Graphics/SVG/1.1/DTD/svg11.dtd">
<svg xmlns:xlink="http://www.w3.org/1999/xlink" width="744.78875pt" height="157.836094pt" viewBox="0 0 744.78875 157.836094" xmlns="http://www.w3.org/2000/svg" version="1.1">
 <metadata>
  <rdf:RDF xmlns:dc="http://purl.org/dc/elements/1.1/" xmlns:cc="http://creativecommons.org/ns#" xmlns:rdf="http://www.w3.org/1999/02/22-rdf-syntax-ns#">
   <cc:Work>
    <dc:type rdf:resource="http://purl.org/dc/dcmitype/StillImage"/>
    <dc:date>2026-01-30T11:58:24.272287</dc:date>
    <dc:format>image/svg+xml</dc:format>
    <dc:creator>
     <cc:Agent>
      <dc:title>Matplotlib v3.10.3, https://matplotlib.org/</dc:title>
     </cc:Agent>
    </dc:creator>
   </cc:Work>
  </rdf:RDF>
 </metadata>
 <defs>
  <style type="text/css">*{stroke-linejoin: round; stroke-linecap: butt}</style>
 </defs>
 <g id="figure_1">
  <g id="patch_1">
   <path d="M 0 157.836094 
L 744.78875 157.836094 
L 744.78875 0 
L 0 0 
z
" style="fill: #ffffff"/>
  </g>
  <g id="axes_1">
   <g id="patch_2">
    <path d="M 55.26375 133.957969 
L 264.51375 133.957969 
L 264.51375 23.077969 
L 55.26375 23.077969 
z
" style="fill: #ffffff"/>
   </g>
   <g id="patch_3">
    <path d="M 52.16375 133.957969 
L 58.36375 133.957969 
L 58.36375 133.957969 
L 52.16375 133.957969 
z
" clip-path="url(#p9c91d2fcf4)" style="fill: #fbaa1b"/>
   </g>
   <g id="patch_4">
    <path d="M 59.91375 133.957969 
L 66.11375 133.957969 
L 66.11375 133.707552 
L 59.91375 133.707552 
z
" clip-path="url(#p9c91d2fcf4)" style="fill: #fbaa1b"/>
   </g>
   <g id="patch_5">
    <path d="M 67.66375 133.957969 
L 73.86375 133.957969 
L 73.86375 119.35032 
L 67.66375 119.35032 
z
" clip-path="url(#p9c91d2fcf4)" style="fill: #fbaa1b"/>
   </g>
   <g id="patch_6">
    <path d="M 75.41375 133.957969 
L 81.61375 133.957969 
L 81.61375 113.29858 
L 75.41375 113.29858 
z
" clip-path="url(#p9c91d2fcf4)" style="fill: #fbaa1b"/>
   </g>
   <g id="patch_7">
    <path d="M 83.16375 133.957969 
L 89.36375 133.957969 
L 89.36375 133.957969 
L 83.16375 133.957969 
z
" clip-path="url(#p9c91d2fcf4)" style="fill: #fbaa1b"/>
   </g>
   <g id="patch_8">
    <path d="M 90.91375 133.957969 
L 97.11375 133.957969 
L 97.11375 133.957969 
L 90.91375 133.957969 
z
" clip-path="url(#p9c91d2fcf4)" style="fill: #fbaa1b"/>
   </g>
   <g id="patch_9">
    <path d="M 98.66375 133.957969 
L 104.86375 133.957969 
L 104.86375 133.957969 
L 98.66375 133.957969 
z
" clip-path="url(#p9c91d2fcf4)" style="fill: #fbaa1b"/>
   </g>
   <g id="patch_10">
    <path d="M 106.41375 133.957969 
L 112.61375 133.957969 
L 112.61375 133.957969 
L 106.41375 133.957969 
z
" clip-path="url(#p9c91d2fcf4)" style="fill: #fbaa1b"/>
   </g>
   <g id="patch_11">
    <path d="M 114.16375 133.957969 
L 120.36375 133.957969 
L 120.36375 133.957969 
L 114.16375 133.957969 
z
" clip-path="url(#p9c91d2fcf4)" style="fill: #fbaa1b"/>
   </g>
   <g id="patch_12">
    <path d="M 121.91375 133.957969 
L 128.11375 133.957969 
L 128.11375 133.957969 
L 121.91375 133.957969 
z
" clip-path="url(#p9c91d2fcf4)" style="fill: #fbaa1b"/>
   </g>
   <g id="patch_13">
    <path d="M 129.66375 133.957969 
L 135.86375 133.957969 
L 135.86375 133.957969 
L 129.66375 133.957969 
z
" clip-path="url(#p9c91d2fcf4)" style="fill: #fbaa1b"/>
   </g>
   <g id="patch_14">
    <path d="M 137.41375 133.957969 
L 143.61375 133.957969 
L 143.61375 133.957969 
L 137.41375 133.957969 
z
" clip-path="url(#p9c91d2fcf4)" style="fill: #fbaa1b"/>
   </g>
   <g id="patch_15">
    <path d="M 145.16375 133.957969 
L 151.36375 133.957969 
L 151.36375 133.957969 
L 145.16375 133.957969 
z
" clip-path="url(#p9c91d2fcf4)" style="fill: #fbaa1b"/>
   </g>
   <g id="patch_16">
    <path d="M 152.91375 133.957969 
L 159.11375 133.957969 
L 159.11375 133.957969 
L 152.91375 133.957969 
z
" clip-path="url(#p9c91d2fcf4)" style="fill: #fbaa1b"/>
   </g>
   <g id="patch_17">
    <path d="M 160.66375 133.957969 
L 166.86375 133.957969 
L 166.86375 133.957969 
L 160.66375 133.957969 
z
" clip-path="url(#p9c91d2fcf4)" style="fill: #fbaa1b"/>
   </g>
   <g id="patch_18">
    <path d="M 168.41375 133.957969 
L 174.61375 133.957969 
L 174.61375 133.957969 
L 168.41375 133.957969 
z
" clip-path="url(#p9c91d2fcf4)" style="fill: #fbaa1b"/>
   </g>
   <g id="patch_19">
    <path d="M 176.16375 133.957969 
L 182.36375 133.957969 
L 182.36375 133.957969 
L 176.16375 133.957969 
z
" clip-path="url(#p9c91d2fcf4)" style="fill: #fbaa1b"/>
   </g>
   <g id="patch_20">
    <path d="M 183.91375 133.957969 
L 190.11375 133.957969 
L 190.11375 133.957969 
L 183.91375 133.957969 
z
" clip-path="url(#p9c91d2fcf4)" style="fill: #fbaa1b"/>
   </g>
   <g id="patch_21">
    <path d="M 191.66375 133.957969 
L 197.86375 133.957969 
L 197.86375 133.957969 
L 191.66375 133.957969 
z
" clip-path="url(#p9c91d2fcf4)" style="fill: #fbaa1b"/>
   </g>
   <g id="patch_22">
    <path d="M 199.41375 133.957969 
L 205.61375 133.957969 
L 205.61375 133.957969 
L 199.41375 133.957969 
z
" clip-path="url(#p9c91d2fcf4)" style="fill: #fbaa1b"/>
   </g>
   <g id="patch_23">
    <path d="M 207.16375 133.957969 
L 213.36375 133.957969 
L 213.36375 133.957969 
L 207.16375 133.957969 
z
" clip-path="url(#p9c91d2fcf4)" style="fill: #fbaa1b"/>
   </g>
   <g id="patch_24">
    <path d="M 214.91375 133.957969 
L 221.11375 133.957969 
L 221.11375 133.957969 
L 214.91375 133.957969 
z
" clip-path="url(#p9c91d2fcf4)" style="fill: #fbaa1b"/>
   </g>
   <g id="patch_25">
    <path d="M 222.66375 133.957969 
L 228.86375 133.957969 
L 228.86375 133.957969 
L 222.66375 133.957969 
z
" clip-path="url(#p9c91d2fcf4)" style="fill: #fbaa1b"/>
   </g>
   <g id="patch_26">
    <path d="M 230.41375 133.957969 
L 236.61375 133.957969 
L 236.61375 133.957969 
L 230.41375 133.957969 
z
" clip-path="url(#p9c91d2fcf4)" style="fill: #fbaa1b"/>
   </g>
   <g id="patch_27">
    <path d="M 238.16375 133.957969 
L 244.36375 133.957969 
L 244.36375 133.957969 
L 238.16375 133.957969 
z
" clip-path="url(#p9c91d2fcf4)" style="fill: #fbaa1b"/>
   </g>
   <g id="patch_28">
    <path d="M 245.91375 133.957969 
L 252.11375 133.957969 
L 252.11375 133.957969 
L 245.91375 133.957969 
z
" clip-path="url(#p9c91d2fcf4)" style="fill: #fbaa1b"/>
   </g>
   <g id="patch_29">
    <path d="M 253.66375 133.957969 
L 259.86375 133.957969 
L 259.86375 133.957969 
L 253.66375 133.957969 
z
" clip-path="url(#p9c91d2fcf4)" style="fill: #fbaa1b"/>
   </g>
   <g id="patch_30">
    <path d="M 261.41375 133.957969 
L 267.61375 133.957969 
L 267.61375 133.957969 
L 261.41375 133.957969 
z
" clip-path="url(#p9c91d2fcf4)" style="fill: #fbaa1b"/>
   </g>
   <g id="patch_31">
    <path d="M 52.16375 133.957969 
L 58.36375 133.957969 
L 58.36375 133.957969 
L 52.16375 133.957969 
z
" clip-path="url(#p9c91d2fcf4)" style="fill: #8fc73e"/>
   </g>
   <g id="patch_32">
    <path d="M 59.91375 133.707552 
L 66.11375 133.707552 
L 66.11375 133.707552 
L 59.91375 133.707552 
z
" clip-path="url(#p9c91d2fcf4)" style="fill: #8fc73e"/>
   </g>
   <g id="patch_33">
    <path d="M 67.66375 119.35032 
L 73.86375 119.35032 
L 73.86375 92.117489 
L 67.66375 92.117489 
z
" clip-path="url(#p9c91d2fcf4)" style="fill: #8fc73e"/>
   </g>
   <g id="patch_34">
    <path d="M 75.41375 110.168369 
L 81.61375 110.168369 
L 81.61375 110.168369 
L 75.41375 110.168369 
z
" clip-path="url(#p9c91d2fcf4)" style="fill: #8fc73e"/>
   </g>
   <g id="patch_35">
    <path d="M 83.16375 133.957969 
L 89.36375 133.957969 
L 89.36375 133.957969 
L 83.16375 133.957969 
z
" clip-path="url(#p9c91d2fcf4)" style="fill: #8fc73e"/>
   </g>
   <g id="patch_36">
    <path d="M 90.91375 108.916285 
L 97.11375 108.916285 
L 97.11375 108.916285 
L 90.91375 108.916285 
z
" clip-path="url(#p9c91d2fcf4)" style="fill: #8fc73e"/>
   </g>
   <g id="patch_37">
    <path d="M 98.66375 121.437127 
L 104.86375 121.437127 
L 104.86375 121.437127 
L 98.66375 121.437127 
z
" clip-path="url(#p9c91d2fcf4)" style="fill: #8fc73e"/>
   </g>
   <g id="patch_38">
    <path d="M 106.41375 108.916285 
L 112.61375 108.916285 
L 112.61375 108.916285 
L 106.41375 108.916285 
z
" clip-path="url(#p9c91d2fcf4)" style="fill: #8fc73e"/>
   </g>
   <g id="patch_39">
    <path d="M 114.16375 83.874602 
L 120.36375 83.874602 
L 120.36375 83.874602 
L 114.16375 83.874602 
z
" clip-path="url(#p9c91d2fcf4)" style="fill: #8fc73e"/>
   </g>
   <g id="patch_40">
    <path d="M 121.91375 133.957969 
L 128.11375 133.957969 
L 128.11375 133.957969 
L 121.91375 133.957969 
z
" clip-path="url(#p9c91d2fcf4)" style="fill: #8fc73e"/>
   </g>
   <g id="patch_41">
    <path d="M 129.66375 133.957969 
L 135.86375 133.957969 
L 135.86375 133.957969 
L 129.66375 133.957969 
z
" clip-path="url(#p9c91d2fcf4)" style="fill: #8fc73e"/>
   </g>
   <g id="patch_42">
    <path d="M 137.41375 122.480531 
L 143.61375 122.480531 
L 143.61375 122.480531 
L 137.41375 122.480531 
z
" clip-path="url(#p9c91d2fcf4)" style="fill: #8fc73e"/>
   </g>
   <g id="patch_43">
    <path d="M 145.16375 133.957969 
L 151.36375 133.957969 
L 151.36375 133.957969 
L 145.16375 133.957969 
z
" clip-path="url(#p9c91d2fcf4)" style="fill: #8fc73e"/>
   </g>
   <g id="patch_44">
    <path d="M 152.91375 133.957969 
L 159.11375 133.957969 
L 159.11375 133.957969 
L 152.91375 133.957969 
z
" clip-path="url(#p9c91d2fcf4)" style="fill: #8fc73e"/>
   </g>
   <g id="patch_45">
    <path d="M 160.66375 133.957969 
L 166.86375 133.957969 
L 166.86375 133.957969 
L 160.66375 133.957969 
z
" clip-path="url(#p9c91d2fcf4)" style="fill: #8fc73e"/>
   </g>
   <g id="patch_46">
    <path d="M 168.41375 133.957969 
L 174.61375 133.957969 
L 174.61375 133.957969 
L 168.41375 133.957969 
z
" clip-path="url(#p9c91d2fcf4)" style="fill: #8fc73e"/>
   </g>
   <g id="patch_47">
    <path d="M 176.16375 133.957969 
L 182.36375 133.957969 
L 182.36375 133.957969 
L 176.16375 133.957969 
z
" clip-path="url(#p9c91d2fcf4)" style="fill: #8fc73e"/>
   </g>
   <g id="patch_48">
    <path d="M 183.91375 133.957969 
L 190.11375 133.957969 
L 190.11375 133.957969 
L 183.91375 133.957969 
z
" clip-path="url(#p9c91d2fcf4)" style="fill: #8fc73e"/>
   </g>
   <g id="patch_49">
    <path d="M 191.66375 133.957969 
L 197.86375 133.957969 
L 197.86375 133.957969 
L 191.66375 133.957969 
z
" clip-path="url(#p9c91d2fcf4)" style="fill: #8fc73e"/>
   </g>
   <g id="patch_50">
    <path d="M 199.41375 133.957969 
L 205.61375 133.957969 
L 205.61375 133.957969 
L 199.41375 133.957969 
z
" clip-path="url(#p9c91d2fcf4)" style="fill: #8fc73e"/>
   </g>
   <g id="patch_51">
    <path d="M 207.16375 133.957969 
L 213.36375 133.957969 
L 213.36375 133.957969 
L 207.16375 133.957969 
z
" clip-path="url(#p9c91d2fcf4)" style="fill: #8fc73e"/>
   </g>
   <g id="patch_52">
    <path d="M 214.91375 133.957969 
L 221.11375 133.957969 
L 221.11375 133.957969 
L 214.91375 133.957969 
z
" clip-path="url(#p9c91d2fcf4)" style="fill: #8fc73e"/>
   </g>
   <g id="patch_53">
    <path d="M 222.66375 133.957969 
L 228.86375 133.957969 
L 228.86375 133.957969 
L 222.66375 133.957969 
z
" clip-path="url(#p9c91d2fcf4)" style="fill: #8fc73e"/>
   </g>
   <g id="patch_54">
    <path d="M 230.41375 133.957969 
L 236.61375 133.957969 
L 236.61375 133.957969 
L 230.41375 133.957969 
z
" clip-path="url(#p9c91d2fcf4)" style="fill: #8fc73e"/>
   </g>
   <g id="patch_55">
    <path d="M 238.16375 133.957969 
L 244.36375 133.957969 
L 244.36375 133.957969 
L 238.16375 133.957969 
z
" clip-path="url(#p9c91d2fcf4)" style="fill: #8fc73e"/>
   </g>
   <g id="patch_56">
    <path d="M 245.91375 133.957969 
L 252.11375 133.957969 
L 252.11375 133.957969 
L 245.91375 133.957969 
z
" clip-path="url(#p9c91d2fcf4)" style="fill: #8fc73e"/>
   </g>
   <g id="patch_57">
    <path d="M 253.66375 133.957969 
L 259.86375 133.957969 
L 259.86375 133.957969 
L 253.66375 133.957969 
z
" clip-path="url(#p9c91d2fcf4)" style="fill: #8fc73e"/>
   </g>
   <g id="patch_58">
    <path d="M 261.41375 133.957969 
L 267.61375 133.957969 
L 267.61375 133.957969 
L 261.41375 133.957969 
z
" clip-path="url(#p9c91d2fcf4)" style="fill: #8fc73e"/>
   </g>
   <g id="patch_59">
    <path d="M 52.16375 133.957969 
L 58.36375 133.957969 
L 58.36375 133.957969 
L 52.16375 133.957969 
z
" clip-path="url(#p9c91d2fcf4)" style="fill: #207653"/>
   </g>
   <g id="patch_60">
    <path d="M 59.91375 133.707552 
L 66.11375 133.707552 
L 66.11375 133.707552 
L 59.91375 133.707552 
z
" clip-path="url(#p9c91d2fcf4)" style="fill: #207653"/>
   </g>
   <g id="patch_61">
    <path d="M 67.66375 102.551524 
L 73.86375 102.551524 
L 73.86375 63.215213 
L 67.66375 63.215213 
z
" clip-path="url(#p9c91d2fcf4)" style="fill: #207653"/>
   </g>
   <g id="patch_62">
    <path d="M 75.41375 94.099956 
L 81.61375 94.099956 
L 81.61375 94.099956 
L 75.41375 94.099956 
z
" clip-path="url(#p9c91d2fcf4)" style="fill: #207653"/>
   </g>
   <g id="patch_63">
    <path d="M 83.16375 133.957969 
L 89.36375 133.957969 
L 89.36375 121.541467 
L 83.16375 121.541467 
z
" clip-path="url(#p9c91d2fcf4)" style="fill: #207653"/>
   </g>
   <g id="patch_64">
    <path d="M 90.91375 103.699268 
L 97.11375 103.699268 
L 97.11375 103.699268 
L 90.91375 103.699268 
z
" clip-path="url(#p9c91d2fcf4)" style="fill: #207653"/>
   </g>
   <g id="patch_65">
    <path d="M 98.66375 121.437127 
L 104.86375 121.437127 
L 104.86375 121.437127 
L 98.66375 121.437127 
z
" clip-path="url(#p9c91d2fcf4)" style="fill: #207653"/>
   </g>
   <g id="patch_66">
    <path d="M 106.41375 108.916285 
L 112.61375 108.916285 
L 112.61375 108.916285 
L 106.41375 108.916285 
z
" clip-path="url(#p9c91d2fcf4)" style="fill: #207653"/>
   </g>
   <g id="patch_67">
    <path d="M 114.16375 81.370434 
L 120.36375 81.370434 
L 120.36375 81.370434 
L 114.16375 81.370434 
z
" clip-path="url(#p9c91d2fcf4)" style="fill: #207653"/>
   </g>
   <g id="patch_68">
    <path d="M 121.91375 133.957969 
L 128.11375 133.957969 
L 128.11375 133.957969 
L 121.91375 133.957969 
z
" clip-path="url(#p9c91d2fcf4)" style="fill: #207653"/>
   </g>
   <g id="patch_69">
    <path d="M 129.66375 133.957969 
L 135.86375 133.957969 
L 135.86375 133.957969 
L 129.66375 133.957969 
z
" clip-path="url(#p9c91d2fcf4)" style="fill: #207653"/>
   </g>
   <g id="patch_70">
    <path d="M 137.41375 117.263513 
L 143.61375 117.263513 
L 143.61375 117.263513 
L 137.41375 117.263513 
z
" clip-path="url(#p9c91d2fcf4)" style="fill: #207653"/>
   </g>
   <g id="patch_71">
    <path d="M 145.16375 122.689211 
L 151.36375 122.689211 
L 151.36375 122.689211 
L 145.16375 122.689211 
z
" clip-path="url(#p9c91d2fcf4)" style="fill: #207653"/>
   </g>
   <g id="patch_72">
    <path d="M 152.91375 123.210913 
L 159.11375 123.210913 
L 159.11375 123.210913 
L 152.91375 123.210913 
z
" clip-path="url(#p9c91d2fcf4)" style="fill: #207653"/>
   </g>
   <g id="patch_73">
    <path d="M 160.66375 133.957969 
L 166.86375 133.957969 
L 166.86375 133.957969 
L 160.66375 133.957969 
z
" clip-path="url(#p9c91d2fcf4)" style="fill: #207653"/>
   </g>
   <g id="patch_74">
    <path d="M 168.41375 133.957969 
L 174.61375 133.957969 
L 174.61375 133.957969 
L 168.41375 133.957969 
z
" clip-path="url(#p9c91d2fcf4)" style="fill: #207653"/>
   </g>
   <g id="patch_75">
    <path d="M 176.16375 133.957969 
L 182.36375 133.957969 
L 182.36375 133.957969 
L 176.16375 133.957969 
z
" clip-path="url(#p9c91d2fcf4)" style="fill: #207653"/>
   </g>
   <g id="patch_76">
    <path d="M 183.91375 133.957969 
L 190.11375 133.957969 
L 190.11375 133.957969 
L 183.91375 133.957969 
z
" clip-path="url(#p9c91d2fcf4)" style="fill: #207653"/>
   </g>
   <g id="patch_77">
    <path d="M 191.66375 133.957969 
L 197.86375 133.957969 
L 197.86375 133.957969 
L 191.66375 133.957969 
z
" clip-path="url(#p9c91d2fcf4)" style="fill: #207653"/>
   </g>
   <g id="patch_78">
    <path d="M 199.41375 133.957969 
L 205.61375 133.957969 
L 205.61375 133.957969 
L 199.41375 133.957969 
z
" clip-path="url(#p9c91d2fcf4)" style="fill: #207653"/>
   </g>
   <g id="patch_79">
    <path d="M 207.16375 133.957969 
L 213.36375 133.957969 
L 213.36375 133.957969 
L 207.16375 133.957969 
z
" clip-path="url(#p9c91d2fcf4)" style="fill: #207653"/>
   </g>
   <g id="patch_80">
    <path d="M 214.91375 133.957969 
L 221.11375 133.957969 
L 221.11375 133.957969 
L 214.91375 133.957969 
z
" clip-path="url(#p9c91d2fcf4)" style="fill: #207653"/>
   </g>
   <g id="patch_81">
    <path d="M 222.66375 133.957969 
L 228.86375 133.957969 
L 228.86375 133.957969 
L 222.66375 133.957969 
z
" clip-path="url(#p9c91d2fcf4)" style="fill: #207653"/>
   </g>
   <g id="patch_82">
    <path d="M 230.41375 133.957969 
L 236.61375 133.957969 
L 236.61375 133.957969 
L 230.41375 133.957969 
z
" clip-path="url(#p9c91d2fcf4)" style="fill: #207653"/>
   </g>
   <g id="patch_83">
    <path d="M 238.16375 133.957969 
L 244.36375 133.957969 
L 244.36375 133.957969 
L 238.16375 133.957969 
z
" clip-path="url(#p9c91d2fcf4)" style="fill: #207653"/>
   </g>
   <g id="patch_84">
    <path d="M 245.91375 130.097376 
L 252.11375 130.097376 
L 252.11375 130.097376 
L 245.91375 130.097376 
z
" clip-path="url(#p9c91d2fcf4)" style="fill: #207653"/>
   </g>
   <g id="patch_85">
    <path d="M 253.66375 133.957969 
L 259.86375 133.957969 
L 259.86375 133.957969 
L 253.66375 133.957969 
z
" clip-path="url(#p9c91d2fcf4)" style="fill: #207653"/>
   </g>
   <g id="patch_86">
    <path d="M 261.41375 123.002232 
L 267.61375 123.002232 
L 267.61375 123.002232 
L 261.41375 123.002232 
z
" clip-path="url(#p9c91d2fcf4)" style="fill: #207653"/>
   </g>
   <g id="matplotlib.axis_1">
    <g id="xtick_1">
     <g id="line2d_1">
      <defs>
       <path id="m3ccf7e0f0f" d="M 0 0 
L 0 3.5 
" style="stroke: #000000; stroke-width: 0.8"/>
      </defs>
      <g>
       <use xlink:href="#m3ccf7e0f0f" x="70.76375" y="133.957969" style="stroke: #000000; stroke-width: 0.8"/>
      </g>
     </g>
     <g id="text_1">
      <!-- 2025 -->
      <g transform="translate(58.03875 148.556406) scale(0.1 -0.1)">
       <defs>
        <path id="DejaVuSans-32" d="M 1228 531 
L 3431 531 
L 3431 0 
L 469 0 
L 469 531 
Q 828 903 1448 1529 
Q 2069 2156 2228 2338 
Q 2531 2678 2651 2914 
Q 2772 3150 2772 3378 
Q 2772 3750 2511 3984 
Q 2250 4219 1831 4219 
Q 1534 4219 1204 4116 
Q 875 4013 500 3803 
L 500 4441 
Q 881 4594 1212 4672 
Q 1544 4750 1819 4750 
Q 2544 4750 2975 4387 
Q 3406 4025 3406 3419 
Q 3406 3131 3298 2873 
Q 3191 2616 2906 2266 
Q 2828 2175 2409 1742 
Q 1991 1309 1228 531 
z
" transform="scale(0.015625)"/>
        <path id="DejaVuSans-30" d="M 2034 4250 
Q 1547 4250 1301 3770 
Q 1056 3291 1056 2328 
Q 1056 1369 1301 889 
Q 1547 409 2034 409 
Q 2525 409 2770 889 
Q 3016 1369 3016 2328 
Q 3016 3291 2770 3770 
Q 2525 4250 2034 4250 
z
M 2034 4750 
Q 2819 4750 3233 4129 
Q 3647 3509 3647 2328 
Q 3647 1150 3233 529 
Q 2819 -91 2034 -91 
Q 1250 -91 836 529 
Q 422 1150 422 2328 
Q 422 3509 836 4129 
Q 1250 4750 2034 4750 
z
" transform="scale(0.015625)"/>
        <path id="DejaVuSans-35" d="M 691 4666 
L 3169 4666 
L 3169 4134 
L 1269 4134 
L 1269 2991 
Q 1406 3038 1543 3061 
Q 1681 3084 1819 3084 
Q 2600 3084 3056 2656 
Q 3513 2228 3513 1497 
Q 3513 744 3044 326 
Q 2575 -91 1722 -91 
Q 1428 -91 1123 -41 
Q 819 9 494 109 
L 494 744 
Q 775 591 1075 516 
Q 1375 441 1709 441 
Q 2250 441 2565 725 
Q 2881 1009 2881 1497 
Q 2881 1984 2565 2268 
Q 2250 2553 1709 2553 
Q 1456 2553 1204 2497 
Q 953 2441 691 2322 
L 691 4666 
z
" transform="scale(0.015625)"/>
       </defs>
       <use xlink:href="#DejaVuSans-32"/>
       <use xlink:href="#DejaVuSans-30" transform="translate(63.623047 0)"/>
       <use xlink:href="#DejaVuSans-32" transform="translate(127.246094 0)"/>
       <use xlink:href="#DejaVuSans-35" transform="translate(190.869141 0)"/>
      </g>
     </g>
    </g>
    <g id="xtick_2">
     <g id="line2d_2">
      <g>
       <use xlink:href="#m3ccf7e0f0f" x="109.51375" y="133.957969" style="stroke: #000000; stroke-width: 0.8"/>
      </g>
     </g>
     <g id="text_2">
      <!-- 2030 -->
      <g transform="translate(96.78875 148.556406) scale(0.1 -0.1)">
       <defs>
        <path id="DejaVuSans-33" d="M 2597 2516 
Q 3050 2419 3304 2112 
Q 3559 1806 3559 1356 
Q 3559 666 3084 287 
Q 2609 -91 1734 -91 
Q 1441 -91 1130 -33 
Q 819 25 488 141 
L 488 750 
Q 750 597 1062 519 
Q 1375 441 1716 441 
Q 2309 441 2620 675 
Q 2931 909 2931 1356 
Q 2931 1769 2642 2001 
Q 2353 2234 1838 2234 
L 1294 2234 
L 1294 2753 
L 1863 2753 
Q 2328 2753 2575 2939 
Q 2822 3125 2822 3475 
Q 2822 3834 2567 4026 
Q 2313 4219 1838 4219 
Q 1578 4219 1281 4162 
Q 984 4106 628 3988 
L 628 4550 
Q 988 4650 1302 4700 
Q 1616 4750 1894 4750 
Q 2613 4750 3031 4423 
Q 3450 4097 3450 3541 
Q 3450 3153 3228 2886 
Q 3006 2619 2597 2516 
z
" transform="scale(0.015625)"/>
       </defs>
       <use xlink:href="#DejaVuSans-32"/>
       <use xlink:href="#DejaVuSans-30" transform="translate(63.623047 0)"/>
       <use xlink:href="#DejaVuSans-33" transform="translate(127.246094 0)"/>
       <use xlink:href="#DejaVuSans-30" transform="translate(190.869141 0)"/>
      </g>
     </g>
    </g>
    <g id="xtick_3">
     <g id="line2d_3">
      <g>
       <use xlink:href="#m3ccf7e0f0f" x="148.26375" y="133.957969" style="stroke: #000000; stroke-width: 0.8"/>
      </g>
     </g>
     <g id="text_3">
      <!-- 2035 -->
      <g transform="translate(135.53875 148.556406) scale(0.1 -0.1)">
       <use xlink:href="#DejaVuSans-32"/>
       <use xlink:href="#DejaVuSans-30" transform="translate(63.623047 0)"/>
       <use xlink:href="#DejaVuSans-33" transform="translate(127.246094 0)"/>
       <use xlink:href="#DejaVuSans-35" transform="translate(190.869141 0)"/>
      </g>
     </g>
    </g>
    <g id="xtick_4">
     <g id="line2d_4">
      <g>
       <use xlink:href="#m3ccf7e0f0f" x="187.01375" y="133.957969" style="stroke: #000000; stroke-width: 0.8"/>
      </g>
     </g>
     <g id="text_4">
      <!-- 2040 -->
      <g transform="translate(174.28875 148.556406) scale(0.1 -0.1)">
       <defs>
        <path id="DejaVuSans-34" d="M 2419 4116 
L 825 1625 
L 2419 1625 
L 2419 4116 
z
M 2253 4666 
L 3047 4666 
L 3047 1625 
L 3713 1625 
L 3713 1100 
L 3047 1100 
L 3047 0 
L 2419 0 
L 2419 1100 
L 313 1100 
L 313 1709 
L 2253 4666 
z
" transform="scale(0.015625)"/>
       </defs>
       <use xlink:href="#DejaVuSans-32"/>
       <use xlink:href="#DejaVuSans-30" transform="translate(63.623047 0)"/>
       <use xlink:href="#DejaVuSans-34" transform="translate(127.246094 0)"/>
       <use xlink:href="#DejaVuSans-30" transform="translate(190.869141 0)"/>
      </g>
     </g>
    </g>
    <g id="xtick_5">
     <g id="line2d_5">
      <g>
       <use xlink:href="#m3ccf7e0f0f" x="225.76375" y="133.957969" style="stroke: #000000; stroke-width: 0.8"/>
      </g>
     </g>
     <g id="text_5">
      <!-- 2045 -->
      <g transform="translate(213.03875 148.556406) scale(0.1 -0.1)">
       <use xlink:href="#DejaVuSans-32"/>
       <use xlink:href="#DejaVuSans-30" transform="translate(63.623047 0)"/>
       <use xlink:href="#DejaVuSans-34" transform="translate(127.246094 0)"/>
       <use xlink:href="#DejaVuSans-35" transform="translate(190.869141 0)"/>
      </g>
     </g>
    </g>
    <g id="xtick_6">
     <g id="line2d_6">
      <g>
       <use xlink:href="#m3ccf7e0f0f" x="264.51375" y="133.957969" style="stroke: #000000; stroke-width: 0.8"/>
      </g>
     </g>
     <g id="text_6">
      <!-- 2050 -->
      <g transform="translate(251.78875 148.556406) scale(0.1 -0.1)">
       <use xlink:href="#DejaVuSans-32"/>
       <use xlink:href="#DejaVuSans-30" transform="translate(63.623047 0)"/>
       <use xlink:href="#DejaVuSans-35" transform="translate(127.246094 0)"/>
       <use xlink:href="#DejaVuSans-30" transform="translate(190.869141 0)"/>
      </g>
     </g>
    </g>
   </g>
   <g id="matplotlib.axis_2">
    <g id="ytick_1">
     <g id="line2d_7">
      <defs>
       <path id="m7cff095904" d="M 0 0 
L -3.5 0 
" style="stroke: #000000; stroke-width: 0.8"/>
      </defs>
      <g>
       <use xlink:href="#m7cff095904" x="55.26375" y="133.957969" style="stroke: #000000; stroke-width: 0.8"/>
      </g>
     </g>
     <g id="text_7">
      <!-- 0 -->
      <g transform="translate(41.90125 137.757187) scale(0.1 -0.1)">
       <use xlink:href="#DejaVuSans-30"/>
      </g>
     </g>
    </g>
    <g id="ytick_2">
     <g id="line2d_8">
      <g>
       <use xlink:href="#m7cff095904" x="55.26375" y="107.872882" style="stroke: #000000; stroke-width: 0.8"/>
      </g>
     </g>
     <g id="text_8">
      <!-- 250 -->
      <g transform="translate(29.17625 111.672101) scale(0.1 -0.1)">
       <use xlink:href="#DejaVuSans-32"/>
       <use xlink:href="#DejaVuSans-35" transform="translate(63.623047 0)"/>
       <use xlink:href="#DejaVuSans-30" transform="translate(127.246094 0)"/>
      </g>
     </g>
    </g>
    <g id="ytick_3">
     <g id="line2d_9">
      <g>
       <use xlink:href="#m7cff095904" x="55.26375" y="81.787795" style="stroke: #000000; stroke-width: 0.8"/>
      </g>
     </g>
     <g id="text_9">
      <!-- 500 -->
      <g transform="translate(29.17625 85.587014) scale(0.1 -0.1)">
       <use xlink:href="#DejaVuSans-35"/>
       <use xlink:href="#DejaVuSans-30" transform="translate(63.623047 0)"/>
       <use xlink:href="#DejaVuSans-30" transform="translate(127.246094 0)"/>
      </g>
     </g>
    </g>
    <g id="ytick_4">
     <g id="line2d_10">
      <g>
       <use xlink:href="#m7cff095904" x="55.26375" y="55.702708" style="stroke: #000000; stroke-width: 0.8"/>
      </g>
     </g>
     <g id="text_10">
      <!-- 750 -->
      <g transform="translate(29.17625 59.501927) scale(0.1 -0.1)">
       <defs>
        <path id="DejaVuSans-37" d="M 525 4666 
L 3525 4666 
L 3525 4397 
L 1831 0 
L 1172 0 
L 2766 4134 
L 525 4134 
L 525 4666 
z
" transform="scale(0.015625)"/>
       </defs>
       <use xlink:href="#DejaVuSans-37"/>
       <use xlink:href="#DejaVuSans-35" transform="translate(63.623047 0)"/>
       <use xlink:href="#DejaVuSans-30" transform="translate(127.246094 0)"/>
      </g>
     </g>
    </g>
    <g id="ytick_5">
     <g id="line2d_11">
      <g>
       <use xlink:href="#m7cff095904" x="55.26375" y="29.617621" style="stroke: #000000; stroke-width: 0.8"/>
      </g>
     </g>
     <g id="text_11">
      <!-- 1000 -->
      <g transform="translate(22.81375 33.41684) scale(0.1 -0.1)">
       <defs>
        <path id="DejaVuSans-31" d="M 794 531 
L 1825 531 
L 1825 4091 
L 703 3866 
L 703 4441 
L 1819 4666 
L 2450 4666 
L 2450 531 
L 3481 531 
L 3481 0 
L 794 0 
L 794 531 
z
" transform="scale(0.015625)"/>
       </defs>
       <use xlink:href="#DejaVuSans-31"/>
       <use xlink:href="#DejaVuSans-30" transform="translate(63.623047 0)"/>
       <use xlink:href="#DejaVuSans-30" transform="translate(127.246094 0)"/>
       <use xlink:href="#DejaVuSans-30" transform="translate(190.869141 0)"/>
      </g>
     </g>
    </g>
    <g id="text_12">
     <!-- [MW] -->
     <g transform="translate(16.318125 94.309219) rotate(-90) scale(0.12 -0.12)">
      <defs>
       <path id="DejaVuSans-5b" d="M 550 4863 
L 1875 4863 
L 1875 4416 
L 1125 4416 
L 1125 -397 
L 1875 -397 
L 1875 -844 
L 550 -844 
L 550 4863 
z
" transform="scale(0.015625)"/>
       <path id="DejaVuSans-4d" d="M 628 4666 
L 1569 4666 
L 2759 1491 
L 3956 4666 
L 4897 4666 
L 4897 0 
L 4281 0 
L 4281 4097 
L 3078 897 
L 2444 897 
L 1241 4097 
L 1241 0 
L 628 0 
L 628 4666 
z
" transform="scale(0.015625)"/>
       <path id="DejaVuSans-57" d="M 213 4666 
L 850 4666 
L 1831 722 
L 2809 4666 
L 3519 4666 
L 4500 722 
L 5478 4666 
L 6119 4666 
L 4947 0 
L 4153 0 
L 3169 4050 
L 2175 0 
L 1381 0 
L 213 4666 
z
" transform="scale(0.015625)"/>
       <path id="DejaVuSans-5d" d="M 1947 4863 
L 1947 -844 
L 622 -844 
L 622 -397 
L 1369 -397 
L 1369 4416 
L 622 4416 
L 622 4863 
L 1947 4863 
z
" transform="scale(0.015625)"/>
      </defs>
      <use xlink:href="#DejaVuSans-5b"/>
      <use xlink:href="#DejaVuSans-4d" transform="translate(39.013672 0)"/>
      <use xlink:href="#DejaVuSans-57" transform="translate(125.292969 0)"/>
      <use xlink:href="#DejaVuSans-5d" transform="translate(224.169922 0)"/>
     </g>
    </g>
   </g>
   <g id="patch_87">
    <path d="M 55.26375 133.957969 
L 55.26375 23.077969 
" style="fill: none; stroke: #000000; stroke-width: 0.8; stroke-linejoin: miter; stroke-linecap: square"/>
   </g>
   <g id="patch_88">
    <path d="M 264.51375 133.957969 
L 264.51375 23.077969 
" style="fill: none; stroke: #000000; stroke-width: 0.8; stroke-linejoin: miter; stroke-linecap: square"/>
   </g>
   <g id="patch_89">
    <path d="M 55.26375 133.957969 
L 264.51375 133.957969 
" style="fill: none; stroke: #000000; stroke-width: 0.8; stroke-linejoin: miter; stroke-linecap: square"/>
   </g>
   <g id="patch_90">
    <path d="M 55.26375 23.077969 
L 264.51375 23.077969 
" style="fill: none; stroke: #000000; stroke-width: 0.8; stroke-linejoin: miter; stroke-linecap: square"/>
   </g>
   <g id="text_13">
    <!-- Tend -->
    <g transform="translate(142.627188 17.077969) scale(0.13 -0.13)">
     <defs>
      <path id="DejaVuSans-Bold-54" d="M 31 4666 
L 4331 4666 
L 4331 3756 
L 2784 3756 
L 2784 0 
L 1581 0 
L 1581 3756 
L 31 3756 
L 31 4666 
z
" transform="scale(0.015625)"/>
      <path id="DejaVuSans-Bold-65" d="M 4031 1759 
L 4031 1441 
L 1416 1441 
Q 1456 1047 1700 850 
Q 1944 653 2381 653 
Q 2734 653 3104 758 
Q 3475 863 3866 1075 
L 3866 213 
Q 3469 63 3072 -14 
Q 2675 -91 2278 -91 
Q 1328 -91 801 392 
Q 275 875 275 1747 
Q 275 2603 792 3093 
Q 1309 3584 2216 3584 
Q 3041 3584 3536 3087 
Q 4031 2591 4031 1759 
z
M 2881 2131 
Q 2881 2450 2695 2645 
Q 2509 2841 2209 2841 
Q 1884 2841 1681 2658 
Q 1478 2475 1428 2131 
L 2881 2131 
z
" transform="scale(0.015625)"/>
      <path id="DejaVuSans-Bold-6e" d="M 4056 2131 
L 4056 0 
L 2931 0 
L 2931 347 
L 2931 1631 
Q 2931 2084 2911 2256 
Q 2891 2428 2841 2509 
Q 2775 2619 2662 2680 
Q 2550 2741 2406 2741 
Q 2056 2741 1856 2470 
Q 1656 2200 1656 1722 
L 1656 0 
L 538 0 
L 538 3500 
L 1656 3500 
L 1656 2988 
Q 1909 3294 2193 3439 
Q 2478 3584 2822 3584 
Q 3428 3584 3742 3212 
Q 4056 2841 4056 2131 
z
" transform="scale(0.015625)"/>
      <path id="DejaVuSans-Bold-64" d="M 2919 2988 
L 2919 4863 
L 4044 4863 
L 4044 0 
L 2919 0 
L 2919 506 
Q 2688 197 2409 53 
Q 2131 -91 1766 -91 
Q 1119 -91 703 423 
Q 288 938 288 1747 
Q 288 2556 703 3070 
Q 1119 3584 1766 3584 
Q 2128 3584 2408 3439 
Q 2688 3294 2919 2988 
z
M 2181 722 
Q 2541 722 2730 984 
Q 2919 1247 2919 1747 
Q 2919 2247 2730 2509 
Q 2541 2772 2181 2772 
Q 1825 2772 1636 2509 
Q 1447 2247 1447 1747 
Q 1447 1247 1636 984 
Q 1825 722 2181 722 
z
" transform="scale(0.015625)"/>
     </defs>
     <use xlink:href="#DejaVuSans-Bold-54"/>
     <use xlink:href="#DejaVuSans-Bold-65" transform="translate(54.962891 0)"/>
     <use xlink:href="#DejaVuSans-Bold-6e" transform="translate(122.785156 0)"/>
     <use xlink:href="#DejaVuSans-Bold-64" transform="translate(193.976562 0)"/>
    </g>
   </g>
   <g id="legend_1">
    <g id="patch_91">
     <path d="M 181.968438 45.764406 
L 201.968438 45.764406 
L 201.968438 38.764406 
L 181.968438 38.764406 
z
" style="fill: #fbaa1b"/>
    </g>
    <g id="text_14">
     <!-- Solar -->
     <g transform="translate(209.968438 45.764406) scale(0.1 -0.1)">
      <defs>
       <path id="DejaVuSans-53" d="M 3425 4513 
L 3425 3897 
Q 3066 4069 2747 4153 
Q 2428 4238 2131 4238 
Q 1616 4238 1336 4038 
Q 1056 3838 1056 3469 
Q 1056 3159 1242 3001 
Q 1428 2844 1947 2747 
L 2328 2669 
Q 3034 2534 3370 2195 
Q 3706 1856 3706 1288 
Q 3706 609 3251 259 
Q 2797 -91 1919 -91 
Q 1588 -91 1214 -16 
Q 841 59 441 206 
L 441 856 
Q 825 641 1194 531 
Q 1563 422 1919 422 
Q 2459 422 2753 634 
Q 3047 847 3047 1241 
Q 3047 1584 2836 1778 
Q 2625 1972 2144 2069 
L 1759 2144 
Q 1053 2284 737 2584 
Q 422 2884 422 3419 
Q 422 4038 858 4394 
Q 1294 4750 2059 4750 
Q 2388 4750 2728 4690 
Q 3069 4631 3425 4513 
z
" transform="scale(0.015625)"/>
       <path id="DejaVuSans-6f" d="M 1959 3097 
Q 1497 3097 1228 2736 
Q 959 2375 959 1747 
Q 959 1119 1226 758 
Q 1494 397 1959 397 
Q 2419 397 2687 759 
Q 2956 1122 2956 1747 
Q 2956 2369 2687 2733 
Q 2419 3097 1959 3097 
z
M 1959 3584 
Q 2709 3584 3137 3096 
Q 3566 2609 3566 1747 
Q 3566 888 3137 398 
Q 2709 -91 1959 -91 
Q 1206 -91 779 398 
Q 353 888 353 1747 
Q 353 2609 779 3096 
Q 1206 3584 1959 3584 
z
" transform="scale(0.015625)"/>
       <path id="DejaVuSans-6c" d="M 603 4863 
L 1178 4863 
L 1178 0 
L 603 0 
L 603 4863 
z
" transform="scale(0.015625)"/>
       <path id="DejaVuSans-61" d="M 2194 1759 
Q 1497 1759 1228 1600 
Q 959 1441 959 1056 
Q 959 750 1161 570 
Q 1363 391 1709 391 
Q 2188 391 2477 730 
Q 2766 1069 2766 1631 
L 2766 1759 
L 2194 1759 
z
M 3341 1997 
L 3341 0 
L 2766 0 
L 2766 531 
Q 2569 213 2275 61 
Q 1981 -91 1556 -91 
Q 1019 -91 701 211 
Q 384 513 384 1019 
Q 384 1609 779 1909 
Q 1175 2209 1959 2209 
L 2766 2209 
L 2766 2266 
Q 2766 2663 2505 2880 
Q 2244 3097 1772 3097 
Q 1472 3097 1187 3025 
Q 903 2953 641 2809 
L 641 3341 
Q 956 3463 1253 3523 
Q 1550 3584 1831 3584 
Q 2591 3584 2966 3190 
Q 3341 2797 3341 1997 
z
" transform="scale(0.015625)"/>
       <path id="DejaVuSans-72" d="M 2631 2963 
Q 2534 3019 2420 3045 
Q 2306 3072 2169 3072 
Q 1681 3072 1420 2755 
Q 1159 2438 1159 1844 
L 1159 0 
L 581 0 
L 581 3500 
L 1159 3500 
L 1159 2956 
Q 1341 3275 1631 3429 
Q 1922 3584 2338 3584 
Q 2397 3584 2469 3576 
Q 2541 3569 2628 3553 
L 2631 2963 
z
" transform="scale(0.015625)"/>
      </defs>
      <use xlink:href="#DejaVuSans-53"/>
      <use xlink:href="#DejaVuSans-6f" transform="translate(63.476562 0)"/>
      <use xlink:href="#DejaVuSans-6c" transform="translate(124.658203 0)"/>
      <use xlink:href="#DejaVuSans-61" transform="translate(152.441406 0)"/>
      <use xlink:href="#DejaVuSans-72" transform="translate(213.720703 0)"/>
     </g>
    </g>
    <g id="patch_92">
     <path d="M 181.968438 60.442531 
L 201.968438 60.442531 
L 201.968438 53.442531 
L 181.968438 53.442531 
z
" style="fill: #8fc73e"/>
    </g>
    <g id="text_15">
     <!-- Eólica -->
     <g transform="translate(209.968438 60.442531) scale(0.1 -0.1)">
      <defs>
       <path id="DejaVuSans-45" d="M 628 4666 
L 3578 4666 
L 3578 4134 
L 1259 4134 
L 1259 2753 
L 3481 2753 
L 3481 2222 
L 1259 2222 
L 1259 531 
L 3634 531 
L 3634 0 
L 628 0 
L 628 4666 
z
" transform="scale(0.015625)"/>
       <path id="DejaVuSans-f3" d="M 1959 3097 
Q 1497 3097 1228 2736 
Q 959 2375 959 1747 
Q 959 1119 1226 758 
Q 1494 397 1959 397 
Q 2419 397 2687 759 
Q 2956 1122 2956 1747 
Q 2956 2369 2687 2733 
Q 2419 3097 1959 3097 
z
M 1959 3584 
Q 2709 3584 3137 3096 
Q 3566 2609 3566 1747 
Q 3566 888 3137 398 
Q 2709 -91 1959 -91 
Q 1206 -91 779 398 
Q 353 888 353 1747 
Q 353 2609 779 3096 
Q 1206 3584 1959 3584 
z
M 2394 5119 
L 3016 5119 
L 1998 3944 
L 1519 3944 
L 2394 5119 
z
" transform="scale(0.015625)"/>
       <path id="DejaVuSans-69" d="M 603 3500 
L 1178 3500 
L 1178 0 
L 603 0 
L 603 3500 
z
M 603 4863 
L 1178 4863 
L 1178 4134 
L 603 4134 
L 603 4863 
z
" transform="scale(0.015625)"/>
       <path id="DejaVuSans-63" d="M 3122 3366 
L 3122 2828 
Q 2878 2963 2633 3030 
Q 2388 3097 2138 3097 
Q 1578 3097 1268 2742 
Q 959 2388 959 1747 
Q 959 1106 1268 751 
Q 1578 397 2138 397 
Q 2388 397 2633 464 
Q 2878 531 3122 666 
L 3122 134 
Q 2881 22 2623 -34 
Q 2366 -91 2075 -91 
Q 1284 -91 818 406 
Q 353 903 353 1747 
Q 353 2603 823 3093 
Q 1294 3584 2113 3584 
Q 2378 3584 2631 3529 
Q 2884 3475 3122 3366 
z
" transform="scale(0.015625)"/>
      </defs>
      <use xlink:href="#DejaVuSans-45"/>
      <use xlink:href="#DejaVuSans-f3" transform="translate(63.183594 0)"/>
      <use xlink:href="#DejaVuSans-6c" transform="translate(124.365234 0)"/>
      <use xlink:href="#DejaVuSans-69" transform="translate(152.148438 0)"/>
      <use xlink:href="#DejaVuSans-63" transform="translate(179.931641 0)"/>
      <use xlink:href="#DejaVuSans-61" transform="translate(234.912109 0)"/>
     </g>
    </g>
    <g id="patch_93">
     <path d="M 181.968438 75.120656 
L 201.968438 75.120656 
L 201.968438 68.120656 
L 181.968438 68.120656 
z
" style="fill: #207653"/>
    </g>
    <g id="text_16">
     <!-- Hidro -->
     <g transform="translate(209.968438 75.120656) scale(0.1 -0.1)">
      <defs>
       <path id="DejaVuSans-48" d="M 628 4666 
L 1259 4666 
L 1259 2753 
L 3553 2753 
L 3553 4666 
L 4184 4666 
L 4184 0 
L 3553 0 
L 3553 2222 
L 1259 2222 
L 1259 0 
L 628 0 
L 628 4666 
z
" transform="scale(0.015625)"/>
       <path id="DejaVuSans-64" d="M 2906 2969 
L 2906 4863 
L 3481 4863 
L 3481 0 
L 2906 0 
L 2906 525 
Q 2725 213 2448 61 
Q 2172 -91 1784 -91 
Q 1150 -91 751 415 
Q 353 922 353 1747 
Q 353 2572 751 3078 
Q 1150 3584 1784 3584 
Q 2172 3584 2448 3432 
Q 2725 3281 2906 2969 
z
M 947 1747 
Q 947 1113 1208 752 
Q 1469 391 1925 391 
Q 2381 391 2643 752 
Q 2906 1113 2906 1747 
Q 2906 2381 2643 2742 
Q 2381 3103 1925 3103 
Q 1469 3103 1208 2742 
Q 947 2381 947 1747 
z
" transform="scale(0.015625)"/>
      </defs>
      <use xlink:href="#DejaVuSans-48"/>
      <use xlink:href="#DejaVuSans-69" transform="translate(75.195312 0)"/>
      <use xlink:href="#DejaVuSans-64" transform="translate(102.978516 0)"/>
      <use xlink:href="#DejaVuSans-72" transform="translate(166.455078 0)"/>
      <use xlink:href="#DejaVuSans-6f" transform="translate(205.318359 0)"/>
     </g>
    </g>
   </g>
  </g>
  <g id="axes_2">
   <g id="patch_94">
    <path d="M 285.43875 133.957969 
L 494.68875 133.957969 
L 494.68875 23.077969 
L 285.43875 23.077969 
z
" style="fill: #ffffff"/>
   </g>
   <g id="patch_95">
    <path d="M 282.33875 133.957969 
L 288.53875 133.957969 
L 288.53875 133.957969 
L 282.33875 133.957969 
z
" clip-path="url(#p2aa2b60a32)" style="fill: #fbaa1b"/>
   </g>
   <g id="patch_96">
    <path d="M 290.08875 133.957969 
L 296.28875 133.957969 
L 296.28875 133.707552 
L 290.08875 133.707552 
z
" clip-path="url(#p2aa2b60a32)" style="fill: #fbaa1b"/>
   </g>
   <g id="patch_97">
    <path d="M 297.83875 133.957969 
L 304.03875 133.957969 
L 304.03875 119.35032 
L 297.83875 119.35032 
z
" clip-path="url(#p2aa2b60a32)" style="fill: #fbaa1b"/>
   </g>
   <g id="patch_98">
    <path d="M 305.58875 133.957969 
L 311.78875 133.957969 
L 311.78875 110.168369 
L 305.58875 110.168369 
z
" clip-path="url(#p2aa2b60a32)" style="fill: #fbaa1b"/>
   </g>
   <g id="patch_99">
    <path d="M 313.33875 133.957969 
L 319.53875 133.957969 
L 319.53875 133.957969 
L 313.33875 133.957969 
z
" clip-path="url(#p2aa2b60a32)" style="fill: #fbaa1b"/>
   </g>
   <g id="patch_100">
    <path d="M 321.08875 133.957969 
L 327.28875 133.957969 
L 327.28875 108.916285 
L 321.08875 108.916285 
z
" clip-path="url(#p2aa2b60a32)" style="fill: #fbaa1b"/>
   </g>
   <g id="patch_101">
    <path d="M 328.83875 133.957969 
L 335.03875 133.957969 
L 335.03875 121.437127 
L 328.83875 121.437127 
z
" clip-path="url(#p2aa2b60a32)" style="fill: #fbaa1b"/>
   </g>
   <g id="patch_102">
    <path d="M 336.58875 133.957969 
L 342.78875 133.957969 
L 342.78875 108.916285 
L 336.58875 108.916285 
z
" clip-path="url(#p2aa2b60a32)" style="fill: #fbaa1b"/>
   </g>
   <g id="patch_103">
    <path d="M 344.33875 133.957969 
L 350.53875 133.957969 
L 350.53875 83.874602 
L 344.33875 83.874602 
z
" clip-path="url(#p2aa2b60a32)" style="fill: #fbaa1b"/>
   </g>
   <g id="patch_104">
    <path d="M 352.08875 133.957969 
L 358.28875 133.957969 
L 358.28875 133.957969 
L 352.08875 133.957969 
z
" clip-path="url(#p2aa2b60a32)" style="fill: #fbaa1b"/>
   </g>
   <g id="patch_105">
    <path d="M 359.83875 133.957969 
L 366.03875 133.957969 
L 366.03875 133.957969 
L 359.83875 133.957969 
z
" clip-path="url(#p2aa2b60a32)" style="fill: #fbaa1b"/>
   </g>
   <g id="patch_106">
    <path d="M 367.58875 133.957969 
L 373.78875 133.957969 
L 373.78875 122.480531 
L 367.58875 122.480531 
z
" clip-path="url(#p2aa2b60a32)" style="fill: #fbaa1b"/>
   </g>
   <g id="patch_107">
    <path d="M 375.33875 133.957969 
L 381.53875 133.957969 
L 381.53875 133.957969 
L 375.33875 133.957969 
z
" clip-path="url(#p2aa2b60a32)" style="fill: #fbaa1b"/>
   </g>
   <g id="patch_108">
    <path d="M 383.08875 133.957969 
L 389.28875 133.957969 
L 389.28875 133.957969 
L 383.08875 133.957969 
z
" clip-path="url(#p2aa2b60a32)" style="fill: #fbaa1b"/>
   </g>
   <g id="patch_109">
    <path d="M 390.83875 133.957969 
L 397.03875 133.957969 
L 397.03875 133.957969 
L 390.83875 133.957969 
z
" clip-path="url(#p2aa2b60a32)" style="fill: #fbaa1b"/>
   </g>
   <g id="patch_110">
    <path d="M 398.58875 133.957969 
L 404.78875 133.957969 
L 404.78875 133.957969 
L 398.58875 133.957969 
z
" clip-path="url(#p2aa2b60a32)" style="fill: #fbaa1b"/>
   </g>
   <g id="patch_111">
    <path d="M 406.33875 133.957969 
L 412.53875 133.957969 
L 412.53875 133.957969 
L 406.33875 133.957969 
z
" clip-path="url(#p2aa2b60a32)" style="fill: #fbaa1b"/>
   </g>
   <g id="patch_112">
    <path d="M 414.08875 133.957969 
L 420.28875 133.957969 
L 420.28875 133.957969 
L 414.08875 133.957969 
z
" clip-path="url(#p2aa2b60a32)" style="fill: #fbaa1b"/>
   </g>
   <g id="patch_113">
    <path d="M 421.83875 133.957969 
L 428.03875 133.957969 
L 428.03875 133.957969 
L 421.83875 133.957969 
z
" clip-path="url(#p2aa2b60a32)" style="fill: #fbaa1b"/>
   </g>
   <g id="patch_114">
    <path d="M 429.58875 133.957969 
L 435.78875 133.957969 
L 435.78875 133.957969 
L 429.58875 133.957969 
z
" clip-path="url(#p2aa2b60a32)" style="fill: #fbaa1b"/>
   </g>
   <g id="patch_115">
    <path d="M 437.33875 133.957969 
L 443.53875 133.957969 
L 443.53875 133.957969 
L 437.33875 133.957969 
z
" clip-path="url(#p2aa2b60a32)" style="fill: #fbaa1b"/>
   </g>
   <g id="patch_116">
    <path d="M 445.08875 133.957969 
L 451.28875 133.957969 
L 451.28875 133.957969 
L 445.08875 133.957969 
z
" clip-path="url(#p2aa2b60a32)" style="fill: #fbaa1b"/>
   </g>
   <g id="patch_117">
    <path d="M 452.83875 133.957969 
L 459.03875 133.957969 
L 459.03875 133.957969 
L 452.83875 133.957969 
z
" clip-path="url(#p2aa2b60a32)" style="fill: #fbaa1b"/>
   </g>
   <g id="patch_118">
    <path d="M 460.58875 133.957969 
L 466.78875 133.957969 
L 466.78875 133.957969 
L 460.58875 133.957969 
z
" clip-path="url(#p2aa2b60a32)" style="fill: #fbaa1b"/>
   </g>
   <g id="patch_119">
    <path d="M 468.33875 133.957969 
L 474.53875 133.957969 
L 474.53875 133.957969 
L 468.33875 133.957969 
z
" clip-path="url(#p2aa2b60a32)" style="fill: #fbaa1b"/>
   </g>
   <g id="patch_120">
    <path d="M 476.08875 133.957969 
L 482.28875 133.957969 
L 482.28875 133.957969 
L 476.08875 133.957969 
z
" clip-path="url(#p2aa2b60a32)" style="fill: #fbaa1b"/>
   </g>
   <g id="patch_121">
    <path d="M 483.83875 133.957969 
L 490.03875 133.957969 
L 490.03875 133.957969 
L 483.83875 133.957969 
z
" clip-path="url(#p2aa2b60a32)" style="fill: #fbaa1b"/>
   </g>
   <g id="patch_122">
    <path d="M 491.58875 133.957969 
L 497.78875 133.957969 
L 497.78875 133.957969 
L 491.58875 133.957969 
z
" clip-path="url(#p2aa2b60a32)" style="fill: #fbaa1b"/>
   </g>
   <g id="patch_123">
    <path d="M 282.33875 133.957969 
L 288.53875 133.957969 
L 288.53875 133.957969 
L 282.33875 133.957969 
z
" clip-path="url(#p2aa2b60a32)" style="fill: #8fc73e"/>
   </g>
   <g id="patch_124">
    <path d="M 290.08875 133.707552 
L 296.28875 133.707552 
L 296.28875 133.707552 
L 290.08875 133.707552 
z
" clip-path="url(#p2aa2b60a32)" style="fill: #8fc73e"/>
   </g>
   <g id="patch_125">
    <path d="M 297.83875 119.35032 
L 304.03875 119.35032 
L 304.03875 102.551524 
L 297.83875 102.551524 
z
" clip-path="url(#p2aa2b60a32)" style="fill: #8fc73e"/>
   </g>
   <g id="patch_126">
    <path d="M 305.58875 110.168369 
L 311.78875 110.168369 
L 311.78875 94.099956 
L 305.58875 94.099956 
z
" clip-path="url(#p2aa2b60a32)" style="fill: #8fc73e"/>
   </g>
   <g id="patch_127">
    <path d="M 313.33875 133.957969 
L 319.53875 133.957969 
L 319.53875 133.957969 
L 313.33875 133.957969 
z
" clip-path="url(#p2aa2b60a32)" style="fill: #8fc73e"/>
   </g>
   <g id="patch_128">
    <path d="M 321.08875 108.916285 
L 327.28875 108.916285 
L 327.28875 103.699268 
L 321.08875 103.699268 
z
" clip-path="url(#p2aa2b60a32)" style="fill: #8fc73e"/>
   </g>
   <g id="patch_129">
    <path d="M 328.83875 121.437127 
L 335.03875 121.437127 
L 335.03875 121.437127 
L 328.83875 121.437127 
z
" clip-path="url(#p2aa2b60a32)" style="fill: #8fc73e"/>
   </g>
   <g id="patch_130">
    <path d="M 336.58875 108.916285 
L 342.78875 108.916285 
L 342.78875 108.916285 
L 336.58875 108.916285 
z
" clip-path="url(#p2aa2b60a32)" style="fill: #8fc73e"/>
   </g>
   <g id="patch_131">
    <path d="M 344.33875 83.874602 
L 350.53875 83.874602 
L 350.53875 81.370434 
L 344.33875 81.370434 
z
" clip-path="url(#p2aa2b60a32)" style="fill: #8fc73e"/>
   </g>
   <g id="patch_132">
    <path d="M 352.08875 133.957969 
L 358.28875 133.957969 
L 358.28875 133.957969 
L 352.08875 133.957969 
z
" clip-path="url(#p2aa2b60a32)" style="fill: #8fc73e"/>
   </g>
   <g id="patch_133">
    <path d="M 359.83875 133.957969 
L 366.03875 133.957969 
L 366.03875 133.957969 
L 359.83875 133.957969 
z
" clip-path="url(#p2aa2b60a32)" style="fill: #8fc73e"/>
   </g>
   <g id="patch_134">
    <path d="M 367.58875 122.480531 
L 373.78875 122.480531 
L 373.78875 117.263513 
L 367.58875 117.263513 
z
" clip-path="url(#p2aa2b60a32)" style="fill: #8fc73e"/>
   </g>
   <g id="patch_135">
    <path d="M 375.33875 133.957969 
L 381.53875 133.957969 
L 381.53875 122.689211 
L 375.33875 122.689211 
z
" clip-path="url(#p2aa2b60a32)" style="fill: #8fc73e"/>
   </g>
   <g id="patch_136">
    <path d="M 383.08875 133.957969 
L 389.28875 133.957969 
L 389.28875 123.210913 
L 383.08875 123.210913 
z
" clip-path="url(#p2aa2b60a32)" style="fill: #8fc73e"/>
   </g>
   <g id="patch_137">
    <path d="M 390.83875 133.957969 
L 397.03875 133.957969 
L 397.03875 133.957969 
L 390.83875 133.957969 
z
" clip-path="url(#p2aa2b60a32)" style="fill: #8fc73e"/>
   </g>
   <g id="patch_138">
    <path d="M 398.58875 133.957969 
L 404.78875 133.957969 
L 404.78875 133.957969 
L 398.58875 133.957969 
z
" clip-path="url(#p2aa2b60a32)" style="fill: #8fc73e"/>
   </g>
   <g id="patch_139">
    <path d="M 406.33875 133.957969 
L 412.53875 133.957969 
L 412.53875 133.957969 
L 406.33875 133.957969 
z
" clip-path="url(#p2aa2b60a32)" style="fill: #8fc73e"/>
   </g>
   <g id="patch_140">
    <path d="M 414.08875 133.957969 
L 420.28875 133.957969 
L 420.28875 133.957969 
L 414.08875 133.957969 
z
" clip-path="url(#p2aa2b60a32)" style="fill: #8fc73e"/>
   </g>
   <g id="patch_141">
    <path d="M 421.83875 133.957969 
L 428.03875 133.957969 
L 428.03875 133.957969 
L 421.83875 133.957969 
z
" clip-path="url(#p2aa2b60a32)" style="fill: #8fc73e"/>
   </g>
   <g id="patch_142">
    <path d="M 429.58875 133.957969 
L 435.78875 133.957969 
L 435.78875 133.957969 
L 429.58875 133.957969 
z
" clip-path="url(#p2aa2b60a32)" style="fill: #8fc73e"/>
   </g>
   <g id="patch_143">
    <path d="M 437.33875 133.957969 
L 443.53875 133.957969 
L 443.53875 133.957969 
L 437.33875 133.957969 
z
" clip-path="url(#p2aa2b60a32)" style="fill: #8fc73e"/>
   </g>
   <g id="patch_144">
    <path d="M 445.08875 133.957969 
L 451.28875 133.957969 
L 451.28875 133.957969 
L 445.08875 133.957969 
z
" clip-path="url(#p2aa2b60a32)" style="fill: #8fc73e"/>
   </g>
   <g id="patch_145">
    <path d="M 452.83875 133.957969 
L 459.03875 133.957969 
L 459.03875 133.957969 
L 452.83875 133.957969 
z
" clip-path="url(#p2aa2b60a32)" style="fill: #8fc73e"/>
   </g>
   <g id="patch_146">
    <path d="M 460.58875 133.957969 
L 466.78875 133.957969 
L 466.78875 133.957969 
L 460.58875 133.957969 
z
" clip-path="url(#p2aa2b60a32)" style="fill: #8fc73e"/>
   </g>
   <g id="patch_147">
    <path d="M 468.33875 133.957969 
L 474.53875 133.957969 
L 474.53875 133.957969 
L 468.33875 133.957969 
z
" clip-path="url(#p2aa2b60a32)" style="fill: #8fc73e"/>
   </g>
   <g id="patch_148">
    <path d="M 476.08875 133.957969 
L 482.28875 133.957969 
L 482.28875 130.097376 
L 476.08875 130.097376 
z
" clip-path="url(#p2aa2b60a32)" style="fill: #8fc73e"/>
   </g>
   <g id="patch_149">
    <path d="M 483.83875 133.957969 
L 490.03875 133.957969 
L 490.03875 133.957969 
L 483.83875 133.957969 
z
" clip-path="url(#p2aa2b60a32)" style="fill: #8fc73e"/>
   </g>
   <g id="patch_150">
    <path d="M 491.58875 133.957969 
L 497.78875 133.957969 
L 497.78875 123.002232 
L 491.58875 123.002232 
z
" clip-path="url(#p2aa2b60a32)" style="fill: #8fc73e"/>
   </g>
   <g id="patch_151">
    <path d="M 282.33875 133.957969 
L 288.53875 133.957969 
L 288.53875 133.957969 
L 282.33875 133.957969 
z
" clip-path="url(#p2aa2b60a32)" style="fill: #207653"/>
   </g>
   <g id="patch_152">
    <path d="M 290.08875 133.707552 
L 296.28875 133.707552 
L 296.28875 133.707552 
L 290.08875 133.707552 
z
" clip-path="url(#p2aa2b60a32)" style="fill: #207653"/>
   </g>
   <g id="patch_153">
    <path d="M 297.83875 102.551524 
L 304.03875 102.551524 
L 304.03875 63.215213 
L 297.83875 63.215213 
z
" clip-path="url(#p2aa2b60a32)" style="fill: #207653"/>
   </g>
   <g id="patch_154">
    <path d="M 305.58875 94.099956 
L 311.78875 94.099956 
L 311.78875 94.099956 
L 305.58875 94.099956 
z
" clip-path="url(#p2aa2b60a32)" style="fill: #207653"/>
   </g>
   <g id="patch_155">
    <path d="M 313.33875 133.957969 
L 319.53875 133.957969 
L 319.53875 121.541467 
L 313.33875 121.541467 
z
" clip-path="url(#p2aa2b60a32)" style="fill: #207653"/>
   </g>
   <g id="patch_156">
    <path d="M 321.08875 103.699268 
L 327.28875 103.699268 
L 327.28875 103.699268 
L 321.08875 103.699268 
z
" clip-path="url(#p2aa2b60a32)" style="fill: #207653"/>
   </g>
   <g id="patch_157">
    <path d="M 328.83875 121.437127 
L 335.03875 121.437127 
L 335.03875 100.569057 
L 328.83875 100.569057 
z
" clip-path="url(#p2aa2b60a32)" style="fill: #207653"/>
   </g>
   <g id="patch_158">
    <path d="M 336.58875 108.916285 
L 342.78875 108.916285 
L 342.78875 67.180146 
L 336.58875 67.180146 
z
" clip-path="url(#p2aa2b60a32)" style="fill: #207653"/>
   </g>
   <g id="patch_159">
    <path d="M 344.33875 81.370434 
L 350.53875 81.370434 
L 350.53875 81.370434 
L 344.33875 81.370434 
z
" clip-path="url(#p2aa2b60a32)" style="fill: #207653"/>
   </g>
   <g id="patch_160">
    <path d="M 352.08875 133.957969 
L 358.28875 133.957969 
L 358.28875 133.957969 
L 352.08875 133.957969 
z
" clip-path="url(#p2aa2b60a32)" style="fill: #207653"/>
   </g>
   <g id="patch_161">
    <path d="M 359.83875 133.957969 
L 366.03875 133.957969 
L 366.03875 133.957969 
L 359.83875 133.957969 
z
" clip-path="url(#p2aa2b60a32)" style="fill: #207653"/>
   </g>
   <g id="patch_162">
    <path d="M 367.58875 117.263513 
L 373.78875 117.263513 
L 373.78875 117.263513 
L 367.58875 117.263513 
z
" clip-path="url(#p2aa2b60a32)" style="fill: #207653"/>
   </g>
   <g id="patch_163">
    <path d="M 375.33875 122.689211 
L 381.53875 122.689211 
L 381.53875 122.689211 
L 375.33875 122.689211 
z
" clip-path="url(#p2aa2b60a32)" style="fill: #207653"/>
   </g>
   <g id="patch_164">
    <path d="M 383.08875 123.210913 
L 389.28875 123.210913 
L 389.28875 123.210913 
L 383.08875 123.210913 
z
" clip-path="url(#p2aa2b60a32)" style="fill: #207653"/>
   </g>
   <g id="patch_165">
    <path d="M 390.83875 133.957969 
L 397.03875 133.957969 
L 397.03875 133.957969 
L 390.83875 133.957969 
z
" clip-path="url(#p2aa2b60a32)" style="fill: #207653"/>
   </g>
   <g id="patch_166">
    <path d="M 398.58875 133.957969 
L 404.78875 133.957969 
L 404.78875 133.957969 
L 398.58875 133.957969 
z
" clip-path="url(#p2aa2b60a32)" style="fill: #207653"/>
   </g>
   <g id="patch_167">
    <path d="M 406.33875 133.957969 
L 412.53875 133.957969 
L 412.53875 133.957969 
L 406.33875 133.957969 
z
" clip-path="url(#p2aa2b60a32)" style="fill: #207653"/>
   </g>
   <g id="patch_168">
    <path d="M 414.08875 133.957969 
L 420.28875 133.957969 
L 420.28875 133.957969 
L 414.08875 133.957969 
z
" clip-path="url(#p2aa2b60a32)" style="fill: #207653"/>
   </g>
   <g id="patch_169">
    <path d="M 421.83875 133.957969 
L 428.03875 133.957969 
L 428.03875 133.957969 
L 421.83875 133.957969 
z
" clip-path="url(#p2aa2b60a32)" style="fill: #207653"/>
   </g>
   <g id="patch_170">
    <path d="M 429.58875 133.957969 
L 435.78875 133.957969 
L 435.78875 133.957969 
L 429.58875 133.957969 
z
" clip-path="url(#p2aa2b60a32)" style="fill: #207653"/>
   </g>
   <g id="patch_171">
    <path d="M 437.33875 133.957969 
L 443.53875 133.957969 
L 443.53875 133.957969 
L 437.33875 133.957969 
z
" clip-path="url(#p2aa2b60a32)" style="fill: #207653"/>
   </g>
   <g id="patch_172">
    <path d="M 445.08875 133.957969 
L 451.28875 133.957969 
L 451.28875 133.957969 
L 445.08875 133.957969 
z
" clip-path="url(#p2aa2b60a32)" style="fill: #207653"/>
   </g>
   <g id="patch_173">
    <path d="M 452.83875 133.957969 
L 459.03875 133.957969 
L 459.03875 133.957969 
L 452.83875 133.957969 
z
" clip-path="url(#p2aa2b60a32)" style="fill: #207653"/>
   </g>
   <g id="patch_174">
    <path d="M 460.58875 133.957969 
L 466.78875 133.957969 
L 466.78875 133.957969 
L 460.58875 133.957969 
z
" clip-path="url(#p2aa2b60a32)" style="fill: #207653"/>
   </g>
   <g id="patch_175">
    <path d="M 468.33875 133.957969 
L 474.53875 133.957969 
L 474.53875 133.957969 
L 468.33875 133.957969 
z
" clip-path="url(#p2aa2b60a32)" style="fill: #207653"/>
   </g>
   <g id="patch_176">
    <path d="M 476.08875 130.097376 
L 482.28875 130.097376 
L 482.28875 130.097376 
L 476.08875 130.097376 
z
" clip-path="url(#p2aa2b60a32)" style="fill: #207653"/>
   </g>
   <g id="patch_177">
    <path d="M 483.83875 133.957969 
L 490.03875 133.957969 
L 490.03875 133.957969 
L 483.83875 133.957969 
z
" clip-path="url(#p2aa2b60a32)" style="fill: #207653"/>
   </g>
   <g id="patch_178">
    <path d="M 491.58875 123.002232 
L 497.78875 123.002232 
L 497.78875 123.002232 
L 491.58875 123.002232 
z
" clip-path="url(#p2aa2b60a32)" style="fill: #207653"/>
   </g>
   <g id="matplotlib.axis_3">
    <g id="xtick_7">
     <g id="line2d_12">
      <g>
       <use xlink:href="#m3ccf7e0f0f" x="300.93875" y="133.957969" style="stroke: #000000; stroke-width: 0.8"/>
      </g>
     </g>
     <g id="text_17">
      <!-- 2025 -->
      <g transform="translate(288.21375 148.556406) scale(0.1 -0.1)">
       <use xlink:href="#DejaVuSans-32"/>
       <use xlink:href="#DejaVuSans-30" transform="translate(63.623047 0)"/>
       <use xlink:href="#DejaVuSans-32" transform="translate(127.246094 0)"/>
       <use xlink:href="#DejaVuSans-35" transform="translate(190.869141 0)"/>
      </g>
     </g>
    </g>
    <g id="xtick_8">
     <g id="line2d_13">
      <g>
       <use xlink:href="#m3ccf7e0f0f" x="339.68875" y="133.957969" style="stroke: #000000; stroke-width: 0.8"/>
      </g>
     </g>
     <g id="text_18">
      <!-- 2030 -->
      <g transform="translate(326.96375 148.556406) scale(0.1 -0.1)">
       <use xlink:href="#DejaVuSans-32"/>
       <use xlink:href="#DejaVuSans-30" transform="translate(63.623047 0)"/>
       <use xlink:href="#DejaVuSans-33" transform="translate(127.246094 0)"/>
       <use xlink:href="#DejaVuSans-30" transform="translate(190.869141 0)"/>
      </g>
     </g>
    </g>
    <g id="xtick_9">
     <g id="line2d_14">
      <g>
       <use xlink:href="#m3ccf7e0f0f" x="378.43875" y="133.957969" style="stroke: #000000; stroke-width: 0.8"/>
      </g>
     </g>
     <g id="text_19">
      <!-- 2035 -->
      <g transform="translate(365.71375 148.556406) scale(0.1 -0.1)">
       <use xlink:href="#DejaVuSans-32"/>
       <use xlink:href="#DejaVuSans-30" transform="translate(63.623047 0)"/>
       <use xlink:href="#DejaVuSans-33" transform="translate(127.246094 0)"/>
       <use xlink:href="#DejaVuSans-35" transform="translate(190.869141 0)"/>
      </g>
     </g>
    </g>
    <g id="xtick_10">
     <g id="line2d_15">
      <g>
       <use xlink:href="#m3ccf7e0f0f" x="417.18875" y="133.957969" style="stroke: #000000; stroke-width: 0.8"/>
      </g>
     </g>
     <g id="text_20">
      <!-- 2040 -->
      <g transform="translate(404.46375 148.556406) scale(0.1 -0.1)">
       <use xlink:href="#DejaVuSans-32"/>
       <use xlink:href="#DejaVuSans-30" transform="translate(63.623047 0)"/>
       <use xlink:href="#DejaVuSans-34" transform="translate(127.246094 0)"/>
       <use xlink:href="#DejaVuSans-30" transform="translate(190.869141 0)"/>
      </g>
     </g>
    </g>
    <g id="xtick_11">
     <g id="line2d_16">
      <g>
       <use xlink:href="#m3ccf7e0f0f" x="455.93875" y="133.957969" style="stroke: #000000; stroke-width: 0.8"/>
      </g>
     </g>
     <g id="text_21">
      <!-- 2045 -->
      <g transform="translate(443.21375 148.556406) scale(0.1 -0.1)">
       <use xlink:href="#DejaVuSans-32"/>
       <use xlink:href="#DejaVuSans-30" transform="translate(63.623047 0)"/>
       <use xlink:href="#DejaVuSans-34" transform="translate(127.246094 0)"/>
       <use xlink:href="#DejaVuSans-35" transform="translate(190.869141 0)"/>
      </g>
     </g>
    </g>
    <g id="xtick_12">
     <g id="line2d_17">
      <g>
       <use xlink:href="#m3ccf7e0f0f" x="494.68875" y="133.957969" style="stroke: #000000; stroke-width: 0.8"/>
      </g>
     </g>
     <g id="text_22">
      <!-- 2050 -->
      <g transform="translate(481.96375 148.556406) scale(0.1 -0.1)">
       <use xlink:href="#DejaVuSans-32"/>
       <use xlink:href="#DejaVuSans-30" transform="translate(63.623047 0)"/>
       <use xlink:href="#DejaVuSans-35" transform="translate(127.246094 0)"/>
       <use xlink:href="#DejaVuSans-30" transform="translate(190.869141 0)"/>
      </g>
     </g>
    </g>
   </g>
   <g id="matplotlib.axis_4">
    <g id="ytick_6">
     <g id="line2d_18">
      <g>
       <use xlink:href="#m7cff095904" x="285.43875" y="133.957969" style="stroke: #000000; stroke-width: 0.8"/>
      </g>
     </g>
    </g>
    <g id="ytick_7">
     <g id="line2d_19">
      <g>
       <use xlink:href="#m7cff095904" x="285.43875" y="107.872882" style="stroke: #000000; stroke-width: 0.8"/>
      </g>
     </g>
    </g>
    <g id="ytick_8">
     <g id="line2d_20">
      <g>
       <use xlink:href="#m7cff095904" x="285.43875" y="81.787795" style="stroke: #000000; stroke-width: 0.8"/>
      </g>
     </g>
    </g>
    <g id="ytick_9">
     <g id="line2d_21">
      <g>
       <use xlink:href="#m7cff095904" x="285.43875" y="55.702708" style="stroke: #000000; stroke-width: 0.8"/>
      </g>
     </g>
    </g>
    <g id="ytick_10">
     <g id="line2d_22">
      <g>
       <use xlink:href="#m7cff095904" x="285.43875" y="29.617621" style="stroke: #000000; stroke-width: 0.8"/>
      </g>
     </g>
    </g>
   </g>
   <g id="patch_179">
    <path d="M 285.43875 133.957969 
L 285.43875 23.077969 
" style="fill: none; stroke: #000000; stroke-width: 0.8; stroke-linejoin: miter; stroke-linecap: square"/>
   </g>
   <g id="patch_180">
    <path d="M 494.68875 133.957969 
L 494.68875 23.077969 
" style="fill: none; stroke: #000000; stroke-width: 0.8; stroke-linejoin: miter; stroke-linecap: square"/>
   </g>
   <g id="patch_181">
    <path d="M 285.43875 133.957969 
L 494.68875 133.957969 
" style="fill: none; stroke: #000000; stroke-width: 0.8; stroke-linejoin: miter; stroke-linecap: square"/>
   </g>
   <g id="patch_182">
    <path d="M 285.43875 23.077969 
L 494.68875 23.077969 
" style="fill: none; stroke: #000000; stroke-width: 0.8; stroke-linejoin: miter; stroke-linecap: square"/>
   </g>
   <g id="text_23">
    <!-- Alt -->
    <g transform="translate(379.698281 17.077969) scale(0.13 -0.13)">
     <defs>
      <path id="DejaVuSans-Bold-41" d="M 3419 850 
L 1538 850 
L 1241 0 
L 31 0 
L 1759 4666 
L 3194 4666 
L 4922 0 
L 3713 0 
L 3419 850 
z
M 1838 1716 
L 3116 1716 
L 2478 3572 
L 1838 1716 
z
" transform="scale(0.015625)"/>
      <path id="DejaVuSans-Bold-6c" d="M 538 4863 
L 1656 4863 
L 1656 0 
L 538 0 
L 538 4863 
z
" transform="scale(0.015625)"/>
      <path id="DejaVuSans-Bold-74" d="M 1759 4494 
L 1759 3500 
L 2913 3500 
L 2913 2700 
L 1759 2700 
L 1759 1216 
Q 1759 972 1856 886 
Q 1953 800 2241 800 
L 2816 800 
L 2816 0 
L 1856 0 
Q 1194 0 917 276 
Q 641 553 641 1216 
L 641 2700 
L 84 2700 
L 84 3500 
L 641 3500 
L 641 4494 
L 1759 4494 
z
" transform="scale(0.015625)"/>
     </defs>
     <use xlink:href="#DejaVuSans-Bold-41"/>
     <use xlink:href="#DejaVuSans-Bold-6c" transform="translate(77.392578 0)"/>
     <use xlink:href="#DejaVuSans-Bold-74" transform="translate(111.669922 0)"/>
    </g>
   </g>
  </g>
  <g id="axes_3">
   <g id="patch_183">
    <path d="M 515.61375 133.957969 
L 724.86375 133.957969 
L 724.86375 23.077969 
L 515.61375 23.077969 
z
" style="fill: #ffffff"/>
   </g>
   <g id="FillBetweenPolyCollection_1">
    <defs>
     <path id="m08c0191045" d="M 515.61375 -25.080628 
L 515.61375 -23.878125 
L 523.36375 -23.878125 
L 531.11375 -23.878125 
L 538.86375 -23.878125 
L 546.61375 -23.878125 
L 554.36375 -23.878125 
L 562.11375 -23.878125 
L 569.86375 -23.878125 
L 577.61375 -23.878125 
L 585.36375 -23.878125 
L 593.11375 -23.878125 
L 600.86375 -23.878125 
L 608.61375 -23.878125 
L 616.36375 -23.878125 
L 624.11375 -23.878125 
L 631.86375 -23.878125 
L 639.61375 -23.878125 
L 647.36375 -23.878125 
L 655.11375 -23.878125 
L 662.86375 -23.878125 
L 670.61375 -23.878125 
L 678.36375 -23.878125 
L 686.11375 -23.878125 
L 693.86375 -23.878125 
L 701.61375 -23.878125 
L 709.36375 -23.878125 
L 717.11375 -23.878125 
L 724.86375 -23.878125 
L 724.86375 -129.478125 
L 724.86375 -129.478125 
L 717.11375 -126.212044 
L 709.36375 -123.654937 
L 701.61375 -121.59299 
L 693.86375 -119.832925 
L 686.11375 -118.201994 
L 678.36375 -116.547983 
L 670.61375 -114.739207 
L 662.86375 -112.664514 
L 655.11375 -110.233286 
L 647.36375 -107.375434 
L 639.61375 -104.041402 
L 631.86375 -100.202167 
L 624.11375 -95.849236 
L 616.36375 -90.99465 
L 608.61375 -85.670979 
L 600.86375 -79.931329 
L 593.11375 -73.849334 
L 585.36375 -67.519163 
L 577.61375 -61.055514 
L 569.86375 -54.593619 
L 562.11375 -48.289243 
L 554.36375 -42.318679 
L 546.61375 -36.878756 
L 538.86375 -32.186832 
L 531.11375 -28.480798 
L 523.36375 -26.019079 
L 515.61375 -25.080628 
z
" style="stroke: #fbaa1b; stroke-opacity: 0.5"/>
    </defs>
    <g clip-path="url(#pa1e1f6c9b7)">
     <use xlink:href="#m08c0191045" x="0" y="157.836094" style="fill: #fbaa1b; fill-opacity: 0.5; stroke: #fbaa1b; stroke-opacity: 0.5"/>
    </g>
   </g>
   <g id="FillBetweenPolyCollection_2">
    <defs>
     <path id="mfdcc63fb1f" d="M 515.61375 -23.998375 
L 515.61375 -23.878125 
L 523.36375 -23.878125 
L 531.11375 -23.878125 
L 538.86375 -23.878125 
L 546.61375 -23.878125 
L 554.36375 -23.878125 
L 562.11375 -23.878125 
L 569.86375 -23.878125 
L 577.61375 -23.878125 
L 585.36375 -23.878125 
L 593.11375 -23.878125 
L 600.86375 -23.878125 
L 608.61375 -23.878125 
L 616.36375 -23.878125 
L 624.11375 -23.878125 
L 631.86375 -23.878125 
L 639.61375 -23.878125 
L 647.36375 -23.878125 
L 655.11375 -23.878125 
L 662.86375 -23.878125 
L 670.61375 -23.878125 
L 678.36375 -23.878125 
L 686.11375 -23.878125 
L 693.86375 -23.878125 
L 701.61375 -23.878125 
L 709.36375 -23.878125 
L 717.11375 -23.878125 
L 724.86375 -23.878125 
L 724.86375 -34.438125 
L 724.86375 -34.438125 
L 717.11375 -34.111517 
L 709.36375 -33.855806 
L 701.61375 -33.649611 
L 693.86375 -33.473605 
L 686.11375 -33.310512 
L 678.36375 -33.145111 
L 670.61375 -32.964233 
L 662.86375 -32.756764 
L 655.11375 -32.513641 
L 647.36375 -32.227856 
L 639.61375 -31.894453 
L 631.86375 -31.510529 
L 624.11375 -31.075236 
L 616.36375 -30.589777 
L 608.61375 -30.05741 
L 600.86375 -29.483445 
L 593.11375 -28.875246 
L 585.36375 -28.242229 
L 577.61375 -27.595864 
L 569.86375 -26.949674 
L 562.11375 -26.319237 
L 554.36375 -25.72218 
L 546.61375 -25.178188 
L 538.86375 -24.708996 
L 531.11375 -24.338392 
L 523.36375 -24.09222 
L 515.61375 -23.998375 
z
" style="stroke: #fbaa1b; stroke-opacity: 0.8"/>
    </defs>
    <g clip-path="url(#pa1e1f6c9b7)">
     <use xlink:href="#mfdcc63fb1f" x="0" y="157.836094" style="fill: #fbaa1b; fill-opacity: 0.8; stroke: #fbaa1b; stroke-opacity: 0.8"/>
    </g>
   </g>
   <g id="matplotlib.axis_5">
    <g id="xtick_13">
     <g id="line2d_23">
      <g>
       <use xlink:href="#m3ccf7e0f0f" x="531.11375" y="133.957969" style="stroke: #000000; stroke-width: 0.8"/>
      </g>
     </g>
     <g id="text_24">
      <!-- 2025 -->
      <g transform="translate(518.38875 148.556406) scale(0.1 -0.1)">
       <use xlink:href="#DejaVuSans-32"/>
       <use xlink:href="#DejaVuSans-30" transform="translate(63.623047 0)"/>
       <use xlink:href="#DejaVuSans-32" transform="translate(127.246094 0)"/>
       <use xlink:href="#DejaVuSans-35" transform="translate(190.869141 0)"/>
      </g>
     </g>
    </g>
    <g id="xtick_14">
     <g id="line2d_24">
      <g>
       <use xlink:href="#m3ccf7e0f0f" x="569.86375" y="133.957969" style="stroke: #000000; stroke-width: 0.8"/>
      </g>
     </g>
     <g id="text_25">
      <!-- 2030 -->
      <g transform="translate(557.13875 148.556406) scale(0.1 -0.1)">
       <use xlink:href="#DejaVuSans-32"/>
       <use xlink:href="#DejaVuSans-30" transform="translate(63.623047 0)"/>
       <use xlink:href="#DejaVuSans-33" transform="translate(127.246094 0)"/>
       <use xlink:href="#DejaVuSans-30" transform="translate(190.869141 0)"/>
      </g>
     </g>
    </g>
    <g id="xtick_15">
     <g id="line2d_25">
      <g>
       <use xlink:href="#m3ccf7e0f0f" x="608.61375" y="133.957969" style="stroke: #000000; stroke-width: 0.8"/>
      </g>
     </g>
     <g id="text_26">
      <!-- 2035 -->
      <g transform="translate(595.88875 148.556406) scale(0.1 -0.1)">
       <use xlink:href="#DejaVuSans-32"/>
       <use xlink:href="#DejaVuSans-30" transform="translate(63.623047 0)"/>
       <use xlink:href="#DejaVuSans-33" transform="translate(127.246094 0)"/>
       <use xlink:href="#DejaVuSans-35" transform="translate(190.869141 0)"/>
      </g>
     </g>
    </g>
    <g id="xtick_16">
     <g id="line2d_26">
      <g>
       <use xlink:href="#m3ccf7e0f0f" x="647.36375" y="133.957969" style="stroke: #000000; stroke-width: 0.8"/>
      </g>
     </g>
     <g id="text_27">
      <!-- 2040 -->
      <g transform="translate(634.63875 148.556406) scale(0.1 -0.1)">
       <use xlink:href="#DejaVuSans-32"/>
       <use xlink:href="#DejaVuSans-30" transform="translate(63.623047 0)"/>
       <use xlink:href="#DejaVuSans-34" transform="translate(127.246094 0)"/>
       <use xlink:href="#DejaVuSans-30" transform="translate(190.869141 0)"/>
      </g>
     </g>
    </g>
    <g id="xtick_17">
     <g id="line2d_27">
      <g>
       <use xlink:href="#m3ccf7e0f0f" x="686.11375" y="133.957969" style="stroke: #000000; stroke-width: 0.8"/>
      </g>
     </g>
     <g id="text_28">
      <!-- 2045 -->
      <g transform="translate(673.38875 148.556406) scale(0.1 -0.1)">
       <use xlink:href="#DejaVuSans-32"/>
       <use xlink:href="#DejaVuSans-30" transform="translate(63.623047 0)"/>
       <use xlink:href="#DejaVuSans-34" transform="translate(127.246094 0)"/>
       <use xlink:href="#DejaVuSans-35" transform="translate(190.869141 0)"/>
      </g>
     </g>
    </g>
    <g id="xtick_18">
     <g id="line2d_28">
      <g>
       <use xlink:href="#m3ccf7e0f0f" x="724.86375" y="133.957969" style="stroke: #000000; stroke-width: 0.8"/>
      </g>
     </g>
     <g id="text_29">
      <!-- 2050 -->
      <g transform="translate(712.13875 148.556406) scale(0.1 -0.1)">
       <use xlink:href="#DejaVuSans-32"/>
       <use xlink:href="#DejaVuSans-30" transform="translate(63.623047 0)"/>
       <use xlink:href="#DejaVuSans-35" transform="translate(127.246094 0)"/>
       <use xlink:href="#DejaVuSans-30" transform="translate(190.869141 0)"/>
      </g>
     </g>
    </g>
   </g>
   <g id="matplotlib.axis_6">
    <g id="ytick_11">
     <g id="line2d_29">
      <g>
       <use xlink:href="#m7cff095904" x="515.61375" y="133.957969" style="stroke: #000000; stroke-width: 0.8"/>
      </g>
     </g>
    </g>
    <g id="ytick_12">
     <g id="line2d_30">
      <g>
       <use xlink:href="#m7cff095904" x="515.61375" y="107.872882" style="stroke: #000000; stroke-width: 0.8"/>
      </g>
     </g>
    </g>
    <g id="ytick_13">
     <g id="line2d_31">
      <g>
       <use xlink:href="#m7cff095904" x="515.61375" y="81.787795" style="stroke: #000000; stroke-width: 0.8"/>
      </g>
     </g>
    </g>
    <g id="ytick_14">
     <g id="line2d_32">
      <g>
       <use xlink:href="#m7cff095904" x="515.61375" y="55.702708" style="stroke: #000000; stroke-width: 0.8"/>
      </g>
     </g>
    </g>
    <g id="ytick_15">
     <g id="line2d_33">
      <g>
       <use xlink:href="#m7cff095904" x="515.61375" y="29.617621" style="stroke: #000000; stroke-width: 0.8"/>
      </g>
     </g>
    </g>
   </g>
   <g id="line2d_34">
    <path d="M 515.61375 133.837718 
L 523.36375 133.743873 
L 531.11375 133.497701 
L 538.86375 133.127098 
L 546.61375 132.657906 
L 554.36375 132.113913 
L 562.11375 131.516857 
L 569.86375 130.886419 
L 577.61375 130.24023 
L 585.36375 129.593865 
L 593.11375 128.960848 
L 600.86375 128.352648 
L 608.61375 127.778683 
L 616.36375 127.246316 
L 624.11375 126.760858 
L 631.86375 126.325565 
L 639.61375 125.941641 
L 647.36375 125.608238 
L 655.11375 125.322453 
L 662.86375 125.07933 
L 670.61375 124.871861 
L 678.36375 124.690983 
L 686.11375 124.525582 
L 693.86375 124.362489 
L 701.61375 124.186482 
L 709.36375 123.980288 
L 717.11375 123.724577 
L 724.86375 123.397969 
" clip-path="url(#pa1e1f6c9b7)" style="fill: none; stroke: #fbaa1b; stroke-width: 1.5; stroke-linecap: square"/>
   </g>
   <g id="line2d_35">
    <path d="M 515.61375 132.755466 
L 523.36375 131.817015 
L 531.11375 129.355295 
L 538.86375 125.649262 
L 546.61375 120.957338 
L 554.36375 115.517415 
L 562.11375 109.546851 
L 569.86375 103.242474 
L 577.61375 96.78058 
L 585.36375 90.316931 
L 593.11375 83.98676 
L 600.86375 77.904765 
L 608.61375 72.165115 
L 616.36375 66.841444 
L 624.11375 61.986858 
L 631.86375 57.633927 
L 639.61375 53.794691 
L 647.36375 50.46066 
L 655.11375 47.602808 
L 662.86375 45.171579 
L 670.61375 43.096887 
L 678.36375 41.288111 
L 686.11375 39.634099 
L 693.86375 38.003169 
L 701.61375 36.243104 
L 709.36375 34.181157 
L 717.11375 31.624049 
L 724.86375 28.357969 
" clip-path="url(#pa1e1f6c9b7)" style="fill: none; stroke: #fbaa1b; stroke-width: 1.5; stroke-linecap: square"/>
   </g>
   <g id="patch_184">
    <path d="M 515.61375 133.957969 
L 515.61375 23.077969 
" style="fill: none; stroke: #000000; stroke-width: 0.8; stroke-linejoin: miter; stroke-linecap: square"/>
   </g>
   <g id="patch_185">
    <path d="M 724.86375 133.957969 
L 724.86375 23.077969 
" style="fill: none; stroke: #000000; stroke-width: 0.8; stroke-linejoin: miter; stroke-linecap: square"/>
   </g>
   <g id="patch_186">
    <path d="M 515.61375 133.957969 
L 724.86375 133.957969 
" style="fill: none; stroke: #000000; stroke-width: 0.8; stroke-linejoin: miter; stroke-linecap: square"/>
   </g>
   <g id="patch_187">
    <path d="M 515.61375 23.077969 
L 724.86375 23.077969 
" style="fill: none; stroke: #000000; stroke-width: 0.8; stroke-linejoin: miter; stroke-linecap: square"/>
   </g>
   <g id="text_30">
    <!-- Solar dist. -->
    <g transform="translate(582.683984 17.077969) scale(0.13 -0.13)">
     <defs>
      <path id="DejaVuSans-Bold-53" d="M 3834 4519 
L 3834 3531 
Q 3450 3703 3084 3790 
Q 2719 3878 2394 3878 
Q 1963 3878 1756 3759 
Q 1550 3641 1550 3391 
Q 1550 3203 1689 3098 
Q 1828 2994 2194 2919 
L 2706 2816 
Q 3484 2659 3812 2340 
Q 4141 2022 4141 1434 
Q 4141 663 3683 286 
Q 3225 -91 2284 -91 
Q 1841 -91 1394 -6 
Q 947 78 500 244 
L 500 1259 
Q 947 1022 1364 901 
Q 1781 781 2169 781 
Q 2563 781 2772 912 
Q 2981 1044 2981 1288 
Q 2981 1506 2839 1625 
Q 2697 1744 2272 1838 
L 1806 1941 
Q 1106 2091 782 2419 
Q 459 2747 459 3303 
Q 459 4000 909 4375 
Q 1359 4750 2203 4750 
Q 2588 4750 2994 4692 
Q 3400 4634 3834 4519 
z
" transform="scale(0.015625)"/>
      <path id="DejaVuSans-Bold-6f" d="M 2203 2784 
Q 1831 2784 1636 2517 
Q 1441 2250 1441 1747 
Q 1441 1244 1636 976 
Q 1831 709 2203 709 
Q 2569 709 2762 976 
Q 2956 1244 2956 1747 
Q 2956 2250 2762 2517 
Q 2569 2784 2203 2784 
z
M 2203 3584 
Q 3106 3584 3614 3096 
Q 4122 2609 4122 1747 
Q 4122 884 3614 396 
Q 3106 -91 2203 -91 
Q 1297 -91 786 396 
Q 275 884 275 1747 
Q 275 2609 786 3096 
Q 1297 3584 2203 3584 
z
" transform="scale(0.015625)"/>
      <path id="DejaVuSans-Bold-61" d="M 2106 1575 
Q 1756 1575 1579 1456 
Q 1403 1338 1403 1106 
Q 1403 894 1545 773 
Q 1688 653 1941 653 
Q 2256 653 2472 879 
Q 2688 1106 2688 1447 
L 2688 1575 
L 2106 1575 
z
M 3816 1997 
L 3816 0 
L 2688 0 
L 2688 519 
Q 2463 200 2181 54 
Q 1900 -91 1497 -91 
Q 953 -91 614 226 
Q 275 544 275 1050 
Q 275 1666 698 1953 
Q 1122 2241 2028 2241 
L 2688 2241 
L 2688 2328 
Q 2688 2594 2478 2717 
Q 2269 2841 1825 2841 
Q 1466 2841 1156 2769 
Q 847 2697 581 2553 
L 581 3406 
Q 941 3494 1303 3539 
Q 1666 3584 2028 3584 
Q 2975 3584 3395 3211 
Q 3816 2838 3816 1997 
z
" transform="scale(0.015625)"/>
      <path id="DejaVuSans-Bold-72" d="M 3138 2547 
Q 2991 2616 2845 2648 
Q 2700 2681 2553 2681 
Q 2122 2681 1889 2404 
Q 1656 2128 1656 1613 
L 1656 0 
L 538 0 
L 538 3500 
L 1656 3500 
L 1656 2925 
Q 1872 3269 2151 3426 
Q 2431 3584 2822 3584 
Q 2878 3584 2943 3579 
Q 3009 3575 3134 3559 
L 3138 2547 
z
" transform="scale(0.015625)"/>
      <path id="DejaVuSans-Bold-20" transform="scale(0.015625)"/>
      <path id="DejaVuSans-Bold-69" d="M 538 3500 
L 1656 3500 
L 1656 0 
L 538 0 
L 538 3500 
z
M 538 4863 
L 1656 4863 
L 1656 3950 
L 538 3950 
L 538 4863 
z
" transform="scale(0.015625)"/>
      <path id="DejaVuSans-Bold-73" d="M 3272 3391 
L 3272 2541 
Q 2913 2691 2578 2766 
Q 2244 2841 1947 2841 
Q 1628 2841 1473 2761 
Q 1319 2681 1319 2516 
Q 1319 2381 1436 2309 
Q 1553 2238 1856 2203 
L 2053 2175 
Q 2913 2066 3209 1816 
Q 3506 1566 3506 1031 
Q 3506 472 3093 190 
Q 2681 -91 1863 -91 
Q 1516 -91 1145 -36 
Q 775 19 384 128 
L 384 978 
Q 719 816 1070 734 
Q 1422 653 1784 653 
Q 2113 653 2278 743 
Q 2444 834 2444 1013 
Q 2444 1163 2330 1236 
Q 2216 1309 1875 1350 
L 1678 1375 
Q 931 1469 631 1722 
Q 331 1975 331 2491 
Q 331 3047 712 3315 
Q 1094 3584 1881 3584 
Q 2191 3584 2531 3537 
Q 2872 3491 3272 3391 
z
" transform="scale(0.015625)"/>
      <path id="DejaVuSans-Bold-2e" d="M 653 1209 
L 1778 1209 
L 1778 0 
L 653 0 
L 653 1209 
z
" transform="scale(0.015625)"/>
     </defs>
     <use xlink:href="#DejaVuSans-Bold-53"/>
     <use xlink:href="#DejaVuSans-Bold-6f" transform="translate(72.021484 0)"/>
     <use xlink:href="#DejaVuSans-Bold-6c" transform="translate(140.722656 0)"/>
     <use xlink:href="#DejaVuSans-Bold-61" transform="translate(175 0)"/>
     <use xlink:href="#DejaVuSans-Bold-72" transform="translate(242.480469 0)"/>
     <use xlink:href="#DejaVuSans-Bold-20" transform="translate(291.796875 0)"/>
     <use xlink:href="#DejaVuSans-Bold-64" transform="translate(326.611328 0)"/>
     <use xlink:href="#DejaVuSans-Bold-69" transform="translate(398.193359 0)"/>
     <use xlink:href="#DejaVuSans-Bold-73" transform="translate(432.470703 0)"/>
     <use xlink:href="#DejaVuSans-Bold-74" transform="translate(491.992188 0)"/>
     <use xlink:href="#DejaVuSans-Bold-2e" transform="translate(539.794922 0)"/>
    </g>
   </g>
   <g id="legend_2">
    <g id="patch_188">
     <path d="M 520.17 35.584156 
L 540.17 35.584156 
L 540.17 28.584156 
L 520.17 28.584156 
z
" style="fill: #fbaa1b; fill-opacity: 0.5; stroke: #fbaa1b; stroke-opacity: 0.5; stroke-linejoin: miter"/>
    </g>
    <g id="text_31">
     <!-- 1000 MW -->
     <g transform="translate(548.17 35.584156) scale(0.1 -0.1)">
      <defs>
       <path id="DejaVuSans-20" transform="scale(0.015625)"/>
      </defs>
      <use xlink:href="#DejaVuSans-31"/>
      <use xlink:href="#DejaVuSans-30" transform="translate(63.623047 0)"/>
      <use xlink:href="#DejaVuSans-30" transform="translate(127.246094 0)"/>
      <use xlink:href="#DejaVuSans-30" transform="translate(190.869141 0)"/>
      <use xlink:href="#DejaVuSans-20" transform="translate(254.492188 0)"/>
      <use xlink:href="#DejaVuSans-4d" transform="translate(286.279297 0)"/>
      <use xlink:href="#DejaVuSans-57" transform="translate(372.558594 0)"/>
     </g>
    </g>
    <g id="patch_189">
     <path d="M 520.17 50.262281 
L 540.17 50.262281 
L 540.17 43.262281 
L 520.17 43.262281 
z
" style="fill: #fbaa1b; fill-opacity: 0.8; stroke: #fbaa1b; stroke-opacity: 0.8; stroke-linejoin: miter"/>
    </g>
    <g id="text_32">
     <!-- 100 MW -->
     <g transform="translate(548.17 50.262281) scale(0.1 -0.1)">
      <use xlink:href="#DejaVuSans-31"/>
      <use xlink:href="#DejaVuSans-30" transform="translate(63.623047 0)"/>
      <use xlink:href="#DejaVuSans-30" transform="translate(127.246094 0)"/>
      <use xlink:href="#DejaVuSans-20" transform="translate(190.869141 0)"/>
      <use xlink:href="#DejaVuSans-4d" transform="translate(222.65625 0)"/>
      <use xlink:href="#DejaVuSans-57" transform="translate(308.935547 0)"/>
     </g>
    </g>
   </g>
  </g>
 </g>
 <defs>
  <clipPath id="p9c91d2fcf4">
   <rect x="55.26375" y="23.077969" width="209.25" height="110.88"/>
  </clipPath>
  <clipPath id="p2aa2b60a32">
   <rect x="285.43875" y="23.077969" width="209.25" height="110.88"/>
  </clipPath>
  <clipPath id="pa1e1f6c9b7">
   <rect x="515.61375" y="23.077969" width="209.25" height="110.88"/>
  </clipPath>
 </defs>
</svg>
