<?xml version="1.0" encoding="utf-8" standalone="no"?>
<!DOCTYPE svg PUBLIC "-//W3C//DTD SVG 1.1//EN"
  "http://www.w3.org/Graphics/SVG/1.1/DTD/svg11.dtd">
<svg xmlns:xlink="http://www.w3.org/1999/xlink" width="711.20831pt" height="191.1575pt" viewBox="0 0 711.20831 191.1575" xmlns="http://www.w3.org/2000/svg" version="1.1">
 <metadata>
  <rdf:RDF xmlns:dc="http://purl.org/dc/elements/1.1/" xmlns:cc="http://creativecommons.org/ns#" xmlns:rdf="http://www.w3.org/1999/02/22-rdf-syntax-ns#">
   <cc:Work>
    <dc:type rdf:resource="http://purl.org/dc/dcmitype/StillImage"/>
    <dc:date>2026-04-23T11:51:42.602303</dc:date>
    <dc:format>image/svg+xml</dc:format>
    <dc:creator>
     <cc:Agent>
      <dc:title>Matplotlib v3.10.3, https://matplotlib.org/</dc:title>
     </cc:Agent>
    </dc:creator>
   </cc:Work>
  </rdf:RDF>
 </metadata>
 <defs>
  <style type="text/css">*{stroke-linejoin: round; stroke-linecap: butt}</style>
 </defs>
 <g id="figure_1">
  <g id="patch_1">
   <path d="M 0 191.1575 
L 711.20831 191.1575 
L 711.20831 0 
L 0 0 
z
" style="fill: #ffffff"/>
  </g>
  <g id="axes_1">
   <g id="patch_2">
    <path d="M 87.8125 136.2375 
L 387.227134 136.2375 
L 387.227134 25.3575 
L 87.8125 25.3575 
z
" style="fill: #ffffff"/>
   </g>
   <g id="patch_3">
    <path d="M 88.881838 25.3575 
L 97.436542 25.3575 
L 97.436542 26.566092 
L 88.881838 26.566092 
z
" clip-path="url(#p1fa3d8fb5b)" style="fill: #a1140b"/>
   </g>
   <g id="patch_4">
    <path d="M 99.575218 25.3575 
L 108.129922 25.3575 
L 108.129922 27.51966 
L 99.575218 27.51966 
z
" clip-path="url(#p1fa3d8fb5b)" style="fill: #a1140b"/>
   </g>
   <g id="patch_5">
    <path d="M 110.268598 25.3575 
L 118.823301 25.3575 
L 118.823301 29.992284 
L 110.268598 29.992284 
z
" clip-path="url(#p1fa3d8fb5b)" style="fill: #a1140b"/>
   </g>
   <g id="patch_6">
    <path d="M 120.961977 25.3575 
L 129.516681 25.3575 
L 129.516681 33.518268 
L 120.961977 33.518268 
z
" clip-path="url(#p1fa3d8fb5b)" style="fill: #a1140b"/>
   </g>
   <g id="patch_7">
    <path d="M 131.655357 25.3575 
L 140.210061 25.3575 
L 140.210061 36.50094 
L 131.655357 36.50094 
z
" clip-path="url(#p1fa3d8fb5b)" style="fill: #a1140b"/>
   </g>
   <g id="patch_8">
    <path d="M 142.348737 25.3575 
L 150.903441 25.3575 
L 150.903441 41.390748 
L 142.348737 41.390748 
z
" clip-path="url(#p1fa3d8fb5b)" style="fill: #a1140b"/>
   </g>
   <g id="patch_9">
    <path d="M 153.042117 25.3575 
L 161.596821 25.3575 
L 161.596821 46.790604 
L 153.042117 46.790604 
z
" clip-path="url(#p1fa3d8fb5b)" style="fill: #a1140b"/>
   </g>
   <g id="patch_10">
    <path d="M 163.735497 25.3575 
L 172.2902 25.3575 
L 172.2902 52.589628 
L 163.735497 52.589628 
z
" clip-path="url(#p1fa3d8fb5b)" style="fill: #a1140b"/>
   </g>
   <g id="patch_11">
    <path d="M 174.428876 25.3575 
L 182.98358 25.3575 
L 182.98358 59.264604 
L 174.428876 59.264604 
z
" clip-path="url(#p1fa3d8fb5b)" style="fill: #a1140b"/>
   </g>
   <g id="patch_12">
    <path d="M 185.122256 25.3575 
L 193.67696 25.3575 
L 193.67696 66.05046 
L 185.122256 66.05046 
z
" clip-path="url(#p1fa3d8fb5b)" style="fill: #a1140b"/>
   </g>
   <g id="patch_13">
    <path d="M 195.815636 25.3575 
L 204.37034 25.3575 
L 204.37034 72.636732 
L 195.815636 72.636732 
z
" clip-path="url(#p1fa3d8fb5b)" style="fill: #a1140b"/>
   </g>
   <g id="patch_14">
    <path d="M 206.509016 25.3575 
L 215.06372 25.3575 
L 215.06372 79.07886 
L 206.509016 79.07886 
z
" clip-path="url(#p1fa3d8fb5b)" style="fill: #a1140b"/>
   </g>
   <g id="patch_15">
    <path d="M 217.202395 25.3575 
L 225.757099 25.3575 
L 225.757099 85.34358 
L 217.202395 85.34358 
z
" clip-path="url(#p1fa3d8fb5b)" style="fill: #a1140b"/>
   </g>
   <g id="patch_16">
    <path d="M 227.895775 25.3575 
L 236.450479 25.3575 
L 236.450479 91.186956 
L 227.895775 91.186956 
z
" clip-path="url(#p1fa3d8fb5b)" style="fill: #a1140b"/>
   </g>
   <g id="patch_17">
    <path d="M 238.589155 25.3575 
L 247.143859 25.3575 
L 247.143859 96.620076 
L 238.589155 96.620076 
z
" clip-path="url(#p1fa3d8fb5b)" style="fill: #a1140b"/>
   </g>
   <g id="patch_18">
    <path d="M 249.282535 25.3575 
L 257.837239 25.3575 
L 257.837239 101.609676 
L 249.282535 101.609676 
z
" clip-path="url(#p1fa3d8fb5b)" style="fill: #a1140b"/>
   </g>
   <g id="patch_19">
    <path d="M 259.975915 25.3575 
L 268.530618 25.3575 
L 268.530618 105.867468 
L 259.975915 105.867468 
z
" clip-path="url(#p1fa3d8fb5b)" style="fill: #a1140b"/>
   </g>
   <g id="patch_20">
    <path d="M 270.669294 25.3575 
L 279.223998 25.3575 
L 279.223998 109.471068 
L 270.669294 109.471068 
z
" clip-path="url(#p1fa3d8fb5b)" style="fill: #a1140b"/>
   </g>
   <g id="patch_21">
    <path d="M 281.362674 25.3575 
L 289.917378 25.3575 
L 289.917378 112.34286 
L 281.362674 112.34286 
z
" clip-path="url(#p1fa3d8fb5b)" style="fill: #a1140b"/>
   </g>
   <g id="patch_22">
    <path d="M 292.056054 25.3575 
L 300.610758 25.3575 
L 300.610758 114.793308 
L 292.056054 114.793308 
z
" clip-path="url(#p1fa3d8fb5b)" style="fill: #a1140b"/>
   </g>
   <g id="patch_23">
    <path d="M 302.749434 25.3575 
L 311.304138 25.3575 
L 311.304138 116.88894 
L 302.749434 116.88894 
z
" clip-path="url(#p1fa3d8fb5b)" style="fill: #a1140b"/>
   </g>
   <g id="patch_24">
    <path d="M 313.442814 25.3575 
L 321.997517 25.3575 
L 321.997517 118.707372 
L 313.442814 118.707372 
z
" clip-path="url(#p1fa3d8fb5b)" style="fill: #a1140b"/>
   </g>
   <g id="patch_25">
    <path d="M 324.136193 25.3575 
L 332.690897 25.3575 
L 332.690897 120.370572 
L 324.136193 120.370572 
z
" clip-path="url(#p1fa3d8fb5b)" style="fill: #a1140b"/>
   </g>
   <g id="patch_26">
    <path d="M 334.829573 25.3575 
L 343.384277 25.3575 
L 343.384277 122.022684 
L 334.829573 122.022684 
z
" clip-path="url(#p1fa3d8fb5b)" style="fill: #a1140b"/>
   </g>
   <g id="patch_27">
    <path d="M 345.522953 25.3575 
L 354.077657 25.3575 
L 354.077657 123.796764 
L 345.522953 123.796764 
z
" clip-path="url(#p1fa3d8fb5b)" style="fill: #a1140b"/>
   </g>
   <g id="patch_28">
    <path d="M 356.216333 25.3575 
L 364.771037 25.3575 
L 364.771037 125.87022 
L 356.216333 125.87022 
z
" clip-path="url(#p1fa3d8fb5b)" style="fill: #a1140b"/>
   </g>
   <g id="patch_29">
    <path d="M 366.909713 25.3575 
L 375.464416 25.3575 
L 375.464416 128.664396 
L 366.909713 128.664396 
z
" clip-path="url(#p1fa3d8fb5b)" style="fill: #a1140b"/>
   </g>
   <g id="patch_30">
    <path d="M 377.603092 25.3575 
L 386.157796 25.3575 
L 386.157796 131.902092 
L 377.603092 131.902092 
z
" clip-path="url(#p1fa3d8fb5b)" style="fill: #a1140b"/>
   </g>
   <g id="matplotlib.axis_1">
    <g id="xtick_1">
     <g id="line2d_1">
      <defs>
       <path id="m6c395acffa" d="M 0 0 
L 0 3.5 
" style="stroke: #000000; stroke-width: 0.8"/>
      </defs>
      <g>
       <use xlink:href="#m6c395acffa" x="114.545949" y="136.2375" style="stroke: #000000; stroke-width: 0.8"/>
      </g>
     </g>
     <g id="text_1">
      <!-- 2025 -->
      <g transform="translate(118.960949 183.9575) rotate(-90) scale(0.16 -0.16)">
       <defs>
        <path id="DejaVuSans-32" d="M 1228 531 
L 3431 531 
L 3431 0 
L 469 0 
L 469 531 
Q 828 903 1448 1529 
Q 2069 2156 2228 2338 
Q 2531 2678 2651 2914 
Q 2772 3150 2772 3378 
Q 2772 3750 2511 3984 
Q 2250 4219 1831 4219 
Q 1534 4219 1204 4116 
Q 875 4013 500 3803 
L 500 4441 
Q 881 4594 1212 4672 
Q 1544 4750 1819 4750 
Q 2544 4750 2975 4387 
Q 3406 4025 3406 3419 
Q 3406 3131 3298 2873 
Q 3191 2616 2906 2266 
Q 2828 2175 2409 1742 
Q 1991 1309 1228 531 
z
" transform="scale(0.015625)"/>
        <path id="DejaVuSans-30" d="M 2034 4250 
Q 1547 4250 1301 3770 
Q 1056 3291 1056 2328 
Q 1056 1369 1301 889 
Q 1547 409 2034 409 
Q 2525 409 2770 889 
Q 3016 1369 3016 2328 
Q 3016 3291 2770 3770 
Q 2525 4250 2034 4250 
z
M 2034 4750 
Q 2819 4750 3233 4129 
Q 3647 3509 3647 2328 
Q 3647 1150 3233 529 
Q 2819 -91 2034 -91 
Q 1250 -91 836 529 
Q 422 1150 422 2328 
Q 422 3509 836 4129 
Q 1250 4750 2034 4750 
z
" transform="scale(0.015625)"/>
        <path id="DejaVuSans-35" d="M 691 4666 
L 3169 4666 
L 3169 4134 
L 1269 4134 
L 1269 2991 
Q 1406 3038 1543 3061 
Q 1681 3084 1819 3084 
Q 2600 3084 3056 2656 
Q 3513 2228 3513 1497 
Q 3513 744 3044 326 
Q 2575 -91 1722 -91 
Q 1428 -91 1123 -41 
Q 819 9 494 109 
L 494 744 
Q 775 591 1075 516 
Q 1375 441 1709 441 
Q 2250 441 2565 725 
Q 2881 1009 2881 1497 
Q 2881 1984 2565 2268 
Q 2250 2553 1709 2553 
Q 1456 2553 1204 2497 
Q 953 2441 691 2322 
L 691 4666 
z
" transform="scale(0.015625)"/>
       </defs>
       <use xlink:href="#DejaVuSans-32"/>
       <use xlink:href="#DejaVuSans-30" transform="translate(63.623047 0)"/>
       <use xlink:href="#DejaVuSans-32" transform="translate(127.246094 0)"/>
       <use xlink:href="#DejaVuSans-35" transform="translate(190.869141 0)"/>
      </g>
     </g>
    </g>
    <g id="xtick_2">
     <g id="line2d_2">
      <g>
       <use xlink:href="#m6c395acffa" x="168.012848" y="136.2375" style="stroke: #000000; stroke-width: 0.8"/>
      </g>
     </g>
     <g id="text_2">
      <!-- 2030 -->
      <g transform="translate(172.427848 183.9575) rotate(-90) scale(0.16 -0.16)">
       <defs>
        <path id="DejaVuSans-33" d="M 2597 2516 
Q 3050 2419 3304 2112 
Q 3559 1806 3559 1356 
Q 3559 666 3084 287 
Q 2609 -91 1734 -91 
Q 1441 -91 1130 -33 
Q 819 25 488 141 
L 488 750 
Q 750 597 1062 519 
Q 1375 441 1716 441 
Q 2309 441 2620 675 
Q 2931 909 2931 1356 
Q 2931 1769 2642 2001 
Q 2353 2234 1838 2234 
L 1294 2234 
L 1294 2753 
L 1863 2753 
Q 2328 2753 2575 2939 
Q 2822 3125 2822 3475 
Q 2822 3834 2567 4026 
Q 2313 4219 1838 4219 
Q 1578 4219 1281 4162 
Q 984 4106 628 3988 
L 628 4550 
Q 988 4650 1302 4700 
Q 1616 4750 1894 4750 
Q 2613 4750 3031 4423 
Q 3450 4097 3450 3541 
Q 3450 3153 3228 2886 
Q 3006 2619 2597 2516 
z
" transform="scale(0.015625)"/>
       </defs>
       <use xlink:href="#DejaVuSans-32"/>
       <use xlink:href="#DejaVuSans-30" transform="translate(63.623047 0)"/>
       <use xlink:href="#DejaVuSans-33" transform="translate(127.246094 0)"/>
       <use xlink:href="#DejaVuSans-30" transform="translate(190.869141 0)"/>
      </g>
     </g>
    </g>
    <g id="xtick_3">
     <g id="line2d_3">
      <g>
       <use xlink:href="#m6c395acffa" x="221.479747" y="136.2375" style="stroke: #000000; stroke-width: 0.8"/>
      </g>
     </g>
     <g id="text_3">
      <!-- 2035 -->
      <g transform="translate(225.894747 183.9575) rotate(-90) scale(0.16 -0.16)">
       <use xlink:href="#DejaVuSans-32"/>
       <use xlink:href="#DejaVuSans-30" transform="translate(63.623047 0)"/>
       <use xlink:href="#DejaVuSans-33" transform="translate(127.246094 0)"/>
       <use xlink:href="#DejaVuSans-35" transform="translate(190.869141 0)"/>
      </g>
     </g>
    </g>
    <g id="xtick_4">
     <g id="line2d_4">
      <g>
       <use xlink:href="#m6c395acffa" x="274.946646" y="136.2375" style="stroke: #000000; stroke-width: 0.8"/>
      </g>
     </g>
     <g id="text_4">
      <!-- 2040 -->
      <g transform="translate(279.361646 183.9575) rotate(-90) scale(0.16 -0.16)">
       <defs>
        <path id="DejaVuSans-34" d="M 2419 4116 
L 825 1625 
L 2419 1625 
L 2419 4116 
z
M 2253 4666 
L 3047 4666 
L 3047 1625 
L 3713 1625 
L 3713 1100 
L 3047 1100 
L 3047 0 
L 2419 0 
L 2419 1100 
L 313 1100 
L 313 1709 
L 2253 4666 
z
" transform="scale(0.015625)"/>
       </defs>
       <use xlink:href="#DejaVuSans-32"/>
       <use xlink:href="#DejaVuSans-30" transform="translate(63.623047 0)"/>
       <use xlink:href="#DejaVuSans-34" transform="translate(127.246094 0)"/>
       <use xlink:href="#DejaVuSans-30" transform="translate(190.869141 0)"/>
      </g>
     </g>
    </g>
    <g id="xtick_5">
     <g id="line2d_5">
      <g>
       <use xlink:href="#m6c395acffa" x="328.413545" y="136.2375" style="stroke: #000000; stroke-width: 0.8"/>
      </g>
     </g>
     <g id="text_5">
      <!-- 2045 -->
      <g transform="translate(332.828545 183.9575) rotate(-90) scale(0.16 -0.16)">
       <use xlink:href="#DejaVuSans-32"/>
       <use xlink:href="#DejaVuSans-30" transform="translate(63.623047 0)"/>
       <use xlink:href="#DejaVuSans-34" transform="translate(127.246094 0)"/>
       <use xlink:href="#DejaVuSans-35" transform="translate(190.869141 0)"/>
      </g>
     </g>
    </g>
    <g id="xtick_6">
     <g id="line2d_6">
      <g>
       <use xlink:href="#m6c395acffa" x="381.880444" y="136.2375" style="stroke: #000000; stroke-width: 0.8"/>
      </g>
     </g>
     <g id="text_6">
      <!-- 2050 -->
      <g transform="translate(386.295444 183.9575) rotate(-90) scale(0.16 -0.16)">
       <use xlink:href="#DejaVuSans-32"/>
       <use xlink:href="#DejaVuSans-30" transform="translate(63.623047 0)"/>
       <use xlink:href="#DejaVuSans-35" transform="translate(127.246094 0)"/>
       <use xlink:href="#DejaVuSans-30" transform="translate(190.869141 0)"/>
      </g>
     </g>
    </g>
   </g>
   <g id="matplotlib.axis_2">
    <g id="ytick_1">
     <g id="line2d_7">
      <defs>
       <path id="me0069d31ad" d="M 0 0 
L -3.5 0 
" style="stroke: #000000; stroke-width: 0.8"/>
      </defs>
      <g>
       <use xlink:href="#me0069d31ad" x="87.8125" y="136.2375" style="stroke: #000000; stroke-width: 0.8"/>
      </g>
     </g>
     <g id="text_7">
      <!-- −1000 -->
      <g transform="translate(26.685 142.31625) scale(0.16 -0.16)">
       <defs>
        <path id="DejaVuSans-2212" d="M 678 2272 
L 4684 2272 
L 4684 1741 
L 678 1741 
L 678 2272 
z
" transform="scale(0.015625)"/>
        <path id="DejaVuSans-31" d="M 794 531 
L 1825 531 
L 1825 4091 
L 703 3866 
L 703 4441 
L 1819 4666 
L 2450 4666 
L 2450 531 
L 3481 531 
L 3481 0 
L 794 0 
L 794 531 
z
" transform="scale(0.015625)"/>
       </defs>
       <use xlink:href="#DejaVuSans-2212"/>
       <use xlink:href="#DejaVuSans-31" transform="translate(83.789062 0)"/>
       <use xlink:href="#DejaVuSans-30" transform="translate(147.412109 0)"/>
       <use xlink:href="#DejaVuSans-30" transform="translate(211.035156 0)"/>
       <use xlink:href="#DejaVuSans-30" transform="translate(274.658203 0)"/>
      </g>
     </g>
    </g>
    <g id="ytick_2">
     <g id="line2d_8">
      <g>
       <use xlink:href="#me0069d31ad" x="87.8125" y="80.7975" style="stroke: #000000; stroke-width: 0.8"/>
      </g>
     </g>
     <g id="text_8">
      <!-- −500 -->
      <g transform="translate(36.865 86.87625) scale(0.16 -0.16)">
       <use xlink:href="#DejaVuSans-2212"/>
       <use xlink:href="#DejaVuSans-35" transform="translate(83.789062 0)"/>
       <use xlink:href="#DejaVuSans-30" transform="translate(147.412109 0)"/>
       <use xlink:href="#DejaVuSans-30" transform="translate(211.035156 0)"/>
      </g>
     </g>
    </g>
    <g id="ytick_3">
     <g id="line2d_9">
      <g>
       <use xlink:href="#me0069d31ad" x="87.8125" y="25.3575" style="stroke: #000000; stroke-width: 0.8"/>
      </g>
     </g>
     <g id="text_9">
      <!-- 0 -->
      <g transform="translate(70.6325 31.43625) scale(0.16 -0.16)">
       <use xlink:href="#DejaVuSans-30"/>
      </g>
     </g>
    </g>
    <g id="text_10">
     <!-- 10^3 BEP -->
     <g transform="translate(19.3575 120.68125) rotate(-90) scale(0.16 -0.16)">
      <defs>
       <path id="DejaVuSans-5e" d="M 2988 4666 
L 4684 2925 
L 4056 2925 
L 2681 4159 
L 1306 2925 
L 678 2925 
L 2375 4666 
L 2988 4666 
z
" transform="scale(0.015625)"/>
       <path id="DejaVuSans-20" transform="scale(0.015625)"/>
       <path id="DejaVuSans-42" d="M 1259 2228 
L 1259 519 
L 2272 519 
Q 2781 519 3026 730 
Q 3272 941 3272 1375 
Q 3272 1813 3026 2020 
Q 2781 2228 2272 2228 
L 1259 2228 
z
M 1259 4147 
L 1259 2741 
L 2194 2741 
Q 2656 2741 2882 2914 
Q 3109 3088 3109 3444 
Q 3109 3797 2882 3972 
Q 2656 4147 2194 4147 
L 1259 4147 
z
M 628 4666 
L 2241 4666 
Q 2963 4666 3353 4366 
Q 3744 4066 3744 3513 
Q 3744 3084 3544 2831 
Q 3344 2578 2956 2516 
Q 3422 2416 3680 2098 
Q 3938 1781 3938 1306 
Q 3938 681 3513 340 
Q 3088 0 2303 0 
L 628 0 
L 628 4666 
z
" transform="scale(0.015625)"/>
       <path id="DejaVuSans-45" d="M 628 4666 
L 3578 4666 
L 3578 4134 
L 1259 4134 
L 1259 2753 
L 3481 2753 
L 3481 2222 
L 1259 2222 
L 1259 531 
L 3634 531 
L 3634 0 
L 628 0 
L 628 4666 
z
" transform="scale(0.015625)"/>
       <path id="DejaVuSans-50" d="M 1259 4147 
L 1259 2394 
L 2053 2394 
Q 2494 2394 2734 2622 
Q 2975 2850 2975 3272 
Q 2975 3691 2734 3919 
Q 2494 4147 2053 4147 
L 1259 4147 
z
M 628 4666 
L 2053 4666 
Q 2838 4666 3239 4311 
Q 3641 3956 3641 3272 
Q 3641 2581 3239 2228 
Q 2838 1875 2053 1875 
L 1259 1875 
L 1259 0 
L 628 0 
L 628 4666 
z
" transform="scale(0.015625)"/>
      </defs>
      <use xlink:href="#DejaVuSans-31"/>
      <use xlink:href="#DejaVuSans-30" transform="translate(63.623047 0)"/>
      <use xlink:href="#DejaVuSans-5e" transform="translate(127.246094 0)"/>
      <use xlink:href="#DejaVuSans-33" transform="translate(211.035156 0)"/>
      <use xlink:href="#DejaVuSans-20" transform="translate(274.658203 0)"/>
      <use xlink:href="#DejaVuSans-42" transform="translate(306.445312 0)"/>
      <use xlink:href="#DejaVuSans-45" transform="translate(375.048828 0)"/>
      <use xlink:href="#DejaVuSans-50" transform="translate(438.232422 0)"/>
     </g>
    </g>
   </g>
   <g id="patch_31">
    <path d="M 87.8125 136.2375 
L 87.8125 25.3575 
" style="fill: none; stroke: #000000; stroke-width: 0.8; stroke-linejoin: miter; stroke-linecap: square"/>
   </g>
   <g id="patch_32">
    <path d="M 387.227134 136.2375 
L 387.227134 25.3575 
" style="fill: none; stroke: #000000; stroke-width: 0.8; stroke-linejoin: miter; stroke-linecap: square"/>
   </g>
   <g id="patch_33">
    <path d="M 87.8125 136.2375 
L 387.227134 136.2375 
" style="fill: none; stroke: #000000; stroke-width: 0.8; stroke-linejoin: miter; stroke-linecap: square"/>
   </g>
   <g id="patch_34">
    <path d="M 87.8125 25.3575 
L 387.227134 25.3575 
" style="fill: none; stroke: #000000; stroke-width: 0.8; stroke-linejoin: miter; stroke-linecap: square"/>
   </g>
   <g id="text_11">
    <!-- TEN -->
    <g transform="translate(219.902317 19.3575) scale(0.16 -0.16)">
     <defs>
      <path id="DejaVuSans-Bold-54" d="M 31 4666 
L 4331 4666 
L 4331 3756 
L 2784 3756 
L 2784 0 
L 1581 0 
L 1581 3756 
L 31 3756 
L 31 4666 
z
" transform="scale(0.015625)"/>
      <path id="DejaVuSans-Bold-45" d="M 588 4666 
L 3834 4666 
L 3834 3756 
L 1791 3756 
L 1791 2888 
L 3713 2888 
L 3713 1978 
L 1791 1978 
L 1791 909 
L 3903 909 
L 3903 0 
L 588 0 
L 588 4666 
z
" transform="scale(0.015625)"/>
      <path id="DejaVuSans-Bold-4e" d="M 588 4666 
L 1931 4666 
L 3628 1466 
L 3628 4666 
L 4769 4666 
L 4769 0 
L 3425 0 
L 1728 3200 
L 1728 0 
L 588 0 
L 588 4666 
z
" transform="scale(0.015625)"/>
     </defs>
     <use xlink:href="#DejaVuSans-Bold-54"/>
     <use xlink:href="#DejaVuSans-Bold-45" transform="translate(68.212891 0)"/>
     <use xlink:href="#DejaVuSans-Bold-4e" transform="translate(136.523438 0)"/>
    </g>
   </g>
  </g>
  <g id="axes_2">
   <g id="patch_35">
    <path d="M 402.197866 136.2375 
L 701.6125 136.2375 
L 701.6125 25.3575 
L 402.197866 25.3575 
z
" style="fill: #ffffff"/>
   </g>
   <g id="patch_36">
    <path d="M 403.267204 25.3575 
L 411.821908 25.3575 
L 411.821908 26.710236 
L 403.267204 26.710236 
z
" clip-path="url(#p8ad041cb65)" style="fill: #a1140b"/>
   </g>
   <g id="patch_37">
    <path d="M 413.960584 25.3575 
L 422.515287 25.3575 
L 422.515287 27.763596 
L 413.960584 27.763596 
z
" clip-path="url(#p8ad041cb65)" style="fill: #a1140b"/>
   </g>
   <g id="patch_38">
    <path d="M 424.653963 25.3575 
L 433.208667 25.3575 
L 433.208667 30.535596 
L 424.653963 30.535596 
z
" clip-path="url(#p8ad041cb65)" style="fill: #a1140b"/>
   </g>
   <g id="patch_39">
    <path d="M 435.347343 25.3575 
L 443.902047 25.3575 
L 443.902047 33.795468 
L 435.347343 33.795468 
z
" clip-path="url(#p8ad041cb65)" style="fill: #a1140b"/>
   </g>
   <g id="patch_40">
    <path d="M 446.040723 25.3575 
L 454.595427 25.3575 
L 454.595427 37.321452 
L 446.040723 37.321452 
z
" clip-path="url(#p8ad041cb65)" style="fill: #a1140b"/>
   </g>
   <g id="patch_41">
    <path d="M 456.734103 25.3575 
L 465.288807 25.3575 
L 465.288807 34.416396 
L 456.734103 34.416396 
z
" clip-path="url(#p8ad041cb65)" style="fill: #a1140b"/>
   </g>
   <g id="patch_42">
    <path d="M 467.427483 25.3575 
L 475.982186 25.3575 
L 475.982186 27.841212 
L 467.427483 27.841212 
z
" clip-path="url(#p8ad041cb65)" style="fill: #a1140b"/>
   </g>
   <g id="patch_43">
    <path d="M 478.120862 25.3575 
L 486.675566 25.3575 
L 486.675566 25.934076 
L 478.120862 25.934076 
z
" clip-path="url(#p8ad041cb65)" style="fill: #a1140b"/>
   </g>
   <g id="patch_44">
    <path d="M 488.814242 25.3575 
L 497.368946 25.3575 
L 497.368946 26.056044 
L 488.814242 26.056044 
z
" clip-path="url(#p8ad041cb65)" style="fill: #a1140b"/>
   </g>
   <g id="patch_45">
    <path d="M 499.507622 25.3575 
L 508.062326 25.3575 
L 508.062326 26.178012 
L 499.507622 26.178012 
z
" clip-path="url(#p8ad041cb65)" style="fill: #a1140b"/>
   </g>
   <g id="patch_46">
    <path d="M 510.201002 25.3575 
L 518.755706 25.3575 
L 518.755706 26.288892 
L 510.201002 26.288892 
z
" clip-path="url(#p8ad041cb65)" style="fill: #a1140b"/>
   </g>
   <g id="patch_47">
    <path d="M 520.894382 25.3575 
L 529.449085 25.3575 
L 529.449085 26.41086 
L 520.894382 26.41086 
z
" clip-path="url(#p8ad041cb65)" style="fill: #a1140b"/>
   </g>
   <g id="patch_48">
    <path d="M 531.587761 25.3575 
L 540.142465 25.3575 
L 540.142465 26.588268 
L 531.587761 26.588268 
z
" clip-path="url(#p8ad041cb65)" style="fill: #a1140b"/>
   </g>
   <g id="patch_49">
    <path d="M 542.281141 25.3575 
L 550.835845 25.3575 
L 550.835845 26.79894 
L 542.281141 26.79894 
z
" clip-path="url(#p8ad041cb65)" style="fill: #a1140b"/>
   </g>
   <g id="patch_50">
    <path d="M 552.974521 25.3575 
L 561.529225 25.3575 
L 561.529225 27.18702 
L 552.974521 27.18702 
z
" clip-path="url(#p8ad041cb65)" style="fill: #a1140b"/>
   </g>
   <g id="patch_51">
    <path d="M 563.667901 25.3575 
L 572.222605 25.3575 
L 572.222605 28.46214 
L 563.667901 28.46214 
z
" clip-path="url(#p8ad041cb65)" style="fill: #a1140b"/>
   </g>
   <g id="patch_52">
    <path d="M 574.36128 25.3575 
L 582.915984 25.3575 
L 582.915984 28.783692 
L 574.36128 28.783692 
z
" clip-path="url(#p8ad041cb65)" style="fill: #a1140b"/>
   </g>
   <g id="patch_53">
    <path d="M 585.05466 25.3575 
L 593.609364 25.3575 
L 593.609364 29.992284 
L 585.05466 29.992284 
z
" clip-path="url(#p8ad041cb65)" style="fill: #a1140b"/>
   </g>
   <g id="patch_54">
    <path d="M 595.74804 25.3575 
L 604.302744 25.3575 
L 604.302744 31.522428 
L 595.74804 31.522428 
z
" clip-path="url(#p8ad041cb65)" style="fill: #a1140b"/>
   </g>
   <g id="patch_55">
    <path d="M 606.44142 25.3575 
L 614.996124 25.3575 
L 614.996124 33.418476 
L 606.44142 33.418476 
z
" clip-path="url(#p8ad041cb65)" style="fill: #a1140b"/>
   </g>
   <g id="patch_56">
    <path d="M 617.1348 25.3575 
L 625.689503 25.3575 
L 625.689503 35.0595 
L 617.1348 35.0595 
z
" clip-path="url(#p8ad041cb65)" style="fill: #a1140b"/>
   </g>
   <g id="patch_57">
    <path d="M 627.828179 25.3575 
L 636.382883 25.3575 
L 636.382883 36.622908 
L 627.828179 36.622908 
z
" clip-path="url(#p8ad041cb65)" style="fill: #a1140b"/>
   </g>
   <g id="patch_58">
    <path d="M 638.521559 25.3575 
L 647.076263 25.3575 
L 647.076263 37.155132 
L 638.521559 37.155132 
z
" clip-path="url(#p8ad041cb65)" style="fill: #a1140b"/>
   </g>
   <g id="patch_59">
    <path d="M 649.214939 25.3575 
L 657.769643 25.3575 
L 657.769643 39.516876 
L 649.214939 39.516876 
z
" clip-path="url(#p8ad041cb65)" style="fill: #a1140b"/>
   </g>
   <g id="patch_60">
    <path d="M 659.908319 25.3575 
L 668.463023 25.3575 
L 668.463023 43.198092 
L 659.908319 43.198092 
z
" clip-path="url(#p8ad041cb65)" style="fill: #a1140b"/>
   </g>
   <g id="patch_61">
    <path d="M 670.601699 25.3575 
L 679.156402 25.3575 
L 679.156402 46.568844 
L 670.601699 46.568844 
z
" clip-path="url(#p8ad041cb65)" style="fill: #a1140b"/>
   </g>
   <g id="patch_62">
    <path d="M 681.295078 25.3575 
L 689.849782 25.3575 
L 689.849782 50.63814 
L 681.295078 50.63814 
z
" clip-path="url(#p8ad041cb65)" style="fill: #a1140b"/>
   </g>
   <g id="patch_63">
    <path d="M 691.988458 25.3575 
L 700.543162 25.3575 
L 700.543162 53.343612 
L 691.988458 53.343612 
z
" clip-path="url(#p8ad041cb65)" style="fill: #a1140b"/>
   </g>
   <g id="matplotlib.axis_3">
    <g id="xtick_7">
     <g id="line2d_10">
      <g>
       <use xlink:href="#m6c395acffa" x="428.931315" y="136.2375" style="stroke: #000000; stroke-width: 0.8"/>
      </g>
     </g>
     <g id="text_12">
      <!-- 2025 -->
      <g transform="translate(433.346315 183.9575) rotate(-90) scale(0.16 -0.16)">
       <use xlink:href="#DejaVuSans-32"/>
       <use xlink:href="#DejaVuSans-30" transform="translate(63.623047 0)"/>
       <use xlink:href="#DejaVuSans-32" transform="translate(127.246094 0)"/>
       <use xlink:href="#DejaVuSans-35" transform="translate(190.869141 0)"/>
      </g>
     </g>
    </g>
    <g id="xtick_8">
     <g id="line2d_11">
      <g>
       <use xlink:href="#m6c395acffa" x="482.398214" y="136.2375" style="stroke: #000000; stroke-width: 0.8"/>
      </g>
     </g>
     <g id="text_13">
      <!-- 2030 -->
      <g transform="translate(486.813214 183.9575) rotate(-90) scale(0.16 -0.16)">
       <use xlink:href="#DejaVuSans-32"/>
       <use xlink:href="#DejaVuSans-30" transform="translate(63.623047 0)"/>
       <use xlink:href="#DejaVuSans-33" transform="translate(127.246094 0)"/>
       <use xlink:href="#DejaVuSans-30" transform="translate(190.869141 0)"/>
      </g>
     </g>
    </g>
    <g id="xtick_9">
     <g id="line2d_12">
      <g>
       <use xlink:href="#m6c395acffa" x="535.865113" y="136.2375" style="stroke: #000000; stroke-width: 0.8"/>
      </g>
     </g>
     <g id="text_14">
      <!-- 2035 -->
      <g transform="translate(540.280113 183.9575) rotate(-90) scale(0.16 -0.16)">
       <use xlink:href="#DejaVuSans-32"/>
       <use xlink:href="#DejaVuSans-30" transform="translate(63.623047 0)"/>
       <use xlink:href="#DejaVuSans-33" transform="translate(127.246094 0)"/>
       <use xlink:href="#DejaVuSans-35" transform="translate(190.869141 0)"/>
      </g>
     </g>
    </g>
    <g id="xtick_10">
     <g id="line2d_13">
      <g>
       <use xlink:href="#m6c395acffa" x="589.332012" y="136.2375" style="stroke: #000000; stroke-width: 0.8"/>
      </g>
     </g>
     <g id="text_15">
      <!-- 2040 -->
      <g transform="translate(593.747012 183.9575) rotate(-90) scale(0.16 -0.16)">
       <use xlink:href="#DejaVuSans-32"/>
       <use xlink:href="#DejaVuSans-30" transform="translate(63.623047 0)"/>
       <use xlink:href="#DejaVuSans-34" transform="translate(127.246094 0)"/>
       <use xlink:href="#DejaVuSans-30" transform="translate(190.869141 0)"/>
      </g>
     </g>
    </g>
    <g id="xtick_11">
     <g id="line2d_14">
      <g>
       <use xlink:href="#m6c395acffa" x="642.798911" y="136.2375" style="stroke: #000000; stroke-width: 0.8"/>
      </g>
     </g>
     <g id="text_16">
      <!-- 2045 -->
      <g transform="translate(647.213911 183.9575) rotate(-90) scale(0.16 -0.16)">
       <use xlink:href="#DejaVuSans-32"/>
       <use xlink:href="#DejaVuSans-30" transform="translate(63.623047 0)"/>
       <use xlink:href="#DejaVuSans-34" transform="translate(127.246094 0)"/>
       <use xlink:href="#DejaVuSans-35" transform="translate(190.869141 0)"/>
      </g>
     </g>
    </g>
    <g id="xtick_12">
     <g id="line2d_15">
      <g>
       <use xlink:href="#m6c395acffa" x="696.26581" y="136.2375" style="stroke: #000000; stroke-width: 0.8"/>
      </g>
     </g>
     <g id="text_17">
      <!-- 2050 -->
      <g transform="translate(700.68081 183.9575) rotate(-90) scale(0.16 -0.16)">
       <use xlink:href="#DejaVuSans-32"/>
       <use xlink:href="#DejaVuSans-30" transform="translate(63.623047 0)"/>
       <use xlink:href="#DejaVuSans-35" transform="translate(127.246094 0)"/>
       <use xlink:href="#DejaVuSans-30" transform="translate(190.869141 0)"/>
      </g>
     </g>
    </g>
   </g>
   <g id="matplotlib.axis_4">
    <g id="ytick_4">
     <g id="line2d_16">
      <g>
       <use xlink:href="#me0069d31ad" x="402.197866" y="136.2375" style="stroke: #000000; stroke-width: 0.8"/>
      </g>
     </g>
    </g>
    <g id="ytick_5">
     <g id="line2d_17">
      <g>
       <use xlink:href="#me0069d31ad" x="402.197866" y="80.7975" style="stroke: #000000; stroke-width: 0.8"/>
      </g>
     </g>
    </g>
    <g id="ytick_6">
     <g id="line2d_18">
      <g>
       <use xlink:href="#me0069d31ad" x="402.197866" y="25.3575" style="stroke: #000000; stroke-width: 0.8"/>
      </g>
     </g>
    </g>
   </g>
   <g id="patch_64">
    <path d="M 402.197866 136.2375 
L 402.197866 25.3575 
" style="fill: none; stroke: #000000; stroke-width: 0.8; stroke-linejoin: miter; stroke-linecap: square"/>
   </g>
   <g id="patch_65">
    <path d="M 701.6125 136.2375 
L 701.6125 25.3575 
" style="fill: none; stroke: #000000; stroke-width: 0.8; stroke-linejoin: miter; stroke-linecap: square"/>
   </g>
   <g id="patch_66">
    <path d="M 402.197866 136.2375 
L 701.6125 136.2375 
" style="fill: none; stroke: #000000; stroke-width: 0.8; stroke-linejoin: miter; stroke-linecap: square"/>
   </g>
   <g id="patch_67">
    <path d="M 402.197866 25.3575 
L 701.6125 25.3575 
" style="fill: none; stroke: #000000; stroke-width: 0.8; stroke-linejoin: miter; stroke-linecap: square"/>
   </g>
   <g id="text_18">
    <!-- ALT -->
    <g transform="translate(536.478933 19.3575) scale(0.16 -0.16)">
     <defs>
      <path id="DejaVuSans-Bold-41" d="M 3419 850 
L 1538 850 
L 1241 0 
L 31 0 
L 1759 4666 
L 3194 4666 
L 4922 0 
L 3713 0 
L 3419 850 
z
M 1838 1716 
L 3116 1716 
L 2478 3572 
L 1838 1716 
z
" transform="scale(0.015625)"/>
      <path id="DejaVuSans-Bold-4c" d="M 588 4666 
L 1791 4666 
L 1791 909 
L 3903 909 
L 3903 0 
L 588 0 
L 588 4666 
z
" transform="scale(0.015625)"/>
     </defs>
     <use xlink:href="#DejaVuSans-Bold-41"/>
     <use xlink:href="#DejaVuSans-Bold-4c" transform="translate(77.392578 0)"/>
     <use xlink:href="#DejaVuSans-Bold-54" transform="translate(124.613281 0)"/>
    </g>
   </g>
  </g>
 </g>
 <defs>
  <clipPath id="p1fa3d8fb5b">
   <rect x="87.8125" y="25.3575" width="299.414634" height="110.88"/>
  </clipPath>
  <clipPath id="p8ad041cb65">
   <rect x="402.197866" y="25.3575" width="299.414634" height="110.88"/>
  </clipPath>
 </defs>
</svg>
