<?xml version="1.0" encoding="UTF-8" standalone="no"?>
<!-- Generated by graphviz version 2.43.0 (0)
 -->

<!-- Title: tree Pages: 1 -->

<svg
   width="1010pt"
   height="188pt"
   viewBox="0.00 0.00 1010.39 188.00"
   version="1.1"
   id="svg224"
   sodipodi:docname="demanda.svg"
   inkscape:version="1.1.2 (0a00cf5339, 2022-02-04)"
   xmlns:inkscape="http://www.inkscape.org/namespaces/inkscape"
   xmlns:sodipodi="http://sodipodi.sourceforge.net/DTD/sodipodi-0.dtd"
   xmlns="http://www.w3.org/2000/svg"
   xmlns:svg="http://www.w3.org/2000/svg">
  <defs
     id="defs228" />
  <sodipodi:namedview
     id="namedview226"
     pagecolor="#ffffff"
     bordercolor="#666666"
     borderopacity="1.0"
     inkscape:pageshadow="2"
     inkscape:pageopacity="0.0"
     inkscape:pagecheckerboard="0"
     inkscape:document-units="pt"
     showgrid="false"
     inkscape:zoom="0.99356436"
     inkscape:cx="611.43498"
     inkscape:cy="125.30643"
     inkscape:window-width="1850"
     inkscape:window-height="1016"
     inkscape:window-x="70"
     inkscape:window-y="27"
     inkscape:window-maximized="1"
     inkscape:current-layer="svg224" />
  <polygon
     fill="#ffffff"
     stroke="transparent"
     points="1006.39,-184 1006.39,4 -4,4 -4,-184 "
     id="polygon4"
     transform="translate(4,184)" />
  <ellipse
     fill="none"
     stroke="#000000"
     cx="149.5"
     cy="94"
     rx="63.889999"
     ry="18"
     id="ellipse15"
     style="fill:#36495a;fill-opacity:1;opacity:1" />
  <text
     text-anchor="middle"
     x="149.5"
     y="97.699997"
     font-family="Times, serif"
     font-size="14px"
     id="text17"
     style="fill:#ffffff">Residencial</text>
  <ellipse
     fill="none"
     stroke="#000000"
     cx="364.5"
     cy="94"
     rx="55.790001"
     ry="18"
     id="ellipse29"
     style="fill:#fbaa1b;fill-opacity:1" />
  <text
     text-anchor="middle"
     x="364.5"
     y="97.699997"
     font-family="Times, serif"
     font-size="14px"
     id="text31"
     style="fill:#ffffff">Industrial</text>
  <ellipse
     fill="none"
     stroke="#000000"
     cx="593.5"
     cy="94"
     rx="61.990002"
     ry="18"
     id="ellipse43"
     style="fill:#207653;fill-opacity:1" />
  <text
     text-anchor="middle"
     x="593.5"
     y="97.699997"
     font-family="Times, serif"
     font-size="14px"
     id="text45"
     style="fill:#ffffff">Transporte</text>
  <ellipse
     fill="none"
     stroke="#000000"
     cx="702.5"
     cy="94"
     rx="29.5"
     ry="18"
     id="ellipse57"
     style="fill:#8fc73e;fill-opacity:1" />
  <text
     text-anchor="middle"
     x="702.5"
     y="97.699997"
     font-family="Times, serif"
     font-size="14px"
     id="text59">CyP</text>
  <ellipse
     fill="none"
     stroke="#000000"
     cx="788.5"
     cy="94"
     rx="38.189999"
     ry="18"
     id="ellipse71"
     style="fill:#a1140b;fill-opacity:1" />
  <text
     text-anchor="middle"
     x="788.5"
     y="97.699997"
     font-family="Times, serif"
     font-size="14px"
     id="text73"
     style="fill:#ffffff">APyM</text>
  <ellipse
     fill="none"
     stroke="#000000"
     cx="916.5"
     cy="94"
     rx="71.489998"
     ry="18"
     id="ellipse85"
     style="fill:#6d6f70;fill-opacity:1" />
  <text
     text-anchor="middle"
     x="916.5"
     y="97.699997"
     font-family="Times, serif"
     font-size="14px"
     id="text87"
     style="fill:#ffffff">Construcción</text>
  <ellipse
     fill="none"
     stroke="#000000"
     cx="49.5"
     cy="166"
     rx="45.490002"
     ry="18"
     id="ellipse99"
     style="fill:#36495a;fill-opacity:1" />
  <text
     text-anchor="middle"
     x="49.5"
     y="169.7"
     font-family="Times, serif"
     font-size="14px"
     id="text101"
     style="fill:#ffffff">Urbano</text>
  <path
     fill="none"
     stroke="#000000"
     d="m 126.8,110.88 c -13.97,9.78 -32.04,22.43 -47.2,33.04"
     id="path106" />
  <polygon
     fill="#000000"
     stroke="#000000"
     points="67.07,-34.1 73.25,-42.7 77.27,-36.97 "
     id="polygon108"
     transform="translate(4,184)" />
  <ellipse
     fill="none"
     stroke="#000000"
     cx="149.5"
     cy="166"
     rx="36.290001"
     ry="18"
     id="ellipse113"
     style="fill:#36495a;fill-opacity:1" />
  <text
     text-anchor="middle"
     x="149.5"
     y="169.7"
     font-family="Times, serif"
     font-size="14px"
     id="text115"
     style="fill:#ffffff">Rural</text>
  <path
     fill="none"
     stroke="#000000"
     d="m 149.5,112.3 c 0,7.72 0,16.99 0,25.59"
     id="path120" />
  <polygon
     fill="#000000"
     stroke="#000000"
     points="145.5,-36.1 142,-46.1 149,-46.1 "
     id="polygon122"
     transform="translate(4,184)" />
  <ellipse
     fill="none"
     stroke="#000000"
     cx="253.5"
     cy="166"
     rx="50.09"
     ry="18"
     id="ellipse127"
     style="fill:#fbaa1b;fill-opacity:1" />
  <text
     text-anchor="middle"
     x="253.5"
     y="169.7"
     font-family="Times, serif"
     font-size="14px"
     id="text129"
     style="fill:#ffffff">EAIMCS</text>
  <path
     fill="none"
     stroke="#000000"
     d="m 340.14,110.36 c -15.87,10.01 -36.76,23.18 -54.05,34.09"
     id="path134" />
  <polygon
     fill="#000000"
     stroke="#000000"
     points="273.42,-34.09 280.01,-42.38 283.74,-36.46 "
     id="polygon136"
     transform="translate(4,184)" />
  <ellipse
     fill="none"
     stroke="#000000"
     cx="364.5"
     cy="166"
     rx="42.790001"
     ry="18"
     id="ellipse141"
     style="fill:#fbaa1b;fill-opacity:1" />
  <text
     text-anchor="middle"
     x="364.5"
     y="169.7"
     font-family="Times, serif"
     font-size="14px"
     id="text143"
     style="fill:#ffffff">MIPES</text>
  <path
     fill="none"
     stroke="#000000"
     d="m 364.5,112.3 c 0,7.72 0,16.99 0,25.59"
     id="path148" />
  <polygon
     fill="#000000"
     stroke="#000000"
     points="360.5,-36.1 357,-46.1 364,-46.1 "
     id="polygon150"
     transform="translate(4,184)" />
  <ellipse
     fill="none"
     stroke="#000000"
     cx="481.5"
     cy="166"
     rx="55.790001"
     ry="18"
     id="ellipse155"
     style="fill:#207653;fill-opacity:1" />
  <text
     text-anchor="middle"
     x="481.5"
     y="169.7"
     font-family="Times, serif"
     font-size="14px"
     id="text157"
     style="fill:#ffffff">Carretero</text>
  <path
     fill="none"
     stroke="#000000"
     d="m 568.64,110.54 c -15.92,9.94 -36.75,22.96 -54.06,33.78"
     id="path162" />
  <polygon
     fill="#000000"
     stroke="#000000"
     points="501.9,-34.25 508.52,-42.52 512.23,-36.58 "
     id="polygon164"
     transform="translate(4,184)" />
  <ellipse
     fill="none"
     stroke="#000000"
     cx="593.5"
     cy="166"
     rx="37.889999"
     ry="18"
     id="ellipse169"
     style="fill:#207653;fill-opacity:1" />
  <text
     text-anchor="middle"
     x="593.5"
     y="169.7"
     font-family="Times, serif"
     font-size="14px"
     id="text171"
     style="fill:#ffffff">Aereo</text>
  <path
     fill="none"
     stroke="#000000"
     d="m 593.5,112.3 c 0,7.72 0,16.99 0,25.59"
     id="path176" />
  <polygon
     fill="#000000"
     stroke="#000000"
     points="589.5,-36.1 586,-46.1 593,-46.1 "
     id="polygon178"
     transform="translate(4,184)" />
  <ellipse
     fill="none"
     stroke="#000000"
     cx="711.5"
     cy="166"
     rx="62.290001"
     ry="18"
     id="ellipse183"
     style="fill:#207653;fill-opacity:1" />
  <text
     text-anchor="middle"
     x="711.5"
     y="169.7"
     font-family="Times, serif"
     font-size="14px"
     id="text185"
     style="fill:#ffffff">Ferroviario</text>
  <path
     fill="none"
     stroke="#000000"
     d="m 619.39,110.36 c 16.79,9.96 38.87,23.06 57.2,33.94"
     id="path190" />
  <polygon
     fill="#000000"
     stroke="#000000"
     points="681.25,-34.57 670.87,-36.66 674.44,-42.68 "
     id="polygon192"
     transform="translate(4,184)" />
  <ellipse
     fill="none"
     stroke="#000000"
     cx="834.5"
     cy="166"
     rx="42.490002"
     ry="18"
     id="ellipse197"
     style="fill:#207653;fill-opacity:1" />
  <text
     text-anchor="middle"
     x="834.5"
     y="169.7"
     font-family="Times, serif"
     font-size="14px"
     id="text199"
     style="fill:#ffffff">Fluvial</text>
  <path
     fill="none"
     stroke="#000000"
     d="m 637.57,106.79 c 38.4,10.41 95.52,26.22 144.93,41.21 3.32,1.01 6.76,2.08 10.21,3.17"
     id="path204" />
  <polygon
     fill="#000000"
     stroke="#000000"
     points="798.39,-29.73 787.8,-29.45 789.93,-36.12 "
     id="polygon206"
     transform="translate(4,184)" />
  <ellipse
     fill="none"
     stroke="#000000"
     cx="950.5"
     cy="166"
     rx="55.790001"
     ry="18"
     id="ellipse211"
     style="fill:#207653;fill-opacity:1" />
  <text
     text-anchor="middle"
     x="950.5"
     y="169.7"
     font-family="Times, serif"
     font-size="14px"
     id="text213"
     style="fill:#ffffff">Teleferico</text>
  <path
     fill="none"
     stroke="#000000"
     d="m 638.84,106.38 c 8.5,1.99 17.33,3.95 25.66,5.62 97.56,19.6 123.64,15.39 221,36 4.6,0.98 9.37,2.07 14.14,3.21"
     id="path218" />
  <polygon
     fill="#000000"
     stroke="#000000"
     points="905.37,-30.38 894.82,-29.39 896.51,-36.18 "
     id="polygon220"
     transform="translate(4,184)" />
</svg>
