<?xml version="1.0" encoding="utf-8" standalone="no"?>
<!DOCTYPE svg PUBLIC "-//W3C//DTD SVG 1.1//EN"
  "http://www.w3.org/Graphics/SVG/1.1/DTD/svg11.dtd">
<svg xmlns:xlink="http://www.w3.org/1999/xlink" width="590.063931pt" height="246.5975pt" viewBox="0 0 590.063931 246.5975" xmlns="http://www.w3.org/2000/svg" version="1.1">
 <metadata>
  <rdf:RDF xmlns:dc="http://purl.org/dc/elements/1.1/" xmlns:cc="http://creativecommons.org/ns#" xmlns:rdf="http://www.w3.org/1999/02/22-rdf-syntax-ns#">
   <cc:Work>
    <dc:type rdf:resource="http://purl.org/dc/dcmitype/StillImage"/>
    <dc:date>2026-03-25T09:09:40.262036</dc:date>
    <dc:format>image/svg+xml</dc:format>
    <dc:creator>
     <cc:Agent>
      <dc:title>Matplotlib v3.10.3, https://matplotlib.org/</dc:title>
     </cc:Agent>
    </dc:creator>
   </cc:Work>
  </rdf:RDF>
 </metadata>
 <defs>
  <style type="text/css">*{stroke-linejoin: round; stroke-linecap: butt}</style>
 </defs>
 <g id="figure_1">
  <g id="patch_1">
   <path d="M 0 246.5975 
L 590.063931 246.5975 
L 590.063931 -0 
L 0 -0 
z
" style="fill: #ffffff"/>
  </g>
  <g id="axes_1">
   <g id="patch_2">
    <path d="M 77.6325 191.6775 
L 322.60811 191.6775 
L 322.60811 25.3575 
L 77.6325 25.3575 
z
" style="fill: #ffffff"/>
   </g>
   <g id="patch_3">
    <path d="M 59.730436 25.3575 
L 67.268147 25.3575 
L 67.268147 26.745754 
L 59.730436 26.745754 
z
" clip-path="url(#pe41cbfcaaa)" style="fill: #a1140b; opacity: 0.8"/>
   </g>
   <g id="patch_4">
    <path d="M 69.152575 25.3575 
L 76.690286 25.3575 
L 76.690286 27.829169 
L 69.152575 27.829169 
z
" clip-path="url(#pe41cbfcaaa)" style="fill: #a1140b; opacity: 0.8"/>
   </g>
   <g id="patch_5">
    <path d="M 78.574714 25.3575 
L 86.112425 25.3575 
L 86.112425 30.671152 
L 78.574714 30.671152 
z
" clip-path="url(#pe41cbfcaaa)" style="fill: #a1140b; opacity: 0.8"/>
   </g>
   <g id="patch_6">
    <path d="M 87.996853 25.3575 
L 95.534564 25.3575 
L 95.534564 34.709778 
L 87.996853 34.709778 
z
" clip-path="url(#pe41cbfcaaa)" style="fill: #a1140b; opacity: 0.8"/>
   </g>
   <g id="patch_7">
    <path d="M 97.418992 25.3575 
L 104.956703 25.3575 
L 104.956703 38.13667 
L 97.418992 38.13667 
z
" clip-path="url(#pe41cbfcaaa)" style="fill: #a1140b; opacity: 0.8"/>
   </g>
   <g id="patch_8">
    <path d="M 106.84113 25.3575 
L 114.378841 25.3575 
L 114.378841 43.74356 
L 106.84113 43.74356 
z
" clip-path="url(#pe41cbfcaaa)" style="fill: #a1140b; opacity: 0.8"/>
   </g>
   <g id="patch_9">
    <path d="M 116.263269 25.3575 
L 123.80098 25.3575 
L 123.80098 49.945801 
L 116.263269 49.945801 
z
" clip-path="url(#pe41cbfcaaa)" style="fill: #a1140b; opacity: 0.8"/>
   </g>
   <g id="patch_10">
    <path d="M 125.685408 25.3575 
L 133.223119 25.3575 
L 133.223119 56.590521 
L 125.685408 56.590521 
z
" clip-path="url(#pe41cbfcaaa)" style="fill: #a1140b; opacity: 0.8"/>
   </g>
   <g id="patch_11">
    <path d="M 135.107547 25.3575 
L 142.645258 25.3575 
L 142.645258 64.243594 
L 135.107547 64.243594 
z
" clip-path="url(#pe41cbfcaaa)" style="fill: #a1140b; opacity: 0.8"/>
   </g>
   <g id="patch_12">
    <path d="M 144.529686 25.3575 
L 152.067397 25.3575 
L 152.067397 72.007648 
L 144.529686 72.007648 
z
" clip-path="url(#pe41cbfcaaa)" style="fill: #a1140b; opacity: 0.8"/>
   </g>
   <g id="patch_13">
    <path d="M 153.951825 25.3575 
L 161.489536 25.3575 
L 161.489536 79.565829 
L 153.951825 79.565829 
z
" clip-path="url(#pe41cbfcaaa)" style="fill: #a1140b; opacity: 0.8"/>
   </g>
   <g id="patch_14">
    <path d="M 163.373963 25.3575 
L 170.911674 25.3575 
L 170.911674 86.937022 
L 163.373963 86.937022 
z
" clip-path="url(#pe41cbfcaaa)" style="fill: #a1140b; opacity: 0.8"/>
   </g>
   <g id="patch_15">
    <path d="M 172.796102 25.3575 
L 180.333813 25.3575 
L 180.333813 94.965083 
L 172.796102 94.965083 
z
" clip-path="url(#pe41cbfcaaa)" style="fill: #a1140b; opacity: 0.8"/>
   </g>
   <g id="patch_16">
    <path d="M 182.218241 25.3575 
L 189.755952 25.3575 
L 189.755952 101.730227 
L 182.218241 101.730227 
z
" clip-path="url(#pe41cbfcaaa)" style="fill: #a1140b; opacity: 0.8"/>
   </g>
   <g id="patch_17">
    <path d="M 191.64038 25.3575 
L 199.178091 25.3575 
L 199.178091 108.020211 
L 191.64038 108.020211 
z
" clip-path="url(#pe41cbfcaaa)" style="fill: #a1140b; opacity: 0.8"/>
   </g>
   <g id="patch_18">
    <path d="M 201.062519 25.3575 
L 208.60023 25.3575 
L 208.60023 112.897279 
L 201.062519 112.897279 
z
" clip-path="url(#pe41cbfcaaa)" style="fill: #a1140b; opacity: 0.8"/>
   </g>
   <g id="patch_19">
    <path d="M 210.484658 25.3575 
L 218.022369 25.3575 
L 218.022369 117.745609 
L 210.484658 117.745609 
z
" clip-path="url(#pe41cbfcaaa)" style="fill: #a1140b; opacity: 0.8"/>
   </g>
   <g id="patch_20">
    <path d="M 219.906796 25.3575 
L 227.444508 25.3575 
L 227.444508 123.219437 
L 219.906796 123.219437 
z
" clip-path="url(#pe41cbfcaaa)" style="fill: #a1140b; opacity: 0.8"/>
   </g>
   <g id="patch_21">
    <path d="M 229.328935 25.3575 
L 236.866646 25.3575 
L 236.866646 128.967671 
L 229.328935 128.967671 
z
" clip-path="url(#pe41cbfcaaa)" style="fill: #a1140b; opacity: 0.8"/>
   </g>
   <g id="patch_22">
    <path d="M 238.751074 25.3575 
L 246.288785 25.3575 
L 246.288785 132.071823 
L 238.751074 132.071823 
z
" clip-path="url(#pe41cbfcaaa)" style="fill: #a1140b; opacity: 0.8"/>
   </g>
   <g id="patch_23">
    <path d="M 248.173213 25.3575 
L 255.710924 25.3575 
L 255.710924 137.682938 
L 248.173213 137.682938 
z
" clip-path="url(#pe41cbfcaaa)" style="fill: #a1140b; opacity: 0.8"/>
   </g>
   <g id="patch_24">
    <path d="M 257.595352 25.3575 
L 265.133063 25.3575 
L 265.133063 145.287992 
L 257.595352 145.287992 
z
" clip-path="url(#pe41cbfcaaa)" style="fill: #a1140b; opacity: 0.8"/>
   </g>
   <g id="patch_25">
    <path d="M 267.017491 25.3575 
L 274.555202 25.3575 
L 274.555202 150.760407 
L 267.017491 150.760407 
z
" clip-path="url(#pe41cbfcaaa)" style="fill: #a1140b; opacity: 0.8"/>
   </g>
   <g id="patch_26">
    <path d="M 276.439629 25.3575 
L 283.977341 25.3575 
L 283.977341 156.198432 
L 276.439629 156.198432 
z
" clip-path="url(#pe41cbfcaaa)" style="fill: #a1140b; opacity: 0.8"/>
   </g>
   <g id="patch_27">
    <path d="M 285.861768 25.3575 
L 293.399479 25.3575 
L 293.399479 150.404477 
L 285.861768 150.404477 
z
" clip-path="url(#pe41cbfcaaa)" style="fill: #a1140b; opacity: 0.8"/>
   </g>
   <g id="patch_28">
    <path d="M 295.283907 25.3575 
L 302.821618 25.3575 
L 302.821618 150.694367 
L 295.283907 150.694367 
z
" clip-path="url(#pe41cbfcaaa)" style="fill: #a1140b; opacity: 0.8"/>
   </g>
   <g id="patch_29">
    <path d="M 304.706046 25.3575 
L 312.243757 25.3575 
L 312.243757 162.862951 
L 304.706046 162.862951 
z
" clip-path="url(#pe41cbfcaaa)" style="fill: #a1140b; opacity: 0.8"/>
   </g>
   <g id="patch_30">
    <path d="M 314.128185 25.3575 
L 321.665896 25.3575 
L 321.665896 176.918154 
L 314.128185 176.918154 
z
" clip-path="url(#pe41cbfcaaa)" style="fill: #a1140b; opacity: 0.8"/>
   </g>
   <g id="matplotlib.axis_1">
    <g id="xtick_1">
     <g id="line2d_1">
      <defs>
       <path id="m1f8f939310" d="M 0 0 
L 0 3.5 
" style="stroke: #000000; stroke-width: 0.8"/>
      </defs>
      <g>
       <use xlink:href="#m1f8f939310" x="82.343569" y="191.6775" style="stroke: #000000; stroke-width: 0.8"/>
      </g>
     </g>
     <g id="text_1">
      <!-- 2025 -->
      <g transform="translate(86.758569 239.3975) rotate(-90) scale(0.16 -0.16)">
       <defs>
        <path id="DejaVuSans-32" d="M 1228 531 
L 3431 531 
L 3431 0 
L 469 0 
L 469 531 
Q 828 903 1448 1529 
Q 2069 2156 2228 2338 
Q 2531 2678 2651 2914 
Q 2772 3150 2772 3378 
Q 2772 3750 2511 3984 
Q 2250 4219 1831 4219 
Q 1534 4219 1204 4116 
Q 875 4013 500 3803 
L 500 4441 
Q 881 4594 1212 4672 
Q 1544 4750 1819 4750 
Q 2544 4750 2975 4387 
Q 3406 4025 3406 3419 
Q 3406 3131 3298 2873 
Q 3191 2616 2906 2266 
Q 2828 2175 2409 1742 
Q 1991 1309 1228 531 
z
" transform="scale(0.015625)"/>
        <path id="DejaVuSans-30" d="M 2034 4250 
Q 1547 4250 1301 3770 
Q 1056 3291 1056 2328 
Q 1056 1369 1301 889 
Q 1547 409 2034 409 
Q 2525 409 2770 889 
Q 3016 1369 3016 2328 
Q 3016 3291 2770 3770 
Q 2525 4250 2034 4250 
z
M 2034 4750 
Q 2819 4750 3233 4129 
Q 3647 3509 3647 2328 
Q 3647 1150 3233 529 
Q 2819 -91 2034 -91 
Q 1250 -91 836 529 
Q 422 1150 422 2328 
Q 422 3509 836 4129 
Q 1250 4750 2034 4750 
z
" transform="scale(0.015625)"/>
        <path id="DejaVuSans-35" d="M 691 4666 
L 3169 4666 
L 3169 4134 
L 1269 4134 
L 1269 2991 
Q 1406 3038 1543 3061 
Q 1681 3084 1819 3084 
Q 2600 3084 3056 2656 
Q 3513 2228 3513 1497 
Q 3513 744 3044 326 
Q 2575 -91 1722 -91 
Q 1428 -91 1123 -41 
Q 819 9 494 109 
L 494 744 
Q 775 591 1075 516 
Q 1375 441 1709 441 
Q 2250 441 2565 725 
Q 2881 1009 2881 1497 
Q 2881 1984 2565 2268 
Q 2250 2553 1709 2553 
Q 1456 2553 1204 2497 
Q 953 2441 691 2322 
L 691 4666 
z
" transform="scale(0.015625)"/>
       </defs>
       <use xlink:href="#DejaVuSans-32"/>
       <use xlink:href="#DejaVuSans-30" transform="translate(63.623047 0)"/>
       <use xlink:href="#DejaVuSans-32" transform="translate(127.246094 0)"/>
       <use xlink:href="#DejaVuSans-35" transform="translate(190.869141 0)"/>
      </g>
     </g>
    </g>
    <g id="xtick_2">
     <g id="line2d_2">
      <g>
       <use xlink:href="#m1f8f939310" x="129.454264" y="191.6775" style="stroke: #000000; stroke-width: 0.8"/>
      </g>
     </g>
     <g id="text_2">
      <!-- 2030 -->
      <g transform="translate(133.869264 239.3975) rotate(-90) scale(0.16 -0.16)">
       <defs>
        <path id="DejaVuSans-33" d="M 2597 2516 
Q 3050 2419 3304 2112 
Q 3559 1806 3559 1356 
Q 3559 666 3084 287 
Q 2609 -91 1734 -91 
Q 1441 -91 1130 -33 
Q 819 25 488 141 
L 488 750 
Q 750 597 1062 519 
Q 1375 441 1716 441 
Q 2309 441 2620 675 
Q 2931 909 2931 1356 
Q 2931 1769 2642 2001 
Q 2353 2234 1838 2234 
L 1294 2234 
L 1294 2753 
L 1863 2753 
Q 2328 2753 2575 2939 
Q 2822 3125 2822 3475 
Q 2822 3834 2567 4026 
Q 2313 4219 1838 4219 
Q 1578 4219 1281 4162 
Q 984 4106 628 3988 
L 628 4550 
Q 988 4650 1302 4700 
Q 1616 4750 1894 4750 
Q 2613 4750 3031 4423 
Q 3450 4097 3450 3541 
Q 3450 3153 3228 2886 
Q 3006 2619 2597 2516 
z
" transform="scale(0.015625)"/>
       </defs>
       <use xlink:href="#DejaVuSans-32"/>
       <use xlink:href="#DejaVuSans-30" transform="translate(63.623047 0)"/>
       <use xlink:href="#DejaVuSans-33" transform="translate(127.246094 0)"/>
       <use xlink:href="#DejaVuSans-30" transform="translate(190.869141 0)"/>
      </g>
     </g>
    </g>
    <g id="xtick_3">
     <g id="line2d_3">
      <g>
       <use xlink:href="#m1f8f939310" x="176.564958" y="191.6775" style="stroke: #000000; stroke-width: 0.8"/>
      </g>
     </g>
     <g id="text_3">
      <!-- 2035 -->
      <g transform="translate(180.979958 239.3975) rotate(-90) scale(0.16 -0.16)">
       <use xlink:href="#DejaVuSans-32"/>
       <use xlink:href="#DejaVuSans-30" transform="translate(63.623047 0)"/>
       <use xlink:href="#DejaVuSans-33" transform="translate(127.246094 0)"/>
       <use xlink:href="#DejaVuSans-35" transform="translate(190.869141 0)"/>
      </g>
     </g>
    </g>
    <g id="xtick_4">
     <g id="line2d_4">
      <g>
       <use xlink:href="#m1f8f939310" x="223.675652" y="191.6775" style="stroke: #000000; stroke-width: 0.8"/>
      </g>
     </g>
     <g id="text_4">
      <!-- 2040 -->
      <g transform="translate(228.090652 239.3975) rotate(-90) scale(0.16 -0.16)">
       <defs>
        <path id="DejaVuSans-34" d="M 2419 4116 
L 825 1625 
L 2419 1625 
L 2419 4116 
z
M 2253 4666 
L 3047 4666 
L 3047 1625 
L 3713 1625 
L 3713 1100 
L 3047 1100 
L 3047 0 
L 2419 0 
L 2419 1100 
L 313 1100 
L 313 1709 
L 2253 4666 
z
" transform="scale(0.015625)"/>
       </defs>
       <use xlink:href="#DejaVuSans-32"/>
       <use xlink:href="#DejaVuSans-30" transform="translate(63.623047 0)"/>
       <use xlink:href="#DejaVuSans-34" transform="translate(127.246094 0)"/>
       <use xlink:href="#DejaVuSans-30" transform="translate(190.869141 0)"/>
      </g>
     </g>
    </g>
    <g id="xtick_5">
     <g id="line2d_5">
      <g>
       <use xlink:href="#m1f8f939310" x="270.786346" y="191.6775" style="stroke: #000000; stroke-width: 0.8"/>
      </g>
     </g>
     <g id="text_5">
      <!-- 2045 -->
      <g transform="translate(275.201346 239.3975) rotate(-90) scale(0.16 -0.16)">
       <use xlink:href="#DejaVuSans-32"/>
       <use xlink:href="#DejaVuSans-30" transform="translate(63.623047 0)"/>
       <use xlink:href="#DejaVuSans-34" transform="translate(127.246094 0)"/>
       <use xlink:href="#DejaVuSans-35" transform="translate(190.869141 0)"/>
      </g>
     </g>
    </g>
    <g id="xtick_6">
     <g id="line2d_6">
      <g>
       <use xlink:href="#m1f8f939310" x="317.89704" y="191.6775" style="stroke: #000000; stroke-width: 0.8"/>
      </g>
     </g>
     <g id="text_6">
      <!-- 2050 -->
      <g transform="translate(322.31204 239.3975) rotate(-90) scale(0.16 -0.16)">
       <use xlink:href="#DejaVuSans-32"/>
       <use xlink:href="#DejaVuSans-30" transform="translate(63.623047 0)"/>
       <use xlink:href="#DejaVuSans-35" transform="translate(127.246094 0)"/>
       <use xlink:href="#DejaVuSans-30" transform="translate(190.869141 0)"/>
      </g>
     </g>
    </g>
   </g>
   <g id="matplotlib.axis_2">
    <g id="ytick_1">
     <g id="line2d_7">
      <defs>
       <path id="m48d51c50f8" d="M 0 0 
L -3.5 0 
" style="stroke: #000000; stroke-width: 0.8"/>
      </defs>
      <g>
       <use xlink:href="#m48d51c50f8" x="77.6325" y="191.6775" style="stroke: #000000; stroke-width: 0.8"/>
      </g>
     </g>
     <g id="text_7">
      <!-- −800 -->
      <g transform="translate(26.685 197.75625) scale(0.16 -0.16)">
       <defs>
        <path id="DejaVuSans-2212" d="M 678 2272 
L 4684 2272 
L 4684 1741 
L 678 1741 
L 678 2272 
z
" transform="scale(0.015625)"/>
        <path id="DejaVuSans-38" d="M 2034 2216 
Q 1584 2216 1326 1975 
Q 1069 1734 1069 1313 
Q 1069 891 1326 650 
Q 1584 409 2034 409 
Q 2484 409 2743 651 
Q 3003 894 3003 1313 
Q 3003 1734 2745 1975 
Q 2488 2216 2034 2216 
z
M 1403 2484 
Q 997 2584 770 2862 
Q 544 3141 544 3541 
Q 544 4100 942 4425 
Q 1341 4750 2034 4750 
Q 2731 4750 3128 4425 
Q 3525 4100 3525 3541 
Q 3525 3141 3298 2862 
Q 3072 2584 2669 2484 
Q 3125 2378 3379 2068 
Q 3634 1759 3634 1313 
Q 3634 634 3220 271 
Q 2806 -91 2034 -91 
Q 1263 -91 848 271 
Q 434 634 434 1313 
Q 434 1759 690 2068 
Q 947 2378 1403 2484 
z
M 1172 3481 
Q 1172 3119 1398 2916 
Q 1625 2713 2034 2713 
Q 2441 2713 2670 2916 
Q 2900 3119 2900 3481 
Q 2900 3844 2670 4047 
Q 2441 4250 2034 4250 
Q 1625 4250 1398 4047 
Q 1172 3844 1172 3481 
z
" transform="scale(0.015625)"/>
       </defs>
       <use xlink:href="#DejaVuSans-2212"/>
       <use xlink:href="#DejaVuSans-38" transform="translate(83.789062 0)"/>
       <use xlink:href="#DejaVuSans-30" transform="translate(147.412109 0)"/>
       <use xlink:href="#DejaVuSans-30" transform="translate(211.035156 0)"/>
      </g>
     </g>
    </g>
    <g id="ytick_2">
     <g id="line2d_8">
      <g>
       <use xlink:href="#m48d51c50f8" x="77.6325" y="150.0975" style="stroke: #000000; stroke-width: 0.8"/>
      </g>
     </g>
     <g id="text_8">
      <!-- −600 -->
      <g transform="translate(26.685 156.17625) scale(0.16 -0.16)">
       <defs>
        <path id="DejaVuSans-36" d="M 2113 2584 
Q 1688 2584 1439 2293 
Q 1191 2003 1191 1497 
Q 1191 994 1439 701 
Q 1688 409 2113 409 
Q 2538 409 2786 701 
Q 3034 994 3034 1497 
Q 3034 2003 2786 2293 
Q 2538 2584 2113 2584 
z
M 3366 4563 
L 3366 3988 
Q 3128 4100 2886 4159 
Q 2644 4219 2406 4219 
Q 1781 4219 1451 3797 
Q 1122 3375 1075 2522 
Q 1259 2794 1537 2939 
Q 1816 3084 2150 3084 
Q 2853 3084 3261 2657 
Q 3669 2231 3669 1497 
Q 3669 778 3244 343 
Q 2819 -91 2113 -91 
Q 1303 -91 875 529 
Q 447 1150 447 2328 
Q 447 3434 972 4092 
Q 1497 4750 2381 4750 
Q 2619 4750 2861 4703 
Q 3103 4656 3366 4563 
z
" transform="scale(0.015625)"/>
       </defs>
       <use xlink:href="#DejaVuSans-2212"/>
       <use xlink:href="#DejaVuSans-36" transform="translate(83.789062 0)"/>
       <use xlink:href="#DejaVuSans-30" transform="translate(147.412109 0)"/>
       <use xlink:href="#DejaVuSans-30" transform="translate(211.035156 0)"/>
      </g>
     </g>
    </g>
    <g id="ytick_3">
     <g id="line2d_9">
      <g>
       <use xlink:href="#m48d51c50f8" x="77.6325" y="108.5175" style="stroke: #000000; stroke-width: 0.8"/>
      </g>
     </g>
     <g id="text_9">
      <!-- −400 -->
      <g transform="translate(26.685 114.59625) scale(0.16 -0.16)">
       <use xlink:href="#DejaVuSans-2212"/>
       <use xlink:href="#DejaVuSans-34" transform="translate(83.789062 0)"/>
       <use xlink:href="#DejaVuSans-30" transform="translate(147.412109 0)"/>
       <use xlink:href="#DejaVuSans-30" transform="translate(211.035156 0)"/>
      </g>
     </g>
    </g>
    <g id="ytick_4">
     <g id="line2d_10">
      <g>
       <use xlink:href="#m48d51c50f8" x="77.6325" y="66.9375" style="stroke: #000000; stroke-width: 0.8"/>
      </g>
     </g>
     <g id="text_10">
      <!-- −200 -->
      <g transform="translate(26.685 73.01625) scale(0.16 -0.16)">
       <use xlink:href="#DejaVuSans-2212"/>
       <use xlink:href="#DejaVuSans-32" transform="translate(83.789062 0)"/>
       <use xlink:href="#DejaVuSans-30" transform="translate(147.412109 0)"/>
       <use xlink:href="#DejaVuSans-30" transform="translate(211.035156 0)"/>
      </g>
     </g>
    </g>
    <g id="ytick_5">
     <g id="line2d_11">
      <g>
       <use xlink:href="#m48d51c50f8" x="77.6325" y="25.3575" style="stroke: #000000; stroke-width: 0.8"/>
      </g>
     </g>
     <g id="text_11">
      <!-- 0 -->
      <g transform="translate(60.4525 31.43625) scale(0.16 -0.16)">
       <use xlink:href="#DejaVuSans-30"/>
      </g>
     </g>
    </g>
    <g id="text_12">
     <!-- 10^3 CO$_2$e -->
     <g transform="translate(19.3575 153.7175) rotate(-90) scale(0.16 -0.16)">
      <defs>
       <path id="DejaVuSans-31" d="M 794 531 
L 1825 531 
L 1825 4091 
L 703 3866 
L 703 4441 
L 1819 4666 
L 2450 4666 
L 2450 531 
L 3481 531 
L 3481 0 
L 794 0 
L 794 531 
z
" transform="scale(0.015625)"/>
       <path id="DejaVuSans-5e" d="M 2988 4666 
L 4684 2925 
L 4056 2925 
L 2681 4159 
L 1306 2925 
L 678 2925 
L 2375 4666 
L 2988 4666 
z
" transform="scale(0.015625)"/>
       <path id="DejaVuSans-20" transform="scale(0.015625)"/>
       <path id="DejaVuSans-43" d="M 4122 4306 
L 4122 3641 
Q 3803 3938 3442 4084 
Q 3081 4231 2675 4231 
Q 1875 4231 1450 3742 
Q 1025 3253 1025 2328 
Q 1025 1406 1450 917 
Q 1875 428 2675 428 
Q 3081 428 3442 575 
Q 3803 722 4122 1019 
L 4122 359 
Q 3791 134 3420 21 
Q 3050 -91 2638 -91 
Q 1578 -91 968 557 
Q 359 1206 359 2328 
Q 359 3453 968 4101 
Q 1578 4750 2638 4750 
Q 3056 4750 3426 4639 
Q 3797 4528 4122 4306 
z
" transform="scale(0.015625)"/>
       <path id="DejaVuSans-4f" d="M 2522 4238 
Q 1834 4238 1429 3725 
Q 1025 3213 1025 2328 
Q 1025 1447 1429 934 
Q 1834 422 2522 422 
Q 3209 422 3611 934 
Q 4013 1447 4013 2328 
Q 4013 3213 3611 3725 
Q 3209 4238 2522 4238 
z
M 2522 4750 
Q 3503 4750 4090 4092 
Q 4678 3434 4678 2328 
Q 4678 1225 4090 567 
Q 3503 -91 2522 -91 
Q 1538 -91 948 565 
Q 359 1222 359 2328 
Q 359 3434 948 4092 
Q 1538 4750 2522 4750 
z
" transform="scale(0.015625)"/>
       <path id="DejaVuSans-65" d="M 3597 1894 
L 3597 1613 
L 953 1613 
Q 991 1019 1311 708 
Q 1631 397 2203 397 
Q 2534 397 2845 478 
Q 3156 559 3463 722 
L 3463 178 
Q 3153 47 2828 -22 
Q 2503 -91 2169 -91 
Q 1331 -91 842 396 
Q 353 884 353 1716 
Q 353 2575 817 3079 
Q 1281 3584 2069 3584 
Q 2775 3584 3186 3129 
Q 3597 2675 3597 1894 
z
M 3022 2063 
Q 3016 2534 2758 2815 
Q 2500 3097 2075 3097 
Q 1594 3097 1305 2825 
Q 1016 2553 972 2059 
L 3022 2063 
z
" transform="scale(0.015625)"/>
      </defs>
      <use xlink:href="#DejaVuSans-31" transform="translate(0 0.78125)"/>
      <use xlink:href="#DejaVuSans-30" transform="translate(63.623047 0.78125)"/>
      <use xlink:href="#DejaVuSans-5e" transform="translate(127.246094 0.78125)"/>
      <use xlink:href="#DejaVuSans-33" transform="translate(211.035156 0.78125)"/>
      <use xlink:href="#DejaVuSans-20" transform="translate(274.658203 0.78125)"/>
      <use xlink:href="#DejaVuSans-43" transform="translate(306.445312 0.78125)"/>
      <use xlink:href="#DejaVuSans-4f" transform="translate(376.269531 0.78125)"/>
      <use xlink:href="#DejaVuSans-32" transform="translate(455.9375 -15.625) scale(0.7)"/>
      <use xlink:href="#DejaVuSans-65" transform="translate(503.208008 0.78125)"/>
     </g>
    </g>
   </g>
   <g id="patch_31">
    <path d="M 77.6325 191.6775 
L 77.6325 25.3575 
" style="fill: none; stroke: #000000; stroke-width: 0.8; stroke-linejoin: miter; stroke-linecap: square"/>
   </g>
   <g id="patch_32">
    <path d="M 322.60811 191.6775 
L 322.60811 25.3575 
" style="fill: none; stroke: #000000; stroke-width: 0.8; stroke-linejoin: miter; stroke-linecap: square"/>
   </g>
   <g id="patch_33">
    <path d="M 77.6325 191.6775 
L 322.60811 191.6775 
" style="fill: none; stroke: #000000; stroke-width: 0.8; stroke-linejoin: miter; stroke-linecap: square"/>
   </g>
   <g id="patch_34">
    <path d="M 77.6325 25.3575 
L 322.60811 25.3575 
" style="fill: none; stroke: #000000; stroke-width: 0.8; stroke-linejoin: miter; stroke-linecap: square"/>
   </g>
   <g id="text_13">
    <!-- TEND -->
    <g transform="translate(175.861555 19.3575) scale(0.16 -0.16)">
     <defs>
      <path id="DejaVuSans-Bold-54" d="M 31 4666 
L 4331 4666 
L 4331 3756 
L 2784 3756 
L 2784 0 
L 1581 0 
L 1581 3756 
L 31 3756 
L 31 4666 
z
" transform="scale(0.015625)"/>
      <path id="DejaVuSans-Bold-45" d="M 588 4666 
L 3834 4666 
L 3834 3756 
L 1791 3756 
L 1791 2888 
L 3713 2888 
L 3713 1978 
L 1791 1978 
L 1791 909 
L 3903 909 
L 3903 0 
L 588 0 
L 588 4666 
z
" transform="scale(0.015625)"/>
      <path id="DejaVuSans-Bold-4e" d="M 588 4666 
L 1931 4666 
L 3628 1466 
L 3628 4666 
L 4769 4666 
L 4769 0 
L 3425 0 
L 1728 3200 
L 1728 0 
L 588 0 
L 588 4666 
z
" transform="scale(0.015625)"/>
      <path id="DejaVuSans-Bold-44" d="M 1791 3756 
L 1791 909 
L 2222 909 
Q 2959 909 3348 1275 
Q 3738 1641 3738 2338 
Q 3738 3031 3350 3393 
Q 2963 3756 2222 3756 
L 1791 3756 
z
M 588 4666 
L 1856 4666 
Q 2919 4666 3439 4514 
Q 3959 4363 4331 4000 
Q 4659 3684 4818 3271 
Q 4978 2859 4978 2338 
Q 4978 1809 4818 1395 
Q 4659 981 4331 666 
Q 3956 303 3431 151 
Q 2906 0 1856 0 
L 588 0 
L 588 4666 
z
" transform="scale(0.015625)"/>
     </defs>
     <use xlink:href="#DejaVuSans-Bold-54"/>
     <use xlink:href="#DejaVuSans-Bold-45" transform="translate(68.212891 0)"/>
     <use xlink:href="#DejaVuSans-Bold-4e" transform="translate(136.523438 0)"/>
     <use xlink:href="#DejaVuSans-Bold-44" transform="translate(220.214844 0)"/>
    </g>
   </g>
  </g>
  <g id="axes_2">
   <g id="patch_35">
    <path d="M 334.85689 191.6775 
L 579.8325 191.6775 
L 579.8325 25.3575 
L 334.85689 25.3575 
z
" style="fill: #ffffff"/>
   </g>
   <g id="patch_36">
    <path d="M 316.954826 25.3575 
L 324.492538 25.3575 
L 324.492538 26.919697 
L 316.954826 26.919697 
z
" clip-path="url(#pb914204319)" style="fill: #a1140b; opacity: 0.8"/>
   </g>
   <g id="patch_37">
    <path d="M 326.376965 25.3575 
L 333.914676 25.3575 
L 333.914676 28.13886 
L 326.376965 28.13886 
z
" clip-path="url(#pb914204319)" style="fill: #a1140b; opacity: 0.8"/>
   </g>
   <g id="patch_38">
    <path d="M 335.799104 25.3575 
L 343.336815 25.3575 
L 343.336815 31.336934 
L 335.799104 31.336934 
z
" clip-path="url(#pb914204319)" style="fill: #a1140b; opacity: 0.8"/>
   </g>
   <g id="patch_39">
    <path d="M 345.221243 25.3575 
L 352.758954 25.3575 
L 352.758954 34.538697 
L 345.221243 34.538697 
z
" clip-path="url(#pb914204319)" style="fill: #a1140b; opacity: 0.8"/>
   </g>
   <g id="patch_40">
    <path d="M 354.643382 25.3575 
L 362.181093 25.3575 
L 362.181093 38.265735 
L 354.643382 38.265735 
z
" clip-path="url(#pb914204319)" style="fill: #a1140b; opacity: 0.8"/>
   </g>
   <g id="patch_41">
    <path d="M 364.065521 25.3575 
L 371.603232 25.3575 
L 371.603232 39.186396 
L 364.065521 39.186396 
z
" clip-path="url(#pb914204319)" style="fill: #a1140b; opacity: 0.8"/>
   </g>
   <g id="patch_42">
    <path d="M 373.487659 25.3575 
L 381.025371 25.3575 
L 381.025371 31.302593 
L 373.487659 31.302593 
z
" clip-path="url(#pb914204319)" style="fill: #a1140b; opacity: 0.8"/>
   </g>
   <g id="patch_43">
    <path d="M 382.909798 25.3575 
L 390.447509 25.3575 
L 390.447509 26.85462 
L 382.909798 26.85462 
z
" clip-path="url(#pb914204319)" style="fill: #a1140b; opacity: 0.8"/>
   </g>
   <g id="patch_44">
    <path d="M 392.331937 25.3575 
L 399.869648 25.3575 
L 399.869648 26.77223 
L 392.331937 26.77223 
z
" clip-path="url(#pb914204319)" style="fill: #a1140b; opacity: 0.8"/>
   </g>
   <g id="patch_45">
    <path d="M 401.754076 25.3575 
L 409.291787 25.3575 
L 409.291787 27.480038 
L 401.754076 27.480038 
z
" clip-path="url(#pb914204319)" style="fill: #a1140b; opacity: 0.8"/>
   </g>
   <g id="patch_46">
    <path d="M 411.176215 25.3575 
L 418.713926 25.3575 
L 418.713926 27.356781 
L 411.176215 27.356781 
z
" clip-path="url(#pb914204319)" style="fill: #a1140b; opacity: 0.8"/>
   </g>
   <g id="patch_47">
    <path d="M 420.598354 25.3575 
L 428.136065 25.3575 
L 428.136065 27.600113 
L 420.598354 27.600113 
z
" clip-path="url(#pb914204319)" style="fill: #a1140b; opacity: 0.8"/>
   </g>
   <g id="patch_48">
    <path d="M 430.020492 25.3575 
L 437.558204 25.3575 
L 437.558204 27.829749 
L 430.020492 27.829749 
z
" clip-path="url(#pb914204319)" style="fill: #a1140b; opacity: 0.8"/>
   </g>
   <g id="patch_49">
    <path d="M 439.442631 25.3575 
L 446.980342 25.3575 
L 446.980342 28.267837 
L 439.442631 28.267837 
z
" clip-path="url(#pb914204319)" style="fill: #a1140b; opacity: 0.8"/>
   </g>
   <g id="patch_50">
    <path d="M 448.86477 25.3575 
L 456.402481 25.3575 
L 456.402481 29.849012 
L 448.86477 29.849012 
z
" clip-path="url(#pb914204319)" style="fill: #a1140b; opacity: 0.8"/>
   </g>
   <g id="patch_51">
    <path d="M 458.286909 25.3575 
L 465.82462 25.3575 
L 465.82462 30.712678 
L 458.286909 30.712678 
z
" clip-path="url(#pb914204319)" style="fill: #a1140b; opacity: 0.8"/>
   </g>
   <g id="patch_52">
    <path d="M 467.709048 25.3575 
L 475.246759 25.3575 
L 475.246759 32.533916 
L 467.709048 32.533916 
z
" clip-path="url(#pb914204319)" style="fill: #a1140b; opacity: 0.8"/>
   </g>
   <g id="patch_53">
    <path d="M 477.131187 25.3575 
L 484.668898 25.3575 
L 484.668898 34.292171 
L 477.131187 34.292171 
z
" clip-path="url(#pb914204319)" style="fill: #a1140b; opacity: 0.8"/>
   </g>
   <g id="patch_54">
    <path d="M 486.553326 25.3575 
L 494.091037 25.3575 
L 494.091037 34.720497 
L 486.553326 34.720497 
z
" clip-path="url(#pb914204319)" style="fill: #a1140b; opacity: 0.8"/>
   </g>
   <g id="patch_55">
    <path d="M 495.975464 25.3575 
L 503.513175 25.3575 
L 503.513175 37.063941 
L 495.975464 37.063941 
z
" clip-path="url(#pb914204319)" style="fill: #a1140b; opacity: 0.8"/>
   </g>
   <g id="patch_56">
    <path d="M 505.397603 25.3575 
L 512.935314 25.3575 
L 512.935314 39.161962 
L 505.397603 39.161962 
z
" clip-path="url(#pb914204319)" style="fill: #a1140b; opacity: 0.8"/>
   </g>
   <g id="patch_57">
    <path d="M 514.819742 25.3575 
L 522.357453 25.3575 
L 522.357453 40.179514 
L 514.819742 40.179514 
z
" clip-path="url(#pb914204319)" style="fill: #a1140b; opacity: 0.8"/>
   </g>
   <g id="patch_58">
    <path d="M 524.241881 25.3575 
L 531.779592 25.3575 
L 531.779592 41.05191 
L 524.241881 41.05191 
z
" clip-path="url(#pb914204319)" style="fill: #a1140b; opacity: 0.8"/>
   </g>
   <g id="patch_59">
    <path d="M 533.66402 25.3575 
L 541.201731 25.3575 
L 541.201731 42.605918 
L 533.66402 42.605918 
z
" clip-path="url(#pb914204319)" style="fill: #a1140b; opacity: 0.8"/>
   </g>
   <g id="patch_60">
    <path d="M 543.086159 25.3575 
L 550.62387 25.3575 
L 550.62387 45.913475 
L 543.086159 45.913475 
z
" clip-path="url(#pb914204319)" style="fill: #a1140b; opacity: 0.8"/>
   </g>
   <g id="patch_61">
    <path d="M 552.508297 25.3575 
L 560.046008 25.3575 
L 560.046008 49.783303 
L 552.508297 49.783303 
z
" clip-path="url(#pb914204319)" style="fill: #a1140b; opacity: 0.8"/>
   </g>
   <g id="patch_62">
    <path d="M 561.930436 25.3575 
L 569.468147 25.3575 
L 569.468147 54.996706 
L 561.930436 54.996706 
z
" clip-path="url(#pb914204319)" style="fill: #a1140b; opacity: 0.8"/>
   </g>
   <g id="patch_63">
    <path d="M 571.352575 25.3575 
L 578.890286 25.3575 
L 578.890286 56.621276 
L 571.352575 56.621276 
z
" clip-path="url(#pb914204319)" style="fill: #a1140b; opacity: 0.8"/>
   </g>
   <g id="matplotlib.axis_3">
    <g id="xtick_7">
     <g id="line2d_12">
      <g>
       <use xlink:href="#m1f8f939310" x="339.56796" y="191.6775" style="stroke: #000000; stroke-width: 0.8"/>
      </g>
     </g>
     <g id="text_14">
      <!-- 2025 -->
      <g transform="translate(343.98296 239.3975) rotate(-90) scale(0.16 -0.16)">
       <use xlink:href="#DejaVuSans-32"/>
       <use xlink:href="#DejaVuSans-30" transform="translate(63.623047 0)"/>
       <use xlink:href="#DejaVuSans-32" transform="translate(127.246094 0)"/>
       <use xlink:href="#DejaVuSans-35" transform="translate(190.869141 0)"/>
      </g>
     </g>
    </g>
    <g id="xtick_8">
     <g id="line2d_13">
      <g>
       <use xlink:href="#m1f8f939310" x="386.678654" y="191.6775" style="stroke: #000000; stroke-width: 0.8"/>
      </g>
     </g>
     <g id="text_15">
      <!-- 2030 -->
      <g transform="translate(391.093654 239.3975) rotate(-90) scale(0.16 -0.16)">
       <use xlink:href="#DejaVuSans-32"/>
       <use xlink:href="#DejaVuSans-30" transform="translate(63.623047 0)"/>
       <use xlink:href="#DejaVuSans-33" transform="translate(127.246094 0)"/>
       <use xlink:href="#DejaVuSans-30" transform="translate(190.869141 0)"/>
      </g>
     </g>
    </g>
    <g id="xtick_9">
     <g id="line2d_14">
      <g>
       <use xlink:href="#m1f8f939310" x="433.789348" y="191.6775" style="stroke: #000000; stroke-width: 0.8"/>
      </g>
     </g>
     <g id="text_16">
      <!-- 2035 -->
      <g transform="translate(438.204348 239.3975) rotate(-90) scale(0.16 -0.16)">
       <use xlink:href="#DejaVuSans-32"/>
       <use xlink:href="#DejaVuSans-30" transform="translate(63.623047 0)"/>
       <use xlink:href="#DejaVuSans-33" transform="translate(127.246094 0)"/>
       <use xlink:href="#DejaVuSans-35" transform="translate(190.869141 0)"/>
      </g>
     </g>
    </g>
    <g id="xtick_10">
     <g id="line2d_15">
      <g>
       <use xlink:href="#m1f8f939310" x="480.900042" y="191.6775" style="stroke: #000000; stroke-width: 0.8"/>
      </g>
     </g>
     <g id="text_17">
      <!-- 2040 -->
      <g transform="translate(485.315042 239.3975) rotate(-90) scale(0.16 -0.16)">
       <use xlink:href="#DejaVuSans-32"/>
       <use xlink:href="#DejaVuSans-30" transform="translate(63.623047 0)"/>
       <use xlink:href="#DejaVuSans-34" transform="translate(127.246094 0)"/>
       <use xlink:href="#DejaVuSans-30" transform="translate(190.869141 0)"/>
      </g>
     </g>
    </g>
    <g id="xtick_11">
     <g id="line2d_16">
      <g>
       <use xlink:href="#m1f8f939310" x="528.010736" y="191.6775" style="stroke: #000000; stroke-width: 0.8"/>
      </g>
     </g>
     <g id="text_18">
      <!-- 2045 -->
      <g transform="translate(532.425736 239.3975) rotate(-90) scale(0.16 -0.16)">
       <use xlink:href="#DejaVuSans-32"/>
       <use xlink:href="#DejaVuSans-30" transform="translate(63.623047 0)"/>
       <use xlink:href="#DejaVuSans-34" transform="translate(127.246094 0)"/>
       <use xlink:href="#DejaVuSans-35" transform="translate(190.869141 0)"/>
      </g>
     </g>
    </g>
    <g id="xtick_12">
     <g id="line2d_17">
      <g>
       <use xlink:href="#m1f8f939310" x="575.121431" y="191.6775" style="stroke: #000000; stroke-width: 0.8"/>
      </g>
     </g>
     <g id="text_19">
      <!-- 2050 -->
      <g transform="translate(579.536431 239.3975) rotate(-90) scale(0.16 -0.16)">
       <use xlink:href="#DejaVuSans-32"/>
       <use xlink:href="#DejaVuSans-30" transform="translate(63.623047 0)"/>
       <use xlink:href="#DejaVuSans-35" transform="translate(127.246094 0)"/>
       <use xlink:href="#DejaVuSans-30" transform="translate(190.869141 0)"/>
      </g>
     </g>
    </g>
   </g>
   <g id="matplotlib.axis_4">
    <g id="ytick_6">
     <g id="line2d_18">
      <g>
       <use xlink:href="#m48d51c50f8" x="334.85689" y="191.6775" style="stroke: #000000; stroke-width: 0.8"/>
      </g>
     </g>
    </g>
    <g id="ytick_7">
     <g id="line2d_19">
      <g>
       <use xlink:href="#m48d51c50f8" x="334.85689" y="150.0975" style="stroke: #000000; stroke-width: 0.8"/>
      </g>
     </g>
    </g>
    <g id="ytick_8">
     <g id="line2d_20">
      <g>
       <use xlink:href="#m48d51c50f8" x="334.85689" y="108.5175" style="stroke: #000000; stroke-width: 0.8"/>
      </g>
     </g>
    </g>
    <g id="ytick_9">
     <g id="line2d_21">
      <g>
       <use xlink:href="#m48d51c50f8" x="334.85689" y="66.9375" style="stroke: #000000; stroke-width: 0.8"/>
      </g>
     </g>
    </g>
    <g id="ytick_10">
     <g id="line2d_22">
      <g>
       <use xlink:href="#m48d51c50f8" x="334.85689" y="25.3575" style="stroke: #000000; stroke-width: 0.8"/>
      </g>
     </g>
    </g>
   </g>
   <g id="patch_64">
    <path d="M 334.85689 191.6775 
L 334.85689 25.3575 
" style="fill: none; stroke: #000000; stroke-width: 0.8; stroke-linejoin: miter; stroke-linecap: square"/>
   </g>
   <g id="patch_65">
    <path d="M 579.8325 191.6775 
L 579.8325 25.3575 
" style="fill: none; stroke: #000000; stroke-width: 0.8; stroke-linejoin: miter; stroke-linecap: square"/>
   </g>
   <g id="patch_66">
    <path d="M 334.85689 191.6775 
L 579.8325 191.6775 
" style="fill: none; stroke: #000000; stroke-width: 0.8; stroke-linejoin: miter; stroke-linecap: square"/>
   </g>
   <g id="patch_67">
    <path d="M 334.85689 25.3575 
L 579.8325 25.3575 
" style="fill: none; stroke: #000000; stroke-width: 0.8; stroke-linejoin: miter; stroke-linecap: square"/>
   </g>
   <g id="text_20">
    <!-- ALT -->
    <g transform="translate(441.918445 19.3575) scale(0.16 -0.16)">
     <defs>
      <path id="DejaVuSans-Bold-41" d="M 3419 850 
L 1538 850 
L 1241 0 
L 31 0 
L 1759 4666 
L 3194 4666 
L 4922 0 
L 3713 0 
L 3419 850 
z
M 1838 1716 
L 3116 1716 
L 2478 3572 
L 1838 1716 
z
" transform="scale(0.015625)"/>
      <path id="DejaVuSans-Bold-4c" d="M 588 4666 
L 1791 4666 
L 1791 909 
L 3903 909 
L 3903 0 
L 588 0 
L 588 4666 
z
" transform="scale(0.015625)"/>
     </defs>
     <use xlink:href="#DejaVuSans-Bold-41"/>
     <use xlink:href="#DejaVuSans-Bold-4c" transform="translate(77.392578 0)"/>
     <use xlink:href="#DejaVuSans-Bold-54" transform="translate(124.613281 0)"/>
    </g>
   </g>
  </g>
 </g>
 <defs>
  <clipPath id="pe41cbfcaaa">
   <rect x="77.6325" y="25.3575" width="244.97561" height="166.32"/>
  </clipPath>
  <clipPath id="pb914204319">
   <rect x="334.85689" y="25.3575" width="244.97561" height="166.32"/>
  </clipPath>
 </defs>
</svg>
