<?xml version="1.0" encoding="utf-8" standalone="no"?>
<!DOCTYPE svg PUBLIC "-//W3C//DTD SVG 1.1//EN"
  "http://www.w3.org/Graphics/SVG/1.1/DTD/svg11.dtd">
<svg xmlns:xlink="http://www.w3.org/1999/xlink" width="451.540312pt" height="209.266312pt" viewBox="0 0 451.540312 209.266312" xmlns="http://www.w3.org/2000/svg" version="1.1">
 <metadata>
  <rdf:RDF xmlns:dc="http://purl.org/dc/elements/1.1/" xmlns:cc="http://creativecommons.org/ns#" xmlns:rdf="http://www.w3.org/1999/02/22-rdf-syntax-ns#">
   <cc:Work>
    <dc:type rdf:resource="http://purl.org/dc/dcmitype/StillImage"/>
    <dc:date>2026-01-06T16:36:52.998168</dc:date>
    <dc:format>image/svg+xml</dc:format>
    <dc:creator>
     <cc:Agent>
      <dc:title>Matplotlib v3.10.3, https://matplotlib.org/</dc:title>
     </cc:Agent>
    </dc:creator>
   </cc:Work>
  </rdf:RDF>
 </metadata>
 <defs>
  <style type="text/css">*{stroke-linejoin: round; stroke-linecap: butt}</style>
 </defs>
 <g id="figure_1">
  <g id="patch_1">
   <path d="M 0 209.266312 
L 451.540312 209.266312 
L 451.540312 0 
L 0 0 
z
" style="fill: #ffffff"/>
  </g>
  <g id="axes_1">
   <g id="patch_2">
    <path d="M 48.90125 150.39475 
L 234.90125 150.39475 
L 234.90125 39.51475 
L 48.90125 39.51475 
z
" style="fill: #ffffff"/>
   </g>
   <g id="matplotlib.axis_1">
    <g id="xtick_1">
     <g id="line2d_1">
      <defs>
       <path id="m52c96336c9" d="M 0 0 
L 0 3.5 
" style="stroke: #000000; stroke-width: 0.8"/>
      </defs>
      <g>
       <use xlink:href="#m52c96336c9" x="48.90125" y="150.39475" style="stroke: #000000; stroke-width: 0.8"/>
      </g>
     </g>
     <g id="text_1">
      <!-- 1-2 -->
      <g transform="translate(51.660625 173.727562) rotate(-90) scale(0.1 -0.1)">
       <defs>
        <path id="DejaVuSans-31" d="M 794 531 
L 1825 531 
L 1825 4091 
L 703 3866 
L 703 4441 
L 1819 4666 
L 2450 4666 
L 2450 531 
L 3481 531 
L 3481 0 
L 794 0 
L 794 531 
z
" transform="scale(0.015625)"/>
        <path id="DejaVuSans-2d" d="M 313 2009 
L 1997 2009 
L 1997 1497 
L 313 1497 
L 313 2009 
z
" transform="scale(0.015625)"/>
        <path id="DejaVuSans-32" d="M 1228 531 
L 3431 531 
L 3431 0 
L 469 0 
L 469 531 
Q 828 903 1448 1529 
Q 2069 2156 2228 2338 
Q 2531 2678 2651 2914 
Q 2772 3150 2772 3378 
Q 2772 3750 2511 3984 
Q 2250 4219 1831 4219 
Q 1534 4219 1204 4116 
Q 875 4013 500 3803 
L 500 4441 
Q 881 4594 1212 4672 
Q 1544 4750 1819 4750 
Q 2544 4750 2975 4387 
Q 3406 4025 3406 3419 
Q 3406 3131 3298 2873 
Q 3191 2616 2906 2266 
Q 2828 2175 2409 1742 
Q 1991 1309 1228 531 
z
" transform="scale(0.015625)"/>
       </defs>
       <use xlink:href="#DejaVuSans-31"/>
       <use xlink:href="#DejaVuSans-2d" transform="translate(63.623047 0)"/>
       <use xlink:href="#DejaVuSans-32" transform="translate(99.707031 0)"/>
      </g>
     </g>
    </g>
    <g id="xtick_2">
     <g id="line2d_2">
      <g>
       <use xlink:href="#m52c96336c9" x="65.810341" y="150.39475" style="stroke: #000000; stroke-width: 0.8"/>
      </g>
     </g>
     <g id="text_2">
      <!-- 3-4 -->
      <g transform="translate(68.569716 173.727562) rotate(-90) scale(0.1 -0.1)">
       <defs>
        <path id="DejaVuSans-33" d="M 2597 2516 
Q 3050 2419 3304 2112 
Q 3559 1806 3559 1356 
Q 3559 666 3084 287 
Q 2609 -91 1734 -91 
Q 1441 -91 1130 -33 
Q 819 25 488 141 
L 488 750 
Q 750 597 1062 519 
Q 1375 441 1716 441 
Q 2309 441 2620 675 
Q 2931 909 2931 1356 
Q 2931 1769 2642 2001 
Q 2353 2234 1838 2234 
L 1294 2234 
L 1294 2753 
L 1863 2753 
Q 2328 2753 2575 2939 
Q 2822 3125 2822 3475 
Q 2822 3834 2567 4026 
Q 2313 4219 1838 4219 
Q 1578 4219 1281 4162 
Q 984 4106 628 3988 
L 628 4550 
Q 988 4650 1302 4700 
Q 1616 4750 1894 4750 
Q 2613 4750 3031 4423 
Q 3450 4097 3450 3541 
Q 3450 3153 3228 2886 
Q 3006 2619 2597 2516 
z
" transform="scale(0.015625)"/>
        <path id="DejaVuSans-34" d="M 2419 4116 
L 825 1625 
L 2419 1625 
L 2419 4116 
z
M 2253 4666 
L 3047 4666 
L 3047 1625 
L 3713 1625 
L 3713 1100 
L 3047 1100 
L 3047 0 
L 2419 0 
L 2419 1100 
L 313 1100 
L 313 1709 
L 2253 4666 
z
" transform="scale(0.015625)"/>
       </defs>
       <use xlink:href="#DejaVuSans-33"/>
       <use xlink:href="#DejaVuSans-2d" transform="translate(63.623047 0)"/>
       <use xlink:href="#DejaVuSans-34" transform="translate(99.707031 0)"/>
      </g>
     </g>
    </g>
    <g id="xtick_3">
     <g id="line2d_3">
      <g>
       <use xlink:href="#m52c96336c9" x="82.719432" y="150.39475" style="stroke: #000000; stroke-width: 0.8"/>
      </g>
     </g>
     <g id="text_3">
      <!-- 5-6 -->
      <g transform="translate(85.478807 173.727562) rotate(-90) scale(0.1 -0.1)">
       <defs>
        <path id="DejaVuSans-35" d="M 691 4666 
L 3169 4666 
L 3169 4134 
L 1269 4134 
L 1269 2991 
Q 1406 3038 1543 3061 
Q 1681 3084 1819 3084 
Q 2600 3084 3056 2656 
Q 3513 2228 3513 1497 
Q 3513 744 3044 326 
Q 2575 -91 1722 -91 
Q 1428 -91 1123 -41 
Q 819 9 494 109 
L 494 744 
Q 775 591 1075 516 
Q 1375 441 1709 441 
Q 2250 441 2565 725 
Q 2881 1009 2881 1497 
Q 2881 1984 2565 2268 
Q 2250 2553 1709 2553 
Q 1456 2553 1204 2497 
Q 953 2441 691 2322 
L 691 4666 
z
" transform="scale(0.015625)"/>
        <path id="DejaVuSans-36" d="M 2113 2584 
Q 1688 2584 1439 2293 
Q 1191 2003 1191 1497 
Q 1191 994 1439 701 
Q 1688 409 2113 409 
Q 2538 409 2786 701 
Q 3034 994 3034 1497 
Q 3034 2003 2786 2293 
Q 2538 2584 2113 2584 
z
M 3366 4563 
L 3366 3988 
Q 3128 4100 2886 4159 
Q 2644 4219 2406 4219 
Q 1781 4219 1451 3797 
Q 1122 3375 1075 2522 
Q 1259 2794 1537 2939 
Q 1816 3084 2150 3084 
Q 2853 3084 3261 2657 
Q 3669 2231 3669 1497 
Q 3669 778 3244 343 
Q 2819 -91 2113 -91 
Q 1303 -91 875 529 
Q 447 1150 447 2328 
Q 447 3434 972 4092 
Q 1497 4750 2381 4750 
Q 2619 4750 2861 4703 
Q 3103 4656 3366 4563 
z
" transform="scale(0.015625)"/>
       </defs>
       <use xlink:href="#DejaVuSans-35"/>
       <use xlink:href="#DejaVuSans-2d" transform="translate(63.623047 0)"/>
       <use xlink:href="#DejaVuSans-36" transform="translate(99.707031 0)"/>
      </g>
     </g>
    </g>
    <g id="xtick_4">
     <g id="line2d_4">
      <g>
       <use xlink:href="#m52c96336c9" x="99.628523" y="150.39475" style="stroke: #000000; stroke-width: 0.8"/>
      </g>
     </g>
     <g id="text_4">
      <!-- 7-8 -->
      <g transform="translate(102.387898 173.727562) rotate(-90) scale(0.1 -0.1)">
       <defs>
        <path id="DejaVuSans-37" d="M 525 4666 
L 3525 4666 
L 3525 4397 
L 1831 0 
L 1172 0 
L 2766 4134 
L 525 4134 
L 525 4666 
z
" transform="scale(0.015625)"/>
        <path id="DejaVuSans-38" d="M 2034 2216 
Q 1584 2216 1326 1975 
Q 1069 1734 1069 1313 
Q 1069 891 1326 650 
Q 1584 409 2034 409 
Q 2484 409 2743 651 
Q 3003 894 3003 1313 
Q 3003 1734 2745 1975 
Q 2488 2216 2034 2216 
z
M 1403 2484 
Q 997 2584 770 2862 
Q 544 3141 544 3541 
Q 544 4100 942 4425 
Q 1341 4750 2034 4750 
Q 2731 4750 3128 4425 
Q 3525 4100 3525 3541 
Q 3525 3141 3298 2862 
Q 3072 2584 2669 2484 
Q 3125 2378 3379 2068 
Q 3634 1759 3634 1313 
Q 3634 634 3220 271 
Q 2806 -91 2034 -91 
Q 1263 -91 848 271 
Q 434 634 434 1313 
Q 434 1759 690 2068 
Q 947 2378 1403 2484 
z
M 1172 3481 
Q 1172 3119 1398 2916 
Q 1625 2713 2034 2713 
Q 2441 2713 2670 2916 
Q 2900 3119 2900 3481 
Q 2900 3844 2670 4047 
Q 2441 4250 2034 4250 
Q 1625 4250 1398 4047 
Q 1172 3844 1172 3481 
z
" transform="scale(0.015625)"/>
       </defs>
       <use xlink:href="#DejaVuSans-37"/>
       <use xlink:href="#DejaVuSans-2d" transform="translate(63.623047 0)"/>
       <use xlink:href="#DejaVuSans-38" transform="translate(99.707031 0)"/>
      </g>
     </g>
    </g>
    <g id="xtick_5">
     <g id="line2d_5">
      <g>
       <use xlink:href="#m52c96336c9" x="116.537614" y="150.39475" style="stroke: #000000; stroke-width: 0.8"/>
      </g>
     </g>
     <g id="text_5">
      <!-- 9-10 -->
      <g transform="translate(119.296989 180.090062) rotate(-90) scale(0.1 -0.1)">
       <defs>
        <path id="DejaVuSans-39" d="M 703 97 
L 703 672 
Q 941 559 1184 500 
Q 1428 441 1663 441 
Q 2288 441 2617 861 
Q 2947 1281 2994 2138 
Q 2813 1869 2534 1725 
Q 2256 1581 1919 1581 
Q 1219 1581 811 2004 
Q 403 2428 403 3163 
Q 403 3881 828 4315 
Q 1253 4750 1959 4750 
Q 2769 4750 3195 4129 
Q 3622 3509 3622 2328 
Q 3622 1225 3098 567 
Q 2575 -91 1691 -91 
Q 1453 -91 1209 -44 
Q 966 3 703 97 
z
M 1959 2075 
Q 2384 2075 2632 2365 
Q 2881 2656 2881 3163 
Q 2881 3666 2632 3958 
Q 2384 4250 1959 4250 
Q 1534 4250 1286 3958 
Q 1038 3666 1038 3163 
Q 1038 2656 1286 2365 
Q 1534 2075 1959 2075 
z
" transform="scale(0.015625)"/>
        <path id="DejaVuSans-30" d="M 2034 4250 
Q 1547 4250 1301 3770 
Q 1056 3291 1056 2328 
Q 1056 1369 1301 889 
Q 1547 409 2034 409 
Q 2525 409 2770 889 
Q 3016 1369 3016 2328 
Q 3016 3291 2770 3770 
Q 2525 4250 2034 4250 
z
M 2034 4750 
Q 2819 4750 3233 4129 
Q 3647 3509 3647 2328 
Q 3647 1150 3233 529 
Q 2819 -91 2034 -91 
Q 1250 -91 836 529 
Q 422 1150 422 2328 
Q 422 3509 836 4129 
Q 1250 4750 2034 4750 
z
" transform="scale(0.015625)"/>
       </defs>
       <use xlink:href="#DejaVuSans-39"/>
       <use xlink:href="#DejaVuSans-2d" transform="translate(63.623047 0)"/>
       <use xlink:href="#DejaVuSans-31" transform="translate(99.707031 0)"/>
       <use xlink:href="#DejaVuSans-30" transform="translate(163.330078 0)"/>
      </g>
     </g>
    </g>
    <g id="xtick_6">
     <g id="line2d_6">
      <g>
       <use xlink:href="#m52c96336c9" x="133.446705" y="150.39475" style="stroke: #000000; stroke-width: 0.8"/>
      </g>
     </g>
     <g id="text_6">
      <!-- 11-12 -->
      <g transform="translate(136.20608 186.452562) rotate(-90) scale(0.1 -0.1)">
       <use xlink:href="#DejaVuSans-31"/>
       <use xlink:href="#DejaVuSans-31" transform="translate(63.623047 0)"/>
       <use xlink:href="#DejaVuSans-2d" transform="translate(127.246094 0)"/>
       <use xlink:href="#DejaVuSans-31" transform="translate(163.330078 0)"/>
       <use xlink:href="#DejaVuSans-32" transform="translate(226.953125 0)"/>
      </g>
     </g>
    </g>
    <g id="xtick_7">
     <g id="line2d_7">
      <g>
       <use xlink:href="#m52c96336c9" x="150.355795" y="150.39475" style="stroke: #000000; stroke-width: 0.8"/>
      </g>
     </g>
     <g id="text_7">
      <!-- 13-14 -->
      <g transform="translate(153.11517 186.452562) rotate(-90) scale(0.1 -0.1)">
       <use xlink:href="#DejaVuSans-31"/>
       <use xlink:href="#DejaVuSans-33" transform="translate(63.623047 0)"/>
       <use xlink:href="#DejaVuSans-2d" transform="translate(127.246094 0)"/>
       <use xlink:href="#DejaVuSans-31" transform="translate(163.330078 0)"/>
       <use xlink:href="#DejaVuSans-34" transform="translate(226.953125 0)"/>
      </g>
     </g>
    </g>
    <g id="xtick_8">
     <g id="line2d_8">
      <g>
       <use xlink:href="#m52c96336c9" x="167.264886" y="150.39475" style="stroke: #000000; stroke-width: 0.8"/>
      </g>
     </g>
     <g id="text_8">
      <!-- 15-16 -->
      <g transform="translate(170.024261 186.452562) rotate(-90) scale(0.1 -0.1)">
       <use xlink:href="#DejaVuSans-31"/>
       <use xlink:href="#DejaVuSans-35" transform="translate(63.623047 0)"/>
       <use xlink:href="#DejaVuSans-2d" transform="translate(127.246094 0)"/>
       <use xlink:href="#DejaVuSans-31" transform="translate(163.330078 0)"/>
       <use xlink:href="#DejaVuSans-36" transform="translate(226.953125 0)"/>
      </g>
     </g>
    </g>
    <g id="xtick_9">
     <g id="line2d_9">
      <g>
       <use xlink:href="#m52c96336c9" x="184.173977" y="150.39475" style="stroke: #000000; stroke-width: 0.8"/>
      </g>
     </g>
     <g id="text_9">
      <!-- 17-18 -->
      <g transform="translate(186.933352 186.452562) rotate(-90) scale(0.1 -0.1)">
       <use xlink:href="#DejaVuSans-31"/>
       <use xlink:href="#DejaVuSans-37" transform="translate(63.623047 0)"/>
       <use xlink:href="#DejaVuSans-2d" transform="translate(127.246094 0)"/>
       <use xlink:href="#DejaVuSans-31" transform="translate(163.330078 0)"/>
       <use xlink:href="#DejaVuSans-38" transform="translate(226.953125 0)"/>
      </g>
     </g>
    </g>
    <g id="xtick_10">
     <g id="line2d_10">
      <g>
       <use xlink:href="#m52c96336c9" x="201.083068" y="150.39475" style="stroke: #000000; stroke-width: 0.8"/>
      </g>
     </g>
     <g id="text_10">
      <!-- 19-20 -->
      <g transform="translate(203.842443 186.452562) rotate(-90) scale(0.1 -0.1)">
       <use xlink:href="#DejaVuSans-31"/>
       <use xlink:href="#DejaVuSans-39" transform="translate(63.623047 0)"/>
       <use xlink:href="#DejaVuSans-2d" transform="translate(127.246094 0)"/>
       <use xlink:href="#DejaVuSans-32" transform="translate(163.330078 0)"/>
       <use xlink:href="#DejaVuSans-30" transform="translate(226.953125 0)"/>
      </g>
     </g>
    </g>
    <g id="xtick_11">
     <g id="line2d_11">
      <g>
       <use xlink:href="#m52c96336c9" x="217.992159" y="150.39475" style="stroke: #000000; stroke-width: 0.8"/>
      </g>
     </g>
     <g id="text_11">
      <!-- 21-22 -->
      <g transform="translate(220.751534 186.452562) rotate(-90) scale(0.1 -0.1)">
       <use xlink:href="#DejaVuSans-32"/>
       <use xlink:href="#DejaVuSans-31" transform="translate(63.623047 0)"/>
       <use xlink:href="#DejaVuSans-2d" transform="translate(127.246094 0)"/>
       <use xlink:href="#DejaVuSans-32" transform="translate(163.330078 0)"/>
       <use xlink:href="#DejaVuSans-32" transform="translate(226.953125 0)"/>
      </g>
     </g>
    </g>
    <g id="xtick_12">
     <g id="line2d_12">
      <g>
       <use xlink:href="#m52c96336c9" x="234.90125" y="150.39475" style="stroke: #000000; stroke-width: 0.8"/>
      </g>
     </g>
     <g id="text_12">
      <!-- 23-24 -->
      <g transform="translate(237.660625 186.452562) rotate(-90) scale(0.1 -0.1)">
       <use xlink:href="#DejaVuSans-32"/>
       <use xlink:href="#DejaVuSans-33" transform="translate(63.623047 0)"/>
       <use xlink:href="#DejaVuSans-2d" transform="translate(127.246094 0)"/>
       <use xlink:href="#DejaVuSans-32" transform="translate(163.330078 0)"/>
       <use xlink:href="#DejaVuSans-34" transform="translate(226.953125 0)"/>
      </g>
     </g>
    </g>
    <g id="text_13">
     <!-- horas -->
     <g transform="translate(125.158438 199.570687) scale(0.12 -0.12)">
      <defs>
       <path id="DejaVuSans-68" d="M 3513 2113 
L 3513 0 
L 2938 0 
L 2938 2094 
Q 2938 2591 2744 2837 
Q 2550 3084 2163 3084 
Q 1697 3084 1428 2787 
Q 1159 2491 1159 1978 
L 1159 0 
L 581 0 
L 581 4863 
L 1159 4863 
L 1159 2956 
Q 1366 3272 1645 3428 
Q 1925 3584 2291 3584 
Q 2894 3584 3203 3211 
Q 3513 2838 3513 2113 
z
" transform="scale(0.015625)"/>
       <path id="DejaVuSans-6f" d="M 1959 3097 
Q 1497 3097 1228 2736 
Q 959 2375 959 1747 
Q 959 1119 1226 758 
Q 1494 397 1959 397 
Q 2419 397 2687 759 
Q 2956 1122 2956 1747 
Q 2956 2369 2687 2733 
Q 2419 3097 1959 3097 
z
M 1959 3584 
Q 2709 3584 3137 3096 
Q 3566 2609 3566 1747 
Q 3566 888 3137 398 
Q 2709 -91 1959 -91 
Q 1206 -91 779 398 
Q 353 888 353 1747 
Q 353 2609 779 3096 
Q 1206 3584 1959 3584 
z
" transform="scale(0.015625)"/>
       <path id="DejaVuSans-72" d="M 2631 2963 
Q 2534 3019 2420 3045 
Q 2306 3072 2169 3072 
Q 1681 3072 1420 2755 
Q 1159 2438 1159 1844 
L 1159 0 
L 581 0 
L 581 3500 
L 1159 3500 
L 1159 2956 
Q 1341 3275 1631 3429 
Q 1922 3584 2338 3584 
Q 2397 3584 2469 3576 
Q 2541 3569 2628 3553 
L 2631 2963 
z
" transform="scale(0.015625)"/>
       <path id="DejaVuSans-61" d="M 2194 1759 
Q 1497 1759 1228 1600 
Q 959 1441 959 1056 
Q 959 750 1161 570 
Q 1363 391 1709 391 
Q 2188 391 2477 730 
Q 2766 1069 2766 1631 
L 2766 1759 
L 2194 1759 
z
M 3341 1997 
L 3341 0 
L 2766 0 
L 2766 531 
Q 2569 213 2275 61 
Q 1981 -91 1556 -91 
Q 1019 -91 701 211 
Q 384 513 384 1019 
Q 384 1609 779 1909 
Q 1175 2209 1959 2209 
L 2766 2209 
L 2766 2266 
Q 2766 2663 2505 2880 
Q 2244 3097 1772 3097 
Q 1472 3097 1187 3025 
Q 903 2953 641 2809 
L 641 3341 
Q 956 3463 1253 3523 
Q 1550 3584 1831 3584 
Q 2591 3584 2966 3190 
Q 3341 2797 3341 1997 
z
" transform="scale(0.015625)"/>
       <path id="DejaVuSans-73" d="M 2834 3397 
L 2834 2853 
Q 2591 2978 2328 3040 
Q 2066 3103 1784 3103 
Q 1356 3103 1142 2972 
Q 928 2841 928 2578 
Q 928 2378 1081 2264 
Q 1234 2150 1697 2047 
L 1894 2003 
Q 2506 1872 2764 1633 
Q 3022 1394 3022 966 
Q 3022 478 2636 193 
Q 2250 -91 1575 -91 
Q 1294 -91 989 -36 
Q 684 19 347 128 
L 347 722 
Q 666 556 975 473 
Q 1284 391 1588 391 
Q 1994 391 2212 530 
Q 2431 669 2431 922 
Q 2431 1156 2273 1281 
Q 2116 1406 1581 1522 
L 1381 1569 
Q 847 1681 609 1914 
Q 372 2147 372 2553 
Q 372 3047 722 3315 
Q 1072 3584 1716 3584 
Q 2034 3584 2315 3537 
Q 2597 3491 2834 3397 
z
" transform="scale(0.015625)"/>
      </defs>
      <use xlink:href="#DejaVuSans-68"/>
      <use xlink:href="#DejaVuSans-6f" transform="translate(63.378906 0)"/>
      <use xlink:href="#DejaVuSans-72" transform="translate(124.560547 0)"/>
      <use xlink:href="#DejaVuSans-61" transform="translate(165.673828 0)"/>
      <use xlink:href="#DejaVuSans-73" transform="translate(226.953125 0)"/>
     </g>
    </g>
   </g>
   <g id="matplotlib.axis_2">
    <g id="ytick_1">
     <g id="line2d_13">
      <defs>
       <path id="mdfc622edf1" d="M 0 0 
L -3.5 0 
" style="stroke: #000000; stroke-width: 0.8"/>
      </defs>
      <g>
       <use xlink:href="#mdfc622edf1" x="48.90125" y="149.036507" style="stroke: #000000; stroke-width: 0.8"/>
      </g>
     </g>
     <g id="text_14">
      <!-- 20 -->
      <g transform="translate(29.17625 152.835726) scale(0.1 -0.1)">
       <use xlink:href="#DejaVuSans-32"/>
       <use xlink:href="#DejaVuSans-30" transform="translate(63.623047 0)"/>
      </g>
     </g>
    </g>
    <g id="ytick_2">
     <g id="line2d_14">
      <g>
       <use xlink:href="#mdfc622edf1" x="48.90125" y="122.642467" style="stroke: #000000; stroke-width: 0.8"/>
      </g>
     </g>
     <g id="text_15">
      <!-- 40 -->
      <g transform="translate(29.17625 126.441686) scale(0.1 -0.1)">
       <use xlink:href="#DejaVuSans-34"/>
       <use xlink:href="#DejaVuSans-30" transform="translate(63.623047 0)"/>
      </g>
     </g>
    </g>
    <g id="ytick_3">
     <g id="line2d_15">
      <g>
       <use xlink:href="#mdfc622edf1" x="48.90125" y="96.248427" style="stroke: #000000; stroke-width: 0.8"/>
      </g>
     </g>
     <g id="text_16">
      <!-- 60 -->
      <g transform="translate(29.17625 100.047646) scale(0.1 -0.1)">
       <use xlink:href="#DejaVuSans-36"/>
       <use xlink:href="#DejaVuSans-30" transform="translate(63.623047 0)"/>
      </g>
     </g>
    </g>
    <g id="ytick_4">
     <g id="line2d_16">
      <g>
       <use xlink:href="#mdfc622edf1" x="48.90125" y="69.854388" style="stroke: #000000; stroke-width: 0.8"/>
      </g>
     </g>
     <g id="text_17">
      <!-- 80 -->
      <g transform="translate(29.17625 73.653606) scale(0.1 -0.1)">
       <use xlink:href="#DejaVuSans-38"/>
       <use xlink:href="#DejaVuSans-30" transform="translate(63.623047 0)"/>
      </g>
     </g>
    </g>
    <g id="ytick_5">
     <g id="line2d_17">
      <g>
       <use xlink:href="#mdfc622edf1" x="48.90125" y="43.460348" style="stroke: #000000; stroke-width: 0.8"/>
      </g>
     </g>
     <g id="text_18">
      <!-- 100 -->
      <g transform="translate(22.81375 47.259566) scale(0.1 -0.1)">
       <use xlink:href="#DejaVuSans-31"/>
       <use xlink:href="#DejaVuSans-30" transform="translate(63.623047 0)"/>
       <use xlink:href="#DejaVuSans-30" transform="translate(127.246094 0)"/>
      </g>
     </g>
    </g>
    <g id="text_19">
     <!-- disponibilidad [%] -->
     <g transform="translate(16.318125 148.900375) rotate(-90) scale(0.12 -0.12)">
      <defs>
       <path id="DejaVuSans-64" d="M 2906 2969 
L 2906 4863 
L 3481 4863 
L 3481 0 
L 2906 0 
L 2906 525 
Q 2725 213 2448 61 
Q 2172 -91 1784 -91 
Q 1150 -91 751 415 
Q 353 922 353 1747 
Q 353 2572 751 3078 
Q 1150 3584 1784 3584 
Q 2172 3584 2448 3432 
Q 2725 3281 2906 2969 
z
M 947 1747 
Q 947 1113 1208 752 
Q 1469 391 1925 391 
Q 2381 391 2643 752 
Q 2906 1113 2906 1747 
Q 2906 2381 2643 2742 
Q 2381 3103 1925 3103 
Q 1469 3103 1208 2742 
Q 947 2381 947 1747 
z
" transform="scale(0.015625)"/>
       <path id="DejaVuSans-69" d="M 603 3500 
L 1178 3500 
L 1178 0 
L 603 0 
L 603 3500 
z
M 603 4863 
L 1178 4863 
L 1178 4134 
L 603 4134 
L 603 4863 
z
" transform="scale(0.015625)"/>
       <path id="DejaVuSans-70" d="M 1159 525 
L 1159 -1331 
L 581 -1331 
L 581 3500 
L 1159 3500 
L 1159 2969 
Q 1341 3281 1617 3432 
Q 1894 3584 2278 3584 
Q 2916 3584 3314 3078 
Q 3713 2572 3713 1747 
Q 3713 922 3314 415 
Q 2916 -91 2278 -91 
Q 1894 -91 1617 61 
Q 1341 213 1159 525 
z
M 3116 1747 
Q 3116 2381 2855 2742 
Q 2594 3103 2138 3103 
Q 1681 3103 1420 2742 
Q 1159 2381 1159 1747 
Q 1159 1113 1420 752 
Q 1681 391 2138 391 
Q 2594 391 2855 752 
Q 3116 1113 3116 1747 
z
" transform="scale(0.015625)"/>
       <path id="DejaVuSans-6e" d="M 3513 2113 
L 3513 0 
L 2938 0 
L 2938 2094 
Q 2938 2591 2744 2837 
Q 2550 3084 2163 3084 
Q 1697 3084 1428 2787 
Q 1159 2491 1159 1978 
L 1159 0 
L 581 0 
L 581 3500 
L 1159 3500 
L 1159 2956 
Q 1366 3272 1645 3428 
Q 1925 3584 2291 3584 
Q 2894 3584 3203 3211 
Q 3513 2838 3513 2113 
z
" transform="scale(0.015625)"/>
       <path id="DejaVuSans-62" d="M 3116 1747 
Q 3116 2381 2855 2742 
Q 2594 3103 2138 3103 
Q 1681 3103 1420 2742 
Q 1159 2381 1159 1747 
Q 1159 1113 1420 752 
Q 1681 391 2138 391 
Q 2594 391 2855 752 
Q 3116 1113 3116 1747 
z
M 1159 2969 
Q 1341 3281 1617 3432 
Q 1894 3584 2278 3584 
Q 2916 3584 3314 3078 
Q 3713 2572 3713 1747 
Q 3713 922 3314 415 
Q 2916 -91 2278 -91 
Q 1894 -91 1617 61 
Q 1341 213 1159 525 
L 1159 0 
L 581 0 
L 581 4863 
L 1159 4863 
L 1159 2969 
z
" transform="scale(0.015625)"/>
       <path id="DejaVuSans-6c" d="M 603 4863 
L 1178 4863 
L 1178 0 
L 603 0 
L 603 4863 
z
" transform="scale(0.015625)"/>
       <path id="DejaVuSans-20" transform="scale(0.015625)"/>
       <path id="DejaVuSans-5b" d="M 550 4863 
L 1875 4863 
L 1875 4416 
L 1125 4416 
L 1125 -397 
L 1875 -397 
L 1875 -844 
L 550 -844 
L 550 4863 
z
" transform="scale(0.015625)"/>
       <path id="DejaVuSans-25" d="M 4653 2053 
Q 4381 2053 4226 1822 
Q 4072 1591 4072 1178 
Q 4072 772 4226 539 
Q 4381 306 4653 306 
Q 4919 306 5073 539 
Q 5228 772 5228 1178 
Q 5228 1588 5073 1820 
Q 4919 2053 4653 2053 
z
M 4653 2450 
Q 5147 2450 5437 2106 
Q 5728 1763 5728 1178 
Q 5728 594 5436 251 
Q 5144 -91 4653 -91 
Q 4153 -91 3862 251 
Q 3572 594 3572 1178 
Q 3572 1766 3864 2108 
Q 4156 2450 4653 2450 
z
M 1428 4353 
Q 1159 4353 1004 4120 
Q 850 3888 850 3481 
Q 850 3069 1003 2837 
Q 1156 2606 1428 2606 
Q 1700 2606 1854 2837 
Q 2009 3069 2009 3481 
Q 2009 3884 1853 4118 
Q 1697 4353 1428 4353 
z
M 4250 4750 
L 4750 4750 
L 1831 -91 
L 1331 -91 
L 4250 4750 
z
M 1428 4750 
Q 1922 4750 2215 4408 
Q 2509 4066 2509 3481 
Q 2509 2891 2217 2550 
Q 1925 2209 1428 2209 
Q 931 2209 642 2551 
Q 353 2894 353 3481 
Q 353 4063 643 4406 
Q 934 4750 1428 4750 
z
" transform="scale(0.015625)"/>
       <path id="DejaVuSans-5d" d="M 1947 4863 
L 1947 -844 
L 622 -844 
L 622 -397 
L 1369 -397 
L 1369 4416 
L 622 4416 
L 622 4863 
L 1947 4863 
z
" transform="scale(0.015625)"/>
      </defs>
      <use xlink:href="#DejaVuSans-64"/>
      <use xlink:href="#DejaVuSans-69" transform="translate(63.476562 0)"/>
      <use xlink:href="#DejaVuSans-73" transform="translate(91.259766 0)"/>
      <use xlink:href="#DejaVuSans-70" transform="translate(143.359375 0)"/>
      <use xlink:href="#DejaVuSans-6f" transform="translate(206.835938 0)"/>
      <use xlink:href="#DejaVuSans-6e" transform="translate(268.017578 0)"/>
      <use xlink:href="#DejaVuSans-69" transform="translate(331.396484 0)"/>
      <use xlink:href="#DejaVuSans-62" transform="translate(359.179688 0)"/>
      <use xlink:href="#DejaVuSans-69" transform="translate(422.65625 0)"/>
      <use xlink:href="#DejaVuSans-6c" transform="translate(450.439453 0)"/>
      <use xlink:href="#DejaVuSans-69" transform="translate(478.222656 0)"/>
      <use xlink:href="#DejaVuSans-64" transform="translate(506.005859 0)"/>
      <use xlink:href="#DejaVuSans-61" transform="translate(569.482422 0)"/>
      <use xlink:href="#DejaVuSans-64" transform="translate(630.761719 0)"/>
      <use xlink:href="#DejaVuSans-20" transform="translate(694.238281 0)"/>
      <use xlink:href="#DejaVuSans-5b" transform="translate(726.025391 0)"/>
      <use xlink:href="#DejaVuSans-25" transform="translate(765.039062 0)"/>
      <use xlink:href="#DejaVuSans-5d" transform="translate(860.058594 0)"/>
     </g>
    </g>
   </g>
   <g id="line2d_18">
    <path d="M 48.90125 135.043496 
L 65.810341 145.35475 
L 82.719432 145.072017 
L 99.628523 129.238892 
L 116.537614 114.733375 
L 133.446705 109.363296 
L 150.355795 116.904905 
L 167.264886 110.700286 
L 184.173977 110.423677 
L 201.083068 81.651032 
L 217.992159 84.443812 
L 234.90125 112.743831 
" clip-path="url(#p4819030aad)" style="fill: none; stroke: #a1150b; stroke-width: 2.5; stroke-linecap: square"/>
   </g>
   <g id="line2d_19">
    <path d="M 48.90125 135.043496 
L 65.810341 145.05399 
L 82.719432 144.768433 
L 99.628523 120.000556 
L 116.537614 126.872812 
L 133.446705 135.790197 
L 150.355795 128.610028 
L 167.264886 117.173319 
L 184.173977 113.674023 
L 201.083068 55.392763 
L 217.992159 57.147795 
L 234.90125 103.340823 
" clip-path="url(#p4819030aad)" style="fill: none; stroke: #207653; stroke-width: 2.5; stroke-linecap: square"/>
   </g>
   <g id="text_20">
    <path d="M 102.135394 127.102775 
Q 101.308806 127.811866 101.151552 128.274094 
Q 100.994297 128.736322 101.385975 129.192902 
Q 101.697284 129.555794 102.119962 129.563756 
Q 102.541624 129.570532 102.951953 129.21853 
Q 103.520009 128.731221 103.51786 128.03518 
Q 103.515711 127.339139 102.943962 126.672651 
L 102.813742 126.520853 
L 102.135394 127.102775 
z
M 103.253518 125.653629 
L 105.28516 128.021915 
L 104.603255 128.60689 
L 104.063044 127.977165 
Q 104.152933 128.554706 103.958909 129.034066 
Q 103.764885 129.513426 103.260868 129.945799 
Q 102.624028 130.492114 101.939666 130.457482 
Q 101.25649 130.421832 100.741712 129.821756 
Q 100.141477 129.122062 100.304712 128.364433 
Q 100.469133 127.605787 101.398896 126.808187 
L 102.355935 125.987188 
L 102.297947 125.91959 
Q 101.89406 125.448779 101.36377 125.456962 
Q 100.83348 125.465144 100.273725 125.945332 
Q 99.917948 126.250536 99.653209 126.625866 
Q 99.389656 127.000179 99.225443 127.437497 
L 98.684214 126.806586 
Q 98.933663 126.34144 99.224841 125.968132 
Q 99.515002 125.593639 99.848246 125.307764 
Q 100.749547 124.534581 101.595102 124.620329 
Q 102.439641 124.704891 103.253518 125.653629 
z
M 106.252091 120.262992 
L 106.799424 120.901018 
Q 106.372717 120.989152 106.014004 121.158945 
Q 105.655291 121.328738 105.35881 121.583075 
Q 104.694694 122.152789 104.688216 122.889169 
Q 104.681907 123.623346 105.334027 124.383522 
Q 105.986146 125.143698 106.713754 125.25034 
Q 107.441531 125.354779 108.105647 124.785065 
Q 108.402128 124.530728 108.624517 124.202021 
Q 108.846905 123.873314 108.998928 123.464982 
L 109.540157 124.095893 
Q 109.368293 124.473897 109.119296 124.802784 
Q 108.872503 125.131839 108.5274 125.427887 
Q 107.589335 126.232609 106.531074 126.117289 
Q 105.473999 126.000953 104.615358 125.000034 
Q 103.744509 123.984885 103.803392 122.92563 
Q 103.862444 121.864172 104.833714 121.030965 
Q 105.147984 120.761368 105.503976 120.569204 
Q 105.858951 120.375855 106.252091 120.262992 
z
M 106.964939 117.329309 
L 107.976182 118.508116 
L 109.380314 117.303577 
L 109.835068 117.833684 
L 108.430936 119.038223 
L 110.363896 121.291475 
Q 110.79932 121.799049 111.062189 121.824702 
Q 111.325059 121.850355 111.751991 121.48411 
L 112.451685 120.883876 
L 112.941029 121.454304 
L 112.241335 122.054539 
Q 111.45151 122.732092 110.89917 122.695372 
Q 110.345812 122.657466 109.678433 121.879501 
L 107.745473 119.626249 
L 107.245014 120.05557 
L 106.79026 119.525463 
L 107.290719 119.096142 
L 106.279476 117.917336 
L 106.964939 117.329309 
z
M 112.363105 119.107073 
L 110.207346 116.594104 
L 110.889251 116.00913 
L 113.022628 118.496008 
Q 113.52825 119.085412 114.010452 119.184358 
Q 114.492823 119.281102 114.952961 118.886371 
Q 115.504415 118.413305 115.522462 117.786402 
Q 115.541694 117.158482 115.019795 116.550104 
L 113.001379 114.197235 
L 113.683284 113.61226 
L 117.243999 117.762987 
L 116.562093 118.347962 
L 116.014761 117.709936 
Q 116.091437 118.300871 115.920625 118.766494 
Q 115.750999 119.231099 115.316952 119.603448 
Q 114.601841 120.216909 113.849142 120.090617 
Q 113.097629 119.963309 112.363105 119.107073 
z
M 111.837918 115.022386 
L 111.837918 115.022386 
z
M 118.745715 112.853558 
Q 117.919128 113.562649 117.761873 114.024877 
Q 117.604618 114.487105 117.996297 114.943685 
Q 118.307605 115.306577 118.730284 115.314539 
Q 119.151945 115.321315 119.562274 114.969313 
Q 120.130331 114.482004 120.128182 113.785963 
Q 120.126032 113.089922 119.554283 112.423434 
L 119.424063 112.271635 
L 118.745715 112.853558 
z
M 119.863839 111.404411 
L 121.895482 113.772698 
L 121.213576 114.357672 
L 120.673365 113.727948 
Q 120.763255 114.305488 120.56923 114.784849 
Q 120.375206 115.264209 119.871189 115.696581 
Q 119.234349 116.242897 118.549987 116.208265 
Q 117.866811 116.172615 117.352033 115.572539 
Q 116.751799 114.872844 116.915034 114.115216 
Q 117.079455 113.35657 118.009218 112.55897 
L 118.966257 111.737971 
L 118.908268 111.670373 
Q 118.504381 111.199562 117.974091 111.207744 
Q 117.443801 111.215927 116.884046 111.696115 
Q 116.528269 112.001319 116.263531 112.376649 
Q 115.999978 112.750962 115.835764 113.18828 
L 115.294535 112.557369 
Q 115.543984 112.092222 115.835163 111.718915 
Q 116.125323 111.344422 116.458567 111.058547 
Q 117.359868 110.285363 118.205424 110.371112 
Q 119.049962 110.455674 119.863839 111.404411 
z
M 118.352106 106.801147 
L 119.034012 106.216172 
L 123.98137 111.983312 
L 123.299465 112.568286 
L 118.352106 106.801147 
z
" clip-path="url(#p4819030aad)" style="fill: #a1150b; stroke: #ffffff; stroke-width: 5"/>
    <path d="M 102.135394 127.102775 
Q 101.308806 127.811866 101.151552 128.274094 
Q 100.994297 128.736322 101.385975 129.192902 
Q 101.697284 129.555794 102.119962 129.563756 
Q 102.541624 129.570532 102.951953 129.21853 
Q 103.520009 128.731221 103.51786 128.03518 
Q 103.515711 127.339139 102.943962 126.672651 
L 102.813742 126.520853 
L 102.135394 127.102775 
z
M 103.253518 125.653629 
L 105.28516 128.021915 
L 104.603255 128.60689 
L 104.063044 127.977165 
Q 104.152933 128.554706 103.958909 129.034066 
Q 103.764885 129.513426 103.260868 129.945799 
Q 102.624028 130.492114 101.939666 130.457482 
Q 101.25649 130.421832 100.741712 129.821756 
Q 100.141477 129.122062 100.304712 128.364433 
Q 100.469133 127.605787 101.398896 126.808187 
L 102.355935 125.987188 
L 102.297947 125.91959 
Q 101.89406 125.448779 101.36377 125.456962 
Q 100.83348 125.465144 100.273725 125.945332 
Q 99.917948 126.250536 99.653209 126.625866 
Q 99.389656 127.000179 99.225443 127.437497 
L 98.684214 126.806586 
Q 98.933663 126.34144 99.224841 125.968132 
Q 99.515002 125.593639 99.848246 125.307764 
Q 100.749547 124.534581 101.595102 124.620329 
Q 102.439641 124.704891 103.253518 125.653629 
z
M 106.252091 120.262992 
L 106.799424 120.901018 
Q 106.372717 120.989152 106.014004 121.158945 
Q 105.655291 121.328738 105.35881 121.583075 
Q 104.694694 122.152789 104.688216 122.889169 
Q 104.681907 123.623346 105.334027 124.383522 
Q 105.986146 125.143698 106.713754 125.25034 
Q 107.441531 125.354779 108.105647 124.785065 
Q 108.402128 124.530728 108.624517 124.202021 
Q 108.846905 123.873314 108.998928 123.464982 
L 109.540157 124.095893 
Q 109.368293 124.473897 109.119296 124.802784 
Q 108.872503 125.131839 108.5274 125.427887 
Q 107.589335 126.232609 106.531074 126.117289 
Q 105.473999 126.000953 104.615358 125.000034 
Q 103.744509 123.984885 103.803392 122.92563 
Q 103.862444 121.864172 104.833714 121.030965 
Q 105.147984 120.761368 105.503976 120.569204 
Q 105.858951 120.375855 106.252091 120.262992 
z
M 106.964939 117.329309 
L 107.976182 118.508116 
L 109.380314 117.303577 
L 109.835068 117.833684 
L 108.430936 119.038223 
L 110.363896 121.291475 
Q 110.79932 121.799049 111.062189 121.824702 
Q 111.325059 121.850355 111.751991 121.48411 
L 112.451685 120.883876 
L 112.941029 121.454304 
L 112.241335 122.054539 
Q 111.45151 122.732092 110.89917 122.695372 
Q 110.345812 122.657466 109.678433 121.879501 
L 107.745473 119.626249 
L 107.245014 120.05557 
L 106.79026 119.525463 
L 107.290719 119.096142 
L 106.279476 117.917336 
L 106.964939 117.329309 
z
M 112.363105 119.107073 
L 110.207346 116.594104 
L 110.889251 116.00913 
L 113.022628 118.496008 
Q 113.52825 119.085412 114.010452 119.184358 
Q 114.492823 119.281102 114.952961 118.886371 
Q 115.504415 118.413305 115.522462 117.786402 
Q 115.541694 117.158482 115.019795 116.550104 
L 113.001379 114.197235 
L 113.683284 113.61226 
L 117.243999 117.762987 
L 116.562093 118.347962 
L 116.014761 117.709936 
Q 116.091437 118.300871 115.920625 118.766494 
Q 115.750999 119.231099 115.316952 119.603448 
Q 114.601841 120.216909 113.849142 120.090617 
Q 113.097629 119.963309 112.363105 119.107073 
z
M 111.837918 115.022386 
L 111.837918 115.022386 
z
M 118.745715 112.853558 
Q 117.919128 113.562649 117.761873 114.024877 
Q 117.604618 114.487105 117.996297 114.943685 
Q 118.307605 115.306577 118.730284 115.314539 
Q 119.151945 115.321315 119.562274 114.969313 
Q 120.130331 114.482004 120.128182 113.785963 
Q 120.126032 113.089922 119.554283 112.423434 
L 119.424063 112.271635 
L 118.745715 112.853558 
z
M 119.863839 111.404411 
L 121.895482 113.772698 
L 121.213576 114.357672 
L 120.673365 113.727948 
Q 120.763255 114.305488 120.56923 114.784849 
Q 120.375206 115.264209 119.871189 115.696581 
Q 119.234349 116.242897 118.549987 116.208265 
Q 117.866811 116.172615 117.352033 115.572539 
Q 116.751799 114.872844 116.915034 114.115216 
Q 117.079455 113.35657 118.009218 112.55897 
L 118.966257 111.737971 
L 118.908268 111.670373 
Q 118.504381 111.199562 117.974091 111.207744 
Q 117.443801 111.215927 116.884046 111.696115 
Q 116.528269 112.001319 116.263531 112.376649 
Q 115.999978 112.750962 115.835764 113.18828 
L 115.294535 112.557369 
Q 115.543984 112.092222 115.835163 111.718915 
Q 116.125323 111.344422 116.458567 111.058547 
Q 117.359868 110.285363 118.205424 110.371112 
Q 119.049962 110.455674 119.863839 111.404411 
z
M 118.352106 106.801147 
L 119.034012 106.216172 
L 123.98137 111.983312 
L 123.299465 112.568286 
L 118.352106 106.801147 
z
" clip-path="url(#p4819030aad)" style="fill: #a1150b"/>
   </g>
   <g id="text_21">
    <path d="M 150.055975 122.714811 
L 150.643671 125.554637 
L 149.759285 125.737659 
L 148.229567 118.345848 
L 149.113953 118.162826 
L 149.282092 118.975298 
Q 149.461773 118.440284 149.836261 118.121848 
Q 150.211963 117.801565 150.799513 117.679973 
Q 151.775703 117.477952 152.544898 118.126147 
Q 153.315622 118.774025 153.576855 120.03634 
Q 153.838088 121.298655 153.388126 122.200747 
Q 152.939378 123.100992 151.963188 123.303013 
Q 151.375637 123.424605 150.903675 123.279744 
Q 150.433243 123.134566 150.055975 122.714811 
z
M 152.663398 120.225378 
Q 152.462645 119.255308 151.948985 118.785594 
Q 151.435325 118.31588 150.737609 118.460271 
Q 150.038363 118.604978 149.753321 119.239981 
Q 149.46828 119.874984 149.669034 120.845054 
Q 149.869787 121.815125 150.383447 122.284838 
Q 150.897107 122.754552 151.596353 122.609845 
Q 152.294069 122.465454 152.57911 121.830451 
Q 152.864152 121.195448 152.663398 120.225378 
z
M 157.752214 117.232001 
Q 157.586064 117.177031 157.403402 117.173346 
Q 157.220424 117.168132 157.010803 117.211512 
Q 156.264124 117.366036 155.965151 117.933715 
Q 155.666177 118.501395 155.854265 119.410262 
L 156.43816 122.231727 
L 155.553775 122.414749 
L 154.445513 117.059473 
L 155.329899 116.876451 
L 155.502154 117.708814 
Q 155.679618 117.163089 156.074578 116.83563 
Q 156.470751 116.506324 157.107263 116.374599 
Q 157.197538 116.355917 157.310237 116.345359 
Q 157.422619 116.333271 157.560802 116.330204 
L 157.752214 117.232001 
z
M 160.487259 116.452178 
Q 159.780363 116.598469 159.483081 117.236005 
Q 159.185799 117.873541 159.384652 118.834431 
Q 159.583506 119.79532 160.106346 120.263134 
Q 160.630717 120.730632 161.342204 120.583391 
Q 162.04604 120.437734 162.341475 119.798984 
Q 162.638124 119.158388 162.44022 118.202088 
Q 162.243266 117.250379 161.716416 116.778608 
Q 161.191095 116.306521 160.487259 116.452178 
z
M 160.333052 115.70703 
Q 161.480612 115.469545 162.290009 116.080699 
Q 163.100619 116.690006 163.373568 118.008934 
Q 163.645567 119.323272 163.14432 120.208852 
Q 162.644286 121.092585 161.496727 121.33007 
Q 160.344577 121.568504 159.536394 120.955503 
Q 158.729424 120.340656 158.457425 119.026318 
Q 158.184476 117.70739 158.682083 116.827351 
Q 159.180903 115.945464 160.333052 115.70703 
z
M 166.068825 119.40099 
L 166.65652 122.240817 
L 165.772135 122.423838 
L 164.242417 115.032027 
L 165.126803 114.849006 
L 165.294942 115.661478 
Q 165.474623 115.126463 165.849111 114.808027 
Q 166.224812 114.487744 166.812363 114.366152 
Q 167.788553 114.164132 168.557747 114.812327 
Q 169.328472 115.460205 169.589705 116.72252 
Q 169.850938 117.984835 169.400976 118.886927 
Q 168.952228 119.787172 167.976037 119.989192 
Q 167.388487 120.110784 166.916525 119.965923 
Q 166.446093 119.820745 166.068825 119.40099 
z
M 168.676248 116.911558 
Q 168.475494 115.941488 167.961834 115.471774 
Q 167.448174 115.00206 166.750458 115.14645 
Q 166.051212 115.291158 165.766171 115.926161 
Q 165.48113 116.561164 165.681883 117.531234 
Q 165.882637 118.501304 166.396297 118.971018 
Q 166.909957 119.440732 167.609203 119.296024 
Q 168.306919 119.151634 168.59196 118.516631 
Q 168.877001 117.881628 168.676248 116.911558 
z
M 171.072723 116.999605 
L 170.40175 113.757368 
L 171.281545 113.575297 
L 171.945552 116.783872 
Q 172.102925 117.544321 172.477075 117.864198 
Q 172.852439 118.182229 173.446109 118.05937 
Q 174.157596 117.912129 174.476674 117.372201 
Q 174.797281 116.831957 174.634842 116.047026 
L 174.006616 113.01135 
L 174.886411 112.829278 
L 175.994672 118.184555 
L 175.114877 118.366626 
L 174.944522 117.543444 
Q 174.725745 118.097718 174.350993 118.422591 
Q 173.977772 118.747148 173.417763 118.86304 
Q 172.495125 119.053978 171.897468 118.579308 
Q 171.301341 118.104322 171.072723 116.999605 
z
M 172.589176 113.170655 
L 172.589176 113.170655 
z
M 181.787997 113.963558 
L 181.876975 114.393511 
L 177.831446 115.230723 
Q 178.077677 116.127557 178.665779 116.502085 
Q 179.253881 116.876613 180.129086 116.695491 
Q 180.635542 116.590681 181.085749 116.368268 
Q 181.535955 116.145855 181.954076 115.799241 
L 182.126331 116.631604 
Q 181.693487 116.930205 181.21806 117.13869 
Q 180.742633 117.347176 180.231587 117.452936 
Q 178.949381 117.718285 178.046965 117.127977 
Q 177.144234 116.536138 176.880784 115.263113 
Q 176.608785 113.948775 177.159152 113.030691 
Q 177.709202 112.111077 178.914904 111.86156 
Q 179.99514 111.638008 180.768077 112.204053 
Q 181.540696 112.768567 181.787997 113.963558 
z
M 180.854688 113.887047 
Q 180.696368 113.168279 180.21263 112.820022 
Q 179.728575 112.470234 179.078292 112.604809 
Q 178.342324 112.757116 177.986259 113.264808 
Q 177.630193 113.7725 177.719293 114.542291 
L 180.854688 113.887047 
z
M 186.169313 110.658657 
L 186.341569 111.49102 
Q 185.930179 111.376705 185.508136 111.365118 
Q 185.087307 111.351684 184.655824 111.440978 
Q 184.000951 111.576503 183.714994 111.844705 
Q 183.429038 112.112908 183.512316 112.515319 
Q 183.575645 112.821335 183.845845 112.947317 
Q 184.116045 113.073299 184.857086 113.08429 
L 185.172444 113.089234 
Q 186.150333 113.095887 186.620772 113.379881 
Q 187.09121 113.663875 187.226735 114.318749 
Q 187.381258 115.065428 186.880892 115.623725 
Q 186.380209 116.180493 185.347406 116.394229 
Q 184.917453 116.483207 184.433364 116.49563 
Q 183.949274 116.508052 183.399123 116.447984 
L 183.211035 115.539117 
Q 183.751694 115.6921 184.25077 115.721253 
Q 184.749529 115.748875 185.214673 115.652615 
Q 185.835885 115.524057 186.125429 115.242347 
Q 186.416502 114.96032 186.336391 114.57321 
Q 186.262296 114.215172 185.980962 114.073942 
Q 185.701159 113.932396 184.845836 113.924312 
L 184.524938 113.915728 
Q 183.672411 113.913448 183.234474 113.632301 
Q 182.798067 113.350838 182.669508 112.729626 
Q 182.513085 111.973767 182.963752 111.45288 
Q 183.414101 110.930462 184.399472 110.726542 
Q 184.886037 110.625849 185.330872 110.608785 
Q 185.77692 110.589874 186.169313 110.658657 
z
M 188.380818 108.450609 
L 188.695565 109.971507 
L 190.507178 109.596598 
L 190.648719 110.280544 
L 188.837105 110.655453 
L 189.438733 113.562603 
Q 189.574258 114.217476 189.791908 114.367099 
Q 190.009558 114.516721 190.560386 114.402728 
L 191.463133 114.215907 
L 191.615439 114.951875 
L 190.712693 115.138696 
Q 189.69366 115.349582 189.228022 115.050234 
Q 188.762067 114.749356 188.554347 113.745624 
L 187.95272 110.838474 
L 187.307026 110.972099 
L 187.165486 110.288154 
L 187.811179 110.154529 
L 187.496433 108.633631 
L 188.380818 108.450609 
z
M 194.650128 111.517179 
Q 193.583663 111.737881 193.222418 112.066341 
Q 192.861174 112.394802 192.983083 112.983882 
Q 193.079976 113.452086 193.446049 113.663538 
Q 193.811804 113.87346 194.341211 113.7639 
Q 195.074119 113.612227 195.408969 113.002019 
Q 195.743819 112.391812 195.565864 111.531907 
L 195.525333 111.336057 
L 194.650128 111.517179 
z
M 196.329767 110.789827 
L 196.962109 113.845394 
L 196.082314 114.027466 
L 195.914174 113.214994 
Q 195.713442 113.763938 195.311729 114.089604 
Q 194.910016 114.41527 194.259733 114.549845 
Q 193.43808 114.719884 192.855888 114.358493 
Q 192.275226 113.996786 192.115003 113.222567 
Q 191.928182 112.31982 192.437569 111.735721 
Q 192.948487 111.151306 194.148069 110.903055 
L 195.382842 110.647522 
L 195.364793 110.560307 
Q 195.239085 109.952866 194.771022 109.703483 
Q 194.302959 109.454101 193.580762 109.603558 
Q 193.121738 109.698552 192.708464 109.898961 
Q 192.29672 110.099055 191.941437 110.402347 
L 191.772981 109.588345 
Q 192.216325 109.301932 192.65176 109.116083 
Q 193.086878 108.928705 193.51683 108.839727 
Q 194.67969 108.599076 195.378228 109.083185 
Q 196.07645 109.565764 196.329767 110.789827 
z
" clip-path="url(#p4819030aad)" style="fill: #207653; stroke: #ffffff; stroke-width: 5"/>
    <path d="M 150.055975 122.714811 
L 150.643671 125.554637 
L 149.759285 125.737659 
L 148.229567 118.345848 
L 149.113953 118.162826 
L 149.282092 118.975298 
Q 149.461773 118.440284 149.836261 118.121848 
Q 150.211963 117.801565 150.799513 117.679973 
Q 151.775703 117.477952 152.544898 118.126147 
Q 153.315622 118.774025 153.576855 120.03634 
Q 153.838088 121.298655 153.388126 122.200747 
Q 152.939378 123.100992 151.963188 123.303013 
Q 151.375637 123.424605 150.903675 123.279744 
Q 150.433243 123.134566 150.055975 122.714811 
z
M 152.663398 120.225378 
Q 152.462645 119.255308 151.948985 118.785594 
Q 151.435325 118.31588 150.737609 118.460271 
Q 150.038363 118.604978 149.753321 119.239981 
Q 149.46828 119.874984 149.669034 120.845054 
Q 149.869787 121.815125 150.383447 122.284838 
Q 150.897107 122.754552 151.596353 122.609845 
Q 152.294069 122.465454 152.57911 121.830451 
Q 152.864152 121.195448 152.663398 120.225378 
z
M 157.752214 117.232001 
Q 157.586064 117.177031 157.403402 117.173346 
Q 157.220424 117.168132 157.010803 117.211512 
Q 156.264124 117.366036 155.965151 117.933715 
Q 155.666177 118.501395 155.854265 119.410262 
L 156.43816 122.231727 
L 155.553775 122.414749 
L 154.445513 117.059473 
L 155.329899 116.876451 
L 155.502154 117.708814 
Q 155.679618 117.163089 156.074578 116.83563 
Q 156.470751 116.506324 157.107263 116.374599 
Q 157.197538 116.355917 157.310237 116.345359 
Q 157.422619 116.333271 157.560802 116.330204 
L 157.752214 117.232001 
z
M 160.487259 116.452178 
Q 159.780363 116.598469 159.483081 117.236005 
Q 159.185799 117.873541 159.384652 118.834431 
Q 159.583506 119.79532 160.106346 120.263134 
Q 160.630717 120.730632 161.342204 120.583391 
Q 162.04604 120.437734 162.341475 119.798984 
Q 162.638124 119.158388 162.44022 118.202088 
Q 162.243266 117.250379 161.716416 116.778608 
Q 161.191095 116.306521 160.487259 116.452178 
z
M 160.333052 115.70703 
Q 161.480612 115.469545 162.290009 116.080699 
Q 163.100619 116.690006 163.373568 118.008934 
Q 163.645567 119.323272 163.14432 120.208852 
Q 162.644286 121.092585 161.496727 121.33007 
Q 160.344577 121.568504 159.536394 120.955503 
Q 158.729424 120.340656 158.457425 119.026318 
Q 158.184476 117.70739 158.682083 116.827351 
Q 159.180903 115.945464 160.333052 115.70703 
z
M 166.068825 119.40099 
L 166.65652 122.240817 
L 165.772135 122.423838 
L 164.242417 115.032027 
L 165.126803 114.849006 
L 165.294942 115.661478 
Q 165.474623 115.126463 165.849111 114.808027 
Q 166.224812 114.487744 166.812363 114.366152 
Q 167.788553 114.164132 168.557747 114.812327 
Q 169.328472 115.460205 169.589705 116.72252 
Q 169.850938 117.984835 169.400976 118.886927 
Q 168.952228 119.787172 167.976037 119.989192 
Q 167.388487 120.110784 166.916525 119.965923 
Q 166.446093 119.820745 166.068825 119.40099 
z
M 168.676248 116.911558 
Q 168.475494 115.941488 167.961834 115.471774 
Q 167.448174 115.00206 166.750458 115.14645 
Q 166.051212 115.291158 165.766171 115.926161 
Q 165.48113 116.561164 165.681883 117.531234 
Q 165.882637 118.501304 166.396297 118.971018 
Q 166.909957 119.440732 167.609203 119.296024 
Q 168.306919 119.151634 168.59196 118.516631 
Q 168.877001 117.881628 168.676248 116.911558 
z
M 171.072723 116.999605 
L 170.40175 113.757368 
L 171.281545 113.575297 
L 171.945552 116.783872 
Q 172.102925 117.544321 172.477075 117.864198 
Q 172.852439 118.182229 173.446109 118.05937 
Q 174.157596 117.912129 174.476674 117.372201 
Q 174.797281 116.831957 174.634842 116.047026 
L 174.006616 113.01135 
L 174.886411 112.829278 
L 175.994672 118.184555 
L 175.114877 118.366626 
L 174.944522 117.543444 
Q 174.725745 118.097718 174.350993 118.422591 
Q 173.977772 118.747148 173.417763 118.86304 
Q 172.495125 119.053978 171.897468 118.579308 
Q 171.301341 118.104322 171.072723 116.999605 
z
M 172.589176 113.170655 
L 172.589176 113.170655 
z
M 181.787997 113.963558 
L 181.876975 114.393511 
L 177.831446 115.230723 
Q 178.077677 116.127557 178.665779 116.502085 
Q 179.253881 116.876613 180.129086 116.695491 
Q 180.635542 116.590681 181.085749 116.368268 
Q 181.535955 116.145855 181.954076 115.799241 
L 182.126331 116.631604 
Q 181.693487 116.930205 181.21806 117.13869 
Q 180.742633 117.347176 180.231587 117.452936 
Q 178.949381 117.718285 178.046965 117.127977 
Q 177.144234 116.536138 176.880784 115.263113 
Q 176.608785 113.948775 177.159152 113.030691 
Q 177.709202 112.111077 178.914904 111.86156 
Q 179.99514 111.638008 180.768077 112.204053 
Q 181.540696 112.768567 181.787997 113.963558 
z
M 180.854688 113.887047 
Q 180.696368 113.168279 180.21263 112.820022 
Q 179.728575 112.470234 179.078292 112.604809 
Q 178.342324 112.757116 177.986259 113.264808 
Q 177.630193 113.7725 177.719293 114.542291 
L 180.854688 113.887047 
z
M 186.169313 110.658657 
L 186.341569 111.49102 
Q 185.930179 111.376705 185.508136 111.365118 
Q 185.087307 111.351684 184.655824 111.440978 
Q 184.000951 111.576503 183.714994 111.844705 
Q 183.429038 112.112908 183.512316 112.515319 
Q 183.575645 112.821335 183.845845 112.947317 
Q 184.116045 113.073299 184.857086 113.08429 
L 185.172444 113.089234 
Q 186.150333 113.095887 186.620772 113.379881 
Q 187.09121 113.663875 187.226735 114.318749 
Q 187.381258 115.065428 186.880892 115.623725 
Q 186.380209 116.180493 185.347406 116.394229 
Q 184.917453 116.483207 184.433364 116.49563 
Q 183.949274 116.508052 183.399123 116.447984 
L 183.211035 115.539117 
Q 183.751694 115.6921 184.25077 115.721253 
Q 184.749529 115.748875 185.214673 115.652615 
Q 185.835885 115.524057 186.125429 115.242347 
Q 186.416502 114.96032 186.336391 114.57321 
Q 186.262296 114.215172 185.980962 114.073942 
Q 185.701159 113.932396 184.845836 113.924312 
L 184.524938 113.915728 
Q 183.672411 113.913448 183.234474 113.632301 
Q 182.798067 113.350838 182.669508 112.729626 
Q 182.513085 111.973767 182.963752 111.45288 
Q 183.414101 110.930462 184.399472 110.726542 
Q 184.886037 110.625849 185.330872 110.608785 
Q 185.77692 110.589874 186.169313 110.658657 
z
M 188.380818 108.450609 
L 188.695565 109.971507 
L 190.507178 109.596598 
L 190.648719 110.280544 
L 188.837105 110.655453 
L 189.438733 113.562603 
Q 189.574258 114.217476 189.791908 114.367099 
Q 190.009558 114.516721 190.560386 114.402728 
L 191.463133 114.215907 
L 191.615439 114.951875 
L 190.712693 115.138696 
Q 189.69366 115.349582 189.228022 115.050234 
Q 188.762067 114.749356 188.554347 113.745624 
L 187.95272 110.838474 
L 187.307026 110.972099 
L 187.165486 110.288154 
L 187.811179 110.154529 
L 187.496433 108.633631 
L 188.380818 108.450609 
z
M 194.650128 111.517179 
Q 193.583663 111.737881 193.222418 112.066341 
Q 192.861174 112.394802 192.983083 112.983882 
Q 193.079976 113.452086 193.446049 113.663538 
Q 193.811804 113.87346 194.341211 113.7639 
Q 195.074119 113.612227 195.408969 113.002019 
Q 195.743819 112.391812 195.565864 111.531907 
L 195.525333 111.336057 
L 194.650128 111.517179 
z
M 196.329767 110.789827 
L 196.962109 113.845394 
L 196.082314 114.027466 
L 195.914174 113.214994 
Q 195.713442 113.763938 195.311729 114.089604 
Q 194.910016 114.41527 194.259733 114.549845 
Q 193.43808 114.719884 192.855888 114.358493 
Q 192.275226 113.996786 192.115003 113.222567 
Q 191.928182 112.31982 192.437569 111.735721 
Q 192.948487 111.151306 194.148069 110.903055 
L 195.382842 110.647522 
L 195.364793 110.560307 
Q 195.239085 109.952866 194.771022 109.703483 
Q 194.302959 109.454101 193.580762 109.603558 
Q 193.121738 109.698552 192.708464 109.898961 
Q 192.29672 110.099055 191.941437 110.402347 
L 191.772981 109.588345 
Q 192.216325 109.301932 192.65176 109.116083 
Q 193.086878 108.928705 193.51683 108.839727 
Q 194.67969 108.599076 195.378228 109.083185 
Q 196.07645 109.565764 196.329767 110.789827 
z
" clip-path="url(#p4819030aad)" style="fill: #207653"/>
   </g>
   <g id="patch_3">
    <path d="M 48.90125 150.39475 
L 48.90125 39.51475 
" style="fill: none; stroke: #000000; stroke-width: 0.8; stroke-linejoin: miter; stroke-linecap: square"/>
   </g>
   <g id="patch_4">
    <path d="M 234.90125 150.39475 
L 234.90125 39.51475 
" style="fill: none; stroke: #000000; stroke-width: 0.8; stroke-linejoin: miter; stroke-linecap: square"/>
   </g>
   <g id="patch_5">
    <path d="M 48.90125 150.39475 
L 234.90125 150.39475 
" style="fill: none; stroke: #000000; stroke-width: 0.8; stroke-linejoin: miter; stroke-linecap: square"/>
   </g>
   <g id="patch_6">
    <path d="M 48.90125 39.51475 
L 234.90125 39.51475 
" style="fill: none; stroke: #000000; stroke-width: 0.8; stroke-linejoin: miter; stroke-linecap: square"/>
   </g>
   <g id="text_22">
    <!-- Estación seca  -->
    <g transform="translate(91.742969 17.837812) scale(0.14 -0.14)">
     <defs>
      <path id="DejaVuSans-45" d="M 628 4666 
L 3578 4666 
L 3578 4134 
L 1259 4134 
L 1259 2753 
L 3481 2753 
L 3481 2222 
L 1259 2222 
L 1259 531 
L 3634 531 
L 3634 0 
L 628 0 
L 628 4666 
z
" transform="scale(0.015625)"/>
      <path id="DejaVuSans-74" d="M 1172 4494 
L 1172 3500 
L 2356 3500 
L 2356 3053 
L 1172 3053 
L 1172 1153 
Q 1172 725 1289 603 
Q 1406 481 1766 481 
L 2356 481 
L 2356 0 
L 1766 0 
Q 1100 0 847 248 
Q 594 497 594 1153 
L 594 3053 
L 172 3053 
L 172 3500 
L 594 3500 
L 594 4494 
L 1172 4494 
z
" transform="scale(0.015625)"/>
      <path id="DejaVuSans-63" d="M 3122 3366 
L 3122 2828 
Q 2878 2963 2633 3030 
Q 2388 3097 2138 3097 
Q 1578 3097 1268 2742 
Q 959 2388 959 1747 
Q 959 1106 1268 751 
Q 1578 397 2138 397 
Q 2388 397 2633 464 
Q 2878 531 3122 666 
L 3122 134 
Q 2881 22 2623 -34 
Q 2366 -91 2075 -91 
Q 1284 -91 818 406 
Q 353 903 353 1747 
Q 353 2603 823 3093 
Q 1294 3584 2113 3584 
Q 2378 3584 2631 3529 
Q 2884 3475 3122 3366 
z
" transform="scale(0.015625)"/>
      <path id="DejaVuSans-f3" d="M 1959 3097 
Q 1497 3097 1228 2736 
Q 959 2375 959 1747 
Q 959 1119 1226 758 
Q 1494 397 1959 397 
Q 2419 397 2687 759 
Q 2956 1122 2956 1747 
Q 2956 2369 2687 2733 
Q 2419 3097 1959 3097 
z
M 1959 3584 
Q 2709 3584 3137 3096 
Q 3566 2609 3566 1747 
Q 3566 888 3137 398 
Q 2709 -91 1959 -91 
Q 1206 -91 779 398 
Q 353 888 353 1747 
Q 353 2609 779 3096 
Q 1206 3584 1959 3584 
z
M 2394 5119 
L 3016 5119 
L 1998 3944 
L 1519 3944 
L 2394 5119 
z
" transform="scale(0.015625)"/>
      <path id="DejaVuSans-65" d="M 3597 1894 
L 3597 1613 
L 953 1613 
Q 991 1019 1311 708 
Q 1631 397 2203 397 
Q 2534 397 2845 478 
Q 3156 559 3463 722 
L 3463 178 
Q 3153 47 2828 -22 
Q 2503 -91 2169 -91 
Q 1331 -91 842 396 
Q 353 884 353 1716 
Q 353 2575 817 3079 
Q 1281 3584 2069 3584 
Q 2775 3584 3186 3129 
Q 3597 2675 3597 1894 
z
M 3022 2063 
Q 3016 2534 2758 2815 
Q 2500 3097 2075 3097 
Q 1594 3097 1305 2825 
Q 1016 2553 972 2059 
L 3022 2063 
z
" transform="scale(0.015625)"/>
     </defs>
     <use xlink:href="#DejaVuSans-45"/>
     <use xlink:href="#DejaVuSans-73" transform="translate(63.183594 0)"/>
     <use xlink:href="#DejaVuSans-74" transform="translate(115.283203 0)"/>
     <use xlink:href="#DejaVuSans-61" transform="translate(154.492188 0)"/>
     <use xlink:href="#DejaVuSans-63" transform="translate(215.771484 0)"/>
     <use xlink:href="#DejaVuSans-69" transform="translate(270.751953 0)"/>
     <use xlink:href="#DejaVuSans-f3" transform="translate(298.535156 0)"/>
     <use xlink:href="#DejaVuSans-6e" transform="translate(359.716797 0)"/>
     <use xlink:href="#DejaVuSans-20" transform="translate(423.095703 0)"/>
     <use xlink:href="#DejaVuSans-73" transform="translate(454.882812 0)"/>
     <use xlink:href="#DejaVuSans-65" transform="translate(506.982422 0)"/>
     <use xlink:href="#DejaVuSans-63" transform="translate(568.505859 0)"/>
     <use xlink:href="#DejaVuSans-61" transform="translate(623.486328 0)"/>
     <use xlink:href="#DejaVuSans-20" transform="translate(684.765625 0)"/>
    </g>
    <!--  (nov-abr) -->
    <g transform="translate(107.398906 33.51475) scale(0.14 -0.14)">
     <defs>
      <path id="DejaVuSans-28" d="M 1984 4856 
Q 1566 4138 1362 3434 
Q 1159 2731 1159 2009 
Q 1159 1288 1364 580 
Q 1569 -128 1984 -844 
L 1484 -844 
Q 1016 -109 783 600 
Q 550 1309 550 2009 
Q 550 2706 781 3412 
Q 1013 4119 1484 4856 
L 1984 4856 
z
" transform="scale(0.015625)"/>
      <path id="DejaVuSans-76" d="M 191 3500 
L 800 3500 
L 1894 563 
L 2988 3500 
L 3597 3500 
L 2284 0 
L 1503 0 
L 191 3500 
z
" transform="scale(0.015625)"/>
      <path id="DejaVuSans-29" d="M 513 4856 
L 1013 4856 
Q 1481 4119 1714 3412 
Q 1947 2706 1947 2009 
Q 1947 1309 1714 600 
Q 1481 -109 1013 -844 
L 513 -844 
Q 928 -128 1133 580 
Q 1338 1288 1338 2009 
Q 1338 2731 1133 3434 
Q 928 4138 513 4856 
z
" transform="scale(0.015625)"/>
     </defs>
     <use xlink:href="#DejaVuSans-20"/>
     <use xlink:href="#DejaVuSans-28" transform="translate(31.787109 0)"/>
     <use xlink:href="#DejaVuSans-6e" transform="translate(70.800781 0)"/>
     <use xlink:href="#DejaVuSans-6f" transform="translate(134.179688 0)"/>
     <use xlink:href="#DejaVuSans-76" transform="translate(195.361328 0)"/>
     <use xlink:href="#DejaVuSans-2d" transform="translate(251.916016 0)"/>
     <use xlink:href="#DejaVuSans-61" transform="translate(288 0)"/>
     <use xlink:href="#DejaVuSans-62" transform="translate(349.279297 0)"/>
     <use xlink:href="#DejaVuSans-72" transform="translate(412.755859 0)"/>
     <use xlink:href="#DejaVuSans-29" transform="translate(453.869141 0)"/>
    </g>
   </g>
  </g>
  <g id="axes_2">
   <g id="patch_7">
    <path d="M 253.50125 150.39475 
L 439.50125 150.39475 
L 439.50125 39.51475 
L 253.50125 39.51475 
z
" style="fill: #ffffff"/>
   </g>
   <g id="matplotlib.axis_3">
    <g id="xtick_13">
     <g id="line2d_20">
      <g>
       <use xlink:href="#m52c96336c9" x="253.50125" y="150.39475" style="stroke: #000000; stroke-width: 0.8"/>
      </g>
     </g>
     <g id="text_23">
      <!-- 1-2 -->
      <g transform="translate(256.260625 173.727562) rotate(-90) scale(0.1 -0.1)">
       <use xlink:href="#DejaVuSans-31"/>
       <use xlink:href="#DejaVuSans-2d" transform="translate(63.623047 0)"/>
       <use xlink:href="#DejaVuSans-32" transform="translate(99.707031 0)"/>
      </g>
     </g>
    </g>
    <g id="xtick_14">
     <g id="line2d_21">
      <g>
       <use xlink:href="#m52c96336c9" x="270.410341" y="150.39475" style="stroke: #000000; stroke-width: 0.8"/>
      </g>
     </g>
     <g id="text_24">
      <!-- 3-4 -->
      <g transform="translate(273.169716 173.727562) rotate(-90) scale(0.1 -0.1)">
       <use xlink:href="#DejaVuSans-33"/>
       <use xlink:href="#DejaVuSans-2d" transform="translate(63.623047 0)"/>
       <use xlink:href="#DejaVuSans-34" transform="translate(99.707031 0)"/>
      </g>
     </g>
    </g>
    <g id="xtick_15">
     <g id="line2d_22">
      <g>
       <use xlink:href="#m52c96336c9" x="287.319432" y="150.39475" style="stroke: #000000; stroke-width: 0.8"/>
      </g>
     </g>
     <g id="text_25">
      <!-- 5-6 -->
      <g transform="translate(290.078807 173.727562) rotate(-90) scale(0.1 -0.1)">
       <use xlink:href="#DejaVuSans-35"/>
       <use xlink:href="#DejaVuSans-2d" transform="translate(63.623047 0)"/>
       <use xlink:href="#DejaVuSans-36" transform="translate(99.707031 0)"/>
      </g>
     </g>
    </g>
    <g id="xtick_16">
     <g id="line2d_23">
      <g>
       <use xlink:href="#m52c96336c9" x="304.228523" y="150.39475" style="stroke: #000000; stroke-width: 0.8"/>
      </g>
     </g>
     <g id="text_26">
      <!-- 7-8 -->
      <g transform="translate(306.987898 173.727562) rotate(-90) scale(0.1 -0.1)">
       <use xlink:href="#DejaVuSans-37"/>
       <use xlink:href="#DejaVuSans-2d" transform="translate(63.623047 0)"/>
       <use xlink:href="#DejaVuSans-38" transform="translate(99.707031 0)"/>
      </g>
     </g>
    </g>
    <g id="xtick_17">
     <g id="line2d_24">
      <g>
       <use xlink:href="#m52c96336c9" x="321.137614" y="150.39475" style="stroke: #000000; stroke-width: 0.8"/>
      </g>
     </g>
     <g id="text_27">
      <!-- 9-10 -->
      <g transform="translate(323.896989 180.090062) rotate(-90) scale(0.1 -0.1)">
       <use xlink:href="#DejaVuSans-39"/>
       <use xlink:href="#DejaVuSans-2d" transform="translate(63.623047 0)"/>
       <use xlink:href="#DejaVuSans-31" transform="translate(99.707031 0)"/>
       <use xlink:href="#DejaVuSans-30" transform="translate(163.330078 0)"/>
      </g>
     </g>
    </g>
    <g id="xtick_18">
     <g id="line2d_25">
      <g>
       <use xlink:href="#m52c96336c9" x="338.046705" y="150.39475" style="stroke: #000000; stroke-width: 0.8"/>
      </g>
     </g>
     <g id="text_28">
      <!-- 11-12 -->
      <g transform="translate(340.80608 186.452562) rotate(-90) scale(0.1 -0.1)">
       <use xlink:href="#DejaVuSans-31"/>
       <use xlink:href="#DejaVuSans-31" transform="translate(63.623047 0)"/>
       <use xlink:href="#DejaVuSans-2d" transform="translate(127.246094 0)"/>
       <use xlink:href="#DejaVuSans-31" transform="translate(163.330078 0)"/>
       <use xlink:href="#DejaVuSans-32" transform="translate(226.953125 0)"/>
      </g>
     </g>
    </g>
    <g id="xtick_19">
     <g id="line2d_26">
      <g>
       <use xlink:href="#m52c96336c9" x="354.955795" y="150.39475" style="stroke: #000000; stroke-width: 0.8"/>
      </g>
     </g>
     <g id="text_29">
      <!-- 13-14 -->
      <g transform="translate(357.71517 186.452562) rotate(-90) scale(0.1 -0.1)">
       <use xlink:href="#DejaVuSans-31"/>
       <use xlink:href="#DejaVuSans-33" transform="translate(63.623047 0)"/>
       <use xlink:href="#DejaVuSans-2d" transform="translate(127.246094 0)"/>
       <use xlink:href="#DejaVuSans-31" transform="translate(163.330078 0)"/>
       <use xlink:href="#DejaVuSans-34" transform="translate(226.953125 0)"/>
      </g>
     </g>
    </g>
    <g id="xtick_20">
     <g id="line2d_27">
      <g>
       <use xlink:href="#m52c96336c9" x="371.864886" y="150.39475" style="stroke: #000000; stroke-width: 0.8"/>
      </g>
     </g>
     <g id="text_30">
      <!-- 15-16 -->
      <g transform="translate(374.624261 186.452562) rotate(-90) scale(0.1 -0.1)">
       <use xlink:href="#DejaVuSans-31"/>
       <use xlink:href="#DejaVuSans-35" transform="translate(63.623047 0)"/>
       <use xlink:href="#DejaVuSans-2d" transform="translate(127.246094 0)"/>
       <use xlink:href="#DejaVuSans-31" transform="translate(163.330078 0)"/>
       <use xlink:href="#DejaVuSans-36" transform="translate(226.953125 0)"/>
      </g>
     </g>
    </g>
    <g id="xtick_21">
     <g id="line2d_28">
      <g>
       <use xlink:href="#m52c96336c9" x="388.773977" y="150.39475" style="stroke: #000000; stroke-width: 0.8"/>
      </g>
     </g>
     <g id="text_31">
      <!-- 17-18 -->
      <g transform="translate(391.533352 186.452562) rotate(-90) scale(0.1 -0.1)">
       <use xlink:href="#DejaVuSans-31"/>
       <use xlink:href="#DejaVuSans-37" transform="translate(63.623047 0)"/>
       <use xlink:href="#DejaVuSans-2d" transform="translate(127.246094 0)"/>
       <use xlink:href="#DejaVuSans-31" transform="translate(163.330078 0)"/>
       <use xlink:href="#DejaVuSans-38" transform="translate(226.953125 0)"/>
      </g>
     </g>
    </g>
    <g id="xtick_22">
     <g id="line2d_29">
      <g>
       <use xlink:href="#m52c96336c9" x="405.683068" y="150.39475" style="stroke: #000000; stroke-width: 0.8"/>
      </g>
     </g>
     <g id="text_32">
      <!-- 19-20 -->
      <g transform="translate(408.442443 186.452562) rotate(-90) scale(0.1 -0.1)">
       <use xlink:href="#DejaVuSans-31"/>
       <use xlink:href="#DejaVuSans-39" transform="translate(63.623047 0)"/>
       <use xlink:href="#DejaVuSans-2d" transform="translate(127.246094 0)"/>
       <use xlink:href="#DejaVuSans-32" transform="translate(163.330078 0)"/>
       <use xlink:href="#DejaVuSans-30" transform="translate(226.953125 0)"/>
      </g>
     </g>
    </g>
    <g id="xtick_23">
     <g id="line2d_30">
      <g>
       <use xlink:href="#m52c96336c9" x="422.592159" y="150.39475" style="stroke: #000000; stroke-width: 0.8"/>
      </g>
     </g>
     <g id="text_33">
      <!-- 21-22 -->
      <g transform="translate(425.351534 186.452562) rotate(-90) scale(0.1 -0.1)">
       <use xlink:href="#DejaVuSans-32"/>
       <use xlink:href="#DejaVuSans-31" transform="translate(63.623047 0)"/>
       <use xlink:href="#DejaVuSans-2d" transform="translate(127.246094 0)"/>
       <use xlink:href="#DejaVuSans-32" transform="translate(163.330078 0)"/>
       <use xlink:href="#DejaVuSans-32" transform="translate(226.953125 0)"/>
      </g>
     </g>
    </g>
    <g id="xtick_24">
     <g id="line2d_31">
      <g>
       <use xlink:href="#m52c96336c9" x="439.50125" y="150.39475" style="stroke: #000000; stroke-width: 0.8"/>
      </g>
     </g>
     <g id="text_34">
      <!-- 23-24 -->
      <g transform="translate(442.260625 186.452562) rotate(-90) scale(0.1 -0.1)">
       <use xlink:href="#DejaVuSans-32"/>
       <use xlink:href="#DejaVuSans-33" transform="translate(63.623047 0)"/>
       <use xlink:href="#DejaVuSans-2d" transform="translate(127.246094 0)"/>
       <use xlink:href="#DejaVuSans-32" transform="translate(163.330078 0)"/>
       <use xlink:href="#DejaVuSans-34" transform="translate(226.953125 0)"/>
      </g>
     </g>
    </g>
    <g id="text_35">
     <!-- horas -->
     <g transform="translate(329.758438 199.570687) scale(0.12 -0.12)">
      <use xlink:href="#DejaVuSans-68"/>
      <use xlink:href="#DejaVuSans-6f" transform="translate(63.378906 0)"/>
      <use xlink:href="#DejaVuSans-72" transform="translate(124.560547 0)"/>
      <use xlink:href="#DejaVuSans-61" transform="translate(165.673828 0)"/>
      <use xlink:href="#DejaVuSans-73" transform="translate(226.953125 0)"/>
     </g>
    </g>
   </g>
   <g id="matplotlib.axis_4">
    <g id="ytick_6">
     <g id="line2d_32">
      <defs>
       <path id="mbdbe433a3d" d="M 0 0 
L -3.5 0 
" style="stroke: #ffffff; stroke-width: 0.8"/>
      </defs>
      <g>
       <use xlink:href="#mbdbe433a3d" x="253.50125" y="149.036507" style="fill: #ffffff; stroke: #ffffff; stroke-width: 0.8"/>
      </g>
     </g>
    </g>
    <g id="ytick_7">
     <g id="line2d_33">
      <g>
       <use xlink:href="#mbdbe433a3d" x="253.50125" y="122.642467" style="fill: #ffffff; stroke: #ffffff; stroke-width: 0.8"/>
      </g>
     </g>
    </g>
    <g id="ytick_8">
     <g id="line2d_34">
      <g>
       <use xlink:href="#mbdbe433a3d" x="253.50125" y="96.248427" style="fill: #ffffff; stroke: #ffffff; stroke-width: 0.8"/>
      </g>
     </g>
    </g>
    <g id="ytick_9">
     <g id="line2d_35">
      <g>
       <use xlink:href="#mbdbe433a3d" x="253.50125" y="69.854388" style="fill: #ffffff; stroke: #ffffff; stroke-width: 0.8"/>
      </g>
     </g>
    </g>
    <g id="ytick_10">
     <g id="line2d_36">
      <g>
       <use xlink:href="#mbdbe433a3d" x="253.50125" y="43.460348" style="fill: #ffffff; stroke: #ffffff; stroke-width: 0.8"/>
      </g>
     </g>
    </g>
   </g>
   <g id="line2d_37">
    <path d="M 253.50125 97.111447 
L 270.410341 101.316624 
L 287.319432 101.670925 
L 304.228523 96.572243 
L 321.137614 88.696657 
L 338.046705 85.681956 
L 354.955795 90.171952 
L 371.864886 85.300259 
L 388.773977 86.147006 
L 405.683068 73.74958 
L 422.592159 69.885546 
L 439.50125 85.575417 
" clip-path="url(#p6c79318a23)" style="fill: none; stroke: #a1150b; stroke-width: 2.5; stroke-linecap: square"/>
   </g>
   <g id="line2d_38">
    <path d="M 253.50125 96.328256 
L 270.410341 99.834348 
L 287.319432 97.982938 
L 304.228523 76.857663 
L 321.137614 119.053525 
L 338.046705 130.556245 
L 354.955795 120.01246 
L 371.864886 107.832824 
L 388.773977 54.897769 
L 405.683068 45.27891 
L 422.592159 44.55475 
L 439.50125 63.111634 
" clip-path="url(#p6c79318a23)" style="fill: none; stroke: #207653; stroke-width: 2.5; stroke-linecap: square"/>
   </g>
   <g id="text_36">
    <path d="M 307.75764 94.940585 
Q 306.770407 95.400399 306.494288 95.803068 
Q 306.218169 96.205736 306.472155 96.751051 
Q 306.674024 97.18447 307.078885 97.306162 
Q 307.483085 97.426438 307.97316 97.198181 
Q 308.651617 96.882182 308.837318 96.211367 
Q 309.023018 95.540552 308.652265 94.744534 
L 308.567822 94.563234 
L 307.75764 94.940585 
z
M 309.225244 93.846801 
L 310.542674 96.675357 
L 309.728242 97.054687 
L 309.377939 96.302577 
Q 309.308694 96.882955 308.992547 97.292201 
Q 308.676399 97.701447 308.074428 97.981821 
Q 307.31382 98.336083 306.664173 98.118115 
Q 306.015943 97.899488 305.682132 97.182788 
Q 305.292907 96.34711 305.654475 95.661606 
Q 306.017459 94.975443 307.127918 94.458235 
L 308.270955 93.925853 
L 308.233352 93.845118 
Q 307.97145 93.282806 307.458613 93.14763 
Q 306.945776 93.012453 306.277234 93.323834 
Q 305.852313 93.521745 305.496137 93.811742 
Q 305.141377 94.101079 304.865277 94.477883 
L 304.514315 93.724357 
Q 304.879997 93.343749 305.261087 93.062833 
Q 305.641516 92.7805 306.039526 92.595123 
Q 307.115992 92.093748 307.907066 92.404421 
Q 308.697481 92.713678 309.225244 93.846801 
z
M 313.566871 89.464943 
L 313.921792 90.226967 
Q 313.48713 90.196721 313.095911 90.263449 
Q 312.704692 90.330178 312.350591 90.495104 
Q 311.557406 90.864538 311.352516 91.57187 
Q 311.148383 92.277125 311.571253 93.185039 
Q 311.994124 94.092953 312.665987 94.391927 
Q 313.338607 94.688826 314.131793 94.319391 
Q 314.485894 94.154465 314.788712 93.897939 
Q 315.091531 93.641412 315.348073 93.28923 
L 315.699035 94.042756 
Q 315.431569 94.360382 315.103081 94.609904 
Q 314.776668 94.860183 314.364495 95.052157 
Q 313.244121 95.573983 312.256204 95.177453 
Q 311.269704 94.780264 310.712913 93.58482 
Q 310.148206 92.372379 310.490661 91.368281 
Q 310.833871 90.362106 311.993905 89.821809 
Q 312.369252 89.646987 312.763885 89.557984 
Q 313.157859 89.467564 313.566871 89.464943 
z
M 315.044706 86.832329 
L 315.700452 88.240234 
L 317.377473 87.459144 
L 317.672361 88.092276 
L 315.99534 88.873366 
L 317.248778 91.564531 
Q 317.531132 92.170751 317.777335 92.266367 
Q 318.023538 92.361982 318.533443 92.124489 
L 319.36912 91.735263 
L 319.686438 92.416553 
L 318.850761 92.805778 
Q 317.907436 93.245142 317.38548 93.060779 
Q 316.862864 92.875 316.430098 91.94584 
L 315.176659 89.254675 
L 314.578937 89.53307 
L 314.28405 88.899938 
L 314.881772 88.621543 
L 314.226025 87.213638 
L 315.044706 86.832329 
z
M 319.76315 90.00044 
L 318.365237 86.999082 
L 319.179668 86.619752 
L 320.563068 89.589949 
Q 320.890941 90.293901 321.328573 90.519262 
Q 321.766962 90.742547 322.316526 90.486582 
Q 322.975154 90.17982 323.16165 89.581028 
Q 323.349563 88.981576 323.011135 88.254962 
L 321.702281 85.444819 
L 322.516713 85.065489 
L 324.825678 90.022898 
L 324.011247 90.402228 
L 323.656326 89.640204 
Q 323.570743 90.229914 323.280654 90.632195 
Q 322.991981 91.033816 322.473577 91.275267 
Q 321.619487 91.673069 320.928764 91.348405 
Q 320.239457 91.023082 319.76315 90.00044 
z
M 320.359356 85.925512 
L 320.359356 85.925512 
z
M 327.59613 85.700602 
Q 326.608897 86.160415 326.332778 86.563084 
Q 326.056658 86.965752 326.310645 87.511067 
Q 326.512514 87.944487 326.917374 88.066179 
Q 327.321575 88.186455 327.81165 87.958197 
Q 328.490107 87.642199 328.675807 86.971384 
Q 328.861508 86.300569 328.490754 85.50455 
L 328.406312 85.323251 
L 327.59613 85.700602 
z
M 329.063734 84.606817 
L 330.381163 87.435373 
L 329.566732 87.814703 
L 329.216429 87.062593 
Q 329.147184 87.642971 328.831036 88.052217 
Q 328.514889 88.461463 327.912918 88.741838 
Q 327.15231 89.096099 326.502663 88.878131 
Q 325.854432 88.659504 325.520622 87.942804 
Q 325.131396 87.107127 325.492964 86.421623 
Q 325.855948 85.735459 326.966408 85.218251 
L 328.109445 84.685869 
L 328.071842 84.605135 
Q 327.809939 84.042823 327.297102 83.907646 
Q 326.784265 83.77247 326.115723 84.08385 
Q 325.690803 84.281761 325.334626 84.571758 
Q 324.979867 84.861095 324.703767 85.2379 
L 324.352804 84.484373 
Q 324.718487 84.103765 325.099576 83.822849 
Q 325.480006 83.540516 325.878015 83.355139 
Q 326.954481 82.853764 327.745556 83.164438 
Q 328.53597 83.473695 329.063734 84.606817 
z
M 328.849865 79.766399 
L 329.664296 79.387069 
L 332.872439 86.275036 
L 332.058007 86.654366 
L 328.849865 79.766399 
z
" clip-path="url(#p6c79318a23)" style="fill: #a1150b; stroke: #ffffff; stroke-width: 5"/>
    <path d="M 307.75764 94.940585 
Q 306.770407 95.400399 306.494288 95.803068 
Q 306.218169 96.205736 306.472155 96.751051 
Q 306.674024 97.18447 307.078885 97.306162 
Q 307.483085 97.426438 307.97316 97.198181 
Q 308.651617 96.882182 308.837318 96.211367 
Q 309.023018 95.540552 308.652265 94.744534 
L 308.567822 94.563234 
L 307.75764 94.940585 
z
M 309.225244 93.846801 
L 310.542674 96.675357 
L 309.728242 97.054687 
L 309.377939 96.302577 
Q 309.308694 96.882955 308.992547 97.292201 
Q 308.676399 97.701447 308.074428 97.981821 
Q 307.31382 98.336083 306.664173 98.118115 
Q 306.015943 97.899488 305.682132 97.182788 
Q 305.292907 96.34711 305.654475 95.661606 
Q 306.017459 94.975443 307.127918 94.458235 
L 308.270955 93.925853 
L 308.233352 93.845118 
Q 307.97145 93.282806 307.458613 93.14763 
Q 306.945776 93.012453 306.277234 93.323834 
Q 305.852313 93.521745 305.496137 93.811742 
Q 305.141377 94.101079 304.865277 94.477883 
L 304.514315 93.724357 
Q 304.879997 93.343749 305.261087 93.062833 
Q 305.641516 92.7805 306.039526 92.595123 
Q 307.115992 92.093748 307.907066 92.404421 
Q 308.697481 92.713678 309.225244 93.846801 
z
M 313.566871 89.464943 
L 313.921792 90.226967 
Q 313.48713 90.196721 313.095911 90.263449 
Q 312.704692 90.330178 312.350591 90.495104 
Q 311.557406 90.864538 311.352516 91.57187 
Q 311.148383 92.277125 311.571253 93.185039 
Q 311.994124 94.092953 312.665987 94.391927 
Q 313.338607 94.688826 314.131793 94.319391 
Q 314.485894 94.154465 314.788712 93.897939 
Q 315.091531 93.641412 315.348073 93.28923 
L 315.699035 94.042756 
Q 315.431569 94.360382 315.103081 94.609904 
Q 314.776668 94.860183 314.364495 95.052157 
Q 313.244121 95.573983 312.256204 95.177453 
Q 311.269704 94.780264 310.712913 93.58482 
Q 310.148206 92.372379 310.490661 91.368281 
Q 310.833871 90.362106 311.993905 89.821809 
Q 312.369252 89.646987 312.763885 89.557984 
Q 313.157859 89.467564 313.566871 89.464943 
z
M 315.044706 86.832329 
L 315.700452 88.240234 
L 317.377473 87.459144 
L 317.672361 88.092276 
L 315.99534 88.873366 
L 317.248778 91.564531 
Q 317.531132 92.170751 317.777335 92.266367 
Q 318.023538 92.361982 318.533443 92.124489 
L 319.36912 91.735263 
L 319.686438 92.416553 
L 318.850761 92.805778 
Q 317.907436 93.245142 317.38548 93.060779 
Q 316.862864 92.875 316.430098 91.94584 
L 315.176659 89.254675 
L 314.578937 89.53307 
L 314.28405 88.899938 
L 314.881772 88.621543 
L 314.226025 87.213638 
L 315.044706 86.832329 
z
M 319.76315 90.00044 
L 318.365237 86.999082 
L 319.179668 86.619752 
L 320.563068 89.589949 
Q 320.890941 90.293901 321.328573 90.519262 
Q 321.766962 90.742547 322.316526 90.486582 
Q 322.975154 90.17982 323.16165 89.581028 
Q 323.349563 88.981576 323.011135 88.254962 
L 321.702281 85.444819 
L 322.516713 85.065489 
L 324.825678 90.022898 
L 324.011247 90.402228 
L 323.656326 89.640204 
Q 323.570743 90.229914 323.280654 90.632195 
Q 322.991981 91.033816 322.473577 91.275267 
Q 321.619487 91.673069 320.928764 91.348405 
Q 320.239457 91.023082 319.76315 90.00044 
z
M 320.359356 85.925512 
L 320.359356 85.925512 
z
M 327.59613 85.700602 
Q 326.608897 86.160415 326.332778 86.563084 
Q 326.056658 86.965752 326.310645 87.511067 
Q 326.512514 87.944487 326.917374 88.066179 
Q 327.321575 88.186455 327.81165 87.958197 
Q 328.490107 87.642199 328.675807 86.971384 
Q 328.861508 86.300569 328.490754 85.50455 
L 328.406312 85.323251 
L 327.59613 85.700602 
z
M 329.063734 84.606817 
L 330.381163 87.435373 
L 329.566732 87.814703 
L 329.216429 87.062593 
Q 329.147184 87.642971 328.831036 88.052217 
Q 328.514889 88.461463 327.912918 88.741838 
Q 327.15231 89.096099 326.502663 88.878131 
Q 325.854432 88.659504 325.520622 87.942804 
Q 325.131396 87.107127 325.492964 86.421623 
Q 325.855948 85.735459 326.966408 85.218251 
L 328.109445 84.685869 
L 328.071842 84.605135 
Q 327.809939 84.042823 327.297102 83.907646 
Q 326.784265 83.77247 326.115723 84.08385 
Q 325.690803 84.281761 325.334626 84.571758 
Q 324.979867 84.861095 324.703767 85.2379 
L 324.352804 84.484373 
Q 324.718487 84.103765 325.099576 83.822849 
Q 325.480006 83.540516 325.878015 83.355139 
Q 326.954481 82.853764 327.745556 83.164438 
Q 328.53597 83.473695 329.063734 84.606817 
z
M 328.849865 79.766399 
L 329.664296 79.387069 
L 332.872439 86.275036 
L 332.058007 86.654366 
L 328.849865 79.766399 
z
" clip-path="url(#p6c79318a23)" style="fill: #a1150b"/>
   </g>
   <g id="text_37">
    <path d="M 369.123842 122.786392 
L 371.886329 123.668815 
L 371.611522 124.529115 
L 364.421021 122.232247 
L 364.695827 121.371947 
L 365.486172 121.624408 
Q 365.10832 121.205179 365.014792 120.722586 
Q 364.920252 120.23803 365.102822 119.666481 
Q 365.406156 118.716876 366.348517 118.365064 
Q 367.291353 118.011764 368.51929 118.404005 
Q 369.747227 118.796246 370.312148 119.63117 
Q 370.876056 120.464132 370.572723 121.413736 
Q 370.390153 121.985285 370.032217 122.325307 
Q 369.674757 122.66384 369.123842 122.786392 
z
M 368.235451 119.292584 
Q 367.2918 118.991153 366.630393 119.207993 
Q 365.968987 119.424832 365.752185 120.103546 
Q 365.534907 120.783749 365.948132 121.343859 
Q 366.361356 121.903969 367.305007 122.2054 
Q 368.248658 122.506831 368.910065 122.289992 
Q 369.571471 122.073152 369.788748 121.392949 
Q 370.005551 120.714235 369.592326 120.154125 
Q 369.179101 119.594016 368.235451 119.292584 
z
M 368.126445 113.389664 
Q 367.996976 113.507415 367.904077 113.664732 
Q 367.80969 113.821573 367.744554 114.025485 
Q 367.512537 114.751829 367.860272 115.291019 
Q 368.208007 115.830209 369.092121 116.112623 
L 371.836747 116.989341 
L 371.56194 117.849641 
L 366.352511 116.185588 
L 366.627317 115.325288 
L 367.437011 115.583929 
Q 367.04874 115.161372 366.957403 114.656516 
Q 366.865054 114.149695 367.062839 113.530517 
Q 367.09089 113.442701 367.137029 113.339339 
Q 367.18168 113.235502 367.246858 113.113617 
L 368.126445 113.389664 
z
M 368.790048 110.624121 
Q 368.570393 111.311766 368.979814 111.883783 
Q 369.389235 112.4558 370.323955 112.754378 
Q 371.258676 113.052957 371.922935 112.827187 
Q 372.587669 112.599929 372.80875 111.907819 
Q 373.027454 111.223151 372.616069 110.652147 
Q 372.203672 110.079179 371.273416 109.782027 
Q 370.347626 109.486301 369.677951 109.713621 
Q 369.008752 109.939453 368.790048 110.624121 
z
M 368.065193 110.39258 
Q 368.421775 109.276274 369.351609 108.871251 
Q 370.280429 108.464265 371.563437 108.874098 
Q 372.84198 109.282504 373.367335 110.153998 
Q 373.891676 111.023529 373.535094 112.139835 
Q 373.177085 113.260607 372.246239 113.663665 
Q 371.314379 114.06476 370.035837 113.656354 
Q 368.752829 113.246522 368.230513 112.380918 
Q 367.707184 111.513352 368.065193 110.39258 
z
M 374.099538 107.20964 
L 376.862024 108.092063 
L 376.587218 108.952363 
L 369.396717 106.655495 
L 369.671523 105.795195 
L 370.461868 106.047655 
Q 370.084015 105.628427 369.990488 105.145834 
Q 369.895948 104.661277 370.078518 104.089729 
Q 370.381851 103.140124 371.324212 102.788312 
Q 372.267049 102.435011 373.494986 102.827252 
Q 374.722923 103.219493 375.287844 104.054418 
Q 375.851752 104.887379 375.548419 105.836984 
Q 375.365849 106.408533 375.007913 106.748554 
Q 374.650452 107.087088 374.099538 107.20964 
z
M 373.211146 103.715832 
Q 372.267495 103.414401 371.606089 103.63124 
Q 370.944683 103.84808 370.72788 104.526794 
Q 370.510603 105.206997 370.923827 105.767106 
Q 371.337052 106.327216 372.280703 106.628647 
Q 373.224354 106.930079 373.88576 106.713239 
Q 374.547166 106.4964 374.764444 105.816197 
Q 374.981246 105.137483 374.568022 104.577373 
Q 374.154797 104.017263 373.211146 103.715832 
z
M 374.464552 101.671372 
L 371.310615 100.663907 
L 371.583995 99.808072 
L 374.705187 100.805077 
Q 375.444926 101.041373 375.907301 100.872495 
Q 376.368662 100.701654 376.553134 100.124152 
Q 376.774215 99.432042 376.460528 98.888965 
Q 376.147316 98.344399 375.383762 98.100497 
L 372.43076 97.157217 
L 372.70414 96.301382 
L 377.913569 97.965434 
L 377.640189 98.821269 
L 376.839426 98.565481 
Q 377.21486 99.028224 377.313866 99.514207 
Q 377.413347 99.998702 377.239334 100.543459 
Q 376.952642 101.44097 376.245675 101.72855 
Q 375.539183 102.014642 374.464552 101.671372 
z
M 371.873555 98.470243 
L 371.873555 98.470243 
z
M 377.081046 90.846002 
L 377.499289 90.979601 
L 376.242216 94.914953 
Q 377.144398 95.140807 377.759434 94.812379 
Q 378.374471 94.483952 378.646425 93.632582 
Q 378.803797 93.139919 378.831099 92.638513 
Q 378.858401 92.137107 378.761751 91.602668 
L 379.571446 91.86131 
Q 379.61904 92.384999 379.567221 92.901538 
Q 379.515402 93.418076 379.356603 93.915204 
Q 378.958182 95.162491 378.000835 95.658781 
Q 377.042 96.154597 375.803644 95.759028 
Q 374.525101 95.350621 373.995549 94.420376 
Q 373.464509 93.489656 373.839158 92.31679 
Q 374.174821 91.265974 375.047454 90.870565 
Q 375.918599 90.47468 377.081046 90.846002 
z
M 376.556125 91.621487 
Q 375.852232 91.406483 375.311325 91.656893 
Q 374.768929 91.906827 374.566866 92.539401 
Q 374.338177 93.255325 374.605621 93.814796 
Q 374.873065 94.374266 375.587419 94.674626 
L 376.556125 91.621487 
z
M 376.353264 85.406457 
L 377.162958 85.665099 
Q 376.861374 85.967352 376.644051 86.329325 
Q 376.425715 86.689335 376.29164 87.109067 
Q 376.08815 87.746105 376.181387 88.126908 
Q 376.274624 88.50771 376.666075 88.632752 
Q 376.963757 88.727841 377.206178 88.554315 
Q 377.4486 88.380789 377.822036 87.740627 
L 377.981188 87.46833 
Q 378.467141 86.619707 378.945535 86.349328 
Q 379.42393 86.07895 380.060968 86.28244 
Q 380.787312 86.514456 381.027987 87.224484 
Q 381.267174 87.934035 380.946249 88.938711 
Q 380.812649 89.356954 380.585777 89.784769 
Q 380.358904 90.212584 380.036443 90.662354 
L 379.152328 90.379941 
Q 379.551071 89.984062 379.821521 89.563606 
Q 380.090482 89.142674 380.235017 88.690198 
Q 380.428047 88.085904 380.324805 87.695344 
Q 380.222038 87.303296 379.845471 87.183009 
Q 379.497184 87.071755 379.236012 87.247493 
Q 378.975317 87.421743 378.548299 88.16289 
L 378.383255 88.438226 
Q 377.962666 89.179786 377.502712 89.423249 
Q 377.043232 89.665223 376.438939 89.472193 
Q 375.703665 89.237324 375.471177 88.588962 
Q 375.2372 87.940125 375.543386 86.98159 
Q 375.694577 86.508276 375.898132 86.112379 
Q 376.100674 85.714518 376.353264 85.406457 
z
M 375.5156 82.395719 
L 376.995078 82.86831 
L 377.558003 81.106034 
L 378.223322 81.318557 
L 377.660397 83.080833 
L 380.488373 83.984176 
Q 381.125411 84.187666 381.362624 84.071526 
Q 381.599837 83.955386 381.770996 83.419559 
L 382.051508 82.541398 
L 382.767433 82.770087 
L 382.486921 83.648248 
Q 382.170276 84.639528 381.680863 84.898185 
Q 381.189962 85.156367 380.213566 84.844476 
L 377.38559 83.941133 
L 377.184953 84.569241 
L 376.519634 84.356718 
L 376.720272 83.72861 
L 375.240794 83.256019 
L 375.5156 82.395719 
z
M 381.265367 78.439929 
Q 380.933982 79.477349 381.042745 79.953327 
Q 381.151508 80.429304 381.724545 80.61235 
Q 382.179998 80.757836 382.543951 80.542757 
Q 382.906416 80.327203 383.070919 79.812214 
Q 383.298657 79.099266 382.931489 78.507941 
Q 382.564322 77.916615 381.727837 77.649416 
L 381.53732 77.588559 
L 381.265367 78.439929 
z
M 381.456459 76.619569 
L 384.428811 77.56903 
L 384.155431 78.424864 
L 383.365086 78.172404 
Q 383.744737 78.616811 383.831195 79.126671 
Q 383.917653 79.63653 383.715589 80.269104 
Q 383.460276 81.068379 382.859586 81.398109 
Q 382.259371 81.726351 381.506236 81.485776 
Q 380.628075 81.205264 380.369353 80.47471 
Q 380.111106 79.742667 380.483854 78.575755 
L 380.867537 77.374609 
L 380.782697 77.347509 
Q 380.191799 77.158758 379.744724 77.444061 
Q 379.297648 77.729365 379.073239 78.431893 
Q 378.930606 78.878416 378.90227 79.336844 
Q 378.874409 79.793784 378.964174 80.252211 
L 378.172341 79.999275 
Q 378.14052 79.472422 378.192422 79.001838 
Q 378.242836 78.530779 378.376435 78.112536 
Q 378.737772 76.981346 379.502497 76.610518 
Q 380.265733 76.239214 381.456459 76.619569 
z
" clip-path="url(#p6c79318a23)" style="fill: #207653; stroke: #ffffff; stroke-width: 5"/>
    <path d="M 369.123842 122.786392 
L 371.886329 123.668815 
L 371.611522 124.529115 
L 364.421021 122.232247 
L 364.695827 121.371947 
L 365.486172 121.624408 
Q 365.10832 121.205179 365.014792 120.722586 
Q 364.920252 120.23803 365.102822 119.666481 
Q 365.406156 118.716876 366.348517 118.365064 
Q 367.291353 118.011764 368.51929 118.404005 
Q 369.747227 118.796246 370.312148 119.63117 
Q 370.876056 120.464132 370.572723 121.413736 
Q 370.390153 121.985285 370.032217 122.325307 
Q 369.674757 122.66384 369.123842 122.786392 
z
M 368.235451 119.292584 
Q 367.2918 118.991153 366.630393 119.207993 
Q 365.968987 119.424832 365.752185 120.103546 
Q 365.534907 120.783749 365.948132 121.343859 
Q 366.361356 121.903969 367.305007 122.2054 
Q 368.248658 122.506831 368.910065 122.289992 
Q 369.571471 122.073152 369.788748 121.392949 
Q 370.005551 120.714235 369.592326 120.154125 
Q 369.179101 119.594016 368.235451 119.292584 
z
M 368.126445 113.389664 
Q 367.996976 113.507415 367.904077 113.664732 
Q 367.80969 113.821573 367.744554 114.025485 
Q 367.512537 114.751829 367.860272 115.291019 
Q 368.208007 115.830209 369.092121 116.112623 
L 371.836747 116.989341 
L 371.56194 117.849641 
L 366.352511 116.185588 
L 366.627317 115.325288 
L 367.437011 115.583929 
Q 367.04874 115.161372 366.957403 114.656516 
Q 366.865054 114.149695 367.062839 113.530517 
Q 367.09089 113.442701 367.137029 113.339339 
Q 367.18168 113.235502 367.246858 113.113617 
L 368.126445 113.389664 
z
M 368.790048 110.624121 
Q 368.570393 111.311766 368.979814 111.883783 
Q 369.389235 112.4558 370.323955 112.754378 
Q 371.258676 113.052957 371.922935 112.827187 
Q 372.587669 112.599929 372.80875 111.907819 
Q 373.027454 111.223151 372.616069 110.652147 
Q 372.203672 110.079179 371.273416 109.782027 
Q 370.347626 109.486301 369.677951 109.713621 
Q 369.008752 109.939453 368.790048 110.624121 
z
M 368.065193 110.39258 
Q 368.421775 109.276274 369.351609 108.871251 
Q 370.280429 108.464265 371.563437 108.874098 
Q 372.84198 109.282504 373.367335 110.153998 
Q 373.891676 111.023529 373.535094 112.139835 
Q 373.177085 113.260607 372.246239 113.663665 
Q 371.314379 114.06476 370.035837 113.656354 
Q 368.752829 113.246522 368.230513 112.380918 
Q 367.707184 111.513352 368.065193 110.39258 
z
M 374.099538 107.20964 
L 376.862024 108.092063 
L 376.587218 108.952363 
L 369.396717 106.655495 
L 369.671523 105.795195 
L 370.461868 106.047655 
Q 370.084015 105.628427 369.990488 105.145834 
Q 369.895948 104.661277 370.078518 104.089729 
Q 370.381851 103.140124 371.324212 102.788312 
Q 372.267049 102.435011 373.494986 102.827252 
Q 374.722923 103.219493 375.287844 104.054418 
Q 375.851752 104.887379 375.548419 105.836984 
Q 375.365849 106.408533 375.007913 106.748554 
Q 374.650452 107.087088 374.099538 107.20964 
z
M 373.211146 103.715832 
Q 372.267495 103.414401 371.606089 103.63124 
Q 370.944683 103.84808 370.72788 104.526794 
Q 370.510603 105.206997 370.923827 105.767106 
Q 371.337052 106.327216 372.280703 106.628647 
Q 373.224354 106.930079 373.88576 106.713239 
Q 374.547166 106.4964 374.764444 105.816197 
Q 374.981246 105.137483 374.568022 104.577373 
Q 374.154797 104.017263 373.211146 103.715832 
z
M 374.464552 101.671372 
L 371.310615 100.663907 
L 371.583995 99.808072 
L 374.705187 100.805077 
Q 375.444926 101.041373 375.907301 100.872495 
Q 376.368662 100.701654 376.553134 100.124152 
Q 376.774215 99.432042 376.460528 98.888965 
Q 376.147316 98.344399 375.383762 98.100497 
L 372.43076 97.157217 
L 372.70414 96.301382 
L 377.913569 97.965434 
L 377.640189 98.821269 
L 376.839426 98.565481 
Q 377.21486 99.028224 377.313866 99.514207 
Q 377.413347 99.998702 377.239334 100.543459 
Q 376.952642 101.44097 376.245675 101.72855 
Q 375.539183 102.014642 374.464552 101.671372 
z
M 371.873555 98.470243 
L 371.873555 98.470243 
z
M 377.081046 90.846002 
L 377.499289 90.979601 
L 376.242216 94.914953 
Q 377.144398 95.140807 377.759434 94.812379 
Q 378.374471 94.483952 378.646425 93.632582 
Q 378.803797 93.139919 378.831099 92.638513 
Q 378.858401 92.137107 378.761751 91.602668 
L 379.571446 91.86131 
Q 379.61904 92.384999 379.567221 92.901538 
Q 379.515402 93.418076 379.356603 93.915204 
Q 378.958182 95.162491 378.000835 95.658781 
Q 377.042 96.154597 375.803644 95.759028 
Q 374.525101 95.350621 373.995549 94.420376 
Q 373.464509 93.489656 373.839158 92.31679 
Q 374.174821 91.265974 375.047454 90.870565 
Q 375.918599 90.47468 377.081046 90.846002 
z
M 376.556125 91.621487 
Q 375.852232 91.406483 375.311325 91.656893 
Q 374.768929 91.906827 374.566866 92.539401 
Q 374.338177 93.255325 374.605621 93.814796 
Q 374.873065 94.374266 375.587419 94.674626 
L 376.556125 91.621487 
z
M 376.353264 85.406457 
L 377.162958 85.665099 
Q 376.861374 85.967352 376.644051 86.329325 
Q 376.425715 86.689335 376.29164 87.109067 
Q 376.08815 87.746105 376.181387 88.126908 
Q 376.274624 88.50771 376.666075 88.632752 
Q 376.963757 88.727841 377.206178 88.554315 
Q 377.4486 88.380789 377.822036 87.740627 
L 377.981188 87.46833 
Q 378.467141 86.619707 378.945535 86.349328 
Q 379.42393 86.07895 380.060968 86.28244 
Q 380.787312 86.514456 381.027987 87.224484 
Q 381.267174 87.934035 380.946249 88.938711 
Q 380.812649 89.356954 380.585777 89.784769 
Q 380.358904 90.212584 380.036443 90.662354 
L 379.152328 90.379941 
Q 379.551071 89.984062 379.821521 89.563606 
Q 380.090482 89.142674 380.235017 88.690198 
Q 380.428047 88.085904 380.324805 87.695344 
Q 380.222038 87.303296 379.845471 87.183009 
Q 379.497184 87.071755 379.236012 87.247493 
Q 378.975317 87.421743 378.548299 88.16289 
L 378.383255 88.438226 
Q 377.962666 89.179786 377.502712 89.423249 
Q 377.043232 89.665223 376.438939 89.472193 
Q 375.703665 89.237324 375.471177 88.588962 
Q 375.2372 87.940125 375.543386 86.98159 
Q 375.694577 86.508276 375.898132 86.112379 
Q 376.100674 85.714518 376.353264 85.406457 
z
M 375.5156 82.395719 
L 376.995078 82.86831 
L 377.558003 81.106034 
L 378.223322 81.318557 
L 377.660397 83.080833 
L 380.488373 83.984176 
Q 381.125411 84.187666 381.362624 84.071526 
Q 381.599837 83.955386 381.770996 83.419559 
L 382.051508 82.541398 
L 382.767433 82.770087 
L 382.486921 83.648248 
Q 382.170276 84.639528 381.680863 84.898185 
Q 381.189962 85.156367 380.213566 84.844476 
L 377.38559 83.941133 
L 377.184953 84.569241 
L 376.519634 84.356718 
L 376.720272 83.72861 
L 375.240794 83.256019 
L 375.5156 82.395719 
z
M 381.265367 78.439929 
Q 380.933982 79.477349 381.042745 79.953327 
Q 381.151508 80.429304 381.724545 80.61235 
Q 382.179998 80.757836 382.543951 80.542757 
Q 382.906416 80.327203 383.070919 79.812214 
Q 383.298657 79.099266 382.931489 78.507941 
Q 382.564322 77.916615 381.727837 77.649416 
L 381.53732 77.588559 
L 381.265367 78.439929 
z
M 381.456459 76.619569 
L 384.428811 77.56903 
L 384.155431 78.424864 
L 383.365086 78.172404 
Q 383.744737 78.616811 383.831195 79.126671 
Q 383.917653 79.63653 383.715589 80.269104 
Q 383.460276 81.068379 382.859586 81.398109 
Q 382.259371 81.726351 381.506236 81.485776 
Q 380.628075 81.205264 380.369353 80.47471 
Q 380.111106 79.742667 380.483854 78.575755 
L 380.867537 77.374609 
L 380.782697 77.347509 
Q 380.191799 77.158758 379.744724 77.444061 
Q 379.297648 77.729365 379.073239 78.431893 
Q 378.930606 78.878416 378.90227 79.336844 
Q 378.874409 79.793784 378.964174 80.252211 
L 378.172341 79.999275 
Q 378.14052 79.472422 378.192422 79.001838 
Q 378.242836 78.530779 378.376435 78.112536 
Q 378.737772 76.981346 379.502497 76.610518 
Q 380.265733 76.239214 381.456459 76.619569 
z
" clip-path="url(#p6c79318a23)" style="fill: #207653"/>
   </g>
   <g id="patch_8">
    <path d="M 253.50125 150.39475 
L 253.50125 39.51475 
" style="fill: none; stroke: #000000; stroke-width: 0.8; stroke-linejoin: miter; stroke-linecap: square"/>
   </g>
   <g id="patch_9">
    <path d="M 439.50125 150.39475 
L 439.50125 39.51475 
" style="fill: none; stroke: #000000; stroke-width: 0.8; stroke-linejoin: miter; stroke-linecap: square"/>
   </g>
   <g id="patch_10">
    <path d="M 253.50125 150.39475 
L 439.50125 150.39475 
" style="fill: none; stroke: #000000; stroke-width: 0.8; stroke-linejoin: miter; stroke-linecap: square"/>
   </g>
   <g id="patch_11">
    <path d="M 253.50125 39.51475 
L 439.50125 39.51475 
" style="fill: none; stroke: #000000; stroke-width: 0.8; stroke-linejoin: miter; stroke-linecap: square"/>
   </g>
   <g id="text_38">
    <!-- Estación húmeda  -->
    <g transform="translate(283.703594 17.837812) scale(0.14 -0.14)">
     <defs>
      <path id="DejaVuSans-fa" d="M 544 1381 
L 544 3500 
L 1119 3500 
L 1119 1403 
Q 1119 906 1312 657 
Q 1506 409 1894 409 
Q 2359 409 2629 706 
Q 2900 1003 2900 1516 
L 2900 3500 
L 3475 3500 
L 3475 0 
L 2900 0 
L 2900 538 
Q 2691 219 2414 64 
Q 2138 -91 1772 -91 
Q 1169 -91 856 284 
Q 544 659 544 1381 
z
M 1991 3584 
L 1991 3584 
z
M 2418 5119 
L 3040 5119 
L 2022 3944 
L 1543 3944 
L 2418 5119 
z
" transform="scale(0.015625)"/>
      <path id="DejaVuSans-6d" d="M 3328 2828 
Q 3544 3216 3844 3400 
Q 4144 3584 4550 3584 
Q 5097 3584 5394 3201 
Q 5691 2819 5691 2113 
L 5691 0 
L 5113 0 
L 5113 2094 
Q 5113 2597 4934 2840 
Q 4756 3084 4391 3084 
Q 3944 3084 3684 2787 
Q 3425 2491 3425 1978 
L 3425 0 
L 2847 0 
L 2847 2094 
Q 2847 2600 2669 2842 
Q 2491 3084 2119 3084 
Q 1678 3084 1418 2786 
Q 1159 2488 1159 1978 
L 1159 0 
L 581 0 
L 581 3500 
L 1159 3500 
L 1159 2956 
Q 1356 3278 1631 3431 
Q 1906 3584 2284 3584 
Q 2666 3584 2933 3390 
Q 3200 3197 3328 2828 
z
" transform="scale(0.015625)"/>
     </defs>
     <use xlink:href="#DejaVuSans-45"/>
     <use xlink:href="#DejaVuSans-73" transform="translate(63.183594 0)"/>
     <use xlink:href="#DejaVuSans-74" transform="translate(115.283203 0)"/>
     <use xlink:href="#DejaVuSans-61" transform="translate(154.492188 0)"/>
     <use xlink:href="#DejaVuSans-63" transform="translate(215.771484 0)"/>
     <use xlink:href="#DejaVuSans-69" transform="translate(270.751953 0)"/>
     <use xlink:href="#DejaVuSans-f3" transform="translate(298.535156 0)"/>
     <use xlink:href="#DejaVuSans-6e" transform="translate(359.716797 0)"/>
     <use xlink:href="#DejaVuSans-20" transform="translate(423.095703 0)"/>
     <use xlink:href="#DejaVuSans-68" transform="translate(454.882812 0)"/>
     <use xlink:href="#DejaVuSans-fa" transform="translate(518.261719 0)"/>
     <use xlink:href="#DejaVuSans-6d" transform="translate(581.640625 0)"/>
     <use xlink:href="#DejaVuSans-65" transform="translate(679.052734 0)"/>
     <use xlink:href="#DejaVuSans-64" transform="translate(740.576172 0)"/>
     <use xlink:href="#DejaVuSans-61" transform="translate(804.052734 0)"/>
     <use xlink:href="#DejaVuSans-20" transform="translate(865.332031 0)"/>
    </g>
    <!--  (nov-abr) -->
    <g transform="translate(311.998906 33.51475) scale(0.14 -0.14)">
     <use xlink:href="#DejaVuSans-20"/>
     <use xlink:href="#DejaVuSans-28" transform="translate(31.787109 0)"/>
     <use xlink:href="#DejaVuSans-6e" transform="translate(70.800781 0)"/>
     <use xlink:href="#DejaVuSans-6f" transform="translate(134.179688 0)"/>
     <use xlink:href="#DejaVuSans-76" transform="translate(195.361328 0)"/>
     <use xlink:href="#DejaVuSans-2d" transform="translate(251.916016 0)"/>
     <use xlink:href="#DejaVuSans-61" transform="translate(288 0)"/>
     <use xlink:href="#DejaVuSans-62" transform="translate(349.279297 0)"/>
     <use xlink:href="#DejaVuSans-72" transform="translate(412.755859 0)"/>
     <use xlink:href="#DejaVuSans-29" transform="translate(453.869141 0)"/>
    </g>
   </g>
  </g>
 </g>
 <defs>
  <clipPath id="p4819030aad">
   <rect x="48.90125" y="39.51475" width="186" height="110.88"/>
  </clipPath>
  <clipPath id="p6c79318a23">
   <rect x="253.50125" y="39.51475" width="186" height="110.88"/>
  </clipPath>
 </defs>
</svg>
