<?xml version="1.0" encoding="utf-8" standalone="no"?>
<!DOCTYPE svg PUBLIC "-//W3C//DTD SVG 1.1//EN"
  "http://www.w3.org/Graphics/SVG/1.1/DTD/svg11.dtd">
<svg xmlns:xlink="http://www.w3.org/1999/xlink" width="451.540312pt" height="209.266312pt" viewBox="0 0 451.540312 209.266312" xmlns="http://www.w3.org/2000/svg" version="1.1">
 <metadata>
  <rdf:RDF xmlns:dc="http://purl.org/dc/elements/1.1/" xmlns:cc="http://creativecommons.org/ns#" xmlns:rdf="http://www.w3.org/1999/02/22-rdf-syntax-ns#">
   <cc:Work>
    <dc:type rdf:resource="http://purl.org/dc/dcmitype/StillImage"/>
    <dc:date>2026-01-06T16:37:56.919023</dc:date>
    <dc:format>image/svg+xml</dc:format>
    <dc:creator>
     <cc:Agent>
      <dc:title>Matplotlib v3.10.3, https://matplotlib.org/</dc:title>
     </cc:Agent>
    </dc:creator>
   </cc:Work>
  </rdf:RDF>
 </metadata>
 <defs>
  <style type="text/css">*{stroke-linejoin: round; stroke-linecap: butt}</style>
 </defs>
 <g id="figure_1">
  <g id="patch_1">
   <path d="M 0 209.266312 
L 451.540312 209.266312 
L 451.540312 0 
L 0 0 
z
" style="fill: #ffffff"/>
  </g>
  <g id="axes_1">
   <g id="patch_2">
    <path d="M 48.90125 150.39475 
L 234.90125 150.39475 
L 234.90125 39.51475 
L 48.90125 39.51475 
z
" style="fill: #ffffff"/>
   </g>
   <g id="matplotlib.axis_1">
    <g id="xtick_1">
     <g id="line2d_1">
      <defs>
       <path id="mc19dedb475" d="M 0 0 
L 0 3.5 
" style="stroke: #000000; stroke-width: 0.8"/>
      </defs>
      <g>
       <use xlink:href="#mc19dedb475" x="48.90125" y="150.39475" style="stroke: #000000; stroke-width: 0.8"/>
      </g>
     </g>
     <g id="text_1">
      <!-- 1-2 -->
      <g transform="translate(51.660625 173.727562) rotate(-90) scale(0.1 -0.1)">
       <defs>
        <path id="DejaVuSans-31" d="M 794 531 
L 1825 531 
L 1825 4091 
L 703 3866 
L 703 4441 
L 1819 4666 
L 2450 4666 
L 2450 531 
L 3481 531 
L 3481 0 
L 794 0 
L 794 531 
z
" transform="scale(0.015625)"/>
        <path id="DejaVuSans-2d" d="M 313 2009 
L 1997 2009 
L 1997 1497 
L 313 1497 
L 313 2009 
z
" transform="scale(0.015625)"/>
        <path id="DejaVuSans-32" d="M 1228 531 
L 3431 531 
L 3431 0 
L 469 0 
L 469 531 
Q 828 903 1448 1529 
Q 2069 2156 2228 2338 
Q 2531 2678 2651 2914 
Q 2772 3150 2772 3378 
Q 2772 3750 2511 3984 
Q 2250 4219 1831 4219 
Q 1534 4219 1204 4116 
Q 875 4013 500 3803 
L 500 4441 
Q 881 4594 1212 4672 
Q 1544 4750 1819 4750 
Q 2544 4750 2975 4387 
Q 3406 4025 3406 3419 
Q 3406 3131 3298 2873 
Q 3191 2616 2906 2266 
Q 2828 2175 2409 1742 
Q 1991 1309 1228 531 
z
" transform="scale(0.015625)"/>
       </defs>
       <use xlink:href="#DejaVuSans-31"/>
       <use xlink:href="#DejaVuSans-2d" transform="translate(63.623047 0)"/>
       <use xlink:href="#DejaVuSans-32" transform="translate(99.707031 0)"/>
      </g>
     </g>
    </g>
    <g id="xtick_2">
     <g id="line2d_2">
      <g>
       <use xlink:href="#mc19dedb475" x="65.810341" y="150.39475" style="stroke: #000000; stroke-width: 0.8"/>
      </g>
     </g>
     <g id="text_2">
      <!-- 3-4 -->
      <g transform="translate(68.569716 173.727562) rotate(-90) scale(0.1 -0.1)">
       <defs>
        <path id="DejaVuSans-33" d="M 2597 2516 
Q 3050 2419 3304 2112 
Q 3559 1806 3559 1356 
Q 3559 666 3084 287 
Q 2609 -91 1734 -91 
Q 1441 -91 1130 -33 
Q 819 25 488 141 
L 488 750 
Q 750 597 1062 519 
Q 1375 441 1716 441 
Q 2309 441 2620 675 
Q 2931 909 2931 1356 
Q 2931 1769 2642 2001 
Q 2353 2234 1838 2234 
L 1294 2234 
L 1294 2753 
L 1863 2753 
Q 2328 2753 2575 2939 
Q 2822 3125 2822 3475 
Q 2822 3834 2567 4026 
Q 2313 4219 1838 4219 
Q 1578 4219 1281 4162 
Q 984 4106 628 3988 
L 628 4550 
Q 988 4650 1302 4700 
Q 1616 4750 1894 4750 
Q 2613 4750 3031 4423 
Q 3450 4097 3450 3541 
Q 3450 3153 3228 2886 
Q 3006 2619 2597 2516 
z
" transform="scale(0.015625)"/>
        <path id="DejaVuSans-34" d="M 2419 4116 
L 825 1625 
L 2419 1625 
L 2419 4116 
z
M 2253 4666 
L 3047 4666 
L 3047 1625 
L 3713 1625 
L 3713 1100 
L 3047 1100 
L 3047 0 
L 2419 0 
L 2419 1100 
L 313 1100 
L 313 1709 
L 2253 4666 
z
" transform="scale(0.015625)"/>
       </defs>
       <use xlink:href="#DejaVuSans-33"/>
       <use xlink:href="#DejaVuSans-2d" transform="translate(63.623047 0)"/>
       <use xlink:href="#DejaVuSans-34" transform="translate(99.707031 0)"/>
      </g>
     </g>
    </g>
    <g id="xtick_3">
     <g id="line2d_3">
      <g>
       <use xlink:href="#mc19dedb475" x="82.719432" y="150.39475" style="stroke: #000000; stroke-width: 0.8"/>
      </g>
     </g>
     <g id="text_3">
      <!-- 5-6 -->
      <g transform="translate(85.478807 173.727562) rotate(-90) scale(0.1 -0.1)">
       <defs>
        <path id="DejaVuSans-35" d="M 691 4666 
L 3169 4666 
L 3169 4134 
L 1269 4134 
L 1269 2991 
Q 1406 3038 1543 3061 
Q 1681 3084 1819 3084 
Q 2600 3084 3056 2656 
Q 3513 2228 3513 1497 
Q 3513 744 3044 326 
Q 2575 -91 1722 -91 
Q 1428 -91 1123 -41 
Q 819 9 494 109 
L 494 744 
Q 775 591 1075 516 
Q 1375 441 1709 441 
Q 2250 441 2565 725 
Q 2881 1009 2881 1497 
Q 2881 1984 2565 2268 
Q 2250 2553 1709 2553 
Q 1456 2553 1204 2497 
Q 953 2441 691 2322 
L 691 4666 
z
" transform="scale(0.015625)"/>
        <path id="DejaVuSans-36" d="M 2113 2584 
Q 1688 2584 1439 2293 
Q 1191 2003 1191 1497 
Q 1191 994 1439 701 
Q 1688 409 2113 409 
Q 2538 409 2786 701 
Q 3034 994 3034 1497 
Q 3034 2003 2786 2293 
Q 2538 2584 2113 2584 
z
M 3366 4563 
L 3366 3988 
Q 3128 4100 2886 4159 
Q 2644 4219 2406 4219 
Q 1781 4219 1451 3797 
Q 1122 3375 1075 2522 
Q 1259 2794 1537 2939 
Q 1816 3084 2150 3084 
Q 2853 3084 3261 2657 
Q 3669 2231 3669 1497 
Q 3669 778 3244 343 
Q 2819 -91 2113 -91 
Q 1303 -91 875 529 
Q 447 1150 447 2328 
Q 447 3434 972 4092 
Q 1497 4750 2381 4750 
Q 2619 4750 2861 4703 
Q 3103 4656 3366 4563 
z
" transform="scale(0.015625)"/>
       </defs>
       <use xlink:href="#DejaVuSans-35"/>
       <use xlink:href="#DejaVuSans-2d" transform="translate(63.623047 0)"/>
       <use xlink:href="#DejaVuSans-36" transform="translate(99.707031 0)"/>
      </g>
     </g>
    </g>
    <g id="xtick_4">
     <g id="line2d_4">
      <g>
       <use xlink:href="#mc19dedb475" x="99.628523" y="150.39475" style="stroke: #000000; stroke-width: 0.8"/>
      </g>
     </g>
     <g id="text_4">
      <!-- 7-8 -->
      <g transform="translate(102.387898 173.727562) rotate(-90) scale(0.1 -0.1)">
       <defs>
        <path id="DejaVuSans-37" d="M 525 4666 
L 3525 4666 
L 3525 4397 
L 1831 0 
L 1172 0 
L 2766 4134 
L 525 4134 
L 525 4666 
z
" transform="scale(0.015625)"/>
        <path id="DejaVuSans-38" d="M 2034 2216 
Q 1584 2216 1326 1975 
Q 1069 1734 1069 1313 
Q 1069 891 1326 650 
Q 1584 409 2034 409 
Q 2484 409 2743 651 
Q 3003 894 3003 1313 
Q 3003 1734 2745 1975 
Q 2488 2216 2034 2216 
z
M 1403 2484 
Q 997 2584 770 2862 
Q 544 3141 544 3541 
Q 544 4100 942 4425 
Q 1341 4750 2034 4750 
Q 2731 4750 3128 4425 
Q 3525 4100 3525 3541 
Q 3525 3141 3298 2862 
Q 3072 2584 2669 2484 
Q 3125 2378 3379 2068 
Q 3634 1759 3634 1313 
Q 3634 634 3220 271 
Q 2806 -91 2034 -91 
Q 1263 -91 848 271 
Q 434 634 434 1313 
Q 434 1759 690 2068 
Q 947 2378 1403 2484 
z
M 1172 3481 
Q 1172 3119 1398 2916 
Q 1625 2713 2034 2713 
Q 2441 2713 2670 2916 
Q 2900 3119 2900 3481 
Q 2900 3844 2670 4047 
Q 2441 4250 2034 4250 
Q 1625 4250 1398 4047 
Q 1172 3844 1172 3481 
z
" transform="scale(0.015625)"/>
       </defs>
       <use xlink:href="#DejaVuSans-37"/>
       <use xlink:href="#DejaVuSans-2d" transform="translate(63.623047 0)"/>
       <use xlink:href="#DejaVuSans-38" transform="translate(99.707031 0)"/>
      </g>
     </g>
    </g>
    <g id="xtick_5">
     <g id="line2d_5">
      <g>
       <use xlink:href="#mc19dedb475" x="116.537614" y="150.39475" style="stroke: #000000; stroke-width: 0.8"/>
      </g>
     </g>
     <g id="text_5">
      <!-- 9-10 -->
      <g transform="translate(119.296989 180.090062) rotate(-90) scale(0.1 -0.1)">
       <defs>
        <path id="DejaVuSans-39" d="M 703 97 
L 703 672 
Q 941 559 1184 500 
Q 1428 441 1663 441 
Q 2288 441 2617 861 
Q 2947 1281 2994 2138 
Q 2813 1869 2534 1725 
Q 2256 1581 1919 1581 
Q 1219 1581 811 2004 
Q 403 2428 403 3163 
Q 403 3881 828 4315 
Q 1253 4750 1959 4750 
Q 2769 4750 3195 4129 
Q 3622 3509 3622 2328 
Q 3622 1225 3098 567 
Q 2575 -91 1691 -91 
Q 1453 -91 1209 -44 
Q 966 3 703 97 
z
M 1959 2075 
Q 2384 2075 2632 2365 
Q 2881 2656 2881 3163 
Q 2881 3666 2632 3958 
Q 2384 4250 1959 4250 
Q 1534 4250 1286 3958 
Q 1038 3666 1038 3163 
Q 1038 2656 1286 2365 
Q 1534 2075 1959 2075 
z
" transform="scale(0.015625)"/>
        <path id="DejaVuSans-30" d="M 2034 4250 
Q 1547 4250 1301 3770 
Q 1056 3291 1056 2328 
Q 1056 1369 1301 889 
Q 1547 409 2034 409 
Q 2525 409 2770 889 
Q 3016 1369 3016 2328 
Q 3016 3291 2770 3770 
Q 2525 4250 2034 4250 
z
M 2034 4750 
Q 2819 4750 3233 4129 
Q 3647 3509 3647 2328 
Q 3647 1150 3233 529 
Q 2819 -91 2034 -91 
Q 1250 -91 836 529 
Q 422 1150 422 2328 
Q 422 3509 836 4129 
Q 1250 4750 2034 4750 
z
" transform="scale(0.015625)"/>
       </defs>
       <use xlink:href="#DejaVuSans-39"/>
       <use xlink:href="#DejaVuSans-2d" transform="translate(63.623047 0)"/>
       <use xlink:href="#DejaVuSans-31" transform="translate(99.707031 0)"/>
       <use xlink:href="#DejaVuSans-30" transform="translate(163.330078 0)"/>
      </g>
     </g>
    </g>
    <g id="xtick_6">
     <g id="line2d_6">
      <g>
       <use xlink:href="#mc19dedb475" x="133.446705" y="150.39475" style="stroke: #000000; stroke-width: 0.8"/>
      </g>
     </g>
     <g id="text_6">
      <!-- 11-12 -->
      <g transform="translate(136.20608 186.452562) rotate(-90) scale(0.1 -0.1)">
       <use xlink:href="#DejaVuSans-31"/>
       <use xlink:href="#DejaVuSans-31" transform="translate(63.623047 0)"/>
       <use xlink:href="#DejaVuSans-2d" transform="translate(127.246094 0)"/>
       <use xlink:href="#DejaVuSans-31" transform="translate(163.330078 0)"/>
       <use xlink:href="#DejaVuSans-32" transform="translate(226.953125 0)"/>
      </g>
     </g>
    </g>
    <g id="xtick_7">
     <g id="line2d_7">
      <g>
       <use xlink:href="#mc19dedb475" x="150.355795" y="150.39475" style="stroke: #000000; stroke-width: 0.8"/>
      </g>
     </g>
     <g id="text_7">
      <!-- 13-14 -->
      <g transform="translate(153.11517 186.452562) rotate(-90) scale(0.1 -0.1)">
       <use xlink:href="#DejaVuSans-31"/>
       <use xlink:href="#DejaVuSans-33" transform="translate(63.623047 0)"/>
       <use xlink:href="#DejaVuSans-2d" transform="translate(127.246094 0)"/>
       <use xlink:href="#DejaVuSans-31" transform="translate(163.330078 0)"/>
       <use xlink:href="#DejaVuSans-34" transform="translate(226.953125 0)"/>
      </g>
     </g>
    </g>
    <g id="xtick_8">
     <g id="line2d_8">
      <g>
       <use xlink:href="#mc19dedb475" x="167.264886" y="150.39475" style="stroke: #000000; stroke-width: 0.8"/>
      </g>
     </g>
     <g id="text_8">
      <!-- 15-16 -->
      <g transform="translate(170.024261 186.452562) rotate(-90) scale(0.1 -0.1)">
       <use xlink:href="#DejaVuSans-31"/>
       <use xlink:href="#DejaVuSans-35" transform="translate(63.623047 0)"/>
       <use xlink:href="#DejaVuSans-2d" transform="translate(127.246094 0)"/>
       <use xlink:href="#DejaVuSans-31" transform="translate(163.330078 0)"/>
       <use xlink:href="#DejaVuSans-36" transform="translate(226.953125 0)"/>
      </g>
     </g>
    </g>
    <g id="xtick_9">
     <g id="line2d_9">
      <g>
       <use xlink:href="#mc19dedb475" x="184.173977" y="150.39475" style="stroke: #000000; stroke-width: 0.8"/>
      </g>
     </g>
     <g id="text_9">
      <!-- 17-18 -->
      <g transform="translate(186.933352 186.452562) rotate(-90) scale(0.1 -0.1)">
       <use xlink:href="#DejaVuSans-31"/>
       <use xlink:href="#DejaVuSans-37" transform="translate(63.623047 0)"/>
       <use xlink:href="#DejaVuSans-2d" transform="translate(127.246094 0)"/>
       <use xlink:href="#DejaVuSans-31" transform="translate(163.330078 0)"/>
       <use xlink:href="#DejaVuSans-38" transform="translate(226.953125 0)"/>
      </g>
     </g>
    </g>
    <g id="xtick_10">
     <g id="line2d_10">
      <g>
       <use xlink:href="#mc19dedb475" x="201.083068" y="150.39475" style="stroke: #000000; stroke-width: 0.8"/>
      </g>
     </g>
     <g id="text_10">
      <!-- 19-20 -->
      <g transform="translate(203.842443 186.452562) rotate(-90) scale(0.1 -0.1)">
       <use xlink:href="#DejaVuSans-31"/>
       <use xlink:href="#DejaVuSans-39" transform="translate(63.623047 0)"/>
       <use xlink:href="#DejaVuSans-2d" transform="translate(127.246094 0)"/>
       <use xlink:href="#DejaVuSans-32" transform="translate(163.330078 0)"/>
       <use xlink:href="#DejaVuSans-30" transform="translate(226.953125 0)"/>
      </g>
     </g>
    </g>
    <g id="xtick_11">
     <g id="line2d_11">
      <g>
       <use xlink:href="#mc19dedb475" x="217.992159" y="150.39475" style="stroke: #000000; stroke-width: 0.8"/>
      </g>
     </g>
     <g id="text_11">
      <!-- 21-22 -->
      <g transform="translate(220.751534 186.452562) rotate(-90) scale(0.1 -0.1)">
       <use xlink:href="#DejaVuSans-32"/>
       <use xlink:href="#DejaVuSans-31" transform="translate(63.623047 0)"/>
       <use xlink:href="#DejaVuSans-2d" transform="translate(127.246094 0)"/>
       <use xlink:href="#DejaVuSans-32" transform="translate(163.330078 0)"/>
       <use xlink:href="#DejaVuSans-32" transform="translate(226.953125 0)"/>
      </g>
     </g>
    </g>
    <g id="xtick_12">
     <g id="line2d_12">
      <g>
       <use xlink:href="#mc19dedb475" x="234.90125" y="150.39475" style="stroke: #000000; stroke-width: 0.8"/>
      </g>
     </g>
     <g id="text_12">
      <!-- 23-24 -->
      <g transform="translate(237.660625 186.452562) rotate(-90) scale(0.1 -0.1)">
       <use xlink:href="#DejaVuSans-32"/>
       <use xlink:href="#DejaVuSans-33" transform="translate(63.623047 0)"/>
       <use xlink:href="#DejaVuSans-2d" transform="translate(127.246094 0)"/>
       <use xlink:href="#DejaVuSans-32" transform="translate(163.330078 0)"/>
       <use xlink:href="#DejaVuSans-34" transform="translate(226.953125 0)"/>
      </g>
     </g>
    </g>
    <g id="text_13">
     <!-- horas -->
     <g transform="translate(125.158438 199.570687) scale(0.12 -0.12)">
      <defs>
       <path id="DejaVuSans-68" d="M 3513 2113 
L 3513 0 
L 2938 0 
L 2938 2094 
Q 2938 2591 2744 2837 
Q 2550 3084 2163 3084 
Q 1697 3084 1428 2787 
Q 1159 2491 1159 1978 
L 1159 0 
L 581 0 
L 581 4863 
L 1159 4863 
L 1159 2956 
Q 1366 3272 1645 3428 
Q 1925 3584 2291 3584 
Q 2894 3584 3203 3211 
Q 3513 2838 3513 2113 
z
" transform="scale(0.015625)"/>
       <path id="DejaVuSans-6f" d="M 1959 3097 
Q 1497 3097 1228 2736 
Q 959 2375 959 1747 
Q 959 1119 1226 758 
Q 1494 397 1959 397 
Q 2419 397 2687 759 
Q 2956 1122 2956 1747 
Q 2956 2369 2687 2733 
Q 2419 3097 1959 3097 
z
M 1959 3584 
Q 2709 3584 3137 3096 
Q 3566 2609 3566 1747 
Q 3566 888 3137 398 
Q 2709 -91 1959 -91 
Q 1206 -91 779 398 
Q 353 888 353 1747 
Q 353 2609 779 3096 
Q 1206 3584 1959 3584 
z
" transform="scale(0.015625)"/>
       <path id="DejaVuSans-72" d="M 2631 2963 
Q 2534 3019 2420 3045 
Q 2306 3072 2169 3072 
Q 1681 3072 1420 2755 
Q 1159 2438 1159 1844 
L 1159 0 
L 581 0 
L 581 3500 
L 1159 3500 
L 1159 2956 
Q 1341 3275 1631 3429 
Q 1922 3584 2338 3584 
Q 2397 3584 2469 3576 
Q 2541 3569 2628 3553 
L 2631 2963 
z
" transform="scale(0.015625)"/>
       <path id="DejaVuSans-61" d="M 2194 1759 
Q 1497 1759 1228 1600 
Q 959 1441 959 1056 
Q 959 750 1161 570 
Q 1363 391 1709 391 
Q 2188 391 2477 730 
Q 2766 1069 2766 1631 
L 2766 1759 
L 2194 1759 
z
M 3341 1997 
L 3341 0 
L 2766 0 
L 2766 531 
Q 2569 213 2275 61 
Q 1981 -91 1556 -91 
Q 1019 -91 701 211 
Q 384 513 384 1019 
Q 384 1609 779 1909 
Q 1175 2209 1959 2209 
L 2766 2209 
L 2766 2266 
Q 2766 2663 2505 2880 
Q 2244 3097 1772 3097 
Q 1472 3097 1187 3025 
Q 903 2953 641 2809 
L 641 3341 
Q 956 3463 1253 3523 
Q 1550 3584 1831 3584 
Q 2591 3584 2966 3190 
Q 3341 2797 3341 1997 
z
" transform="scale(0.015625)"/>
       <path id="DejaVuSans-73" d="M 2834 3397 
L 2834 2853 
Q 2591 2978 2328 3040 
Q 2066 3103 1784 3103 
Q 1356 3103 1142 2972 
Q 928 2841 928 2578 
Q 928 2378 1081 2264 
Q 1234 2150 1697 2047 
L 1894 2003 
Q 2506 1872 2764 1633 
Q 3022 1394 3022 966 
Q 3022 478 2636 193 
Q 2250 -91 1575 -91 
Q 1294 -91 989 -36 
Q 684 19 347 128 
L 347 722 
Q 666 556 975 473 
Q 1284 391 1588 391 
Q 1994 391 2212 530 
Q 2431 669 2431 922 
Q 2431 1156 2273 1281 
Q 2116 1406 1581 1522 
L 1381 1569 
Q 847 1681 609 1914 
Q 372 2147 372 2553 
Q 372 3047 722 3315 
Q 1072 3584 1716 3584 
Q 2034 3584 2315 3537 
Q 2597 3491 2834 3397 
z
" transform="scale(0.015625)"/>
      </defs>
      <use xlink:href="#DejaVuSans-68"/>
      <use xlink:href="#DejaVuSans-6f" transform="translate(63.378906 0)"/>
      <use xlink:href="#DejaVuSans-72" transform="translate(124.560547 0)"/>
      <use xlink:href="#DejaVuSans-61" transform="translate(165.673828 0)"/>
      <use xlink:href="#DejaVuSans-73" transform="translate(226.953125 0)"/>
     </g>
    </g>
   </g>
   <g id="matplotlib.axis_2">
    <g id="ytick_1">
     <g id="line2d_13">
      <defs>
       <path id="m1cee2758ad" d="M 0 0 
L -3.5 0 
" style="stroke: #000000; stroke-width: 0.8"/>
      </defs>
      <g>
       <use xlink:href="#m1cee2758ad" x="48.90125" y="115.426881" style="stroke: #000000; stroke-width: 0.8"/>
      </g>
     </g>
     <g id="text_14">
      <!-- 60 -->
      <g transform="translate(29.17625 119.2261) scale(0.1 -0.1)">
       <use xlink:href="#DejaVuSans-36"/>
       <use xlink:href="#DejaVuSans-30" transform="translate(63.623047 0)"/>
      </g>
     </g>
    </g>
    <g id="ytick_2">
     <g id="line2d_14">
      <g>
       <use xlink:href="#m1cee2758ad" x="48.90125" y="78.70557" style="stroke: #000000; stroke-width: 0.8"/>
      </g>
     </g>
     <g id="text_15">
      <!-- 80 -->
      <g transform="translate(29.17625 82.504788) scale(0.1 -0.1)">
       <use xlink:href="#DejaVuSans-38"/>
       <use xlink:href="#DejaVuSans-30" transform="translate(63.623047 0)"/>
      </g>
     </g>
    </g>
    <g id="ytick_3">
     <g id="line2d_15">
      <g>
       <use xlink:href="#m1cee2758ad" x="48.90125" y="41.984258" style="stroke: #000000; stroke-width: 0.8"/>
      </g>
     </g>
     <g id="text_16">
      <!-- 100 -->
      <g transform="translate(22.81375 45.783477) scale(0.1 -0.1)">
       <use xlink:href="#DejaVuSans-31"/>
       <use xlink:href="#DejaVuSans-30" transform="translate(63.623047 0)"/>
       <use xlink:href="#DejaVuSans-30" transform="translate(127.246094 0)"/>
      </g>
     </g>
    </g>
    <g id="text_17">
     <!-- disponibilidad [%] -->
     <g transform="translate(16.318125 148.900375) rotate(-90) scale(0.12 -0.12)">
      <defs>
       <path id="DejaVuSans-64" d="M 2906 2969 
L 2906 4863 
L 3481 4863 
L 3481 0 
L 2906 0 
L 2906 525 
Q 2725 213 2448 61 
Q 2172 -91 1784 -91 
Q 1150 -91 751 415 
Q 353 922 353 1747 
Q 353 2572 751 3078 
Q 1150 3584 1784 3584 
Q 2172 3584 2448 3432 
Q 2725 3281 2906 2969 
z
M 947 1747 
Q 947 1113 1208 752 
Q 1469 391 1925 391 
Q 2381 391 2643 752 
Q 2906 1113 2906 1747 
Q 2906 2381 2643 2742 
Q 2381 3103 1925 3103 
Q 1469 3103 1208 2742 
Q 947 2381 947 1747 
z
" transform="scale(0.015625)"/>
       <path id="DejaVuSans-69" d="M 603 3500 
L 1178 3500 
L 1178 0 
L 603 0 
L 603 3500 
z
M 603 4863 
L 1178 4863 
L 1178 4134 
L 603 4134 
L 603 4863 
z
" transform="scale(0.015625)"/>
       <path id="DejaVuSans-70" d="M 1159 525 
L 1159 -1331 
L 581 -1331 
L 581 3500 
L 1159 3500 
L 1159 2969 
Q 1341 3281 1617 3432 
Q 1894 3584 2278 3584 
Q 2916 3584 3314 3078 
Q 3713 2572 3713 1747 
Q 3713 922 3314 415 
Q 2916 -91 2278 -91 
Q 1894 -91 1617 61 
Q 1341 213 1159 525 
z
M 3116 1747 
Q 3116 2381 2855 2742 
Q 2594 3103 2138 3103 
Q 1681 3103 1420 2742 
Q 1159 2381 1159 1747 
Q 1159 1113 1420 752 
Q 1681 391 2138 391 
Q 2594 391 2855 752 
Q 3116 1113 3116 1747 
z
" transform="scale(0.015625)"/>
       <path id="DejaVuSans-6e" d="M 3513 2113 
L 3513 0 
L 2938 0 
L 2938 2094 
Q 2938 2591 2744 2837 
Q 2550 3084 2163 3084 
Q 1697 3084 1428 2787 
Q 1159 2491 1159 1978 
L 1159 0 
L 581 0 
L 581 3500 
L 1159 3500 
L 1159 2956 
Q 1366 3272 1645 3428 
Q 1925 3584 2291 3584 
Q 2894 3584 3203 3211 
Q 3513 2838 3513 2113 
z
" transform="scale(0.015625)"/>
       <path id="DejaVuSans-62" d="M 3116 1747 
Q 3116 2381 2855 2742 
Q 2594 3103 2138 3103 
Q 1681 3103 1420 2742 
Q 1159 2381 1159 1747 
Q 1159 1113 1420 752 
Q 1681 391 2138 391 
Q 2594 391 2855 752 
Q 3116 1113 3116 1747 
z
M 1159 2969 
Q 1341 3281 1617 3432 
Q 1894 3584 2278 3584 
Q 2916 3584 3314 3078 
Q 3713 2572 3713 1747 
Q 3713 922 3314 415 
Q 2916 -91 2278 -91 
Q 1894 -91 1617 61 
Q 1341 213 1159 525 
L 1159 0 
L 581 0 
L 581 4863 
L 1159 4863 
L 1159 2969 
z
" transform="scale(0.015625)"/>
       <path id="DejaVuSans-6c" d="M 603 4863 
L 1178 4863 
L 1178 0 
L 603 0 
L 603 4863 
z
" transform="scale(0.015625)"/>
       <path id="DejaVuSans-20" transform="scale(0.015625)"/>
       <path id="DejaVuSans-5b" d="M 550 4863 
L 1875 4863 
L 1875 4416 
L 1125 4416 
L 1125 -397 
L 1875 -397 
L 1875 -844 
L 550 -844 
L 550 4863 
z
" transform="scale(0.015625)"/>
       <path id="DejaVuSans-25" d="M 4653 2053 
Q 4381 2053 4226 1822 
Q 4072 1591 4072 1178 
Q 4072 772 4226 539 
Q 4381 306 4653 306 
Q 4919 306 5073 539 
Q 5228 772 5228 1178 
Q 5228 1588 5073 1820 
Q 4919 2053 4653 2053 
z
M 4653 2450 
Q 5147 2450 5437 2106 
Q 5728 1763 5728 1178 
Q 5728 594 5436 251 
Q 5144 -91 4653 -91 
Q 4153 -91 3862 251 
Q 3572 594 3572 1178 
Q 3572 1766 3864 2108 
Q 4156 2450 4653 2450 
z
M 1428 4353 
Q 1159 4353 1004 4120 
Q 850 3888 850 3481 
Q 850 3069 1003 2837 
Q 1156 2606 1428 2606 
Q 1700 2606 1854 2837 
Q 2009 3069 2009 3481 
Q 2009 3884 1853 4118 
Q 1697 4353 1428 4353 
z
M 4250 4750 
L 4750 4750 
L 1831 -91 
L 1331 -91 
L 4250 4750 
z
M 1428 4750 
Q 1922 4750 2215 4408 
Q 2509 4066 2509 3481 
Q 2509 2891 2217 2550 
Q 1925 2209 1428 2209 
Q 931 2209 642 2551 
Q 353 2894 353 3481 
Q 353 4063 643 4406 
Q 934 4750 1428 4750 
z
" transform="scale(0.015625)"/>
       <path id="DejaVuSans-5d" d="M 1947 4863 
L 1947 -844 
L 622 -844 
L 622 -397 
L 1369 -397 
L 1369 4416 
L 622 4416 
L 622 4863 
L 1947 4863 
z
" transform="scale(0.015625)"/>
      </defs>
      <use xlink:href="#DejaVuSans-64"/>
      <use xlink:href="#DejaVuSans-69" transform="translate(63.476562 0)"/>
      <use xlink:href="#DejaVuSans-73" transform="translate(91.259766 0)"/>
      <use xlink:href="#DejaVuSans-70" transform="translate(143.359375 0)"/>
      <use xlink:href="#DejaVuSans-6f" transform="translate(206.835938 0)"/>
      <use xlink:href="#DejaVuSans-6e" transform="translate(268.017578 0)"/>
      <use xlink:href="#DejaVuSans-69" transform="translate(331.396484 0)"/>
      <use xlink:href="#DejaVuSans-62" transform="translate(359.179688 0)"/>
      <use xlink:href="#DejaVuSans-69" transform="translate(422.65625 0)"/>
      <use xlink:href="#DejaVuSans-6c" transform="translate(450.439453 0)"/>
      <use xlink:href="#DejaVuSans-69" transform="translate(478.222656 0)"/>
      <use xlink:href="#DejaVuSans-64" transform="translate(506.005859 0)"/>
      <use xlink:href="#DejaVuSans-61" transform="translate(569.482422 0)"/>
      <use xlink:href="#DejaVuSans-64" transform="translate(630.761719 0)"/>
      <use xlink:href="#DejaVuSans-20" transform="translate(694.238281 0)"/>
      <use xlink:href="#DejaVuSans-5b" transform="translate(726.025391 0)"/>
      <use xlink:href="#DejaVuSans-25" transform="translate(765.039062 0)"/>
      <use xlink:href="#DejaVuSans-5d" transform="translate(860.058594 0)"/>
     </g>
    </g>
   </g>
   <g id="line2d_16">
    <path d="M 48.90125 80.664046 
L 65.810341 80.664046 
L 82.719432 80.664046 
L 99.628523 80.664046 
L 116.537614 79.960208 
L 133.446705 79.960208 
L 150.355795 79.960208 
L 167.264886 79.960208 
L 184.173977 79.960208 
L 201.083068 77.542734 
L 217.992159 77.542734 
L 234.90125 79.960208 
" clip-path="url(#pf2ae985067)" style="fill: none; stroke: #a1150b; stroke-width: 2.5; stroke-linecap: square"/>
   </g>
   <g id="line2d_17">
    <path d="M 48.90125 80.725242 
L 65.810341 80.725242 
L 82.719432 71.544914 
L 99.628523 71.544914 
L 116.537614 89.171143 
L 133.446705 116.712127 
L 150.355795 116.712127 
L 167.264886 98.351471 
L 184.173977 52.449832 
L 201.083068 44.55475 
L 217.992159 55.571143 
L 234.90125 79.990816 
" clip-path="url(#pf2ae985067)" style="fill: none; stroke: #207653; stroke-width: 2.5; stroke-linecap: square"/>
   </g>
   <g id="text_18">
    <path d="M 99.254871 80.690546 
Q 98.166751 80.735839 97.757134 81.001541 
Q 97.347518 81.267244 97.372536 81.868286 
Q 97.392421 82.345998 97.719469 82.613878 
Q 98.046453 82.880197 98.58661 82.857713 
Q 99.3344 82.826586 99.763543 82.278577 
Q 100.192686 81.730568 100.156166 80.853203 
L 100.147848 80.653376 
L 99.254871 80.690546 
z
M 101.030042 80.244458 
L 101.159812 83.362071 
L 100.262152 83.399435 
L 100.227646 82.570466 
Q 99.940765 83.079712 99.491664 83.336112 
Q 99.042564 83.592511 98.379076 83.620129 
Q 97.54074 83.655024 97.02467 83.204222 
Q 96.510161 82.753355 96.47728 81.963414 
Q 96.43894 81.042336 97.036099 80.548324 
Q 97.634819 80.054246 98.858759 80.0033 
L 100.118606 79.950859 
L 100.114902 79.861874 
Q 100.089104 79.242098 99.667543 78.920289 
Q 99.245982 78.598481 98.50912 78.629152 
Q 98.040776 78.648647 97.600527 78.77957 
Q 97.16184 78.910427 96.762177 79.152258 
L 96.727606 78.321727 
Q 97.21144 78.110798 97.671202 77.997829 
Q 98.130899 77.883299 98.569581 77.865039 
Q 99.756054 77.815652 100.367088 78.406376 
Q 100.978056 78.995539 101.030042 80.244458 
z
M 106.721818 77.866624 
L 106.756778 78.706522 
Q 106.367086 78.511622 105.98025 78.422946 
Q 105.593415 78.33427 105.203128 78.350516 
Q 104.328885 78.386906 103.867998 78.961258 
Q 103.408607 79.533984 103.450261 80.53468 
Q 103.491915 81.535376 103.997378 82.069504 
Q 104.504338 82.602006 105.378581 82.565616 
Q 105.768868 82.54937 106.146995 82.428852 
Q 106.525123 82.308335 106.89727 82.081724 
L 106.931841 82.912255 
Q 106.562882 83.102764 106.163745 83.206954 
Q 105.766234 83.31264 105.31194 83.33155 
Q 104.077072 83.382951 103.317281 82.637342 
Q 102.55905 81.891668 102.504205 80.574059 
Q 102.44858 79.237716 103.150478 78.442212 
Q 103.853873 77.645082 105.132453 77.591861 
Q 105.546157 77.574641 105.944702 77.644063 
Q 106.343181 77.711925 106.721818 77.866624 
z
M 109.097569 76.003708 
L 109.162161 77.555489 
L 111.010561 77.47855 
L 111.039608 78.176383 
L 109.191208 78.253322 
L 109.314675 81.219504 
Q 109.342488 81.887675 109.53307 82.070532 
Q 109.723652 82.253389 110.285665 82.229996 
L 111.206743 82.191656 
L 111.237999 82.942568 
L 110.316922 82.980908 
Q 109.277197 83.024186 108.866111 82.653462 
Q 108.45496 82.281177 108.412331 81.257063 
L 108.288865 78.290882 
L 107.63006 78.318305 
L 107.601013 77.620471 
L 108.259818 77.593049 
L 108.195225 76.041267 
L 109.097569 76.003708 
z
M 112.236964 80.741305 
L 112.099266 77.433232 
L 112.996927 77.395868 
L 113.133195 80.669595 
Q 113.165491 81.445486 113.482973 81.82167 
Q 113.801952 82.196228 114.407677 82.171015 
Q 115.133611 82.140798 115.535821 81.659592 
Q 115.939593 81.178321 115.906257 80.377452 
L 115.777331 77.280134 
L 116.674992 77.242769 
L 116.90243 82.706787 
L 116.00477 82.744152 
L 115.969809 81.904255 
Q 115.664259 82.415842 115.241893 82.67582 
Q 114.821089 82.935733 114.249708 82.959517 
Q 113.308336 82.998701 112.795328 82.43361 
Q 112.283882 81.868454 112.236964 80.741305 
z
M 114.352789 77.208066 
L 114.352789 77.208066 
z
M 121.120702 79.780385 
Q 120.032582 79.825678 119.622966 80.091381 
Q 119.213349 80.357084 119.238367 80.958126 
Q 119.258252 81.435837 119.585301 81.703717 
Q 119.912284 81.970036 120.452442 81.947552 
Q 121.200232 81.916426 121.629374 81.368417 
Q 122.058517 80.820407 122.021997 79.943042 
L 122.013679 79.743215 
L 121.120702 79.780385 
z
M 122.895874 79.334297 
L 123.025644 82.45191 
L 122.127983 82.489275 
L 122.093478 81.660305 
Q 121.806596 82.169552 121.357496 82.425951 
Q 120.908395 82.682351 120.244907 82.709968 
Q 119.406571 82.744864 118.890501 82.294061 
Q 118.375992 81.843194 118.343111 81.053253 
Q 118.304772 80.132176 118.90193 79.638163 
Q 119.50065 79.144086 120.724591 79.093139 
L 121.984437 79.040699 
L 121.980733 78.951713 
Q 121.954935 78.331937 121.533374 78.010129 
Q 121.111813 77.68832 120.374951 77.718992 
Q 119.906607 77.738486 119.466358 77.869409 
Q 119.027671 78.000267 118.628008 78.242097 
L 118.593437 77.411567 
Q 119.077271 77.200637 119.537033 77.087668 
Q 119.99673 76.973139 120.435413 76.954878 
Q 121.621885 76.905492 122.232919 77.496216 
Q 122.843888 78.085379 122.895874 79.334297 
z
M 124.557838 74.783115 
L 125.455498 74.74575 
L 125.771508 82.337614 
L 124.873848 82.374979 
L 124.557838 74.783115 
z
" clip-path="url(#pf2ae985067)" style="fill: #a1150b; stroke: #ffffff; stroke-width: 5"/>
    <path d="M 99.254871 80.690546 
Q 98.166751 80.735839 97.757134 81.001541 
Q 97.347518 81.267244 97.372536 81.868286 
Q 97.392421 82.345998 97.719469 82.613878 
Q 98.046453 82.880197 98.58661 82.857713 
Q 99.3344 82.826586 99.763543 82.278577 
Q 100.192686 81.730568 100.156166 80.853203 
L 100.147848 80.653376 
L 99.254871 80.690546 
z
M 101.030042 80.244458 
L 101.159812 83.362071 
L 100.262152 83.399435 
L 100.227646 82.570466 
Q 99.940765 83.079712 99.491664 83.336112 
Q 99.042564 83.592511 98.379076 83.620129 
Q 97.54074 83.655024 97.02467 83.204222 
Q 96.510161 82.753355 96.47728 81.963414 
Q 96.43894 81.042336 97.036099 80.548324 
Q 97.634819 80.054246 98.858759 80.0033 
L 100.118606 79.950859 
L 100.114902 79.861874 
Q 100.089104 79.242098 99.667543 78.920289 
Q 99.245982 78.598481 98.50912 78.629152 
Q 98.040776 78.648647 97.600527 78.77957 
Q 97.16184 78.910427 96.762177 79.152258 
L 96.727606 78.321727 
Q 97.21144 78.110798 97.671202 77.997829 
Q 98.130899 77.883299 98.569581 77.865039 
Q 99.756054 77.815652 100.367088 78.406376 
Q 100.978056 78.995539 101.030042 80.244458 
z
M 106.721818 77.866624 
L 106.756778 78.706522 
Q 106.367086 78.511622 105.98025 78.422946 
Q 105.593415 78.33427 105.203128 78.350516 
Q 104.328885 78.386906 103.867998 78.961258 
Q 103.408607 79.533984 103.450261 80.53468 
Q 103.491915 81.535376 103.997378 82.069504 
Q 104.504338 82.602006 105.378581 82.565616 
Q 105.768868 82.54937 106.146995 82.428852 
Q 106.525123 82.308335 106.89727 82.081724 
L 106.931841 82.912255 
Q 106.562882 83.102764 106.163745 83.206954 
Q 105.766234 83.31264 105.31194 83.33155 
Q 104.077072 83.382951 103.317281 82.637342 
Q 102.55905 81.891668 102.504205 80.574059 
Q 102.44858 79.237716 103.150478 78.442212 
Q 103.853873 77.645082 105.132453 77.591861 
Q 105.546157 77.574641 105.944702 77.644063 
Q 106.343181 77.711925 106.721818 77.866624 
z
M 109.097569 76.003708 
L 109.162161 77.555489 
L 111.010561 77.47855 
L 111.039608 78.176383 
L 109.191208 78.253322 
L 109.314675 81.219504 
Q 109.342488 81.887675 109.53307 82.070532 
Q 109.723652 82.253389 110.285665 82.229996 
L 111.206743 82.191656 
L 111.237999 82.942568 
L 110.316922 82.980908 
Q 109.277197 83.024186 108.866111 82.653462 
Q 108.45496 82.281177 108.412331 81.257063 
L 108.288865 78.290882 
L 107.63006 78.318305 
L 107.601013 77.620471 
L 108.259818 77.593049 
L 108.195225 76.041267 
L 109.097569 76.003708 
z
M 112.236964 80.741305 
L 112.099266 77.433232 
L 112.996927 77.395868 
L 113.133195 80.669595 
Q 113.165491 81.445486 113.482973 81.82167 
Q 113.801952 82.196228 114.407677 82.171015 
Q 115.133611 82.140798 115.535821 81.659592 
Q 115.939593 81.178321 115.906257 80.377452 
L 115.777331 77.280134 
L 116.674992 77.242769 
L 116.90243 82.706787 
L 116.00477 82.744152 
L 115.969809 81.904255 
Q 115.664259 82.415842 115.241893 82.67582 
Q 114.821089 82.935733 114.249708 82.959517 
Q 113.308336 82.998701 112.795328 82.43361 
Q 112.283882 81.868454 112.236964 80.741305 
z
M 114.352789 77.208066 
L 114.352789 77.208066 
z
M 121.120702 79.780385 
Q 120.032582 79.825678 119.622966 80.091381 
Q 119.213349 80.357084 119.238367 80.958126 
Q 119.258252 81.435837 119.585301 81.703717 
Q 119.912284 81.970036 120.452442 81.947552 
Q 121.200232 81.916426 121.629374 81.368417 
Q 122.058517 80.820407 122.021997 79.943042 
L 122.013679 79.743215 
L 121.120702 79.780385 
z
M 122.895874 79.334297 
L 123.025644 82.45191 
L 122.127983 82.489275 
L 122.093478 81.660305 
Q 121.806596 82.169552 121.357496 82.425951 
Q 120.908395 82.682351 120.244907 82.709968 
Q 119.406571 82.744864 118.890501 82.294061 
Q 118.375992 81.843194 118.343111 81.053253 
Q 118.304772 80.132176 118.90193 79.638163 
Q 119.50065 79.144086 120.724591 79.093139 
L 121.984437 79.040699 
L 121.980733 78.951713 
Q 121.954935 78.331937 121.533374 78.010129 
Q 121.111813 77.68832 120.374951 77.718992 
Q 119.906607 77.738486 119.466358 77.869409 
Q 119.027671 78.000267 118.628008 78.242097 
L 118.593437 77.411567 
Q 119.077271 77.200637 119.537033 77.087668 
Q 119.99673 76.973139 120.435413 76.954878 
Q 121.621885 76.905492 122.232919 77.496216 
Q 122.843888 78.085379 122.895874 79.334297 
z
M 124.557838 74.783115 
L 125.455498 74.74575 
L 125.771508 82.337614 
L 124.873848 82.374979 
L 124.557838 74.783115 
z
" clip-path="url(#pf2ae985067)" style="fill: #a1150b"/>
   </g>
   <g id="text_19">
    <path d="M 166.317275 106.533469 
L 169.038509 107.535908 
L 168.726327 108.383361 
L 161.643201 105.774103 
L 161.955383 104.92665 
L 162.733925 105.213447 
Q 162.374776 104.778088 162.302452 104.291866 
Q 162.229202 103.803637 162.436603 103.240623 
Q 162.781192 102.305199 163.738043 101.994952 
Q 164.695434 101.68324 165.905034 102.128829 
Q 167.114634 102.574417 167.642486 103.433258 
Q 168.169412 104.290093 167.824823 105.225517 
Q 167.617422 105.788531 167.244952 106.112567 
Q 166.873023 106.435137 166.317275 106.533469 
z
M 165.58259 103.004139 
Q 164.65303 102.661711 163.982771 102.849406 
Q 163.312511 103.037101 163.066222 103.70568 
Q 162.819393 104.375725 163.207717 104.953378 
Q 163.596041 105.53103 164.5256 105.873458 
Q 165.45516 106.215886 166.125419 106.028191 
Q 166.795679 105.840496 167.042508 105.170451 
Q 167.288797 104.501872 166.900473 103.92422 
Q 166.51215 103.346567 165.58259 103.004139 
z
M 165.731946 97.102102 
Q 165.59745 97.214076 165.497757 97.367178 
Q 165.396597 97.519739 165.322603 97.720606 
Q 165.05903 98.436103 165.382842 98.989991 
Q 165.706654 99.543878 166.577566 99.864702 
L 169.281206 100.86066 
L 168.969024 101.708113 
L 163.837386 99.817738 
L 164.149568 98.970285 
L 164.947172 99.264103 
Q 164.577759 98.824964 164.508598 98.316594 
Q 164.438511 97.806218 164.663196 97.196287 
Q 164.695062 97.109782 164.745679 97.008538 
Q 164.79483 96.906753 164.865278 96.787837 
L 165.731946 97.102102 
z
M 166.515907 94.36824 
Q 166.266378 95.045616 166.650381 95.634998 
Q 167.034384 96.22438 167.955146 96.563567 
Q 168.875909 96.902755 169.549409 96.706263 
Q 170.22345 96.508305 170.474599 95.82653 
Q 170.723049 95.152086 170.33704 94.56363 
Q 169.950104 93.973168 169.03374 93.635601 
Q 168.121775 93.299655 167.442796 93.497459 
Q 166.764357 93.693796 166.515907 94.36824 
z
M 165.801877 94.105208 
Q 166.206957 93.005571 167.15362 92.641618 
Q 168.099357 92.275658 169.363206 92.74123 
Q 170.622656 93.205182 171.10938 94.098827 
Q 171.595177 94.990465 171.190096 96.090102 
Q 170.783396 97.194137 169.835807 97.556085 
Q 168.887292 97.916026 167.627841 97.452074 
Q 166.363992 96.986501 165.880047 96.098875 
Q 165.395176 95.209243 165.801877 94.105208 
z
M 171.9697 91.189322 
L 174.690934 92.191761 
L 174.378752 93.039214 
L 167.295626 90.429956 
L 167.607808 89.582503 
L 168.38635 89.8693 
Q 168.027201 89.433941 167.954877 88.947719 
Q 167.881627 88.45949 168.089028 87.896476 
Q 168.433617 86.961052 169.390468 86.650805 
Q 170.347859 86.339093 171.557459 86.784681 
Q 172.767059 87.23027 173.294911 88.089111 
Q 173.821837 88.945946 173.477248 89.88137 
Q 173.269847 90.444384 172.897378 90.76842 
Q 172.525448 91.09099 171.9697 91.189322 
z
M 171.235015 87.659992 
Q 170.305456 87.317564 169.635196 87.505259 
Q 168.964936 87.692954 168.718647 88.361533 
Q 168.471818 89.031578 168.860142 89.609231 
Q 169.248466 90.186883 170.178025 90.529311 
Q 171.107585 90.871739 171.777844 90.684044 
Q 172.448104 90.496349 172.694933 89.826304 
Q 172.941222 89.157725 172.552898 88.580073 
Q 172.164575 88.00242 171.235015 87.659992 
z
M 172.576668 85.672327 
L 169.469827 84.52784 
L 169.780389 83.684785 
L 172.854973 84.81739 
Q 173.583666 85.085823 174.052986 84.937337 
Q 174.52138 84.786844 174.730942 84.217965 
Q 174.982091 83.53619 174.692464 82.979909 
Q 174.403377 82.422162 173.651226 82.145087 
L 170.74232 81.073514 
L 171.052882 80.230459 
L 176.18452 82.120835 
L 175.873958 82.96389 
L 175.085152 82.673312 
Q 175.439982 83.152038 175.51763 83.641887 
Q 175.595819 84.13027 175.39814 84.666893 
Q 175.072455 85.551001 174.353583 85.807376 
Q 173.635251 86.062284 172.576668 85.672327 
z
M 170.128203 82.360905 
L 170.128203 82.360905 
z
M 175.664274 74.971796 
L 176.076271 75.123566 
L 174.648227 79.000152 
Q 175.539664 79.26526 176.168481 78.964056 
Q 176.797298 78.662851 177.106239 77.824194 
Q 177.285015 77.338888 177.334227 76.839157 
Q 177.38344 76.339425 177.310265 75.80127 
L 178.107868 76.095088 
Q 178.132505 76.620359 178.058136 77.134135 
Q 177.983768 77.647912 177.803372 78.137617 
Q 177.350762 79.366278 176.372619 79.820208 
Q 175.39301 80.273599 174.173146 79.82423 
Q 172.913696 79.360278 172.42535 78.407755 
Q 171.935537 77.454692 172.361142 76.299341 
Q 172.742458 75.264216 173.631555 74.907364 
Q 174.519185 74.549972 175.664274 74.971796 
z
M 175.105927 75.723572 
Q 174.412115 75.477979 173.86077 75.704484 
Q 173.307959 75.930449 173.078413 76.553576 
Q 172.818622 77.25881 173.061332 77.829446 
Q 173.304043 78.400081 174.004572 78.731406 
L 175.105927 75.723572 
z
M 175.175172 69.505619 
L 175.972775 69.799437 
Q 175.658257 70.088206 175.425305 70.440325 
Q 175.191428 70.790438 175.039117 71.203902 
Q 174.807951 71.831428 174.884438 72.215945 
Q 174.960925 72.600462 175.346531 72.74251 
Q 175.639768 72.850532 175.889549 72.687778 
Q 176.13933 72.525024 176.540416 71.901813 
L 176.71133 71.63674 
Q 177.233945 70.81019 177.72371 70.561001 
Q 178.213476 70.311811 178.841002 70.542977 
Q 179.556499 70.80655 179.765879 71.526427 
Q 179.973793 72.245763 179.609221 73.235436 
Q 179.457451 73.647434 179.212078 74.064913 
Q 178.966705 74.482393 178.624875 74.917625 
L 177.753963 74.596801 
Q 178.169644 74.218747 178.45823 73.810525 
Q 178.74535 73.401764 178.909543 72.956044 
Q 179.128826 72.360774 179.04277 71.966072 
Q 178.957254 71.569903 178.58631 71.433256 
Q 178.243224 71.306871 177.974614 71.471014 
Q 177.706544 71.633691 177.24751 72.355446 
L 177.070578 72.623298 
Q 176.617948 73.345747 176.147782 73.568853 
Q 175.678156 73.790494 175.082886 73.57121 
Q 174.358592 73.304397 174.154693 72.646485 
Q 173.949327 71.988032 174.297156 71.043811 
Q 174.46891 70.577565 174.689591 70.190952 
Q 174.909346 69.802334 175.175172 69.505619 
z
M 174.470032 66.461115 
L 175.927417 66.997981 
L 176.566904 65.262022 
L 177.222288 65.503449 
L 176.582801 67.239409 
L 179.368547 68.265613 
Q 179.996073 68.496779 180.23814 68.391129 
Q 180.480207 68.285478 180.674645 67.757653 
L 180.993309 66.892605 
L 181.698542 67.152397 
L 181.379879 68.017444 
Q 181.020168 68.993922 180.519907 69.230919 
Q 180.018181 69.467377 179.056365 69.113066 
L 176.270619 68.086863 
L 176.042694 68.705592 
L 175.38731 68.464164 
L 175.615235 67.845435 
L 174.15785 67.308568 
L 174.470032 66.461115 
z
M 180.387362 62.760669 
Q 180.010907 63.782598 180.098741 64.262878 
Q 180.186576 64.743158 180.751056 64.951099 
Q 181.199707 65.116372 181.572722 64.917423 
Q 181.94427 64.717933 182.131147 64.210634 
Q 182.389859 63.508333 182.048914 62.90151 
Q 181.707969 62.294686 180.883975 61.991146 
L 180.696303 61.922012 
L 180.387362 62.760669 
z
M 180.657914 60.950412 
L 183.58588 62.029006 
L 183.275318 62.872061 
L 182.496775 62.585264 
Q 182.85662 63.045856 182.920688 63.55901 
Q 182.984756 64.072164 182.755211 64.695291 
Q 182.465173 65.482631 181.850632 65.785765 
Q 181.236631 66.087432 180.494743 65.814138 
Q 179.629695 65.495475 179.403183 64.754301 
Q 179.177211 64.01166 179.600655 62.862173 
L 180.036521 61.678964 
L 179.952949 61.648178 
Q 179.370875 61.433755 178.911745 61.699226 
Q 178.452616 61.964696 178.197685 62.656734 
Q 178.035653 63.096589 177.987287 63.553338 
Q 177.939462 64.008622 178.009084 64.470537 
L 177.229075 64.1832 
Q 177.220335 63.65546 177.292776 63.187597 
Q 177.36375 62.719194 177.515521 62.307197 
Q 177.926002 61.192899 178.706218 60.855883 
Q 179.484968 60.518326 180.657914 60.950412 
z
" clip-path="url(#pf2ae985067)" style="fill: #207653; stroke: #ffffff; stroke-width: 5"/>
    <path d="M 166.317275 106.533469 
L 169.038509 107.535908 
L 168.726327 108.383361 
L 161.643201 105.774103 
L 161.955383 104.92665 
L 162.733925 105.213447 
Q 162.374776 104.778088 162.302452 104.291866 
Q 162.229202 103.803637 162.436603 103.240623 
Q 162.781192 102.305199 163.738043 101.994952 
Q 164.695434 101.68324 165.905034 102.128829 
Q 167.114634 102.574417 167.642486 103.433258 
Q 168.169412 104.290093 167.824823 105.225517 
Q 167.617422 105.788531 167.244952 106.112567 
Q 166.873023 106.435137 166.317275 106.533469 
z
M 165.58259 103.004139 
Q 164.65303 102.661711 163.982771 102.849406 
Q 163.312511 103.037101 163.066222 103.70568 
Q 162.819393 104.375725 163.207717 104.953378 
Q 163.596041 105.53103 164.5256 105.873458 
Q 165.45516 106.215886 166.125419 106.028191 
Q 166.795679 105.840496 167.042508 105.170451 
Q 167.288797 104.501872 166.900473 103.92422 
Q 166.51215 103.346567 165.58259 103.004139 
z
M 165.731946 97.102102 
Q 165.59745 97.214076 165.497757 97.367178 
Q 165.396597 97.519739 165.322603 97.720606 
Q 165.05903 98.436103 165.382842 98.989991 
Q 165.706654 99.543878 166.577566 99.864702 
L 169.281206 100.86066 
L 168.969024 101.708113 
L 163.837386 99.817738 
L 164.149568 98.970285 
L 164.947172 99.264103 
Q 164.577759 98.824964 164.508598 98.316594 
Q 164.438511 97.806218 164.663196 97.196287 
Q 164.695062 97.109782 164.745679 97.008538 
Q 164.79483 96.906753 164.865278 96.787837 
L 165.731946 97.102102 
z
M 166.515907 94.36824 
Q 166.266378 95.045616 166.650381 95.634998 
Q 167.034384 96.22438 167.955146 96.563567 
Q 168.875909 96.902755 169.549409 96.706263 
Q 170.22345 96.508305 170.474599 95.82653 
Q 170.723049 95.152086 170.33704 94.56363 
Q 169.950104 93.973168 169.03374 93.635601 
Q 168.121775 93.299655 167.442796 93.497459 
Q 166.764357 93.693796 166.515907 94.36824 
z
M 165.801877 94.105208 
Q 166.206957 93.005571 167.15362 92.641618 
Q 168.099357 92.275658 169.363206 92.74123 
Q 170.622656 93.205182 171.10938 94.098827 
Q 171.595177 94.990465 171.190096 96.090102 
Q 170.783396 97.194137 169.835807 97.556085 
Q 168.887292 97.916026 167.627841 97.452074 
Q 166.363992 96.986501 165.880047 96.098875 
Q 165.395176 95.209243 165.801877 94.105208 
z
M 171.9697 91.189322 
L 174.690934 92.191761 
L 174.378752 93.039214 
L 167.295626 90.429956 
L 167.607808 89.582503 
L 168.38635 89.8693 
Q 168.027201 89.433941 167.954877 88.947719 
Q 167.881627 88.45949 168.089028 87.896476 
Q 168.433617 86.961052 169.390468 86.650805 
Q 170.347859 86.339093 171.557459 86.784681 
Q 172.767059 87.23027 173.294911 88.089111 
Q 173.821837 88.945946 173.477248 89.88137 
Q 173.269847 90.444384 172.897378 90.76842 
Q 172.525448 91.09099 171.9697 91.189322 
z
M 171.235015 87.659992 
Q 170.305456 87.317564 169.635196 87.505259 
Q 168.964936 87.692954 168.718647 88.361533 
Q 168.471818 89.031578 168.860142 89.609231 
Q 169.248466 90.186883 170.178025 90.529311 
Q 171.107585 90.871739 171.777844 90.684044 
Q 172.448104 90.496349 172.694933 89.826304 
Q 172.941222 89.157725 172.552898 88.580073 
Q 172.164575 88.00242 171.235015 87.659992 
z
M 172.576668 85.672327 
L 169.469827 84.52784 
L 169.780389 83.684785 
L 172.854973 84.81739 
Q 173.583666 85.085823 174.052986 84.937337 
Q 174.52138 84.786844 174.730942 84.217965 
Q 174.982091 83.53619 174.692464 82.979909 
Q 174.403377 82.422162 173.651226 82.145087 
L 170.74232 81.073514 
L 171.052882 80.230459 
L 176.18452 82.120835 
L 175.873958 82.96389 
L 175.085152 82.673312 
Q 175.439982 83.152038 175.51763 83.641887 
Q 175.595819 84.13027 175.39814 84.666893 
Q 175.072455 85.551001 174.353583 85.807376 
Q 173.635251 86.062284 172.576668 85.672327 
z
M 170.128203 82.360905 
L 170.128203 82.360905 
z
M 175.664274 74.971796 
L 176.076271 75.123566 
L 174.648227 79.000152 
Q 175.539664 79.26526 176.168481 78.964056 
Q 176.797298 78.662851 177.106239 77.824194 
Q 177.285015 77.338888 177.334227 76.839157 
Q 177.38344 76.339425 177.310265 75.80127 
L 178.107868 76.095088 
Q 178.132505 76.620359 178.058136 77.134135 
Q 177.983768 77.647912 177.803372 78.137617 
Q 177.350762 79.366278 176.372619 79.820208 
Q 175.39301 80.273599 174.173146 79.82423 
Q 172.913696 79.360278 172.42535 78.407755 
Q 171.935537 77.454692 172.361142 76.299341 
Q 172.742458 75.264216 173.631555 74.907364 
Q 174.519185 74.549972 175.664274 74.971796 
z
M 175.105927 75.723572 
Q 174.412115 75.477979 173.86077 75.704484 
Q 173.307959 75.930449 173.078413 76.553576 
Q 172.818622 77.25881 173.061332 77.829446 
Q 173.304043 78.400081 174.004572 78.731406 
L 175.105927 75.723572 
z
M 175.175172 69.505619 
L 175.972775 69.799437 
Q 175.658257 70.088206 175.425305 70.440325 
Q 175.191428 70.790438 175.039117 71.203902 
Q 174.807951 71.831428 174.884438 72.215945 
Q 174.960925 72.600462 175.346531 72.74251 
Q 175.639768 72.850532 175.889549 72.687778 
Q 176.13933 72.525024 176.540416 71.901813 
L 176.71133 71.63674 
Q 177.233945 70.81019 177.72371 70.561001 
Q 178.213476 70.311811 178.841002 70.542977 
Q 179.556499 70.80655 179.765879 71.526427 
Q 179.973793 72.245763 179.609221 73.235436 
Q 179.457451 73.647434 179.212078 74.064913 
Q 178.966705 74.482393 178.624875 74.917625 
L 177.753963 74.596801 
Q 178.169644 74.218747 178.45823 73.810525 
Q 178.74535 73.401764 178.909543 72.956044 
Q 179.128826 72.360774 179.04277 71.966072 
Q 178.957254 71.569903 178.58631 71.433256 
Q 178.243224 71.306871 177.974614 71.471014 
Q 177.706544 71.633691 177.24751 72.355446 
L 177.070578 72.623298 
Q 176.617948 73.345747 176.147782 73.568853 
Q 175.678156 73.790494 175.082886 73.57121 
Q 174.358592 73.304397 174.154693 72.646485 
Q 173.949327 71.988032 174.297156 71.043811 
Q 174.46891 70.577565 174.689591 70.190952 
Q 174.909346 69.802334 175.175172 69.505619 
z
M 174.470032 66.461115 
L 175.927417 66.997981 
L 176.566904 65.262022 
L 177.222288 65.503449 
L 176.582801 67.239409 
L 179.368547 68.265613 
Q 179.996073 68.496779 180.23814 68.391129 
Q 180.480207 68.285478 180.674645 67.757653 
L 180.993309 66.892605 
L 181.698542 67.152397 
L 181.379879 68.017444 
Q 181.020168 68.993922 180.519907 69.230919 
Q 180.018181 69.467377 179.056365 69.113066 
L 176.270619 68.086863 
L 176.042694 68.705592 
L 175.38731 68.464164 
L 175.615235 67.845435 
L 174.15785 67.308568 
L 174.470032 66.461115 
z
M 180.387362 62.760669 
Q 180.010907 63.782598 180.098741 64.262878 
Q 180.186576 64.743158 180.751056 64.951099 
Q 181.199707 65.116372 181.572722 64.917423 
Q 181.94427 64.717933 182.131147 64.210634 
Q 182.389859 63.508333 182.048914 62.90151 
Q 181.707969 62.294686 180.883975 61.991146 
L 180.696303 61.922012 
L 180.387362 62.760669 
z
M 180.657914 60.950412 
L 183.58588 62.029006 
L 183.275318 62.872061 
L 182.496775 62.585264 
Q 182.85662 63.045856 182.920688 63.55901 
Q 182.984756 64.072164 182.755211 64.695291 
Q 182.465173 65.482631 181.850632 65.785765 
Q 181.236631 66.087432 180.494743 65.814138 
Q 179.629695 65.495475 179.403183 64.754301 
Q 179.177211 64.01166 179.600655 62.862173 
L 180.036521 61.678964 
L 179.952949 61.648178 
Q 179.370875 61.433755 178.911745 61.699226 
Q 178.452616 61.964696 178.197685 62.656734 
Q 178.035653 63.096589 177.987287 63.553338 
Q 177.939462 64.008622 178.009084 64.470537 
L 177.229075 64.1832 
Q 177.220335 63.65546 177.292776 63.187597 
Q 177.36375 62.719194 177.515521 62.307197 
Q 177.926002 61.192899 178.706218 60.855883 
Q 179.484968 60.518326 180.657914 60.950412 
z
" clip-path="url(#pf2ae985067)" style="fill: #207653"/>
   </g>
   <g id="patch_3">
    <path d="M 48.90125 150.39475 
L 48.90125 39.51475 
" style="fill: none; stroke: #000000; stroke-width: 0.8; stroke-linejoin: miter; stroke-linecap: square"/>
   </g>
   <g id="patch_4">
    <path d="M 234.90125 150.39475 
L 234.90125 39.51475 
" style="fill: none; stroke: #000000; stroke-width: 0.8; stroke-linejoin: miter; stroke-linecap: square"/>
   </g>
   <g id="patch_5">
    <path d="M 48.90125 150.39475 
L 234.90125 150.39475 
" style="fill: none; stroke: #000000; stroke-width: 0.8; stroke-linejoin: miter; stroke-linecap: square"/>
   </g>
   <g id="patch_6">
    <path d="M 48.90125 39.51475 
L 234.90125 39.51475 
" style="fill: none; stroke: #000000; stroke-width: 0.8; stroke-linejoin: miter; stroke-linecap: square"/>
   </g>
   <g id="text_20">
    <!-- Estación seca  -->
    <g transform="translate(91.742969 17.837812) scale(0.14 -0.14)">
     <defs>
      <path id="DejaVuSans-45" d="M 628 4666 
L 3578 4666 
L 3578 4134 
L 1259 4134 
L 1259 2753 
L 3481 2753 
L 3481 2222 
L 1259 2222 
L 1259 531 
L 3634 531 
L 3634 0 
L 628 0 
L 628 4666 
z
" transform="scale(0.015625)"/>
      <path id="DejaVuSans-74" d="M 1172 4494 
L 1172 3500 
L 2356 3500 
L 2356 3053 
L 1172 3053 
L 1172 1153 
Q 1172 725 1289 603 
Q 1406 481 1766 481 
L 2356 481 
L 2356 0 
L 1766 0 
Q 1100 0 847 248 
Q 594 497 594 1153 
L 594 3053 
L 172 3053 
L 172 3500 
L 594 3500 
L 594 4494 
L 1172 4494 
z
" transform="scale(0.015625)"/>
      <path id="DejaVuSans-63" d="M 3122 3366 
L 3122 2828 
Q 2878 2963 2633 3030 
Q 2388 3097 2138 3097 
Q 1578 3097 1268 2742 
Q 959 2388 959 1747 
Q 959 1106 1268 751 
Q 1578 397 2138 397 
Q 2388 397 2633 464 
Q 2878 531 3122 666 
L 3122 134 
Q 2881 22 2623 -34 
Q 2366 -91 2075 -91 
Q 1284 -91 818 406 
Q 353 903 353 1747 
Q 353 2603 823 3093 
Q 1294 3584 2113 3584 
Q 2378 3584 2631 3529 
Q 2884 3475 3122 3366 
z
" transform="scale(0.015625)"/>
      <path id="DejaVuSans-f3" d="M 1959 3097 
Q 1497 3097 1228 2736 
Q 959 2375 959 1747 
Q 959 1119 1226 758 
Q 1494 397 1959 397 
Q 2419 397 2687 759 
Q 2956 1122 2956 1747 
Q 2956 2369 2687 2733 
Q 2419 3097 1959 3097 
z
M 1959 3584 
Q 2709 3584 3137 3096 
Q 3566 2609 3566 1747 
Q 3566 888 3137 398 
Q 2709 -91 1959 -91 
Q 1206 -91 779 398 
Q 353 888 353 1747 
Q 353 2609 779 3096 
Q 1206 3584 1959 3584 
z
M 2394 5119 
L 3016 5119 
L 1998 3944 
L 1519 3944 
L 2394 5119 
z
" transform="scale(0.015625)"/>
      <path id="DejaVuSans-65" d="M 3597 1894 
L 3597 1613 
L 953 1613 
Q 991 1019 1311 708 
Q 1631 397 2203 397 
Q 2534 397 2845 478 
Q 3156 559 3463 722 
L 3463 178 
Q 3153 47 2828 -22 
Q 2503 -91 2169 -91 
Q 1331 -91 842 396 
Q 353 884 353 1716 
Q 353 2575 817 3079 
Q 1281 3584 2069 3584 
Q 2775 3584 3186 3129 
Q 3597 2675 3597 1894 
z
M 3022 2063 
Q 3016 2534 2758 2815 
Q 2500 3097 2075 3097 
Q 1594 3097 1305 2825 
Q 1016 2553 972 2059 
L 3022 2063 
z
" transform="scale(0.015625)"/>
     </defs>
     <use xlink:href="#DejaVuSans-45"/>
     <use xlink:href="#DejaVuSans-73" transform="translate(63.183594 0)"/>
     <use xlink:href="#DejaVuSans-74" transform="translate(115.283203 0)"/>
     <use xlink:href="#DejaVuSans-61" transform="translate(154.492188 0)"/>
     <use xlink:href="#DejaVuSans-63" transform="translate(215.771484 0)"/>
     <use xlink:href="#DejaVuSans-69" transform="translate(270.751953 0)"/>
     <use xlink:href="#DejaVuSans-f3" transform="translate(298.535156 0)"/>
     <use xlink:href="#DejaVuSans-6e" transform="translate(359.716797 0)"/>
     <use xlink:href="#DejaVuSans-20" transform="translate(423.095703 0)"/>
     <use xlink:href="#DejaVuSans-73" transform="translate(454.882812 0)"/>
     <use xlink:href="#DejaVuSans-65" transform="translate(506.982422 0)"/>
     <use xlink:href="#DejaVuSans-63" transform="translate(568.505859 0)"/>
     <use xlink:href="#DejaVuSans-61" transform="translate(623.486328 0)"/>
     <use xlink:href="#DejaVuSans-20" transform="translate(684.765625 0)"/>
    </g>
    <!--  (nov-abr) -->
    <g transform="translate(107.398906 33.51475) scale(0.14 -0.14)">
     <defs>
      <path id="DejaVuSans-28" d="M 1984 4856 
Q 1566 4138 1362 3434 
Q 1159 2731 1159 2009 
Q 1159 1288 1364 580 
Q 1569 -128 1984 -844 
L 1484 -844 
Q 1016 -109 783 600 
Q 550 1309 550 2009 
Q 550 2706 781 3412 
Q 1013 4119 1484 4856 
L 1984 4856 
z
" transform="scale(0.015625)"/>
      <path id="DejaVuSans-76" d="M 191 3500 
L 800 3500 
L 1894 563 
L 2988 3500 
L 3597 3500 
L 2284 0 
L 1503 0 
L 191 3500 
z
" transform="scale(0.015625)"/>
      <path id="DejaVuSans-29" d="M 513 4856 
L 1013 4856 
Q 1481 4119 1714 3412 
Q 1947 2706 1947 2009 
Q 1947 1309 1714 600 
Q 1481 -109 1013 -844 
L 513 -844 
Q 928 -128 1133 580 
Q 1338 1288 1338 2009 
Q 1338 2731 1133 3434 
Q 928 4138 513 4856 
z
" transform="scale(0.015625)"/>
     </defs>
     <use xlink:href="#DejaVuSans-20"/>
     <use xlink:href="#DejaVuSans-28" transform="translate(31.787109 0)"/>
     <use xlink:href="#DejaVuSans-6e" transform="translate(70.800781 0)"/>
     <use xlink:href="#DejaVuSans-6f" transform="translate(134.179688 0)"/>
     <use xlink:href="#DejaVuSans-76" transform="translate(195.361328 0)"/>
     <use xlink:href="#DejaVuSans-2d" transform="translate(251.916016 0)"/>
     <use xlink:href="#DejaVuSans-61" transform="translate(288 0)"/>
     <use xlink:href="#DejaVuSans-62" transform="translate(349.279297 0)"/>
     <use xlink:href="#DejaVuSans-72" transform="translate(412.755859 0)"/>
     <use xlink:href="#DejaVuSans-29" transform="translate(453.869141 0)"/>
    </g>
   </g>
  </g>
  <g id="axes_2">
   <g id="patch_7">
    <path d="M 253.50125 150.39475 
L 439.50125 150.39475 
L 439.50125 39.51475 
L 253.50125 39.51475 
z
" style="fill: #ffffff"/>
   </g>
   <g id="matplotlib.axis_3">
    <g id="xtick_13">
     <g id="line2d_18">
      <g>
       <use xlink:href="#mc19dedb475" x="253.50125" y="150.39475" style="stroke: #000000; stroke-width: 0.8"/>
      </g>
     </g>
     <g id="text_21">
      <!-- 1-2 -->
      <g transform="translate(256.260625 173.727562) rotate(-90) scale(0.1 -0.1)">
       <use xlink:href="#DejaVuSans-31"/>
       <use xlink:href="#DejaVuSans-2d" transform="translate(63.623047 0)"/>
       <use xlink:href="#DejaVuSans-32" transform="translate(99.707031 0)"/>
      </g>
     </g>
    </g>
    <g id="xtick_14">
     <g id="line2d_19">
      <g>
       <use xlink:href="#mc19dedb475" x="270.410341" y="150.39475" style="stroke: #000000; stroke-width: 0.8"/>
      </g>
     </g>
     <g id="text_22">
      <!-- 3-4 -->
      <g transform="translate(273.169716 173.727562) rotate(-90) scale(0.1 -0.1)">
       <use xlink:href="#DejaVuSans-33"/>
       <use xlink:href="#DejaVuSans-2d" transform="translate(63.623047 0)"/>
       <use xlink:href="#DejaVuSans-34" transform="translate(99.707031 0)"/>
      </g>
     </g>
    </g>
    <g id="xtick_15">
     <g id="line2d_20">
      <g>
       <use xlink:href="#mc19dedb475" x="287.319432" y="150.39475" style="stroke: #000000; stroke-width: 0.8"/>
      </g>
     </g>
     <g id="text_23">
      <!-- 5-6 -->
      <g transform="translate(290.078807 173.727562) rotate(-90) scale(0.1 -0.1)">
       <use xlink:href="#DejaVuSans-35"/>
       <use xlink:href="#DejaVuSans-2d" transform="translate(63.623047 0)"/>
       <use xlink:href="#DejaVuSans-36" transform="translate(99.707031 0)"/>
      </g>
     </g>
    </g>
    <g id="xtick_16">
     <g id="line2d_21">
      <g>
       <use xlink:href="#mc19dedb475" x="304.228523" y="150.39475" style="stroke: #000000; stroke-width: 0.8"/>
      </g>
     </g>
     <g id="text_24">
      <!-- 7-8 -->
      <g transform="translate(306.987898 173.727562) rotate(-90) scale(0.1 -0.1)">
       <use xlink:href="#DejaVuSans-37"/>
       <use xlink:href="#DejaVuSans-2d" transform="translate(63.623047 0)"/>
       <use xlink:href="#DejaVuSans-38" transform="translate(99.707031 0)"/>
      </g>
     </g>
    </g>
    <g id="xtick_17">
     <g id="line2d_22">
      <g>
       <use xlink:href="#mc19dedb475" x="321.137614" y="150.39475" style="stroke: #000000; stroke-width: 0.8"/>
      </g>
     </g>
     <g id="text_25">
      <!-- 9-10 -->
      <g transform="translate(323.896989 180.090062) rotate(-90) scale(0.1 -0.1)">
       <use xlink:href="#DejaVuSans-39"/>
       <use xlink:href="#DejaVuSans-2d" transform="translate(63.623047 0)"/>
       <use xlink:href="#DejaVuSans-31" transform="translate(99.707031 0)"/>
       <use xlink:href="#DejaVuSans-30" transform="translate(163.330078 0)"/>
      </g>
     </g>
    </g>
    <g id="xtick_18">
     <g id="line2d_23">
      <g>
       <use xlink:href="#mc19dedb475" x="338.046705" y="150.39475" style="stroke: #000000; stroke-width: 0.8"/>
      </g>
     </g>
     <g id="text_26">
      <!-- 11-12 -->
      <g transform="translate(340.80608 186.452562) rotate(-90) scale(0.1 -0.1)">
       <use xlink:href="#DejaVuSans-31"/>
       <use xlink:href="#DejaVuSans-31" transform="translate(63.623047 0)"/>
       <use xlink:href="#DejaVuSans-2d" transform="translate(127.246094 0)"/>
       <use xlink:href="#DejaVuSans-31" transform="translate(163.330078 0)"/>
       <use xlink:href="#DejaVuSans-32" transform="translate(226.953125 0)"/>
      </g>
     </g>
    </g>
    <g id="xtick_19">
     <g id="line2d_24">
      <g>
       <use xlink:href="#mc19dedb475" x="354.955795" y="150.39475" style="stroke: #000000; stroke-width: 0.8"/>
      </g>
     </g>
     <g id="text_27">
      <!-- 13-14 -->
      <g transform="translate(357.71517 186.452562) rotate(-90) scale(0.1 -0.1)">
       <use xlink:href="#DejaVuSans-31"/>
       <use xlink:href="#DejaVuSans-33" transform="translate(63.623047 0)"/>
       <use xlink:href="#DejaVuSans-2d" transform="translate(127.246094 0)"/>
       <use xlink:href="#DejaVuSans-31" transform="translate(163.330078 0)"/>
       <use xlink:href="#DejaVuSans-34" transform="translate(226.953125 0)"/>
      </g>
     </g>
    </g>
    <g id="xtick_20">
     <g id="line2d_25">
      <g>
       <use xlink:href="#mc19dedb475" x="371.864886" y="150.39475" style="stroke: #000000; stroke-width: 0.8"/>
      </g>
     </g>
     <g id="text_28">
      <!-- 15-16 -->
      <g transform="translate(374.624261 186.452562) rotate(-90) scale(0.1 -0.1)">
       <use xlink:href="#DejaVuSans-31"/>
       <use xlink:href="#DejaVuSans-35" transform="translate(63.623047 0)"/>
       <use xlink:href="#DejaVuSans-2d" transform="translate(127.246094 0)"/>
       <use xlink:href="#DejaVuSans-31" transform="translate(163.330078 0)"/>
       <use xlink:href="#DejaVuSans-36" transform="translate(226.953125 0)"/>
      </g>
     </g>
    </g>
    <g id="xtick_21">
     <g id="line2d_26">
      <g>
       <use xlink:href="#mc19dedb475" x="388.773977" y="150.39475" style="stroke: #000000; stroke-width: 0.8"/>
      </g>
     </g>
     <g id="text_29">
      <!-- 17-18 -->
      <g transform="translate(391.533352 186.452562) rotate(-90) scale(0.1 -0.1)">
       <use xlink:href="#DejaVuSans-31"/>
       <use xlink:href="#DejaVuSans-37" transform="translate(63.623047 0)"/>
       <use xlink:href="#DejaVuSans-2d" transform="translate(127.246094 0)"/>
       <use xlink:href="#DejaVuSans-31" transform="translate(163.330078 0)"/>
       <use xlink:href="#DejaVuSans-38" transform="translate(226.953125 0)"/>
      </g>
     </g>
    </g>
    <g id="xtick_22">
     <g id="line2d_27">
      <g>
       <use xlink:href="#mc19dedb475" x="405.683068" y="150.39475" style="stroke: #000000; stroke-width: 0.8"/>
      </g>
     </g>
     <g id="text_30">
      <!-- 19-20 -->
      <g transform="translate(408.442443 186.452562) rotate(-90) scale(0.1 -0.1)">
       <use xlink:href="#DejaVuSans-31"/>
       <use xlink:href="#DejaVuSans-39" transform="translate(63.623047 0)"/>
       <use xlink:href="#DejaVuSans-2d" transform="translate(127.246094 0)"/>
       <use xlink:href="#DejaVuSans-32" transform="translate(163.330078 0)"/>
       <use xlink:href="#DejaVuSans-30" transform="translate(226.953125 0)"/>
      </g>
     </g>
    </g>
    <g id="xtick_23">
     <g id="line2d_28">
      <g>
       <use xlink:href="#mc19dedb475" x="422.592159" y="150.39475" style="stroke: #000000; stroke-width: 0.8"/>
      </g>
     </g>
     <g id="text_31">
      <!-- 21-22 -->
      <g transform="translate(425.351534 186.452562) rotate(-90) scale(0.1 -0.1)">
       <use xlink:href="#DejaVuSans-32"/>
       <use xlink:href="#DejaVuSans-31" transform="translate(63.623047 0)"/>
       <use xlink:href="#DejaVuSans-2d" transform="translate(127.246094 0)"/>
       <use xlink:href="#DejaVuSans-32" transform="translate(163.330078 0)"/>
       <use xlink:href="#DejaVuSans-32" transform="translate(226.953125 0)"/>
      </g>
     </g>
    </g>
    <g id="xtick_24">
     <g id="line2d_29">
      <g>
       <use xlink:href="#mc19dedb475" x="439.50125" y="150.39475" style="stroke: #000000; stroke-width: 0.8"/>
      </g>
     </g>
     <g id="text_32">
      <!-- 23-24 -->
      <g transform="translate(442.260625 186.452562) rotate(-90) scale(0.1 -0.1)">
       <use xlink:href="#DejaVuSans-32"/>
       <use xlink:href="#DejaVuSans-33" transform="translate(63.623047 0)"/>
       <use xlink:href="#DejaVuSans-2d" transform="translate(127.246094 0)"/>
       <use xlink:href="#DejaVuSans-32" transform="translate(163.330078 0)"/>
       <use xlink:href="#DejaVuSans-34" transform="translate(226.953125 0)"/>
      </g>
     </g>
    </g>
    <g id="text_33">
     <!-- horas -->
     <g transform="translate(329.758438 199.570687) scale(0.12 -0.12)">
      <use xlink:href="#DejaVuSans-68"/>
      <use xlink:href="#DejaVuSans-6f" transform="translate(63.378906 0)"/>
      <use xlink:href="#DejaVuSans-72" transform="translate(124.560547 0)"/>
      <use xlink:href="#DejaVuSans-61" transform="translate(165.673828 0)"/>
      <use xlink:href="#DejaVuSans-73" transform="translate(226.953125 0)"/>
     </g>
    </g>
   </g>
   <g id="matplotlib.axis_4">
    <g id="ytick_4">
     <g id="line2d_30">
      <defs>
       <path id="ma1ec5c88b1" d="M 0 0 
L -3.5 0 
" style="stroke: #ffffff; stroke-width: 0.8"/>
      </defs>
      <g>
       <use xlink:href="#ma1ec5c88b1" x="253.50125" y="115.426881" style="fill: #ffffff; stroke: #ffffff; stroke-width: 0.8"/>
      </g>
     </g>
    </g>
    <g id="ytick_5">
     <g id="line2d_31">
      <g>
       <use xlink:href="#ma1ec5c88b1" x="253.50125" y="78.70557" style="fill: #ffffff; stroke: #ffffff; stroke-width: 0.8"/>
      </g>
     </g>
    </g>
    <g id="ytick_6">
     <g id="line2d_32">
      <g>
       <use xlink:href="#ma1ec5c88b1" x="253.50125" y="41.984258" style="fill: #ffffff; stroke: #ffffff; stroke-width: 0.8"/>
      </g>
     </g>
    </g>
   </g>
   <g id="line2d_33">
    <path d="M 253.50125 88.68152 
L 270.410341 88.68152 
L 287.319432 88.68152 
L 304.228523 88.68152 
L 321.137614 99.575521 
L 338.046705 99.575521 
L 354.955795 99.575521 
L 371.864886 99.575521 
L 388.773977 99.575521 
L 405.683068 98.596274 
L 422.592159 98.596274 
L 439.50125 99.575521 
" clip-path="url(#p88cf5ee009)" style="fill: none; stroke: #a1150b; stroke-width: 2.5; stroke-linecap: square"/>
   </g>
   <g id="line2d_34">
    <path d="M 253.50125 88.620324 
L 270.410341 88.620324 
L 287.319432 88.620324 
L 304.228523 97.800652 
L 321.137614 117.813766 
L 338.046705 145.35475 
L 354.955795 145.35475 
L 371.864886 117.813766 
L 388.773977 53.551471 
L 405.683068 47.125242 
L 422.592159 58.141635 
L 439.50125 99.453111 
" clip-path="url(#p88cf5ee009)" style="fill: none; stroke: #207653; stroke-width: 2.5; stroke-linecap: square"/>
   </g>
   <g id="text_34">
    <path d="M 308.535251 91.469222 
Q 307.619743 90.879389 307.13186 90.860595 
Q 306.643976 90.841801 306.318171 91.347497 
Q 306.05922 91.749427 306.172223 92.156799 
Q 306.286071 92.562856 306.740541 92.855657 
Q 307.369706 93.261009 308.036184 93.060298 
Q 308.702662 92.859587 309.178252 92.121402 
L 309.286571 91.953274 
L 308.535251 91.469222 
z
M 310.243239 92.127253 
L 308.553287 94.750307 
L 307.798026 94.263716 
L 308.247382 93.566249 
Q 307.719517 93.817231 307.20472 93.768086 
Q 306.689922 93.718941 306.131686 93.359287 
Q 305.426338 92.904853 305.264212 92.239071 
Q 305.103399 91.574135 305.531599 90.909506 
Q 306.030884 90.134542 306.803589 90.07476 
Q 307.577608 90.015824 308.60739 90.67928 
L 309.667382 91.3622 
L 309.715618 91.287331 
Q 310.051577 90.765873 309.89239 90.259974 
Q 309.733202 89.754075 309.113232 89.354647 
Q 308.719182 89.100773 308.283906 88.954165 
Q 307.849943 88.808403 307.383948 88.775831 
L 307.83415 88.07705 
Q 308.351144 88.183371 308.792027 88.355896 
Q 309.233757 88.527107 309.602849 88.764902 
Q 310.601107 89.408049 310.760248 90.242909 
Q 310.920235 91.076455 310.243239 92.127253 
z
M 316.265465 93.462616 
L 315.810185 94.169278 
Q 315.603935 93.785472 315.338826 93.490137 
Q 315.073718 93.194803 314.745343 92.983242 
Q 314.009785 92.509344 313.302184 92.7133 
Q 312.596742 92.916788 312.054299 93.758739 
Q 311.511856 94.600691 311.617309 95.328473 
Q 311.724922 96.055787 312.460481 96.529684 
Q 312.788855 96.741245 313.16736 96.860571 
Q 313.545866 96.979897 313.980602 97.009059 
L 313.5304 97.707839 
Q 313.119067 97.651006 312.732795 97.50623 
Q 312.34699 97.363615 311.964763 97.117357 
Q 310.925786 96.447977 310.734281 95.400819 
Q 310.544089 94.354506 311.25832 93.245915 
Q 311.982706 92.121561 313.01471 91.875683 
Q 314.048873 91.629337 315.124628 92.322412 
Q 315.472704 92.546667 315.758476 92.83301 
Q 316.045093 93.118039 316.265465 93.462616 
z
M 319.280578 93.308539 
L 318.43941 94.614155 
L 319.994591 95.61611 
L 319.616319 96.203243 
L 318.061139 95.201288 
L 316.453272 97.696933 
Q 316.091079 98.25911 316.141517 98.518367 
Q 316.191954 98.777625 316.664813 99.082273 
L 317.439776 99.581558 
L 317.032732 100.21335 
L 316.257769 99.714065 
Q 315.38298 99.150466 315.260534 98.610618 
Q 315.138934 98.069457 315.694071 97.207803 
L 317.301937 94.712159 
L 316.747641 94.355043 
L 317.125913 93.76791 
L 317.680209 94.125025 
L 318.521377 92.819409 
L 319.280578 93.308539 
z
M 319.117397 98.989561 
L 320.910591 96.20626 
L 321.665852 96.692851 
L 319.891276 99.447255 
Q 319.470692 100.100063 319.513481 100.590449 
Q 319.558431 101.080368 320.068068 101.408711 
Q 320.678844 101.802215 321.284823 101.640593 
Q 321.892116 101.479817 322.32624 100.805993 
L 324.005191 98.200014 
L 324.760452 98.686605 
L 321.798593 103.283846 
L 321.043332 102.797255 
L 321.498612 102.090593 
Q 320.954139 102.332733 320.459132 102.301915 
Q 319.965439 102.271944 319.484699 101.962218 
Q 318.69266 101.451932 318.598877 100.694496 
Q 318.506408 99.937906 319.117397 98.989561 
z
M 322.882306 97.320443 
L 322.882306 97.320443 
z
M 326.932422 103.321947 
Q 326.016914 102.732114 325.52903 102.71332 
Q 325.041146 102.694526 324.715342 103.200222 
Q 324.456391 103.602152 324.569393 104.009523 
Q 324.683242 104.415581 325.137712 104.708382 
Q 325.766877 105.113733 326.433355 104.913023 
Q 327.099833 104.712312 327.575423 103.974127 
L 327.683742 103.805999 
L 326.932422 103.321947 
z
M 328.640409 103.979978 
L 326.950457 106.603032 
L 326.195196 106.116441 
L 326.644553 105.418974 
Q 326.116688 105.669955 325.60189 105.620811 
Q 325.087093 105.571666 324.528856 105.212012 
Q 323.823508 104.757578 323.661382 104.091796 
Q 323.50057 103.42686 323.92877 102.76223 
Q 324.428055 101.987267 325.20076 101.927485 
Q 325.974778 101.868549 327.00456 102.532005 
L 328.064552 103.214925 
L 328.112788 103.140056 
Q 328.448748 102.618597 328.28956 102.112699 
Q 328.130373 101.6068 327.510402 101.207372 
Q 327.116353 100.953498 326.681077 100.80689 
Q 326.247114 100.661128 325.781118 100.628555 
L 326.231321 99.929775 
Q 326.748314 100.036095 327.189198 100.208621 
Q 327.630927 100.379832 328.00002 100.617627 
Q 328.998278 101.260774 329.157419 102.095634 
Q 329.317406 102.92918 328.640409 103.979978 
z
M 332.620765 101.217343 
L 333.376026 101.703935 
L 329.260735 108.091472 
L 328.505474 107.60488 
L 332.620765 101.217343 
z
" clip-path="url(#p88cf5ee009)" style="fill: #a1150b; stroke: #ffffff; stroke-width: 5"/>
    <path d="M 308.535251 91.469222 
Q 307.619743 90.879389 307.13186 90.860595 
Q 306.643976 90.841801 306.318171 91.347497 
Q 306.05922 91.749427 306.172223 92.156799 
Q 306.286071 92.562856 306.740541 92.855657 
Q 307.369706 93.261009 308.036184 93.060298 
Q 308.702662 92.859587 309.178252 92.121402 
L 309.286571 91.953274 
L 308.535251 91.469222 
z
M 310.243239 92.127253 
L 308.553287 94.750307 
L 307.798026 94.263716 
L 308.247382 93.566249 
Q 307.719517 93.817231 307.20472 93.768086 
Q 306.689922 93.718941 306.131686 93.359287 
Q 305.426338 92.904853 305.264212 92.239071 
Q 305.103399 91.574135 305.531599 90.909506 
Q 306.030884 90.134542 306.803589 90.07476 
Q 307.577608 90.015824 308.60739 90.67928 
L 309.667382 91.3622 
L 309.715618 91.287331 
Q 310.051577 90.765873 309.89239 90.259974 
Q 309.733202 89.754075 309.113232 89.354647 
Q 308.719182 89.100773 308.283906 88.954165 
Q 307.849943 88.808403 307.383948 88.775831 
L 307.83415 88.07705 
Q 308.351144 88.183371 308.792027 88.355896 
Q 309.233757 88.527107 309.602849 88.764902 
Q 310.601107 89.408049 310.760248 90.242909 
Q 310.920235 91.076455 310.243239 92.127253 
z
M 316.265465 93.462616 
L 315.810185 94.169278 
Q 315.603935 93.785472 315.338826 93.490137 
Q 315.073718 93.194803 314.745343 92.983242 
Q 314.009785 92.509344 313.302184 92.7133 
Q 312.596742 92.916788 312.054299 93.758739 
Q 311.511856 94.600691 311.617309 95.328473 
Q 311.724922 96.055787 312.460481 96.529684 
Q 312.788855 96.741245 313.16736 96.860571 
Q 313.545866 96.979897 313.980602 97.009059 
L 313.5304 97.707839 
Q 313.119067 97.651006 312.732795 97.50623 
Q 312.34699 97.363615 311.964763 97.117357 
Q 310.925786 96.447977 310.734281 95.400819 
Q 310.544089 94.354506 311.25832 93.245915 
Q 311.982706 92.121561 313.01471 91.875683 
Q 314.048873 91.629337 315.124628 92.322412 
Q 315.472704 92.546667 315.758476 92.83301 
Q 316.045093 93.118039 316.265465 93.462616 
z
M 319.280578 93.308539 
L 318.43941 94.614155 
L 319.994591 95.61611 
L 319.616319 96.203243 
L 318.061139 95.201288 
L 316.453272 97.696933 
Q 316.091079 98.25911 316.141517 98.518367 
Q 316.191954 98.777625 316.664813 99.082273 
L 317.439776 99.581558 
L 317.032732 100.21335 
L 316.257769 99.714065 
Q 315.38298 99.150466 315.260534 98.610618 
Q 315.138934 98.069457 315.694071 97.207803 
L 317.301937 94.712159 
L 316.747641 94.355043 
L 317.125913 93.76791 
L 317.680209 94.125025 
L 318.521377 92.819409 
L 319.280578 93.308539 
z
M 319.117397 98.989561 
L 320.910591 96.20626 
L 321.665852 96.692851 
L 319.891276 99.447255 
Q 319.470692 100.100063 319.513481 100.590449 
Q 319.558431 101.080368 320.068068 101.408711 
Q 320.678844 101.802215 321.284823 101.640593 
Q 321.892116 101.479817 322.32624 100.805993 
L 324.005191 98.200014 
L 324.760452 98.686605 
L 321.798593 103.283846 
L 321.043332 102.797255 
L 321.498612 102.090593 
Q 320.954139 102.332733 320.459132 102.301915 
Q 319.965439 102.271944 319.484699 101.962218 
Q 318.69266 101.451932 318.598877 100.694496 
Q 318.506408 99.937906 319.117397 98.989561 
z
M 322.882306 97.320443 
L 322.882306 97.320443 
z
M 326.932422 103.321947 
Q 326.016914 102.732114 325.52903 102.71332 
Q 325.041146 102.694526 324.715342 103.200222 
Q 324.456391 103.602152 324.569393 104.009523 
Q 324.683242 104.415581 325.137712 104.708382 
Q 325.766877 105.113733 326.433355 104.913023 
Q 327.099833 104.712312 327.575423 103.974127 
L 327.683742 103.805999 
L 326.932422 103.321947 
z
M 328.640409 103.979978 
L 326.950457 106.603032 
L 326.195196 106.116441 
L 326.644553 105.418974 
Q 326.116688 105.669955 325.60189 105.620811 
Q 325.087093 105.571666 324.528856 105.212012 
Q 323.823508 104.757578 323.661382 104.091796 
Q 323.50057 103.42686 323.92877 102.76223 
Q 324.428055 101.987267 325.20076 101.927485 
Q 325.974778 101.868549 327.00456 102.532005 
L 328.064552 103.214925 
L 328.112788 103.140056 
Q 328.448748 102.618597 328.28956 102.112699 
Q 328.130373 101.6068 327.510402 101.207372 
Q 327.116353 100.953498 326.681077 100.80689 
Q 326.247114 100.661128 325.781118 100.628555 
L 326.231321 99.929775 
Q 326.748314 100.036095 327.189198 100.208621 
Q 327.630927 100.379832 328.00002 100.617627 
Q 328.998278 101.260774 329.157419 102.095634 
Q 329.317406 102.92918 328.640409 103.979978 
z
M 332.620765 101.217343 
L 333.376026 101.703935 
L 329.260735 108.091472 
L 328.505474 107.60488 
L 332.620765 101.217343 
z
" clip-path="url(#p88cf5ee009)" style="fill: #a1150b"/>
   </g>
   <g id="text_35">
    <path d="M 370.318433 131.311165 
L 373.122971 132.049113 
L 372.893157 132.922509 
L 365.593199 131.001699 
L 365.823012 130.128303 
L 366.625388 130.339429 
Q 366.226299 129.940363 366.107866 129.463271 
Q 365.988319 128.984271 366.140998 128.404022 
Q 366.394667 127.439962 367.317512 127.039743 
Q 368.240754 126.638014 369.487383 126.966035 
Q 370.734012 127.294056 371.34148 128.098555 
Q 371.947834 128.901145 371.694165 129.865205 
Q 371.541486 130.445454 371.201668 130.803584 
Q 370.862249 131.160203 370.318433 131.311165 
z
M 369.250015 127.868141 
Q 368.292 127.616062 367.642731 127.866917 
Q 366.993462 128.117771 366.812156 128.806817 
Q 366.630453 129.497374 367.072174 130.035296 
Q 367.513895 130.573218 368.47191 130.825297 
Q 369.429926 131.077376 370.079195 130.826522 
Q 370.728463 130.575668 370.910167 129.885111 
Q 371.091473 129.196065 370.649752 128.658142 
Q 370.208031 128.12022 369.250015 127.868141 
z
M 368.834977 121.978821 
Q 368.71179 122.103129 368.627175 122.265052 
Q 368.54105 122.426579 368.486579 122.633595 
Q 368.29255 123.370995 368.667784 123.891422 
Q 369.043018 124.41185 369.940591 124.648025 
L 372.726996 125.381201 
L 372.497183 126.254597 
L 367.208452 124.862994 
L 367.438266 123.989598 
L 368.260286 124.205893 
Q 367.850619 123.804044 367.733219 123.304605 
Q 367.614706 122.803256 367.780108 122.174653 
Q 367.803566 122.0855 367.844282 121.979884 
Q 367.883487 121.873871 367.942255 121.748769 
L 368.834977 121.978821 
z
M 369.354239 119.18258 
Q 369.170547 119.880693 369.609087 120.430703 
Q 370.047628 120.980714 370.996577 121.230407 
Q 371.945526 121.480101 372.59718 121.22018 
Q 373.249232 120.958748 373.434117 120.256103 
Q 373.617013 119.561012 373.176564 119.012115 
Q 372.735002 118.461309 371.790586 118.212809 
Q 370.850703 117.965501 370.19372 118.227251 
Q 369.537135 118.48749 369.354239 119.18258 
z
M 368.61835 118.988949 
Q 368.916551 117.855649 369.824124 117.402942 
Q 370.730584 116.948327 372.033122 117.291059 
Q 373.331128 117.632598 373.900979 118.47567 
Q 374.469717 119.316833 374.171517 120.450132 
Q 373.872123 121.587964 372.963436 122.038763 
Q 372.053636 122.487652 370.755631 122.146113 
Q 369.453092 121.803381 368.886581 120.966035 
Q 368.318956 120.126781 368.61835 118.988949 
z
M 374.479476 115.497295 
L 377.284014 116.235243 
L 377.0542 117.108639 
L 369.754242 115.187829 
L 369.984055 114.314433 
L 370.786431 114.525559 
Q 370.387342 114.126493 370.268909 113.649401 
Q 370.149362 113.170401 370.302041 112.590152 
Q 370.55571 111.626092 371.478555 111.225874 
Q 372.401797 110.824144 373.648426 111.152165 
Q 374.895055 111.480186 375.502523 112.284685 
Q 376.108877 113.087275 375.855207 114.051335 
Q 375.702529 114.631584 375.362711 114.989714 
Q 375.023291 115.346333 374.479476 115.497295 
z
M 373.411058 112.054271 
Q 372.453042 111.802192 371.803774 112.053047 
Q 371.154505 112.303901 370.973199 112.992947 
Q 370.791496 113.683504 371.233217 114.221426 
Q 371.674937 114.759348 372.632953 115.011427 
Q 373.590969 115.263506 374.240237 115.012652 
Q 374.889506 114.761798 375.07121 114.071241 
Q 375.252516 113.382195 374.810795 112.844273 
Q 374.369074 112.30635 373.411058 112.054271 
z
M 374.556732 109.94755 
L 371.354784 109.105033 
L 371.583405 108.236171 
L 374.75211 109.06994 
Q 375.503109 109.267548 375.956102 109.074914 
Q 376.40798 108.880373 376.56225 108.294079 
Q 376.747134 107.591434 376.4057 107.065358 
Q 376.064663 106.537772 375.289486 106.333803 
L 372.291532 105.544963 
L 372.520152 104.6761 
L 377.808883 106.067703 
L 377.580262 106.936566 
L 376.767309 106.722657 
Q 377.16624 107.165304 377.29032 107.645497 
Q 377.414797 108.12418 377.269275 108.67723 
Q 377.029522 109.588402 376.338423 109.912266 
Q 375.647722 110.234618 374.556732 109.94755 
z
M 371.803183 106.885123 
L 371.803183 106.885123 
z
M 376.6082 99.001036 
L 377.03281 99.112762 
L 375.981553 103.10802 
Q 376.894235 103.286775 377.491408 102.926887 
Q 378.088582 102.567 378.31601 101.702671 
Q 378.447616 101.202508 378.448873 100.700361 
Q 378.450131 100.198214 378.325891 99.669507 
L 379.14791 99.885802 
Q 379.222604 100.406318 379.197647 100.924849 
Q 379.17269 101.44338 379.039892 101.948076 
Q 378.706702 103.214349 377.776386 103.759629 
Q 376.844559 104.304511 375.587352 103.973707 
Q 374.289347 103.632167 373.712257 102.730642 
Q 373.133655 101.828719 373.446965 100.637999 
Q 373.727671 99.571187 374.57862 99.131047 
Q 375.428058 98.69051 376.6082 99.001036 
z
M 376.124209 99.802705 
Q 375.410112 99.624501 374.882921 99.90263 
Q 374.35422 100.180362 374.185239 100.822564 
Q 373.993993 101.549387 374.290097 102.094233 
Q 374.5862 102.639078 375.315172 102.90198 
L 376.124209 99.802705 
z
M 375.599252 93.606564 
L 376.421272 93.822859 
Q 376.135772 94.140348 375.937517 94.513107 
Q 375.738148 94.883957 375.626025 95.310078 
Q 375.455852 95.956814 375.568715 96.332267 
Q 375.681578 96.707721 376.078988 96.81229 
Q 376.381201 96.891811 376.614295 96.705944 
Q 376.84739 96.520077 377.187119 95.861407 
L 377.331933 95.581221 
Q 377.773215 94.708535 378.23694 94.413706 
Q 378.700666 94.118878 379.347402 94.289051 
Q 380.084802 94.483081 380.361982 95.179668 
Q 380.637651 95.875858 380.36927 96.895828 
Q 380.257544 97.320437 380.053167 97.759444 
Q 379.848791 98.198451 379.550093 98.664342 
L 378.65252 98.428167 
Q 379.030191 98.012139 379.278469 97.57822 
Q 379.525235 97.143904 379.646105 96.68454 
Q 379.807531 96.071047 379.68417 95.686369 
Q 379.561207 95.300179 379.178907 95.199586 
Q 378.825318 95.106547 378.573613 95.295595 
Q 378.322307 95.483133 377.934307 96.245431 
L 377.783766 96.528957 
Q 377.402208 97.291335 376.955501 97.558327 
Q 376.509191 97.823809 375.895698 97.662383 
Q 375.149232 97.465968 374.883427 96.830538 
Q 374.61611 96.19471 374.872165 95.221584 
Q 374.998602 94.741065 375.181348 94.335143 
Q 375.362981 93.927312 375.599252 93.606564 
z
M 374.606551 90.643327 
L 376.108551 91.038542 
L 376.57931 89.24944 
L 377.254756 89.427168 
L 376.783997 91.21627 
L 379.655022 91.971712 
Q 380.301758 92.141885 380.532627 92.013598 
Q 380.763497 91.88531 380.906633 91.341326 
L 381.141218 90.449798 
L 381.86804 90.641044 
L 381.633456 91.532573 
Q 381.368653 92.538942 380.893316 92.822637 
Q 380.416468 93.105934 379.425209 92.845108 
L 376.554184 92.089666 
L 376.386396 92.727336 
L 375.71095 92.549608 
L 375.878737 91.911938 
L 374.376738 91.516723 
L 374.606551 90.643327 
z
M 380.143394 86.394626 
Q 379.866266 87.447839 379.999571 87.917534 
Q 380.132876 88.387229 380.714636 88.540305 
Q 381.177022 88.661971 381.529329 88.428304 
Q 381.880126 88.194239 382.017696 87.671411 
Q 382.208146 86.94761 381.810802 86.376125 
Q 381.413457 85.804641 380.564238 85.581189 
L 380.370822 85.530296 
L 380.143394 86.394626 
z
M 380.239809 84.566804 
L 383.257407 85.360813 
L 383.028786 86.229676 
L 382.22641 86.01855 
Q 382.628602 86.442667 382.741389 86.947356 
Q 382.854177 87.452044 382.685196 88.094247 
Q 382.471685 88.90569 381.888906 89.266133 
Q 381.306524 89.625065 380.541925 89.423879 
Q 379.650396 89.189295 379.354129 88.473144 
Q 379.058259 87.755481 379.369978 86.570806 
L 379.690842 85.351376 
L 379.604711 85.328712 
Q 379.004818 85.170865 378.573143 85.478974 
Q 378.141468 85.787082 377.9538 86.500305 
Q 377.83452 86.953625 377.830001 87.412906 
Q 377.825879 87.870676 377.939301 88.32383 
L 377.135414 88.112306 
Q 377.076308 87.587813 377.103732 87.115171 
Q 377.129644 86.64213 377.24137 86.217521 
Q 377.543547 85.069111 378.288007 84.659116 
Q 379.030956 84.248723 380.239809 84.566804 
z
" clip-path="url(#p88cf5ee009)" style="fill: #207653; stroke: #ffffff; stroke-width: 5"/>
    <path d="M 370.318433 131.311165 
L 373.122971 132.049113 
L 372.893157 132.922509 
L 365.593199 131.001699 
L 365.823012 130.128303 
L 366.625388 130.339429 
Q 366.226299 129.940363 366.107866 129.463271 
Q 365.988319 128.984271 366.140998 128.404022 
Q 366.394667 127.439962 367.317512 127.039743 
Q 368.240754 126.638014 369.487383 126.966035 
Q 370.734012 127.294056 371.34148 128.098555 
Q 371.947834 128.901145 371.694165 129.865205 
Q 371.541486 130.445454 371.201668 130.803584 
Q 370.862249 131.160203 370.318433 131.311165 
z
M 369.250015 127.868141 
Q 368.292 127.616062 367.642731 127.866917 
Q 366.993462 128.117771 366.812156 128.806817 
Q 366.630453 129.497374 367.072174 130.035296 
Q 367.513895 130.573218 368.47191 130.825297 
Q 369.429926 131.077376 370.079195 130.826522 
Q 370.728463 130.575668 370.910167 129.885111 
Q 371.091473 129.196065 370.649752 128.658142 
Q 370.208031 128.12022 369.250015 127.868141 
z
M 368.834977 121.978821 
Q 368.71179 122.103129 368.627175 122.265052 
Q 368.54105 122.426579 368.486579 122.633595 
Q 368.29255 123.370995 368.667784 123.891422 
Q 369.043018 124.41185 369.940591 124.648025 
L 372.726996 125.381201 
L 372.497183 126.254597 
L 367.208452 124.862994 
L 367.438266 123.989598 
L 368.260286 124.205893 
Q 367.850619 123.804044 367.733219 123.304605 
Q 367.614706 122.803256 367.780108 122.174653 
Q 367.803566 122.0855 367.844282 121.979884 
Q 367.883487 121.873871 367.942255 121.748769 
L 368.834977 121.978821 
z
M 369.354239 119.18258 
Q 369.170547 119.880693 369.609087 120.430703 
Q 370.047628 120.980714 370.996577 121.230407 
Q 371.945526 121.480101 372.59718 121.22018 
Q 373.249232 120.958748 373.434117 120.256103 
Q 373.617013 119.561012 373.176564 119.012115 
Q 372.735002 118.461309 371.790586 118.212809 
Q 370.850703 117.965501 370.19372 118.227251 
Q 369.537135 118.48749 369.354239 119.18258 
z
M 368.61835 118.988949 
Q 368.916551 117.855649 369.824124 117.402942 
Q 370.730584 116.948327 372.033122 117.291059 
Q 373.331128 117.632598 373.900979 118.47567 
Q 374.469717 119.316833 374.171517 120.450132 
Q 373.872123 121.587964 372.963436 122.038763 
Q 372.053636 122.487652 370.755631 122.146113 
Q 369.453092 121.803381 368.886581 120.966035 
Q 368.318956 120.126781 368.61835 118.988949 
z
M 374.479476 115.497295 
L 377.284014 116.235243 
L 377.0542 117.108639 
L 369.754242 115.187829 
L 369.984055 114.314433 
L 370.786431 114.525559 
Q 370.387342 114.126493 370.268909 113.649401 
Q 370.149362 113.170401 370.302041 112.590152 
Q 370.55571 111.626092 371.478555 111.225874 
Q 372.401797 110.824144 373.648426 111.152165 
Q 374.895055 111.480186 375.502523 112.284685 
Q 376.108877 113.087275 375.855207 114.051335 
Q 375.702529 114.631584 375.362711 114.989714 
Q 375.023291 115.346333 374.479476 115.497295 
z
M 373.411058 112.054271 
Q 372.453042 111.802192 371.803774 112.053047 
Q 371.154505 112.303901 370.973199 112.992947 
Q 370.791496 113.683504 371.233217 114.221426 
Q 371.674937 114.759348 372.632953 115.011427 
Q 373.590969 115.263506 374.240237 115.012652 
Q 374.889506 114.761798 375.07121 114.071241 
Q 375.252516 113.382195 374.810795 112.844273 
Q 374.369074 112.30635 373.411058 112.054271 
z
M 374.556732 109.94755 
L 371.354784 109.105033 
L 371.583405 108.236171 
L 374.75211 109.06994 
Q 375.503109 109.267548 375.956102 109.074914 
Q 376.40798 108.880373 376.56225 108.294079 
Q 376.747134 107.591434 376.4057 107.065358 
Q 376.064663 106.537772 375.289486 106.333803 
L 372.291532 105.544963 
L 372.520152 104.6761 
L 377.808883 106.067703 
L 377.580262 106.936566 
L 376.767309 106.722657 
Q 377.16624 107.165304 377.29032 107.645497 
Q 377.414797 108.12418 377.269275 108.67723 
Q 377.029522 109.588402 376.338423 109.912266 
Q 375.647722 110.234618 374.556732 109.94755 
z
M 371.803183 106.885123 
L 371.803183 106.885123 
z
M 376.6082 99.001036 
L 377.03281 99.112762 
L 375.981553 103.10802 
Q 376.894235 103.286775 377.491408 102.926887 
Q 378.088582 102.567 378.31601 101.702671 
Q 378.447616 101.202508 378.448873 100.700361 
Q 378.450131 100.198214 378.325891 99.669507 
L 379.14791 99.885802 
Q 379.222604 100.406318 379.197647 100.924849 
Q 379.17269 101.44338 379.039892 101.948076 
Q 378.706702 103.214349 377.776386 103.759629 
Q 376.844559 104.304511 375.587352 103.973707 
Q 374.289347 103.632167 373.712257 102.730642 
Q 373.133655 101.828719 373.446965 100.637999 
Q 373.727671 99.571187 374.57862 99.131047 
Q 375.428058 98.69051 376.6082 99.001036 
z
M 376.124209 99.802705 
Q 375.410112 99.624501 374.882921 99.90263 
Q 374.35422 100.180362 374.185239 100.822564 
Q 373.993993 101.549387 374.290097 102.094233 
Q 374.5862 102.639078 375.315172 102.90198 
L 376.124209 99.802705 
z
M 375.599252 93.606564 
L 376.421272 93.822859 
Q 376.135772 94.140348 375.937517 94.513107 
Q 375.738148 94.883957 375.626025 95.310078 
Q 375.455852 95.956814 375.568715 96.332267 
Q 375.681578 96.707721 376.078988 96.81229 
Q 376.381201 96.891811 376.614295 96.705944 
Q 376.84739 96.520077 377.187119 95.861407 
L 377.331933 95.581221 
Q 377.773215 94.708535 378.23694 94.413706 
Q 378.700666 94.118878 379.347402 94.289051 
Q 380.084802 94.483081 380.361982 95.179668 
Q 380.637651 95.875858 380.36927 96.895828 
Q 380.257544 97.320437 380.053167 97.759444 
Q 379.848791 98.198451 379.550093 98.664342 
L 378.65252 98.428167 
Q 379.030191 98.012139 379.278469 97.57822 
Q 379.525235 97.143904 379.646105 96.68454 
Q 379.807531 96.071047 379.68417 95.686369 
Q 379.561207 95.300179 379.178907 95.199586 
Q 378.825318 95.106547 378.573613 95.295595 
Q 378.322307 95.483133 377.934307 96.245431 
L 377.783766 96.528957 
Q 377.402208 97.291335 376.955501 97.558327 
Q 376.509191 97.823809 375.895698 97.662383 
Q 375.149232 97.465968 374.883427 96.830538 
Q 374.61611 96.19471 374.872165 95.221584 
Q 374.998602 94.741065 375.181348 94.335143 
Q 375.362981 93.927312 375.599252 93.606564 
z
M 374.606551 90.643327 
L 376.108551 91.038542 
L 376.57931 89.24944 
L 377.254756 89.427168 
L 376.783997 91.21627 
L 379.655022 91.971712 
Q 380.301758 92.141885 380.532627 92.013598 
Q 380.763497 91.88531 380.906633 91.341326 
L 381.141218 90.449798 
L 381.86804 90.641044 
L 381.633456 91.532573 
Q 381.368653 92.538942 380.893316 92.822637 
Q 380.416468 93.105934 379.425209 92.845108 
L 376.554184 92.089666 
L 376.386396 92.727336 
L 375.71095 92.549608 
L 375.878737 91.911938 
L 374.376738 91.516723 
L 374.606551 90.643327 
z
M 380.143394 86.394626 
Q 379.866266 87.447839 379.999571 87.917534 
Q 380.132876 88.387229 380.714636 88.540305 
Q 381.177022 88.661971 381.529329 88.428304 
Q 381.880126 88.194239 382.017696 87.671411 
Q 382.208146 86.94761 381.810802 86.376125 
Q 381.413457 85.804641 380.564238 85.581189 
L 380.370822 85.530296 
L 380.143394 86.394626 
z
M 380.239809 84.566804 
L 383.257407 85.360813 
L 383.028786 86.229676 
L 382.22641 86.01855 
Q 382.628602 86.442667 382.741389 86.947356 
Q 382.854177 87.452044 382.685196 88.094247 
Q 382.471685 88.90569 381.888906 89.266133 
Q 381.306524 89.625065 380.541925 89.423879 
Q 379.650396 89.189295 379.354129 88.473144 
Q 379.058259 87.755481 379.369978 86.570806 
L 379.690842 85.351376 
L 379.604711 85.328712 
Q 379.004818 85.170865 378.573143 85.478974 
Q 378.141468 85.787082 377.9538 86.500305 
Q 377.83452 86.953625 377.830001 87.412906 
Q 377.825879 87.870676 377.939301 88.32383 
L 377.135414 88.112306 
Q 377.076308 87.587813 377.103732 87.115171 
Q 377.129644 86.64213 377.24137 86.217521 
Q 377.543547 85.069111 378.288007 84.659116 
Q 379.030956 84.248723 380.239809 84.566804 
z
" clip-path="url(#p88cf5ee009)" style="fill: #207653"/>
   </g>
   <g id="patch_8">
    <path d="M 253.50125 150.39475 
L 253.50125 39.51475 
" style="fill: none; stroke: #000000; stroke-width: 0.8; stroke-linejoin: miter; stroke-linecap: square"/>
   </g>
   <g id="patch_9">
    <path d="M 439.50125 150.39475 
L 439.50125 39.51475 
" style="fill: none; stroke: #000000; stroke-width: 0.8; stroke-linejoin: miter; stroke-linecap: square"/>
   </g>
   <g id="patch_10">
    <path d="M 253.50125 150.39475 
L 439.50125 150.39475 
" style="fill: none; stroke: #000000; stroke-width: 0.8; stroke-linejoin: miter; stroke-linecap: square"/>
   </g>
   <g id="patch_11">
    <path d="M 253.50125 39.51475 
L 439.50125 39.51475 
" style="fill: none; stroke: #000000; stroke-width: 0.8; stroke-linejoin: miter; stroke-linecap: square"/>
   </g>
   <g id="text_36">
    <!-- Estación húmeda  -->
    <g transform="translate(283.703594 17.837812) scale(0.14 -0.14)">
     <defs>
      <path id="DejaVuSans-fa" d="M 544 1381 
L 544 3500 
L 1119 3500 
L 1119 1403 
Q 1119 906 1312 657 
Q 1506 409 1894 409 
Q 2359 409 2629 706 
Q 2900 1003 2900 1516 
L 2900 3500 
L 3475 3500 
L 3475 0 
L 2900 0 
L 2900 538 
Q 2691 219 2414 64 
Q 2138 -91 1772 -91 
Q 1169 -91 856 284 
Q 544 659 544 1381 
z
M 1991 3584 
L 1991 3584 
z
M 2418 5119 
L 3040 5119 
L 2022 3944 
L 1543 3944 
L 2418 5119 
z
" transform="scale(0.015625)"/>
      <path id="DejaVuSans-6d" d="M 3328 2828 
Q 3544 3216 3844 3400 
Q 4144 3584 4550 3584 
Q 5097 3584 5394 3201 
Q 5691 2819 5691 2113 
L 5691 0 
L 5113 0 
L 5113 2094 
Q 5113 2597 4934 2840 
Q 4756 3084 4391 3084 
Q 3944 3084 3684 2787 
Q 3425 2491 3425 1978 
L 3425 0 
L 2847 0 
L 2847 2094 
Q 2847 2600 2669 2842 
Q 2491 3084 2119 3084 
Q 1678 3084 1418 2786 
Q 1159 2488 1159 1978 
L 1159 0 
L 581 0 
L 581 3500 
L 1159 3500 
L 1159 2956 
Q 1356 3278 1631 3431 
Q 1906 3584 2284 3584 
Q 2666 3584 2933 3390 
Q 3200 3197 3328 2828 
z
" transform="scale(0.015625)"/>
     </defs>
     <use xlink:href="#DejaVuSans-45"/>
     <use xlink:href="#DejaVuSans-73" transform="translate(63.183594 0)"/>
     <use xlink:href="#DejaVuSans-74" transform="translate(115.283203 0)"/>
     <use xlink:href="#DejaVuSans-61" transform="translate(154.492188 0)"/>
     <use xlink:href="#DejaVuSans-63" transform="translate(215.771484 0)"/>
     <use xlink:href="#DejaVuSans-69" transform="translate(270.751953 0)"/>
     <use xlink:href="#DejaVuSans-f3" transform="translate(298.535156 0)"/>
     <use xlink:href="#DejaVuSans-6e" transform="translate(359.716797 0)"/>
     <use xlink:href="#DejaVuSans-20" transform="translate(423.095703 0)"/>
     <use xlink:href="#DejaVuSans-68" transform="translate(454.882812 0)"/>
     <use xlink:href="#DejaVuSans-fa" transform="translate(518.261719 0)"/>
     <use xlink:href="#DejaVuSans-6d" transform="translate(581.640625 0)"/>
     <use xlink:href="#DejaVuSans-65" transform="translate(679.052734 0)"/>
     <use xlink:href="#DejaVuSans-64" transform="translate(740.576172 0)"/>
     <use xlink:href="#DejaVuSans-61" transform="translate(804.052734 0)"/>
     <use xlink:href="#DejaVuSans-20" transform="translate(865.332031 0)"/>
    </g>
    <!--  (nov-abr) -->
    <g transform="translate(311.998906 33.51475) scale(0.14 -0.14)">
     <use xlink:href="#DejaVuSans-20"/>
     <use xlink:href="#DejaVuSans-28" transform="translate(31.787109 0)"/>
     <use xlink:href="#DejaVuSans-6e" transform="translate(70.800781 0)"/>
     <use xlink:href="#DejaVuSans-6f" transform="translate(134.179688 0)"/>
     <use xlink:href="#DejaVuSans-76" transform="translate(195.361328 0)"/>
     <use xlink:href="#DejaVuSans-2d" transform="translate(251.916016 0)"/>
     <use xlink:href="#DejaVuSans-61" transform="translate(288 0)"/>
     <use xlink:href="#DejaVuSans-62" transform="translate(349.279297 0)"/>
     <use xlink:href="#DejaVuSans-72" transform="translate(412.755859 0)"/>
     <use xlink:href="#DejaVuSans-29" transform="translate(453.869141 0)"/>
    </g>
   </g>
  </g>
 </g>
 <defs>
  <clipPath id="pf2ae985067">
   <rect x="48.90125" y="39.51475" width="186" height="110.88"/>
  </clipPath>
  <clipPath id="p88cf5ee009">
   <rect x="253.50125" y="39.51475" width="186" height="110.88"/>
  </clipPath>
 </defs>
</svg>
