<?xml version="1.0" encoding="utf-8" standalone="no"?>
<!DOCTYPE svg PUBLIC "-//W3C//DTD SVG 1.1//EN"
  "http://www.w3.org/Graphics/SVG/1.1/DTD/svg11.dtd">
<svg xmlns:xlink="http://www.w3.org/1999/xlink" width="1534.667946pt" height="342.435812pt" viewBox="0 0 1534.667946 342.435812" xmlns="http://www.w3.org/2000/svg" version="1.1">
 <metadata>
  <rdf:RDF xmlns:dc="http://purl.org/dc/elements/1.1/" xmlns:cc="http://creativecommons.org/ns#" xmlns:rdf="http://www.w3.org/1999/02/22-rdf-syntax-ns#">
   <cc:Work>
    <dc:type rdf:resource="http://purl.org/dc/dcmitype/StillImage"/>
    <dc:date>2026-04-06T16:07:23.103313</dc:date>
    <dc:format>image/svg+xml</dc:format>
    <dc:creator>
     <cc:Agent>
      <dc:title>Matplotlib v3.10.3, https://matplotlib.org/</dc:title>
     </cc:Agent>
    </dc:creator>
   </cc:Work>
  </rdf:RDF>
 </metadata>
 <defs>
  <style type="text/css">*{stroke-linejoin: round; stroke-linecap: butt}</style>
 </defs>
 <g id="figure_1">
  <g id="patch_1">
   <path d="M 0 342.435812 
L 1534.667946 342.435812 
L 1534.667946 0 
L 0 0 
z
" style="fill: #ffffff"/>
  </g>
  <g id="axes_1">
   <g id="patch_2">
    <path d="M 133.295625 115.936813 
C 116.140057 115.936813 99.326355 120.768247 84.787791 129.875587 
C 70.249226 138.982927 58.56523 152.003202 51.079251 167.439316 
C 43.593273 182.875431 40.603663 200.112181 42.454173 217.167653 
C 44.304684 234.223124 50.921562 250.417575 61.543988 263.888937 
L 115.633684 221.238178 
C 113.018933 217.92215 111.390162 213.935824 110.934652 209.737554 
C 110.479142 205.539284 111.215046 201.296392 113.057748 197.496733 
C 114.900451 193.697074 117.776511 190.492083 121.355235 188.250276 
C 124.933959 186.00847 129.072716 184.819194 133.295625 184.819194 
z
" style="fill: #a1140b; stroke: #ffffff; stroke-linejoin: miter"/>
   </g>
   <g id="patch_3">
    <path d="M 61.543986 263.888936 
C 64.587962 267.749303 67.938524 271.357728 71.563026 274.679054 
C 75.187528 278.000379 79.074163 281.02379 83.185079 283.719831 
L 120.960721 226.119629 
C 119.948804 225.455988 118.992093 224.711764 118.099908 223.894207 
C 117.207723 223.07665 116.382969 222.188422 115.633683 221.238178 
z
" style="fill: #fbaa1b; stroke: #ffffff; stroke-linejoin: miter"/>
   </g>
   <g id="patch_4">
    <path d="M 83.185079 283.719831 
C 92.833892 290.047765 103.594615 294.491142 114.897017 296.814506 
C 126.199419 299.13787 137.840276 299.299463 149.202814 297.290713 
L 137.211241 229.460154 
C 134.414308 229.954615 131.548867 229.914838 128.766737 229.342933 
C 125.984607 228.771028 123.335814 227.677274 120.960721 226.119629 
z
" style="fill: #8fc73e; stroke: #ffffff; stroke-linejoin: miter"/>
   </g>
   <g id="patch_5">
    <path d="M 149.202814 297.290713 
C 171.666976 293.319338 191.84925 281.075879 205.749217 262.987173 
C 219.649184 244.898468 226.283453 222.244216 224.336988 199.514905 
C 222.390522 176.785595 212.001022 155.589202 195.227882 140.127244 
C 178.454742 124.665285 156.484617 116.031634 133.672306 115.937592 
L 133.388347 184.819385 
C 139.003684 184.842534 144.411715 186.967741 148.540488 190.773761 
C 152.669261 194.579782 155.226677 199.797355 155.705807 205.392262 
C 156.184937 210.98717 154.551886 216.563601 151.130355 221.016205 
C 147.708825 225.46881 142.740881 228.482584 137.211241 229.460154 
z
" style="fill: #207653; stroke: #ffffff; stroke-linejoin: miter"/>
   </g>
   <g id="patch_6">
    <path d="M 133.672306 115.937592 
C 133.609521 115.93733 133.546736 115.93714 133.483951 115.937009 
C 133.421165 115.936878 133.35838 115.936813 133.295594 115.936813 
L 133.295617 184.819194 
C 133.311072 184.819194 133.326527 184.81921 133.341982 184.819242 
C 133.357437 184.819274 133.372892 184.819321 133.388347 184.819385 
z
" style="fill: url(#h9cc07f9305); stroke: #ffffff; stroke-linejoin: miter"/>
   </g>
   <g id="matplotlib.axis_1"/>
   <g id="matplotlib.axis_2"/>
   <g id="text_1">
    <!-- 35.6% -->
    <g transform="translate(58.552049 187.803154) scale(0.16 -0.16)">
     <defs>
      <path id="DejaVuSans-33" d="M 2597 2516 
Q 3050 2419 3304 2112 
Q 3559 1806 3559 1356 
Q 3559 666 3084 287 
Q 2609 -91 1734 -91 
Q 1441 -91 1130 -33 
Q 819 25 488 141 
L 488 750 
Q 750 597 1062 519 
Q 1375 441 1716 441 
Q 2309 441 2620 675 
Q 2931 909 2931 1356 
Q 2931 1769 2642 2001 
Q 2353 2234 1838 2234 
L 1294 2234 
L 1294 2753 
L 1863 2753 
Q 2328 2753 2575 2939 
Q 2822 3125 2822 3475 
Q 2822 3834 2567 4026 
Q 2313 4219 1838 4219 
Q 1578 4219 1281 4162 
Q 984 4106 628 3988 
L 628 4550 
Q 988 4650 1302 4700 
Q 1616 4750 1894 4750 
Q 2613 4750 3031 4423 
Q 3450 4097 3450 3541 
Q 3450 3153 3228 2886 
Q 3006 2619 2597 2516 
z
" transform="scale(0.015625)"/>
      <path id="DejaVuSans-35" d="M 691 4666 
L 3169 4666 
L 3169 4134 
L 1269 4134 
L 1269 2991 
Q 1406 3038 1543 3061 
Q 1681 3084 1819 3084 
Q 2600 3084 3056 2656 
Q 3513 2228 3513 1497 
Q 3513 744 3044 326 
Q 2575 -91 1722 -91 
Q 1428 -91 1123 -41 
Q 819 9 494 109 
L 494 744 
Q 775 591 1075 516 
Q 1375 441 1709 441 
Q 2250 441 2565 725 
Q 2881 1009 2881 1497 
Q 2881 1984 2565 2268 
Q 2250 2553 1709 2553 
Q 1456 2553 1204 2497 
Q 953 2441 691 2322 
L 691 4666 
z
" transform="scale(0.015625)"/>
      <path id="DejaVuSans-2e" d="M 684 794 
L 1344 794 
L 1344 0 
L 684 0 
L 684 794 
z
" transform="scale(0.015625)"/>
      <path id="DejaVuSans-36" d="M 2113 2584 
Q 1688 2584 1439 2293 
Q 1191 2003 1191 1497 
Q 1191 994 1439 701 
Q 1688 409 2113 409 
Q 2538 409 2786 701 
Q 3034 994 3034 1497 
Q 3034 2003 2786 2293 
Q 2538 2584 2113 2584 
z
M 3366 4563 
L 3366 3988 
Q 3128 4100 2886 4159 
Q 2644 4219 2406 4219 
Q 1781 4219 1451 3797 
Q 1122 3375 1075 2522 
Q 1259 2794 1537 2939 
Q 1816 3084 2150 3084 
Q 2853 3084 3261 2657 
Q 3669 2231 3669 1497 
Q 3669 778 3244 343 
Q 2819 -91 2113 -91 
Q 1303 -91 875 529 
Q 447 1150 447 2328 
Q 447 3434 972 4092 
Q 1497 4750 2381 4750 
Q 2619 4750 2861 4703 
Q 3103 4656 3366 4563 
z
" transform="scale(0.015625)"/>
      <path id="DejaVuSans-25" d="M 4653 2053 
Q 4381 2053 4226 1822 
Q 4072 1591 4072 1178 
Q 4072 772 4226 539 
Q 4381 306 4653 306 
Q 4919 306 5073 539 
Q 5228 772 5228 1178 
Q 5228 1588 5073 1820 
Q 4919 2053 4653 2053 
z
M 4653 2450 
Q 5147 2450 5437 2106 
Q 5728 1763 5728 1178 
Q 5728 594 5436 251 
Q 5144 -91 4653 -91 
Q 4153 -91 3862 251 
Q 3572 594 3572 1178 
Q 3572 1766 3864 2108 
Q 4156 2450 4653 2450 
z
M 1428 4353 
Q 1159 4353 1004 4120 
Q 850 3888 850 3481 
Q 850 3069 1003 2837 
Q 1156 2606 1428 2606 
Q 1700 2606 1854 2837 
Q 2009 3069 2009 3481 
Q 2009 3884 1853 4118 
Q 1697 4353 1428 4353 
z
M 4250 4750 
L 4750 4750 
L 1831 -91 
L 1331 -91 
L 4250 4750 
z
M 1428 4750 
Q 1922 4750 2215 4408 
Q 2509 4066 2509 3481 
Q 2509 2891 2217 2550 
Q 1925 2209 1428 2209 
Q 931 2209 642 2551 
Q 353 2894 353 3481 
Q 353 4063 643 4406 
Q 934 4750 1428 4750 
z
" transform="scale(0.015625)"/>
     </defs>
     <use xlink:href="#DejaVuSans-33"/>
     <use xlink:href="#DejaVuSans-35" transform="translate(63.623047 0)"/>
     <use xlink:href="#DejaVuSans-2e" transform="translate(127.246094 0)"/>
     <use xlink:href="#DejaVuSans-36" transform="translate(159.033203 0)"/>
     <use xlink:href="#DejaVuSans-25" transform="translate(222.65625 0)"/>
    </g>
   </g>
   <g id="text_2">
    <!-- 5.1% -->
    <g transform="translate(75.932324 252.147002) scale(0.16 -0.16)">
     <defs>
      <path id="DejaVuSans-31" d="M 794 531 
L 1825 531 
L 1825 4091 
L 703 3866 
L 703 4441 
L 1819 4666 
L 2450 4666 
L 2450 531 
L 3481 531 
L 3481 0 
L 794 0 
L 794 531 
z
" transform="scale(0.015625)"/>
     </defs>
     <use xlink:href="#DejaVuSans-35"/>
     <use xlink:href="#DejaVuSans-2e" transform="translate(63.623047 0)"/>
     <use xlink:href="#DejaVuSans-31" transform="translate(95.410156 0)"/>
     <use xlink:href="#DejaVuSans-25" transform="translate(159.033203 0)"/>
    </g>
   </g>
   <g id="text_3">
    <!-- 12.0% -->
    <g transform="translate(96.842684 265.428259) scale(0.16 -0.16)">
     <defs>
      <path id="DejaVuSans-32" d="M 1228 531 
L 3431 531 
L 3431 0 
L 469 0 
L 469 531 
Q 828 903 1448 1529 
Q 2069 2156 2228 2338 
Q 2531 2678 2651 2914 
Q 2772 3150 2772 3378 
Q 2772 3750 2511 3984 
Q 2250 4219 1831 4219 
Q 1534 4219 1204 4116 
Q 875 4013 500 3803 
L 500 4441 
Q 881 4594 1212 4672 
Q 1544 4750 1819 4750 
Q 2544 4750 2975 4387 
Q 3406 4025 3406 3419 
Q 3406 3131 3298 2873 
Q 3191 2616 2906 2266 
Q 2828 2175 2409 1742 
Q 1991 1309 1228 531 
z
" transform="scale(0.015625)"/>
      <path id="DejaVuSans-30" d="M 2034 4250 
Q 1547 4250 1301 3770 
Q 1056 3291 1056 2328 
Q 1056 1369 1301 889 
Q 1547 409 2034 409 
Q 2525 409 2770 889 
Q 3016 1369 3016 2328 
Q 3016 3291 2770 3770 
Q 2525 4250 2034 4250 
z
M 2034 4750 
Q 2819 4750 3233 4129 
Q 3647 3509 3647 2328 
Q 3647 1150 3233 529 
Q 2819 -91 2034 -91 
Q 1250 -91 836 529 
Q 422 1150 422 2328 
Q 422 3509 836 4129 
Q 1250 4750 2034 4750 
z
" transform="scale(0.015625)"/>
     </defs>
     <use xlink:href="#DejaVuSans-31"/>
     <use xlink:href="#DejaVuSans-32" transform="translate(63.623047 0)"/>
     <use xlink:href="#DejaVuSans-2e" transform="translate(127.246094 0)"/>
     <use xlink:href="#DejaVuSans-30" transform="translate(159.033203 0)"/>
     <use xlink:href="#DejaVuSans-25" transform="translate(222.65625 0)"/>
    </g>
   </g>
   <g id="text_4">
    <!-- 47.1% -->
    <g transform="translate(162.506693 207.048503) scale(0.16 -0.16)">
     <defs>
      <path id="DejaVuSans-34" d="M 2419 4116 
L 825 1625 
L 2419 1625 
L 2419 4116 
z
M 2253 4666 
L 3047 4666 
L 3047 1625 
L 3713 1625 
L 3713 1100 
L 3047 1100 
L 3047 0 
L 2419 0 
L 2419 1100 
L 313 1100 
L 313 1709 
L 2253 4666 
z
" transform="scale(0.015625)"/>
      <path id="DejaVuSans-37" d="M 525 4666 
L 3525 4666 
L 3525 4397 
L 1831 0 
L 1172 0 
L 2766 4134 
L 525 4134 
L 525 4666 
z
" transform="scale(0.015625)"/>
     </defs>
     <use xlink:href="#DejaVuSans-34"/>
     <use xlink:href="#DejaVuSans-37" transform="translate(63.623047 0)"/>
     <use xlink:href="#DejaVuSans-2e" transform="translate(127.246094 0)"/>
     <use xlink:href="#DejaVuSans-31" transform="translate(159.033203 0)"/>
     <use xlink:href="#DejaVuSans-25" transform="translate(222.65625 0)"/>
    </g>
   </g>
   <g id="text_5">
    <!-- 0.1% -->
    <g transform="translate(113.08487 156.901764) scale(0.16 -0.16)">
     <use xlink:href="#DejaVuSans-30"/>
     <use xlink:href="#DejaVuSans-2e" transform="translate(63.623047 0)"/>
     <use xlink:href="#DejaVuSans-31" transform="translate(95.410156 0)"/>
     <use xlink:href="#DejaVuSans-25" transform="translate(159.033203 0)"/>
    </g>
   </g>
   <g id="text_6">
    <!-- 2025 (11430 GWh) -->
    <g transform="translate(7.2 113.45122) scale(0.24 -0.24)">
     <defs>
      <path id="DejaVuSans-Bold-32" d="M 1844 884 
L 3897 884 
L 3897 0 
L 506 0 
L 506 884 
L 2209 2388 
Q 2438 2594 2547 2791 
Q 2656 2988 2656 3200 
Q 2656 3528 2436 3728 
Q 2216 3928 1850 3928 
Q 1569 3928 1234 3808 
Q 900 3688 519 3450 
L 519 4475 
Q 925 4609 1322 4679 
Q 1719 4750 2100 4750 
Q 2938 4750 3402 4381 
Q 3866 4013 3866 3353 
Q 3866 2972 3669 2642 
Q 3472 2313 2841 1759 
L 1844 884 
z
" transform="scale(0.015625)"/>
      <path id="DejaVuSans-Bold-30" d="M 2944 2338 
Q 2944 3213 2780 3570 
Q 2616 3928 2228 3928 
Q 1841 3928 1675 3570 
Q 1509 3213 1509 2338 
Q 1509 1453 1675 1090 
Q 1841 728 2228 728 
Q 2613 728 2778 1090 
Q 2944 1453 2944 2338 
z
M 4147 2328 
Q 4147 1169 3647 539 
Q 3147 -91 2228 -91 
Q 1306 -91 806 539 
Q 306 1169 306 2328 
Q 306 3491 806 4120 
Q 1306 4750 2228 4750 
Q 3147 4750 3647 4120 
Q 4147 3491 4147 2328 
z
" transform="scale(0.015625)"/>
      <path id="DejaVuSans-Bold-35" d="M 678 4666 
L 3669 4666 
L 3669 3781 
L 1638 3781 
L 1638 3059 
Q 1775 3097 1914 3117 
Q 2053 3138 2203 3138 
Q 3056 3138 3531 2711 
Q 4006 2284 4006 1522 
Q 4006 766 3489 337 
Q 2972 -91 2053 -91 
Q 1656 -91 1267 -14 
Q 878 63 494 219 
L 494 1166 
Q 875 947 1217 837 
Q 1559 728 1863 728 
Q 2300 728 2551 942 
Q 2803 1156 2803 1522 
Q 2803 1891 2551 2103 
Q 2300 2316 1863 2316 
Q 1603 2316 1309 2248 
Q 1016 2181 678 2041 
L 678 4666 
z
" transform="scale(0.015625)"/>
      <path id="DejaVuSans-Bold-20" transform="scale(0.015625)"/>
      <path id="DejaVuSans-Bold-28" d="M 2413 -844 
L 1484 -844 
Q 1006 -72 778 623 
Q 550 1319 550 2003 
Q 550 2688 779 3389 
Q 1009 4091 1484 4856 
L 2413 4856 
Q 2013 4116 1813 3408 
Q 1613 2700 1613 2009 
Q 1613 1319 1811 609 
Q 2009 -100 2413 -844 
z
" transform="scale(0.015625)"/>
      <path id="DejaVuSans-Bold-31" d="M 750 831 
L 1813 831 
L 1813 3847 
L 722 3622 
L 722 4441 
L 1806 4666 
L 2950 4666 
L 2950 831 
L 4013 831 
L 4013 0 
L 750 0 
L 750 831 
z
" transform="scale(0.015625)"/>
      <path id="DejaVuSans-Bold-34" d="M 2356 3675 
L 1038 1722 
L 2356 1722 
L 2356 3675 
z
M 2156 4666 
L 3494 4666 
L 3494 1722 
L 4159 1722 
L 4159 850 
L 3494 850 
L 3494 0 
L 2356 0 
L 2356 850 
L 288 850 
L 288 1881 
L 2156 4666 
z
" transform="scale(0.015625)"/>
      <path id="DejaVuSans-Bold-33" d="M 2981 2516 
Q 3453 2394 3698 2092 
Q 3944 1791 3944 1325 
Q 3944 631 3412 270 
Q 2881 -91 1863 -91 
Q 1503 -91 1142 -33 
Q 781 25 428 141 
L 428 1069 
Q 766 900 1098 814 
Q 1431 728 1753 728 
Q 2231 728 2486 893 
Q 2741 1059 2741 1369 
Q 2741 1688 2480 1852 
Q 2219 2016 1709 2016 
L 1228 2016 
L 1228 2791 
L 1734 2791 
Q 2188 2791 2409 2933 
Q 2631 3075 2631 3366 
Q 2631 3634 2415 3781 
Q 2200 3928 1806 3928 
Q 1516 3928 1219 3862 
Q 922 3797 628 3669 
L 628 4550 
Q 984 4650 1334 4700 
Q 1684 4750 2022 4750 
Q 2931 4750 3382 4451 
Q 3834 4153 3834 3553 
Q 3834 3144 3618 2883 
Q 3403 2622 2981 2516 
z
" transform="scale(0.015625)"/>
      <path id="DejaVuSans-Bold-47" d="M 4781 347 
Q 4331 128 3847 18 
Q 3363 -91 2847 -91 
Q 1681 -91 1000 561 
Q 319 1213 319 2328 
Q 319 3456 1012 4103 
Q 1706 4750 2913 4750 
Q 3378 4750 3804 4662 
Q 4231 4575 4609 4403 
L 4609 3438 
Q 4219 3659 3833 3768 
Q 3447 3878 3059 3878 
Q 2341 3878 1952 3476 
Q 1563 3075 1563 2328 
Q 1563 1588 1938 1184 
Q 2313 781 3003 781 
Q 3191 781 3352 804 
Q 3513 828 3641 878 
L 3641 1784 
L 2906 1784 
L 2906 2591 
L 4781 2591 
L 4781 347 
z
" transform="scale(0.015625)"/>
      <path id="DejaVuSans-Bold-57" d="M 191 4666 
L 1344 4666 
L 2150 1275 
L 2950 4666 
L 4109 4666 
L 4909 1275 
L 5716 4666 
L 6859 4666 
L 5759 0 
L 4372 0 
L 3525 3547 
L 2688 0 
L 1300 0 
L 191 4666 
z
" transform="scale(0.015625)"/>
      <path id="DejaVuSans-Bold-68" d="M 4056 2131 
L 4056 0 
L 2931 0 
L 2931 347 
L 2931 1625 
Q 2931 2084 2911 2256 
Q 2891 2428 2841 2509 
Q 2775 2619 2662 2680 
Q 2550 2741 2406 2741 
Q 2056 2741 1856 2470 
Q 1656 2200 1656 1722 
L 1656 0 
L 538 0 
L 538 4863 
L 1656 4863 
L 1656 2988 
Q 1909 3294 2193 3439 
Q 2478 3584 2822 3584 
Q 3428 3584 3742 3212 
Q 4056 2841 4056 2131 
z
" transform="scale(0.015625)"/>
      <path id="DejaVuSans-Bold-29" d="M 513 -844 
Q 913 -100 1113 609 
Q 1313 1319 1313 2009 
Q 1313 2700 1113 3408 
Q 913 4116 513 4856 
L 1441 4856 
Q 1916 4091 2145 3389 
Q 2375 2688 2375 2003 
Q 2375 1319 2147 623 
Q 1919 -72 1441 -844 
L 513 -844 
z
" transform="scale(0.015625)"/>
     </defs>
     <use xlink:href="#DejaVuSans-Bold-32"/>
     <use xlink:href="#DejaVuSans-Bold-30" transform="translate(69.580078 0)"/>
     <use xlink:href="#DejaVuSans-Bold-32" transform="translate(139.160156 0)"/>
     <use xlink:href="#DejaVuSans-Bold-35" transform="translate(208.740234 0)"/>
     <use xlink:href="#DejaVuSans-Bold-20" transform="translate(278.320312 0)"/>
     <use xlink:href="#DejaVuSans-Bold-28" transform="translate(313.134766 0)"/>
     <use xlink:href="#DejaVuSans-Bold-31" transform="translate(358.837891 0)"/>
     <use xlink:href="#DejaVuSans-Bold-31" transform="translate(428.417969 0)"/>
     <use xlink:href="#DejaVuSans-Bold-34" transform="translate(497.998047 0)"/>
     <use xlink:href="#DejaVuSans-Bold-33" transform="translate(567.578125 0)"/>
     <use xlink:href="#DejaVuSans-Bold-30" transform="translate(637.158203 0)"/>
     <use xlink:href="#DejaVuSans-Bold-20" transform="translate(706.738281 0)"/>
     <use xlink:href="#DejaVuSans-Bold-47" transform="translate(741.552734 0)"/>
     <use xlink:href="#DejaVuSans-Bold-57" transform="translate(823.632812 0)"/>
     <use xlink:href="#DejaVuSans-Bold-68" transform="translate(933.935547 0)"/>
     <use xlink:href="#DejaVuSans-Bold-29" transform="translate(1005.126953 0)"/>
    </g>
   </g>
  </g>
  <g id="axes_2">
   <g id="patch_7">
    <path d="M 389.460764 80.300724 
C 368.844841 80.300724 348.535585 85.32018 330.293266 94.924039 
C 312.050947 104.527898 296.418285 118.43044 284.750212 135.426686 
C 273.08214 152.422933 265.725789 172.007236 263.31876 192.48216 
C 260.91173 212.957084 263.525631 233.713488 270.933909 252.952348 
C 278.342186 272.191209 290.324439 289.340157 305.842127 302.912838 
C 321.359814 316.48552 339.951276 326.07814 360.00513 330.859274 
C 380.058984 335.640408 400.978616 335.467816 420.950855 330.356456 
C 440.923093 325.245096 459.353752 315.347034 474.645386 301.520167 
L 410.429287 230.50125 
C 406.665192 233.904786 402.128415 236.341232 397.212171 237.599413 
C 392.295928 238.857594 387.14648 238.900079 382.210147 237.723184 
C 377.273813 236.546289 372.697454 234.185029 368.877715 230.844061 
C 365.057977 227.503094 362.108499 223.281814 360.284923 218.546095 
C 358.461347 213.810375 357.817925 208.701106 358.410425 203.661125 
C 359.002924 198.621144 360.813718 193.800392 363.685859 189.616701 
C 366.558 185.433009 370.40604 182.010845 374.896457 179.646818 
C 379.386874 177.282792 384.386075 176.047233 389.460764 176.047233 
z
" style="fill: #a1140b; stroke: #ffffff; stroke-linejoin: miter"/>
   </g>
   <g id="patch_8">
    <path d="M 474.645395 301.52016 
C 478.88204 297.689335 482.855462 293.57708 486.538573 289.211404 
C 490.221683 284.845729 493.606118 280.236573 496.66881 275.41534 
L 415.850437 224.075446 
C 415.096544 225.262211 414.263452 226.396773 413.35684 227.471401 
C 412.450228 228.546028 411.472155 229.558276 410.429289 230.501248 
z
" style="fill: #fbaa1b; stroke: #ffffff; stroke-linejoin: miter"/>
   </g>
   <g id="patch_9">
    <path d="M 496.66881 275.41534 
C 501.046825 268.523545 504.750119 261.225598 507.727219 253.622922 
C 510.704319 246.020245 512.941403 238.148206 514.407386 230.116099 
L 420.216856 212.924864 
C 419.855999 214.901998 419.305332 216.839731 418.572507 218.711159 
C 417.839682 220.582587 416.928102 222.379005 415.850437 224.075446 
z
" style="fill: #8fc73e; stroke: #ffffff; stroke-linejoin: miter"/>
   </g>
   <g id="patch_10">
    <path d="M 514.407386 230.116099 
C 517.653395 212.331251 517.065082 194.056607 512.681866 176.517368 
C 508.298658 158.978127 500.220778 142.575247 488.989748 128.408337 
C 477.758718 114.241428 463.631281 102.634352 447.554584 94.365304 
C 431.477886 86.096256 413.8194 81.35424 395.763025 80.457182 
L 391.01209 176.085746 
C 395.456736 176.30656 399.803441 177.473826 403.760781 179.509284 
C 407.718122 181.544742 411.195645 184.401868 413.960206 187.889107 
C 416.724768 191.376347 418.713169 195.413979 419.792112 199.73133 
C 420.871058 204.048681 421.015874 208.547055 420.216856 212.924864 
z
" style="fill: #207653; stroke: #ffffff; stroke-linejoin: miter"/>
   </g>
   <g id="patch_11">
    <path d="M 395.763025 80.457182 
C 394.713501 80.405037 393.66334 80.365921 392.612844 80.33984 
C 391.562349 80.31376 390.511601 80.300724 389.460782 80.300724 
L 389.460769 176.047233 
C 389.719432 176.047233 389.978078 176.050442 390.236661 176.056862 
C 390.495244 176.063282 390.753746 176.07291 391.01209 176.085746 
z
" style="fill: url(#h9cc07f9305); stroke: #ffffff; stroke-linejoin: miter"/>
   </g>
   <g id="matplotlib.axis_3"/>
   <g id="matplotlib.axis_4"/>
   <g id="text_7">
    <!-- 61.7% -->
    <g transform="translate(292.930899 239.110963) scale(0.16 -0.16)">
     <use xlink:href="#DejaVuSans-36"/>
     <use xlink:href="#DejaVuSans-31" transform="translate(63.623047 0)"/>
     <use xlink:href="#DejaVuSans-2e" transform="translate(127.246094 0)"/>
     <use xlink:href="#DejaVuSans-37" transform="translate(159.033203 0)"/>
     <use xlink:href="#DejaVuSans-25" transform="translate(222.65625 0)"/>
    </g>
   </g>
   <g id="text_8">
    <!-- 4.3% -->
    <g transform="translate(427.383723 260.866374) scale(0.16 -0.16)">
     <use xlink:href="#DejaVuSans-34"/>
     <use xlink:href="#DejaVuSans-2e" transform="translate(63.623047 0)"/>
     <use xlink:href="#DejaVuSans-33" transform="translate(95.410156 0)"/>
     <use xlink:href="#DejaVuSans-25" transform="translate(159.033203 0)"/>
    </g>
   </g>
   <g id="text_9">
    <!-- 6.1% -->
    <g transform="translate(440.096888 239.513312) scale(0.16 -0.16)">
     <use xlink:href="#DejaVuSans-36"/>
     <use xlink:href="#DejaVuSans-2e" transform="translate(63.623047 0)"/>
     <use xlink:href="#DejaVuSans-31" transform="translate(95.410156 0)"/>
     <use xlink:href="#DejaVuSans-25" transform="translate(159.033203 0)"/>
    </g>
   </g>
   <g id="text_10">
    <!-- 27.1% -->
    <g transform="translate(423.764383 164.384536) scale(0.16 -0.16)">
     <use xlink:href="#DejaVuSans-32"/>
     <use xlink:href="#DejaVuSans-37" transform="translate(63.623047 0)"/>
     <use xlink:href="#DejaVuSans-2e" transform="translate(127.246094 0)"/>
     <use xlink:href="#DejaVuSans-31" transform="translate(159.033203 0)"/>
     <use xlink:href="#DejaVuSans-25" transform="translate(222.65625 0)"/>
    </g>
   </g>
   <g id="text_11">
    <!-- 0.8% -->
    <g transform="translate(371.028262 135.543466) scale(0.16 -0.16)">
     <defs>
      <path id="DejaVuSans-38" d="M 2034 2216 
Q 1584 2216 1326 1975 
Q 1069 1734 1069 1313 
Q 1069 891 1326 650 
Q 1584 409 2034 409 
Q 2484 409 2743 651 
Q 3003 894 3003 1313 
Q 3003 1734 2745 1975 
Q 2488 2216 2034 2216 
z
M 1403 2484 
Q 997 2584 770 2862 
Q 544 3141 544 3541 
Q 544 4100 942 4425 
Q 1341 4750 2034 4750 
Q 2731 4750 3128 4425 
Q 3525 4100 3525 3541 
Q 3525 3141 3298 2862 
Q 3072 2584 2669 2484 
Q 3125 2378 3379 2068 
Q 3634 1759 3634 1313 
Q 3634 634 3220 271 
Q 2806 -91 2034 -91 
Q 1263 -91 848 271 
Q 434 634 434 1313 
Q 434 1759 690 2068 
Q 947 2378 1403 2484 
z
M 1172 3481 
Q 1172 3119 1398 2916 
Q 1625 2713 2034 2713 
Q 2441 2713 2670 2916 
Q 2900 3119 2900 3481 
Q 2900 3844 2670 4047 
Q 2441 4250 2034 4250 
Q 1625 4250 1398 4047 
Q 1172 3844 1172 3481 
z
" transform="scale(0.015625)"/>
     </defs>
     <use xlink:href="#DejaVuSans-30"/>
     <use xlink:href="#DejaVuSans-2e" transform="translate(63.623047 0)"/>
     <use xlink:href="#DejaVuSans-38" transform="translate(95.410156 0)"/>
     <use xlink:href="#DejaVuSans-25" transform="translate(159.033203 0)"/>
    </g>
   </g>
   <g id="text_12">
    <!-- Escenario Tendencial  -->
    <g transform="translate(243.608264 52.311) scale(0.24 -0.24)">
     <defs>
      <path id="DejaVuSans-Bold-45" d="M 588 4666 
L 3834 4666 
L 3834 3756 
L 1791 3756 
L 1791 2888 
L 3713 2888 
L 3713 1978 
L 1791 1978 
L 1791 909 
L 3903 909 
L 3903 0 
L 588 0 
L 588 4666 
z
" transform="scale(0.015625)"/>
      <path id="DejaVuSans-Bold-73" d="M 3272 3391 
L 3272 2541 
Q 2913 2691 2578 2766 
Q 2244 2841 1947 2841 
Q 1628 2841 1473 2761 
Q 1319 2681 1319 2516 
Q 1319 2381 1436 2309 
Q 1553 2238 1856 2203 
L 2053 2175 
Q 2913 2066 3209 1816 
Q 3506 1566 3506 1031 
Q 3506 472 3093 190 
Q 2681 -91 1863 -91 
Q 1516 -91 1145 -36 
Q 775 19 384 128 
L 384 978 
Q 719 816 1070 734 
Q 1422 653 1784 653 
Q 2113 653 2278 743 
Q 2444 834 2444 1013 
Q 2444 1163 2330 1236 
Q 2216 1309 1875 1350 
L 1678 1375 
Q 931 1469 631 1722 
Q 331 1975 331 2491 
Q 331 3047 712 3315 
Q 1094 3584 1881 3584 
Q 2191 3584 2531 3537 
Q 2872 3491 3272 3391 
z
" transform="scale(0.015625)"/>
      <path id="DejaVuSans-Bold-63" d="M 3366 3391 
L 3366 2478 
Q 3138 2634 2908 2709 
Q 2678 2784 2431 2784 
Q 1963 2784 1702 2511 
Q 1441 2238 1441 1747 
Q 1441 1256 1702 982 
Q 1963 709 2431 709 
Q 2694 709 2930 787 
Q 3166 866 3366 1019 
L 3366 103 
Q 3103 6 2833 -42 
Q 2563 -91 2291 -91 
Q 1344 -91 809 395 
Q 275 881 275 1747 
Q 275 2613 809 3098 
Q 1344 3584 2291 3584 
Q 2566 3584 2833 3536 
Q 3100 3488 3366 3391 
z
" transform="scale(0.015625)"/>
      <path id="DejaVuSans-Bold-65" d="M 4031 1759 
L 4031 1441 
L 1416 1441 
Q 1456 1047 1700 850 
Q 1944 653 2381 653 
Q 2734 653 3104 758 
Q 3475 863 3866 1075 
L 3866 213 
Q 3469 63 3072 -14 
Q 2675 -91 2278 -91 
Q 1328 -91 801 392 
Q 275 875 275 1747 
Q 275 2603 792 3093 
Q 1309 3584 2216 3584 
Q 3041 3584 3536 3087 
Q 4031 2591 4031 1759 
z
M 2881 2131 
Q 2881 2450 2695 2645 
Q 2509 2841 2209 2841 
Q 1884 2841 1681 2658 
Q 1478 2475 1428 2131 
L 2881 2131 
z
" transform="scale(0.015625)"/>
      <path id="DejaVuSans-Bold-6e" d="M 4056 2131 
L 4056 0 
L 2931 0 
L 2931 347 
L 2931 1631 
Q 2931 2084 2911 2256 
Q 2891 2428 2841 2509 
Q 2775 2619 2662 2680 
Q 2550 2741 2406 2741 
Q 2056 2741 1856 2470 
Q 1656 2200 1656 1722 
L 1656 0 
L 538 0 
L 538 3500 
L 1656 3500 
L 1656 2988 
Q 1909 3294 2193 3439 
Q 2478 3584 2822 3584 
Q 3428 3584 3742 3212 
Q 4056 2841 4056 2131 
z
" transform="scale(0.015625)"/>
      <path id="DejaVuSans-Bold-61" d="M 2106 1575 
Q 1756 1575 1579 1456 
Q 1403 1338 1403 1106 
Q 1403 894 1545 773 
Q 1688 653 1941 653 
Q 2256 653 2472 879 
Q 2688 1106 2688 1447 
L 2688 1575 
L 2106 1575 
z
M 3816 1997 
L 3816 0 
L 2688 0 
L 2688 519 
Q 2463 200 2181 54 
Q 1900 -91 1497 -91 
Q 953 -91 614 226 
Q 275 544 275 1050 
Q 275 1666 698 1953 
Q 1122 2241 2028 2241 
L 2688 2241 
L 2688 2328 
Q 2688 2594 2478 2717 
Q 2269 2841 1825 2841 
Q 1466 2841 1156 2769 
Q 847 2697 581 2553 
L 581 3406 
Q 941 3494 1303 3539 
Q 1666 3584 2028 3584 
Q 2975 3584 3395 3211 
Q 3816 2838 3816 1997 
z
" transform="scale(0.015625)"/>
      <path id="DejaVuSans-Bold-72" d="M 3138 2547 
Q 2991 2616 2845 2648 
Q 2700 2681 2553 2681 
Q 2122 2681 1889 2404 
Q 1656 2128 1656 1613 
L 1656 0 
L 538 0 
L 538 3500 
L 1656 3500 
L 1656 2925 
Q 1872 3269 2151 3426 
Q 2431 3584 2822 3584 
Q 2878 3584 2943 3579 
Q 3009 3575 3134 3559 
L 3138 2547 
z
" transform="scale(0.015625)"/>
      <path id="DejaVuSans-Bold-69" d="M 538 3500 
L 1656 3500 
L 1656 0 
L 538 0 
L 538 3500 
z
M 538 4863 
L 1656 4863 
L 1656 3950 
L 538 3950 
L 538 4863 
z
" transform="scale(0.015625)"/>
      <path id="DejaVuSans-Bold-6f" d="M 2203 2784 
Q 1831 2784 1636 2517 
Q 1441 2250 1441 1747 
Q 1441 1244 1636 976 
Q 1831 709 2203 709 
Q 2569 709 2762 976 
Q 2956 1244 2956 1747 
Q 2956 2250 2762 2517 
Q 2569 2784 2203 2784 
z
M 2203 3584 
Q 3106 3584 3614 3096 
Q 4122 2609 4122 1747 
Q 4122 884 3614 396 
Q 3106 -91 2203 -91 
Q 1297 -91 786 396 
Q 275 884 275 1747 
Q 275 2609 786 3096 
Q 1297 3584 2203 3584 
z
" transform="scale(0.015625)"/>
      <path id="DejaVuSans-Bold-54" d="M 31 4666 
L 4331 4666 
L 4331 3756 
L 2784 3756 
L 2784 0 
L 1581 0 
L 1581 3756 
L 31 3756 
L 31 4666 
z
" transform="scale(0.015625)"/>
      <path id="DejaVuSans-Bold-64" d="M 2919 2988 
L 2919 4863 
L 4044 4863 
L 4044 0 
L 2919 0 
L 2919 506 
Q 2688 197 2409 53 
Q 2131 -91 1766 -91 
Q 1119 -91 703 423 
Q 288 938 288 1747 
Q 288 2556 703 3070 
Q 1119 3584 1766 3584 
Q 2128 3584 2408 3439 
Q 2688 3294 2919 2988 
z
M 2181 722 
Q 2541 722 2730 984 
Q 2919 1247 2919 1747 
Q 2919 2247 2730 2509 
Q 2541 2772 2181 2772 
Q 1825 2772 1636 2509 
Q 1447 2247 1447 1747 
Q 1447 1247 1636 984 
Q 1825 722 2181 722 
z
" transform="scale(0.015625)"/>
      <path id="DejaVuSans-Bold-6c" d="M 538 4863 
L 1656 4863 
L 1656 0 
L 538 0 
L 538 4863 
z
" transform="scale(0.015625)"/>
     </defs>
     <use xlink:href="#DejaVuSans-Bold-45"/>
     <use xlink:href="#DejaVuSans-Bold-73" transform="translate(68.310547 0)"/>
     <use xlink:href="#DejaVuSans-Bold-63" transform="translate(127.832031 0)"/>
     <use xlink:href="#DejaVuSans-Bold-65" transform="translate(187.109375 0)"/>
     <use xlink:href="#DejaVuSans-Bold-6e" transform="translate(254.931641 0)"/>
     <use xlink:href="#DejaVuSans-Bold-61" transform="translate(326.123047 0)"/>
     <use xlink:href="#DejaVuSans-Bold-72" transform="translate(393.603516 0)"/>
     <use xlink:href="#DejaVuSans-Bold-69" transform="translate(442.919922 0)"/>
     <use xlink:href="#DejaVuSans-Bold-6f" transform="translate(477.197266 0)"/>
     <use xlink:href="#DejaVuSans-Bold-20" transform="translate(545.898438 0)"/>
     <use xlink:href="#DejaVuSans-Bold-54" transform="translate(580.712891 0)"/>
     <use xlink:href="#DejaVuSans-Bold-65" transform="translate(635.675781 0)"/>
     <use xlink:href="#DejaVuSans-Bold-6e" transform="translate(703.498047 0)"/>
     <use xlink:href="#DejaVuSans-Bold-64" transform="translate(774.689453 0)"/>
     <use xlink:href="#DejaVuSans-Bold-65" transform="translate(846.271484 0)"/>
     <use xlink:href="#DejaVuSans-Bold-6e" transform="translate(914.09375 0)"/>
     <use xlink:href="#DejaVuSans-Bold-63" transform="translate(985.285156 0)"/>
     <use xlink:href="#DejaVuSans-Bold-69" transform="translate(1044.5625 0)"/>
     <use xlink:href="#DejaVuSans-Bold-61" transform="translate(1078.839844 0)"/>
     <use xlink:href="#DejaVuSans-Bold-6c" transform="translate(1146.320312 0)"/>
     <use xlink:href="#DejaVuSans-Bold-20" transform="translate(1180.597656 0)"/>
    </g>
    <!--  2050 (22410 GWh) -->
    <g transform="translate(259.187639 79.18575) scale(0.24 -0.24)">
     <use xlink:href="#DejaVuSans-Bold-20"/>
     <use xlink:href="#DejaVuSans-Bold-32" transform="translate(34.814453 0)"/>
     <use xlink:href="#DejaVuSans-Bold-30" transform="translate(104.394531 0)"/>
     <use xlink:href="#DejaVuSans-Bold-35" transform="translate(173.974609 0)"/>
     <use xlink:href="#DejaVuSans-Bold-30" transform="translate(243.554688 0)"/>
     <use xlink:href="#DejaVuSans-Bold-20" transform="translate(313.134766 0)"/>
     <use xlink:href="#DejaVuSans-Bold-28" transform="translate(347.949219 0)"/>
     <use xlink:href="#DejaVuSans-Bold-32" transform="translate(393.652344 0)"/>
     <use xlink:href="#DejaVuSans-Bold-32" transform="translate(463.232422 0)"/>
     <use xlink:href="#DejaVuSans-Bold-34" transform="translate(532.8125 0)"/>
     <use xlink:href="#DejaVuSans-Bold-31" transform="translate(602.392578 0)"/>
     <use xlink:href="#DejaVuSans-Bold-30" transform="translate(671.972656 0)"/>
     <use xlink:href="#DejaVuSans-Bold-20" transform="translate(741.552734 0)"/>
     <use xlink:href="#DejaVuSans-Bold-47" transform="translate(776.367188 0)"/>
     <use xlink:href="#DejaVuSans-Bold-57" transform="translate(858.447266 0)"/>
     <use xlink:href="#DejaVuSans-Bold-68" transform="translate(968.75 0)"/>
     <use xlink:href="#DejaVuSans-Bold-29" transform="translate(1039.941406 0)"/>
    </g>
   </g>
  </g>
  <g id="axes_3">
   <g id="patch_12">
    <path d="M 679.891374 80.300724 
C 663.00665 80.300724 646.290196 83.667692 630.722039 90.204234 
C 615.153881 96.740776 601.04432 106.316609 589.220547 118.370335 
C 577.396775 130.424061 568.094459 144.71543 561.858961 160.406589 
C 555.623463 176.097748 552.579068 192.875947 552.904256 209.757539 
C 553.229444 226.639131 556.917735 243.287639 563.752897 258.727019 
C 570.588059 274.1664 580.433857 288.08892 592.713065 299.678353 
C 604.992273 311.267786 619.460147 320.293134 635.268487 326.225275 
C 651.076827 332.157415 667.910547 334.878109 684.782745 334.227853 
L 681.095404 238.552373 
C 676.942247 238.712436 672.798562 238.042726 668.907279 236.582507 
C 665.015995 235.122288 661.454672 232.900664 658.432098 230.04788 
C 655.409523 227.195097 652.985942 223.768015 651.303441 219.967552 
C 649.62094 216.167089 648.713053 212.068995 648.633006 207.913526 
C 648.55296 203.758057 649.30235 199.628039 650.837241 195.7656 
C 652.372133 191.903161 654.661934 188.385285 657.572401 185.418214 
C 660.482868 182.451143 663.955991 180.094015 667.788153 178.48502 
C 671.620315 176.876025 675.735134 176.047233 679.891374 176.047233 
z
" style="fill: #a1140b; stroke: #ffffff; stroke-linejoin: miter"/>
   </g>
   <g id="patch_13">
    <path d="M 684.78272 334.227853 
C 690.987166 333.988734 697.165737 333.294973 703.26871 332.152149 
C 709.371683 331.009325 715.382648 329.420504 721.253234 327.398489 
L 690.072755 236.871298 
C 688.627687 237.369025 687.148065 237.76012 685.645795 238.04143 
C 684.143525 238.322741 682.622646 238.493513 681.095397 238.552373 
z
" style="fill: #fbaa1b; stroke: #ffffff; stroke-linejoin: miter"/>
   </g>
   <g id="patch_14">
    <path d="M 721.253234 327.398489 
C 729.645649 324.507873 737.711969 320.745424 745.319872 316.172887 
C 752.927772 311.600349 760.035426 306.242849 766.526226 300.18828 
L 701.216876 230.173401 
C 699.61914 231.663756 697.869564 232.982526 695.99685 234.108073 
C 694.124136 235.233621 692.13858 236.159762 690.072755 236.871298 
z
" style="fill: #8fc73e; stroke: #ffffff; stroke-linejoin: miter"/>
   </g>
   <g id="patch_15">
    <path d="M 766.526226 300.18828 
C 780.911837 286.769488 791.985032 270.190125 798.869888 251.761657 
C 805.754744 233.333186 808.264832 213.55466 806.20158 193.990591 
C 804.138336 174.42652 797.557622 155.606713 786.980011 139.019857 
C 776.402399 122.433 762.114325 108.528269 745.246 98.40555 
L 695.978666 180.503806 
C 700.130869 182.995552 703.647934 186.418255 706.251654 190.501174 
C 708.855373 194.584092 710.475241 199.21666 710.983117 204.032431 
C 711.490994 208.848202 710.873126 213.716762 709.178392 218.253001 
C 707.483659 222.78924 704.757949 226.870313 701.216876 230.173401 
z
" style="fill: #207653; stroke: #ffffff; stroke-linejoin: miter"/>
   </g>
   <g id="patch_16">
    <path d="M 745.246 98.40555 
C 735.420597 92.509308 724.842274 87.96974 713.799366 84.910584 
C 702.756457 81.851427 691.350198 80.300724 679.891391 80.300724 
L 679.891378 176.047233 
C 682.712007 176.047233 685.519702 176.428945 688.237956 177.181968 
C 690.956211 177.934991 693.560106 179.052423 695.978666 180.503806 
z
" style="fill: url(#h9cc07f9305); stroke: #ffffff; stroke-linejoin: miter"/>
   </g>
   <g id="matplotlib.axis_5"/>
   <g id="matplotlib.axis_6"/>
   <g id="text_13">
    <!-- 50.6% -->
    <g transform="translate(578.285353 213.194082) scale(0.16 -0.16)">
     <use xlink:href="#DejaVuSans-35"/>
     <use xlink:href="#DejaVuSans-30" transform="translate(63.623047 0)"/>
     <use xlink:href="#DejaVuSans-2e" transform="translate(127.246094 0)"/>
     <use xlink:href="#DejaVuSans-36" transform="translate(159.033203 0)"/>
     <use xlink:href="#DejaVuSans-25" transform="translate(222.65625 0)"/>
    </g>
   </g>
   <g id="text_14">
    <!-- 4.7% -->
    <g transform="translate(673.594061 286.63084) scale(0.16 -0.16)">
     <use xlink:href="#DejaVuSans-34"/>
     <use xlink:href="#DejaVuSans-2e" transform="translate(63.623047 0)"/>
     <use xlink:href="#DejaVuSans-37" transform="translate(95.410156 0)"/>
     <use xlink:href="#DejaVuSans-25" transform="translate(159.033203 0)"/>
    </g>
   </g>
   <g id="text_15">
    <!-- 6.7% -->
    <g transform="translate(698.824754 277.043273) scale(0.16 -0.16)">
     <use xlink:href="#DejaVuSans-36"/>
     <use xlink:href="#DejaVuSans-2e" transform="translate(63.623047 0)"/>
     <use xlink:href="#DejaVuSans-37" transform="translate(95.410156 0)"/>
     <use xlink:href="#DejaVuSans-25" transform="translate(159.033203 0)"/>
    </g>
   </g>
   <g id="text_16">
    <!-- 29.5% -->
    <g transform="translate(730.263743 203.733878) scale(0.16 -0.16)">
     <defs>
      <path id="DejaVuSans-39" d="M 703 97 
L 703 672 
Q 941 559 1184 500 
Q 1428 441 1663 441 
Q 2288 441 2617 861 
Q 2947 1281 2994 2138 
Q 2813 1869 2534 1725 
Q 2256 1581 1919 1581 
Q 1219 1581 811 2004 
Q 403 2428 403 3163 
Q 403 3881 828 4315 
Q 1253 4750 1959 4750 
Q 2769 4750 3195 4129 
Q 3622 3509 3622 2328 
Q 3622 1225 3098 567 
Q 2575 -91 1691 -91 
Q 1453 -91 1209 -44 
Q 966 3 703 97 
z
M 1959 2075 
Q 2384 2075 2632 2365 
Q 2881 2656 2881 3163 
Q 2881 3666 2632 3958 
Q 2384 4250 1959 4250 
Q 1534 4250 1286 3958 
Q 1038 3666 1038 3163 
Q 1038 2656 1286 2365 
Q 1534 2075 1959 2075 
z
" transform="scale(0.015625)"/>
     </defs>
     <use xlink:href="#DejaVuSans-32"/>
     <use xlink:href="#DejaVuSans-39" transform="translate(63.623047 0)"/>
     <use xlink:href="#DejaVuSans-2e" transform="translate(127.246094 0)"/>
     <use xlink:href="#DejaVuSans-35" transform="translate(159.033203 0)"/>
     <use xlink:href="#DejaVuSans-25" transform="translate(222.65625 0)"/>
    </g>
   </g>
   <g id="text_17">
    <!-- 8.6% -->
    <g transform="translate(679.912417 138.285909) scale(0.16 -0.16)">
     <use xlink:href="#DejaVuSans-38"/>
     <use xlink:href="#DejaVuSans-2e" transform="translate(63.623047 0)"/>
     <use xlink:href="#DejaVuSans-36" transform="translate(95.410156 0)"/>
     <use xlink:href="#DejaVuSans-25" transform="translate(159.033203 0)"/>
    </g>
   </g>
   <g id="text_18">
    <!-- Escenario Tendencial  -->
    <g transform="translate(534.038874 25.43625) scale(0.24 -0.24)">
     <use xlink:href="#DejaVuSans-Bold-45"/>
     <use xlink:href="#DejaVuSans-Bold-73" transform="translate(68.310547 0)"/>
     <use xlink:href="#DejaVuSans-Bold-63" transform="translate(127.832031 0)"/>
     <use xlink:href="#DejaVuSans-Bold-65" transform="translate(187.109375 0)"/>
     <use xlink:href="#DejaVuSans-Bold-6e" transform="translate(254.931641 0)"/>
     <use xlink:href="#DejaVuSans-Bold-61" transform="translate(326.123047 0)"/>
     <use xlink:href="#DejaVuSans-Bold-72" transform="translate(393.603516 0)"/>
     <use xlink:href="#DejaVuSans-Bold-69" transform="translate(442.919922 0)"/>
     <use xlink:href="#DejaVuSans-Bold-6f" transform="translate(477.197266 0)"/>
     <use xlink:href="#DejaVuSans-Bold-20" transform="translate(545.898438 0)"/>
     <use xlink:href="#DejaVuSans-Bold-54" transform="translate(580.712891 0)"/>
     <use xlink:href="#DejaVuSans-Bold-65" transform="translate(635.675781 0)"/>
     <use xlink:href="#DejaVuSans-Bold-6e" transform="translate(703.498047 0)"/>
     <use xlink:href="#DejaVuSans-Bold-64" transform="translate(774.689453 0)"/>
     <use xlink:href="#DejaVuSans-Bold-65" transform="translate(846.271484 0)"/>
     <use xlink:href="#DejaVuSans-Bold-6e" transform="translate(914.09375 0)"/>
     <use xlink:href="#DejaVuSans-Bold-63" transform="translate(985.285156 0)"/>
     <use xlink:href="#DejaVuSans-Bold-69" transform="translate(1044.5625 0)"/>
     <use xlink:href="#DejaVuSans-Bold-61" transform="translate(1078.839844 0)"/>
     <use xlink:href="#DejaVuSans-Bold-6c" transform="translate(1146.320312 0)"/>
     <use xlink:href="#DejaVuSans-Bold-20" transform="translate(1180.597656 0)"/>
    </g>
    <!--  +Distribuida  -->
    <g transform="translate(586.563249 52.311) scale(0.24 -0.24)">
     <defs>
      <path id="DejaVuSans-Bold-2b" d="M 3053 4013 
L 3053 2375 
L 4684 2375 
L 4684 1638 
L 3053 1638 
L 3053 0 
L 2309 0 
L 2309 1638 
L 678 1638 
L 678 2375 
L 2309 2375 
L 2309 4013 
L 3053 4013 
z
" transform="scale(0.015625)"/>
      <path id="DejaVuSans-Bold-44" d="M 1791 3756 
L 1791 909 
L 2222 909 
Q 2959 909 3348 1275 
Q 3738 1641 3738 2338 
Q 3738 3031 3350 3393 
Q 2963 3756 2222 3756 
L 1791 3756 
z
M 588 4666 
L 1856 4666 
Q 2919 4666 3439 4514 
Q 3959 4363 4331 4000 
Q 4659 3684 4818 3271 
Q 4978 2859 4978 2338 
Q 4978 1809 4818 1395 
Q 4659 981 4331 666 
Q 3956 303 3431 151 
Q 2906 0 1856 0 
L 588 0 
L 588 4666 
z
" transform="scale(0.015625)"/>
      <path id="DejaVuSans-Bold-74" d="M 1759 4494 
L 1759 3500 
L 2913 3500 
L 2913 2700 
L 1759 2700 
L 1759 1216 
Q 1759 972 1856 886 
Q 1953 800 2241 800 
L 2816 800 
L 2816 0 
L 1856 0 
Q 1194 0 917 276 
Q 641 553 641 1216 
L 641 2700 
L 84 2700 
L 84 3500 
L 641 3500 
L 641 4494 
L 1759 4494 
z
" transform="scale(0.015625)"/>
      <path id="DejaVuSans-Bold-62" d="M 2400 722 
Q 2759 722 2948 984 
Q 3138 1247 3138 1747 
Q 3138 2247 2948 2509 
Q 2759 2772 2400 2772 
Q 2041 2772 1848 2508 
Q 1656 2244 1656 1747 
Q 1656 1250 1848 986 
Q 2041 722 2400 722 
z
M 1656 2988 
Q 1888 3294 2169 3439 
Q 2450 3584 2816 3584 
Q 3463 3584 3878 3070 
Q 4294 2556 4294 1747 
Q 4294 938 3878 423 
Q 3463 -91 2816 -91 
Q 2450 -91 2169 54 
Q 1888 200 1656 506 
L 1656 0 
L 538 0 
L 538 4863 
L 1656 4863 
L 1656 2988 
z
" transform="scale(0.015625)"/>
      <path id="DejaVuSans-Bold-75" d="M 500 1363 
L 500 3500 
L 1625 3500 
L 1625 3150 
Q 1625 2866 1622 2436 
Q 1619 2006 1619 1863 
Q 1619 1441 1641 1255 
Q 1663 1069 1716 984 
Q 1784 875 1895 815 
Q 2006 756 2150 756 
Q 2500 756 2700 1025 
Q 2900 1294 2900 1772 
L 2900 3500 
L 4019 3500 
L 4019 0 
L 2900 0 
L 2900 506 
Q 2647 200 2364 54 
Q 2081 -91 1741 -91 
Q 1134 -91 817 281 
Q 500 653 500 1363 
z
" transform="scale(0.015625)"/>
     </defs>
     <use xlink:href="#DejaVuSans-Bold-20"/>
     <use xlink:href="#DejaVuSans-Bold-2b" transform="translate(34.814453 0)"/>
     <use xlink:href="#DejaVuSans-Bold-44" transform="translate(118.603516 0)"/>
     <use xlink:href="#DejaVuSans-Bold-69" transform="translate(201.611328 0)"/>
     <use xlink:href="#DejaVuSans-Bold-73" transform="translate(235.888672 0)"/>
     <use xlink:href="#DejaVuSans-Bold-74" transform="translate(295.410156 0)"/>
     <use xlink:href="#DejaVuSans-Bold-72" transform="translate(343.212891 0)"/>
     <use xlink:href="#DejaVuSans-Bold-69" transform="translate(392.529297 0)"/>
     <use xlink:href="#DejaVuSans-Bold-62" transform="translate(426.806641 0)"/>
     <use xlink:href="#DejaVuSans-Bold-75" transform="translate(498.388672 0)"/>
     <use xlink:href="#DejaVuSans-Bold-69" transform="translate(569.580078 0)"/>
     <use xlink:href="#DejaVuSans-Bold-64" transform="translate(603.857422 0)"/>
     <use xlink:href="#DejaVuSans-Bold-61" transform="translate(675.439453 0)"/>
     <use xlink:href="#DejaVuSans-Bold-20" transform="translate(742.919922 0)"/>
    </g>
    <!--  2050 (20610 GWh) -->
    <g transform="translate(549.618249 79.18575) scale(0.24 -0.24)">
     <defs>
      <path id="DejaVuSans-Bold-36" d="M 2316 2303 
Q 2000 2303 1842 2098 
Q 1684 1894 1684 1484 
Q 1684 1075 1842 870 
Q 2000 666 2316 666 
Q 2634 666 2792 870 
Q 2950 1075 2950 1484 
Q 2950 1894 2792 2098 
Q 2634 2303 2316 2303 
z
M 3803 4544 
L 3803 3681 
Q 3506 3822 3243 3889 
Q 2981 3956 2731 3956 
Q 2194 3956 1894 3657 
Q 1594 3359 1544 2772 
Q 1750 2925 1990 3001 
Q 2231 3078 2516 3078 
Q 3231 3078 3670 2659 
Q 4109 2241 4109 1563 
Q 4109 813 3618 361 
Q 3128 -91 2303 -91 
Q 1394 -91 895 523 
Q 397 1138 397 2266 
Q 397 3422 980 4083 
Q 1563 4744 2578 4744 
Q 2900 4744 3203 4694 
Q 3506 4644 3803 4544 
z
" transform="scale(0.015625)"/>
     </defs>
     <use xlink:href="#DejaVuSans-Bold-20"/>
     <use xlink:href="#DejaVuSans-Bold-32" transform="translate(34.814453 0)"/>
     <use xlink:href="#DejaVuSans-Bold-30" transform="translate(104.394531 0)"/>
     <use xlink:href="#DejaVuSans-Bold-35" transform="translate(173.974609 0)"/>
     <use xlink:href="#DejaVuSans-Bold-30" transform="translate(243.554688 0)"/>
     <use xlink:href="#DejaVuSans-Bold-20" transform="translate(313.134766 0)"/>
     <use xlink:href="#DejaVuSans-Bold-28" transform="translate(347.949219 0)"/>
     <use xlink:href="#DejaVuSans-Bold-32" transform="translate(393.652344 0)"/>
     <use xlink:href="#DejaVuSans-Bold-30" transform="translate(463.232422 0)"/>
     <use xlink:href="#DejaVuSans-Bold-36" transform="translate(532.8125 0)"/>
     <use xlink:href="#DejaVuSans-Bold-31" transform="translate(602.392578 0)"/>
     <use xlink:href="#DejaVuSans-Bold-30" transform="translate(671.972656 0)"/>
     <use xlink:href="#DejaVuSans-Bold-20" transform="translate(741.552734 0)"/>
     <use xlink:href="#DejaVuSans-Bold-47" transform="translate(776.367188 0)"/>
     <use xlink:href="#DejaVuSans-Bold-57" transform="translate(858.447266 0)"/>
     <use xlink:href="#DejaVuSans-Bold-68" transform="translate(968.75 0)"/>
     <use xlink:href="#DejaVuSans-Bold-29" transform="translate(1039.941406 0)"/>
    </g>
   </g>
  </g>
  <g id="axes_4">
   <g id="patch_17">
    <path d="M 971.200585 79.386978 
C 952.927688 79.386978 934.865116 83.302166 918.232218 90.868239 
C 901.59932 98.434312 886.778991 109.477096 874.771709 123.251127 
C 862.764426 137.025158 853.846601 153.213351 848.620249 170.722892 
C 843.393897 188.232432 841.979331 206.660243 844.472044 224.762319 
L 940.005867 211.60701 
C 939.392276 207.151115 939.740477 202.615038 941.026964 198.304998 
C 942.31345 193.994957 944.508607 190.010171 947.464246 186.61964 
C 950.419885 183.22911 954.067966 180.510886 958.162218 178.648468 
C 962.256469 176.78605 966.702641 175.822311 971.200585 175.822311 
z
" style="fill: #a1140b; stroke: #ffffff; stroke-linejoin: miter"/>
   </g>
   <g id="patch_18">
    <path d="M 844.472044 224.762324 
C 847.193184 244.523248 854.498995 263.376493 865.803953 279.811108 
C 877.108912 296.245719 892.102732 309.810596 909.583729 319.418582 
L 956.033359 234.907014 
C 951.730344 232.541971 948.039558 229.202924 945.256799 225.157482 
C 942.47404 221.112038 940.675686 216.471239 940.005867 211.607012 
z
" style="fill: #fbaa1b; stroke: #ffffff; stroke-linejoin: miter"/>
   </g>
   <g id="patch_19">
    <path d="M 909.583729 319.418582 
C 926.584305 328.762518 945.489739 334.118096 964.865127 335.07884 
C 984.240515 336.039591 1003.582965 332.580583 1021.424532 324.964332 
L 983.563403 236.272121 
C 979.171632 238.146891 974.410414 238.998339 969.641088 238.761846 
C 964.871761 238.525356 960.218116 237.20706 956.033359 234.907014 
z
" style="fill: #8fc73e; stroke: #ffffff; stroke-linejoin: miter"/>
   </g>
   <g id="patch_20">
    <path d="M 1021.424532 324.964332 
C 1048.025748 313.608744 1070.005225 293.560309 1083.752291 268.112472 
C 1097.499357 242.664635 1102.217646 213.291602 1097.132043 184.818617 
C 1092.046447 156.34563 1077.451577 130.422141 1055.745011 111.306726 
C 1034.038445 92.191311 1006.477652 80.991331 977.590162 79.546651 
L 972.773404 175.861615 
C 979.884171 176.217229 986.668366 178.974147 992.011521 183.67948 
C 997.354675 188.384813 1000.947259 194.765979 1002.199098 201.774715 
C 1003.450938 208.783449 1002.289513 216.013734 998.90562 222.277817 
C 995.521727 228.5419 990.111394 233.4769 983.563403 236.272121 
z
" style="fill: #207653; stroke: #ffffff; stroke-linejoin: miter"/>
   </g>
   <g id="patch_21">
    <path d="M 977.590162 79.546651 
C 976.526109 79.493437 975.461431 79.453521 974.39638 79.426902 
C 973.331329 79.400284 972.265986 79.386978 971.200603 79.386978 
L 971.200589 175.822311 
C 971.462838 175.822311 971.725076 175.825586 971.987242 175.832139 
C 972.249409 175.838691 972.511483 175.848516 972.773404 175.861615 
z
" style="fill: url(#h9cc07f9305); stroke: #ffffff; stroke-linejoin: miter"/>
   </g>
   <g id="matplotlib.axis_7"/>
   <g id="matplotlib.axis_8"/>
   <g id="text_19">
    <!-- 27.2% -->
    <g transform="translate(887.929504 161.290242) scale(0.16 -0.16)">
     <use xlink:href="#DejaVuSans-32"/>
     <use xlink:href="#DejaVuSans-37" transform="translate(63.623047 0)"/>
     <use xlink:href="#DejaVuSans-2e" transform="translate(127.246094 0)"/>
     <use xlink:href="#DejaVuSans-32" transform="translate(159.033203 0)"/>
     <use xlink:href="#DejaVuSans-25" transform="translate(222.65625 0)"/>
    </g>
   </g>
   <g id="text_20">
    <!-- 14.8% -->
    <g transform="translate(882.548869 255.226244) scale(0.16 -0.16)">
     <use xlink:href="#DejaVuSans-31"/>
     <use xlink:href="#DejaVuSans-34" transform="translate(63.623047 0)"/>
     <use xlink:href="#DejaVuSans-2e" transform="translate(127.246094 0)"/>
     <use xlink:href="#DejaVuSans-38" transform="translate(159.033203 0)"/>
     <use xlink:href="#DejaVuSans-25" transform="translate(222.65625 0)"/>
    </g>
   </g>
   <g id="text_21">
    <!-- 14.4% -->
    <g transform="translate(941.985523 288.386864) scale(0.16 -0.16)">
     <use xlink:href="#DejaVuSans-31"/>
     <use xlink:href="#DejaVuSans-34" transform="translate(63.623047 0)"/>
     <use xlink:href="#DejaVuSans-2e" transform="translate(127.246094 0)"/>
     <use xlink:href="#DejaVuSans-34" transform="translate(159.033203 0)"/>
     <use xlink:href="#DejaVuSans-25" transform="translate(222.65625 0)"/>
    </g>
   </g>
   <g id="text_22">
    <!-- 42.8% -->
    <g transform="translate(1021.345704 198.230694) scale(0.16 -0.16)">
     <use xlink:href="#DejaVuSans-34"/>
     <use xlink:href="#DejaVuSans-32" transform="translate(63.623047 0)"/>
     <use xlink:href="#DejaVuSans-2e" transform="translate(127.246094 0)"/>
     <use xlink:href="#DejaVuSans-38" transform="translate(159.033203 0)"/>
     <use xlink:href="#DejaVuSans-25" transform="translate(222.65625 0)"/>
    </g>
   </g>
   <g id="text_23">
    <!-- 0.8% -->
    <g transform="translate(952.794275 134.995701) scale(0.16 -0.16)">
     <use xlink:href="#DejaVuSans-30"/>
     <use xlink:href="#DejaVuSans-2e" transform="translate(63.623047 0)"/>
     <use xlink:href="#DejaVuSans-38" transform="translate(95.410156 0)"/>
     <use xlink:href="#DejaVuSans-25" transform="translate(159.033203 0)"/>
    </g>
   </g>
   <g id="text_24">
    <!-- Escenario Alternativo  -->
    <g transform="translate(821.586835 51.432398) scale(0.24 -0.24)">
     <defs>
      <path id="DejaVuSans-Bold-41" d="M 3419 850 
L 1538 850 
L 1241 0 
L 31 0 
L 1759 4666 
L 3194 4666 
L 4922 0 
L 3713 0 
L 3419 850 
z
M 1838 1716 
L 3116 1716 
L 2478 3572 
L 1838 1716 
z
" transform="scale(0.015625)"/>
      <path id="DejaVuSans-Bold-76" d="M 97 3500 
L 1216 3500 
L 2088 1081 
L 2956 3500 
L 4078 3500 
L 2700 0 
L 1472 0 
L 97 3500 
z
" transform="scale(0.015625)"/>
     </defs>
     <use xlink:href="#DejaVuSans-Bold-45"/>
     <use xlink:href="#DejaVuSans-Bold-73" transform="translate(68.310547 0)"/>
     <use xlink:href="#DejaVuSans-Bold-63" transform="translate(127.832031 0)"/>
     <use xlink:href="#DejaVuSans-Bold-65" transform="translate(187.109375 0)"/>
     <use xlink:href="#DejaVuSans-Bold-6e" transform="translate(254.931641 0)"/>
     <use xlink:href="#DejaVuSans-Bold-61" transform="translate(326.123047 0)"/>
     <use xlink:href="#DejaVuSans-Bold-72" transform="translate(393.603516 0)"/>
     <use xlink:href="#DejaVuSans-Bold-69" transform="translate(442.919922 0)"/>
     <use xlink:href="#DejaVuSans-Bold-6f" transform="translate(477.197266 0)"/>
     <use xlink:href="#DejaVuSans-Bold-20" transform="translate(545.898438 0)"/>
     <use xlink:href="#DejaVuSans-Bold-41" transform="translate(580.712891 0)"/>
     <use xlink:href="#DejaVuSans-Bold-6c" transform="translate(658.105469 0)"/>
     <use xlink:href="#DejaVuSans-Bold-74" transform="translate(692.382812 0)"/>
     <use xlink:href="#DejaVuSans-Bold-65" transform="translate(740.185547 0)"/>
     <use xlink:href="#DejaVuSans-Bold-72" transform="translate(808.007812 0)"/>
     <use xlink:href="#DejaVuSans-Bold-6e" transform="translate(857.324219 0)"/>
     <use xlink:href="#DejaVuSans-Bold-61" transform="translate(928.515625 0)"/>
     <use xlink:href="#DejaVuSans-Bold-74" transform="translate(995.996094 0)"/>
     <use xlink:href="#DejaVuSans-Bold-69" transform="translate(1043.798828 0)"/>
     <use xlink:href="#DejaVuSans-Bold-76" transform="translate(1078.076172 0)"/>
     <use xlink:href="#DejaVuSans-Bold-6f" transform="translate(1143.261719 0)"/>
     <use xlink:href="#DejaVuSans-Bold-20" transform="translate(1211.962891 0)"/>
    </g>
    <!--  2050 (22256 GWh) -->
    <g transform="translate(840.92746 78.307148) scale(0.24 -0.24)">
     <use xlink:href="#DejaVuSans-Bold-20"/>
     <use xlink:href="#DejaVuSans-Bold-32" transform="translate(34.814453 0)"/>
     <use xlink:href="#DejaVuSans-Bold-30" transform="translate(104.394531 0)"/>
     <use xlink:href="#DejaVuSans-Bold-35" transform="translate(173.974609 0)"/>
     <use xlink:href="#DejaVuSans-Bold-30" transform="translate(243.554688 0)"/>
     <use xlink:href="#DejaVuSans-Bold-20" transform="translate(313.134766 0)"/>
     <use xlink:href="#DejaVuSans-Bold-28" transform="translate(347.949219 0)"/>
     <use xlink:href="#DejaVuSans-Bold-32" transform="translate(393.652344 0)"/>
     <use xlink:href="#DejaVuSans-Bold-32" transform="translate(463.232422 0)"/>
     <use xlink:href="#DejaVuSans-Bold-32" transform="translate(532.8125 0)"/>
     <use xlink:href="#DejaVuSans-Bold-35" transform="translate(602.392578 0)"/>
     <use xlink:href="#DejaVuSans-Bold-36" transform="translate(671.972656 0)"/>
     <use xlink:href="#DejaVuSans-Bold-20" transform="translate(741.552734 0)"/>
     <use xlink:href="#DejaVuSans-Bold-47" transform="translate(776.367188 0)"/>
     <use xlink:href="#DejaVuSans-Bold-57" transform="translate(858.447266 0)"/>
     <use xlink:href="#DejaVuSans-Bold-68" transform="translate(968.75 0)"/>
     <use xlink:href="#DejaVuSans-Bold-29" transform="translate(1039.941406 0)"/>
    </g>
   </g>
  </g>
  <g id="axes_5">
   <g id="patch_22">
    <path d="M 1262.509796 80.300724 
C 1245.495712 80.300724 1228.653803 83.71948 1212.986373 90.353534 
C 1197.318943 96.987588 1183.143085 106.702673 1171.302441 118.920619 
C 1159.461798 131.138564 1150.196011 145.612092 1144.056513 161.479846 
C 1137.917014 177.347599 1135.02806 194.28843 1135.561581 211.294146 
L 1231.261004 208.291768 
C 1231.129676 204.105745 1231.840803 199.935695 1233.352065 196.029786 
C 1234.863326 192.123878 1237.144135 188.561163 1240.058755 185.553669 
C 1242.973375 182.546174 1246.462817 180.154769 1250.319415 178.521771 
C 1254.176013 176.888773 1258.321714 176.047233 1262.509796 176.047233 
z
" style="fill: #a1140b; stroke: #ffffff; stroke-linejoin: miter"/>
   </g>
   <g id="patch_23">
    <path d="M 1135.561577 211.294134 
C 1136.186205 231.203839 1141.485904 250.690161 1151.031144 268.173724 
C 1160.576384 285.657286 1174.102117 300.652604 1190.51203 311.944251 
L 1244.787269 233.067178 
C 1240.747906 230.287696 1237.418495 226.596541 1235.068897 222.292895 
C 1232.7193 217.989249 1231.414758 213.192615 1231.261004 208.291765 
z
" style="fill: #fbaa1b; stroke: #ffffff; stroke-linejoin: miter"/>
   </g>
   <g id="patch_24">
    <path d="M 1190.51203 311.944251 
C 1206.475788 322.928902 1224.743748 330.115886 1243.912828 332.953213 
C 1263.08191 335.790541 1282.648477 334.203674 1301.109832 328.314495 
L 1272.011343 237.096777 
C 1267.46701 238.546421 1262.650624 238.937034 1257.932081 238.238615 
C 1253.213538 237.540196 1248.716809 235.771092 1244.787269 233.067178 
z
" style="fill: #8fc73e; stroke: #ffffff; stroke-linejoin: miter"/>
   </g>
   <g id="patch_25">
    <path d="M 1301.109832 328.314495 
C 1324.761547 320.769589 1345.690051 306.453148 1361.294493 287.144322 
C 1376.898936 267.835496 1386.504928 244.368757 1388.918713 219.660401 
C 1391.332498 194.952044 1386.449725 170.069827 1374.877231 148.106071 
C 1363.304737 126.142319 1345.542639 108.046154 1323.79829 96.066477 
L 1277.596194 179.928034 
C 1282.94865 182.876878 1287.320858 187.331318 1290.169472 192.73778 
C 1293.018086 198.144243 1294.22 204.269097 1293.625837 210.351154 
C 1293.031675 216.433211 1290.667123 222.209639 1286.826029 226.96258 
C 1282.984936 231.715522 1277.833304 235.239569 1272.011343 237.096777 
z
" style="fill: #207653; stroke: #ffffff; stroke-linejoin: miter"/>
   </g>
   <g id="patch_26">
    <path d="M 1323.79829 96.066477 
C 1314.449578 90.91596 1304.488793 86.964395 1294.151704 84.305298 
C 1283.814616 81.646201 1273.183435 80.300724 1262.509814 80.300724 
L 1262.5098 176.047233 
C 1265.137153 176.047233 1267.754059 176.378427 1270.298573 177.032974 
C 1272.843088 177.687521 1275.294973 178.660215 1277.596194 179.928034 
z
" style="fill: url(#h9cc07f9305); stroke: #ffffff; stroke-linejoin: miter"/>
   </g>
   <g id="matplotlib.axis_9"/>
   <g id="matplotlib.axis_10"/>
   <g id="text_25">
    <!-- 25.5% -->
    <g transform="translate(1182.371625 158.691939) scale(0.16 -0.16)">
     <use xlink:href="#DejaVuSans-32"/>
     <use xlink:href="#DejaVuSans-35" transform="translate(63.623047 0)"/>
     <use xlink:href="#DejaVuSans-2e" transform="translate(127.246094 0)"/>
     <use xlink:href="#DejaVuSans-35" transform="translate(159.033203 0)"/>
     <use xlink:href="#DejaVuSans-25" transform="translate(222.65625 0)"/>
    </g>
   </g>
   <g id="text_26">
    <!-- 14.9% -->
    <g transform="translate(1170.208866 248.243811) scale(0.16 -0.16)">
     <use xlink:href="#DejaVuSans-31"/>
     <use xlink:href="#DejaVuSans-34" transform="translate(63.623047 0)"/>
     <use xlink:href="#DejaVuSans-2e" transform="translate(127.246094 0)"/>
     <use xlink:href="#DejaVuSans-39" transform="translate(159.033203 0)"/>
     <use xlink:href="#DejaVuSans-25" transform="translate(222.65625 0)"/>
    </g>
   </g>
   <g id="text_27">
    <!-- 14.5% -->
    <g transform="translate(1225.937866 287.111486) scale(0.16 -0.16)">
     <use xlink:href="#DejaVuSans-31"/>
     <use xlink:href="#DejaVuSans-34" transform="translate(63.623047 0)"/>
     <use xlink:href="#DejaVuSans-2e" transform="translate(127.246094 0)"/>
     <use xlink:href="#DejaVuSans-35" transform="translate(159.033203 0)"/>
     <use xlink:href="#DejaVuSans-25" transform="translate(222.65625 0)"/>
    </g>
   </g>
   <g id="text_28">
    <!-- 37.1% -->
    <g transform="translate(1312.941399 219.135764) scale(0.16 -0.16)">
     <use xlink:href="#DejaVuSans-33"/>
     <use xlink:href="#DejaVuSans-37" transform="translate(63.623047 0)"/>
     <use xlink:href="#DejaVuSans-2e" transform="translate(127.246094 0)"/>
     <use xlink:href="#DejaVuSans-31" transform="translate(159.033203 0)"/>
     <use xlink:href="#DejaVuSans-25" transform="translate(222.65625 0)"/>
    </g>
   </g>
   <g id="text_29">
    <!-- 8.0% -->
    <g transform="translate(1261.171155 137.922729) scale(0.16 -0.16)">
     <use xlink:href="#DejaVuSans-38"/>
     <use xlink:href="#DejaVuSans-2e" transform="translate(63.623047 0)"/>
     <use xlink:href="#DejaVuSans-30" transform="translate(95.410156 0)"/>
     <use xlink:href="#DejaVuSans-25" transform="translate(159.033203 0)"/>
    </g>
   </g>
   <g id="text_30">
    <!-- Escenario Alternativo  -->
    <g transform="translate(1112.896046 25.43625) scale(0.24 -0.24)">
     <use xlink:href="#DejaVuSans-Bold-45"/>
     <use xlink:href="#DejaVuSans-Bold-73" transform="translate(68.310547 0)"/>
     <use xlink:href="#DejaVuSans-Bold-63" transform="translate(127.832031 0)"/>
     <use xlink:href="#DejaVuSans-Bold-65" transform="translate(187.109375 0)"/>
     <use xlink:href="#DejaVuSans-Bold-6e" transform="translate(254.931641 0)"/>
     <use xlink:href="#DejaVuSans-Bold-61" transform="translate(326.123047 0)"/>
     <use xlink:href="#DejaVuSans-Bold-72" transform="translate(393.603516 0)"/>
     <use xlink:href="#DejaVuSans-Bold-69" transform="translate(442.919922 0)"/>
     <use xlink:href="#DejaVuSans-Bold-6f" transform="translate(477.197266 0)"/>
     <use xlink:href="#DejaVuSans-Bold-20" transform="translate(545.898438 0)"/>
     <use xlink:href="#DejaVuSans-Bold-41" transform="translate(580.712891 0)"/>
     <use xlink:href="#DejaVuSans-Bold-6c" transform="translate(658.105469 0)"/>
     <use xlink:href="#DejaVuSans-Bold-74" transform="translate(692.382812 0)"/>
     <use xlink:href="#DejaVuSans-Bold-65" transform="translate(740.185547 0)"/>
     <use xlink:href="#DejaVuSans-Bold-72" transform="translate(808.007812 0)"/>
     <use xlink:href="#DejaVuSans-Bold-6e" transform="translate(857.324219 0)"/>
     <use xlink:href="#DejaVuSans-Bold-61" transform="translate(928.515625 0)"/>
     <use xlink:href="#DejaVuSans-Bold-74" transform="translate(995.996094 0)"/>
     <use xlink:href="#DejaVuSans-Bold-69" transform="translate(1043.798828 0)"/>
     <use xlink:href="#DejaVuSans-Bold-76" transform="translate(1078.076172 0)"/>
     <use xlink:href="#DejaVuSans-Bold-6f" transform="translate(1143.261719 0)"/>
     <use xlink:href="#DejaVuSans-Bold-20" transform="translate(1211.962891 0)"/>
    </g>
    <!--  +Distribuida  -->
    <g transform="translate(1169.181671 52.311) scale(0.24 -0.24)">
     <use xlink:href="#DejaVuSans-Bold-20"/>
     <use xlink:href="#DejaVuSans-Bold-2b" transform="translate(34.814453 0)"/>
     <use xlink:href="#DejaVuSans-Bold-44" transform="translate(118.603516 0)"/>
     <use xlink:href="#DejaVuSans-Bold-69" transform="translate(201.611328 0)"/>
     <use xlink:href="#DejaVuSans-Bold-73" transform="translate(235.888672 0)"/>
     <use xlink:href="#DejaVuSans-Bold-74" transform="translate(295.410156 0)"/>
     <use xlink:href="#DejaVuSans-Bold-72" transform="translate(343.212891 0)"/>
     <use xlink:href="#DejaVuSans-Bold-69" transform="translate(392.529297 0)"/>
     <use xlink:href="#DejaVuSans-Bold-62" transform="translate(426.806641 0)"/>
     <use xlink:href="#DejaVuSans-Bold-75" transform="translate(498.388672 0)"/>
     <use xlink:href="#DejaVuSans-Bold-69" transform="translate(569.580078 0)"/>
     <use xlink:href="#DejaVuSans-Bold-64" transform="translate(603.857422 0)"/>
     <use xlink:href="#DejaVuSans-Bold-61" transform="translate(675.439453 0)"/>
     <use xlink:href="#DejaVuSans-Bold-20" transform="translate(742.919922 0)"/>
    </g>
    <!--  2050 (22122 GWh) -->
    <g transform="translate(1132.236671 79.18575) scale(0.24 -0.24)">
     <use xlink:href="#DejaVuSans-Bold-20"/>
     <use xlink:href="#DejaVuSans-Bold-32" transform="translate(34.814453 0)"/>
     <use xlink:href="#DejaVuSans-Bold-30" transform="translate(104.394531 0)"/>
     <use xlink:href="#DejaVuSans-Bold-35" transform="translate(173.974609 0)"/>
     <use xlink:href="#DejaVuSans-Bold-30" transform="translate(243.554688 0)"/>
     <use xlink:href="#DejaVuSans-Bold-20" transform="translate(313.134766 0)"/>
     <use xlink:href="#DejaVuSans-Bold-28" transform="translate(347.949219 0)"/>
     <use xlink:href="#DejaVuSans-Bold-32" transform="translate(393.652344 0)"/>
     <use xlink:href="#DejaVuSans-Bold-32" transform="translate(463.232422 0)"/>
     <use xlink:href="#DejaVuSans-Bold-31" transform="translate(532.8125 0)"/>
     <use xlink:href="#DejaVuSans-Bold-32" transform="translate(602.392578 0)"/>
     <use xlink:href="#DejaVuSans-Bold-32" transform="translate(671.972656 0)"/>
     <use xlink:href="#DejaVuSans-Bold-20" transform="translate(741.552734 0)"/>
     <use xlink:href="#DejaVuSans-Bold-47" transform="translate(776.367188 0)"/>
     <use xlink:href="#DejaVuSans-Bold-57" transform="translate(858.447266 0)"/>
     <use xlink:href="#DejaVuSans-Bold-68" transform="translate(968.75 0)"/>
     <use xlink:href="#DejaVuSans-Bold-29" transform="translate(1039.941406 0)"/>
    </g>
   </g>
   <g id="legend_1">
    <g id="patch_27">
     <path d="M 1399.035446 164.7564 
L 1431.035446 164.7564 
L 1431.035446 153.5564 
L 1399.035446 153.5564 
z
" style="fill: #a1140b; stroke: #ffffff; stroke-linejoin: miter"/>
    </g>
    <g id="text_31">
     <!-- Fosil -->
     <g transform="translate(1443.835446 164.7564) scale(0.16 -0.16)">
      <defs>
       <path id="DejaVuSans-46" d="M 628 4666 
L 3309 4666 
L 3309 4134 
L 1259 4134 
L 1259 2759 
L 3109 2759 
L 3109 2228 
L 1259 2228 
L 1259 0 
L 628 0 
L 628 4666 
z
" transform="scale(0.015625)"/>
       <path id="DejaVuSans-6f" d="M 1959 3097 
Q 1497 3097 1228 2736 
Q 959 2375 959 1747 
Q 959 1119 1226 758 
Q 1494 397 1959 397 
Q 2419 397 2687 759 
Q 2956 1122 2956 1747 
Q 2956 2369 2687 2733 
Q 2419 3097 1959 3097 
z
M 1959 3584 
Q 2709 3584 3137 3096 
Q 3566 2609 3566 1747 
Q 3566 888 3137 398 
Q 2709 -91 1959 -91 
Q 1206 -91 779 398 
Q 353 888 353 1747 
Q 353 2609 779 3096 
Q 1206 3584 1959 3584 
z
" transform="scale(0.015625)"/>
       <path id="DejaVuSans-73" d="M 2834 3397 
L 2834 2853 
Q 2591 2978 2328 3040 
Q 2066 3103 1784 3103 
Q 1356 3103 1142 2972 
Q 928 2841 928 2578 
Q 928 2378 1081 2264 
Q 1234 2150 1697 2047 
L 1894 2003 
Q 2506 1872 2764 1633 
Q 3022 1394 3022 966 
Q 3022 478 2636 193 
Q 2250 -91 1575 -91 
Q 1294 -91 989 -36 
Q 684 19 347 128 
L 347 722 
Q 666 556 975 473 
Q 1284 391 1588 391 
Q 1994 391 2212 530 
Q 2431 669 2431 922 
Q 2431 1156 2273 1281 
Q 2116 1406 1581 1522 
L 1381 1569 
Q 847 1681 609 1914 
Q 372 2147 372 2553 
Q 372 3047 722 3315 
Q 1072 3584 1716 3584 
Q 2034 3584 2315 3537 
Q 2597 3491 2834 3397 
z
" transform="scale(0.015625)"/>
       <path id="DejaVuSans-69" d="M 603 3500 
L 1178 3500 
L 1178 0 
L 603 0 
L 603 3500 
z
M 603 4863 
L 1178 4863 
L 1178 4134 
L 603 4134 
L 603 4863 
z
" transform="scale(0.015625)"/>
       <path id="DejaVuSans-6c" d="M 603 4863 
L 1178 4863 
L 1178 0 
L 603 0 
L 603 4863 
z
" transform="scale(0.015625)"/>
      </defs>
      <use xlink:href="#DejaVuSans-46"/>
      <use xlink:href="#DejaVuSans-6f" transform="translate(53.894531 0)"/>
      <use xlink:href="#DejaVuSans-73" transform="translate(115.076172 0)"/>
      <use xlink:href="#DejaVuSans-69" transform="translate(167.175781 0)"/>
      <use xlink:href="#DejaVuSans-6c" transform="translate(194.958984 0)"/>
     </g>
    </g>
    <g id="patch_28">
     <path d="M 1399.035446 188.2414 
L 1431.035446 188.2414 
L 1431.035446 177.0414 
L 1399.035446 177.0414 
z
" style="fill: #fbaa1b; stroke: #ffffff; stroke-linejoin: miter"/>
    </g>
    <g id="text_32">
     <!-- Solar -->
     <g transform="translate(1443.835446 188.2414) scale(0.16 -0.16)">
      <defs>
       <path id="DejaVuSans-53" d="M 3425 4513 
L 3425 3897 
Q 3066 4069 2747 4153 
Q 2428 4238 2131 4238 
Q 1616 4238 1336 4038 
Q 1056 3838 1056 3469 
Q 1056 3159 1242 3001 
Q 1428 2844 1947 2747 
L 2328 2669 
Q 3034 2534 3370 2195 
Q 3706 1856 3706 1288 
Q 3706 609 3251 259 
Q 2797 -91 1919 -91 
Q 1588 -91 1214 -16 
Q 841 59 441 206 
L 441 856 
Q 825 641 1194 531 
Q 1563 422 1919 422 
Q 2459 422 2753 634 
Q 3047 847 3047 1241 
Q 3047 1584 2836 1778 
Q 2625 1972 2144 2069 
L 1759 2144 
Q 1053 2284 737 2584 
Q 422 2884 422 3419 
Q 422 4038 858 4394 
Q 1294 4750 2059 4750 
Q 2388 4750 2728 4690 
Q 3069 4631 3425 4513 
z
" transform="scale(0.015625)"/>
       <path id="DejaVuSans-61" d="M 2194 1759 
Q 1497 1759 1228 1600 
Q 959 1441 959 1056 
Q 959 750 1161 570 
Q 1363 391 1709 391 
Q 2188 391 2477 730 
Q 2766 1069 2766 1631 
L 2766 1759 
L 2194 1759 
z
M 3341 1997 
L 3341 0 
L 2766 0 
L 2766 531 
Q 2569 213 2275 61 
Q 1981 -91 1556 -91 
Q 1019 -91 701 211 
Q 384 513 384 1019 
Q 384 1609 779 1909 
Q 1175 2209 1959 2209 
L 2766 2209 
L 2766 2266 
Q 2766 2663 2505 2880 
Q 2244 3097 1772 3097 
Q 1472 3097 1187 3025 
Q 903 2953 641 2809 
L 641 3341 
Q 956 3463 1253 3523 
Q 1550 3584 1831 3584 
Q 2591 3584 2966 3190 
Q 3341 2797 3341 1997 
z
" transform="scale(0.015625)"/>
       <path id="DejaVuSans-72" d="M 2631 2963 
Q 2534 3019 2420 3045 
Q 2306 3072 2169 3072 
Q 1681 3072 1420 2755 
Q 1159 2438 1159 1844 
L 1159 0 
L 581 0 
L 581 3500 
L 1159 3500 
L 1159 2956 
Q 1341 3275 1631 3429 
Q 1922 3584 2338 3584 
Q 2397 3584 2469 3576 
Q 2541 3569 2628 3553 
L 2631 2963 
z
" transform="scale(0.015625)"/>
      </defs>
      <use xlink:href="#DejaVuSans-53"/>
      <use xlink:href="#DejaVuSans-6f" transform="translate(63.476562 0)"/>
      <use xlink:href="#DejaVuSans-6c" transform="translate(124.658203 0)"/>
      <use xlink:href="#DejaVuSans-61" transform="translate(152.441406 0)"/>
      <use xlink:href="#DejaVuSans-72" transform="translate(213.720703 0)"/>
     </g>
    </g>
    <g id="patch_29">
     <path d="M 1399.035446 211.7264 
L 1431.035446 211.7264 
L 1431.035446 200.5264 
L 1399.035446 200.5264 
z
" style="fill: #8fc73e; stroke: #ffffff; stroke-linejoin: miter"/>
    </g>
    <g id="text_33">
     <!-- Eólica -->
     <g transform="translate(1443.835446 211.7264) scale(0.16 -0.16)">
      <defs>
       <path id="DejaVuSans-45" d="M 628 4666 
L 3578 4666 
L 3578 4134 
L 1259 4134 
L 1259 2753 
L 3481 2753 
L 3481 2222 
L 1259 2222 
L 1259 531 
L 3634 531 
L 3634 0 
L 628 0 
L 628 4666 
z
" transform="scale(0.015625)"/>
       <path id="DejaVuSans-f3" d="M 1959 3097 
Q 1497 3097 1228 2736 
Q 959 2375 959 1747 
Q 959 1119 1226 758 
Q 1494 397 1959 397 
Q 2419 397 2687 759 
Q 2956 1122 2956 1747 
Q 2956 2369 2687 2733 
Q 2419 3097 1959 3097 
z
M 1959 3584 
Q 2709 3584 3137 3096 
Q 3566 2609 3566 1747 
Q 3566 888 3137 398 
Q 2709 -91 1959 -91 
Q 1206 -91 779 398 
Q 353 888 353 1747 
Q 353 2609 779 3096 
Q 1206 3584 1959 3584 
z
M 2394 5119 
L 3016 5119 
L 1998 3944 
L 1519 3944 
L 2394 5119 
z
" transform="scale(0.015625)"/>
       <path id="DejaVuSans-63" d="M 3122 3366 
L 3122 2828 
Q 2878 2963 2633 3030 
Q 2388 3097 2138 3097 
Q 1578 3097 1268 2742 
Q 959 2388 959 1747 
Q 959 1106 1268 751 
Q 1578 397 2138 397 
Q 2388 397 2633 464 
Q 2878 531 3122 666 
L 3122 134 
Q 2881 22 2623 -34 
Q 2366 -91 2075 -91 
Q 1284 -91 818 406 
Q 353 903 353 1747 
Q 353 2603 823 3093 
Q 1294 3584 2113 3584 
Q 2378 3584 2631 3529 
Q 2884 3475 3122 3366 
z
" transform="scale(0.015625)"/>
      </defs>
      <use xlink:href="#DejaVuSans-45"/>
      <use xlink:href="#DejaVuSans-f3" transform="translate(63.183594 0)"/>
      <use xlink:href="#DejaVuSans-6c" transform="translate(124.365234 0)"/>
      <use xlink:href="#DejaVuSans-69" transform="translate(152.148438 0)"/>
      <use xlink:href="#DejaVuSans-63" transform="translate(179.931641 0)"/>
      <use xlink:href="#DejaVuSans-61" transform="translate(234.912109 0)"/>
     </g>
    </g>
    <g id="patch_30">
     <path d="M 1399.035446 235.2114 
L 1431.035446 235.2114 
L 1431.035446 224.0114 
L 1399.035446 224.0114 
z
" style="fill: #207653; stroke: #ffffff; stroke-linejoin: miter"/>
    </g>
    <g id="text_34">
     <!-- Hidro -->
     <g transform="translate(1443.835446 235.2114) scale(0.16 -0.16)">
      <defs>
       <path id="DejaVuSans-48" d="M 628 4666 
L 1259 4666 
L 1259 2753 
L 3553 2753 
L 3553 4666 
L 4184 4666 
L 4184 0 
L 3553 0 
L 3553 2222 
L 1259 2222 
L 1259 0 
L 628 0 
L 628 4666 
z
" transform="scale(0.015625)"/>
       <path id="DejaVuSans-64" d="M 2906 2969 
L 2906 4863 
L 3481 4863 
L 3481 0 
L 2906 0 
L 2906 525 
Q 2725 213 2448 61 
Q 2172 -91 1784 -91 
Q 1150 -91 751 415 
Q 353 922 353 1747 
Q 353 2572 751 3078 
Q 1150 3584 1784 3584 
Q 2172 3584 2448 3432 
Q 2725 3281 2906 2969 
z
M 947 1747 
Q 947 1113 1208 752 
Q 1469 391 1925 391 
Q 2381 391 2643 752 
Q 2906 1113 2906 1747 
Q 2906 2381 2643 2742 
Q 2381 3103 1925 3103 
Q 1469 3103 1208 2742 
Q 947 2381 947 1747 
z
" transform="scale(0.015625)"/>
      </defs>
      <use xlink:href="#DejaVuSans-48"/>
      <use xlink:href="#DejaVuSans-69" transform="translate(75.195312 0)"/>
      <use xlink:href="#DejaVuSans-64" transform="translate(102.978516 0)"/>
      <use xlink:href="#DejaVuSans-72" transform="translate(166.455078 0)"/>
      <use xlink:href="#DejaVuSans-6f" transform="translate(205.318359 0)"/>
     </g>
    </g>
    <g id="patch_31">
     <path d="M 1399.035446 258.6964 
L 1431.035446 258.6964 
L 1431.035446 247.4964 
L 1399.035446 247.4964 
z
" style="fill: url(#h9cc07f9305); stroke: #ffffff; stroke-linejoin: miter"/>
    </g>
    <g id="text_35">
     <!-- Solar Dist -->
     <g transform="translate(1443.835446 258.6964) scale(0.16 -0.16)">
      <defs>
       <path id="DejaVuSans-20" transform="scale(0.015625)"/>
       <path id="DejaVuSans-44" d="M 1259 4147 
L 1259 519 
L 2022 519 
Q 2988 519 3436 956 
Q 3884 1394 3884 2338 
Q 3884 3275 3436 3711 
Q 2988 4147 2022 4147 
L 1259 4147 
z
M 628 4666 
L 1925 4666 
Q 3281 4666 3915 4102 
Q 4550 3538 4550 2338 
Q 4550 1131 3912 565 
Q 3275 0 1925 0 
L 628 0 
L 628 4666 
z
" transform="scale(0.015625)"/>
       <path id="DejaVuSans-74" d="M 1172 4494 
L 1172 3500 
L 2356 3500 
L 2356 3053 
L 1172 3053 
L 1172 1153 
Q 1172 725 1289 603 
Q 1406 481 1766 481 
L 2356 481 
L 2356 0 
L 1766 0 
Q 1100 0 847 248 
Q 594 497 594 1153 
L 594 3053 
L 172 3053 
L 172 3500 
L 594 3500 
L 594 4494 
L 1172 4494 
z
" transform="scale(0.015625)"/>
      </defs>
      <use xlink:href="#DejaVuSans-53"/>
      <use xlink:href="#DejaVuSans-6f" transform="translate(63.476562 0)"/>
      <use xlink:href="#DejaVuSans-6c" transform="translate(124.658203 0)"/>
      <use xlink:href="#DejaVuSans-61" transform="translate(152.441406 0)"/>
      <use xlink:href="#DejaVuSans-72" transform="translate(213.720703 0)"/>
      <use xlink:href="#DejaVuSans-20" transform="translate(254.833984 0)"/>
      <use xlink:href="#DejaVuSans-44" transform="translate(286.621094 0)"/>
      <use xlink:href="#DejaVuSans-69" transform="translate(363.623047 0)"/>
      <use xlink:href="#DejaVuSans-73" transform="translate(391.40625 0)"/>
      <use xlink:href="#DejaVuSans-74" transform="translate(443.505859 0)"/>
     </g>
    </g>
   </g>
  </g>
 </g>
 <defs>
  <pattern id="h9cc07f9305" patternUnits="userSpaceOnUse" x="0" y="0" width="72" height="72">
   <rect x="0" y="0" width="73" height="73" fill="#fbaa1b"/>
   <path d="M -36 36 
L 36 -36 
M -24 48 
L 48 -24 
M -12 60 
L 60 -12 
M 0 72 
L 72 0 
M 12 84 
L 84 12 
M 24 96 
L 96 24 
M 36 108 
L 108 36 
" style="fill: #ffffff; stroke: #ffffff; stroke-width: 1.0; stroke-linecap: butt; stroke-linejoin: miter"/>
  </pattern>
 </defs>
</svg>
