<?xml version="1.0" encoding="utf-8" standalone="no"?>
<!DOCTYPE svg PUBLIC "-//W3C//DTD SVG 1.1//EN"
  "http://www.w3.org/Graphics/SVG/1.1/DTD/svg11.dtd">
<svg xmlns:xlink="http://www.w3.org/1999/xlink" width="1534.667946pt" height="342.435816pt" viewBox="0 0 1534.667946 342.435816" xmlns="http://www.w3.org/2000/svg" version="1.1">
 <metadata>
  <rdf:RDF xmlns:dc="http://purl.org/dc/elements/1.1/" xmlns:cc="http://creativecommons.org/ns#" xmlns:rdf="http://www.w3.org/1999/02/22-rdf-syntax-ns#">
   <cc:Work>
    <dc:type rdf:resource="http://purl.org/dc/dcmitype/StillImage"/>
    <dc:date>2025-12-20T09:56:38.405558</dc:date>
    <dc:format>image/svg+xml</dc:format>
    <dc:creator>
     <cc:Agent>
      <dc:title>Matplotlib v3.10.3, https://matplotlib.org/</dc:title>
     </cc:Agent>
    </dc:creator>
   </cc:Work>
  </rdf:RDF>
 </metadata>
 <defs>
  <style type="text/css">*{stroke-linejoin: round; stroke-linecap: butt}</style>
 </defs>
 <g id="figure_1">
  <g id="patch_1">
   <path d="M 0 342.435816 
L 1534.667946 342.435816 
L 1534.667946 0 
L 0 0 
z
" style="fill: #ffffff"/>
  </g>
  <g id="axes_1">
   <g id="patch_2">
    <path d="M 133.295625 115.936813 
C 117.993827 115.936813 102.934367 119.780524 89.504313 127.113918 
C 76.074259 134.447311 64.699 145.038106 56.426266 157.910825 
C 48.153533 170.783544 43.245359 185.530452 42.153818 200.793268 
C 41.062276 216.056084 43.821941 231.351367 50.178631 245.27033 
C 56.535321 259.189293 66.28769 271.291058 78.537487 280.460982 
C 90.787284 289.630905 105.146502 295.578534 120.292572 297.756055 
C 135.438642 299.933576 150.891818 298.272018 165.228771 292.92442 
C 179.565724 287.576822 192.332338 278.712567 202.35273 267.148106 
L 150.294297 222.040435 
C 147.827739 224.887071 144.685188 227.069042 141.156092 228.385374 
C 137.626996 229.701706 133.823137 230.110705 130.094873 229.574699 
C 126.36661 229.038694 122.832033 227.574662 119.816699 225.317451 
C 116.801364 223.060239 114.400781 220.081342 112.836057 216.655136 
C 111.271334 213.22893 110.592031 209.463937 110.860719 205.706936 
C 111.129406 201.949935 112.337571 198.319927 114.373937 195.151258 
C 116.410302 191.982589 119.210366 189.375624 122.516225 187.570481 
C 125.822085 185.765338 129.529029 184.819194 133.295625 184.819194 
z
" style="fill: #a1140b; stroke: #ffffff; stroke-linejoin: miter"/>
   </g>
   <g id="patch_3">
    <path d="M 202.352742 267.148092 
C 205.355217 263.682955 208.092629 259.99674 210.541776 256.120693 
C 212.990923 252.244646 215.144856 248.189754 216.98533 243.990384 
L 153.896168 216.340073 
C 153.443128 217.373764 152.912929 218.371891 152.310062 219.325995 
C 151.707195 220.280099 151.033371 221.187475 150.2943 222.040431 
z
" style="fill: #fbaa1b; stroke: #ffffff; stroke-linejoin: miter"/>
   </g>
   <g id="patch_4">
    <path d="M 216.98533 243.990384 
C 219.360059 238.572018 221.202978 232.935811 222.488121 227.161173 
C 223.773263 221.386535 224.494572 215.500713 224.64188 209.586633 
L 155.780857 207.871457 
C 155.744597 209.32723 155.567044 210.776048 155.250701 212.197498 
C 154.934358 213.618947 154.480716 215.006321 153.896168 216.340073 
z
" style="fill: #8fc73e; stroke: #ffffff; stroke-linejoin: miter"/>
   </g>
   <g id="patch_5">
    <path d="M 224.64188 209.586633 
C 224.945013 197.41628 222.812876 185.307171 218.371002 173.972307 
C 213.929128 162.637443 207.26645 152.303751 198.775269 143.57969 
C 190.284089 134.855629 180.134407 127.915858 168.923848 123.168993 
C 157.713286 118.422129 145.666284 115.963211 133.492185 115.937025 
L 133.344009 184.819246 
C 136.34071 184.825692 139.306126 185.430964 142.065649 186.599423 
C 144.825171 187.767882 147.323555 189.476133 149.413691 191.623594 
C 151.503828 193.771055 153.143872 196.314733 154.237256 199.104854 
C 155.330641 201.894974 155.855474 204.875678 155.780857 207.871457 
z
" style="fill: #207653; stroke: #ffffff; stroke-linejoin: miter"/>
   </g>
   <g id="patch_6">
    <path d="M 133.492185 115.937025 
C 133.459428 115.936954 133.426648 115.9369 133.39389 115.936867 
C 133.361132 115.936835 133.328396 115.936813 133.295638 115.936813 
L 133.295628 184.819194 
C 133.303692 184.819194 133.31175 184.819199 133.319813 184.819207 
C 133.327877 184.819215 133.335946 184.819228 133.344009 184.819246 
z
" style="fill: url(#h4b35ad4c29); stroke: #ffffff; stroke-linejoin: miter"/>
   </g>
   <g id="matplotlib.axis_1"/>
   <g id="matplotlib.axis_2"/>
   <g id="text_1">
    <!-- 63.6% -->
    <g transform="translate(58.011682 234.501766) scale(0.16 -0.16)">
     <defs>
      <path id="DejaVuSans-36" d="M 2113 2584 
Q 1688 2584 1439 2293 
Q 1191 2003 1191 1497 
Q 1191 994 1439 701 
Q 1688 409 2113 409 
Q 2538 409 2786 701 
Q 3034 994 3034 1497 
Q 3034 2003 2786 2293 
Q 2538 2584 2113 2584 
z
M 3366 4563 
L 3366 3988 
Q 3128 4100 2886 4159 
Q 2644 4219 2406 4219 
Q 1781 4219 1451 3797 
Q 1122 3375 1075 2522 
Q 1259 2794 1537 2939 
Q 1816 3084 2150 3084 
Q 2853 3084 3261 2657 
Q 3669 2231 3669 1497 
Q 3669 778 3244 343 
Q 2819 -91 2113 -91 
Q 1303 -91 875 529 
Q 447 1150 447 2328 
Q 447 3434 972 4092 
Q 1497 4750 2381 4750 
Q 2619 4750 2861 4703 
Q 3103 4656 3366 4563 
z
" transform="scale(0.015625)"/>
      <path id="DejaVuSans-33" d="M 2597 2516 
Q 3050 2419 3304 2112 
Q 3559 1806 3559 1356 
Q 3559 666 3084 287 
Q 2609 -91 1734 -91 
Q 1441 -91 1130 -33 
Q 819 25 488 141 
L 488 750 
Q 750 597 1062 519 
Q 1375 441 1716 441 
Q 2309 441 2620 675 
Q 2931 909 2931 1356 
Q 2931 1769 2642 2001 
Q 2353 2234 1838 2234 
L 1294 2234 
L 1294 2753 
L 1863 2753 
Q 2328 2753 2575 2939 
Q 2822 3125 2822 3475 
Q 2822 3834 2567 4026 
Q 2313 4219 1838 4219 
Q 1578 4219 1281 4162 
Q 984 4106 628 3988 
L 628 4550 
Q 988 4650 1302 4700 
Q 1616 4750 1894 4750 
Q 2613 4750 3031 4423 
Q 3450 4097 3450 3541 
Q 3450 3153 3228 2886 
Q 3006 2619 2597 2516 
z
" transform="scale(0.015625)"/>
      <path id="DejaVuSans-2e" d="M 684 794 
L 1344 794 
L 1344 0 
L 684 0 
L 684 794 
z
" transform="scale(0.015625)"/>
      <path id="DejaVuSans-25" d="M 4653 2053 
Q 4381 2053 4226 1822 
Q 4072 1591 4072 1178 
Q 4072 772 4226 539 
Q 4381 306 4653 306 
Q 4919 306 5073 539 
Q 5228 772 5228 1178 
Q 5228 1588 5073 1820 
Q 4919 2053 4653 2053 
z
M 4653 2450 
Q 5147 2450 5437 2106 
Q 5728 1763 5728 1178 
Q 5728 594 5436 251 
Q 5144 -91 4653 -91 
Q 4153 -91 3862 251 
Q 3572 594 3572 1178 
Q 3572 1766 3864 2108 
Q 4156 2450 4653 2450 
z
M 1428 4353 
Q 1159 4353 1004 4120 
Q 850 3888 850 3481 
Q 850 3069 1003 2837 
Q 1156 2606 1428 2606 
Q 1700 2606 1854 2837 
Q 2009 3069 2009 3481 
Q 2009 3884 1853 4118 
Q 1697 4353 1428 4353 
z
M 4250 4750 
L 4750 4750 
L 1831 -91 
L 1331 -91 
L 4250 4750 
z
M 1428 4750 
Q 1922 4750 2215 4408 
Q 2509 4066 2509 3481 
Q 2509 2891 2217 2550 
Q 1925 2209 1428 2209 
Q 931 2209 642 2551 
Q 353 2894 353 3481 
Q 353 4063 643 4406 
Q 934 4750 1428 4750 
z
" transform="scale(0.015625)"/>
     </defs>
     <use xlink:href="#DejaVuSans-36"/>
     <use xlink:href="#DejaVuSans-33" transform="translate(63.623047 0)"/>
     <use xlink:href="#DejaVuSans-2e" transform="translate(127.246094 0)"/>
     <use xlink:href="#DejaVuSans-36" transform="translate(159.033203 0)"/>
     <use xlink:href="#DejaVuSans-25" transform="translate(222.65625 0)"/>
    </g>
   </g>
   <g id="text_2">
    <!-- 4.8% -->
    <g transform="translate(159.319565 241.011977) scale(0.16 -0.16)">
     <defs>
      <path id="DejaVuSans-34" d="M 2419 4116 
L 825 1625 
L 2419 1625 
L 2419 4116 
z
M 2253 4666 
L 3047 4666 
L 3047 1625 
L 3713 1625 
L 3713 1100 
L 3047 1100 
L 3047 0 
L 2419 0 
L 2419 1100 
L 313 1100 
L 313 1709 
L 2253 4666 
z
" transform="scale(0.015625)"/>
      <path id="DejaVuSans-38" d="M 2034 2216 
Q 1584 2216 1326 1975 
Q 1069 1734 1069 1313 
Q 1069 891 1326 650 
Q 1584 409 2034 409 
Q 2484 409 2743 651 
Q 3003 894 3003 1313 
Q 3003 1734 2745 1975 
Q 2488 2216 2034 2216 
z
M 1403 2484 
Q 997 2584 770 2862 
Q 544 3141 544 3541 
Q 544 4100 942 4425 
Q 1341 4750 2034 4750 
Q 2731 4750 3128 4425 
Q 3525 4100 3525 3541 
Q 3525 3141 3298 2862 
Q 3072 2584 2669 2484 
Q 3125 2378 3379 2068 
Q 3634 1759 3634 1313 
Q 3634 634 3220 271 
Q 2806 -91 2034 -91 
Q 1263 -91 848 271 
Q 434 634 434 1313 
Q 434 1759 690 2068 
Q 947 2378 1403 2484 
z
M 1172 3481 
Q 1172 3119 1398 2916 
Q 1625 2713 2034 2713 
Q 2441 2713 2670 2916 
Q 2900 3119 2900 3481 
Q 2900 3844 2670 4047 
Q 2441 4250 2034 4250 
Q 1625 4250 1398 4047 
Q 1172 3844 1172 3481 
z
" transform="scale(0.015625)"/>
     </defs>
     <use xlink:href="#DejaVuSans-34"/>
     <use xlink:href="#DejaVuSans-2e" transform="translate(63.623047 0)"/>
     <use xlink:href="#DejaVuSans-38" transform="translate(95.410156 0)"/>
     <use xlink:href="#DejaVuSans-25" transform="translate(159.033203 0)"/>
    </g>
   </g>
   <g id="text_3">
    <!-- 6.2% -->
    <g transform="translate(166.487379 223.636238) scale(0.16 -0.16)">
     <defs>
      <path id="DejaVuSans-32" d="M 1228 531 
L 3431 531 
L 3431 0 
L 469 0 
L 469 531 
Q 828 903 1448 1529 
Q 2069 2156 2228 2338 
Q 2531 2678 2651 2914 
Q 2772 3150 2772 3378 
Q 2772 3750 2511 3984 
Q 2250 4219 1831 4219 
Q 1534 4219 1204 4116 
Q 875 4013 500 3803 
L 500 4441 
Q 881 4594 1212 4672 
Q 1544 4750 1819 4750 
Q 2544 4750 2975 4387 
Q 3406 4025 3406 3419 
Q 3406 3131 3298 2873 
Q 3191 2616 2906 2266 
Q 2828 2175 2409 1742 
Q 1991 1309 1228 531 
z
" transform="scale(0.015625)"/>
     </defs>
     <use xlink:href="#DejaVuSans-36"/>
     <use xlink:href="#DejaVuSans-2e" transform="translate(63.623047 0)"/>
     <use xlink:href="#DejaVuSans-32" transform="translate(95.410156 0)"/>
     <use xlink:href="#DejaVuSans-25" transform="translate(159.033203 0)"/>
    </g>
   </g>
   <g id="text_4">
    <!-- 25.4% -->
    <g transform="translate(147.169663 173.487373) scale(0.16 -0.16)">
     <defs>
      <path id="DejaVuSans-35" d="M 691 4666 
L 3169 4666 
L 3169 4134 
L 1269 4134 
L 1269 2991 
Q 1406 3038 1543 3061 
Q 1681 3084 1819 3084 
Q 2600 3084 3056 2656 
Q 3513 2228 3513 1497 
Q 3513 744 3044 326 
Q 2575 -91 1722 -91 
Q 1428 -91 1123 -41 
Q 819 9 494 109 
L 494 744 
Q 775 591 1075 516 
Q 1375 441 1709 441 
Q 2250 441 2565 725 
Q 2881 1009 2881 1497 
Q 2881 1984 2565 2268 
Q 2250 2553 1709 2553 
Q 1456 2553 1204 2497 
Q 953 2441 691 2322 
L 691 4666 
z
" transform="scale(0.015625)"/>
     </defs>
     <use xlink:href="#DejaVuSans-32"/>
     <use xlink:href="#DejaVuSans-35" transform="translate(63.623047 0)"/>
     <use xlink:href="#DejaVuSans-2e" transform="translate(127.246094 0)"/>
     <use xlink:href="#DejaVuSans-34" transform="translate(159.033203 0)"/>
     <use xlink:href="#DejaVuSans-25" transform="translate(222.65625 0)"/>
    </g>
   </g>
   <g id="text_5">
    <!-- 0.0% -->
    <g transform="translate(113.030834 156.901679) scale(0.16 -0.16)">
     <defs>
      <path id="DejaVuSans-30" d="M 2034 4250 
Q 1547 4250 1301 3770 
Q 1056 3291 1056 2328 
Q 1056 1369 1301 889 
Q 1547 409 2034 409 
Q 2525 409 2770 889 
Q 3016 1369 3016 2328 
Q 3016 3291 2770 3770 
Q 2525 4250 2034 4250 
z
M 2034 4750 
Q 2819 4750 3233 4129 
Q 3647 3509 3647 2328 
Q 3647 1150 3233 529 
Q 2819 -91 2034 -91 
Q 1250 -91 836 529 
Q 422 1150 422 2328 
Q 422 3509 836 4129 
Q 1250 4750 2034 4750 
z
" transform="scale(0.015625)"/>
     </defs>
     <use xlink:href="#DejaVuSans-30"/>
     <use xlink:href="#DejaVuSans-2e" transform="translate(63.623047 0)"/>
     <use xlink:href="#DejaVuSans-30" transform="translate(95.410156 0)"/>
     <use xlink:href="#DejaVuSans-25" transform="translate(159.033203 0)"/>
    </g>
   </g>
   <g id="text_6">
    <!-- 2025 (11390 GWh) -->
    <g transform="translate(7.2 113.45122) scale(0.24 -0.24)">
     <defs>
      <path id="DejaVuSans-Bold-32" d="M 1844 884 
L 3897 884 
L 3897 0 
L 506 0 
L 506 884 
L 2209 2388 
Q 2438 2594 2547 2791 
Q 2656 2988 2656 3200 
Q 2656 3528 2436 3728 
Q 2216 3928 1850 3928 
Q 1569 3928 1234 3808 
Q 900 3688 519 3450 
L 519 4475 
Q 925 4609 1322 4679 
Q 1719 4750 2100 4750 
Q 2938 4750 3402 4381 
Q 3866 4013 3866 3353 
Q 3866 2972 3669 2642 
Q 3472 2313 2841 1759 
L 1844 884 
z
" transform="scale(0.015625)"/>
      <path id="DejaVuSans-Bold-30" d="M 2944 2338 
Q 2944 3213 2780 3570 
Q 2616 3928 2228 3928 
Q 1841 3928 1675 3570 
Q 1509 3213 1509 2338 
Q 1509 1453 1675 1090 
Q 1841 728 2228 728 
Q 2613 728 2778 1090 
Q 2944 1453 2944 2338 
z
M 4147 2328 
Q 4147 1169 3647 539 
Q 3147 -91 2228 -91 
Q 1306 -91 806 539 
Q 306 1169 306 2328 
Q 306 3491 806 4120 
Q 1306 4750 2228 4750 
Q 3147 4750 3647 4120 
Q 4147 3491 4147 2328 
z
" transform="scale(0.015625)"/>
      <path id="DejaVuSans-Bold-35" d="M 678 4666 
L 3669 4666 
L 3669 3781 
L 1638 3781 
L 1638 3059 
Q 1775 3097 1914 3117 
Q 2053 3138 2203 3138 
Q 3056 3138 3531 2711 
Q 4006 2284 4006 1522 
Q 4006 766 3489 337 
Q 2972 -91 2053 -91 
Q 1656 -91 1267 -14 
Q 878 63 494 219 
L 494 1166 
Q 875 947 1217 837 
Q 1559 728 1863 728 
Q 2300 728 2551 942 
Q 2803 1156 2803 1522 
Q 2803 1891 2551 2103 
Q 2300 2316 1863 2316 
Q 1603 2316 1309 2248 
Q 1016 2181 678 2041 
L 678 4666 
z
" transform="scale(0.015625)"/>
      <path id="DejaVuSans-Bold-20" transform="scale(0.015625)"/>
      <path id="DejaVuSans-Bold-28" d="M 2413 -844 
L 1484 -844 
Q 1006 -72 778 623 
Q 550 1319 550 2003 
Q 550 2688 779 3389 
Q 1009 4091 1484 4856 
L 2413 4856 
Q 2013 4116 1813 3408 
Q 1613 2700 1613 2009 
Q 1613 1319 1811 609 
Q 2009 -100 2413 -844 
z
" transform="scale(0.015625)"/>
      <path id="DejaVuSans-Bold-31" d="M 750 831 
L 1813 831 
L 1813 3847 
L 722 3622 
L 722 4441 
L 1806 4666 
L 2950 4666 
L 2950 831 
L 4013 831 
L 4013 0 
L 750 0 
L 750 831 
z
" transform="scale(0.015625)"/>
      <path id="DejaVuSans-Bold-33" d="M 2981 2516 
Q 3453 2394 3698 2092 
Q 3944 1791 3944 1325 
Q 3944 631 3412 270 
Q 2881 -91 1863 -91 
Q 1503 -91 1142 -33 
Q 781 25 428 141 
L 428 1069 
Q 766 900 1098 814 
Q 1431 728 1753 728 
Q 2231 728 2486 893 
Q 2741 1059 2741 1369 
Q 2741 1688 2480 1852 
Q 2219 2016 1709 2016 
L 1228 2016 
L 1228 2791 
L 1734 2791 
Q 2188 2791 2409 2933 
Q 2631 3075 2631 3366 
Q 2631 3634 2415 3781 
Q 2200 3928 1806 3928 
Q 1516 3928 1219 3862 
Q 922 3797 628 3669 
L 628 4550 
Q 984 4650 1334 4700 
Q 1684 4750 2022 4750 
Q 2931 4750 3382 4451 
Q 3834 4153 3834 3553 
Q 3834 3144 3618 2883 
Q 3403 2622 2981 2516 
z
" transform="scale(0.015625)"/>
      <path id="DejaVuSans-Bold-39" d="M 641 103 
L 641 966 
Q 928 831 1190 764 
Q 1453 697 1709 697 
Q 2247 697 2547 995 
Q 2847 1294 2900 1881 
Q 2688 1725 2447 1647 
Q 2206 1569 1925 1569 
Q 1209 1569 770 1986 
Q 331 2403 331 3084 
Q 331 3838 820 4291 
Q 1309 4744 2131 4744 
Q 3044 4744 3544 4128 
Q 4044 3513 4044 2388 
Q 4044 1231 3459 570 
Q 2875 -91 1856 -91 
Q 1528 -91 1228 -42 
Q 928 6 641 103 
z
M 2125 2350 
Q 2441 2350 2600 2554 
Q 2759 2759 2759 3169 
Q 2759 3575 2600 3781 
Q 2441 3988 2125 3988 
Q 1809 3988 1650 3781 
Q 1491 3575 1491 3169 
Q 1491 2759 1650 2554 
Q 1809 2350 2125 2350 
z
" transform="scale(0.015625)"/>
      <path id="DejaVuSans-Bold-47" d="M 4781 347 
Q 4331 128 3847 18 
Q 3363 -91 2847 -91 
Q 1681 -91 1000 561 
Q 319 1213 319 2328 
Q 319 3456 1012 4103 
Q 1706 4750 2913 4750 
Q 3378 4750 3804 4662 
Q 4231 4575 4609 4403 
L 4609 3438 
Q 4219 3659 3833 3768 
Q 3447 3878 3059 3878 
Q 2341 3878 1952 3476 
Q 1563 3075 1563 2328 
Q 1563 1588 1938 1184 
Q 2313 781 3003 781 
Q 3191 781 3352 804 
Q 3513 828 3641 878 
L 3641 1784 
L 2906 1784 
L 2906 2591 
L 4781 2591 
L 4781 347 
z
" transform="scale(0.015625)"/>
      <path id="DejaVuSans-Bold-57" d="M 191 4666 
L 1344 4666 
L 2150 1275 
L 2950 4666 
L 4109 4666 
L 4909 1275 
L 5716 4666 
L 6859 4666 
L 5759 0 
L 4372 0 
L 3525 3547 
L 2688 0 
L 1300 0 
L 191 4666 
z
" transform="scale(0.015625)"/>
      <path id="DejaVuSans-Bold-68" d="M 4056 2131 
L 4056 0 
L 2931 0 
L 2931 347 
L 2931 1625 
Q 2931 2084 2911 2256 
Q 2891 2428 2841 2509 
Q 2775 2619 2662 2680 
Q 2550 2741 2406 2741 
Q 2056 2741 1856 2470 
Q 1656 2200 1656 1722 
L 1656 0 
L 538 0 
L 538 4863 
L 1656 4863 
L 1656 2988 
Q 1909 3294 2193 3439 
Q 2478 3584 2822 3584 
Q 3428 3584 3742 3212 
Q 4056 2841 4056 2131 
z
" transform="scale(0.015625)"/>
      <path id="DejaVuSans-Bold-29" d="M 513 -844 
Q 913 -100 1113 609 
Q 1313 1319 1313 2009 
Q 1313 2700 1113 3408 
Q 913 4116 513 4856 
L 1441 4856 
Q 1916 4091 2145 3389 
Q 2375 2688 2375 2003 
Q 2375 1319 2147 623 
Q 1919 -72 1441 -844 
L 513 -844 
z
" transform="scale(0.015625)"/>
     </defs>
     <use xlink:href="#DejaVuSans-Bold-32"/>
     <use xlink:href="#DejaVuSans-Bold-30" transform="translate(69.580078 0)"/>
     <use xlink:href="#DejaVuSans-Bold-32" transform="translate(139.160156 0)"/>
     <use xlink:href="#DejaVuSans-Bold-35" transform="translate(208.740234 0)"/>
     <use xlink:href="#DejaVuSans-Bold-20" transform="translate(278.320312 0)"/>
     <use xlink:href="#DejaVuSans-Bold-28" transform="translate(313.134766 0)"/>
     <use xlink:href="#DejaVuSans-Bold-31" transform="translate(358.837891 0)"/>
     <use xlink:href="#DejaVuSans-Bold-31" transform="translate(428.417969 0)"/>
     <use xlink:href="#DejaVuSans-Bold-33" transform="translate(497.998047 0)"/>
     <use xlink:href="#DejaVuSans-Bold-39" transform="translate(567.578125 0)"/>
     <use xlink:href="#DejaVuSans-Bold-30" transform="translate(637.158203 0)"/>
     <use xlink:href="#DejaVuSans-Bold-20" transform="translate(706.738281 0)"/>
     <use xlink:href="#DejaVuSans-Bold-47" transform="translate(741.552734 0)"/>
     <use xlink:href="#DejaVuSans-Bold-57" transform="translate(823.632812 0)"/>
     <use xlink:href="#DejaVuSans-Bold-68" transform="translate(933.935547 0)"/>
     <use xlink:href="#DejaVuSans-Bold-29" transform="translate(1005.126953 0)"/>
    </g>
   </g>
  </g>
  <g id="axes_2">
   <g id="patch_7">
    <path d="M 389.460764 80.300724 
C 369.155598 80.300724 349.143408 85.169997 331.108089 94.498825 
C 313.07277 103.827653 297.534772 117.346832 285.801516 133.918811 
C 274.068261 150.49079 266.478338 169.637347 263.670389 189.747424 
C 260.862441 209.857501 262.917497 230.350777 269.662638 249.502874 
C 276.407778 268.654972 287.648358 285.913215 302.438554 299.825435 
C 317.228751 313.737654 335.14176 323.902382 354.670318 329.464322 
C 374.198876 335.026262 394.779444 335.824913 414.680299 331.793072 
C 434.581153 327.761231 453.228012 319.015247 469.051863 306.291037 
L 409.052419 231.675618 
C 405.157318 234.807731 400.567322 236.960589 395.66865 237.953042 
C 390.769978 238.945495 385.703992 238.748904 380.896962 237.379811 
C 376.089933 236.010718 371.680576 233.508631 368.039913 230.084085 
C 364.399249 226.659539 361.632337 222.411356 359.971995 217.696993 
C 358.311652 212.982631 357.805792 207.938132 358.49698 202.987959 
C 359.188167 198.037787 361.056456 193.324788 363.944642 189.245532 
C 366.832828 185.166275 370.657566 181.838477 375.097029 179.54215 
C 379.536492 177.245823 384.46257 176.047233 389.460764 176.047233 
z
" style="fill: #a1140b; stroke: #ffffff; stroke-linejoin: miter"/>
   </g>
   <g id="patch_8">
    <path d="M 469.051865 306.291035 
C 473.642072 302.599975 477.969986 298.594054 482.004213 294.302327 
C 486.03844 290.010599 489.769222 285.443452 493.169577 280.63393 
L 414.989088 225.360022 
C 414.152077 226.543905 413.233731 227.668126 412.24069 228.724551 
C 411.24765 229.780976 410.182317 230.767049 409.05242 231.675618 
z
" style="fill: #fbaa1b; stroke: #ffffff; stroke-linejoin: miter"/>
   </g>
   <g id="patch_9">
    <path d="M 493.169577 280.63393 
C 498.277086 273.409767 502.615819 265.671664 506.115051 257.545738 
C 509.614284 249.419813 512.254909 240.95046 513.993874 232.275715 
L 420.115068 213.456462 
C 419.687015 215.591784 419.037015 217.676548 418.175666 219.676775 
C 417.314316 221.677003 416.246321 223.581767 414.989088 225.360022 
z
" style="fill: #8fc73e; stroke: #ffffff; stroke-linejoin: miter"/>
   </g>
   <g id="patch_10">
    <path d="M 513.993874 232.275715 
C 517.57383 214.417272 517.270831 195.995916 513.105462 178.264874 
C 508.9401 160.533834 501.009041 143.904508 489.851808 129.508116 
C 478.694574 115.111724 464.570067 103.282343 448.439108 94.824662 
C 432.308154 86.366982 414.54502 81.477252 396.358164 80.488145 
L 391.158586 176.093368 
C 395.63535 176.33684 400.007814 177.540466 403.978511 179.622357 
C 407.949208 181.704247 411.42601 184.616095 414.172406 188.159822 
C 416.918802 191.703549 418.871062 195.796922 419.896382 200.161486 
C 420.921704 204.52605 420.996288 209.060537 420.115068 213.456462 
z
" style="fill: #207653; stroke: #ffffff; stroke-linejoin: miter"/>
   </g>
   <g id="patch_11">
    <path d="M 396.358164 80.488145 
C 395.209714 80.425689 394.060438 80.378828 392.910716 80.347585 
C 391.760993 80.316342 390.610929 80.300724 389.460782 80.300724 
L 389.460769 176.047233 
C 389.743882 176.047233 390.026974 176.051078 390.309983 176.058768 
C 390.592992 176.066459 390.87589 176.077994 391.158586 176.093368 
z
" style="fill: url(#h4b35ad4c29); stroke: #ffffff; stroke-linejoin: miter"/>
   </g>
   <g id="matplotlib.axis_3"/>
   <g id="matplotlib.axis_4"/>
   <g id="text_7">
    <!-- 60.8% -->
    <g transform="translate(292.168135 237.041274) scale(0.16 -0.16)">
     <use xlink:href="#DejaVuSans-36"/>
     <use xlink:href="#DejaVuSans-30" transform="translate(63.623047 0)"/>
     <use xlink:href="#DejaVuSans-2e" transform="translate(127.246094 0)"/>
     <use xlink:href="#DejaVuSans-38" transform="translate(159.033203 0)"/>
     <use xlink:href="#DejaVuSans-25" transform="translate(222.65625 0)"/>
    </g>
   </g>
   <g id="text_8">
    <!-- 4.4% -->
    <g transform="translate(424.66306 263.920982) scale(0.16 -0.16)">
     <use xlink:href="#DejaVuSans-34"/>
     <use xlink:href="#DejaVuSans-2e" transform="translate(63.623047 0)"/>
     <use xlink:href="#DejaVuSans-34" transform="translate(95.410156 0)"/>
     <use xlink:href="#DejaVuSans-25" transform="translate(159.033203 0)"/>
    </g>
   </g>
   <g id="text_9">
    <!-- 6.6% -->
    <g transform="translate(439.129587 241.867004) scale(0.16 -0.16)">
     <use xlink:href="#DejaVuSans-36"/>
     <use xlink:href="#DejaVuSans-2e" transform="translate(63.623047 0)"/>
     <use xlink:href="#DejaVuSans-36" transform="translate(95.410156 0)"/>
     <use xlink:href="#DejaVuSans-25" transform="translate(159.033203 0)"/>
    </g>
   </g>
   <g id="text_10">
    <!-- 27.3% -->
    <g transform="translate(424.281594 165.044373) scale(0.16 -0.16)">
     <defs>
      <path id="DejaVuSans-37" d="M 525 4666 
L 3525 4666 
L 3525 4397 
L 1831 0 
L 1172 0 
L 2766 4134 
L 525 4134 
L 525 4666 
z
" transform="scale(0.015625)"/>
     </defs>
     <use xlink:href="#DejaVuSans-32"/>
     <use xlink:href="#DejaVuSans-37" transform="translate(63.623047 0)"/>
     <use xlink:href="#DejaVuSans-2e" transform="translate(127.246094 0)"/>
     <use xlink:href="#DejaVuSans-33" transform="translate(159.033203 0)"/>
     <use xlink:href="#DejaVuSans-25" transform="translate(222.65625 0)"/>
    </g>
   </g>
   <g id="text_11">
    <!-- 0.9% -->
    <g transform="translate(371.206949 135.548111) scale(0.16 -0.16)">
     <defs>
      <path id="DejaVuSans-39" d="M 703 97 
L 703 672 
Q 941 559 1184 500 
Q 1428 441 1663 441 
Q 2288 441 2617 861 
Q 2947 1281 2994 2138 
Q 2813 1869 2534 1725 
Q 2256 1581 1919 1581 
Q 1219 1581 811 2004 
Q 403 2428 403 3163 
Q 403 3881 828 4315 
Q 1253 4750 1959 4750 
Q 2769 4750 3195 4129 
Q 3622 3509 3622 2328 
Q 3622 1225 3098 567 
Q 2575 -91 1691 -91 
Q 1453 -91 1209 -44 
Q 966 3 703 97 
z
M 1959 2075 
Q 2384 2075 2632 2365 
Q 2881 2656 2881 3163 
Q 2881 3666 2632 3958 
Q 2384 4250 1959 4250 
Q 1534 4250 1286 3958 
Q 1038 3666 1038 3163 
Q 1038 2656 1286 2365 
Q 1534 2075 1959 2075 
z
" transform="scale(0.015625)"/>
     </defs>
     <use xlink:href="#DejaVuSans-30"/>
     <use xlink:href="#DejaVuSans-2e" transform="translate(63.623047 0)"/>
     <use xlink:href="#DejaVuSans-39" transform="translate(95.410156 0)"/>
     <use xlink:href="#DejaVuSans-25" transform="translate(159.033203 0)"/>
    </g>
   </g>
   <g id="text_12">
    <!-- Escenario Tendencial  -->
    <g transform="translate(243.608264 52.311) scale(0.24 -0.24)">
     <defs>
      <path id="DejaVuSans-Bold-45" d="M 588 4666 
L 3834 4666 
L 3834 3756 
L 1791 3756 
L 1791 2888 
L 3713 2888 
L 3713 1978 
L 1791 1978 
L 1791 909 
L 3903 909 
L 3903 0 
L 588 0 
L 588 4666 
z
" transform="scale(0.015625)"/>
      <path id="DejaVuSans-Bold-73" d="M 3272 3391 
L 3272 2541 
Q 2913 2691 2578 2766 
Q 2244 2841 1947 2841 
Q 1628 2841 1473 2761 
Q 1319 2681 1319 2516 
Q 1319 2381 1436 2309 
Q 1553 2238 1856 2203 
L 2053 2175 
Q 2913 2066 3209 1816 
Q 3506 1566 3506 1031 
Q 3506 472 3093 190 
Q 2681 -91 1863 -91 
Q 1516 -91 1145 -36 
Q 775 19 384 128 
L 384 978 
Q 719 816 1070 734 
Q 1422 653 1784 653 
Q 2113 653 2278 743 
Q 2444 834 2444 1013 
Q 2444 1163 2330 1236 
Q 2216 1309 1875 1350 
L 1678 1375 
Q 931 1469 631 1722 
Q 331 1975 331 2491 
Q 331 3047 712 3315 
Q 1094 3584 1881 3584 
Q 2191 3584 2531 3537 
Q 2872 3491 3272 3391 
z
" transform="scale(0.015625)"/>
      <path id="DejaVuSans-Bold-63" d="M 3366 3391 
L 3366 2478 
Q 3138 2634 2908 2709 
Q 2678 2784 2431 2784 
Q 1963 2784 1702 2511 
Q 1441 2238 1441 1747 
Q 1441 1256 1702 982 
Q 1963 709 2431 709 
Q 2694 709 2930 787 
Q 3166 866 3366 1019 
L 3366 103 
Q 3103 6 2833 -42 
Q 2563 -91 2291 -91 
Q 1344 -91 809 395 
Q 275 881 275 1747 
Q 275 2613 809 3098 
Q 1344 3584 2291 3584 
Q 2566 3584 2833 3536 
Q 3100 3488 3366 3391 
z
" transform="scale(0.015625)"/>
      <path id="DejaVuSans-Bold-65" d="M 4031 1759 
L 4031 1441 
L 1416 1441 
Q 1456 1047 1700 850 
Q 1944 653 2381 653 
Q 2734 653 3104 758 
Q 3475 863 3866 1075 
L 3866 213 
Q 3469 63 3072 -14 
Q 2675 -91 2278 -91 
Q 1328 -91 801 392 
Q 275 875 275 1747 
Q 275 2603 792 3093 
Q 1309 3584 2216 3584 
Q 3041 3584 3536 3087 
Q 4031 2591 4031 1759 
z
M 2881 2131 
Q 2881 2450 2695 2645 
Q 2509 2841 2209 2841 
Q 1884 2841 1681 2658 
Q 1478 2475 1428 2131 
L 2881 2131 
z
" transform="scale(0.015625)"/>
      <path id="DejaVuSans-Bold-6e" d="M 4056 2131 
L 4056 0 
L 2931 0 
L 2931 347 
L 2931 1631 
Q 2931 2084 2911 2256 
Q 2891 2428 2841 2509 
Q 2775 2619 2662 2680 
Q 2550 2741 2406 2741 
Q 2056 2741 1856 2470 
Q 1656 2200 1656 1722 
L 1656 0 
L 538 0 
L 538 3500 
L 1656 3500 
L 1656 2988 
Q 1909 3294 2193 3439 
Q 2478 3584 2822 3584 
Q 3428 3584 3742 3212 
Q 4056 2841 4056 2131 
z
" transform="scale(0.015625)"/>
      <path id="DejaVuSans-Bold-61" d="M 2106 1575 
Q 1756 1575 1579 1456 
Q 1403 1338 1403 1106 
Q 1403 894 1545 773 
Q 1688 653 1941 653 
Q 2256 653 2472 879 
Q 2688 1106 2688 1447 
L 2688 1575 
L 2106 1575 
z
M 3816 1997 
L 3816 0 
L 2688 0 
L 2688 519 
Q 2463 200 2181 54 
Q 1900 -91 1497 -91 
Q 953 -91 614 226 
Q 275 544 275 1050 
Q 275 1666 698 1953 
Q 1122 2241 2028 2241 
L 2688 2241 
L 2688 2328 
Q 2688 2594 2478 2717 
Q 2269 2841 1825 2841 
Q 1466 2841 1156 2769 
Q 847 2697 581 2553 
L 581 3406 
Q 941 3494 1303 3539 
Q 1666 3584 2028 3584 
Q 2975 3584 3395 3211 
Q 3816 2838 3816 1997 
z
" transform="scale(0.015625)"/>
      <path id="DejaVuSans-Bold-72" d="M 3138 2547 
Q 2991 2616 2845 2648 
Q 2700 2681 2553 2681 
Q 2122 2681 1889 2404 
Q 1656 2128 1656 1613 
L 1656 0 
L 538 0 
L 538 3500 
L 1656 3500 
L 1656 2925 
Q 1872 3269 2151 3426 
Q 2431 3584 2822 3584 
Q 2878 3584 2943 3579 
Q 3009 3575 3134 3559 
L 3138 2547 
z
" transform="scale(0.015625)"/>
      <path id="DejaVuSans-Bold-69" d="M 538 3500 
L 1656 3500 
L 1656 0 
L 538 0 
L 538 3500 
z
M 538 4863 
L 1656 4863 
L 1656 3950 
L 538 3950 
L 538 4863 
z
" transform="scale(0.015625)"/>
      <path id="DejaVuSans-Bold-6f" d="M 2203 2784 
Q 1831 2784 1636 2517 
Q 1441 2250 1441 1747 
Q 1441 1244 1636 976 
Q 1831 709 2203 709 
Q 2569 709 2762 976 
Q 2956 1244 2956 1747 
Q 2956 2250 2762 2517 
Q 2569 2784 2203 2784 
z
M 2203 3584 
Q 3106 3584 3614 3096 
Q 4122 2609 4122 1747 
Q 4122 884 3614 396 
Q 3106 -91 2203 -91 
Q 1297 -91 786 396 
Q 275 884 275 1747 
Q 275 2609 786 3096 
Q 1297 3584 2203 3584 
z
" transform="scale(0.015625)"/>
      <path id="DejaVuSans-Bold-54" d="M 31 4666 
L 4331 4666 
L 4331 3756 
L 2784 3756 
L 2784 0 
L 1581 0 
L 1581 3756 
L 31 3756 
L 31 4666 
z
" transform="scale(0.015625)"/>
      <path id="DejaVuSans-Bold-64" d="M 2919 2988 
L 2919 4863 
L 4044 4863 
L 4044 0 
L 2919 0 
L 2919 506 
Q 2688 197 2409 53 
Q 2131 -91 1766 -91 
Q 1119 -91 703 423 
Q 288 938 288 1747 
Q 288 2556 703 3070 
Q 1119 3584 1766 3584 
Q 2128 3584 2408 3439 
Q 2688 3294 2919 2988 
z
M 2181 722 
Q 2541 722 2730 984 
Q 2919 1247 2919 1747 
Q 2919 2247 2730 2509 
Q 2541 2772 2181 2772 
Q 1825 2772 1636 2509 
Q 1447 2247 1447 1747 
Q 1447 1247 1636 984 
Q 1825 722 2181 722 
z
" transform="scale(0.015625)"/>
      <path id="DejaVuSans-Bold-6c" d="M 538 4863 
L 1656 4863 
L 1656 0 
L 538 0 
L 538 4863 
z
" transform="scale(0.015625)"/>
     </defs>
     <use xlink:href="#DejaVuSans-Bold-45"/>
     <use xlink:href="#DejaVuSans-Bold-73" transform="translate(68.310547 0)"/>
     <use xlink:href="#DejaVuSans-Bold-63" transform="translate(127.832031 0)"/>
     <use xlink:href="#DejaVuSans-Bold-65" transform="translate(187.109375 0)"/>
     <use xlink:href="#DejaVuSans-Bold-6e" transform="translate(254.931641 0)"/>
     <use xlink:href="#DejaVuSans-Bold-61" transform="translate(326.123047 0)"/>
     <use xlink:href="#DejaVuSans-Bold-72" transform="translate(393.603516 0)"/>
     <use xlink:href="#DejaVuSans-Bold-69" transform="translate(442.919922 0)"/>
     <use xlink:href="#DejaVuSans-Bold-6f" transform="translate(477.197266 0)"/>
     <use xlink:href="#DejaVuSans-Bold-20" transform="translate(545.898438 0)"/>
     <use xlink:href="#DejaVuSans-Bold-54" transform="translate(580.712891 0)"/>
     <use xlink:href="#DejaVuSans-Bold-65" transform="translate(635.675781 0)"/>
     <use xlink:href="#DejaVuSans-Bold-6e" transform="translate(703.498047 0)"/>
     <use xlink:href="#DejaVuSans-Bold-64" transform="translate(774.689453 0)"/>
     <use xlink:href="#DejaVuSans-Bold-65" transform="translate(846.271484 0)"/>
     <use xlink:href="#DejaVuSans-Bold-6e" transform="translate(914.09375 0)"/>
     <use xlink:href="#DejaVuSans-Bold-63" transform="translate(985.285156 0)"/>
     <use xlink:href="#DejaVuSans-Bold-69" transform="translate(1044.5625 0)"/>
     <use xlink:href="#DejaVuSans-Bold-61" transform="translate(1078.839844 0)"/>
     <use xlink:href="#DejaVuSans-Bold-6c" transform="translate(1146.320312 0)"/>
     <use xlink:href="#DejaVuSans-Bold-20" transform="translate(1180.597656 0)"/>
    </g>
    <!--  2050 (22226 GWh) -->
    <g transform="translate(259.187639 79.18575) scale(0.24 -0.24)">
     <defs>
      <path id="DejaVuSans-Bold-36" d="M 2316 2303 
Q 2000 2303 1842 2098 
Q 1684 1894 1684 1484 
Q 1684 1075 1842 870 
Q 2000 666 2316 666 
Q 2634 666 2792 870 
Q 2950 1075 2950 1484 
Q 2950 1894 2792 2098 
Q 2634 2303 2316 2303 
z
M 3803 4544 
L 3803 3681 
Q 3506 3822 3243 3889 
Q 2981 3956 2731 3956 
Q 2194 3956 1894 3657 
Q 1594 3359 1544 2772 
Q 1750 2925 1990 3001 
Q 2231 3078 2516 3078 
Q 3231 3078 3670 2659 
Q 4109 2241 4109 1563 
Q 4109 813 3618 361 
Q 3128 -91 2303 -91 
Q 1394 -91 895 523 
Q 397 1138 397 2266 
Q 397 3422 980 4083 
Q 1563 4744 2578 4744 
Q 2900 4744 3203 4694 
Q 3506 4644 3803 4544 
z
" transform="scale(0.015625)"/>
     </defs>
     <use xlink:href="#DejaVuSans-Bold-20"/>
     <use xlink:href="#DejaVuSans-Bold-32" transform="translate(34.814453 0)"/>
     <use xlink:href="#DejaVuSans-Bold-30" transform="translate(104.394531 0)"/>
     <use xlink:href="#DejaVuSans-Bold-35" transform="translate(173.974609 0)"/>
     <use xlink:href="#DejaVuSans-Bold-30" transform="translate(243.554688 0)"/>
     <use xlink:href="#DejaVuSans-Bold-20" transform="translate(313.134766 0)"/>
     <use xlink:href="#DejaVuSans-Bold-28" transform="translate(347.949219 0)"/>
     <use xlink:href="#DejaVuSans-Bold-32" transform="translate(393.652344 0)"/>
     <use xlink:href="#DejaVuSans-Bold-32" transform="translate(463.232422 0)"/>
     <use xlink:href="#DejaVuSans-Bold-32" transform="translate(532.8125 0)"/>
     <use xlink:href="#DejaVuSans-Bold-32" transform="translate(602.392578 0)"/>
     <use xlink:href="#DejaVuSans-Bold-36" transform="translate(671.972656 0)"/>
     <use xlink:href="#DejaVuSans-Bold-20" transform="translate(741.552734 0)"/>
     <use xlink:href="#DejaVuSans-Bold-47" transform="translate(776.367188 0)"/>
     <use xlink:href="#DejaVuSans-Bold-57" transform="translate(858.447266 0)"/>
     <use xlink:href="#DejaVuSans-Bold-68" transform="translate(968.75 0)"/>
     <use xlink:href="#DejaVuSans-Bold-29" transform="translate(1039.941406 0)"/>
    </g>
   </g>
  </g>
  <g id="axes_3">
   <g id="patch_12">
    <path d="M 679.891374 80.300724 
C 661.038771 80.300724 642.420541 84.498253 625.391749 92.587807 
C 608.362958 100.677362 593.347004 112.457805 581.436773 127.071738 
C 569.526542 141.685671 561.018167 158.769736 556.530902 177.080528 
C 552.043636 195.391319 551.68905 214.473562 555.492951 232.93842 
C 559.296852 251.403278 567.164661 268.791645 578.523746 283.837968 
C 589.88283 298.884291 604.450761 311.214462 621.167261 319.93107 
C 637.883761 328.647679 656.333195 333.533999 675.172783 334.234394 
C 694.012371 334.93479 712.773691 331.431847 730.091263 323.980516 
L 692.24827 236.029951 
C 687.985483 237.864125 683.367312 238.726388 678.729874 238.553983 
C 674.092437 238.381578 669.551038 237.178791 665.436208 235.033165 
C 661.321377 232.887538 657.735425 229.852419 654.939342 226.148709 
C 652.14326 222.444998 650.206568 218.164785 649.270224 213.619589 
C 648.333879 209.074393 648.421161 204.377226 649.525719 199.869954 
C 650.630277 195.362682 652.724646 191.157374 655.656395 187.560098 
C 658.588144 183.962822 662.284379 181.063021 666.476082 179.071746 
C 670.667784 177.080471 675.250733 176.047233 679.891374 176.047233 
z
" style="fill: #a1140b; stroke: #ffffff; stroke-linejoin: miter"/>
   </g>
   <g id="patch_13">
    <path d="M 730.091245 323.980525 
C 735.206869 321.779393 740.172194 319.244193 744.955053 316.391324 
C 749.737912 313.538454 754.327953 310.374107 758.695468 306.91876 
L 699.289305 231.830134 
C 698.214224 232.680681 697.084368 233.459598 695.907049 234.161842 
C 694.72973 234.864087 693.507496 235.488136 692.248265 236.029953 
z
" style="fill: #fbaa1b; stroke: #ffffff; stroke-linejoin: miter"/>
   </g>
   <g id="patch_14">
    <path d="M 758.695468 306.91876 
C 765.117937 301.837641 771.033976 296.147224 776.36086 289.927074 
C 781.687745 283.706925 786.400548 276.986158 790.433465 269.858639 
L 707.101735 222.707643 
C 706.109017 224.462109 704.948942 226.116452 703.637709 227.647566 
C 702.326476 229.178679 700.87022 230.579397 699.289305 231.830134 
z
" style="fill: #8fc73e; stroke: #ffffff; stroke-linejoin: miter"/>
   </g>
   <g id="patch_15">
    <path d="M 790.433465 269.858639 
C 798.703861 255.242054 803.993681 239.129189 805.996043 222.454819 
C 807.998398 205.78045 806.673839 188.873346 802.099182 172.714245 
C 797.524524 156.555144 789.789994 141.462712 779.344237 128.312412 
C 768.898479 115.162113 755.947456 104.213255 741.242505 96.101014 
L 694.993191 179.936535 
C 698.612871 181.933395 701.800815 184.628498 704.372078 187.865495 
C 706.943342 191.102492 708.847226 194.817552 709.973296 198.795177 
C 711.099365 202.772802 711.425411 206.93455 710.932523 211.039011 
C 710.439634 215.143471 709.137524 219.109714 707.101735 222.707643 
z
" style="fill: #207653; stroke: #ffffff; stroke-linejoin: miter"/>
   </g>
   <g id="patch_16">
    <path d="M 741.242505 96.101014 
C 731.886219 90.939459 721.915873 86.97921 711.567945 84.314216 
C 701.220016 81.649221 690.57698 80.300724 679.891391 80.300724 
L 679.891378 176.047233 
C 682.521677 176.047233 685.141501 176.379171 687.688683 177.03517 
C 690.235866 177.691168 692.690105 178.665999 694.993191 179.936535 
z
" style="fill: url(#h4b35ad4c29); stroke: #ffffff; stroke-linejoin: miter"/>
   </g>
   <g id="matplotlib.axis_5"/>
   <g id="matplotlib.axis_6"/>
   <g id="text_13">
    <!-- 56.5% -->
    <g transform="translate(579.838574 227.10263) scale(0.16 -0.16)">
     <use xlink:href="#DejaVuSans-35"/>
     <use xlink:href="#DejaVuSans-36" transform="translate(63.623047 0)"/>
     <use xlink:href="#DejaVuSans-2e" transform="translate(127.246094 0)"/>
     <use xlink:href="#DejaVuSans-35" transform="translate(159.033203 0)"/>
     <use xlink:href="#DejaVuSans-25" transform="translate(222.65625 0)"/>
    </g>
   </g>
   <g id="text_14">
    <!-- 4.2% -->
    <g transform="translate(698.60583 277.174353) scale(0.16 -0.16)">
     <use xlink:href="#DejaVuSans-34"/>
     <use xlink:href="#DejaVuSans-2e" transform="translate(63.623047 0)"/>
     <use xlink:href="#DejaVuSans-32" transform="translate(95.410156 0)"/>
     <use xlink:href="#DejaVuSans-25" transform="translate(159.033203 0)"/>
    </g>
   </g>
   <g id="text_15">
    <!-- 6.2% -->
    <g transform="translate(717.449316 261.295804) scale(0.16 -0.16)">
     <use xlink:href="#DejaVuSans-36"/>
     <use xlink:href="#DejaVuSans-2e" transform="translate(63.623047 0)"/>
     <use xlink:href="#DejaVuSans-32" transform="translate(95.410156 0)"/>
     <use xlink:href="#DejaVuSans-25" transform="translate(159.033203 0)"/>
    </g>
   </g>
   <g id="text_16">
    <!-- 25.2% -->
    <g transform="translate(727.802299 190.968072) scale(0.16 -0.16)">
     <use xlink:href="#DejaVuSans-32"/>
     <use xlink:href="#DejaVuSans-35" transform="translate(63.623047 0)"/>
     <use xlink:href="#DejaVuSans-2e" transform="translate(127.246094 0)"/>
     <use xlink:href="#DejaVuSans-32" transform="translate(159.033203 0)"/>
     <use xlink:href="#DejaVuSans-25" transform="translate(222.65625 0)"/>
    </g>
   </g>
   <g id="text_17">
    <!-- 8.0% -->
    <g transform="translate(678.573531 137.928082) scale(0.16 -0.16)">
     <use xlink:href="#DejaVuSans-38"/>
     <use xlink:href="#DejaVuSans-2e" transform="translate(63.623047 0)"/>
     <use xlink:href="#DejaVuSans-30" transform="translate(95.410156 0)"/>
     <use xlink:href="#DejaVuSans-25" transform="translate(159.033203 0)"/>
    </g>
   </g>
   <g id="text_18">
    <!-- Escenario Tendencial  -->
    <g transform="translate(534.038874 25.43625) scale(0.24 -0.24)">
     <use xlink:href="#DejaVuSans-Bold-45"/>
     <use xlink:href="#DejaVuSans-Bold-73" transform="translate(68.310547 0)"/>
     <use xlink:href="#DejaVuSans-Bold-63" transform="translate(127.832031 0)"/>
     <use xlink:href="#DejaVuSans-Bold-65" transform="translate(187.109375 0)"/>
     <use xlink:href="#DejaVuSans-Bold-6e" transform="translate(254.931641 0)"/>
     <use xlink:href="#DejaVuSans-Bold-61" transform="translate(326.123047 0)"/>
     <use xlink:href="#DejaVuSans-Bold-72" transform="translate(393.603516 0)"/>
     <use xlink:href="#DejaVuSans-Bold-69" transform="translate(442.919922 0)"/>
     <use xlink:href="#DejaVuSans-Bold-6f" transform="translate(477.197266 0)"/>
     <use xlink:href="#DejaVuSans-Bold-20" transform="translate(545.898438 0)"/>
     <use xlink:href="#DejaVuSans-Bold-54" transform="translate(580.712891 0)"/>
     <use xlink:href="#DejaVuSans-Bold-65" transform="translate(635.675781 0)"/>
     <use xlink:href="#DejaVuSans-Bold-6e" transform="translate(703.498047 0)"/>
     <use xlink:href="#DejaVuSans-Bold-64" transform="translate(774.689453 0)"/>
     <use xlink:href="#DejaVuSans-Bold-65" transform="translate(846.271484 0)"/>
     <use xlink:href="#DejaVuSans-Bold-6e" transform="translate(914.09375 0)"/>
     <use xlink:href="#DejaVuSans-Bold-63" transform="translate(985.285156 0)"/>
     <use xlink:href="#DejaVuSans-Bold-69" transform="translate(1044.5625 0)"/>
     <use xlink:href="#DejaVuSans-Bold-61" transform="translate(1078.839844 0)"/>
     <use xlink:href="#DejaVuSans-Bold-6c" transform="translate(1146.320312 0)"/>
     <use xlink:href="#DejaVuSans-Bold-20" transform="translate(1180.597656 0)"/>
    </g>
    <!--  +Distribuida  -->
    <g transform="translate(586.563249 52.311) scale(0.24 -0.24)">
     <defs>
      <path id="DejaVuSans-Bold-2b" d="M 3053 4013 
L 3053 2375 
L 4684 2375 
L 4684 1638 
L 3053 1638 
L 3053 0 
L 2309 0 
L 2309 1638 
L 678 1638 
L 678 2375 
L 2309 2375 
L 2309 4013 
L 3053 4013 
z
" transform="scale(0.015625)"/>
      <path id="DejaVuSans-Bold-44" d="M 1791 3756 
L 1791 909 
L 2222 909 
Q 2959 909 3348 1275 
Q 3738 1641 3738 2338 
Q 3738 3031 3350 3393 
Q 2963 3756 2222 3756 
L 1791 3756 
z
M 588 4666 
L 1856 4666 
Q 2919 4666 3439 4514 
Q 3959 4363 4331 4000 
Q 4659 3684 4818 3271 
Q 4978 2859 4978 2338 
Q 4978 1809 4818 1395 
Q 4659 981 4331 666 
Q 3956 303 3431 151 
Q 2906 0 1856 0 
L 588 0 
L 588 4666 
z
" transform="scale(0.015625)"/>
      <path id="DejaVuSans-Bold-74" d="M 1759 4494 
L 1759 3500 
L 2913 3500 
L 2913 2700 
L 1759 2700 
L 1759 1216 
Q 1759 972 1856 886 
Q 1953 800 2241 800 
L 2816 800 
L 2816 0 
L 1856 0 
Q 1194 0 917 276 
Q 641 553 641 1216 
L 641 2700 
L 84 2700 
L 84 3500 
L 641 3500 
L 641 4494 
L 1759 4494 
z
" transform="scale(0.015625)"/>
      <path id="DejaVuSans-Bold-62" d="M 2400 722 
Q 2759 722 2948 984 
Q 3138 1247 3138 1747 
Q 3138 2247 2948 2509 
Q 2759 2772 2400 2772 
Q 2041 2772 1848 2508 
Q 1656 2244 1656 1747 
Q 1656 1250 1848 986 
Q 2041 722 2400 722 
z
M 1656 2988 
Q 1888 3294 2169 3439 
Q 2450 3584 2816 3584 
Q 3463 3584 3878 3070 
Q 4294 2556 4294 1747 
Q 4294 938 3878 423 
Q 3463 -91 2816 -91 
Q 2450 -91 2169 54 
Q 1888 200 1656 506 
L 1656 0 
L 538 0 
L 538 4863 
L 1656 4863 
L 1656 2988 
z
" transform="scale(0.015625)"/>
      <path id="DejaVuSans-Bold-75" d="M 500 1363 
L 500 3500 
L 1625 3500 
L 1625 3150 
Q 1625 2866 1622 2436 
Q 1619 2006 1619 1863 
Q 1619 1441 1641 1255 
Q 1663 1069 1716 984 
Q 1784 875 1895 815 
Q 2006 756 2150 756 
Q 2500 756 2700 1025 
Q 2900 1294 2900 1772 
L 2900 3500 
L 4019 3500 
L 4019 0 
L 2900 0 
L 2900 506 
Q 2647 200 2364 54 
Q 2081 -91 1741 -91 
Q 1134 -91 817 281 
Q 500 653 500 1363 
z
" transform="scale(0.015625)"/>
     </defs>
     <use xlink:href="#DejaVuSans-Bold-20"/>
     <use xlink:href="#DejaVuSans-Bold-2b" transform="translate(34.814453 0)"/>
     <use xlink:href="#DejaVuSans-Bold-44" transform="translate(118.603516 0)"/>
     <use xlink:href="#DejaVuSans-Bold-69" transform="translate(201.611328 0)"/>
     <use xlink:href="#DejaVuSans-Bold-73" transform="translate(235.888672 0)"/>
     <use xlink:href="#DejaVuSans-Bold-74" transform="translate(295.410156 0)"/>
     <use xlink:href="#DejaVuSans-Bold-72" transform="translate(343.212891 0)"/>
     <use xlink:href="#DejaVuSans-Bold-69" transform="translate(392.529297 0)"/>
     <use xlink:href="#DejaVuSans-Bold-62" transform="translate(426.806641 0)"/>
     <use xlink:href="#DejaVuSans-Bold-75" transform="translate(498.388672 0)"/>
     <use xlink:href="#DejaVuSans-Bold-69" transform="translate(569.580078 0)"/>
     <use xlink:href="#DejaVuSans-Bold-64" transform="translate(603.857422 0)"/>
     <use xlink:href="#DejaVuSans-Bold-61" transform="translate(675.439453 0)"/>
     <use xlink:href="#DejaVuSans-Bold-20" transform="translate(742.919922 0)"/>
    </g>
    <!--  2050 (22098 GWh) -->
    <g transform="translate(549.618249 79.18575) scale(0.24 -0.24)">
     <defs>
      <path id="DejaVuSans-Bold-38" d="M 2228 2088 
Q 1891 2088 1709 1903 
Q 1528 1719 1528 1375 
Q 1528 1031 1709 848 
Q 1891 666 2228 666 
Q 2563 666 2741 848 
Q 2919 1031 2919 1375 
Q 2919 1722 2741 1905 
Q 2563 2088 2228 2088 
z
M 1350 2484 
Q 925 2613 709 2878 
Q 494 3144 494 3541 
Q 494 4131 934 4440 
Q 1375 4750 2228 4750 
Q 3075 4750 3515 4442 
Q 3956 4134 3956 3541 
Q 3956 3144 3739 2878 
Q 3522 2613 3097 2484 
Q 3572 2353 3814 2058 
Q 4056 1763 4056 1313 
Q 4056 619 3595 264 
Q 3134 -91 2228 -91 
Q 1319 -91 855 264 
Q 391 619 391 1313 
Q 391 1763 633 2058 
Q 875 2353 1350 2484 
z
M 1631 3419 
Q 1631 3141 1786 2991 
Q 1941 2841 2228 2841 
Q 2509 2841 2662 2991 
Q 2816 3141 2816 3419 
Q 2816 3697 2662 3845 
Q 2509 3994 2228 3994 
Q 1941 3994 1786 3844 
Q 1631 3694 1631 3419 
z
" transform="scale(0.015625)"/>
     </defs>
     <use xlink:href="#DejaVuSans-Bold-20"/>
     <use xlink:href="#DejaVuSans-Bold-32" transform="translate(34.814453 0)"/>
     <use xlink:href="#DejaVuSans-Bold-30" transform="translate(104.394531 0)"/>
     <use xlink:href="#DejaVuSans-Bold-35" transform="translate(173.974609 0)"/>
     <use xlink:href="#DejaVuSans-Bold-30" transform="translate(243.554688 0)"/>
     <use xlink:href="#DejaVuSans-Bold-20" transform="translate(313.134766 0)"/>
     <use xlink:href="#DejaVuSans-Bold-28" transform="translate(347.949219 0)"/>
     <use xlink:href="#DejaVuSans-Bold-32" transform="translate(393.652344 0)"/>
     <use xlink:href="#DejaVuSans-Bold-32" transform="translate(463.232422 0)"/>
     <use xlink:href="#DejaVuSans-Bold-30" transform="translate(532.8125 0)"/>
     <use xlink:href="#DejaVuSans-Bold-39" transform="translate(602.392578 0)"/>
     <use xlink:href="#DejaVuSans-Bold-38" transform="translate(671.972656 0)"/>
     <use xlink:href="#DejaVuSans-Bold-20" transform="translate(741.552734 0)"/>
     <use xlink:href="#DejaVuSans-Bold-47" transform="translate(776.367188 0)"/>
     <use xlink:href="#DejaVuSans-Bold-57" transform="translate(858.447266 0)"/>
     <use xlink:href="#DejaVuSans-Bold-68" transform="translate(968.75 0)"/>
     <use xlink:href="#DejaVuSans-Bold-29" transform="translate(1039.941406 0)"/>
    </g>
   </g>
  </g>
  <g id="axes_4">
   <g id="patch_17">
    <path d="M 971.200585 79.386978 
C 952.304505 79.386978 933.641057 83.573769 916.555721 91.645517 
C 899.470384 99.717265 884.383839 111.475226 872.383699 126.071749 
C 860.38356 140.668272 851.765296 157.743958 847.150214 176.067791 
C 842.535132 194.391624 842.036865 213.51243 845.691333 232.051758 
L 940.306 213.401334 
C 939.406438 208.837807 939.529089 204.131147 940.665109 199.620665 
C 941.801129 195.110183 943.922548 190.906937 946.876428 187.313947 
C 949.830309 183.720957 953.54392 180.826689 957.749541 178.839798 
C 961.955163 176.852906 966.549242 175.822311 971.200585 175.822311 
z
" style="fill: #a1140b; stroke: #ffffff; stroke-linejoin: miter"/>
   </g>
   <g id="patch_18">
    <path d="M 845.691332 232.051746 
C 849.723191 252.5056 858.694529 271.667146 871.821715 287.86261 
C 884.9489 304.058074 901.838237 316.801758 921.014396 324.980443 
L 958.847061 236.276087 
C 954.126776 234.262872 949.969401 231.125966 946.738094 227.13939 
C 943.506787 223.152814 941.298457 218.436126 940.306 213.401331 
z
" style="fill: #fbaa1b; stroke: #ffffff; stroke-linejoin: miter"/>
   </g>
   <g id="patch_19">
    <path d="M 921.014396 324.980443 
C 938.698597 332.522809 957.857727 335.982465 977.062987 335.101425 
C 996.268247 334.220376 1015.030083 329.021094 1031.94945 319.891295 
L 986.154152 235.023374 
C 981.989384 237.270709 977.371086 238.550532 972.643638 238.767406 
C 967.916189 238.984277 963.200095 238.132669 958.847061 236.276087 
z
" style="fill: #8fc73e; stroke: #ffffff; stroke-linejoin: miter"/>
   </g>
   <g id="patch_20">
    <path d="M 1031.94945 319.891295 
C 1056.526311 306.629454 1076.097138 285.677652 1087.65503 260.254951 
C 1099.212921 234.832251 1102.133986 206.310921 1095.969407 179.073143 
C 1089.804829 151.835363 1074.88738 127.351377 1053.50902 109.382959 
C 1032.130659 91.41454 1005.44539 80.931613 977.553182 79.544806 
L 972.764301 175.861161 
C 979.630075 176.202529 986.198757 178.782942 991.461123 183.205937 
C 996.723488 187.628932 1000.395476 193.65576 1001.91291 200.360444 
C 1003.430345 207.065128 1002.711314 214.085763 999.866294 220.343658 
C 997.021275 226.601554 992.20384 231.758921 986.154152 235.023374 
z
" style="fill: #207653; stroke: #ffffff; stroke-linejoin: miter"/>
   </g>
   <g id="patch_21">
    <path d="M 977.553182 79.544806 
C 976.495276 79.492209 975.436789 79.45275 974.377903 79.426445 
C 973.319017 79.400139 972.259815 79.386978 971.200603 79.386978 
L 971.200589 175.822311 
C 971.461318 175.822311 971.722045 175.825551 971.982694 175.832026 
C 972.243343 175.838501 972.503893 175.848214 972.764301 175.861161 
z
" style="fill: url(#h4b35ad4c29); stroke: #ffffff; stroke-linejoin: miter"/>
   </g>
   <g id="matplotlib.axis_7"/>
   <g id="matplotlib.axis_8"/>
   <g id="text_19">
    <!-- 28.1% -->
    <g transform="translate(886.496696 162.982618) scale(0.16 -0.16)">
     <defs>
      <path id="DejaVuSans-31" d="M 794 531 
L 1825 531 
L 1825 4091 
L 703 3866 
L 703 4441 
L 1819 4666 
L 2450 4666 
L 2450 531 
L 3481 531 
L 3481 0 
L 794 0 
L 794 531 
z
" transform="scale(0.015625)"/>
     </defs>
     <use xlink:href="#DejaVuSans-32"/>
     <use xlink:href="#DejaVuSans-38" transform="translate(63.623047 0)"/>
     <use xlink:href="#DejaVuSans-2e" transform="translate(127.246094 0)"/>
     <use xlink:href="#DejaVuSans-31" transform="translate(159.033203 0)"/>
     <use xlink:href="#DejaVuSans-25" transform="translate(222.65625 0)"/>
    </g>
   </g>
   <g id="text_20">
    <!-- 15.5% -->
    <g transform="translate(886.159536 260.057156) scale(0.16 -0.16)">
     <use xlink:href="#DejaVuSans-31"/>
     <use xlink:href="#DejaVuSans-35" transform="translate(63.623047 0)"/>
     <use xlink:href="#DejaVuSans-2e" transform="translate(127.246094 0)"/>
     <use xlink:href="#DejaVuSans-35" transform="translate(159.033203 0)"/>
     <use xlink:href="#DejaVuSans-25" transform="translate(222.65625 0)"/>
    </g>
   </g>
   <g id="text_21">
    <!-- 14.3% -->
    <g transform="translate(949.304277 288.400413) scale(0.16 -0.16)">
     <use xlink:href="#DejaVuSans-31"/>
     <use xlink:href="#DejaVuSans-34" transform="translate(63.623047 0)"/>
     <use xlink:href="#DejaVuSans-2e" transform="translate(127.246094 0)"/>
     <use xlink:href="#DejaVuSans-33" transform="translate(159.033203 0)"/>
     <use xlink:href="#DejaVuSans-25" transform="translate(222.65625 0)"/>
    </g>
   </g>
   <g id="text_22">
    <!-- 41.3% -->
    <g transform="translate(1020.648127 194.783445) scale(0.16 -0.16)">
     <use xlink:href="#DejaVuSans-34"/>
     <use xlink:href="#DejaVuSans-31" transform="translate(63.623047 0)"/>
     <use xlink:href="#DejaVuSans-2e" transform="translate(127.246094 0)"/>
     <use xlink:href="#DejaVuSans-33" transform="translate(159.033203 0)"/>
     <use xlink:href="#DejaVuSans-25" transform="translate(222.65625 0)"/>
    </g>
   </g>
   <g id="text_23">
    <!-- 0.8% -->
    <g transform="translate(952.783189 134.995424) scale(0.16 -0.16)">
     <use xlink:href="#DejaVuSans-30"/>
     <use xlink:href="#DejaVuSans-2e" transform="translate(63.623047 0)"/>
     <use xlink:href="#DejaVuSans-38" transform="translate(95.410156 0)"/>
     <use xlink:href="#DejaVuSans-25" transform="translate(159.033203 0)"/>
    </g>
   </g>
   <g id="text_24">
    <!-- Escenario Alternativo  -->
    <g transform="translate(821.586835 51.432398) scale(0.24 -0.24)">
     <defs>
      <path id="DejaVuSans-Bold-41" d="M 3419 850 
L 1538 850 
L 1241 0 
L 31 0 
L 1759 4666 
L 3194 4666 
L 4922 0 
L 3713 0 
L 3419 850 
z
M 1838 1716 
L 3116 1716 
L 2478 3572 
L 1838 1716 
z
" transform="scale(0.015625)"/>
      <path id="DejaVuSans-Bold-76" d="M 97 3500 
L 1216 3500 
L 2088 1081 
L 2956 3500 
L 4078 3500 
L 2700 0 
L 1472 0 
L 97 3500 
z
" transform="scale(0.015625)"/>
     </defs>
     <use xlink:href="#DejaVuSans-Bold-45"/>
     <use xlink:href="#DejaVuSans-Bold-73" transform="translate(68.310547 0)"/>
     <use xlink:href="#DejaVuSans-Bold-63" transform="translate(127.832031 0)"/>
     <use xlink:href="#DejaVuSans-Bold-65" transform="translate(187.109375 0)"/>
     <use xlink:href="#DejaVuSans-Bold-6e" transform="translate(254.931641 0)"/>
     <use xlink:href="#DejaVuSans-Bold-61" transform="translate(326.123047 0)"/>
     <use xlink:href="#DejaVuSans-Bold-72" transform="translate(393.603516 0)"/>
     <use xlink:href="#DejaVuSans-Bold-69" transform="translate(442.919922 0)"/>
     <use xlink:href="#DejaVuSans-Bold-6f" transform="translate(477.197266 0)"/>
     <use xlink:href="#DejaVuSans-Bold-20" transform="translate(545.898438 0)"/>
     <use xlink:href="#DejaVuSans-Bold-41" transform="translate(580.712891 0)"/>
     <use xlink:href="#DejaVuSans-Bold-6c" transform="translate(658.105469 0)"/>
     <use xlink:href="#DejaVuSans-Bold-74" transform="translate(692.382812 0)"/>
     <use xlink:href="#DejaVuSans-Bold-65" transform="translate(740.185547 0)"/>
     <use xlink:href="#DejaVuSans-Bold-72" transform="translate(808.007812 0)"/>
     <use xlink:href="#DejaVuSans-Bold-6e" transform="translate(857.324219 0)"/>
     <use xlink:href="#DejaVuSans-Bold-61" transform="translate(928.515625 0)"/>
     <use xlink:href="#DejaVuSans-Bold-74" transform="translate(995.996094 0)"/>
     <use xlink:href="#DejaVuSans-Bold-69" transform="translate(1043.798828 0)"/>
     <use xlink:href="#DejaVuSans-Bold-76" transform="translate(1078.076172 0)"/>
     <use xlink:href="#DejaVuSans-Bold-6f" transform="translate(1143.261719 0)"/>
     <use xlink:href="#DejaVuSans-Bold-20" transform="translate(1211.962891 0)"/>
    </g>
    <!--  2050 (22380 GWh) -->
    <g transform="translate(840.92746 78.307148) scale(0.24 -0.24)">
     <use xlink:href="#DejaVuSans-Bold-20"/>
     <use xlink:href="#DejaVuSans-Bold-32" transform="translate(34.814453 0)"/>
     <use xlink:href="#DejaVuSans-Bold-30" transform="translate(104.394531 0)"/>
     <use xlink:href="#DejaVuSans-Bold-35" transform="translate(173.974609 0)"/>
     <use xlink:href="#DejaVuSans-Bold-30" transform="translate(243.554688 0)"/>
     <use xlink:href="#DejaVuSans-Bold-20" transform="translate(313.134766 0)"/>
     <use xlink:href="#DejaVuSans-Bold-28" transform="translate(347.949219 0)"/>
     <use xlink:href="#DejaVuSans-Bold-32" transform="translate(393.652344 0)"/>
     <use xlink:href="#DejaVuSans-Bold-32" transform="translate(463.232422 0)"/>
     <use xlink:href="#DejaVuSans-Bold-33" transform="translate(532.8125 0)"/>
     <use xlink:href="#DejaVuSans-Bold-38" transform="translate(602.392578 0)"/>
     <use xlink:href="#DejaVuSans-Bold-30" transform="translate(671.972656 0)"/>
     <use xlink:href="#DejaVuSans-Bold-20" transform="translate(741.552734 0)"/>
     <use xlink:href="#DejaVuSans-Bold-47" transform="translate(776.367188 0)"/>
     <use xlink:href="#DejaVuSans-Bold-57" transform="translate(858.447266 0)"/>
     <use xlink:href="#DejaVuSans-Bold-68" transform="translate(968.75 0)"/>
     <use xlink:href="#DejaVuSans-Bold-29" transform="translate(1039.941406 0)"/>
    </g>
   </g>
  </g>
  <g id="axes_5">
   <g id="patch_22">
    <path d="M 1262.509796 80.300724 
C 1244.836237 80.300724 1227.355698 83.989642 1211.189162 91.130918 
C 1195.022627 98.272194 1180.523217 108.709841 1168.620745 121.77452 
C 1156.718272 134.839199 1147.67272 150.24554 1142.064157 167.005573 
C 1136.455593 183.765606 1134.406526 201.513246 1136.048356 219.110378 
L 1231.380826 210.215763 
C 1230.976683 205.884162 1231.481069 201.515512 1232.861639 197.389965 
C 1234.242208 193.264419 1236.468805 189.472089 1239.398645 186.256168 
C 1242.328484 183.040247 1245.89757 180.47098 1249.877025 178.713127 
C 1253.85648 176.955275 1258.159381 176.047233 1262.509796 176.047233 
z
" style="fill: #a1140b; stroke: #ffffff; stroke-linejoin: miter"/>
   </g>
   <g id="patch_23">
    <path d="M 1136.048355 219.110386 
C 1137.820039 238.09932 1143.846136 256.447607 1153.678038 272.78934 
C 1163.50994 289.131074 1176.897459 303.050416 1192.843979 313.511147 
L 1245.361287 233.452876 
C 1241.43599 230.877927 1238.140601 227.451627 1235.72044 223.429047 
C 1233.30028 219.406466 1231.816933 214.889964 1231.380826 210.215765 
z
" style="fill: #fbaa1b; stroke: #ffffff; stroke-linejoin: miter"/>
   </g>
   <g id="patch_24">
    <path d="M 1192.843979 313.511147 
C 1207.638635 323.216275 1224.299368 329.723594 1241.755365 332.614891 
C 1259.211361 335.50618 1277.080442 334.718145 1294.214149 330.301422 
L 1270.313944 237.585866 
C 1266.096417 238.67306 1261.697874 238.867038 1257.401013 238.155336 
C 1253.104152 237.443632 1249.003049 235.84183 1245.361287 233.452876 
z
" style="fill: #8fc73e; stroke: #ffffff; stroke-linejoin: miter"/>
   </g>
   <g id="patch_25">
    <path d="M 1294.214149 330.301422 
C 1318.87034 323.945549 1341.054679 310.319834 1357.872524 291.202177 
C 1374.69037 272.084519 1385.376996 248.344169 1388.537959 223.078916 
C 1391.698922 197.813661 1387.190514 172.172305 1375.600994 149.500563 
C 1364.011474 126.828821 1345.86785 108.157621 1323.537511 95.923207 
L 1277.532003 179.892767 
C 1283.028702 182.904316 1287.494824 187.500303 1290.347629 193.08104 
C 1293.200434 198.661776 1294.310196 204.973495 1293.532113 211.192634 
C 1292.75403 217.411774 1290.123476 223.255552 1285.983698 227.961437 
C 1281.843921 232.667322 1276.383161 236.021344 1270.313944 237.585866 
z
" style="fill: #207653; stroke: #ffffff; stroke-linejoin: miter"/>
   </g>
   <g id="patch_26">
    <path d="M 1323.537511 95.923207 
C 1314.220421 90.818529 1304.299537 86.902946 1294.007571 84.268309 
C 1283.715604 81.633672 1273.13365 80.300724 1262.509814 80.300724 
L 1262.5098 176.047233 
C 1265.124898 176.047233 1267.729687 176.375343 1270.263094 177.023869 
C 1272.796501 177.672395 1275.238565 178.636231 1277.532003 179.892767 
z
" style="fill: url(#h4b35ad4c29); stroke: #ffffff; stroke-linejoin: miter"/>
   </g>
   <g id="matplotlib.axis_9"/>
   <g id="matplotlib.axis_10"/>
   <g id="text_25">
    <!-- 26.5% -->
    <g transform="translate(1180.762609 160.404278) scale(0.16 -0.16)">
     <use xlink:href="#DejaVuSans-32"/>
     <use xlink:href="#DejaVuSans-36" transform="translate(63.623047 0)"/>
     <use xlink:href="#DejaVuSans-2e" transform="translate(127.246094 0)"/>
     <use xlink:href="#DejaVuSans-35" transform="translate(159.033203 0)"/>
     <use xlink:href="#DejaVuSans-25" transform="translate(222.65625 0)"/>
    </g>
   </g>
   <g id="text_26">
    <!-- 14.3% -->
    <g transform="translate(1171.796994 251.013166) scale(0.16 -0.16)">
     <use xlink:href="#DejaVuSans-31"/>
     <use xlink:href="#DejaVuSans-34" transform="translate(63.623047 0)"/>
     <use xlink:href="#DejaVuSans-2e" transform="translate(127.246094 0)"/>
     <use xlink:href="#DejaVuSans-33" transform="translate(159.033203 0)"/>
     <use xlink:href="#DejaVuSans-25" transform="translate(222.65625 0)"/>
    </g>
   </g>
   <g id="text_27">
    <!-- 13.3% -->
    <g transform="translate(1224.643387 286.908495) scale(0.16 -0.16)">
     <use xlink:href="#DejaVuSans-31"/>
     <use xlink:href="#DejaVuSans-33" transform="translate(63.623047 0)"/>
     <use xlink:href="#DejaVuSans-2e" transform="translate(127.246094 0)"/>
     <use xlink:href="#DejaVuSans-33" transform="translate(159.033203 0)"/>
     <use xlink:href="#DejaVuSans-25" transform="translate(222.65625 0)"/>
    </g>
   </g>
   <g id="text_28">
    <!-- 38.0% -->
    <g transform="translate(1312.712942 221.186909) scale(0.16 -0.16)">
     <use xlink:href="#DejaVuSans-33"/>
     <use xlink:href="#DejaVuSans-38" transform="translate(63.623047 0)"/>
     <use xlink:href="#DejaVuSans-2e" transform="translate(127.246094 0)"/>
     <use xlink:href="#DejaVuSans-30" transform="translate(159.033203 0)"/>
     <use xlink:href="#DejaVuSans-25" transform="translate(222.65625 0)"/>
    </g>
   </g>
   <g id="text_29">
    <!-- 8.0% -->
    <g transform="translate(1261.08471 137.900546) scale(0.16 -0.16)">
     <use xlink:href="#DejaVuSans-38"/>
     <use xlink:href="#DejaVuSans-2e" transform="translate(63.623047 0)"/>
     <use xlink:href="#DejaVuSans-30" transform="translate(95.410156 0)"/>
     <use xlink:href="#DejaVuSans-25" transform="translate(159.033203 0)"/>
    </g>
   </g>
   <g id="text_30">
    <!-- Escenario Alternativo  -->
    <g transform="translate(1112.896046 25.43625) scale(0.24 -0.24)">
     <use xlink:href="#DejaVuSans-Bold-45"/>
     <use xlink:href="#DejaVuSans-Bold-73" transform="translate(68.310547 0)"/>
     <use xlink:href="#DejaVuSans-Bold-63" transform="translate(127.832031 0)"/>
     <use xlink:href="#DejaVuSans-Bold-65" transform="translate(187.109375 0)"/>
     <use xlink:href="#DejaVuSans-Bold-6e" transform="translate(254.931641 0)"/>
     <use xlink:href="#DejaVuSans-Bold-61" transform="translate(326.123047 0)"/>
     <use xlink:href="#DejaVuSans-Bold-72" transform="translate(393.603516 0)"/>
     <use xlink:href="#DejaVuSans-Bold-69" transform="translate(442.919922 0)"/>
     <use xlink:href="#DejaVuSans-Bold-6f" transform="translate(477.197266 0)"/>
     <use xlink:href="#DejaVuSans-Bold-20" transform="translate(545.898438 0)"/>
     <use xlink:href="#DejaVuSans-Bold-41" transform="translate(580.712891 0)"/>
     <use xlink:href="#DejaVuSans-Bold-6c" transform="translate(658.105469 0)"/>
     <use xlink:href="#DejaVuSans-Bold-74" transform="translate(692.382812 0)"/>
     <use xlink:href="#DejaVuSans-Bold-65" transform="translate(740.185547 0)"/>
     <use xlink:href="#DejaVuSans-Bold-72" transform="translate(808.007812 0)"/>
     <use xlink:href="#DejaVuSans-Bold-6e" transform="translate(857.324219 0)"/>
     <use xlink:href="#DejaVuSans-Bold-61" transform="translate(928.515625 0)"/>
     <use xlink:href="#DejaVuSans-Bold-74" transform="translate(995.996094 0)"/>
     <use xlink:href="#DejaVuSans-Bold-69" transform="translate(1043.798828 0)"/>
     <use xlink:href="#DejaVuSans-Bold-76" transform="translate(1078.076172 0)"/>
     <use xlink:href="#DejaVuSans-Bold-6f" transform="translate(1143.261719 0)"/>
     <use xlink:href="#DejaVuSans-Bold-20" transform="translate(1211.962891 0)"/>
    </g>
    <!--  +Distribuida  -->
    <g transform="translate(1169.181671 52.311) scale(0.24 -0.24)">
     <use xlink:href="#DejaVuSans-Bold-20"/>
     <use xlink:href="#DejaVuSans-Bold-2b" transform="translate(34.814453 0)"/>
     <use xlink:href="#DejaVuSans-Bold-44" transform="translate(118.603516 0)"/>
     <use xlink:href="#DejaVuSans-Bold-69" transform="translate(201.611328 0)"/>
     <use xlink:href="#DejaVuSans-Bold-73" transform="translate(235.888672 0)"/>
     <use xlink:href="#DejaVuSans-Bold-74" transform="translate(295.410156 0)"/>
     <use xlink:href="#DejaVuSans-Bold-72" transform="translate(343.212891 0)"/>
     <use xlink:href="#DejaVuSans-Bold-69" transform="translate(392.529297 0)"/>
     <use xlink:href="#DejaVuSans-Bold-62" transform="translate(426.806641 0)"/>
     <use xlink:href="#DejaVuSans-Bold-75" transform="translate(498.388672 0)"/>
     <use xlink:href="#DejaVuSans-Bold-69" transform="translate(569.580078 0)"/>
     <use xlink:href="#DejaVuSans-Bold-64" transform="translate(603.857422 0)"/>
     <use xlink:href="#DejaVuSans-Bold-61" transform="translate(675.439453 0)"/>
     <use xlink:href="#DejaVuSans-Bold-20" transform="translate(742.919922 0)"/>
    </g>
    <!--  2050 (22232 GWh) -->
    <g transform="translate(1132.236671 79.18575) scale(0.24 -0.24)">
     <use xlink:href="#DejaVuSans-Bold-20"/>
     <use xlink:href="#DejaVuSans-Bold-32" transform="translate(34.814453 0)"/>
     <use xlink:href="#DejaVuSans-Bold-30" transform="translate(104.394531 0)"/>
     <use xlink:href="#DejaVuSans-Bold-35" transform="translate(173.974609 0)"/>
     <use xlink:href="#DejaVuSans-Bold-30" transform="translate(243.554688 0)"/>
     <use xlink:href="#DejaVuSans-Bold-20" transform="translate(313.134766 0)"/>
     <use xlink:href="#DejaVuSans-Bold-28" transform="translate(347.949219 0)"/>
     <use xlink:href="#DejaVuSans-Bold-32" transform="translate(393.652344 0)"/>
     <use xlink:href="#DejaVuSans-Bold-32" transform="translate(463.232422 0)"/>
     <use xlink:href="#DejaVuSans-Bold-32" transform="translate(532.8125 0)"/>
     <use xlink:href="#DejaVuSans-Bold-33" transform="translate(602.392578 0)"/>
     <use xlink:href="#DejaVuSans-Bold-32" transform="translate(671.972656 0)"/>
     <use xlink:href="#DejaVuSans-Bold-20" transform="translate(741.552734 0)"/>
     <use xlink:href="#DejaVuSans-Bold-47" transform="translate(776.367188 0)"/>
     <use xlink:href="#DejaVuSans-Bold-57" transform="translate(858.447266 0)"/>
     <use xlink:href="#DejaVuSans-Bold-68" transform="translate(968.75 0)"/>
     <use xlink:href="#DejaVuSans-Bold-29" transform="translate(1039.941406 0)"/>
    </g>
   </g>
   <g id="legend_1">
    <g id="patch_27">
     <path d="M 1399.035446 164.7564 
L 1431.035446 164.7564 
L 1431.035446 153.5564 
L 1399.035446 153.5564 
z
" style="fill: #a1140b; stroke: #ffffff; stroke-linejoin: miter"/>
    </g>
    <g id="text_31">
     <!-- Fosil -->
     <g transform="translate(1443.835446 164.7564) scale(0.16 -0.16)">
      <defs>
       <path id="DejaVuSans-46" d="M 628 4666 
L 3309 4666 
L 3309 4134 
L 1259 4134 
L 1259 2759 
L 3109 2759 
L 3109 2228 
L 1259 2228 
L 1259 0 
L 628 0 
L 628 4666 
z
" transform="scale(0.015625)"/>
       <path id="DejaVuSans-6f" d="M 1959 3097 
Q 1497 3097 1228 2736 
Q 959 2375 959 1747 
Q 959 1119 1226 758 
Q 1494 397 1959 397 
Q 2419 397 2687 759 
Q 2956 1122 2956 1747 
Q 2956 2369 2687 2733 
Q 2419 3097 1959 3097 
z
M 1959 3584 
Q 2709 3584 3137 3096 
Q 3566 2609 3566 1747 
Q 3566 888 3137 398 
Q 2709 -91 1959 -91 
Q 1206 -91 779 398 
Q 353 888 353 1747 
Q 353 2609 779 3096 
Q 1206 3584 1959 3584 
z
" transform="scale(0.015625)"/>
       <path id="DejaVuSans-73" d="M 2834 3397 
L 2834 2853 
Q 2591 2978 2328 3040 
Q 2066 3103 1784 3103 
Q 1356 3103 1142 2972 
Q 928 2841 928 2578 
Q 928 2378 1081 2264 
Q 1234 2150 1697 2047 
L 1894 2003 
Q 2506 1872 2764 1633 
Q 3022 1394 3022 966 
Q 3022 478 2636 193 
Q 2250 -91 1575 -91 
Q 1294 -91 989 -36 
Q 684 19 347 128 
L 347 722 
Q 666 556 975 473 
Q 1284 391 1588 391 
Q 1994 391 2212 530 
Q 2431 669 2431 922 
Q 2431 1156 2273 1281 
Q 2116 1406 1581 1522 
L 1381 1569 
Q 847 1681 609 1914 
Q 372 2147 372 2553 
Q 372 3047 722 3315 
Q 1072 3584 1716 3584 
Q 2034 3584 2315 3537 
Q 2597 3491 2834 3397 
z
" transform="scale(0.015625)"/>
       <path id="DejaVuSans-69" d="M 603 3500 
L 1178 3500 
L 1178 0 
L 603 0 
L 603 3500 
z
M 603 4863 
L 1178 4863 
L 1178 4134 
L 603 4134 
L 603 4863 
z
" transform="scale(0.015625)"/>
       <path id="DejaVuSans-6c" d="M 603 4863 
L 1178 4863 
L 1178 0 
L 603 0 
L 603 4863 
z
" transform="scale(0.015625)"/>
      </defs>
      <use xlink:href="#DejaVuSans-46"/>
      <use xlink:href="#DejaVuSans-6f" transform="translate(53.894531 0)"/>
      <use xlink:href="#DejaVuSans-73" transform="translate(115.076172 0)"/>
      <use xlink:href="#DejaVuSans-69" transform="translate(167.175781 0)"/>
      <use xlink:href="#DejaVuSans-6c" transform="translate(194.958984 0)"/>
     </g>
    </g>
    <g id="patch_28">
     <path d="M 1399.035446 188.2414 
L 1431.035446 188.2414 
L 1431.035446 177.0414 
L 1399.035446 177.0414 
z
" style="fill: #fbaa1b; stroke: #ffffff; stroke-linejoin: miter"/>
    </g>
    <g id="text_32">
     <!-- Solar -->
     <g transform="translate(1443.835446 188.2414) scale(0.16 -0.16)">
      <defs>
       <path id="DejaVuSans-53" d="M 3425 4513 
L 3425 3897 
Q 3066 4069 2747 4153 
Q 2428 4238 2131 4238 
Q 1616 4238 1336 4038 
Q 1056 3838 1056 3469 
Q 1056 3159 1242 3001 
Q 1428 2844 1947 2747 
L 2328 2669 
Q 3034 2534 3370 2195 
Q 3706 1856 3706 1288 
Q 3706 609 3251 259 
Q 2797 -91 1919 -91 
Q 1588 -91 1214 -16 
Q 841 59 441 206 
L 441 856 
Q 825 641 1194 531 
Q 1563 422 1919 422 
Q 2459 422 2753 634 
Q 3047 847 3047 1241 
Q 3047 1584 2836 1778 
Q 2625 1972 2144 2069 
L 1759 2144 
Q 1053 2284 737 2584 
Q 422 2884 422 3419 
Q 422 4038 858 4394 
Q 1294 4750 2059 4750 
Q 2388 4750 2728 4690 
Q 3069 4631 3425 4513 
z
" transform="scale(0.015625)"/>
       <path id="DejaVuSans-61" d="M 2194 1759 
Q 1497 1759 1228 1600 
Q 959 1441 959 1056 
Q 959 750 1161 570 
Q 1363 391 1709 391 
Q 2188 391 2477 730 
Q 2766 1069 2766 1631 
L 2766 1759 
L 2194 1759 
z
M 3341 1997 
L 3341 0 
L 2766 0 
L 2766 531 
Q 2569 213 2275 61 
Q 1981 -91 1556 -91 
Q 1019 -91 701 211 
Q 384 513 384 1019 
Q 384 1609 779 1909 
Q 1175 2209 1959 2209 
L 2766 2209 
L 2766 2266 
Q 2766 2663 2505 2880 
Q 2244 3097 1772 3097 
Q 1472 3097 1187 3025 
Q 903 2953 641 2809 
L 641 3341 
Q 956 3463 1253 3523 
Q 1550 3584 1831 3584 
Q 2591 3584 2966 3190 
Q 3341 2797 3341 1997 
z
" transform="scale(0.015625)"/>
       <path id="DejaVuSans-72" d="M 2631 2963 
Q 2534 3019 2420 3045 
Q 2306 3072 2169 3072 
Q 1681 3072 1420 2755 
Q 1159 2438 1159 1844 
L 1159 0 
L 581 0 
L 581 3500 
L 1159 3500 
L 1159 2956 
Q 1341 3275 1631 3429 
Q 1922 3584 2338 3584 
Q 2397 3584 2469 3576 
Q 2541 3569 2628 3553 
L 2631 2963 
z
" transform="scale(0.015625)"/>
      </defs>
      <use xlink:href="#DejaVuSans-53"/>
      <use xlink:href="#DejaVuSans-6f" transform="translate(63.476562 0)"/>
      <use xlink:href="#DejaVuSans-6c" transform="translate(124.658203 0)"/>
      <use xlink:href="#DejaVuSans-61" transform="translate(152.441406 0)"/>
      <use xlink:href="#DejaVuSans-72" transform="translate(213.720703 0)"/>
     </g>
    </g>
    <g id="patch_29">
     <path d="M 1399.035446 211.7264 
L 1431.035446 211.7264 
L 1431.035446 200.5264 
L 1399.035446 200.5264 
z
" style="fill: #8fc73e; stroke: #ffffff; stroke-linejoin: miter"/>
    </g>
    <g id="text_33">
     <!-- Eólica -->
     <g transform="translate(1443.835446 211.7264) scale(0.16 -0.16)">
      <defs>
       <path id="DejaVuSans-45" d="M 628 4666 
L 3578 4666 
L 3578 4134 
L 1259 4134 
L 1259 2753 
L 3481 2753 
L 3481 2222 
L 1259 2222 
L 1259 531 
L 3634 531 
L 3634 0 
L 628 0 
L 628 4666 
z
" transform="scale(0.015625)"/>
       <path id="DejaVuSans-f3" d="M 1959 3097 
Q 1497 3097 1228 2736 
Q 959 2375 959 1747 
Q 959 1119 1226 758 
Q 1494 397 1959 397 
Q 2419 397 2687 759 
Q 2956 1122 2956 1747 
Q 2956 2369 2687 2733 
Q 2419 3097 1959 3097 
z
M 1959 3584 
Q 2709 3584 3137 3096 
Q 3566 2609 3566 1747 
Q 3566 888 3137 398 
Q 2709 -91 1959 -91 
Q 1206 -91 779 398 
Q 353 888 353 1747 
Q 353 2609 779 3096 
Q 1206 3584 1959 3584 
z
M 2394 5119 
L 3016 5119 
L 1998 3944 
L 1519 3944 
L 2394 5119 
z
" transform="scale(0.015625)"/>
       <path id="DejaVuSans-63" d="M 3122 3366 
L 3122 2828 
Q 2878 2963 2633 3030 
Q 2388 3097 2138 3097 
Q 1578 3097 1268 2742 
Q 959 2388 959 1747 
Q 959 1106 1268 751 
Q 1578 397 2138 397 
Q 2388 397 2633 464 
Q 2878 531 3122 666 
L 3122 134 
Q 2881 22 2623 -34 
Q 2366 -91 2075 -91 
Q 1284 -91 818 406 
Q 353 903 353 1747 
Q 353 2603 823 3093 
Q 1294 3584 2113 3584 
Q 2378 3584 2631 3529 
Q 2884 3475 3122 3366 
z
" transform="scale(0.015625)"/>
      </defs>
      <use xlink:href="#DejaVuSans-45"/>
      <use xlink:href="#DejaVuSans-f3" transform="translate(63.183594 0)"/>
      <use xlink:href="#DejaVuSans-6c" transform="translate(124.365234 0)"/>
      <use xlink:href="#DejaVuSans-69" transform="translate(152.148438 0)"/>
      <use xlink:href="#DejaVuSans-63" transform="translate(179.931641 0)"/>
      <use xlink:href="#DejaVuSans-61" transform="translate(234.912109 0)"/>
     </g>
    </g>
    <g id="patch_30">
     <path d="M 1399.035446 235.2114 
L 1431.035446 235.2114 
L 1431.035446 224.0114 
L 1399.035446 224.0114 
z
" style="fill: #207653; stroke: #ffffff; stroke-linejoin: miter"/>
    </g>
    <g id="text_34">
     <!-- Hidro -->
     <g transform="translate(1443.835446 235.2114) scale(0.16 -0.16)">
      <defs>
       <path id="DejaVuSans-48" d="M 628 4666 
L 1259 4666 
L 1259 2753 
L 3553 2753 
L 3553 4666 
L 4184 4666 
L 4184 0 
L 3553 0 
L 3553 2222 
L 1259 2222 
L 1259 0 
L 628 0 
L 628 4666 
z
" transform="scale(0.015625)"/>
       <path id="DejaVuSans-64" d="M 2906 2969 
L 2906 4863 
L 3481 4863 
L 3481 0 
L 2906 0 
L 2906 525 
Q 2725 213 2448 61 
Q 2172 -91 1784 -91 
Q 1150 -91 751 415 
Q 353 922 353 1747 
Q 353 2572 751 3078 
Q 1150 3584 1784 3584 
Q 2172 3584 2448 3432 
Q 2725 3281 2906 2969 
z
M 947 1747 
Q 947 1113 1208 752 
Q 1469 391 1925 391 
Q 2381 391 2643 752 
Q 2906 1113 2906 1747 
Q 2906 2381 2643 2742 
Q 2381 3103 1925 3103 
Q 1469 3103 1208 2742 
Q 947 2381 947 1747 
z
" transform="scale(0.015625)"/>
      </defs>
      <use xlink:href="#DejaVuSans-48"/>
      <use xlink:href="#DejaVuSans-69" transform="translate(75.195312 0)"/>
      <use xlink:href="#DejaVuSans-64" transform="translate(102.978516 0)"/>
      <use xlink:href="#DejaVuSans-72" transform="translate(166.455078 0)"/>
      <use xlink:href="#DejaVuSans-6f" transform="translate(205.318359 0)"/>
     </g>
    </g>
    <g id="patch_31">
     <path d="M 1399.035446 258.6964 
L 1431.035446 258.6964 
L 1431.035446 247.4964 
L 1399.035446 247.4964 
z
" style="fill: url(#h4b35ad4c29); stroke: #ffffff; stroke-linejoin: miter"/>
    </g>
    <g id="text_35">
     <!-- Solar Dist -->
     <g transform="translate(1443.835446 258.6964) scale(0.16 -0.16)">
      <defs>
       <path id="DejaVuSans-20" transform="scale(0.015625)"/>
       <path id="DejaVuSans-44" d="M 1259 4147 
L 1259 519 
L 2022 519 
Q 2988 519 3436 956 
Q 3884 1394 3884 2338 
Q 3884 3275 3436 3711 
Q 2988 4147 2022 4147 
L 1259 4147 
z
M 628 4666 
L 1925 4666 
Q 3281 4666 3915 4102 
Q 4550 3538 4550 2338 
Q 4550 1131 3912 565 
Q 3275 0 1925 0 
L 628 0 
L 628 4666 
z
" transform="scale(0.015625)"/>
       <path id="DejaVuSans-74" d="M 1172 4494 
L 1172 3500 
L 2356 3500 
L 2356 3053 
L 1172 3053 
L 1172 1153 
Q 1172 725 1289 603 
Q 1406 481 1766 481 
L 2356 481 
L 2356 0 
L 1766 0 
Q 1100 0 847 248 
Q 594 497 594 1153 
L 594 3053 
L 172 3053 
L 172 3500 
L 594 3500 
L 594 4494 
L 1172 4494 
z
" transform="scale(0.015625)"/>
      </defs>
      <use xlink:href="#DejaVuSans-53"/>
      <use xlink:href="#DejaVuSans-6f" transform="translate(63.476562 0)"/>
      <use xlink:href="#DejaVuSans-6c" transform="translate(124.658203 0)"/>
      <use xlink:href="#DejaVuSans-61" transform="translate(152.441406 0)"/>
      <use xlink:href="#DejaVuSans-72" transform="translate(213.720703 0)"/>
      <use xlink:href="#DejaVuSans-20" transform="translate(254.833984 0)"/>
      <use xlink:href="#DejaVuSans-44" transform="translate(286.621094 0)"/>
      <use xlink:href="#DejaVuSans-69" transform="translate(363.623047 0)"/>
      <use xlink:href="#DejaVuSans-73" transform="translate(391.40625 0)"/>
      <use xlink:href="#DejaVuSans-74" transform="translate(443.505859 0)"/>
     </g>
    </g>
   </g>
  </g>
 </g>
 <defs>
  <pattern id="h4b35ad4c29" patternUnits="userSpaceOnUse" x="0" y="0" width="72" height="72">
   <rect x="0" y="0" width="73" height="73" fill="#fbaa1b"/>
   <path d="M -36 36 
L 36 -36 
M -24 48 
L 48 -24 
M -12 60 
L 60 -12 
M 0 72 
L 72 0 
M 12 84 
L 84 12 
M 24 96 
L 96 24 
M 36 108 
L 108 36 
" style="fill: #ffffff; stroke: #ffffff; stroke-width: 1.0; stroke-linecap: butt; stroke-linejoin: miter"/>
  </pattern>
 </defs>
</svg>
