<?xml version="1.0" encoding="utf-8" standalone="no"?>
<!DOCTYPE svg PUBLIC "-//W3C//DTD SVG 1.1//EN"
  "http://www.w3.org/Graphics/SVG/1.1/DTD/svg11.dtd">
<svg xmlns:xlink="http://www.w3.org/1999/xlink" width="1508.716507pt" height="364.256415pt" viewBox="0 0 1508.716507 364.256415" xmlns="http://www.w3.org/2000/svg" version="1.1">
 <metadata>
  <rdf:RDF xmlns:dc="http://purl.org/dc/elements/1.1/" xmlns:cc="http://creativecommons.org/ns#" xmlns:rdf="http://www.w3.org/1999/02/22-rdf-syntax-ns#">
   <cc:Work>
    <dc:type rdf:resource="http://purl.org/dc/dcmitype/StillImage"/>
    <dc:date>2025-12-10T11:09:26.881939</dc:date>
    <dc:format>image/svg+xml</dc:format>
    <dc:creator>
     <cc:Agent>
      <dc:title>Matplotlib v3.10.3, https://matplotlib.org/</dc:title>
     </cc:Agent>
    </dc:creator>
   </cc:Work>
  </rdf:RDF>
 </metadata>
 <defs>
  <style type="text/css">*{stroke-linejoin: round; stroke-linecap: butt}</style>
 </defs>
 <g id="figure_1">
  <g id="patch_1">
   <path d="M 0 364.256415 
L 1508.716507 364.256415 
L 1508.716507 0 
L 0 0 
z
" style="fill: #ffffff"/>
  </g>
  <g id="axes_1">
   <g id="patch_2">
    <path d="M 118.49625 115.483496 
C 102.474649 115.483496 86.671965 119.222715 72.349299 126.402752 
C 58.026632 133.58279 45.57539 144.00743 35.989217 156.844759 
C 26.403044 169.682087 19.94391 184.581286 17.127271 200.353358 
C 14.310633 216.12543 15.213462 232.339358 19.763712 247.701225 
C 24.313962 263.063091 32.387283 277.153089 43.339402 288.846797 
C 54.291521 300.540505 67.823139 309.518359 82.854396 315.0639 
C 97.885652 320.609442 114.005775 322.571124 129.928333 320.792398 
C 145.850891 319.013672 161.140754 313.543147 174.577748 304.817386 
L 132.300926 239.714361 
C 128.993359 241.86224 125.2297 243.208831 121.310301 243.646671 
C 117.390902 244.084511 113.422872 243.601636 109.72287 242.236579 
C 106.022869 240.871523 102.692009 238.66159 99.996103 235.783139 
C 97.300197 232.904687 95.312918 229.43638 94.192856 225.654998 
C 93.072795 221.873615 92.85056 217.882494 93.543886 214.000138 
C 94.237212 210.117782 95.827153 206.450287 98.186827 203.290329 
C 100.5465 200.130371 103.611421 197.564306 107.137 195.796912 
C 110.66258 194.029518 114.552471 193.109095 118.49625 193.109095 
z
" style="fill: #a1140b; stroke: #ffffff; stroke-linejoin: miter"/>
   </g>
   <g id="patch_3">
    <path d="M 174.577743 304.817392 
C 180.727002 300.824168 186.432233 296.185538 191.596252 290.980526 
C 196.760271 285.775514 201.35361 280.033831 205.298096 273.853196 
L 139.862858 232.092406 
C 138.891908 233.613793 137.76124 235.02713 136.490097 236.308364 
C 135.218953 237.589598 133.814589 238.731414 132.300925 239.714362 
z
" style="fill: #fbaa1b; stroke: #ffffff; stroke-linejoin: miter"/>
   </g>
   <g id="patch_4">
    <path d="M 205.298096 273.853196 
C 210.399284 265.860112 214.372052 257.200586 217.103657 248.120394 
C 219.835263 239.040203 221.299609 229.626063 221.455131 220.145169 
L 143.839974 218.871969 
C 143.801692 221.205727 143.441238 223.523054 142.768843 225.758178 
C 142.096447 227.993302 141.118535 230.124878 139.862858 232.092406 
z
" style="fill: #8fc73e; stroke: #ffffff; stroke-linejoin: miter"/>
   </g>
   <g id="patch_5">
    <path d="M 221.455131 220.145169 
C 221.6784 206.534524 219.200586 193.013742 214.165354 180.36677 
C 209.130121 167.719798 201.63671 156.195913 192.119603 146.463276 
C 182.602497 136.73064 171.249244 128.981067 158.718182 123.663933 
C 146.187119 118.346798 132.725204 115.56687 119.112972 115.485344 
L 118.648059 193.10955 
C 121.998762 193.129618 125.312464 193.813908 128.397033 195.122741 
C 131.481602 196.431574 134.276249 198.339161 136.618922 200.734887 
C 138.961594 203.130613 140.806126 205.967262 142.045568 209.080363 
C 143.28501 212.193464 143.894933 215.521656 143.839974 218.871969 
z
" style="fill: #207653; stroke: #ffffff; stroke-linejoin: miter"/>
   </g>
   <g id="patch_6">
    <path d="M 119.112972 115.485344 
C 119.01018 115.48473 118.907363 115.484264 118.80457 115.483957 
C 118.701777 115.48365 118.599009 115.483496 118.496215 115.483496 
L 118.496241 193.109095 
C 118.521544 193.109095 118.546841 193.109133 118.572144 193.109209 
C 118.597447 193.109284 118.622756 193.109399 118.648059 193.10955 
z
" style="fill: url(#h118a686717); stroke: #ffffff; stroke-linejoin: miter"/>
   </g>
   <g id="matplotlib.axis_1"/>
   <g id="matplotlib.axis_2"/>
   <g id="text_1">
    <!-- 59.2% -->
    <g transform="translate(33.842978 240.41823) scale(0.16 -0.16)">
     <defs>
      <path id="DejaVuSans-35" d="M 691 4666 
L 3169 4666 
L 3169 4134 
L 1269 4134 
L 1269 2991 
Q 1406 3038 1543 3061 
Q 1681 3084 1819 3084 
Q 2600 3084 3056 2656 
Q 3513 2228 3513 1497 
Q 3513 744 3044 326 
Q 2575 -91 1722 -91 
Q 1428 -91 1123 -41 
Q 819 9 494 109 
L 494 744 
Q 775 591 1075 516 
Q 1375 441 1709 441 
Q 2250 441 2565 725 
Q 2881 1009 2881 1497 
Q 2881 1984 2565 2268 
Q 2250 2553 1709 2553 
Q 1456 2553 1204 2497 
Q 953 2441 691 2322 
L 691 4666 
z
" transform="scale(0.015625)"/>
      <path id="DejaVuSans-39" d="M 703 97 
L 703 672 
Q 941 559 1184 500 
Q 1428 441 1663 441 
Q 2288 441 2617 861 
Q 2947 1281 2994 2138 
Q 2813 1869 2534 1725 
Q 2256 1581 1919 1581 
Q 1219 1581 811 2004 
Q 403 2428 403 3163 
Q 403 3881 828 4315 
Q 1253 4750 1959 4750 
Q 2769 4750 3195 4129 
Q 3622 3509 3622 2328 
Q 3622 1225 3098 567 
Q 2575 -91 1691 -91 
Q 1453 -91 1209 -44 
Q 966 3 703 97 
z
M 1959 2075 
Q 2384 2075 2632 2365 
Q 2881 2656 2881 3163 
Q 2881 3666 2632 3958 
Q 2384 4250 1959 4250 
Q 1534 4250 1286 3958 
Q 1038 3666 1038 3163 
Q 1038 2656 1286 2365 
Q 1534 2075 1959 2075 
z
" transform="scale(0.015625)"/>
      <path id="DejaVuSans-2e" d="M 684 794 
L 1344 794 
L 1344 0 
L 684 0 
L 684 794 
z
" transform="scale(0.015625)"/>
      <path id="DejaVuSans-32" d="M 1228 531 
L 3431 531 
L 3431 0 
L 469 0 
L 469 531 
Q 828 903 1448 1529 
Q 2069 2156 2228 2338 
Q 2531 2678 2651 2914 
Q 2772 3150 2772 3378 
Q 2772 3750 2511 3984 
Q 2250 4219 1831 4219 
Q 1534 4219 1204 4116 
Q 875 4013 500 3803 
L 500 4441 
Q 881 4594 1212 4672 
Q 1544 4750 1819 4750 
Q 2544 4750 2975 4387 
Q 3406 4025 3406 3419 
Q 3406 3131 3298 2873 
Q 3191 2616 2906 2266 
Q 2828 2175 2409 1742 
Q 1991 1309 1228 531 
z
" transform="scale(0.015625)"/>
      <path id="DejaVuSans-25" d="M 4653 2053 
Q 4381 2053 4226 1822 
Q 4072 1591 4072 1178 
Q 4072 772 4226 539 
Q 4381 306 4653 306 
Q 4919 306 5073 539 
Q 5228 772 5228 1178 
Q 5228 1588 5073 1820 
Q 4919 2053 4653 2053 
z
M 4653 2450 
Q 5147 2450 5437 2106 
Q 5728 1763 5728 1178 
Q 5728 594 5436 251 
Q 5144 -91 4653 -91 
Q 4153 -91 3862 251 
Q 3572 594 3572 1178 
Q 3572 1766 3864 2108 
Q 4156 2450 4653 2450 
z
M 1428 4353 
Q 1159 4353 1004 4120 
Q 850 3888 850 3481 
Q 850 3069 1003 2837 
Q 1156 2606 1428 2606 
Q 1700 2606 1854 2837 
Q 2009 3069 2009 3481 
Q 2009 3884 1853 4118 
Q 1697 4353 1428 4353 
z
M 4250 4750 
L 4750 4750 
L 1831 -91 
L 1331 -91 
L 4250 4750 
z
M 1428 4750 
Q 1922 4750 2215 4408 
Q 2509 4066 2509 3481 
Q 2509 2891 2217 2550 
Q 1925 2209 1428 2209 
Q 931 2209 642 2551 
Q 353 2894 353 3481 
Q 353 4063 643 4406 
Q 934 4750 1428 4750 
z
" transform="scale(0.015625)"/>
     </defs>
     <use xlink:href="#DejaVuSans-35"/>
     <use xlink:href="#DejaVuSans-39" transform="translate(63.623047 0)"/>
     <use xlink:href="#DejaVuSans-2e" transform="translate(127.246094 0)"/>
     <use xlink:href="#DejaVuSans-32" transform="translate(159.033203 0)"/>
     <use xlink:href="#DejaVuSans-25" transform="translate(222.65625 0)"/>
    </g>
   </g>
   <g id="text_2">
    <!-- 6.8% -->
    <g transform="translate(142.0325 266.385809) scale(0.16 -0.16)">
     <defs>
      <path id="DejaVuSans-36" d="M 2113 2584 
Q 1688 2584 1439 2293 
Q 1191 2003 1191 1497 
Q 1191 994 1439 701 
Q 1688 409 2113 409 
Q 2538 409 2786 701 
Q 3034 994 3034 1497 
Q 3034 2003 2786 2293 
Q 2538 2584 2113 2584 
z
M 3366 4563 
L 3366 3988 
Q 3128 4100 2886 4159 
Q 2644 4219 2406 4219 
Q 1781 4219 1451 3797 
Q 1122 3375 1075 2522 
Q 1259 2794 1537 2939 
Q 1816 3084 2150 3084 
Q 2853 3084 3261 2657 
Q 3669 2231 3669 1497 
Q 3669 778 3244 343 
Q 2819 -91 2113 -91 
Q 1303 -91 875 529 
Q 447 1150 447 2328 
Q 447 3434 972 4092 
Q 1497 4750 2381 4750 
Q 2619 4750 2861 4703 
Q 3103 4656 3366 4563 
z
" transform="scale(0.015625)"/>
      <path id="DejaVuSans-38" d="M 2034 2216 
Q 1584 2216 1326 1975 
Q 1069 1734 1069 1313 
Q 1069 891 1326 650 
Q 1584 409 2034 409 
Q 2484 409 2743 651 
Q 3003 894 3003 1313 
Q 3003 1734 2745 1975 
Q 2488 2216 2034 2216 
z
M 1403 2484 
Q 997 2584 770 2862 
Q 544 3141 544 3541 
Q 544 4100 942 4425 
Q 1341 4750 2034 4750 
Q 2731 4750 3128 4425 
Q 3525 4100 3525 3541 
Q 3525 3141 3298 2862 
Q 3072 2584 2669 2484 
Q 3125 2378 3379 2068 
Q 3634 1759 3634 1313 
Q 3634 634 3220 271 
Q 2806 -91 2034 -91 
Q 1263 -91 848 271 
Q 434 634 434 1313 
Q 434 1759 690 2068 
Q 947 2378 1403 2484 
z
M 1172 3481 
Q 1172 3119 1398 2916 
Q 1625 2713 2034 2713 
Q 2441 2713 2670 2916 
Q 2900 3119 2900 3481 
Q 2900 3844 2670 4047 
Q 2441 4250 2034 4250 
Q 1625 4250 1398 4047 
Q 1172 3844 1172 3481 
z
" transform="scale(0.015625)"/>
     </defs>
     <use xlink:href="#DejaVuSans-36"/>
     <use xlink:href="#DejaVuSans-2e" transform="translate(63.623047 0)"/>
     <use xlink:href="#DejaVuSans-38" transform="translate(95.410156 0)"/>
     <use xlink:href="#DejaVuSans-25" transform="translate(159.033203 0)"/>
    </g>
   </g>
   <g id="text_3">
    <!-- 8.8% -->
    <g transform="translate(157.336954 240.6697) scale(0.16 -0.16)">
     <use xlink:href="#DejaVuSans-38"/>
     <use xlink:href="#DejaVuSans-2e" transform="translate(63.623047 0)"/>
     <use xlink:href="#DejaVuSans-38" transform="translate(95.410156 0)"/>
     <use xlink:href="#DejaVuSans-25" transform="translate(159.033203 0)"/>
    </g>
   </g>
   <g id="text_4">
    <!-- 25.2% -->
    <g transform="translate(137.256473 179.675417) scale(0.16 -0.16)">
     <use xlink:href="#DejaVuSans-32"/>
     <use xlink:href="#DejaVuSans-35" transform="translate(63.623047 0)"/>
     <use xlink:href="#DejaVuSans-2e" transform="translate(127.246094 0)"/>
     <use xlink:href="#DejaVuSans-32" transform="translate(159.033203 0)"/>
     <use xlink:href="#DejaVuSans-25" transform="translate(222.65625 0)"/>
    </g>
   </g>
   <g id="text_5">
    <!-- 0.1% -->
    <g transform="translate(98.357492 161.087867) scale(0.16 -0.16)">
     <defs>
      <path id="DejaVuSans-30" d="M 2034 4250 
Q 1547 4250 1301 3770 
Q 1056 3291 1056 2328 
Q 1056 1369 1301 889 
Q 1547 409 2034 409 
Q 2525 409 2770 889 
Q 3016 1369 3016 2328 
Q 3016 3291 2770 3770 
Q 2525 4250 2034 4250 
z
M 2034 4750 
Q 2819 4750 3233 4129 
Q 3647 3509 3647 2328 
Q 3647 1150 3233 529 
Q 2819 -91 2034 -91 
Q 1250 -91 836 529 
Q 422 1150 422 2328 
Q 422 3509 836 4129 
Q 1250 4750 2034 4750 
z
" transform="scale(0.015625)"/>
      <path id="DejaVuSans-31" d="M 794 531 
L 1825 531 
L 1825 4091 
L 703 3866 
L 703 4441 
L 1819 4666 
L 2450 4666 
L 2450 531 
L 3481 531 
L 3481 0 
L 794 0 
L 794 531 
z
" transform="scale(0.015625)"/>
     </defs>
     <use xlink:href="#DejaVuSans-30"/>
     <use xlink:href="#DejaVuSans-2e" transform="translate(63.623047 0)"/>
     <use xlink:href="#DejaVuSans-31" transform="translate(95.410156 0)"/>
     <use xlink:href="#DejaVuSans-25" transform="translate(159.033203 0)"/>
    </g>
   </g>
   <g id="text_6">
    <!-- 2025 (4510 MW) -->
    <g transform="translate(7.2 113.443986) scale(0.24 -0.24)">
     <defs>
      <path id="DejaVuSans-Bold-32" d="M 1844 884 
L 3897 884 
L 3897 0 
L 506 0 
L 506 884 
L 2209 2388 
Q 2438 2594 2547 2791 
Q 2656 2988 2656 3200 
Q 2656 3528 2436 3728 
Q 2216 3928 1850 3928 
Q 1569 3928 1234 3808 
Q 900 3688 519 3450 
L 519 4475 
Q 925 4609 1322 4679 
Q 1719 4750 2100 4750 
Q 2938 4750 3402 4381 
Q 3866 4013 3866 3353 
Q 3866 2972 3669 2642 
Q 3472 2313 2841 1759 
L 1844 884 
z
" transform="scale(0.015625)"/>
      <path id="DejaVuSans-Bold-30" d="M 2944 2338 
Q 2944 3213 2780 3570 
Q 2616 3928 2228 3928 
Q 1841 3928 1675 3570 
Q 1509 3213 1509 2338 
Q 1509 1453 1675 1090 
Q 1841 728 2228 728 
Q 2613 728 2778 1090 
Q 2944 1453 2944 2338 
z
M 4147 2328 
Q 4147 1169 3647 539 
Q 3147 -91 2228 -91 
Q 1306 -91 806 539 
Q 306 1169 306 2328 
Q 306 3491 806 4120 
Q 1306 4750 2228 4750 
Q 3147 4750 3647 4120 
Q 4147 3491 4147 2328 
z
" transform="scale(0.015625)"/>
      <path id="DejaVuSans-Bold-35" d="M 678 4666 
L 3669 4666 
L 3669 3781 
L 1638 3781 
L 1638 3059 
Q 1775 3097 1914 3117 
Q 2053 3138 2203 3138 
Q 3056 3138 3531 2711 
Q 4006 2284 4006 1522 
Q 4006 766 3489 337 
Q 2972 -91 2053 -91 
Q 1656 -91 1267 -14 
Q 878 63 494 219 
L 494 1166 
Q 875 947 1217 837 
Q 1559 728 1863 728 
Q 2300 728 2551 942 
Q 2803 1156 2803 1522 
Q 2803 1891 2551 2103 
Q 2300 2316 1863 2316 
Q 1603 2316 1309 2248 
Q 1016 2181 678 2041 
L 678 4666 
z
" transform="scale(0.015625)"/>
      <path id="DejaVuSans-Bold-20" transform="scale(0.015625)"/>
      <path id="DejaVuSans-Bold-28" d="M 2413 -844 
L 1484 -844 
Q 1006 -72 778 623 
Q 550 1319 550 2003 
Q 550 2688 779 3389 
Q 1009 4091 1484 4856 
L 2413 4856 
Q 2013 4116 1813 3408 
Q 1613 2700 1613 2009 
Q 1613 1319 1811 609 
Q 2009 -100 2413 -844 
z
" transform="scale(0.015625)"/>
      <path id="DejaVuSans-Bold-34" d="M 2356 3675 
L 1038 1722 
L 2356 1722 
L 2356 3675 
z
M 2156 4666 
L 3494 4666 
L 3494 1722 
L 4159 1722 
L 4159 850 
L 3494 850 
L 3494 0 
L 2356 0 
L 2356 850 
L 288 850 
L 288 1881 
L 2156 4666 
z
" transform="scale(0.015625)"/>
      <path id="DejaVuSans-Bold-31" d="M 750 831 
L 1813 831 
L 1813 3847 
L 722 3622 
L 722 4441 
L 1806 4666 
L 2950 4666 
L 2950 831 
L 4013 831 
L 4013 0 
L 750 0 
L 750 831 
z
" transform="scale(0.015625)"/>
      <path id="DejaVuSans-Bold-4d" d="M 588 4666 
L 2119 4666 
L 3181 2169 
L 4250 4666 
L 5778 4666 
L 5778 0 
L 4641 0 
L 4641 3413 
L 3566 897 
L 2803 897 
L 1728 3413 
L 1728 0 
L 588 0 
L 588 4666 
z
" transform="scale(0.015625)"/>
      <path id="DejaVuSans-Bold-57" d="M 191 4666 
L 1344 4666 
L 2150 1275 
L 2950 4666 
L 4109 4666 
L 4909 1275 
L 5716 4666 
L 6859 4666 
L 5759 0 
L 4372 0 
L 3525 3547 
L 2688 0 
L 1300 0 
L 191 4666 
z
" transform="scale(0.015625)"/>
      <path id="DejaVuSans-Bold-29" d="M 513 -844 
Q 913 -100 1113 609 
Q 1313 1319 1313 2009 
Q 1313 2700 1113 3408 
Q 913 4116 513 4856 
L 1441 4856 
Q 1916 4091 2145 3389 
Q 2375 2688 2375 2003 
Q 2375 1319 2147 623 
Q 1919 -72 1441 -844 
L 513 -844 
z
" transform="scale(0.015625)"/>
     </defs>
     <use xlink:href="#DejaVuSans-Bold-32"/>
     <use xlink:href="#DejaVuSans-Bold-30" transform="translate(69.580078 0)"/>
     <use xlink:href="#DejaVuSans-Bold-32" transform="translate(139.160156 0)"/>
     <use xlink:href="#DejaVuSans-Bold-35" transform="translate(208.740234 0)"/>
     <use xlink:href="#DejaVuSans-Bold-20" transform="translate(278.320312 0)"/>
     <use xlink:href="#DejaVuSans-Bold-28" transform="translate(313.134766 0)"/>
     <use xlink:href="#DejaVuSans-Bold-34" transform="translate(358.837891 0)"/>
     <use xlink:href="#DejaVuSans-Bold-35" transform="translate(428.417969 0)"/>
     <use xlink:href="#DejaVuSans-Bold-31" transform="translate(497.998047 0)"/>
     <use xlink:href="#DejaVuSans-Bold-30" transform="translate(567.578125 0)"/>
     <use xlink:href="#DejaVuSans-Bold-20" transform="translate(637.158203 0)"/>
     <use xlink:href="#DejaVuSans-Bold-4d" transform="translate(671.972656 0)"/>
     <use xlink:href="#DejaVuSans-Bold-57" transform="translate(771.484375 0)"/>
     <use xlink:href="#DejaVuSans-Bold-29" transform="translate(881.787109 0)"/>
    </g>
   </g>
  </g>
  <g id="axes_2">
   <g id="patch_7">
    <path d="M 368.937819 108.996214 
C 352.889421 108.996214 337.03566 112.5256 322.502874 119.333625 
C 307.970087 126.141649 295.110787 136.063175 284.838566 148.393324 
C 274.566346 160.723473 267.130372 175.16316 263.058936 190.686513 
C 258.9875 206.209866 258.37936 222.440345 261.277721 238.22485 
C 264.176082 254.009354 270.510642 268.96501 279.831358 282.029287 
C 289.152074 295.093564 301.232861 305.949571 315.215433 313.826038 
C 329.198006 321.702505 344.7432 326.408379 360.746599 327.609328 
C 376.749999 328.810278 392.823421 326.477172 407.824923 320.775769 
L 378.510029 243.642578 
C 374.817352 245.046 370.860817 245.620303 366.921518 245.324685 
C 362.98222 245.029066 359.155711 243.870697 355.713847 241.931875 
C 352.271983 239.993052 349.298251 237.320804 347.003921 234.104982 
C 344.70959 230.88916 343.150314 227.207768 342.436871 223.322352 
C 341.723429 219.436935 341.873125 215.44174 342.875324 211.620607 
C 343.877524 207.799474 345.707918 204.245089 348.236464 201.209976 
C 350.765011 198.174862 353.930377 195.732641 357.507678 194.056819 
C 361.08498 192.380998 364.987444 191.512226 368.937819 191.512226 
z
" style="fill: #a1140b; stroke: #ffffff; stroke-linejoin: miter"/>
   </g>
   <g id="patch_8">
    <path d="M 407.824915 320.775775 
C 418.446702 316.738908 428.375408 311.072571 437.253703 303.980701 
C 446.131998 296.888831 453.852082 288.457523 460.136117 278.990232 
L 391.38663 233.356907 
C 389.839791 235.687317 387.939463 237.762716 385.754036 239.508407 
C 383.56861 241.254098 381.124621 242.648889 378.510027 243.642579 
z
" style="fill: #fbaa1b; stroke: #ffffff; stroke-linejoin: miter"/>
   </g>
   <g id="patch_9">
    <path d="M 460.136117 278.990232 
C 465.065871 271.563243 469.069954 263.561807 472.059341 255.163816 
C 475.048728 246.765825 477.00108 238.033991 477.872978 229.162551 
L 395.752627 221.091632 
C 395.538006 223.275371 395.057427 225.424746 394.321578 227.491943 
C 393.585729 229.559141 392.600108 231.528725 391.38663 233.356907 
z
" style="fill: #8fc73e; stroke: #ffffff; stroke-linejoin: miter"/>
   </g>
   <g id="patch_10">
    <path d="M 477.872978 229.162551 
C 480.664619 200.75802 472.238864 172.358508 454.407981 150.072408 
C 436.577098 127.78631 410.718228 113.334858 382.393305 109.826376 
L 372.249938 191.716573 
C 379.222227 192.5802 385.587487 196.13748 389.976628 201.623289 
C 394.365768 207.109098 396.4398 214.099747 395.752627 221.091632 
z
" style="fill: #207653; stroke: #ffffff; stroke-linejoin: miter"/>
   </g>
   <g id="patch_11">
    <path d="M 382.393305 109.826376 
C 380.161915 109.549986 377.922537 109.342415 375.678362 109.203955 
C 373.434186 109.065496 371.186277 108.996214 368.937834 108.996214 
L 368.937822 191.512226 
C 369.491285 191.512226 370.044617 191.52928 370.597029 191.563362 
C 371.149442 191.597444 371.700673 191.648539 372.249938 191.716573 
z
" style="fill: url(#h118a686717); stroke: #ffffff; stroke-linejoin: miter"/>
   </g>
   <g id="matplotlib.axis_3"/>
   <g id="matplotlib.axis_4"/>
   <g id="text_7">
    <!-- 55.8% -->
    <g transform="translate(278.92801 234.732404) scale(0.16 -0.16)">
     <use xlink:href="#DejaVuSans-35"/>
     <use xlink:href="#DejaVuSans-35" transform="translate(63.623047 0)"/>
     <use xlink:href="#DejaVuSans-2e" transform="translate(127.246094 0)"/>
     <use xlink:href="#DejaVuSans-38" transform="translate(159.033203 0)"/>
     <use xlink:href="#DejaVuSans-25" transform="translate(222.65625 0)"/>
    </g>
   </g>
   <g id="text_8">
    <!-- 9.9% -->
    <g transform="translate(389.603599 274.185911) scale(0.16 -0.16)">
     <use xlink:href="#DejaVuSans-39"/>
     <use xlink:href="#DejaVuSans-2e" transform="translate(63.623047 0)"/>
     <use xlink:href="#DejaVuSans-39" transform="translate(95.410156 0)"/>
     <use xlink:href="#DejaVuSans-25" transform="translate(159.033203 0)"/>
    </g>
   </g>
   <g id="text_9">
    <!-- 7.8% -->
    <g transform="translate(410.486991 244.895752) scale(0.16 -0.16)">
     <defs>
      <path id="DejaVuSans-37" d="M 525 4666 
L 3525 4666 
L 3525 4397 
L 1831 0 
L 1172 0 
L 2766 4134 
L 525 4134 
L 525 4666 
z
" transform="scale(0.015625)"/>
     </defs>
     <use xlink:href="#DejaVuSans-37"/>
     <use xlink:href="#DejaVuSans-2e" transform="translate(63.623047 0)"/>
     <use xlink:href="#DejaVuSans-38" transform="translate(95.410156 0)"/>
     <use xlink:href="#DejaVuSans-25" transform="translate(159.033203 0)"/>
    </g>
   </g>
   <g id="text_10">
    <!-- 24.6% -->
    <g transform="translate(394.806165 181.840939) scale(0.16 -0.16)">
     <defs>
      <path id="DejaVuSans-34" d="M 2419 4116 
L 825 1625 
L 2419 1625 
L 2419 4116 
z
M 2253 4666 
L 3047 4666 
L 3047 1625 
L 3713 1625 
L 3713 1100 
L 3047 1100 
L 3047 0 
L 2419 0 
L 2419 1100 
L 313 1100 
L 313 1709 
L 2253 4666 
z
" transform="scale(0.015625)"/>
     </defs>
     <use xlink:href="#DejaVuSans-32"/>
     <use xlink:href="#DejaVuSans-34" transform="translate(63.623047 0)"/>
     <use xlink:href="#DejaVuSans-2e" transform="translate(127.246094 0)"/>
     <use xlink:href="#DejaVuSans-36" transform="translate(159.033203 0)"/>
     <use xlink:href="#DejaVuSans-25" transform="translate(222.65625 0)"/>
    </g>
   </g>
   <g id="text_11">
    <!-- 2.0% -->
    <g transform="translate(352.658332 157.31986) scale(0.16 -0.16)">
     <use xlink:href="#DejaVuSans-32"/>
     <use xlink:href="#DejaVuSans-2e" transform="translate(63.623047 0)"/>
     <use xlink:href="#DejaVuSans-30" transform="translate(95.410156 0)"/>
     <use xlink:href="#DejaVuSans-25" transform="translate(159.033203 0)"/>
    </g>
   </g>
   <g id="text_12">
    <!-- Escenario Tendencial  -->
    <g transform="translate(223.085319 80.331465) scale(0.24 -0.24)">
     <defs>
      <path id="DejaVuSans-Bold-45" d="M 588 4666 
L 3834 4666 
L 3834 3756 
L 1791 3756 
L 1791 2888 
L 3713 2888 
L 3713 1978 
L 1791 1978 
L 1791 909 
L 3903 909 
L 3903 0 
L 588 0 
L 588 4666 
z
" transform="scale(0.015625)"/>
      <path id="DejaVuSans-Bold-73" d="M 3272 3391 
L 3272 2541 
Q 2913 2691 2578 2766 
Q 2244 2841 1947 2841 
Q 1628 2841 1473 2761 
Q 1319 2681 1319 2516 
Q 1319 2381 1436 2309 
Q 1553 2238 1856 2203 
L 2053 2175 
Q 2913 2066 3209 1816 
Q 3506 1566 3506 1031 
Q 3506 472 3093 190 
Q 2681 -91 1863 -91 
Q 1516 -91 1145 -36 
Q 775 19 384 128 
L 384 978 
Q 719 816 1070 734 
Q 1422 653 1784 653 
Q 2113 653 2278 743 
Q 2444 834 2444 1013 
Q 2444 1163 2330 1236 
Q 2216 1309 1875 1350 
L 1678 1375 
Q 931 1469 631 1722 
Q 331 1975 331 2491 
Q 331 3047 712 3315 
Q 1094 3584 1881 3584 
Q 2191 3584 2531 3537 
Q 2872 3491 3272 3391 
z
" transform="scale(0.015625)"/>
      <path id="DejaVuSans-Bold-63" d="M 3366 3391 
L 3366 2478 
Q 3138 2634 2908 2709 
Q 2678 2784 2431 2784 
Q 1963 2784 1702 2511 
Q 1441 2238 1441 1747 
Q 1441 1256 1702 982 
Q 1963 709 2431 709 
Q 2694 709 2930 787 
Q 3166 866 3366 1019 
L 3366 103 
Q 3103 6 2833 -42 
Q 2563 -91 2291 -91 
Q 1344 -91 809 395 
Q 275 881 275 1747 
Q 275 2613 809 3098 
Q 1344 3584 2291 3584 
Q 2566 3584 2833 3536 
Q 3100 3488 3366 3391 
z
" transform="scale(0.015625)"/>
      <path id="DejaVuSans-Bold-65" d="M 4031 1759 
L 4031 1441 
L 1416 1441 
Q 1456 1047 1700 850 
Q 1944 653 2381 653 
Q 2734 653 3104 758 
Q 3475 863 3866 1075 
L 3866 213 
Q 3469 63 3072 -14 
Q 2675 -91 2278 -91 
Q 1328 -91 801 392 
Q 275 875 275 1747 
Q 275 2603 792 3093 
Q 1309 3584 2216 3584 
Q 3041 3584 3536 3087 
Q 4031 2591 4031 1759 
z
M 2881 2131 
Q 2881 2450 2695 2645 
Q 2509 2841 2209 2841 
Q 1884 2841 1681 2658 
Q 1478 2475 1428 2131 
L 2881 2131 
z
" transform="scale(0.015625)"/>
      <path id="DejaVuSans-Bold-6e" d="M 4056 2131 
L 4056 0 
L 2931 0 
L 2931 347 
L 2931 1631 
Q 2931 2084 2911 2256 
Q 2891 2428 2841 2509 
Q 2775 2619 2662 2680 
Q 2550 2741 2406 2741 
Q 2056 2741 1856 2470 
Q 1656 2200 1656 1722 
L 1656 0 
L 538 0 
L 538 3500 
L 1656 3500 
L 1656 2988 
Q 1909 3294 2193 3439 
Q 2478 3584 2822 3584 
Q 3428 3584 3742 3212 
Q 4056 2841 4056 2131 
z
" transform="scale(0.015625)"/>
      <path id="DejaVuSans-Bold-61" d="M 2106 1575 
Q 1756 1575 1579 1456 
Q 1403 1338 1403 1106 
Q 1403 894 1545 773 
Q 1688 653 1941 653 
Q 2256 653 2472 879 
Q 2688 1106 2688 1447 
L 2688 1575 
L 2106 1575 
z
M 3816 1997 
L 3816 0 
L 2688 0 
L 2688 519 
Q 2463 200 2181 54 
Q 1900 -91 1497 -91 
Q 953 -91 614 226 
Q 275 544 275 1050 
Q 275 1666 698 1953 
Q 1122 2241 2028 2241 
L 2688 2241 
L 2688 2328 
Q 2688 2594 2478 2717 
Q 2269 2841 1825 2841 
Q 1466 2841 1156 2769 
Q 847 2697 581 2553 
L 581 3406 
Q 941 3494 1303 3539 
Q 1666 3584 2028 3584 
Q 2975 3584 3395 3211 
Q 3816 2838 3816 1997 
z
" transform="scale(0.015625)"/>
      <path id="DejaVuSans-Bold-72" d="M 3138 2547 
Q 2991 2616 2845 2648 
Q 2700 2681 2553 2681 
Q 2122 2681 1889 2404 
Q 1656 2128 1656 1613 
L 1656 0 
L 538 0 
L 538 3500 
L 1656 3500 
L 1656 2925 
Q 1872 3269 2151 3426 
Q 2431 3584 2822 3584 
Q 2878 3584 2943 3579 
Q 3009 3575 3134 3559 
L 3138 2547 
z
" transform="scale(0.015625)"/>
      <path id="DejaVuSans-Bold-69" d="M 538 3500 
L 1656 3500 
L 1656 0 
L 538 0 
L 538 3500 
z
M 538 4863 
L 1656 4863 
L 1656 3950 
L 538 3950 
L 538 4863 
z
" transform="scale(0.015625)"/>
      <path id="DejaVuSans-Bold-6f" d="M 2203 2784 
Q 1831 2784 1636 2517 
Q 1441 2250 1441 1747 
Q 1441 1244 1636 976 
Q 1831 709 2203 709 
Q 2569 709 2762 976 
Q 2956 1244 2956 1747 
Q 2956 2250 2762 2517 
Q 2569 2784 2203 2784 
z
M 2203 3584 
Q 3106 3584 3614 3096 
Q 4122 2609 4122 1747 
Q 4122 884 3614 396 
Q 3106 -91 2203 -91 
Q 1297 -91 786 396 
Q 275 884 275 1747 
Q 275 2609 786 3096 
Q 1297 3584 2203 3584 
z
" transform="scale(0.015625)"/>
      <path id="DejaVuSans-Bold-54" d="M 31 4666 
L 4331 4666 
L 4331 3756 
L 2784 3756 
L 2784 0 
L 1581 0 
L 1581 3756 
L 31 3756 
L 31 4666 
z
" transform="scale(0.015625)"/>
      <path id="DejaVuSans-Bold-64" d="M 2919 2988 
L 2919 4863 
L 4044 4863 
L 4044 0 
L 2919 0 
L 2919 506 
Q 2688 197 2409 53 
Q 2131 -91 1766 -91 
Q 1119 -91 703 423 
Q 288 938 288 1747 
Q 288 2556 703 3070 
Q 1119 3584 1766 3584 
Q 2128 3584 2408 3439 
Q 2688 3294 2919 2988 
z
M 2181 722 
Q 2541 722 2730 984 
Q 2919 1247 2919 1747 
Q 2919 2247 2730 2509 
Q 2541 2772 2181 2772 
Q 1825 2772 1636 2509 
Q 1447 2247 1447 1747 
Q 1447 1247 1636 984 
Q 1825 722 2181 722 
z
" transform="scale(0.015625)"/>
      <path id="DejaVuSans-Bold-6c" d="M 538 4863 
L 1656 4863 
L 1656 0 
L 538 0 
L 538 4863 
z
" transform="scale(0.015625)"/>
     </defs>
     <use xlink:href="#DejaVuSans-Bold-45"/>
     <use xlink:href="#DejaVuSans-Bold-73" transform="translate(68.310547 0)"/>
     <use xlink:href="#DejaVuSans-Bold-63" transform="translate(127.832031 0)"/>
     <use xlink:href="#DejaVuSans-Bold-65" transform="translate(187.109375 0)"/>
     <use xlink:href="#DejaVuSans-Bold-6e" transform="translate(254.931641 0)"/>
     <use xlink:href="#DejaVuSans-Bold-61" transform="translate(326.123047 0)"/>
     <use xlink:href="#DejaVuSans-Bold-72" transform="translate(393.603516 0)"/>
     <use xlink:href="#DejaVuSans-Bold-69" transform="translate(442.919922 0)"/>
     <use xlink:href="#DejaVuSans-Bold-6f" transform="translate(477.197266 0)"/>
     <use xlink:href="#DejaVuSans-Bold-20" transform="translate(545.898438 0)"/>
     <use xlink:href="#DejaVuSans-Bold-54" transform="translate(580.712891 0)"/>
     <use xlink:href="#DejaVuSans-Bold-65" transform="translate(635.675781 0)"/>
     <use xlink:href="#DejaVuSans-Bold-6e" transform="translate(703.498047 0)"/>
     <use xlink:href="#DejaVuSans-Bold-64" transform="translate(774.689453 0)"/>
     <use xlink:href="#DejaVuSans-Bold-65" transform="translate(846.271484 0)"/>
     <use xlink:href="#DejaVuSans-Bold-6e" transform="translate(914.09375 0)"/>
     <use xlink:href="#DejaVuSans-Bold-63" transform="translate(985.285156 0)"/>
     <use xlink:href="#DejaVuSans-Bold-69" transform="translate(1044.5625 0)"/>
     <use xlink:href="#DejaVuSans-Bold-61" transform="translate(1078.839844 0)"/>
     <use xlink:href="#DejaVuSans-Bold-6c" transform="translate(1146.320312 0)"/>
     <use xlink:href="#DejaVuSans-Bold-20" transform="translate(1180.597656 0)"/>
    </g>
    <!--  2050 (5098 MW) -->
    <g transform="translate(253.464069 107.206215) scale(0.24 -0.24)">
     <defs>
      <path id="DejaVuSans-Bold-39" d="M 641 103 
L 641 966 
Q 928 831 1190 764 
Q 1453 697 1709 697 
Q 2247 697 2547 995 
Q 2847 1294 2900 1881 
Q 2688 1725 2447 1647 
Q 2206 1569 1925 1569 
Q 1209 1569 770 1986 
Q 331 2403 331 3084 
Q 331 3838 820 4291 
Q 1309 4744 2131 4744 
Q 3044 4744 3544 4128 
Q 4044 3513 4044 2388 
Q 4044 1231 3459 570 
Q 2875 -91 1856 -91 
Q 1528 -91 1228 -42 
Q 928 6 641 103 
z
M 2125 2350 
Q 2441 2350 2600 2554 
Q 2759 2759 2759 3169 
Q 2759 3575 2600 3781 
Q 2441 3988 2125 3988 
Q 1809 3988 1650 3781 
Q 1491 3575 1491 3169 
Q 1491 2759 1650 2554 
Q 1809 2350 2125 2350 
z
" transform="scale(0.015625)"/>
      <path id="DejaVuSans-Bold-38" d="M 2228 2088 
Q 1891 2088 1709 1903 
Q 1528 1719 1528 1375 
Q 1528 1031 1709 848 
Q 1891 666 2228 666 
Q 2563 666 2741 848 
Q 2919 1031 2919 1375 
Q 2919 1722 2741 1905 
Q 2563 2088 2228 2088 
z
M 1350 2484 
Q 925 2613 709 2878 
Q 494 3144 494 3541 
Q 494 4131 934 4440 
Q 1375 4750 2228 4750 
Q 3075 4750 3515 4442 
Q 3956 4134 3956 3541 
Q 3956 3144 3739 2878 
Q 3522 2613 3097 2484 
Q 3572 2353 3814 2058 
Q 4056 1763 4056 1313 
Q 4056 619 3595 264 
Q 3134 -91 2228 -91 
Q 1319 -91 855 264 
Q 391 619 391 1313 
Q 391 1763 633 2058 
Q 875 2353 1350 2484 
z
M 1631 3419 
Q 1631 3141 1786 2991 
Q 1941 2841 2228 2841 
Q 2509 2841 2662 2991 
Q 2816 3141 2816 3419 
Q 2816 3697 2662 3845 
Q 2509 3994 2228 3994 
Q 1941 3994 1786 3844 
Q 1631 3694 1631 3419 
z
" transform="scale(0.015625)"/>
     </defs>
     <use xlink:href="#DejaVuSans-Bold-20"/>
     <use xlink:href="#DejaVuSans-Bold-32" transform="translate(34.814453 0)"/>
     <use xlink:href="#DejaVuSans-Bold-30" transform="translate(104.394531 0)"/>
     <use xlink:href="#DejaVuSans-Bold-35" transform="translate(173.974609 0)"/>
     <use xlink:href="#DejaVuSans-Bold-30" transform="translate(243.554688 0)"/>
     <use xlink:href="#DejaVuSans-Bold-20" transform="translate(313.134766 0)"/>
     <use xlink:href="#DejaVuSans-Bold-28" transform="translate(347.949219 0)"/>
     <use xlink:href="#DejaVuSans-Bold-35" transform="translate(393.652344 0)"/>
     <use xlink:href="#DejaVuSans-Bold-30" transform="translate(463.232422 0)"/>
     <use xlink:href="#DejaVuSans-Bold-39" transform="translate(532.8125 0)"/>
     <use xlink:href="#DejaVuSans-Bold-38" transform="translate(602.392578 0)"/>
     <use xlink:href="#DejaVuSans-Bold-20" transform="translate(671.972656 0)"/>
     <use xlink:href="#DejaVuSans-Bold-4d" transform="translate(706.787109 0)"/>
     <use xlink:href="#DejaVuSans-Bold-57" transform="translate(806.298828 0)"/>
     <use xlink:href="#DejaVuSans-Bold-29" transform="translate(916.601562 0)"/>
    </g>
   </g>
  </g>
  <g id="axes_3">
   <g id="patch_12">
    <path d="M 634.429248 99.831641 
C 604.645608 99.831641 575.927602 111.048522 554.028578 131.235101 
C 532.129554 151.42168 518.61657 179.133438 516.19681 208.818619 
C 513.777049 238.503801 522.623665 268.038181 540.964333 291.504862 
C 559.305002 314.971544 585.827292 330.691287 615.217748 335.51481 
L 629.700263 247.27065 
C 622.46569 246.083321 615.937126 242.213845 611.4225 236.437432 
C 606.907874 230.661018 604.730245 223.391016 605.325879 216.083895 
C 605.921512 208.776773 609.247785 201.955417 614.638314 196.986413 
C 620.028843 192.017409 627.097891 189.256331 634.429248 189.256331 
z
" style="fill: #a1140b; stroke: #ffffff; stroke-linejoin: miter"/>
   </g>
   <g id="patch_13">
    <path d="M 615.21773 335.514806 
C 625.540609 337.20898 636.042359 337.530252 646.449493 336.470239 
C 656.856629 335.410225 667.077996 332.978208 676.847312 329.237548 
L 644.870618 245.725477 
C 642.465863 246.646255 639.949834 247.244905 637.388078 247.505832 
C 634.826322 247.766758 632.241275 247.687676 629.700259 247.270648 
z
" style="fill: #fbaa1b; stroke: #ffffff; stroke-linejoin: miter"/>
   </g>
   <g id="patch_14">
    <path d="M 676.847312 329.237548 
C 684.512853 326.302417 691.853119 322.579554 698.749992 318.128866 
C 705.646866 313.678179 712.063181 308.523658 717.895784 302.748171 
L 654.974857 239.205015 
C 653.539139 240.626674 651.959739 241.895479 650.262047 242.991033 
C 648.564355 244.086586 646.75752 245.002984 644.870618 245.725477 
z
" style="fill: #8fc73e; stroke: #ffffff; stroke-linejoin: miter"/>
   </g>
   <g id="patch_15">
    <path d="M 717.895784 302.748171 
C 736.514868 284.311409 748.510702 260.215051 751.998348 234.245437 
C 755.486002 208.275823 750.272689 181.86833 737.177607 159.17244 
L 659.721152 203.863297 
C 662.944557 209.449977 664.227834 215.950283 663.369334 222.342804 
C 662.510837 228.735324 659.558016 234.666735 654.974857 239.205015 
z
" style="fill: #207653; stroke: #ffffff; stroke-linejoin: miter"/>
   </g>
   <g id="patch_16">
    <path d="M 737.177607 159.17244 
C 726.769117 141.132851 711.791056 126.148553 693.755797 115.732554 
C 675.720538 105.316556 655.256255 99.831641 634.429265 99.831641 
L 634.429252 189.256331 
C 639.555896 189.256331 644.593258 190.606464 649.032706 193.170402 
C 653.472155 195.73434 657.159062 199.422783 659.721152 203.863297 
z
" style="fill: url(#h118a686717); stroke: #ffffff; stroke-linejoin: miter"/>
   </g>
   <g id="matplotlib.axis_5"/>
   <g id="matplotlib.axis_6"/>
   <g id="text_13">
    <!-- 47.4% -->
    <g transform="translate(538.076035 217.088664) scale(0.16 -0.16)">
     <use xlink:href="#DejaVuSans-34"/>
     <use xlink:href="#DejaVuSans-37" transform="translate(63.623047 0)"/>
     <use xlink:href="#DejaVuSans-2e" transform="translate(127.246094 0)"/>
     <use xlink:href="#DejaVuSans-34" transform="translate(159.033203 0)"/>
     <use xlink:href="#DejaVuSans-25" transform="translate(222.65625 0)"/>
    </g>
   </g>
   <g id="text_14">
    <!-- 8.4% -->
    <g transform="translate(621.317679 293.679633) scale(0.16 -0.16)">
     <use xlink:href="#DejaVuSans-38"/>
     <use xlink:href="#DejaVuSans-2e" transform="translate(63.623047 0)"/>
     <use xlink:href="#DejaVuSans-34" transform="translate(95.410156 0)"/>
     <use xlink:href="#DejaVuSans-25" transform="translate(159.033203 0)"/>
    </g>
   </g>
   <g id="text_15">
    <!-- 6.6% -->
    <g transform="translate(652.697944 282.674813) scale(0.16 -0.16)">
     <use xlink:href="#DejaVuSans-36"/>
     <use xlink:href="#DejaVuSans-2e" transform="translate(63.623047 0)"/>
     <use xlink:href="#DejaVuSans-36" transform="translate(95.410156 0)"/>
     <use xlink:href="#DejaVuSans-25" transform="translate(159.033203 0)"/>
    </g>
   </g>
   <g id="text_16">
    <!-- 20.9% -->
    <g transform="translate(679.556964 232.34472) scale(0.16 -0.16)">
     <use xlink:href="#DejaVuSans-32"/>
     <use xlink:href="#DejaVuSans-30" transform="translate(63.623047 0)"/>
     <use xlink:href="#DejaVuSans-2e" transform="translate(127.246094 0)"/>
     <use xlink:href="#DejaVuSans-39" transform="translate(159.033203 0)"/>
     <use xlink:href="#DejaVuSans-25" transform="translate(222.65625 0)"/>
    </g>
   </g>
   <g id="text_17">
    <!-- 16.7% -->
    <g transform="translate(644.61143 161.237025) scale(0.16 -0.16)">
     <use xlink:href="#DejaVuSans-31"/>
     <use xlink:href="#DejaVuSans-36" transform="translate(63.623047 0)"/>
     <use xlink:href="#DejaVuSans-2e" transform="translate(127.246094 0)"/>
     <use xlink:href="#DejaVuSans-37" transform="translate(159.033203 0)"/>
     <use xlink:href="#DejaVuSans-25" transform="translate(222.65625 0)"/>
    </g>
   </g>
   <g id="text_18">
    <!-- Escenario Tendencial  -->
    <g transform="translate(488.576748 44.644625) scale(0.24 -0.24)">
     <use xlink:href="#DejaVuSans-Bold-45"/>
     <use xlink:href="#DejaVuSans-Bold-73" transform="translate(68.310547 0)"/>
     <use xlink:href="#DejaVuSans-Bold-63" transform="translate(127.832031 0)"/>
     <use xlink:href="#DejaVuSans-Bold-65" transform="translate(187.109375 0)"/>
     <use xlink:href="#DejaVuSans-Bold-6e" transform="translate(254.931641 0)"/>
     <use xlink:href="#DejaVuSans-Bold-61" transform="translate(326.123047 0)"/>
     <use xlink:href="#DejaVuSans-Bold-72" transform="translate(393.603516 0)"/>
     <use xlink:href="#DejaVuSans-Bold-69" transform="translate(442.919922 0)"/>
     <use xlink:href="#DejaVuSans-Bold-6f" transform="translate(477.197266 0)"/>
     <use xlink:href="#DejaVuSans-Bold-20" transform="translate(545.898438 0)"/>
     <use xlink:href="#DejaVuSans-Bold-54" transform="translate(580.712891 0)"/>
     <use xlink:href="#DejaVuSans-Bold-65" transform="translate(635.675781 0)"/>
     <use xlink:href="#DejaVuSans-Bold-6e" transform="translate(703.498047 0)"/>
     <use xlink:href="#DejaVuSans-Bold-64" transform="translate(774.689453 0)"/>
     <use xlink:href="#DejaVuSans-Bold-65" transform="translate(846.271484 0)"/>
     <use xlink:href="#DejaVuSans-Bold-6e" transform="translate(914.09375 0)"/>
     <use xlink:href="#DejaVuSans-Bold-63" transform="translate(985.285156 0)"/>
     <use xlink:href="#DejaVuSans-Bold-69" transform="translate(1044.5625 0)"/>
     <use xlink:href="#DejaVuSans-Bold-61" transform="translate(1078.839844 0)"/>
     <use xlink:href="#DejaVuSans-Bold-6c" transform="translate(1146.320312 0)"/>
     <use xlink:href="#DejaVuSans-Bold-20" transform="translate(1180.597656 0)"/>
    </g>
    <!--  +Distribuida  -->
    <g transform="translate(541.101123 71.519375) scale(0.24 -0.24)">
     <defs>
      <path id="DejaVuSans-Bold-2b" d="M 3053 4013 
L 3053 2375 
L 4684 2375 
L 4684 1638 
L 3053 1638 
L 3053 0 
L 2309 0 
L 2309 1638 
L 678 1638 
L 678 2375 
L 2309 2375 
L 2309 4013 
L 3053 4013 
z
" transform="scale(0.015625)"/>
      <path id="DejaVuSans-Bold-44" d="M 1791 3756 
L 1791 909 
L 2222 909 
Q 2959 909 3348 1275 
Q 3738 1641 3738 2338 
Q 3738 3031 3350 3393 
Q 2963 3756 2222 3756 
L 1791 3756 
z
M 588 4666 
L 1856 4666 
Q 2919 4666 3439 4514 
Q 3959 4363 4331 4000 
Q 4659 3684 4818 3271 
Q 4978 2859 4978 2338 
Q 4978 1809 4818 1395 
Q 4659 981 4331 666 
Q 3956 303 3431 151 
Q 2906 0 1856 0 
L 588 0 
L 588 4666 
z
" transform="scale(0.015625)"/>
      <path id="DejaVuSans-Bold-74" d="M 1759 4494 
L 1759 3500 
L 2913 3500 
L 2913 2700 
L 1759 2700 
L 1759 1216 
Q 1759 972 1856 886 
Q 1953 800 2241 800 
L 2816 800 
L 2816 0 
L 1856 0 
Q 1194 0 917 276 
Q 641 553 641 1216 
L 641 2700 
L 84 2700 
L 84 3500 
L 641 3500 
L 641 4494 
L 1759 4494 
z
" transform="scale(0.015625)"/>
      <path id="DejaVuSans-Bold-62" d="M 2400 722 
Q 2759 722 2948 984 
Q 3138 1247 3138 1747 
Q 3138 2247 2948 2509 
Q 2759 2772 2400 2772 
Q 2041 2772 1848 2508 
Q 1656 2244 1656 1747 
Q 1656 1250 1848 986 
Q 2041 722 2400 722 
z
M 1656 2988 
Q 1888 3294 2169 3439 
Q 2450 3584 2816 3584 
Q 3463 3584 3878 3070 
Q 4294 2556 4294 1747 
Q 4294 938 3878 423 
Q 3463 -91 2816 -91 
Q 2450 -91 2169 54 
Q 1888 200 1656 506 
L 1656 0 
L 538 0 
L 538 4863 
L 1656 4863 
L 1656 2988 
z
" transform="scale(0.015625)"/>
      <path id="DejaVuSans-Bold-75" d="M 500 1363 
L 500 3500 
L 1625 3500 
L 1625 3150 
Q 1625 2866 1622 2436 
Q 1619 2006 1619 1863 
Q 1619 1441 1641 1255 
Q 1663 1069 1716 984 
Q 1784 875 1895 815 
Q 2006 756 2150 756 
Q 2500 756 2700 1025 
Q 2900 1294 2900 1772 
L 2900 3500 
L 4019 3500 
L 4019 0 
L 2900 0 
L 2900 506 
Q 2647 200 2364 54 
Q 2081 -91 1741 -91 
Q 1134 -91 817 281 
Q 500 653 500 1363 
z
" transform="scale(0.015625)"/>
     </defs>
     <use xlink:href="#DejaVuSans-Bold-20"/>
     <use xlink:href="#DejaVuSans-Bold-2b" transform="translate(34.814453 0)"/>
     <use xlink:href="#DejaVuSans-Bold-44" transform="translate(118.603516 0)"/>
     <use xlink:href="#DejaVuSans-Bold-69" transform="translate(201.611328 0)"/>
     <use xlink:href="#DejaVuSans-Bold-73" transform="translate(235.888672 0)"/>
     <use xlink:href="#DejaVuSans-Bold-74" transform="translate(295.410156 0)"/>
     <use xlink:href="#DejaVuSans-Bold-72" transform="translate(343.212891 0)"/>
     <use xlink:href="#DejaVuSans-Bold-69" transform="translate(392.529297 0)"/>
     <use xlink:href="#DejaVuSans-Bold-62" transform="translate(426.806641 0)"/>
     <use xlink:href="#DejaVuSans-Bold-75" transform="translate(498.388672 0)"/>
     <use xlink:href="#DejaVuSans-Bold-69" transform="translate(569.580078 0)"/>
     <use xlink:href="#DejaVuSans-Bold-64" transform="translate(603.857422 0)"/>
     <use xlink:href="#DejaVuSans-Bold-61" transform="translate(675.439453 0)"/>
     <use xlink:href="#DejaVuSans-Bold-20" transform="translate(742.919922 0)"/>
    </g>
    <!--  2050 (5998 MW) -->
    <g transform="translate(518.955498 98.394125) scale(0.24 -0.24)">
     <use xlink:href="#DejaVuSans-Bold-20"/>
     <use xlink:href="#DejaVuSans-Bold-32" transform="translate(34.814453 0)"/>
     <use xlink:href="#DejaVuSans-Bold-30" transform="translate(104.394531 0)"/>
     <use xlink:href="#DejaVuSans-Bold-35" transform="translate(173.974609 0)"/>
     <use xlink:href="#DejaVuSans-Bold-30" transform="translate(243.554688 0)"/>
     <use xlink:href="#DejaVuSans-Bold-20" transform="translate(313.134766 0)"/>
     <use xlink:href="#DejaVuSans-Bold-28" transform="translate(347.949219 0)"/>
     <use xlink:href="#DejaVuSans-Bold-35" transform="translate(393.652344 0)"/>
     <use xlink:href="#DejaVuSans-Bold-39" transform="translate(463.232422 0)"/>
     <use xlink:href="#DejaVuSans-Bold-39" transform="translate(532.8125 0)"/>
     <use xlink:href="#DejaVuSans-Bold-38" transform="translate(602.392578 0)"/>
     <use xlink:href="#DejaVuSans-Bold-20" transform="translate(671.972656 0)"/>
     <use xlink:href="#DejaVuSans-Bold-4d" transform="translate(706.787109 0)"/>
     <use xlink:href="#DejaVuSans-Bold-57" transform="translate(806.298828 0)"/>
     <use xlink:href="#DejaVuSans-Bold-29" transform="translate(916.601562 0)"/>
    </g>
   </g>
  </g>
  <g id="axes_4">
   <g id="patch_17">
    <path d="M 920.3172 87.783831 
C 895.043501 87.783831 870.304446 95.116212 849.112578 108.888089 
C 827.92071 122.659966 811.172621 142.288674 800.907774 165.383971 
C 790.642926 188.479268 787.295607 214.064032 791.27343 239.022734 
C 795.251252 263.981435 806.385922 287.258115 823.321537 306.018306 
L 896.441344 240.009971 
C 892.272578 235.392078 889.531736 229.662434 888.55258 223.518754 
C 887.573423 217.375073 888.397379 211.077285 890.92411 205.392289 
C 893.450842 199.707293 897.573449 194.875611 902.789908 191.48561 
C 908.006368 188.09561 914.095982 186.290716 920.3172 186.290716 
z
" style="fill: #a1140b; stroke: #ffffff; stroke-linejoin: miter"/>
   </g>
   <g id="patch_18">
    <path d="M 823.321543 306.018313 
C 845.306328 330.371644 875.676331 345.573827 908.347162 348.579222 
C 941.017992 351.584618 973.651749 342.178164 999.710513 322.244365 
L 939.860169 244.004078 
C 933.445704 248.91086 925.412779 251.226294 917.370729 250.486505 
C 909.328678 249.746715 901.852985 246.004639 896.441346 240.009973 
z
" style="fill: #fbaa1b; stroke: #ffffff; stroke-linejoin: miter"/>
   </g>
   <g id="patch_19">
    <path d="M 999.710513 322.244365 
C 1013.607274 311.613959 1025.228502 298.299955 1033.883207 283.093979 
C 1042.537913 267.888003 1048.051092 251.097521 1050.094959 233.720863 
L 952.262494 222.213678 
C 951.759389 226.491009 950.402298 230.624051 948.271909 234.36706 
C 946.14152 238.11007 943.280911 241.387363 939.860169 244.004078 
z
" style="fill: #8fc73e; stroke: #ffffff; stroke-linejoin: miter"/>
   </g>
   <g id="patch_20">
    <path d="M 1050.094959 233.720863 
C 1052.138927 216.343268 1050.671882 198.73084 1045.781042 181.930891 
C 1040.890201 165.130941 1032.674466 149.483207 1021.622397 135.918166 
C 1010.570327 122.353125 996.905412 111.145095 981.440228 102.960553 
C 965.975045 94.776011 949.022329 89.780475 931.590172 88.27099 
L 923.092085 186.410632 
C 927.383078 186.782198 931.556054 188.011868 935.362868 190.026525 
C 939.169683 192.041181 942.533354 194.800081 945.253864 198.139168 
C 947.974373 201.478255 949.996708 205.330005 951.200607 209.465377 
C 952.404506 213.600749 952.765625 217.936116 952.262494 222.213678 
z
" style="fill: #207653; stroke: #ffffff; stroke-linejoin: miter"/>
   </g>
   <g id="patch_21">
    <path d="M 931.590172 88.27099 
C 929.715948 88.108697 927.838438 87.986898 925.958955 87.905677 
C 924.079473 87.824457 922.198455 87.783831 920.317218 87.783831 
L 920.317204 186.290716 
C 920.780278 186.290716 921.243298 186.300716 921.70594 186.320709 
C 922.168582 186.340702 922.630738 186.370683 923.092085 186.410632 
z
" style="fill: url(#h118a686717); stroke: #ffffff; stroke-linejoin: miter"/>
   </g>
   <g id="matplotlib.axis_7"/>
   <g id="matplotlib.axis_8"/>
   <g id="text_19">
    <!-- 36.7% -->
    <g transform="translate(823.25779 191.027883) scale(0.16 -0.16)">
     <defs>
      <path id="DejaVuSans-33" d="M 2597 2516 
Q 3050 2419 3304 2112 
Q 3559 1806 3559 1356 
Q 3559 666 3084 287 
Q 2609 -91 1734 -91 
Q 1441 -91 1130 -33 
Q 819 25 488 141 
L 488 750 
Q 750 597 1062 519 
Q 1375 441 1716 441 
Q 2309 441 2620 675 
Q 2931 909 2931 1356 
Q 2931 1769 2642 2001 
Q 2353 2234 1838 2234 
L 1294 2234 
L 1294 2753 
L 1863 2753 
Q 2328 2753 2575 2939 
Q 2822 3125 2822 3475 
Q 2822 3834 2567 4026 
Q 2313 4219 1838 4219 
Q 1578 4219 1281 4162 
Q 984 4106 628 3988 
L 628 4550 
Q 988 4650 1302 4700 
Q 1616 4750 1894 4750 
Q 2613 4750 3031 4423 
Q 3450 4097 3450 3541 
Q 3450 3153 3228 2886 
Q 3006 2619 2597 2516 
z
" transform="scale(0.015625)"/>
     </defs>
     <use xlink:href="#DejaVuSans-33"/>
     <use xlink:href="#DejaVuSans-36" transform="translate(63.623047 0)"/>
     <use xlink:href="#DejaVuSans-2e" transform="translate(127.246094 0)"/>
     <use xlink:href="#DejaVuSans-37" transform="translate(159.033203 0)"/>
     <use xlink:href="#DejaVuSans-25" transform="translate(222.65625 0)"/>
    </g>
   </g>
   <g id="text_20">
    <!-- 23.7% -->
    <g transform="translate(887.721464 300.94503) scale(0.16 -0.16)">
     <use xlink:href="#DejaVuSans-32"/>
     <use xlink:href="#DejaVuSans-33" transform="translate(63.623047 0)"/>
     <use xlink:href="#DejaVuSans-2e" transform="translate(127.246094 0)"/>
     <use xlink:href="#DejaVuSans-37" transform="translate(159.033203 0)"/>
     <use xlink:href="#DejaVuSans-25" transform="translate(222.65625 0)"/>
    </g>
   </g>
   <g id="text_21">
    <!-- 12.7% -->
    <g transform="translate(963.043071 261.653846) scale(0.16 -0.16)">
     <use xlink:href="#DejaVuSans-31"/>
     <use xlink:href="#DejaVuSans-32" transform="translate(63.623047 0)"/>
     <use xlink:href="#DejaVuSans-2e" transform="translate(127.246094 0)"/>
     <use xlink:href="#DejaVuSans-37" transform="translate(159.033203 0)"/>
     <use xlink:href="#DejaVuSans-25" transform="translate(222.65625 0)"/>
    </g>
   </g>
   <g id="text_22">
    <!-- 25.5% -->
    <g transform="translate(955.686546 173.348361) scale(0.16 -0.16)">
     <use xlink:href="#DejaVuSans-32"/>
     <use xlink:href="#DejaVuSans-35" transform="translate(63.623047 0)"/>
     <use xlink:href="#DejaVuSans-2e" transform="translate(127.246094 0)"/>
     <use xlink:href="#DejaVuSans-35" transform="translate(159.033203 0)"/>
     <use xlink:href="#DejaVuSans-25" transform="translate(222.65625 0)"/>
    </g>
   </g>
   <g id="text_23">
    <!-- 1.4% -->
    <g transform="translate(903.378466 144.540898) scale(0.16 -0.16)">
     <use xlink:href="#DejaVuSans-31"/>
     <use xlink:href="#DejaVuSans-2e" transform="translate(63.623047 0)"/>
     <use xlink:href="#DejaVuSans-34" transform="translate(95.410156 0)"/>
     <use xlink:href="#DejaVuSans-25" transform="translate(159.033203 0)"/>
    </g>
   </g>
   <g id="text_24">
    <!-- Escenario Alternativo  -->
    <g transform="translate(770.70345 59.934943) scale(0.24 -0.24)">
     <defs>
      <path id="DejaVuSans-Bold-41" d="M 3419 850 
L 1538 850 
L 1241 0 
L 31 0 
L 1759 4666 
L 3194 4666 
L 4922 0 
L 3713 0 
L 3419 850 
z
M 1838 1716 
L 3116 1716 
L 2478 3572 
L 1838 1716 
z
" transform="scale(0.015625)"/>
      <path id="DejaVuSans-Bold-76" d="M 97 3500 
L 1216 3500 
L 2088 1081 
L 2956 3500 
L 4078 3500 
L 2700 0 
L 1472 0 
L 97 3500 
z
" transform="scale(0.015625)"/>
     </defs>
     <use xlink:href="#DejaVuSans-Bold-45"/>
     <use xlink:href="#DejaVuSans-Bold-73" transform="translate(68.310547 0)"/>
     <use xlink:href="#DejaVuSans-Bold-63" transform="translate(127.832031 0)"/>
     <use xlink:href="#DejaVuSans-Bold-65" transform="translate(187.109375 0)"/>
     <use xlink:href="#DejaVuSans-Bold-6e" transform="translate(254.931641 0)"/>
     <use xlink:href="#DejaVuSans-Bold-61" transform="translate(326.123047 0)"/>
     <use xlink:href="#DejaVuSans-Bold-72" transform="translate(393.603516 0)"/>
     <use xlink:href="#DejaVuSans-Bold-69" transform="translate(442.919922 0)"/>
     <use xlink:href="#DejaVuSans-Bold-6f" transform="translate(477.197266 0)"/>
     <use xlink:href="#DejaVuSans-Bold-20" transform="translate(545.898438 0)"/>
     <use xlink:href="#DejaVuSans-Bold-41" transform="translate(580.712891 0)"/>
     <use xlink:href="#DejaVuSans-Bold-6c" transform="translate(658.105469 0)"/>
     <use xlink:href="#DejaVuSans-Bold-74" transform="translate(692.382812 0)"/>
     <use xlink:href="#DejaVuSans-Bold-65" transform="translate(740.185547 0)"/>
     <use xlink:href="#DejaVuSans-Bold-72" transform="translate(808.007812 0)"/>
     <use xlink:href="#DejaVuSans-Bold-6e" transform="translate(857.324219 0)"/>
     <use xlink:href="#DejaVuSans-Bold-61" transform="translate(928.515625 0)"/>
     <use xlink:href="#DejaVuSans-Bold-74" transform="translate(995.996094 0)"/>
     <use xlink:href="#DejaVuSans-Bold-69" transform="translate(1043.798828 0)"/>
     <use xlink:href="#DejaVuSans-Bold-76" transform="translate(1078.076172 0)"/>
     <use xlink:href="#DejaVuSans-Bold-6f" transform="translate(1143.261719 0)"/>
     <use xlink:href="#DejaVuSans-Bold-20" transform="translate(1211.962891 0)"/>
    </g>
    <!--  2050 (7274 MW) -->
    <g transform="translate(804.84345 86.809693) scale(0.24 -0.24)">
     <defs>
      <path id="DejaVuSans-Bold-37" d="M 428 4666 
L 3944 4666 
L 3944 3988 
L 2125 0 
L 953 0 
L 2675 3781 
L 428 3781 
L 428 4666 
z
" transform="scale(0.015625)"/>
     </defs>
     <use xlink:href="#DejaVuSans-Bold-20"/>
     <use xlink:href="#DejaVuSans-Bold-32" transform="translate(34.814453 0)"/>
     <use xlink:href="#DejaVuSans-Bold-30" transform="translate(104.394531 0)"/>
     <use xlink:href="#DejaVuSans-Bold-35" transform="translate(173.974609 0)"/>
     <use xlink:href="#DejaVuSans-Bold-30" transform="translate(243.554688 0)"/>
     <use xlink:href="#DejaVuSans-Bold-20" transform="translate(313.134766 0)"/>
     <use xlink:href="#DejaVuSans-Bold-28" transform="translate(347.949219 0)"/>
     <use xlink:href="#DejaVuSans-Bold-37" transform="translate(393.652344 0)"/>
     <use xlink:href="#DejaVuSans-Bold-32" transform="translate(463.232422 0)"/>
     <use xlink:href="#DejaVuSans-Bold-37" transform="translate(532.8125 0)"/>
     <use xlink:href="#DejaVuSans-Bold-34" transform="translate(602.392578 0)"/>
     <use xlink:href="#DejaVuSans-Bold-20" transform="translate(671.972656 0)"/>
     <use xlink:href="#DejaVuSans-Bold-4d" transform="translate(706.787109 0)"/>
     <use xlink:href="#DejaVuSans-Bold-57" transform="translate(806.298828 0)"/>
     <use xlink:href="#DejaVuSans-Bold-29" transform="translate(916.601562 0)"/>
    </g>
   </g>
  </g>
  <g id="axes_5">
   <g id="patch_22">
    <path d="M 1225.413527 79.854931 
C 1201.591465 79.854931 1178.166907 85.996547 1157.40934 97.684749 
C 1136.651774 109.37295 1119.253935 126.21767 1106.901415 146.586909 
C 1094.548894 166.956147 1087.653928 190.170126 1086.884536 213.97976 
C 1086.115144 237.789394 1091.497002 261.40009 1102.50869 282.524326 
L 1195.160028 234.226838 
C 1192.449459 229.027026 1191.124694 223.215162 1191.314083 217.354329 
C 1191.503472 211.493496 1193.200694 205.779286 1196.241315 200.76532 
C 1199.281935 195.751354 1203.56448 191.604961 1208.674035 188.727865 
C 1213.78359 185.850769 1219.549635 184.338987 1225.413527 184.338987 
z
" style="fill: #a1140b; stroke: #ffffff; stroke-linejoin: miter"/>
   </g>
   <g id="patch_23">
    <path d="M 1102.508687 282.52432 
C 1116.79036 309.921533 1139.830834 331.772143 1167.946134 344.582432 
C 1196.061434 357.392722 1227.668706 360.441465 1257.714168 353.241205 
L 1233.364454 251.63407 
C 1225.968648 253.406441 1218.188396 252.655982 1211.267707 249.50268 
C 1204.347018 246.349377 1198.675517 240.970766 1195.160028 234.226837 
z
" style="fill: #fbaa1b; stroke: #ffffff; stroke-linejoin: miter"/>
   </g>
   <g id="patch_24">
    <path d="M 1257.714168 353.241205 
C 1273.763179 349.395132 1288.996998 342.713317 1302.696722 333.511118 
C 1316.396446 324.308918 1328.343126 312.733392 1337.972954 299.330802 
L 1253.120463 238.363817 
C 1250.750044 241.662916 1247.809322 244.512276 1244.437083 246.777433 
C 1241.064843 249.04259 1237.31498 250.687344 1233.364454 251.63407 
z
" style="fill: #8fc73e; stroke: #ffffff; stroke-linejoin: miter"/>
   </g>
   <g id="patch_25">
    <path d="M 1337.972954 299.330802 
C 1357.383826 272.315186 1366.434423 239.193927 1363.459478 206.061237 
C 1360.484532 172.928549 1345.678416 141.949356 1321.765419 118.823741 
L 1249.130916 193.931309 
C 1255.017192 199.623768 1258.661774 207.249416 1259.394069 215.405155 
C 1260.126363 223.560894 1257.898524 231.713819 1253.120463 238.363817 
z
" style="fill: #207653; stroke: #ffffff; stroke-linejoin: miter"/>
   </g>
   <g id="patch_26">
    <path d="M 1321.765419 118.823741 
C 1308.962342 106.442229 1293.891881 96.643853 1277.380488 89.965938 
C 1260.869095 83.288022 1243.224232 79.854931 1225.413546 79.854931 
L 1225.413532 184.338987 
C 1229.7977 184.338987 1234.141051 185.184055 1238.205394 186.82785 
C 1242.269737 188.471645 1245.979389 190.883552 1249.130916 193.931309 
z
" style="fill: url(#h118a686717); stroke: #ffffff; stroke-linejoin: miter"/>
   </g>
   <g id="matplotlib.axis_9"/>
   <g id="matplotlib.axis_10"/>
   <g id="text_25">
    <!-- 32.6% -->
    <g transform="translate(1128.892502 179.74965) scale(0.16 -0.16)">
     <use xlink:href="#DejaVuSans-33"/>
     <use xlink:href="#DejaVuSans-32" transform="translate(63.623047 0)"/>
     <use xlink:href="#DejaVuSans-2e" transform="translate(127.246094 0)"/>
     <use xlink:href="#DejaVuSans-36" transform="translate(159.033203 0)"/>
     <use xlink:href="#DejaVuSans-25" transform="translate(222.65625 0)"/>
    </g>
   </g>
   <g id="text_26">
    <!-- 21.1% -->
    <g transform="translate(1165.519377 298.546967) scale(0.16 -0.16)">
     <use xlink:href="#DejaVuSans-32"/>
     <use xlink:href="#DejaVuSans-31" transform="translate(63.623047 0)"/>
     <use xlink:href="#DejaVuSans-2e" transform="translate(127.246094 0)"/>
     <use xlink:href="#DejaVuSans-31" transform="translate(159.033203 0)"/>
     <use xlink:href="#DejaVuSans-25" transform="translate(222.65625 0)"/>
    </g>
   </g>
   <g id="text_27">
    <!-- 11.3% -->
    <g transform="translate(1246.369695 291.904163) scale(0.16 -0.16)">
     <use xlink:href="#DejaVuSans-31"/>
     <use xlink:href="#DejaVuSans-31" transform="translate(63.623047 0)"/>
     <use xlink:href="#DejaVuSans-2e" transform="translate(127.246094 0)"/>
     <use xlink:href="#DejaVuSans-33" transform="translate(159.033203 0)"/>
     <use xlink:href="#DejaVuSans-25" transform="translate(222.65625 0)"/>
    </g>
   </g>
   <g id="text_28">
    <!-- 22.7% -->
    <g transform="translate(1282.827343 215.434194) scale(0.16 -0.16)">
     <use xlink:href="#DejaVuSans-32"/>
     <use xlink:href="#DejaVuSans-32" transform="translate(63.623047 0)"/>
     <use xlink:href="#DejaVuSans-2e" transform="translate(127.246094 0)"/>
     <use xlink:href="#DejaVuSans-37" transform="translate(159.033203 0)"/>
     <use xlink:href="#DejaVuSans-25" transform="translate(222.65625 0)"/>
    </g>
   </g>
   <g id="text_29">
    <!-- 12.2% -->
    <g transform="translate(1231.179916 145.77704) scale(0.16 -0.16)">
     <use xlink:href="#DejaVuSans-31"/>
     <use xlink:href="#DejaVuSans-32" transform="translate(63.623047 0)"/>
     <use xlink:href="#DejaVuSans-2e" transform="translate(127.246094 0)"/>
     <use xlink:href="#DejaVuSans-32" transform="translate(159.033203 0)"/>
     <use xlink:href="#DejaVuSans-25" transform="translate(222.65625 0)"/>
    </g>
   </g>
   <g id="text_30">
    <!-- Escenario Alternativo  -->
    <g transform="translate(1075.799777 25.43625) scale(0.24 -0.24)">
     <use xlink:href="#DejaVuSans-Bold-45"/>
     <use xlink:href="#DejaVuSans-Bold-73" transform="translate(68.310547 0)"/>
     <use xlink:href="#DejaVuSans-Bold-63" transform="translate(127.832031 0)"/>
     <use xlink:href="#DejaVuSans-Bold-65" transform="translate(187.109375 0)"/>
     <use xlink:href="#DejaVuSans-Bold-6e" transform="translate(254.931641 0)"/>
     <use xlink:href="#DejaVuSans-Bold-61" transform="translate(326.123047 0)"/>
     <use xlink:href="#DejaVuSans-Bold-72" transform="translate(393.603516 0)"/>
     <use xlink:href="#DejaVuSans-Bold-69" transform="translate(442.919922 0)"/>
     <use xlink:href="#DejaVuSans-Bold-6f" transform="translate(477.197266 0)"/>
     <use xlink:href="#DejaVuSans-Bold-20" transform="translate(545.898438 0)"/>
     <use xlink:href="#DejaVuSans-Bold-41" transform="translate(580.712891 0)"/>
     <use xlink:href="#DejaVuSans-Bold-6c" transform="translate(658.105469 0)"/>
     <use xlink:href="#DejaVuSans-Bold-74" transform="translate(692.382812 0)"/>
     <use xlink:href="#DejaVuSans-Bold-65" transform="translate(740.185547 0)"/>
     <use xlink:href="#DejaVuSans-Bold-72" transform="translate(808.007812 0)"/>
     <use xlink:href="#DejaVuSans-Bold-6e" transform="translate(857.324219 0)"/>
     <use xlink:href="#DejaVuSans-Bold-61" transform="translate(928.515625 0)"/>
     <use xlink:href="#DejaVuSans-Bold-74" transform="translate(995.996094 0)"/>
     <use xlink:href="#DejaVuSans-Bold-69" transform="translate(1043.798828 0)"/>
     <use xlink:href="#DejaVuSans-Bold-76" transform="translate(1078.076172 0)"/>
     <use xlink:href="#DejaVuSans-Bold-6f" transform="translate(1143.261719 0)"/>
     <use xlink:href="#DejaVuSans-Bold-20" transform="translate(1211.962891 0)"/>
    </g>
    <!--  +Distribuida  -->
    <g transform="translate(1132.085402 52.311) scale(0.24 -0.24)">
     <use xlink:href="#DejaVuSans-Bold-20"/>
     <use xlink:href="#DejaVuSans-Bold-2b" transform="translate(34.814453 0)"/>
     <use xlink:href="#DejaVuSans-Bold-44" transform="translate(118.603516 0)"/>
     <use xlink:href="#DejaVuSans-Bold-69" transform="translate(201.611328 0)"/>
     <use xlink:href="#DejaVuSans-Bold-73" transform="translate(235.888672 0)"/>
     <use xlink:href="#DejaVuSans-Bold-74" transform="translate(295.410156 0)"/>
     <use xlink:href="#DejaVuSans-Bold-72" transform="translate(343.212891 0)"/>
     <use xlink:href="#DejaVuSans-Bold-69" transform="translate(392.529297 0)"/>
     <use xlink:href="#DejaVuSans-Bold-62" transform="translate(426.806641 0)"/>
     <use xlink:href="#DejaVuSans-Bold-75" transform="translate(498.388672 0)"/>
     <use xlink:href="#DejaVuSans-Bold-69" transform="translate(569.580078 0)"/>
     <use xlink:href="#DejaVuSans-Bold-64" transform="translate(603.857422 0)"/>
     <use xlink:href="#DejaVuSans-Bold-61" transform="translate(675.439453 0)"/>
     <use xlink:href="#DejaVuSans-Bold-20" transform="translate(742.919922 0)"/>
    </g>
    <!--  2050 (8174 MW) -->
    <g transform="translate(1109.939777 79.18575) scale(0.24 -0.24)">
     <use xlink:href="#DejaVuSans-Bold-20"/>
     <use xlink:href="#DejaVuSans-Bold-32" transform="translate(34.814453 0)"/>
     <use xlink:href="#DejaVuSans-Bold-30" transform="translate(104.394531 0)"/>
     <use xlink:href="#DejaVuSans-Bold-35" transform="translate(173.974609 0)"/>
     <use xlink:href="#DejaVuSans-Bold-30" transform="translate(243.554688 0)"/>
     <use xlink:href="#DejaVuSans-Bold-20" transform="translate(313.134766 0)"/>
     <use xlink:href="#DejaVuSans-Bold-28" transform="translate(347.949219 0)"/>
     <use xlink:href="#DejaVuSans-Bold-38" transform="translate(393.652344 0)"/>
     <use xlink:href="#DejaVuSans-Bold-31" transform="translate(463.232422 0)"/>
     <use xlink:href="#DejaVuSans-Bold-37" transform="translate(532.8125 0)"/>
     <use xlink:href="#DejaVuSans-Bold-34" transform="translate(602.392578 0)"/>
     <use xlink:href="#DejaVuSans-Bold-20" transform="translate(671.972656 0)"/>
     <use xlink:href="#DejaVuSans-Bold-4d" transform="translate(706.787109 0)"/>
     <use xlink:href="#DejaVuSans-Bold-57" transform="translate(806.298828 0)"/>
     <use xlink:href="#DejaVuSans-Bold-29" transform="translate(916.601562 0)"/>
    </g>
   </g>
   <g id="legend_1">
    <g id="patch_27">
     <path d="M 1373.084007 175.90123 
L 1405.084007 175.90123 
L 1405.084007 164.70123 
L 1373.084007 164.70123 
z
" style="fill: #a1140b; stroke: #ffffff; stroke-linejoin: miter"/>
    </g>
    <g id="text_31">
     <!-- Fosil -->
     <g transform="translate(1417.884007 175.90123) scale(0.16 -0.16)">
      <defs>
       <path id="DejaVuSans-46" d="M 628 4666 
L 3309 4666 
L 3309 4134 
L 1259 4134 
L 1259 2759 
L 3109 2759 
L 3109 2228 
L 1259 2228 
L 1259 0 
L 628 0 
L 628 4666 
z
" transform="scale(0.015625)"/>
       <path id="DejaVuSans-6f" d="M 1959 3097 
Q 1497 3097 1228 2736 
Q 959 2375 959 1747 
Q 959 1119 1226 758 
Q 1494 397 1959 397 
Q 2419 397 2687 759 
Q 2956 1122 2956 1747 
Q 2956 2369 2687 2733 
Q 2419 3097 1959 3097 
z
M 1959 3584 
Q 2709 3584 3137 3096 
Q 3566 2609 3566 1747 
Q 3566 888 3137 398 
Q 2709 -91 1959 -91 
Q 1206 -91 779 398 
Q 353 888 353 1747 
Q 353 2609 779 3096 
Q 1206 3584 1959 3584 
z
" transform="scale(0.015625)"/>
       <path id="DejaVuSans-73" d="M 2834 3397 
L 2834 2853 
Q 2591 2978 2328 3040 
Q 2066 3103 1784 3103 
Q 1356 3103 1142 2972 
Q 928 2841 928 2578 
Q 928 2378 1081 2264 
Q 1234 2150 1697 2047 
L 1894 2003 
Q 2506 1872 2764 1633 
Q 3022 1394 3022 966 
Q 3022 478 2636 193 
Q 2250 -91 1575 -91 
Q 1294 -91 989 -36 
Q 684 19 347 128 
L 347 722 
Q 666 556 975 473 
Q 1284 391 1588 391 
Q 1994 391 2212 530 
Q 2431 669 2431 922 
Q 2431 1156 2273 1281 
Q 2116 1406 1581 1522 
L 1381 1569 
Q 847 1681 609 1914 
Q 372 2147 372 2553 
Q 372 3047 722 3315 
Q 1072 3584 1716 3584 
Q 2034 3584 2315 3537 
Q 2597 3491 2834 3397 
z
" transform="scale(0.015625)"/>
       <path id="DejaVuSans-69" d="M 603 3500 
L 1178 3500 
L 1178 0 
L 603 0 
L 603 3500 
z
M 603 4863 
L 1178 4863 
L 1178 4134 
L 603 4134 
L 603 4863 
z
" transform="scale(0.015625)"/>
       <path id="DejaVuSans-6c" d="M 603 4863 
L 1178 4863 
L 1178 0 
L 603 0 
L 603 4863 
z
" transform="scale(0.015625)"/>
      </defs>
      <use xlink:href="#DejaVuSans-46"/>
      <use xlink:href="#DejaVuSans-6f" transform="translate(53.894531 0)"/>
      <use xlink:href="#DejaVuSans-73" transform="translate(115.076172 0)"/>
      <use xlink:href="#DejaVuSans-69" transform="translate(167.175781 0)"/>
      <use xlink:href="#DejaVuSans-6c" transform="translate(194.958984 0)"/>
     </g>
    </g>
    <g id="patch_28">
     <path d="M 1373.084007 199.38623 
L 1405.084007 199.38623 
L 1405.084007 188.18623 
L 1373.084007 188.18623 
z
" style="fill: #fbaa1b; stroke: #ffffff; stroke-linejoin: miter"/>
    </g>
    <g id="text_32">
     <!-- Solar -->
     <g transform="translate(1417.884007 199.38623) scale(0.16 -0.16)">
      <defs>
       <path id="DejaVuSans-53" d="M 3425 4513 
L 3425 3897 
Q 3066 4069 2747 4153 
Q 2428 4238 2131 4238 
Q 1616 4238 1336 4038 
Q 1056 3838 1056 3469 
Q 1056 3159 1242 3001 
Q 1428 2844 1947 2747 
L 2328 2669 
Q 3034 2534 3370 2195 
Q 3706 1856 3706 1288 
Q 3706 609 3251 259 
Q 2797 -91 1919 -91 
Q 1588 -91 1214 -16 
Q 841 59 441 206 
L 441 856 
Q 825 641 1194 531 
Q 1563 422 1919 422 
Q 2459 422 2753 634 
Q 3047 847 3047 1241 
Q 3047 1584 2836 1778 
Q 2625 1972 2144 2069 
L 1759 2144 
Q 1053 2284 737 2584 
Q 422 2884 422 3419 
Q 422 4038 858 4394 
Q 1294 4750 2059 4750 
Q 2388 4750 2728 4690 
Q 3069 4631 3425 4513 
z
" transform="scale(0.015625)"/>
       <path id="DejaVuSans-61" d="M 2194 1759 
Q 1497 1759 1228 1600 
Q 959 1441 959 1056 
Q 959 750 1161 570 
Q 1363 391 1709 391 
Q 2188 391 2477 730 
Q 2766 1069 2766 1631 
L 2766 1759 
L 2194 1759 
z
M 3341 1997 
L 3341 0 
L 2766 0 
L 2766 531 
Q 2569 213 2275 61 
Q 1981 -91 1556 -91 
Q 1019 -91 701 211 
Q 384 513 384 1019 
Q 384 1609 779 1909 
Q 1175 2209 1959 2209 
L 2766 2209 
L 2766 2266 
Q 2766 2663 2505 2880 
Q 2244 3097 1772 3097 
Q 1472 3097 1187 3025 
Q 903 2953 641 2809 
L 641 3341 
Q 956 3463 1253 3523 
Q 1550 3584 1831 3584 
Q 2591 3584 2966 3190 
Q 3341 2797 3341 1997 
z
" transform="scale(0.015625)"/>
       <path id="DejaVuSans-72" d="M 2631 2963 
Q 2534 3019 2420 3045 
Q 2306 3072 2169 3072 
Q 1681 3072 1420 2755 
Q 1159 2438 1159 1844 
L 1159 0 
L 581 0 
L 581 3500 
L 1159 3500 
L 1159 2956 
Q 1341 3275 1631 3429 
Q 1922 3584 2338 3584 
Q 2397 3584 2469 3576 
Q 2541 3569 2628 3553 
L 2631 2963 
z
" transform="scale(0.015625)"/>
      </defs>
      <use xlink:href="#DejaVuSans-53"/>
      <use xlink:href="#DejaVuSans-6f" transform="translate(63.476562 0)"/>
      <use xlink:href="#DejaVuSans-6c" transform="translate(124.658203 0)"/>
      <use xlink:href="#DejaVuSans-61" transform="translate(152.441406 0)"/>
      <use xlink:href="#DejaVuSans-72" transform="translate(213.720703 0)"/>
     </g>
    </g>
    <g id="patch_29">
     <path d="M 1373.084007 222.87123 
L 1405.084007 222.87123 
L 1405.084007 211.67123 
L 1373.084007 211.67123 
z
" style="fill: #8fc73e; stroke: #ffffff; stroke-linejoin: miter"/>
    </g>
    <g id="text_33">
     <!-- Eólica -->
     <g transform="translate(1417.884007 222.87123) scale(0.16 -0.16)">
      <defs>
       <path id="DejaVuSans-45" d="M 628 4666 
L 3578 4666 
L 3578 4134 
L 1259 4134 
L 1259 2753 
L 3481 2753 
L 3481 2222 
L 1259 2222 
L 1259 531 
L 3634 531 
L 3634 0 
L 628 0 
L 628 4666 
z
" transform="scale(0.015625)"/>
       <path id="DejaVuSans-f3" d="M 1959 3097 
Q 1497 3097 1228 2736 
Q 959 2375 959 1747 
Q 959 1119 1226 758 
Q 1494 397 1959 397 
Q 2419 397 2687 759 
Q 2956 1122 2956 1747 
Q 2956 2369 2687 2733 
Q 2419 3097 1959 3097 
z
M 1959 3584 
Q 2709 3584 3137 3096 
Q 3566 2609 3566 1747 
Q 3566 888 3137 398 
Q 2709 -91 1959 -91 
Q 1206 -91 779 398 
Q 353 888 353 1747 
Q 353 2609 779 3096 
Q 1206 3584 1959 3584 
z
M 2394 5119 
L 3016 5119 
L 1998 3944 
L 1519 3944 
L 2394 5119 
z
" transform="scale(0.015625)"/>
       <path id="DejaVuSans-63" d="M 3122 3366 
L 3122 2828 
Q 2878 2963 2633 3030 
Q 2388 3097 2138 3097 
Q 1578 3097 1268 2742 
Q 959 2388 959 1747 
Q 959 1106 1268 751 
Q 1578 397 2138 397 
Q 2388 397 2633 464 
Q 2878 531 3122 666 
L 3122 134 
Q 2881 22 2623 -34 
Q 2366 -91 2075 -91 
Q 1284 -91 818 406 
Q 353 903 353 1747 
Q 353 2603 823 3093 
Q 1294 3584 2113 3584 
Q 2378 3584 2631 3529 
Q 2884 3475 3122 3366 
z
" transform="scale(0.015625)"/>
      </defs>
      <use xlink:href="#DejaVuSans-45"/>
      <use xlink:href="#DejaVuSans-f3" transform="translate(63.183594 0)"/>
      <use xlink:href="#DejaVuSans-6c" transform="translate(124.365234 0)"/>
      <use xlink:href="#DejaVuSans-69" transform="translate(152.148438 0)"/>
      <use xlink:href="#DejaVuSans-63" transform="translate(179.931641 0)"/>
      <use xlink:href="#DejaVuSans-61" transform="translate(234.912109 0)"/>
     </g>
    </g>
    <g id="patch_30">
     <path d="M 1373.084007 246.35623 
L 1405.084007 246.35623 
L 1405.084007 235.15623 
L 1373.084007 235.15623 
z
" style="fill: #207653; stroke: #ffffff; stroke-linejoin: miter"/>
    </g>
    <g id="text_34">
     <!-- Hidro -->
     <g transform="translate(1417.884007 246.35623) scale(0.16 -0.16)">
      <defs>
       <path id="DejaVuSans-48" d="M 628 4666 
L 1259 4666 
L 1259 2753 
L 3553 2753 
L 3553 4666 
L 4184 4666 
L 4184 0 
L 3553 0 
L 3553 2222 
L 1259 2222 
L 1259 0 
L 628 0 
L 628 4666 
z
" transform="scale(0.015625)"/>
       <path id="DejaVuSans-64" d="M 2906 2969 
L 2906 4863 
L 3481 4863 
L 3481 0 
L 2906 0 
L 2906 525 
Q 2725 213 2448 61 
Q 2172 -91 1784 -91 
Q 1150 -91 751 415 
Q 353 922 353 1747 
Q 353 2572 751 3078 
Q 1150 3584 1784 3584 
Q 2172 3584 2448 3432 
Q 2725 3281 2906 2969 
z
M 947 1747 
Q 947 1113 1208 752 
Q 1469 391 1925 391 
Q 2381 391 2643 752 
Q 2906 1113 2906 1747 
Q 2906 2381 2643 2742 
Q 2381 3103 1925 3103 
Q 1469 3103 1208 2742 
Q 947 2381 947 1747 
z
" transform="scale(0.015625)"/>
      </defs>
      <use xlink:href="#DejaVuSans-48"/>
      <use xlink:href="#DejaVuSans-69" transform="translate(75.195312 0)"/>
      <use xlink:href="#DejaVuSans-64" transform="translate(102.978516 0)"/>
      <use xlink:href="#DejaVuSans-72" transform="translate(166.455078 0)"/>
      <use xlink:href="#DejaVuSans-6f" transform="translate(205.318359 0)"/>
     </g>
    </g>
    <g id="patch_31">
     <path d="M 1373.084007 269.84123 
L 1405.084007 269.84123 
L 1405.084007 258.64123 
L 1373.084007 258.64123 
z
" style="fill: url(#h118a686717); stroke: #ffffff; stroke-linejoin: miter"/>
    </g>
    <g id="text_35">
     <!-- Solar Dist -->
     <g transform="translate(1417.884007 269.84123) scale(0.16 -0.16)">
      <defs>
       <path id="DejaVuSans-20" transform="scale(0.015625)"/>
       <path id="DejaVuSans-44" d="M 1259 4147 
L 1259 519 
L 2022 519 
Q 2988 519 3436 956 
Q 3884 1394 3884 2338 
Q 3884 3275 3436 3711 
Q 2988 4147 2022 4147 
L 1259 4147 
z
M 628 4666 
L 1925 4666 
Q 3281 4666 3915 4102 
Q 4550 3538 4550 2338 
Q 4550 1131 3912 565 
Q 3275 0 1925 0 
L 628 0 
L 628 4666 
z
" transform="scale(0.015625)"/>
       <path id="DejaVuSans-74" d="M 1172 4494 
L 1172 3500 
L 2356 3500 
L 2356 3053 
L 1172 3053 
L 1172 1153 
Q 1172 725 1289 603 
Q 1406 481 1766 481 
L 2356 481 
L 2356 0 
L 1766 0 
Q 1100 0 847 248 
Q 594 497 594 1153 
L 594 3053 
L 172 3053 
L 172 3500 
L 594 3500 
L 594 4494 
L 1172 4494 
z
" transform="scale(0.015625)"/>
      </defs>
      <use xlink:href="#DejaVuSans-53"/>
      <use xlink:href="#DejaVuSans-6f" transform="translate(63.476562 0)"/>
      <use xlink:href="#DejaVuSans-6c" transform="translate(124.658203 0)"/>
      <use xlink:href="#DejaVuSans-61" transform="translate(152.441406 0)"/>
      <use xlink:href="#DejaVuSans-72" transform="translate(213.720703 0)"/>
      <use xlink:href="#DejaVuSans-20" transform="translate(254.833984 0)"/>
      <use xlink:href="#DejaVuSans-44" transform="translate(286.621094 0)"/>
      <use xlink:href="#DejaVuSans-69" transform="translate(363.623047 0)"/>
      <use xlink:href="#DejaVuSans-73" transform="translate(391.40625 0)"/>
      <use xlink:href="#DejaVuSans-74" transform="translate(443.505859 0)"/>
     </g>
    </g>
   </g>
  </g>
 </g>
 <defs>
  <pattern id="h118a686717" patternUnits="userSpaceOnUse" x="0" y="0" width="72" height="72">
   <rect x="0" y="0" width="73" height="73" fill="#fbaa1b"/>
   <path d="M -36 36 
L 36 -36 
M -24 48 
L 48 -24 
M -12 60 
L 60 -12 
M 0 72 
L 72 0 
M 12 84 
L 84 12 
M 24 96 
L 96 24 
M 36 108 
L 108 36 
" style="fill: #ffffff; stroke: #ffffff; stroke-width: 1.0; stroke-linecap: butt; stroke-linejoin: miter"/>
  </pattern>
 </defs>
</svg>
