<?xml version="1.0" encoding="utf-8" standalone="no"?>
<!DOCTYPE svg PUBLIC "-//W3C//DTD SVG 1.1//EN"
  "http://www.w3.org/Graphics/SVG/1.1/DTD/svg11.dtd">
<svg xmlns:xlink="http://www.w3.org/1999/xlink" width="1508.716507pt" height="337.381641pt" viewBox="0 0 1508.716507 337.381641" xmlns="http://www.w3.org/2000/svg" version="1.1">
 <metadata>
  <rdf:RDF xmlns:dc="http://purl.org/dc/elements/1.1/" xmlns:cc="http://creativecommons.org/ns#" xmlns:rdf="http://www.w3.org/1999/02/22-rdf-syntax-ns#">
   <cc:Work>
    <dc:type rdf:resource="http://purl.org/dc/dcmitype/StillImage"/>
    <dc:date>2026-04-23T11:50:04.452279</dc:date>
    <dc:format>image/svg+xml</dc:format>
    <dc:creator>
     <cc:Agent>
      <dc:title>Matplotlib v3.10.3, https://matplotlib.org/</dc:title>
     </cc:Agent>
    </dc:creator>
   </cc:Work>
  </rdf:RDF>
 </metadata>
 <defs>
  <style type="text/css">*{stroke-linejoin: round; stroke-linecap: butt}</style>
 </defs>
 <g id="figure_1">
  <g id="patch_1">
   <path d="M 0 337.381641 
L 1508.716507 337.381641 
L 1508.716507 -0 
L 0 -0 
z
" style="fill: #ffffff"/>
  </g>
  <g id="axes_1">
   <g id="patch_2">
    <path d="M 118.49625 88.608746 
C 102.445049 88.608746 86.613984 92.361794 72.270983 99.567304 
C 57.927982 106.772814 45.466462 117.233145 35.884481 130.110516 
C 26.3025 142.987887 19.862883 157.929083 17.081388 173.737446 
C 14.299893 189.545809 15.252813 205.787727 19.863827 221.162369 
C 24.474842 236.53701 32.617475 250.622659 43.639574 262.291181 
C 54.661673 273.959703 68.260909 282.891038 83.348106 288.369866 
C 98.435302 293.848694 114.596628 295.724736 130.537705 293.847736 
C 146.478782 291.970736 161.762357 286.392179 175.164354 277.558859 
L 132.445322 212.745142 
C 129.146369 214.919498 125.384258 216.292681 121.4603 216.754712 
C 117.536343 217.216743 113.558171 216.754948 109.844399 215.406313 
C 106.130628 214.057679 102.783123 211.859196 100.069991 208.986945 
C 97.356859 206.114693 95.352519 202.647456 94.2175 198.862929 
C 93.082481 195.078402 92.847916 191.080391 93.532592 187.189102 
C 94.217267 183.297813 95.802404 179.61998 98.161045 176.450166 
C 100.519687 173.280351 103.587138 170.705501 107.117723 168.931837 
C 110.648308 167.158173 114.545185 166.234345 118.49625 166.234345 
z
" style="fill: #a1140b; stroke: #ffffff; stroke-linejoin: miter"/>
   </g>
   <g id="patch_3">
    <path d="M 175.164367 277.558849 
C 181.270025 273.53458 186.929677 268.871344 192.047468 263.648128 
C 197.165258 258.424911 201.712142 252.671365 205.611092 246.484929 
L 139.939903 205.096175 
C 138.980162 206.61899 137.860929 208.035247 136.601165 209.320962 
C 135.341401 210.606677 133.948256 211.75455 132.445325 212.74514 
z
" style="fill: #fbaa1b; stroke: #ffffff; stroke-linejoin: miter"/>
   </g>
   <g id="patch_4">
    <path d="M 205.611092 246.484929 
C 210.653389 238.484363 214.569574 229.827179 217.249107 220.757784 
C 219.928641 211.688389 221.346052 202.292946 221.46133 192.836703 
L 143.8415 191.890458 
C 143.813124 194.218148 143.464223 196.530873 142.804646 198.763339 
C 142.145068 200.995806 141.181084 203.126805 139.939903 205.096175 
z
" style="fill: #8fc73e; stroke: #ffffff; stroke-linejoin: miter"/>
   </g>
   <g id="patch_5">
    <path d="M 221.46133 192.836703 
C 221.626819 179.261599 219.106042 165.78682 214.044381 153.189578 
C 208.98272 140.592337 201.479414 129.119578 191.96723 119.433029 
C 182.455046 109.74648 171.120458 102.036035 158.617227 96.746409 
C 146.113995 91.456783 132.687224 88.691678 119.111352 88.610582 
L 118.64766 166.234797 
C 121.989413 166.254759 125.294464 166.935401 128.372183 168.237462 
C 131.449901 169.539524 134.239954 171.43748 136.581414 173.821861 
C 138.922875 176.206242 140.769843 179.030306 142.01579 182.131165 
C 143.261737 185.232025 143.882236 188.548894 143.8415 191.890458 
z
" style="fill: #207653; stroke: #ffffff; stroke-linejoin: miter"/>
   </g>
   <g id="patch_6">
    <path d="M 119.111352 88.610582 
C 119.00883 88.609968 118.906308 88.609514 118.803785 88.609207 
C 118.701262 88.6089 118.598739 88.608746 118.496215 88.608746 
L 118.496241 166.234345 
C 118.521478 166.234345 118.546714 166.234383 118.571951 166.234459 
C 118.597187 166.234534 118.622424 166.234646 118.64766 166.234797 
z
" style="fill: url(#h851f612945); stroke: #ffffff; stroke-linejoin: miter"/>
   </g>
   <g id="matplotlib.axis_1"/>
   <g id="matplotlib.axis_2"/>
   <g id="text_1">
    <!-- 59.3% -->
    <g transform="translate(33.90305 213.745024) scale(0.16 -0.16)">
     <defs>
      <path id="DejaVuSans-35" d="M 691 4666 
L 3169 4666 
L 3169 4134 
L 1269 4134 
L 1269 2991 
Q 1406 3038 1543 3061 
Q 1681 3084 1819 3084 
Q 2600 3084 3056 2656 
Q 3513 2228 3513 1497 
Q 3513 744 3044 326 
Q 2575 -91 1722 -91 
Q 1428 -91 1123 -41 
Q 819 9 494 109 
L 494 744 
Q 775 591 1075 516 
Q 1375 441 1709 441 
Q 2250 441 2565 725 
Q 2881 1009 2881 1497 
Q 2881 1984 2565 2268 
Q 2250 2553 1709 2553 
Q 1456 2553 1204 2497 
Q 953 2441 691 2322 
L 691 4666 
z
" transform="scale(0.015625)"/>
      <path id="DejaVuSans-39" d="M 703 97 
L 703 672 
Q 941 559 1184 500 
Q 1428 441 1663 441 
Q 2288 441 2617 861 
Q 2947 1281 2994 2138 
Q 2813 1869 2534 1725 
Q 2256 1581 1919 1581 
Q 1219 1581 811 2004 
Q 403 2428 403 3163 
Q 403 3881 828 4315 
Q 1253 4750 1959 4750 
Q 2769 4750 3195 4129 
Q 3622 3509 3622 2328 
Q 3622 1225 3098 567 
Q 2575 -91 1691 -91 
Q 1453 -91 1209 -44 
Q 966 3 703 97 
z
M 1959 2075 
Q 2384 2075 2632 2365 
Q 2881 2656 2881 3163 
Q 2881 3666 2632 3958 
Q 2384 4250 1959 4250 
Q 1534 4250 1286 3958 
Q 1038 3666 1038 3163 
Q 1038 2656 1286 2365 
Q 1534 2075 1959 2075 
z
" transform="scale(0.015625)"/>
      <path id="DejaVuSans-2e" d="M 684 794 
L 1344 794 
L 1344 0 
L 684 0 
L 684 794 
z
" transform="scale(0.015625)"/>
      <path id="DejaVuSans-33" d="M 2597 2516 
Q 3050 2419 3304 2112 
Q 3559 1806 3559 1356 
Q 3559 666 3084 287 
Q 2609 -91 1734 -91 
Q 1441 -91 1130 -33 
Q 819 25 488 141 
L 488 750 
Q 750 597 1062 519 
Q 1375 441 1716 441 
Q 2309 441 2620 675 
Q 2931 909 2931 1356 
Q 2931 1769 2642 2001 
Q 2353 2234 1838 2234 
L 1294 2234 
L 1294 2753 
L 1863 2753 
Q 2328 2753 2575 2939 
Q 2822 3125 2822 3475 
Q 2822 3834 2567 4026 
Q 2313 4219 1838 4219 
Q 1578 4219 1281 4162 
Q 984 4106 628 3988 
L 628 4550 
Q 988 4650 1302 4700 
Q 1616 4750 1894 4750 
Q 2613 4750 3031 4423 
Q 3450 4097 3450 3541 
Q 3450 3153 3228 2886 
Q 3006 2619 2597 2516 
z
" transform="scale(0.015625)"/>
      <path id="DejaVuSans-25" d="M 4653 2053 
Q 4381 2053 4226 1822 
Q 4072 1591 4072 1178 
Q 4072 772 4226 539 
Q 4381 306 4653 306 
Q 4919 306 5073 539 
Q 5228 772 5228 1178 
Q 5228 1588 5073 1820 
Q 4919 2053 4653 2053 
z
M 4653 2450 
Q 5147 2450 5437 2106 
Q 5728 1763 5728 1178 
Q 5728 594 5436 251 
Q 5144 -91 4653 -91 
Q 4153 -91 3862 251 
Q 3572 594 3572 1178 
Q 3572 1766 3864 2108 
Q 4156 2450 4653 2450 
z
M 1428 4353 
Q 1159 4353 1004 4120 
Q 850 3888 850 3481 
Q 850 3069 1003 2837 
Q 1156 2606 1428 2606 
Q 1700 2606 1854 2837 
Q 2009 3069 2009 3481 
Q 2009 3884 1853 4118 
Q 1697 4353 1428 4353 
z
M 4250 4750 
L 4750 4750 
L 1831 -91 
L 1331 -91 
L 4250 4750 
z
M 1428 4750 
Q 1922 4750 2215 4408 
Q 2509 4066 2509 3481 
Q 2509 2891 2217 2550 
Q 1925 2209 1428 2209 
Q 931 2209 642 2551 
Q 353 2894 353 3481 
Q 353 4063 643 4406 
Q 934 4750 1428 4750 
z
" transform="scale(0.015625)"/>
     </defs>
     <use xlink:href="#DejaVuSans-35"/>
     <use xlink:href="#DejaVuSans-39" transform="translate(63.623047 0)"/>
     <use xlink:href="#DejaVuSans-2e" transform="translate(127.246094 0)"/>
     <use xlink:href="#DejaVuSans-33" transform="translate(159.033203 0)"/>
     <use xlink:href="#DejaVuSans-25" transform="translate(222.65625 0)"/>
    </g>
   </g>
   <g id="text_2">
    <!-- 6.8% -->
    <g transform="translate(142.303253 239.236448) scale(0.16 -0.16)">
     <defs>
      <path id="DejaVuSans-36" d="M 2113 2584 
Q 1688 2584 1439 2293 
Q 1191 2003 1191 1497 
Q 1191 994 1439 701 
Q 1688 409 2113 409 
Q 2538 409 2786 701 
Q 3034 994 3034 1497 
Q 3034 2003 2786 2293 
Q 2538 2584 2113 2584 
z
M 3366 4563 
L 3366 3988 
Q 3128 4100 2886 4159 
Q 2644 4219 2406 4219 
Q 1781 4219 1451 3797 
Q 1122 3375 1075 2522 
Q 1259 2794 1537 2939 
Q 1816 3084 2150 3084 
Q 2853 3084 3261 2657 
Q 3669 2231 3669 1497 
Q 3669 778 3244 343 
Q 2819 -91 2113 -91 
Q 1303 -91 875 529 
Q 447 1150 447 2328 
Q 447 3434 972 4092 
Q 1497 4750 2381 4750 
Q 2619 4750 2861 4703 
Q 3103 4656 3366 4563 
z
" transform="scale(0.015625)"/>
      <path id="DejaVuSans-38" d="M 2034 2216 
Q 1584 2216 1326 1975 
Q 1069 1734 1069 1313 
Q 1069 891 1326 650 
Q 1584 409 2034 409 
Q 2484 409 2743 651 
Q 3003 894 3003 1313 
Q 3003 1734 2745 1975 
Q 2488 2216 2034 2216 
z
M 1403 2484 
Q 997 2584 770 2862 
Q 544 3141 544 3541 
Q 544 4100 942 4425 
Q 1341 4750 2034 4750 
Q 2731 4750 3128 4425 
Q 3525 4100 3525 3541 
Q 3525 3141 3298 2862 
Q 3072 2584 2669 2484 
Q 3125 2378 3379 2068 
Q 3634 1759 3634 1313 
Q 3634 634 3220 271 
Q 2806 -91 2034 -91 
Q 1263 -91 848 271 
Q 434 634 434 1313 
Q 434 1759 690 2068 
Q 947 2378 1403 2484 
z
M 1172 3481 
Q 1172 3119 1398 2916 
Q 1625 2713 2034 2713 
Q 2441 2713 2670 2916 
Q 2900 3119 2900 3481 
Q 2900 3844 2670 4047 
Q 2441 4250 2034 4250 
Q 1625 4250 1398 4047 
Q 1172 3844 1172 3481 
z
" transform="scale(0.015625)"/>
     </defs>
     <use xlink:href="#DejaVuSans-36"/>
     <use xlink:href="#DejaVuSans-2e" transform="translate(63.623047 0)"/>
     <use xlink:href="#DejaVuSans-38" transform="translate(95.410156 0)"/>
     <use xlink:href="#DejaVuSans-25" transform="translate(159.033203 0)"/>
    </g>
   </g>
   <g id="text_3">
    <!-- 8.8% -->
    <g transform="translate(157.424215 213.502262) scale(0.16 -0.16)">
     <use xlink:href="#DejaVuSans-38"/>
     <use xlink:href="#DejaVuSans-2e" transform="translate(63.623047 0)"/>
     <use xlink:href="#DejaVuSans-38" transform="translate(95.410156 0)"/>
     <use xlink:href="#DejaVuSans-25" transform="translate(159.033203 0)"/>
    </g>
   </g>
   <g id="text_4">
    <!-- 25.1% -->
    <g transform="translate(137.165087 152.707408) scale(0.16 -0.16)">
     <defs>
      <path id="DejaVuSans-32" d="M 1228 531 
L 3431 531 
L 3431 0 
L 469 0 
L 469 531 
Q 828 903 1448 1529 
Q 2069 2156 2228 2338 
Q 2531 2678 2651 2914 
Q 2772 3150 2772 3378 
Q 2772 3750 2511 3984 
Q 2250 4219 1831 4219 
Q 1534 4219 1204 4116 
Q 875 4013 500 3803 
L 500 4441 
Q 881 4594 1212 4672 
Q 1544 4750 1819 4750 
Q 2544 4750 2975 4387 
Q 3406 4025 3406 3419 
Q 3406 3131 3298 2873 
Q 3191 2616 2906 2266 
Q 2828 2175 2409 1742 
Q 1991 1309 1228 531 
z
" transform="scale(0.015625)"/>
      <path id="DejaVuSans-31" d="M 794 531 
L 1825 531 
L 1825 4091 
L 703 3866 
L 703 4441 
L 1819 4666 
L 2450 4666 
L 2450 531 
L 3481 531 
L 3481 0 
L 794 0 
L 794 531 
z
" transform="scale(0.015625)"/>
     </defs>
     <use xlink:href="#DejaVuSans-32"/>
     <use xlink:href="#DejaVuSans-35" transform="translate(63.623047 0)"/>
     <use xlink:href="#DejaVuSans-2e" transform="translate(127.246094 0)"/>
     <use xlink:href="#DejaVuSans-31" transform="translate(159.033203 0)"/>
     <use xlink:href="#DejaVuSans-25" transform="translate(222.65625 0)"/>
    </g>
   </g>
   <g id="text_5">
    <!-- 0.1% -->
    <g transform="translate(98.356991 134.213115) scale(0.16 -0.16)">
     <defs>
      <path id="DejaVuSans-30" d="M 2034 4250 
Q 1547 4250 1301 3770 
Q 1056 3291 1056 2328 
Q 1056 1369 1301 889 
Q 1547 409 2034 409 
Q 2525 409 2770 889 
Q 3016 1369 3016 2328 
Q 3016 3291 2770 3770 
Q 2525 4250 2034 4250 
z
M 2034 4750 
Q 2819 4750 3233 4129 
Q 3647 3509 3647 2328 
Q 3647 1150 3233 529 
Q 2819 -91 2034 -91 
Q 1250 -91 836 529 
Q 422 1150 422 2328 
Q 422 3509 836 4129 
Q 1250 4750 2034 4750 
z
" transform="scale(0.015625)"/>
     </defs>
     <use xlink:href="#DejaVuSans-30"/>
     <use xlink:href="#DejaVuSans-2e" transform="translate(63.623047 0)"/>
     <use xlink:href="#DejaVuSans-31" transform="translate(95.410156 0)"/>
     <use xlink:href="#DejaVuSans-25" transform="translate(159.033203 0)"/>
    </g>
   </g>
   <g id="text_6">
    <!-- 2025 (4520 MW) -->
    <g transform="translate(7.2 86.569236) scale(0.24 -0.24)">
     <defs>
      <path id="DejaVuSans-Bold-32" d="M 1844 884 
L 3897 884 
L 3897 0 
L 506 0 
L 506 884 
L 2209 2388 
Q 2438 2594 2547 2791 
Q 2656 2988 2656 3200 
Q 2656 3528 2436 3728 
Q 2216 3928 1850 3928 
Q 1569 3928 1234 3808 
Q 900 3688 519 3450 
L 519 4475 
Q 925 4609 1322 4679 
Q 1719 4750 2100 4750 
Q 2938 4750 3402 4381 
Q 3866 4013 3866 3353 
Q 3866 2972 3669 2642 
Q 3472 2313 2841 1759 
L 1844 884 
z
" transform="scale(0.015625)"/>
      <path id="DejaVuSans-Bold-30" d="M 2944 2338 
Q 2944 3213 2780 3570 
Q 2616 3928 2228 3928 
Q 1841 3928 1675 3570 
Q 1509 3213 1509 2338 
Q 1509 1453 1675 1090 
Q 1841 728 2228 728 
Q 2613 728 2778 1090 
Q 2944 1453 2944 2338 
z
M 4147 2328 
Q 4147 1169 3647 539 
Q 3147 -91 2228 -91 
Q 1306 -91 806 539 
Q 306 1169 306 2328 
Q 306 3491 806 4120 
Q 1306 4750 2228 4750 
Q 3147 4750 3647 4120 
Q 4147 3491 4147 2328 
z
" transform="scale(0.015625)"/>
      <path id="DejaVuSans-Bold-35" d="M 678 4666 
L 3669 4666 
L 3669 3781 
L 1638 3781 
L 1638 3059 
Q 1775 3097 1914 3117 
Q 2053 3138 2203 3138 
Q 3056 3138 3531 2711 
Q 4006 2284 4006 1522 
Q 4006 766 3489 337 
Q 2972 -91 2053 -91 
Q 1656 -91 1267 -14 
Q 878 63 494 219 
L 494 1166 
Q 875 947 1217 837 
Q 1559 728 1863 728 
Q 2300 728 2551 942 
Q 2803 1156 2803 1522 
Q 2803 1891 2551 2103 
Q 2300 2316 1863 2316 
Q 1603 2316 1309 2248 
Q 1016 2181 678 2041 
L 678 4666 
z
" transform="scale(0.015625)"/>
      <path id="DejaVuSans-Bold-20" transform="scale(0.015625)"/>
      <path id="DejaVuSans-Bold-28" d="M 2413 -844 
L 1484 -844 
Q 1006 -72 778 623 
Q 550 1319 550 2003 
Q 550 2688 779 3389 
Q 1009 4091 1484 4856 
L 2413 4856 
Q 2013 4116 1813 3408 
Q 1613 2700 1613 2009 
Q 1613 1319 1811 609 
Q 2009 -100 2413 -844 
z
" transform="scale(0.015625)"/>
      <path id="DejaVuSans-Bold-34" d="M 2356 3675 
L 1038 1722 
L 2356 1722 
L 2356 3675 
z
M 2156 4666 
L 3494 4666 
L 3494 1722 
L 4159 1722 
L 4159 850 
L 3494 850 
L 3494 0 
L 2356 0 
L 2356 850 
L 288 850 
L 288 1881 
L 2156 4666 
z
" transform="scale(0.015625)"/>
      <path id="DejaVuSans-Bold-4d" d="M 588 4666 
L 2119 4666 
L 3181 2169 
L 4250 4666 
L 5778 4666 
L 5778 0 
L 4641 0 
L 4641 3413 
L 3566 897 
L 2803 897 
L 1728 3413 
L 1728 0 
L 588 0 
L 588 4666 
z
" transform="scale(0.015625)"/>
      <path id="DejaVuSans-Bold-57" d="M 191 4666 
L 1344 4666 
L 2150 1275 
L 2950 4666 
L 4109 4666 
L 4909 1275 
L 5716 4666 
L 6859 4666 
L 5759 0 
L 4372 0 
L 3525 3547 
L 2688 0 
L 1300 0 
L 191 4666 
z
" transform="scale(0.015625)"/>
      <path id="DejaVuSans-Bold-29" d="M 513 -844 
Q 913 -100 1113 609 
Q 1313 1319 1313 2009 
Q 1313 2700 1113 3408 
Q 913 4116 513 4856 
L 1441 4856 
Q 1916 4091 2145 3389 
Q 2375 2688 2375 2003 
Q 2375 1319 2147 623 
Q 1919 -72 1441 -844 
L 513 -844 
z
" transform="scale(0.015625)"/>
     </defs>
     <use xlink:href="#DejaVuSans-Bold-32"/>
     <use xlink:href="#DejaVuSans-Bold-30" transform="translate(69.580078 0)"/>
     <use xlink:href="#DejaVuSans-Bold-32" transform="translate(139.160156 0)"/>
     <use xlink:href="#DejaVuSans-Bold-35" transform="translate(208.740234 0)"/>
     <use xlink:href="#DejaVuSans-Bold-20" transform="translate(278.320312 0)"/>
     <use xlink:href="#DejaVuSans-Bold-28" transform="translate(313.134766 0)"/>
     <use xlink:href="#DejaVuSans-Bold-34" transform="translate(358.837891 0)"/>
     <use xlink:href="#DejaVuSans-Bold-35" transform="translate(428.417969 0)"/>
     <use xlink:href="#DejaVuSans-Bold-32" transform="translate(497.998047 0)"/>
     <use xlink:href="#DejaVuSans-Bold-30" transform="translate(567.578125 0)"/>
     <use xlink:href="#DejaVuSans-Bold-20" transform="translate(637.158203 0)"/>
     <use xlink:href="#DejaVuSans-Bold-4d" transform="translate(671.972656 0)"/>
     <use xlink:href="#DejaVuSans-Bold-57" transform="translate(771.484375 0)"/>
     <use xlink:href="#DejaVuSans-Bold-29" transform="translate(881.787109 0)"/>
    </g>
   </g>
  </g>
  <g id="axes_2">
   <g id="patch_7">
    <path d="M 368.937819 82.121464 
C 352.507958 82.121464 336.286977 85.820628 321.481538 92.943777 
C 306.676098 100.066927 293.662654 110.432944 283.409263 123.270711 
C 273.155871 136.108479 265.923243 151.091573 262.249406 167.105418 
C 258.575569 183.119263 258.553937 199.756677 262.186118 215.780022 
C 265.8183 231.803366 273.011941 246.805218 283.231914 259.669605 
C 293.451887 272.533993 306.43833 282.933815 321.225197 290.095441 
C 336.012063 297.257068 352.22337 300.9984 368.653174 301.041125 
C 385.082979 301.08385 401.313524 297.426881 416.137438 290.342256 
L 380.556186 215.891825 
C 376.907223 217.635732 372.912012 218.535909 368.867752 218.525392 
C 364.823493 218.514875 360.833017 217.593932 357.193173 215.83107 
C 353.553329 214.068208 350.356666 211.508252 347.84098 208.341634 
C 345.325295 205.175015 343.554552 201.482252 342.660477 197.538044 
C 341.766401 193.593836 341.771726 189.498472 342.676055 185.556603 
C 343.580385 181.614733 345.360724 177.926587 347.884636 174.766521 
C 350.408547 171.606455 353.611857 169.05482 357.256273 167.30143 
C 360.900688 165.548039 364.893545 164.637476 368.937819 164.637476 
z
" style="fill: #a1140b; stroke: #ffffff; stroke-linejoin: miter"/>
   </g>
   <g id="patch_8">
    <path d="M 416.137437 290.342254 
C 426.083719 285.588741 435.255074 279.359844 443.340664 271.866669 
C 451.426253 264.373495 458.333674 255.701675 463.828826 246.145124 
L 392.295605 205.01253 
C 390.942952 207.364912 389.242664 209.499514 387.252365 211.343988 
C 385.262066 213.188462 383.004502 214.721729 380.556186 215.891824 
z
" style="fill: #fbaa1b; stroke: #ffffff; stroke-linejoin: miter"/>
   </g>
   <g id="patch_9">
    <path d="M 463.828826 246.145124 
C 468.139898 238.647783 471.547279 230.665865 473.979607 222.366512 
C 476.411934 214.067159 477.852107 205.508704 478.269983 196.870367 
L 395.850351 192.88336 
C 395.74749 195.00972 395.392985 197.116416 394.794259 199.159334 
C 394.195532 201.202251 393.356792 203.167031 392.295605 205.01253 
z
" style="fill: #8fc73e; stroke: #ffffff; stroke-linejoin: miter"/>
   </g>
   <g id="patch_10">
    <path d="M 478.269983 196.870367 
C 479.607092 169.229531 470.413658 142.084483 452.555588 120.944638 
C 434.697518 99.804793 409.470653 86.204126 381.99509 82.903046 
L 372.151916 164.829865 
C 378.915132 165.642439 385.124821 168.990295 389.520654 174.19395 
C 393.916487 179.397604 396.179486 186.079462 395.850351 192.88336 
z
" style="fill: #207653; stroke: #ffffff; stroke-linejoin: miter"/>
   </g>
   <g id="patch_11">
    <path d="M 381.99509 82.903046 
C 379.829102 82.64281 377.655816 82.44738 375.478147 82.317031 
C 373.300479 82.186681 371.1194 82.121464 368.937834 82.121464 
L 368.937822 164.637476 
C 369.474823 164.637476 370.011704 164.653529 370.547746 164.685615 
C 371.083787 164.717701 371.61875 164.765807 372.151916 164.829865 
z
" style="fill: url(#h851f612945); stroke: #ffffff; stroke-linejoin: miter"/>
   </g>
   <g id="matplotlib.axis_3"/>
   <g id="matplotlib.axis_4"/>
   <g id="text_7">
    <!-- 57.1% -->
    <g transform="translate(279.473046 210.515595) scale(0.16 -0.16)">
     <defs>
      <path id="DejaVuSans-37" d="M 525 4666 
L 3525 4666 
L 3525 4397 
L 1831 0 
L 1172 0 
L 2766 4134 
L 525 4134 
L 525 4666 
z
" transform="scale(0.015625)"/>
     </defs>
     <use xlink:href="#DejaVuSans-35"/>
     <use xlink:href="#DejaVuSans-37" transform="translate(63.623047 0)"/>
     <use xlink:href="#DejaVuSans-2e" transform="translate(127.246094 0)"/>
     <use xlink:href="#DejaVuSans-31" transform="translate(159.033203 0)"/>
     <use xlink:href="#DejaVuSans-25" transform="translate(222.65625 0)"/>
    </g>
   </g>
   <g id="text_8">
    <!-- 9.6% -->
    <g transform="translate(393.255798 244.167572) scale(0.16 -0.16)">
     <use xlink:href="#DejaVuSans-39"/>
     <use xlink:href="#DejaVuSans-2e" transform="translate(63.623047 0)"/>
     <use xlink:href="#DejaVuSans-36" transform="translate(95.410156 0)"/>
     <use xlink:href="#DejaVuSans-25" transform="translate(159.033203 0)"/>
    </g>
   </g>
   <g id="text_9">
    <!-- 7.5% -->
    <g transform="translate(411.63914 214.467499) scale(0.16 -0.16)">
     <use xlink:href="#DejaVuSans-37"/>
     <use xlink:href="#DejaVuSans-2e" transform="translate(63.623047 0)"/>
     <use xlink:href="#DejaVuSans-35" transform="translate(95.410156 0)"/>
     <use xlink:href="#DejaVuSans-25" transform="translate(159.033203 0)"/>
    </g>
   </g>
   <g id="text_10">
    <!-- 23.9% -->
    <g transform="translate(393.69471 153.61435) scale(0.16 -0.16)">
     <use xlink:href="#DejaVuSans-32"/>
     <use xlink:href="#DejaVuSans-33" transform="translate(63.623047 0)"/>
     <use xlink:href="#DejaVuSans-2e" transform="translate(127.246094 0)"/>
     <use xlink:href="#DejaVuSans-39" transform="translate(159.033203 0)"/>
     <use xlink:href="#DejaVuSans-25" transform="translate(222.65625 0)"/>
    </g>
   </g>
   <g id="text_11">
    <!-- 1.9% -->
    <g transform="translate(352.538235 130.43781) scale(0.16 -0.16)">
     <use xlink:href="#DejaVuSans-31"/>
     <use xlink:href="#DejaVuSans-2e" transform="translate(63.623047 0)"/>
     <use xlink:href="#DejaVuSans-39" transform="translate(95.410156 0)"/>
     <use xlink:href="#DejaVuSans-25" transform="translate(159.033203 0)"/>
    </g>
   </g>
   <g id="text_12">
    <!-- TEN  -->
    <g transform="translate(338.334069 53.456715) scale(0.24 -0.24)">
     <defs>
      <path id="DejaVuSans-Bold-54" d="M 31 4666 
L 4331 4666 
L 4331 3756 
L 2784 3756 
L 2784 0 
L 1581 0 
L 1581 3756 
L 31 3756 
L 31 4666 
z
" transform="scale(0.015625)"/>
      <path id="DejaVuSans-Bold-45" d="M 588 4666 
L 3834 4666 
L 3834 3756 
L 1791 3756 
L 1791 2888 
L 3713 2888 
L 3713 1978 
L 1791 1978 
L 1791 909 
L 3903 909 
L 3903 0 
L 588 0 
L 588 4666 
z
" transform="scale(0.015625)"/>
      <path id="DejaVuSans-Bold-4e" d="M 588 4666 
L 1931 4666 
L 3628 1466 
L 3628 4666 
L 4769 4666 
L 4769 0 
L 3425 0 
L 1728 3200 
L 1728 0 
L 588 0 
L 588 4666 
z
" transform="scale(0.015625)"/>
     </defs>
     <use xlink:href="#DejaVuSans-Bold-54"/>
     <use xlink:href="#DejaVuSans-Bold-45" transform="translate(68.212891 0)"/>
     <use xlink:href="#DejaVuSans-Bold-4e" transform="translate(136.523438 0)"/>
     <use xlink:href="#DejaVuSans-Bold-20" transform="translate(220.214844 0)"/>
    </g>
    <!--  2050 (5250 MW) -->
    <g transform="translate(253.464069 80.331465) scale(0.24 -0.24)">
     <use xlink:href="#DejaVuSans-Bold-20"/>
     <use xlink:href="#DejaVuSans-Bold-32" transform="translate(34.814453 0)"/>
     <use xlink:href="#DejaVuSans-Bold-30" transform="translate(104.394531 0)"/>
     <use xlink:href="#DejaVuSans-Bold-35" transform="translate(173.974609 0)"/>
     <use xlink:href="#DejaVuSans-Bold-30" transform="translate(243.554688 0)"/>
     <use xlink:href="#DejaVuSans-Bold-20" transform="translate(313.134766 0)"/>
     <use xlink:href="#DejaVuSans-Bold-28" transform="translate(347.949219 0)"/>
     <use xlink:href="#DejaVuSans-Bold-35" transform="translate(393.652344 0)"/>
     <use xlink:href="#DejaVuSans-Bold-32" transform="translate(463.232422 0)"/>
     <use xlink:href="#DejaVuSans-Bold-35" transform="translate(532.8125 0)"/>
     <use xlink:href="#DejaVuSans-Bold-30" transform="translate(602.392578 0)"/>
     <use xlink:href="#DejaVuSans-Bold-20" transform="translate(671.972656 0)"/>
     <use xlink:href="#DejaVuSans-Bold-4d" transform="translate(706.787109 0)"/>
     <use xlink:href="#DejaVuSans-Bold-57" transform="translate(806.298828 0)"/>
     <use xlink:href="#DejaVuSans-Bold-29" transform="translate(916.601562 0)"/>
    </g>
   </g>
  </g>
  <g id="axes_3">
   <g id="patch_12">
    <path d="M 634.429248 72.956891 
C 603.789929 72.956891 574.311372 84.827548 552.22235 106.060611 
C 530.133328 127.293674 517.107514 156.280326 515.897241 186.895732 
C 514.686968 217.511138 525.383938 247.435587 545.727899 270.346089 
C 566.07186 293.256592 594.521361 307.417232 625.065067 309.835888 
L 632.124219 220.690257 
C 624.605768 220.094896 617.602814 216.6092 612.59507 210.969691 
C 607.587326 205.330183 604.954225 197.964165 605.252139 190.428065 
C 605.550052 182.891965 608.756406 175.756789 614.193704 170.530189 
C 619.631002 165.303589 626.887262 162.381581 634.429248 162.381581 
z
" style="fill: #a1140b; stroke: #ffffff; stroke-linejoin: miter"/>
   </g>
   <g id="patch_13">
    <path d="M 625.065059 309.835888 
C 635.22866 310.640711 645.453775 310.131884 655.487263 308.322014 
C 665.520751 306.512145 675.27915 303.416293 684.520988 299.111061 
L 646.759522 218.0503 
C 644.484609 219.110049 642.082541 219.872105 639.61276 220.317611 
C 637.142978 220.763118 634.626026 220.888367 632.124217 220.690257 
z
" style="fill: #fbaa1b; stroke: #ffffff; stroke-linejoin: miter"/>
   </g>
   <g id="patch_14">
    <path d="M 684.520988 299.111061 
C 691.772847 295.732846 698.664403 291.62967 705.090327 286.864243 
C 711.516251 282.098816 717.443656 276.695538 722.781948 270.736979 
L 656.177605 211.06591 
C 654.863564 212.532632 653.40451 213.86267 651.822744 215.035698 
C 650.240979 216.208727 648.544595 217.218739 646.759522 218.0503 
z
" style="fill: #8fc73e; stroke: #ffffff; stroke-linejoin: miter"/>
   </g>
   <g id="patch_15">
    <path d="M 722.781948 270.736979 
C 739.816403 251.723266 750.266474 227.709357 752.569941 202.285197 
C 754.873407 176.861037 748.909454 151.359989 735.569673 129.59433 
L 659.325353 176.323104 
C 662.608991 181.680805 664.077041 187.957986 663.510034 194.216241 
C 662.943027 200.474496 660.370702 206.385612 656.177605 211.06591 
z
" style="fill: #207653; stroke: #ffffff; stroke-linejoin: miter"/>
   </g>
   <g id="patch_16">
    <path d="M 735.569673 129.59433 
C 724.965031 112.29142 710.095496 97.995895 692.388715 88.080303 
C 674.681934 78.16471 654.723332 72.956891 634.429265 72.956891 
L 634.429252 162.381581 
C 639.424715 162.381581 644.337602 163.663506 648.696194 166.104267 
C 653.054786 168.545028 656.714979 172.063927 659.325353 176.323104 
z
" style="fill: url(#h851f612945); stroke: #ffffff; stroke-linejoin: miter"/>
   </g>
   <g id="matplotlib.axis_5"/>
   <g id="matplotlib.axis_6"/>
   <g id="text_13">
    <!-- 48.7% -->
    <g transform="translate(537.896294 193.185034) scale(0.16 -0.16)">
     <defs>
      <path id="DejaVuSans-34" d="M 2419 4116 
L 825 1625 
L 2419 1625 
L 2419 4116 
z
M 2253 4666 
L 3047 4666 
L 3047 1625 
L 3713 1625 
L 3713 1100 
L 3047 1100 
L 3047 0 
L 2419 0 
L 2419 1100 
L 313 1100 
L 313 1709 
L 2253 4666 
z
" transform="scale(0.015625)"/>
     </defs>
     <use xlink:href="#DejaVuSans-34"/>
     <use xlink:href="#DejaVuSans-38" transform="translate(63.623047 0)"/>
     <use xlink:href="#DejaVuSans-2e" transform="translate(127.246094 0)"/>
     <use xlink:href="#DejaVuSans-37" transform="translate(159.033203 0)"/>
     <use xlink:href="#DejaVuSans-25" transform="translate(222.65625 0)"/>
    </g>
   </g>
   <g id="text_14">
    <!-- 8.2% -->
    <g transform="translate(626.740307 266.040802) scale(0.16 -0.16)">
     <use xlink:href="#DejaVuSans-38"/>
     <use xlink:href="#DejaVuSans-2e" transform="translate(63.623047 0)"/>
     <use xlink:href="#DejaVuSans-32" transform="translate(95.410156 0)"/>
     <use xlink:href="#DejaVuSans-25" transform="translate(159.033203 0)"/>
    </g>
   </g>
   <g id="text_15">
    <!-- 6.4% -->
    <g transform="translate(656.502172 253.166118) scale(0.16 -0.16)">
     <use xlink:href="#DejaVuSans-36"/>
     <use xlink:href="#DejaVuSans-2e" transform="translate(63.623047 0)"/>
     <use xlink:href="#DejaVuSans-34" transform="translate(95.410156 0)"/>
     <use xlink:href="#DejaVuSans-25" transform="translate(159.033203 0)"/>
    </g>
   </g>
   <g id="text_16">
    <!-- 20.4% -->
    <g transform="translate(679.899914 202.41871) scale(0.16 -0.16)">
     <use xlink:href="#DejaVuSans-32"/>
     <use xlink:href="#DejaVuSans-30" transform="translate(63.623047 0)"/>
     <use xlink:href="#DejaVuSans-2e" transform="translate(127.246094 0)"/>
     <use xlink:href="#DejaVuSans-34" transform="translate(159.033203 0)"/>
     <use xlink:href="#DejaVuSans-25" transform="translate(222.65625 0)"/>
    </g>
   </g>
   <g id="text_17">
    <!-- 16.2% -->
    <g transform="translate(643.79115 133.895759) scale(0.16 -0.16)">
     <use xlink:href="#DejaVuSans-31"/>
     <use xlink:href="#DejaVuSans-36" transform="translate(63.623047 0)"/>
     <use xlink:href="#DejaVuSans-2e" transform="translate(127.246094 0)"/>
     <use xlink:href="#DejaVuSans-32" transform="translate(159.033203 0)"/>
     <use xlink:href="#DejaVuSans-25" transform="translate(222.65625 0)"/>
    </g>
   </g>
   <g id="text_18">
    <!-- TEN-GD  -->
    <g transform="translate(579.034248 44.644625) scale(0.24 -0.24)">
     <defs>
      <path id="DejaVuSans-Bold-2d" d="M 347 2297 
L 2309 2297 
L 2309 1388 
L 347 1388 
L 347 2297 
z
" transform="scale(0.015625)"/>
      <path id="DejaVuSans-Bold-47" d="M 4781 347 
Q 4331 128 3847 18 
Q 3363 -91 2847 -91 
Q 1681 -91 1000 561 
Q 319 1213 319 2328 
Q 319 3456 1012 4103 
Q 1706 4750 2913 4750 
Q 3378 4750 3804 4662 
Q 4231 4575 4609 4403 
L 4609 3438 
Q 4219 3659 3833 3768 
Q 3447 3878 3059 3878 
Q 2341 3878 1952 3476 
Q 1563 3075 1563 2328 
Q 1563 1588 1938 1184 
Q 2313 781 3003 781 
Q 3191 781 3352 804 
Q 3513 828 3641 878 
L 3641 1784 
L 2906 1784 
L 2906 2591 
L 4781 2591 
L 4781 347 
z
" transform="scale(0.015625)"/>
      <path id="DejaVuSans-Bold-44" d="M 1791 3756 
L 1791 909 
L 2222 909 
Q 2959 909 3348 1275 
Q 3738 1641 3738 2338 
Q 3738 3031 3350 3393 
Q 2963 3756 2222 3756 
L 1791 3756 
z
M 588 4666 
L 1856 4666 
Q 2919 4666 3439 4514 
Q 3959 4363 4331 4000 
Q 4659 3684 4818 3271 
Q 4978 2859 4978 2338 
Q 4978 1809 4818 1395 
Q 4659 981 4331 666 
Q 3956 303 3431 151 
Q 2906 0 1856 0 
L 588 0 
L 588 4666 
z
" transform="scale(0.015625)"/>
     </defs>
     <use xlink:href="#DejaVuSans-Bold-54"/>
     <use xlink:href="#DejaVuSans-Bold-45" transform="translate(68.212891 0)"/>
     <use xlink:href="#DejaVuSans-Bold-4e" transform="translate(136.523438 0)"/>
     <use xlink:href="#DejaVuSans-Bold-2d" transform="translate(220.214844 0)"/>
     <use xlink:href="#DejaVuSans-Bold-47" transform="translate(261.71875 0)"/>
     <use xlink:href="#DejaVuSans-Bold-44" transform="translate(343.798828 0)"/>
     <use xlink:href="#DejaVuSans-Bold-20" transform="translate(426.806641 0)"/>
    </g>
    <!--  2050 (6154 MW) -->
    <g transform="translate(518.955498 71.519375) scale(0.24 -0.24)">
     <defs>
      <path id="DejaVuSans-Bold-36" d="M 2316 2303 
Q 2000 2303 1842 2098 
Q 1684 1894 1684 1484 
Q 1684 1075 1842 870 
Q 2000 666 2316 666 
Q 2634 666 2792 870 
Q 2950 1075 2950 1484 
Q 2950 1894 2792 2098 
Q 2634 2303 2316 2303 
z
M 3803 4544 
L 3803 3681 
Q 3506 3822 3243 3889 
Q 2981 3956 2731 3956 
Q 2194 3956 1894 3657 
Q 1594 3359 1544 2772 
Q 1750 2925 1990 3001 
Q 2231 3078 2516 3078 
Q 3231 3078 3670 2659 
Q 4109 2241 4109 1563 
Q 4109 813 3618 361 
Q 3128 -91 2303 -91 
Q 1394 -91 895 523 
Q 397 1138 397 2266 
Q 397 3422 980 4083 
Q 1563 4744 2578 4744 
Q 2900 4744 3203 4694 
Q 3506 4644 3803 4544 
z
" transform="scale(0.015625)"/>
      <path id="DejaVuSans-Bold-31" d="M 750 831 
L 1813 831 
L 1813 3847 
L 722 3622 
L 722 4441 
L 1806 4666 
L 2950 4666 
L 2950 831 
L 4013 831 
L 4013 0 
L 750 0 
L 750 831 
z
" transform="scale(0.015625)"/>
     </defs>
     <use xlink:href="#DejaVuSans-Bold-20"/>
     <use xlink:href="#DejaVuSans-Bold-32" transform="translate(34.814453 0)"/>
     <use xlink:href="#DejaVuSans-Bold-30" transform="translate(104.394531 0)"/>
     <use xlink:href="#DejaVuSans-Bold-35" transform="translate(173.974609 0)"/>
     <use xlink:href="#DejaVuSans-Bold-30" transform="translate(243.554688 0)"/>
     <use xlink:href="#DejaVuSans-Bold-20" transform="translate(313.134766 0)"/>
     <use xlink:href="#DejaVuSans-Bold-28" transform="translate(347.949219 0)"/>
     <use xlink:href="#DejaVuSans-Bold-36" transform="translate(393.652344 0)"/>
     <use xlink:href="#DejaVuSans-Bold-31" transform="translate(463.232422 0)"/>
     <use xlink:href="#DejaVuSans-Bold-35" transform="translate(532.8125 0)"/>
     <use xlink:href="#DejaVuSans-Bold-34" transform="translate(602.392578 0)"/>
     <use xlink:href="#DejaVuSans-Bold-20" transform="translate(671.972656 0)"/>
     <use xlink:href="#DejaVuSans-Bold-4d" transform="translate(706.787109 0)"/>
     <use xlink:href="#DejaVuSans-Bold-57" transform="translate(806.298828 0)"/>
     <use xlink:href="#DejaVuSans-Bold-29" transform="translate(916.601562 0)"/>
    </g>
   </g>
  </g>
  <g id="axes_4">
   <g id="patch_17">
    <path d="M 920.3172 60.909081 
C 894.968872 60.909081 870.159954 68.284829 848.928729 82.133035 
C 827.697504 95.981242 810.94757 115.712531 800.730246 138.910462 
C 790.512922 162.108394 787.263056 187.785668 791.378651 212.797658 
C 795.494245 237.809647 806.800142 261.091846 823.911737 279.792944 
L 896.586624 213.295071 
C 892.374539 208.691724 889.59155 202.960721 888.57848 196.803924 
C 887.565411 190.647126 888.365378 184.326566 890.880411 178.616306 
C 893.395445 172.906046 897.518506 168.049114 902.744653 164.640324 
C 907.970801 161.231535 914.077611 159.415966 920.3172 159.415966 
z
" style="fill: #a1140b; stroke: #ffffff; stroke-linejoin: miter"/>
   </g>
   <g id="patch_18">
    <path d="M 823.911731 279.792936 
C 846.021345 303.956333 876.427238 318.945729 909.057594 321.767872 
C 941.687949 324.590015 974.215895 315.043662 1000.14587 295.035138 
L 939.967334 217.046995 
C 933.584571 221.972171 925.577692 224.322042 917.545605 223.627361 
C 909.513517 222.932679 902.028989 219.242982 896.586623 213.295069 
z
" style="fill: #fbaa1b; stroke: #ffffff; stroke-linejoin: miter"/>
   </g>
   <g id="patch_19">
    <path d="M 1000.14587 295.035138 
C 1013.974308 284.364604 1025.523934 271.028971 1034.110364 255.818478 
C 1042.696794 240.60798 1048.146979 223.829107 1050.137929 206.47624 
L 952.273072 195.247882 
C 951.782992 199.519357 950.441408 203.649541 948.327825 207.393664 
C 946.214242 211.137785 943.371257 214.420403 939.967334 217.046995 
z
" style="fill: #8fc73e; stroke: #ffffff; stroke-linejoin: miter"/>
   </g>
   <g id="patch_20">
    <path d="M 1050.137929 206.47624 
C 1052.128989 189.122432 1050.620329 171.544289 1045.701356 154.783541 
C 1040.782383 138.022792 1032.552223 122.417229 1021.498666 108.891778 
C 1010.445108 95.366327 996.790879 84.193533 981.345261 76.035597 
C 965.899643 67.877662 948.97393 62.898973 931.571176 61.394597 
L 923.087409 159.535478 
C 927.371164 159.905786 931.537494 161.131309 935.339492 163.139416 
C 939.14149 165.147524 942.502531 167.89775 945.223407 171.227092 
C 947.944282 174.556433 949.970168 178.397803 951.180992 182.523525 
C 952.391816 186.649248 952.763179 190.976176 952.273072 195.247882 
z
" style="fill: #207653; stroke: #ffffff; stroke-linejoin: miter"/>
   </g>
   <g id="patch_21">
    <path d="M 931.571176 61.394597 
C 929.700095 61.232849 927.825745 61.111462 925.949431 61.030515 
C 924.073118 60.949567 922.195277 60.909081 920.317218 60.909081 
L 920.317204 159.415966 
C 920.779496 159.415966 921.241734 159.425932 921.703595 159.445858 
C 922.165457 159.465783 922.626836 159.495663 923.087409 159.535478 
z
" style="fill: url(#h851f612945); stroke: #ffffff; stroke-linejoin: miter"/>
   </g>
   <g id="matplotlib.axis_7"/>
   <g id="matplotlib.axis_8"/>
   <g id="text_19">
    <!-- 36.8% -->
    <g transform="translate(823.151276 164.393873) scale(0.16 -0.16)">
     <use xlink:href="#DejaVuSans-33"/>
     <use xlink:href="#DejaVuSans-36" transform="translate(63.623047 0)"/>
     <use xlink:href="#DejaVuSans-2e" transform="translate(127.246094 0)"/>
     <use xlink:href="#DejaVuSans-38" transform="translate(159.033203 0)"/>
     <use xlink:href="#DejaVuSans-25" transform="translate(222.65625 0)"/>
    </g>
   </g>
   <g id="text_20">
    <!-- 23.7% -->
    <g transform="translate(888.147686 274.108316) scale(0.16 -0.16)">
     <use xlink:href="#DejaVuSans-32"/>
     <use xlink:href="#DejaVuSans-33" transform="translate(63.623047 0)"/>
     <use xlink:href="#DejaVuSans-2e" transform="translate(127.246094 0)"/>
     <use xlink:href="#DejaVuSans-37" transform="translate(159.033203 0)"/>
     <use xlink:href="#DejaVuSans-25" transform="translate(222.65625 0)"/>
    </g>
   </g>
   <g id="text_21">
    <!-- 12.7% -->
    <g transform="translate(963.179366 234.538646) scale(0.16 -0.16)">
     <use xlink:href="#DejaVuSans-31"/>
     <use xlink:href="#DejaVuSans-32" transform="translate(63.623047 0)"/>
     <use xlink:href="#DejaVuSans-2e" transform="translate(127.246094 0)"/>
     <use xlink:href="#DejaVuSans-37" transform="translate(159.033203 0)"/>
     <use xlink:href="#DejaVuSans-25" transform="translate(222.65625 0)"/>
    </g>
   </g>
   <g id="text_22">
    <!-- 25.4% -->
    <g transform="translate(955.612281 146.3826) scale(0.16 -0.16)">
     <use xlink:href="#DejaVuSans-32"/>
     <use xlink:href="#DejaVuSans-35" transform="translate(63.623047 0)"/>
     <use xlink:href="#DejaVuSans-2e" transform="translate(127.246094 0)"/>
     <use xlink:href="#DejaVuSans-34" transform="translate(159.033203 0)"/>
     <use xlink:href="#DejaVuSans-25" transform="translate(222.65625 0)"/>
    </g>
   </g>
   <g id="text_23">
    <!-- 1.4% -->
    <g transform="translate(903.372714 117.665899) scale(0.16 -0.16)">
     <use xlink:href="#DejaVuSans-31"/>
     <use xlink:href="#DejaVuSans-2e" transform="translate(63.623047 0)"/>
     <use xlink:href="#DejaVuSans-34" transform="translate(95.410156 0)"/>
     <use xlink:href="#DejaVuSans-25" transform="translate(159.033203 0)"/>
    </g>
   </g>
   <g id="text_24">
    <!-- ALT  -->
    <g transform="translate(893.000325 33.060193) scale(0.24 -0.24)">
     <defs>
      <path id="DejaVuSans-Bold-41" d="M 3419 850 
L 1538 850 
L 1241 0 
L 31 0 
L 1759 4666 
L 3194 4666 
L 4922 0 
L 3713 0 
L 3419 850 
z
M 1838 1716 
L 3116 1716 
L 2478 3572 
L 1838 1716 
z
" transform="scale(0.015625)"/>
      <path id="DejaVuSans-Bold-4c" d="M 588 4666 
L 1791 4666 
L 1791 909 
L 3903 909 
L 3903 0 
L 588 0 
L 588 4666 
z
" transform="scale(0.015625)"/>
     </defs>
     <use xlink:href="#DejaVuSans-Bold-41"/>
     <use xlink:href="#DejaVuSans-Bold-4c" transform="translate(77.392578 0)"/>
     <use xlink:href="#DejaVuSans-Bold-54" transform="translate(124.613281 0)"/>
     <use xlink:href="#DejaVuSans-Bold-20" transform="translate(192.826172 0)"/>
    </g>
    <!--  2050 (7286 MW) -->
    <g transform="translate(804.84345 59.934943) scale(0.24 -0.24)">
     <defs>
      <path id="DejaVuSans-Bold-37" d="M 428 4666 
L 3944 4666 
L 3944 3988 
L 2125 0 
L 953 0 
L 2675 3781 
L 428 3781 
L 428 4666 
z
" transform="scale(0.015625)"/>
      <path id="DejaVuSans-Bold-38" d="M 2228 2088 
Q 1891 2088 1709 1903 
Q 1528 1719 1528 1375 
Q 1528 1031 1709 848 
Q 1891 666 2228 666 
Q 2563 666 2741 848 
Q 2919 1031 2919 1375 
Q 2919 1722 2741 1905 
Q 2563 2088 2228 2088 
z
M 1350 2484 
Q 925 2613 709 2878 
Q 494 3144 494 3541 
Q 494 4131 934 4440 
Q 1375 4750 2228 4750 
Q 3075 4750 3515 4442 
Q 3956 4134 3956 3541 
Q 3956 3144 3739 2878 
Q 3522 2613 3097 2484 
Q 3572 2353 3814 2058 
Q 4056 1763 4056 1313 
Q 4056 619 3595 264 
Q 3134 -91 2228 -91 
Q 1319 -91 855 264 
Q 391 619 391 1313 
Q 391 1763 633 2058 
Q 875 2353 1350 2484 
z
M 1631 3419 
Q 1631 3141 1786 2991 
Q 1941 2841 2228 2841 
Q 2509 2841 2662 2991 
Q 2816 3141 2816 3419 
Q 2816 3697 2662 3845 
Q 2509 3994 2228 3994 
Q 1941 3994 1786 3844 
Q 1631 3694 1631 3419 
z
" transform="scale(0.015625)"/>
     </defs>
     <use xlink:href="#DejaVuSans-Bold-20"/>
     <use xlink:href="#DejaVuSans-Bold-32" transform="translate(34.814453 0)"/>
     <use xlink:href="#DejaVuSans-Bold-30" transform="translate(104.394531 0)"/>
     <use xlink:href="#DejaVuSans-Bold-35" transform="translate(173.974609 0)"/>
     <use xlink:href="#DejaVuSans-Bold-30" transform="translate(243.554688 0)"/>
     <use xlink:href="#DejaVuSans-Bold-20" transform="translate(313.134766 0)"/>
     <use xlink:href="#DejaVuSans-Bold-28" transform="translate(347.949219 0)"/>
     <use xlink:href="#DejaVuSans-Bold-37" transform="translate(393.652344 0)"/>
     <use xlink:href="#DejaVuSans-Bold-32" transform="translate(463.232422 0)"/>
     <use xlink:href="#DejaVuSans-Bold-38" transform="translate(532.8125 0)"/>
     <use xlink:href="#DejaVuSans-Bold-36" transform="translate(602.392578 0)"/>
     <use xlink:href="#DejaVuSans-Bold-20" transform="translate(671.972656 0)"/>
     <use xlink:href="#DejaVuSans-Bold-4d" transform="translate(706.787109 0)"/>
     <use xlink:href="#DejaVuSans-Bold-57" transform="translate(806.298828 0)"/>
     <use xlink:href="#DejaVuSans-Bold-29" transform="translate(916.601562 0)"/>
    </g>
   </g>
  </g>
  <g id="axes_5">
   <g id="patch_22">
    <path d="M 1225.413527 52.980181 
C 1201.516824 52.980181 1178.021384 59.160344 1157.217443 70.918253 
C 1136.413502 82.676163 1118.999721 99.616952 1106.673521 120.089305 
C 1094.347322 140.561657 1087.522656 163.878047 1086.864764 187.765692 
C 1086.206871 211.653337 1091.737846 235.310015 1102.918552 256.429774 
L 1195.260918 207.544137 
C 1192.508744 202.345427 1191.147273 196.522245 1191.309216 190.642209 
C 1191.471159 184.762173 1193.151076 179.022754 1196.185218 173.983406 
C 1199.219359 168.944058 1203.505828 164.774017 1208.626799 161.879762 
C 1213.747769 158.985508 1219.531262 157.464237 1225.413527 157.464237 
z
" style="fill: #a1140b; stroke: #ffffff; stroke-linejoin: miter"/>
   </g>
   <g id="patch_23">
    <path d="M 1102.918554 256.429778 
C 1117.352037 283.693856 1140.48288 305.374102 1168.623369 318.01406 
C 1196.763856 330.654019 1228.334623 333.544294 1258.302445 326.224113 
L 1233.509261 224.724282 
C 1226.132566 226.526172 1218.3613 225.81472 1211.434411 222.703346 
C 1204.507522 219.591971 1198.813775 214.255295 1195.260918 207.544138 
z
" style="fill: #fbaa1b; stroke: #ffffff; stroke-linejoin: miter"/>
   </g>
   <g id="patch_24">
    <path d="M 1258.302445 326.224113 
C 1274.310295 322.3139 1289.493303 315.580047 1303.137032 306.339391 
C 1316.780761 297.098735 1328.667811 285.498541 1338.238934 272.084575 
L 1253.185935 211.397626 
C 1250.829966 214.699526 1247.903923 217.554958 1244.545467 219.829581 
C 1241.18701 222.104204 1237.449654 223.761768 1233.509261 224.724282 
z
" style="fill: #8fc73e; stroke: #ffffff; stroke-linejoin: miter"/>
   </g>
   <g id="patch_25">
    <path d="M 1338.238934 272.084575 
C 1357.531009 245.046649 1366.475547 211.954493 1363.431555 178.879311 
C 1360.387553 145.804126 1345.553299 114.9004 1321.65034 91.837827 
L 1249.102588 167.029196 
C 1254.986394 172.706137 1258.637903 180.313208 1259.387195 188.454792 
C 1260.136486 196.596375 1257.934753 204.742137 1253.185935 211.397626 
z
" style="fill: #207653; stroke: #ffffff; stroke-linejoin: miter"/>
   </g>
   <g id="patch_26">
    <path d="M 1321.65034 91.837827 
C 1308.852343 79.489789 1293.796629 69.719536 1277.306343 63.061224 
C 1260.816058 56.402912 1243.19732 52.980181 1225.413546 52.980181 
L 1225.413532 157.464237 
C 1229.791076 157.464237 1234.127996 158.306755 1238.187143 159.945724 
C 1242.24629 161.584693 1245.952312 163.989679 1249.102588 167.029196 
z
" style="fill: url(#h851f612945); stroke: #ffffff; stroke-linejoin: miter"/>
   </g>
   <g id="matplotlib.axis_9"/>
   <g id="matplotlib.axis_10"/>
   <g id="text_25">
    <!-- 32.7% -->
    <g transform="translate(1128.755775 153.101173) scale(0.16 -0.16)">
     <use xlink:href="#DejaVuSans-33"/>
     <use xlink:href="#DejaVuSans-32" transform="translate(63.623047 0)"/>
     <use xlink:href="#DejaVuSans-2e" transform="translate(127.246094 0)"/>
     <use xlink:href="#DejaVuSans-37" transform="translate(159.033203 0)"/>
     <use xlink:href="#DejaVuSans-25" transform="translate(222.65625 0)"/>
    </g>
   </g>
   <g id="text_26">
    <!-- 21.1% -->
    <g transform="translate(1165.925683 271.85603) scale(0.16 -0.16)">
     <use xlink:href="#DejaVuSans-32"/>
     <use xlink:href="#DejaVuSans-31" transform="translate(63.623047 0)"/>
     <use xlink:href="#DejaVuSans-2e" transform="translate(127.246094 0)"/>
     <use xlink:href="#DejaVuSans-31" transform="translate(159.033203 0)"/>
     <use xlink:href="#DejaVuSans-25" transform="translate(222.65625 0)"/>
    </g>
   </g>
   <g id="text_27">
    <!-- 11.3% -->
    <g transform="translate(1246.633878 264.851224) scale(0.16 -0.16)">
     <use xlink:href="#DejaVuSans-31"/>
     <use xlink:href="#DejaVuSans-31" transform="translate(63.623047 0)"/>
     <use xlink:href="#DejaVuSans-2e" transform="translate(127.246094 0)"/>
     <use xlink:href="#DejaVuSans-33" transform="translate(159.033203 0)"/>
     <use xlink:href="#DejaVuSans-25" transform="translate(222.65625 0)"/>
    </g>
   </g>
   <g id="text_28">
    <!-- 22.6% -->
    <g transform="translate(1282.810588 188.375138) scale(0.16 -0.16)">
     <use xlink:href="#DejaVuSans-32"/>
     <use xlink:href="#DejaVuSans-32" transform="translate(63.623047 0)"/>
     <use xlink:href="#DejaVuSans-2e" transform="translate(127.246094 0)"/>
     <use xlink:href="#DejaVuSans-36" transform="translate(159.033203 0)"/>
     <use xlink:href="#DejaVuSans-25" transform="translate(222.65625 0)"/>
    </g>
   </g>
   <g id="text_29">
    <!-- 12.2% -->
    <g transform="translate(1231.135393 118.884298) scale(0.16 -0.16)">
     <use xlink:href="#DejaVuSans-31"/>
     <use xlink:href="#DejaVuSans-32" transform="translate(63.623047 0)"/>
     <use xlink:href="#DejaVuSans-2e" transform="translate(127.246094 0)"/>
     <use xlink:href="#DejaVuSans-32" transform="translate(159.033203 0)"/>
     <use xlink:href="#DejaVuSans-25" transform="translate(222.65625 0)"/>
    </g>
   </g>
   <g id="text_30">
    <!-- ALT-GD  -->
    <g transform="translate(1175.075402 25.43625) scale(0.24 -0.24)">
     <use xlink:href="#DejaVuSans-Bold-41"/>
     <use xlink:href="#DejaVuSans-Bold-4c" transform="translate(77.392578 0)"/>
     <use xlink:href="#DejaVuSans-Bold-54" transform="translate(124.613281 0)"/>
     <use xlink:href="#DejaVuSans-Bold-2d" transform="translate(178.076172 0)"/>
     <use xlink:href="#DejaVuSans-Bold-47" transform="translate(219.580078 0)"/>
     <use xlink:href="#DejaVuSans-Bold-44" transform="translate(301.660156 0)"/>
     <use xlink:href="#DejaVuSans-Bold-20" transform="translate(384.667969 0)"/>
    </g>
    <!--  2050 (8186 MW) -->
    <g transform="translate(1109.939777 52.311) scale(0.24 -0.24)">
     <use xlink:href="#DejaVuSans-Bold-20"/>
     <use xlink:href="#DejaVuSans-Bold-32" transform="translate(34.814453 0)"/>
     <use xlink:href="#DejaVuSans-Bold-30" transform="translate(104.394531 0)"/>
     <use xlink:href="#DejaVuSans-Bold-35" transform="translate(173.974609 0)"/>
     <use xlink:href="#DejaVuSans-Bold-30" transform="translate(243.554688 0)"/>
     <use xlink:href="#DejaVuSans-Bold-20" transform="translate(313.134766 0)"/>
     <use xlink:href="#DejaVuSans-Bold-28" transform="translate(347.949219 0)"/>
     <use xlink:href="#DejaVuSans-Bold-38" transform="translate(393.652344 0)"/>
     <use xlink:href="#DejaVuSans-Bold-31" transform="translate(463.232422 0)"/>
     <use xlink:href="#DejaVuSans-Bold-38" transform="translate(532.8125 0)"/>
     <use xlink:href="#DejaVuSans-Bold-36" transform="translate(602.392578 0)"/>
     <use xlink:href="#DejaVuSans-Bold-20" transform="translate(671.972656 0)"/>
     <use xlink:href="#DejaVuSans-Bold-4d" transform="translate(706.787109 0)"/>
     <use xlink:href="#DejaVuSans-Bold-57" transform="translate(806.298828 0)"/>
     <use xlink:href="#DejaVuSans-Bold-29" transform="translate(916.601562 0)"/>
    </g>
   </g>
   <g id="legend_1">
    <g id="patch_27">
     <path d="M 1373.084007 149.02648 
L 1405.084007 149.02648 
L 1405.084007 137.82648 
L 1373.084007 137.82648 
z
" style="fill: #a1140b; stroke: #ffffff; stroke-linejoin: miter"/>
    </g>
    <g id="text_31">
     <!-- Fosil -->
     <g transform="translate(1417.884007 149.02648) scale(0.16 -0.16)">
      <defs>
       <path id="DejaVuSans-46" d="M 628 4666 
L 3309 4666 
L 3309 4134 
L 1259 4134 
L 1259 2759 
L 3109 2759 
L 3109 2228 
L 1259 2228 
L 1259 0 
L 628 0 
L 628 4666 
z
" transform="scale(0.015625)"/>
       <path id="DejaVuSans-6f" d="M 1959 3097 
Q 1497 3097 1228 2736 
Q 959 2375 959 1747 
Q 959 1119 1226 758 
Q 1494 397 1959 397 
Q 2419 397 2687 759 
Q 2956 1122 2956 1747 
Q 2956 2369 2687 2733 
Q 2419 3097 1959 3097 
z
M 1959 3584 
Q 2709 3584 3137 3096 
Q 3566 2609 3566 1747 
Q 3566 888 3137 398 
Q 2709 -91 1959 -91 
Q 1206 -91 779 398 
Q 353 888 353 1747 
Q 353 2609 779 3096 
Q 1206 3584 1959 3584 
z
" transform="scale(0.015625)"/>
       <path id="DejaVuSans-73" d="M 2834 3397 
L 2834 2853 
Q 2591 2978 2328 3040 
Q 2066 3103 1784 3103 
Q 1356 3103 1142 2972 
Q 928 2841 928 2578 
Q 928 2378 1081 2264 
Q 1234 2150 1697 2047 
L 1894 2003 
Q 2506 1872 2764 1633 
Q 3022 1394 3022 966 
Q 3022 478 2636 193 
Q 2250 -91 1575 -91 
Q 1294 -91 989 -36 
Q 684 19 347 128 
L 347 722 
Q 666 556 975 473 
Q 1284 391 1588 391 
Q 1994 391 2212 530 
Q 2431 669 2431 922 
Q 2431 1156 2273 1281 
Q 2116 1406 1581 1522 
L 1381 1569 
Q 847 1681 609 1914 
Q 372 2147 372 2553 
Q 372 3047 722 3315 
Q 1072 3584 1716 3584 
Q 2034 3584 2315 3537 
Q 2597 3491 2834 3397 
z
" transform="scale(0.015625)"/>
       <path id="DejaVuSans-69" d="M 603 3500 
L 1178 3500 
L 1178 0 
L 603 0 
L 603 3500 
z
M 603 4863 
L 1178 4863 
L 1178 4134 
L 603 4134 
L 603 4863 
z
" transform="scale(0.015625)"/>
       <path id="DejaVuSans-6c" d="M 603 4863 
L 1178 4863 
L 1178 0 
L 603 0 
L 603 4863 
z
" transform="scale(0.015625)"/>
      </defs>
      <use xlink:href="#DejaVuSans-46"/>
      <use xlink:href="#DejaVuSans-6f" transform="translate(53.894531 0)"/>
      <use xlink:href="#DejaVuSans-73" transform="translate(115.076172 0)"/>
      <use xlink:href="#DejaVuSans-69" transform="translate(167.175781 0)"/>
      <use xlink:href="#DejaVuSans-6c" transform="translate(194.958984 0)"/>
     </g>
    </g>
    <g id="patch_28">
     <path d="M 1373.084007 172.51148 
L 1405.084007 172.51148 
L 1405.084007 161.31148 
L 1373.084007 161.31148 
z
" style="fill: #fbaa1b; stroke: #ffffff; stroke-linejoin: miter"/>
    </g>
    <g id="text_32">
     <!-- Solar -->
     <g transform="translate(1417.884007 172.51148) scale(0.16 -0.16)">
      <defs>
       <path id="DejaVuSans-53" d="M 3425 4513 
L 3425 3897 
Q 3066 4069 2747 4153 
Q 2428 4238 2131 4238 
Q 1616 4238 1336 4038 
Q 1056 3838 1056 3469 
Q 1056 3159 1242 3001 
Q 1428 2844 1947 2747 
L 2328 2669 
Q 3034 2534 3370 2195 
Q 3706 1856 3706 1288 
Q 3706 609 3251 259 
Q 2797 -91 1919 -91 
Q 1588 -91 1214 -16 
Q 841 59 441 206 
L 441 856 
Q 825 641 1194 531 
Q 1563 422 1919 422 
Q 2459 422 2753 634 
Q 3047 847 3047 1241 
Q 3047 1584 2836 1778 
Q 2625 1972 2144 2069 
L 1759 2144 
Q 1053 2284 737 2584 
Q 422 2884 422 3419 
Q 422 4038 858 4394 
Q 1294 4750 2059 4750 
Q 2388 4750 2728 4690 
Q 3069 4631 3425 4513 
z
" transform="scale(0.015625)"/>
       <path id="DejaVuSans-61" d="M 2194 1759 
Q 1497 1759 1228 1600 
Q 959 1441 959 1056 
Q 959 750 1161 570 
Q 1363 391 1709 391 
Q 2188 391 2477 730 
Q 2766 1069 2766 1631 
L 2766 1759 
L 2194 1759 
z
M 3341 1997 
L 3341 0 
L 2766 0 
L 2766 531 
Q 2569 213 2275 61 
Q 1981 -91 1556 -91 
Q 1019 -91 701 211 
Q 384 513 384 1019 
Q 384 1609 779 1909 
Q 1175 2209 1959 2209 
L 2766 2209 
L 2766 2266 
Q 2766 2663 2505 2880 
Q 2244 3097 1772 3097 
Q 1472 3097 1187 3025 
Q 903 2953 641 2809 
L 641 3341 
Q 956 3463 1253 3523 
Q 1550 3584 1831 3584 
Q 2591 3584 2966 3190 
Q 3341 2797 3341 1997 
z
" transform="scale(0.015625)"/>
       <path id="DejaVuSans-72" d="M 2631 2963 
Q 2534 3019 2420 3045 
Q 2306 3072 2169 3072 
Q 1681 3072 1420 2755 
Q 1159 2438 1159 1844 
L 1159 0 
L 581 0 
L 581 3500 
L 1159 3500 
L 1159 2956 
Q 1341 3275 1631 3429 
Q 1922 3584 2338 3584 
Q 2397 3584 2469 3576 
Q 2541 3569 2628 3553 
L 2631 2963 
z
" transform="scale(0.015625)"/>
      </defs>
      <use xlink:href="#DejaVuSans-53"/>
      <use xlink:href="#DejaVuSans-6f" transform="translate(63.476562 0)"/>
      <use xlink:href="#DejaVuSans-6c" transform="translate(124.658203 0)"/>
      <use xlink:href="#DejaVuSans-61" transform="translate(152.441406 0)"/>
      <use xlink:href="#DejaVuSans-72" transform="translate(213.720703 0)"/>
     </g>
    </g>
    <g id="patch_29">
     <path d="M 1373.084007 195.99648 
L 1405.084007 195.99648 
L 1405.084007 184.79648 
L 1373.084007 184.79648 
z
" style="fill: #8fc73e; stroke: #ffffff; stroke-linejoin: miter"/>
    </g>
    <g id="text_33">
     <!-- Eólica -->
     <g transform="translate(1417.884007 195.99648) scale(0.16 -0.16)">
      <defs>
       <path id="DejaVuSans-45" d="M 628 4666 
L 3578 4666 
L 3578 4134 
L 1259 4134 
L 1259 2753 
L 3481 2753 
L 3481 2222 
L 1259 2222 
L 1259 531 
L 3634 531 
L 3634 0 
L 628 0 
L 628 4666 
z
" transform="scale(0.015625)"/>
       <path id="DejaVuSans-f3" d="M 1959 3097 
Q 1497 3097 1228 2736 
Q 959 2375 959 1747 
Q 959 1119 1226 758 
Q 1494 397 1959 397 
Q 2419 397 2687 759 
Q 2956 1122 2956 1747 
Q 2956 2369 2687 2733 
Q 2419 3097 1959 3097 
z
M 1959 3584 
Q 2709 3584 3137 3096 
Q 3566 2609 3566 1747 
Q 3566 888 3137 398 
Q 2709 -91 1959 -91 
Q 1206 -91 779 398 
Q 353 888 353 1747 
Q 353 2609 779 3096 
Q 1206 3584 1959 3584 
z
M 2394 5119 
L 3016 5119 
L 1998 3944 
L 1519 3944 
L 2394 5119 
z
" transform="scale(0.015625)"/>
       <path id="DejaVuSans-63" d="M 3122 3366 
L 3122 2828 
Q 2878 2963 2633 3030 
Q 2388 3097 2138 3097 
Q 1578 3097 1268 2742 
Q 959 2388 959 1747 
Q 959 1106 1268 751 
Q 1578 397 2138 397 
Q 2388 397 2633 464 
Q 2878 531 3122 666 
L 3122 134 
Q 2881 22 2623 -34 
Q 2366 -91 2075 -91 
Q 1284 -91 818 406 
Q 353 903 353 1747 
Q 353 2603 823 3093 
Q 1294 3584 2113 3584 
Q 2378 3584 2631 3529 
Q 2884 3475 3122 3366 
z
" transform="scale(0.015625)"/>
      </defs>
      <use xlink:href="#DejaVuSans-45"/>
      <use xlink:href="#DejaVuSans-f3" transform="translate(63.183594 0)"/>
      <use xlink:href="#DejaVuSans-6c" transform="translate(124.365234 0)"/>
      <use xlink:href="#DejaVuSans-69" transform="translate(152.148438 0)"/>
      <use xlink:href="#DejaVuSans-63" transform="translate(179.931641 0)"/>
      <use xlink:href="#DejaVuSans-61" transform="translate(234.912109 0)"/>
     </g>
    </g>
    <g id="patch_30">
     <path d="M 1373.084007 219.48148 
L 1405.084007 219.48148 
L 1405.084007 208.28148 
L 1373.084007 208.28148 
z
" style="fill: #207653; stroke: #ffffff; stroke-linejoin: miter"/>
    </g>
    <g id="text_34">
     <!-- Hidro -->
     <g transform="translate(1417.884007 219.48148) scale(0.16 -0.16)">
      <defs>
       <path id="DejaVuSans-48" d="M 628 4666 
L 1259 4666 
L 1259 2753 
L 3553 2753 
L 3553 4666 
L 4184 4666 
L 4184 0 
L 3553 0 
L 3553 2222 
L 1259 2222 
L 1259 0 
L 628 0 
L 628 4666 
z
" transform="scale(0.015625)"/>
       <path id="DejaVuSans-64" d="M 2906 2969 
L 2906 4863 
L 3481 4863 
L 3481 0 
L 2906 0 
L 2906 525 
Q 2725 213 2448 61 
Q 2172 -91 1784 -91 
Q 1150 -91 751 415 
Q 353 922 353 1747 
Q 353 2572 751 3078 
Q 1150 3584 1784 3584 
Q 2172 3584 2448 3432 
Q 2725 3281 2906 2969 
z
M 947 1747 
Q 947 1113 1208 752 
Q 1469 391 1925 391 
Q 2381 391 2643 752 
Q 2906 1113 2906 1747 
Q 2906 2381 2643 2742 
Q 2381 3103 1925 3103 
Q 1469 3103 1208 2742 
Q 947 2381 947 1747 
z
" transform="scale(0.015625)"/>
      </defs>
      <use xlink:href="#DejaVuSans-48"/>
      <use xlink:href="#DejaVuSans-69" transform="translate(75.195312 0)"/>
      <use xlink:href="#DejaVuSans-64" transform="translate(102.978516 0)"/>
      <use xlink:href="#DejaVuSans-72" transform="translate(166.455078 0)"/>
      <use xlink:href="#DejaVuSans-6f" transform="translate(205.318359 0)"/>
     </g>
    </g>
    <g id="patch_31">
     <path d="M 1373.084007 242.96648 
L 1405.084007 242.96648 
L 1405.084007 231.76648 
L 1373.084007 231.76648 
z
" style="fill: url(#h851f612945); stroke: #ffffff; stroke-linejoin: miter"/>
    </g>
    <g id="text_35">
     <!-- Solar Dist -->
     <g transform="translate(1417.884007 242.96648) scale(0.16 -0.16)">
      <defs>
       <path id="DejaVuSans-20" transform="scale(0.015625)"/>
       <path id="DejaVuSans-44" d="M 1259 4147 
L 1259 519 
L 2022 519 
Q 2988 519 3436 956 
Q 3884 1394 3884 2338 
Q 3884 3275 3436 3711 
Q 2988 4147 2022 4147 
L 1259 4147 
z
M 628 4666 
L 1925 4666 
Q 3281 4666 3915 4102 
Q 4550 3538 4550 2338 
Q 4550 1131 3912 565 
Q 3275 0 1925 0 
L 628 0 
L 628 4666 
z
" transform="scale(0.015625)"/>
       <path id="DejaVuSans-74" d="M 1172 4494 
L 1172 3500 
L 2356 3500 
L 2356 3053 
L 1172 3053 
L 1172 1153 
Q 1172 725 1289 603 
Q 1406 481 1766 481 
L 2356 481 
L 2356 0 
L 1766 0 
Q 1100 0 847 248 
Q 594 497 594 1153 
L 594 3053 
L 172 3053 
L 172 3500 
L 594 3500 
L 594 4494 
L 1172 4494 
z
" transform="scale(0.015625)"/>
      </defs>
      <use xlink:href="#DejaVuSans-53"/>
      <use xlink:href="#DejaVuSans-6f" transform="translate(63.476562 0)"/>
      <use xlink:href="#DejaVuSans-6c" transform="translate(124.658203 0)"/>
      <use xlink:href="#DejaVuSans-61" transform="translate(152.441406 0)"/>
      <use xlink:href="#DejaVuSans-72" transform="translate(213.720703 0)"/>
      <use xlink:href="#DejaVuSans-20" transform="translate(254.833984 0)"/>
      <use xlink:href="#DejaVuSans-44" transform="translate(286.621094 0)"/>
      <use xlink:href="#DejaVuSans-69" transform="translate(363.623047 0)"/>
      <use xlink:href="#DejaVuSans-73" transform="translate(391.40625 0)"/>
      <use xlink:href="#DejaVuSans-74" transform="translate(443.505859 0)"/>
     </g>
    </g>
   </g>
  </g>
 </g>
 <defs>
  <pattern id="h851f612945" patternUnits="userSpaceOnUse" x="0" y="0" width="72" height="72">
   <rect x="0" y="0" width="73" height="73" fill="#fbaa1b"/>
   <path d="M -36 36 
L 36 -36 
M -24 48 
L 48 -24 
M -12 60 
L 60 -12 
M 0 72 
L 72 0 
M 12 84 
L 84 12 
M 24 96 
L 96 24 
M 36 108 
L 108 36 
" style="fill: #ffffff; stroke: #ffffff; stroke-width: 1.0; stroke-linecap: butt; stroke-linejoin: miter"/>
  </pattern>
 </defs>
</svg>
