<?xml version="1.0" encoding="UTF-8" standalone="no"?>
<!-- Generated by graphviz version 2.43.0 (0)
 -->

<!-- Title: tree Pages: 1 -->

<svg
   width="776pt"
   height="140pt"
   viewBox="0 0 775.5 140"
   version="1.1"
   id="svg1306"
   sodipodi:docname="tree-demanda.svg"
   inkscape:version="1.1.2 (0a00cf5339, 2022-02-04)"
   xmlns:inkscape="http://www.inkscape.org/namespaces/inkscape"
   xmlns:sodipodi="http://sodipodi.sourceforge.net/DTD/sodipodi-0.dtd"
   xmlns="http://www.w3.org/2000/svg"
   xmlns:svg="http://www.w3.org/2000/svg">
  <defs
     id="defs1310" />
  <sodipodi:namedview
     id="namedview1308"
     pagecolor="#ffffff"
     bordercolor="#666666"
     borderopacity="1.0"
     inkscape:pageshadow="2"
     inkscape:pageopacity="0.0"
     inkscape:pagecheckerboard="0"
     inkscape:document-units="pt"
     showgrid="false"
     objecttolerance="10000"
     inkscape:zoom="0.91720361"
     inkscape:cx="517.33333"
     inkscape:cy="124.83597"
     inkscape:window-width="1850"
     inkscape:window-height="1016"
     inkscape:window-x="70"
     inkscape:window-y="27"
     inkscape:window-maximized="1"
     inkscape:current-layer="svg1306" />
  <g
     id="g2748"
     transform="translate(0,-51)">
    <polygon
       fill="#ffffff"
       stroke="transparent"
       points="771.5,-184 771.5,4 -4,4 -4,-184 "
       id="polygon1086"
       transform="translate(4,223)" />
    <polygon
       fill="#36495a"
       stroke="#000000"
       points="160.5,-108 65.5,-108 65.5,-72 160.5,-72 "
       id="polygon1097"
       transform="translate(4,184)" />
    <text
       text-anchor="middle"
       x="117"
       y="97.699997"
       font-family="'louis george'"
       font-size="14px"
       fill="#ffffff"
       id="text1099">Residencial</text>
    <polygon
       fill="#fbaa1b"
       stroke="#000000"
       points="318.5,-108 235.5,-108 235.5,-72 318.5,-72 "
       id="polygon1111"
       transform="translate(4,184)" />
    <text
       text-anchor="middle"
       x="281"
       y="97.699997"
       font-family="'louis george'"
       font-size="14px"
       fill="#ffffff"
       id="text1113">Industrial</text>
    <polygon
       fill="#207653"
       stroke="#000000"
       points="496.5,-108 405.5,-108 405.5,-72 496.5,-72 "
       id="polygon1125"
       transform="translate(4,184)" />
    <text
       text-anchor="middle"
       x="455"
       y="97.699997"
       font-family="'louis george'"
       font-size="14px"
       fill="#ffffff"
       id="text1127">Transporte</text>
    <polygon
       fill="#8fc73e"
       stroke="#000000"
       points="569,-108 515,-108 515,-72 569,-72 "
       id="polygon1139"
       transform="translate(4,184)" />
    <text
       text-anchor="middle"
       x="546"
       y="97.699997"
       font-family="'louis george'"
       font-size="14px"
       id="text1141">CyP</text>
    <polygon
       fill="#a1140b"
       stroke="#000000"
       points="642.5,-108 587.5,-108 587.5,-72 642.5,-72 "
       id="polygon1153"
       transform="translate(4,184)" />
    <text
       text-anchor="middle"
       x="619"
       y="97.699997"
       font-family="'louis george'"
       font-size="14px"
       fill="#ffffff"
       id="text1155">APyM</text>
    <polygon
       fill="#6d6f70"
       stroke="#000000"
       points="767.5,-108 660.5,-108 660.5,-72 767.5,-72 "
       id="polygon1167"
       transform="translate(4,184)" />
    <text
       text-anchor="middle"
       x="718"
       y="97.699997"
       font-family="'louis george'"
       font-size="14px"
       fill="#ffffff"
       id="text1169">Construcción</text>
    <polygon
       fill="#36495a"
       stroke="#000000"
       points="68,-36 0,-36 0,0 68,0 "
       id="polygon1181"
       transform="translate(4,184)" />
    <text
       text-anchor="middle"
       x="38"
       y="169.7"
       font-family="'louis george'"
       font-size="14px"
       fill="#ffffff"
       id="text1183">Urbano</text>
    <path
       fill="none"
       stroke="#000000"
       d="m 97.47,112.3 c -9.85,8.73 -21.96,19.46 -32.67,28.95"
       id="path1188" />
    <polygon
       fill="#000000"
       stroke="#000000"
       points="53.3,-36.1 58.47,-45.36 63.11,-40.12 "
       id="polygon1190"
       transform="translate(4,184)" />
    <polygon
       fill="#36495a"
       stroke="#000000"
       points="140,-36 86,-36 86,0 140,0 "
       id="polygon1195"
       transform="translate(4,184)" />
    <text
       text-anchor="middle"
       x="117"
       y="169.7"
       font-family="'louis george'"
       font-size="14px"
       fill="#ffffff"
       id="text1197">Rural</text>
    <path
       fill="none"
       stroke="#000000"
       d="m 117,112.3 c 0,7.72 0,16.99 0,25.59"
       id="path1202" />
    <polygon
       fill="#000000"
       stroke="#000000"
       points="113,-36.1 109.5,-46.1 116.5,-46.1 "
       id="polygon1204"
       transform="translate(4,184)" />
    <polygon
       fill="#fbaa1b"
       stroke="#000000"
       points="229.5,-36 158.5,-36 158.5,0 229.5,0 "
       id="polygon1209"
       transform="translate(4,184)" />
    <text
       text-anchor="middle"
       x="198"
       y="169.7"
       font-family="'louis george'"
       font-size="14px"
       fill="#ffffff"
       id="text1211">EAIMCS</text>
    <path
       fill="none"
       stroke="#000000"
       d="m 260.48,112.3 c -10.35,8.73 -23.07,19.46 -34.32,28.95"
       id="path1216" />
    <polygon
       fill="#000000"
       stroke="#000000"
       points="214.28,-36.1 219.67,-45.23 224.18,-39.88 "
       id="polygon1218"
       transform="translate(4,184)" />
    <polygon
       fill="#fbaa1b"
       stroke="#000000"
       points="306.5,-36 247.5,-36 247.5,0 306.5,0 "
       id="polygon1223"
       transform="translate(4,184)" />
    <text
       text-anchor="middle"
       x="281"
       y="169.7"
       font-family="'louis george'"
       font-size="14px"
       fill="#ffffff"
       id="text1225">MIPES</text>
    <path
       fill="none"
       stroke="#000000"
       d="m 281,112.3 c 0,7.72 0,16.99 0,25.59"
       id="path1230" />
    <polygon
       fill="#000000"
       stroke="#000000"
       points="277,-36.1 273.5,-46.1 280.5,-46.1 "
       id="polygon1232"
       transform="translate(4,184)" />
    <polygon
       fill="#207653"
       stroke="#000000"
       points="405,-36 325,-36 325,0 405,0 "
       id="polygon1237"
       transform="translate(4,184)" />
    <text
       text-anchor="middle"
       x="369"
       y="169.7"
       font-family="'louis george'"
       font-size="14px"
       fill="#ffffff"
       id="text1239">Carretero</text>
    <path
       fill="none"
       stroke="#000000"
       d="m 433.74,112.3 c -10.83,8.82 -24.16,19.67 -35.9,29.23"
       id="path1244" />
    <polygon
       fill="#000000"
       stroke="#000000"
       points="386.01,-36.1 391.56,-45.13 395.98,-39.7 "
       id="polygon1246"
       transform="translate(4,184)" />
    <polygon
       fill="#207653"
       stroke="#000000"
       points="479,-36 423,-36 423,0 479,0 "
       id="polygon1251"
       transform="translate(4,184)" />
    <text
       text-anchor="middle"
       x="455"
       y="169.7"
       font-family="'louis george'"
       font-size="14px"
       fill="#ffffff"
       id="text1253">Aereo</text>
    <path
       fill="none"
       stroke="#000000"
       d="m 455,112.3 c 0,7.72 0,16.99 0,25.59"
       id="path1258" />
    <polygon
       fill="#000000"
       stroke="#000000"
       points="451,-36.1 447.5,-46.1 454.5,-46.1 "
       id="polygon1260"
       transform="translate(4,184)" />
    <polygon
       fill="#207653"
       stroke="#000000"
       points="586.5,-36 497.5,-36 497.5,0 586.5,0 "
       id="polygon1265"
       transform="translate(4,184)" />
    <text
       text-anchor="middle"
       x="546"
       y="169.7"
       font-family="'louis george'"
       font-size="14px"
       fill="#ffffff"
       id="text1267">Ferroviario</text>
    <path
       fill="none"
       stroke="#000000"
       d="m 477.49,112.3 c 11.47,8.82 25.57,19.67 37.99,29.23"
       id="path1272" />
    <polygon
       fill="#000000"
       stroke="#000000"
       points="519.76,-36.1 509.7,-39.43 513.97,-44.98 "
       id="polygon1274"
       transform="translate(4,184)" />
    <polygon
       fill="#207653"
       stroke="#000000"
       points="666,-36 604,-36 604,0 666,0 "
       id="polygon1279"
       transform="translate(4,184)" />
    <text
       text-anchor="middle"
       x="639"
       y="169.7"
       font-family="'louis george'"
       font-size="14px"
       fill="#ffffff"
       id="text1281">Fluvial</text>
    <path
       fill="none"
       stroke="#000000"
       d="m 500.66,110.89 c 26.44,9.38 60.54,21.79 97.79,36.58"
       id="path1286" />
    <polygon
       fill="#000000"
       stroke="#000000"
       points="603.99,-32.72 593.41,-33.18 596,-39.68 "
       id="polygon1288"
       transform="translate(4,184)" />
    <polygon
       fill="#207653"
       stroke="#000000"
       points="766,-36 684,-36 684,0 766,0 "
       id="polygon1293"
       transform="translate(4,184)" />
    <text
       text-anchor="middle"
       x="729"
       y="169.7"
       font-family="'louis george'"
       font-size="14px"
       fill="#ffffff"
       id="text1295">Teleferico</text>
    <path
       fill="none"
       stroke="#000000"
       d="m 500.53,109.42 c 3.19,0.9 6.38,1.77 9.47,2.58 71.27,18.56 93.18,15.87 168.02,35.91"
       id="path1300" />
    <polygon
       fill="#000000"
       stroke="#000000"
       points="683.92,-33.4 673.35,-32.65 675.19,-39.4 "
       id="polygon1302"
       transform="translate(4,184)" />
  </g>
</svg>
