<?xml version="1.0" encoding="utf-8" standalone="no"?>
<!DOCTYPE svg PUBLIC "-//W3C//DTD SVG 1.1//EN"
  "http://www.w3.org/Graphics/SVG/1.1/DTD/svg11.dtd">
<svg xmlns:xlink="http://www.w3.org/1999/xlink" width="501.07075pt" height="252.838125pt" viewBox="0 0 501.07075 252.838125" xmlns="http://www.w3.org/2000/svg" version="1.1">
 <metadata>
  <rdf:RDF xmlns:dc="http://purl.org/dc/elements/1.1/" xmlns:cc="http://creativecommons.org/ns#" xmlns:rdf="http://www.w3.org/1999/02/22-rdf-syntax-ns#">
   <cc:Work>
    <dc:type rdf:resource="http://purl.org/dc/dcmitype/StillImage"/>
    <dc:date>2026-04-21T09:52:26.045038</dc:date>
    <dc:format>image/svg+xml</dc:format>
    <dc:creator>
     <cc:Agent>
      <dc:title>Matplotlib v3.10.3, https://matplotlib.org/</dc:title>
     </cc:Agent>
    </dc:creator>
   </cc:Work>
  </rdf:RDF>
 </metadata>
 <defs>
  <style type="text/css">*{stroke-linejoin: round; stroke-linecap: butt}</style>
 </defs>
 <g id="figure_1">
  <g id="patch_1">
   <path d="M 0 252.838125 
L 501.07075 252.838125 
L 501.07075 0 
L 0 0 
z
" style="fill: #ffffff"/>
  </g>
  <g id="axes_1">
   <g id="patch_2">
    <path d="M 67.932 158.4 
L 458.532 158.4 
L 458.532 7.2 
L 67.932 7.2 
z
" style="fill: #ffffff"/>
   </g>
   <g id="patch_3">
    <path d="M 69.327 158.4 
L 80.487 158.4 
L 80.487 158.4 
L 69.327 158.4 
z
" clip-path="url(#pb103e1061f)" style="fill: #fbaa1b"/>
   </g>
   <g id="patch_4">
    <path d="M 83.277 158.4 
L 94.437 158.4 
L 94.437 158.4 
L 83.277 158.4 
z
" clip-path="url(#pb103e1061f)" style="fill: #fbaa1b"/>
   </g>
   <g id="patch_5">
    <path d="M 97.227 158.4 
L 108.387 158.4 
L 108.387 158.4 
L 97.227 158.4 
z
" clip-path="url(#pb103e1061f)" style="fill: #fbaa1b"/>
   </g>
   <g id="patch_6">
    <path d="M 111.177 158.4 
L 122.337 158.4 
L 122.337 158.4 
L 111.177 158.4 
z
" clip-path="url(#pb103e1061f)" style="fill: #fbaa1b"/>
   </g>
   <g id="patch_7">
    <path d="M 125.127 158.4 
L 136.287 158.4 
L 136.287 158.4 
L 125.127 158.4 
z
" clip-path="url(#pb103e1061f)" style="fill: #fbaa1b"/>
   </g>
   <g id="patch_8">
    <path d="M 139.077 158.4 
L 150.237 158.4 
L 150.237 158.4 
L 139.077 158.4 
z
" clip-path="url(#pb103e1061f)" style="fill: #fbaa1b"/>
   </g>
   <g id="patch_9">
    <path d="M 153.027 158.4 
L 164.187 158.4 
L 164.187 158.4 
L 153.027 158.4 
z
" clip-path="url(#pb103e1061f)" style="fill: #fbaa1b"/>
   </g>
   <g id="patch_10">
    <path d="M 166.977 158.4 
L 178.137 158.4 
L 178.137 157.278307 
L 166.977 157.278307 
z
" clip-path="url(#pb103e1061f)" style="fill: #fbaa1b"/>
   </g>
   <g id="patch_11">
    <path d="M 180.927 158.4 
L 192.087 158.4 
L 192.087 152.780986 
L 180.927 152.780986 
z
" clip-path="url(#pb103e1061f)" style="fill: #fbaa1b"/>
   </g>
   <g id="patch_12">
    <path d="M 194.877 158.4 
L 206.037 158.4 
L 206.037 152.816149 
L 194.877 152.816149 
z
" clip-path="url(#pb103e1061f)" style="fill: #fbaa1b"/>
   </g>
   <g id="patch_13">
    <path d="M 208.827 158.4 
L 219.987 158.4 
L 219.987 152.893507 
L 208.827 152.893507 
z
" clip-path="url(#pb103e1061f)" style="fill: #fbaa1b"/>
   </g>
   <g id="patch_14">
    <path d="M 222.777 158.4 
L 233.937 158.4 
L 233.937 150.270363 
L 222.777 150.270363 
z
" clip-path="url(#pb103e1061f)" style="fill: #fbaa1b"/>
   </g>
   <g id="patch_15">
    <path d="M 236.727 158.4 
L 247.887 158.4 
L 247.887 150.646605 
L 236.727 150.646605 
z
" clip-path="url(#pb103e1061f)" style="fill: #fbaa1b"/>
   </g>
   <g id="patch_16">
    <path d="M 250.677 158.4 
L 261.837 158.4 
L 261.837 151.167014 
L 250.677 151.167014 
z
" clip-path="url(#pb103e1061f)" style="fill: #fbaa1b"/>
   </g>
   <g id="patch_17">
    <path d="M 264.627 158.4 
L 275.787 158.4 
L 275.787 151.824558 
L 264.627 151.824558 
z
" clip-path="url(#pb103e1061f)" style="fill: #fbaa1b"/>
   </g>
   <g id="patch_18">
    <path d="M 278.577 158.4 
L 289.737 158.4 
L 289.737 152.552428 
L 278.577 152.552428 
z
" clip-path="url(#pb103e1061f)" style="fill: #fbaa1b"/>
   </g>
   <g id="patch_19">
    <path d="M 292.527 158.4 
L 303.687 158.4 
L 303.687 153.311944 
L 292.527 153.311944 
z
" clip-path="url(#pb103e1061f)" style="fill: #fbaa1b"/>
   </g>
   <g id="patch_20">
    <path d="M 306.477 158.4 
L 317.637 158.4 
L 317.637 153.95894 
L 306.477 153.95894 
z
" clip-path="url(#pb103e1061f)" style="fill: #fbaa1b"/>
   </g>
   <g id="patch_21">
    <path d="M 320.427 158.4 
L 331.587 158.4 
L 331.587 154.669228 
L 320.427 154.669228 
z
" clip-path="url(#pb103e1061f)" style="fill: #fbaa1b"/>
   </g>
   <g id="patch_22">
    <path d="M 334.377 158.4 
L 345.537 158.4 
L 345.537 155.19667 
L 334.377 155.19667 
z
" clip-path="url(#pb103e1061f)" style="fill: #fbaa1b"/>
   </g>
   <g id="patch_23">
    <path d="M 348.327 158.4 
L 359.487 158.4 
L 359.487 155.562363 
L 348.327 155.562363 
z
" clip-path="url(#pb103e1061f)" style="fill: #fbaa1b"/>
   </g>
   <g id="patch_24">
    <path d="M 362.277 158.4 
L 373.437 158.4 
L 373.437 155.963219 
L 362.277 155.963219 
z
" clip-path="url(#pb103e1061f)" style="fill: #fbaa1b"/>
   </g>
   <g id="patch_25">
    <path d="M 376.227 158.4 
L 387.387 158.4 
L 387.387 156.381656 
L 376.227 156.381656 
z
" clip-path="url(#pb103e1061f)" style="fill: #fbaa1b"/>
   </g>
   <g id="patch_26">
    <path d="M 390.177 158.4 
L 401.337 158.4 
L 401.337 156.842288 
L 390.177 156.842288 
z
" clip-path="url(#pb103e1061f)" style="fill: #fbaa1b"/>
   </g>
   <g id="patch_27">
    <path d="M 404.127 158.4 
L 415.287 158.4 
L 415.287 157.28534 
L 404.127 157.28534 
z
" clip-path="url(#pb103e1061f)" style="fill: #fbaa1b"/>
   </g>
   <g id="patch_28">
    <path d="M 418.077 158.4 
L 429.237 158.4 
L 429.237 157.644 
L 418.077 157.644 
z
" clip-path="url(#pb103e1061f)" style="fill: #fbaa1b"/>
   </g>
   <g id="patch_29">
    <path d="M 432.027 158.4 
L 443.187 158.4 
L 443.187 157.921786 
L 432.027 157.921786 
z
" clip-path="url(#pb103e1061f)" style="fill: #fbaa1b"/>
   </g>
   <g id="patch_30">
    <path d="M 445.977 158.4 
L 457.137 158.4 
L 457.137 158.143312 
L 445.977 158.143312 
z
" clip-path="url(#pb103e1061f)" style="fill: #fbaa1b"/>
   </g>
   <g id="patch_31">
    <path d="M 69.327 158.4 
L 80.487 158.4 
L 80.487 158.4 
L 69.327 158.4 
z
" clip-path="url(#pb103e1061f)" style="fill: #8fc73e"/>
   </g>
   <g id="patch_32">
    <path d="M 83.277 158.4 
L 94.437 158.4 
L 94.437 158.4 
L 83.277 158.4 
z
" clip-path="url(#pb103e1061f)" style="fill: #8fc73e"/>
   </g>
   <g id="patch_33">
    <path d="M 97.227 158.4 
L 108.387 158.4 
L 108.387 158.4 
L 97.227 158.4 
z
" clip-path="url(#pb103e1061f)" style="fill: #8fc73e"/>
   </g>
   <g id="patch_34">
    <path d="M 111.177 158.4 
L 122.337 158.4 
L 122.337 158.4 
L 111.177 158.4 
z
" clip-path="url(#pb103e1061f)" style="fill: #8fc73e"/>
   </g>
   <g id="patch_35">
    <path d="M 125.127 158.4 
L 136.287 158.4 
L 136.287 158.4 
L 125.127 158.4 
z
" clip-path="url(#pb103e1061f)" style="fill: #8fc73e"/>
   </g>
   <g id="patch_36">
    <path d="M 139.077 158.4 
L 150.237 158.4 
L 150.237 158.4 
L 139.077 158.4 
z
" clip-path="url(#pb103e1061f)" style="fill: #8fc73e"/>
   </g>
   <g id="patch_37">
    <path d="M 153.027 158.4 
L 164.187 158.4 
L 164.187 158.4 
L 153.027 158.4 
z
" clip-path="url(#pb103e1061f)" style="fill: #8fc73e"/>
   </g>
   <g id="patch_38">
    <path d="M 166.977 157.278307 
L 178.137 157.278307 
L 178.137 157.278307 
L 166.977 157.278307 
z
" clip-path="url(#pb103e1061f)" style="fill: #8fc73e"/>
   </g>
   <g id="patch_39">
    <path d="M 180.927 152.780986 
L 192.087 152.780986 
L 192.087 151.761265 
L 180.927 151.761265 
z
" clip-path="url(#pb103e1061f)" style="fill: #8fc73e"/>
   </g>
   <g id="patch_40">
    <path d="M 194.877 152.816149 
L 206.037 152.816149 
L 206.037 151.764781 
L 194.877 151.764781 
z
" clip-path="url(#pb103e1061f)" style="fill: #8fc73e"/>
   </g>
   <g id="patch_41">
    <path d="M 208.827 152.893507 
L 219.987 152.893507 
L 219.987 151.849172 
L 208.827 151.849172 
z
" clip-path="url(#pb103e1061f)" style="fill: #8fc73e"/>
   </g>
   <g id="patch_42">
    <path d="M 222.777 150.270363 
L 233.937 150.270363 
L 233.937 147.823033 
L 222.777 147.823033 
z
" clip-path="url(#pb103e1061f)" style="fill: #8fc73e"/>
   </g>
   <g id="patch_43">
    <path d="M 236.727 150.646605 
L 247.887 150.646605 
L 247.887 145.952372 
L 236.727 145.952372 
z
" clip-path="url(#pb103e1061f)" style="fill: #8fc73e"/>
   </g>
   <g id="patch_44">
    <path d="M 250.677 151.167014 
L 261.837 151.167014 
L 261.837 144.141488 
L 250.677 144.141488 
z
" clip-path="url(#pb103e1061f)" style="fill: #8fc73e"/>
   </g>
   <g id="patch_45">
    <path d="M 264.627 151.824558 
L 275.787 151.824558 
L 275.787 145.516353 
L 264.627 145.516353 
z
" clip-path="url(#pb103e1061f)" style="fill: #8fc73e"/>
   </g>
   <g id="patch_46">
    <path d="M 278.577 152.552428 
L 289.737 152.552428 
L 289.737 147.042419 
L 278.577 147.042419 
z
" clip-path="url(#pb103e1061f)" style="fill: #8fc73e"/>
   </g>
   <g id="patch_47">
    <path d="M 292.527 153.311944 
L 303.687 153.311944 
L 303.687 148.593098 
L 292.527 148.593098 
z
" clip-path="url(#pb103e1061f)" style="fill: #8fc73e"/>
   </g>
   <g id="patch_48">
    <path d="M 306.477 153.95894 
L 317.637 153.95894 
L 317.637 150.26333 
L 306.477 150.26333 
z
" clip-path="url(#pb103e1061f)" style="fill: #8fc73e"/>
   </g>
   <g id="patch_49">
    <path d="M 320.427 154.669228 
L 331.587 154.669228 
L 331.587 152.063665 
L 320.427 152.063665 
z
" clip-path="url(#pb103e1061f)" style="fill: #8fc73e"/>
   </g>
   <g id="patch_50">
    <path d="M 334.377 155.19667 
L 345.537 155.19667 
L 345.537 153.730381 
L 334.377 153.730381 
z
" clip-path="url(#pb103e1061f)" style="fill: #8fc73e"/>
   </g>
   <g id="patch_51">
    <path d="M 348.327 155.562363 
L 359.487 155.562363 
L 359.487 154.74307 
L 348.327 154.74307 
z
" clip-path="url(#pb103e1061f)" style="fill: #8fc73e"/>
   </g>
   <g id="patch_52">
    <path d="M 362.277 155.963219 
L 373.437 155.963219 
L 373.437 155.699498 
L 362.277 155.699498 
z
" clip-path="url(#pb103e1061f)" style="fill: #8fc73e"/>
   </g>
   <g id="patch_53">
    <path d="M 376.227 156.381656 
L 387.387 156.381656 
L 387.387 156.381656 
L 376.227 156.381656 
z
" clip-path="url(#pb103e1061f)" style="fill: #8fc73e"/>
   </g>
   <g id="patch_54">
    <path d="M 390.177 156.842288 
L 401.337 156.842288 
L 401.337 156.842288 
L 390.177 156.842288 
z
" clip-path="url(#pb103e1061f)" style="fill: #8fc73e"/>
   </g>
   <g id="patch_55">
    <path d="M 404.127 157.28534 
L 415.287 157.28534 
L 415.287 157.28534 
L 404.127 157.28534 
z
" clip-path="url(#pb103e1061f)" style="fill: #8fc73e"/>
   </g>
   <g id="patch_56">
    <path d="M 418.077 157.644 
L 429.237 157.644 
L 429.237 157.644 
L 418.077 157.644 
z
" clip-path="url(#pb103e1061f)" style="fill: #8fc73e"/>
   </g>
   <g id="patch_57">
    <path d="M 432.027 157.921786 
L 443.187 157.921786 
L 443.187 157.921786 
L 432.027 157.921786 
z
" clip-path="url(#pb103e1061f)" style="fill: #8fc73e"/>
   </g>
   <g id="patch_58">
    <path d="M 445.977 158.143312 
L 457.137 158.143312 
L 457.137 158.143312 
L 445.977 158.143312 
z
" clip-path="url(#pb103e1061f)" style="fill: #8fc73e"/>
   </g>
   <g id="patch_59">
    <path d="M 69.327 158.4 
L 80.487 158.4 
L 80.487 158.4 
L 69.327 158.4 
z
" clip-path="url(#pb103e1061f)" style="fill: #207653"/>
   </g>
   <g id="patch_60">
    <path d="M 83.277 158.4 
L 94.437 158.4 
L 94.437 158.4 
L 83.277 158.4 
z
" clip-path="url(#pb103e1061f)" style="fill: #207653"/>
   </g>
   <g id="patch_61">
    <path d="M 97.227 158.4 
L 108.387 158.4 
L 108.387 154.725488 
L 97.227 154.725488 
z
" clip-path="url(#pb103e1061f)" style="fill: #207653"/>
   </g>
   <g id="patch_62">
    <path d="M 111.177 158.4 
L 122.337 158.4 
L 122.337 154.219144 
L 111.177 154.219144 
z
" clip-path="url(#pb103e1061f)" style="fill: #207653"/>
   </g>
   <g id="patch_63">
    <path d="M 125.127 158.4 
L 136.287 158.4 
L 136.287 148.554419 
L 125.127 148.554419 
z
" clip-path="url(#pb103e1061f)" style="fill: #207653"/>
   </g>
   <g id="patch_64">
    <path d="M 139.077 158.4 
L 150.237 158.4 
L 150.237 136.57094 
L 139.077 136.57094 
z
" clip-path="url(#pb103e1061f)" style="fill: #207653"/>
   </g>
   <g id="patch_65">
    <path d="M 153.027 158.4 
L 164.187 158.4 
L 164.187 118.113991 
L 153.027 118.113991 
z
" clip-path="url(#pb103e1061f)" style="fill: #207653"/>
   </g>
   <g id="patch_66">
    <path d="M 166.977 157.278307 
L 178.137 157.278307 
L 178.137 50.070474 
L 166.977 50.070474 
z
" clip-path="url(#pb103e1061f)" style="fill: #207653"/>
   </g>
   <g id="patch_67">
    <path d="M 180.927 151.761265 
L 192.087 151.761265 
L 192.087 20.677898 
L 180.927 20.677898 
z
" clip-path="url(#pb103e1061f)" style="fill: #207653"/>
   </g>
   <g id="patch_68">
    <path d="M 194.877 151.764781 
L 206.037 151.764781 
L 206.037 26.103516 
L 194.877 26.103516 
z
" clip-path="url(#pb103e1061f)" style="fill: #207653"/>
   </g>
   <g id="patch_69">
    <path d="M 208.827 151.849172 
L 219.987 151.849172 
L 219.987 31.205637 
L 208.827 31.205637 
z
" clip-path="url(#pb103e1061f)" style="fill: #207653"/>
   </g>
   <g id="patch_70">
    <path d="M 222.777 147.823033 
L 233.937 147.823033 
L 233.937 24.542288 
L 222.777 24.542288 
z
" clip-path="url(#pb103e1061f)" style="fill: #207653"/>
   </g>
   <g id="patch_71">
    <path d="M 236.727 145.952372 
L 247.887 145.952372 
L 247.887 20.885358 
L 236.727 20.885358 
z
" clip-path="url(#pb103e1061f)" style="fill: #207653"/>
   </g>
   <g id="patch_72">
    <path d="M 250.677 144.141488 
L 261.837 144.141488 
L 261.837 18.29386 
L 250.677 18.29386 
z
" clip-path="url(#pb103e1061f)" style="fill: #207653"/>
   </g>
   <g id="patch_73">
    <path d="M 264.627 145.516353 
L 275.787 145.516353 
L 275.787 25.1928 
L 264.627 25.1928 
z
" clip-path="url(#pb103e1061f)" style="fill: #207653"/>
   </g>
   <g id="patch_74">
    <path d="M 278.577 147.042419 
L 289.737 147.042419 
L 289.737 32.429302 
L 278.577 32.429302 
z
" clip-path="url(#pb103e1061f)" style="fill: #207653"/>
   </g>
   <g id="patch_75">
    <path d="M 292.527 148.593098 
L 303.687 148.593098 
L 303.687 40.052595 
L 292.527 40.052595 
z
" clip-path="url(#pb103e1061f)" style="fill: #207653"/>
   </g>
   <g id="patch_76">
    <path d="M 306.477 150.26333 
L 317.637 150.26333 
L 317.637 47.510623 
L 306.477 47.510623 
z
" clip-path="url(#pb103e1061f)" style="fill: #207653"/>
   </g>
   <g id="patch_77">
    <path d="M 320.427 152.063665 
L 331.587 152.063665 
L 331.587 55.503126 
L 320.427 55.503126 
z
" clip-path="url(#pb103e1061f)" style="fill: #207653"/>
   </g>
   <g id="patch_78">
    <path d="M 334.377 153.730381 
L 345.537 153.730381 
L 345.537 63.26707 
L 334.377 63.26707 
z
" clip-path="url(#pb103e1061f)" style="fill: #207653"/>
   </g>
   <g id="patch_79">
    <path d="M 348.327 154.74307 
L 359.487 154.74307 
L 359.487 70.876298 
L 348.327 70.876298 
z
" clip-path="url(#pb103e1061f)" style="fill: #207653"/>
   </g>
   <g id="patch_80">
    <path d="M 362.277 155.699498 
L 373.437 155.699498 
L 373.437 77.518549 
L 362.277 77.518549 
z
" clip-path="url(#pb103e1061f)" style="fill: #207653"/>
   </g>
   <g id="patch_81">
    <path d="M 376.227 156.381656 
L 387.387 156.381656 
L 387.387 84.093991 
L 376.227 84.093991 
z
" clip-path="url(#pb103e1061f)" style="fill: #207653"/>
   </g>
   <g id="patch_82">
    <path d="M 390.177 156.842288 
L 401.337 156.842288 
L 401.337 90.859312 
L 390.177 90.859312 
z
" clip-path="url(#pb103e1061f)" style="fill: #207653"/>
   </g>
   <g id="patch_83">
    <path d="M 404.127 157.28534 
L 415.287 157.28534 
L 415.287 97.789898 
L 404.127 97.789898 
z
" clip-path="url(#pb103e1061f)" style="fill: #207653"/>
   </g>
   <g id="patch_84">
    <path d="M 418.077 157.644 
L 429.237 157.644 
L 429.237 103.159256 
L 418.077 103.159256 
z
" clip-path="url(#pb103e1061f)" style="fill: #207653"/>
   </g>
   <g id="patch_85">
    <path d="M 432.027 157.921786 
L 443.187 157.921786 
L 443.187 109.952707 
L 432.027 109.952707 
z
" clip-path="url(#pb103e1061f)" style="fill: #207653"/>
   </g>
   <g id="patch_86">
    <path d="M 445.977 158.143312 
L 457.137 158.143312 
L 457.137 112.628595 
L 445.977 112.628595 
z
" clip-path="url(#pb103e1061f)" style="fill: #207653"/>
   </g>
   <g id="matplotlib.axis_1">
    <g id="xtick_1">
     <g id="line2d_1">
      <defs>
       <path id="mfb1194d876" d="M 0 0 
L 0 3.5 
" style="stroke: #000000; stroke-width: 0.8"/>
      </defs>
      <g>
       <use xlink:href="#mfb1194d876" x="102.807" y="158.4" style="stroke: #000000; stroke-width: 0.8"/>
      </g>
     </g>
    </g>
    <g id="xtick_2">
     <g id="line2d_2">
      <g>
       <use xlink:href="#mfb1194d876" x="172.557" y="158.4" style="stroke: #000000; stroke-width: 0.8"/>
      </g>
     </g>
    </g>
    <g id="xtick_3">
     <g id="line2d_3">
      <g>
       <use xlink:href="#mfb1194d876" x="242.307" y="158.4" style="stroke: #000000; stroke-width: 0.8"/>
      </g>
     </g>
    </g>
    <g id="xtick_4">
     <g id="line2d_4">
      <g>
       <use xlink:href="#mfb1194d876" x="312.057" y="158.4" style="stroke: #000000; stroke-width: 0.8"/>
      </g>
     </g>
    </g>
    <g id="xtick_5">
     <g id="line2d_5">
      <g>
       <use xlink:href="#mfb1194d876" x="381.807" y="158.4" style="stroke: #000000; stroke-width: 0.8"/>
      </g>
     </g>
    </g>
    <g id="xtick_6">
     <g id="line2d_6">
      <g>
       <use xlink:href="#mfb1194d876" x="451.557" y="158.4" style="stroke: #000000; stroke-width: 0.8"/>
      </g>
     </g>
    </g>
   </g>
   <g id="matplotlib.axis_2">
    <g id="ytick_1">
     <g id="line2d_7">
      <defs>
       <path id="m0f65e6b8b8" d="M 0 0 
L -3.5 0 
" style="stroke: #000000; stroke-width: 0.8"/>
      </defs>
      <g>
       <use xlink:href="#m0f65e6b8b8" x="67.932" y="158.4" style="stroke: #000000; stroke-width: 0.8"/>
      </g>
     </g>
     <g id="text_1">
      <!-- 0 -->
      <g transform="translate(54.5695 162.199219) scale(0.1 -0.1)">
       <defs>
        <path id="DejaVuSans-30" d="M 2034 4250 
Q 1547 4250 1301 3770 
Q 1056 3291 1056 2328 
Q 1056 1369 1301 889 
Q 1547 409 2034 409 
Q 2525 409 2770 889 
Q 3016 1369 3016 2328 
Q 3016 3291 2770 3770 
Q 2525 4250 2034 4250 
z
M 2034 4750 
Q 2819 4750 3233 4129 
Q 3647 3509 3647 2328 
Q 3647 1150 3233 529 
Q 2819 -91 2034 -91 
Q 1250 -91 836 529 
Q 422 1150 422 2328 
Q 422 3509 836 4129 
Q 1250 4750 2034 4750 
z
" transform="scale(0.015625)"/>
       </defs>
       <use xlink:href="#DejaVuSans-30"/>
      </g>
     </g>
    </g>
    <g id="ytick_2">
     <g id="line2d_8">
      <g>
       <use xlink:href="#m0f65e6b8b8" x="67.932" y="123.237209" style="stroke: #000000; stroke-width: 0.8"/>
      </g>
     </g>
     <g id="text_2">
      <!-- 1000 -->
      <g transform="translate(35.482 127.036428) scale(0.1 -0.1)">
       <defs>
        <path id="DejaVuSans-31" d="M 794 531 
L 1825 531 
L 1825 4091 
L 703 3866 
L 703 4441 
L 1819 4666 
L 2450 4666 
L 2450 531 
L 3481 531 
L 3481 0 
L 794 0 
L 794 531 
z
" transform="scale(0.015625)"/>
       </defs>
       <use xlink:href="#DejaVuSans-31"/>
       <use xlink:href="#DejaVuSans-30" transform="translate(63.623047 0)"/>
       <use xlink:href="#DejaVuSans-30" transform="translate(127.246094 0)"/>
       <use xlink:href="#DejaVuSans-30" transform="translate(190.869141 0)"/>
      </g>
     </g>
    </g>
    <g id="ytick_3">
     <g id="line2d_9">
      <g>
       <use xlink:href="#m0f65e6b8b8" x="67.932" y="88.074419" style="stroke: #000000; stroke-width: 0.8"/>
      </g>
     </g>
     <g id="text_3">
      <!-- 2000 -->
      <g transform="translate(35.482 91.873637) scale(0.1 -0.1)">
       <defs>
        <path id="DejaVuSans-32" d="M 1228 531 
L 3431 531 
L 3431 0 
L 469 0 
L 469 531 
Q 828 903 1448 1529 
Q 2069 2156 2228 2338 
Q 2531 2678 2651 2914 
Q 2772 3150 2772 3378 
Q 2772 3750 2511 3984 
Q 2250 4219 1831 4219 
Q 1534 4219 1204 4116 
Q 875 4013 500 3803 
L 500 4441 
Q 881 4594 1212 4672 
Q 1544 4750 1819 4750 
Q 2544 4750 2975 4387 
Q 3406 4025 3406 3419 
Q 3406 3131 3298 2873 
Q 3191 2616 2906 2266 
Q 2828 2175 2409 1742 
Q 1991 1309 1228 531 
z
" transform="scale(0.015625)"/>
       </defs>
       <use xlink:href="#DejaVuSans-32"/>
       <use xlink:href="#DejaVuSans-30" transform="translate(63.623047 0)"/>
       <use xlink:href="#DejaVuSans-30" transform="translate(127.246094 0)"/>
       <use xlink:href="#DejaVuSans-30" transform="translate(190.869141 0)"/>
      </g>
     </g>
    </g>
    <g id="ytick_4">
     <g id="line2d_10">
      <g>
       <use xlink:href="#m0f65e6b8b8" x="67.932" y="52.911628" style="stroke: #000000; stroke-width: 0.8"/>
      </g>
     </g>
     <g id="text_4">
      <!-- 3000 -->
      <g transform="translate(35.482 56.710847) scale(0.1 -0.1)">
       <defs>
        <path id="DejaVuSans-33" d="M 2597 2516 
Q 3050 2419 3304 2112 
Q 3559 1806 3559 1356 
Q 3559 666 3084 287 
Q 2609 -91 1734 -91 
Q 1441 -91 1130 -33 
Q 819 25 488 141 
L 488 750 
Q 750 597 1062 519 
Q 1375 441 1716 441 
Q 2309 441 2620 675 
Q 2931 909 2931 1356 
Q 2931 1769 2642 2001 
Q 2353 2234 1838 2234 
L 1294 2234 
L 1294 2753 
L 1863 2753 
Q 2328 2753 2575 2939 
Q 2822 3125 2822 3475 
Q 2822 3834 2567 4026 
Q 2313 4219 1838 4219 
Q 1578 4219 1281 4162 
Q 984 4106 628 3988 
L 628 4550 
Q 988 4650 1302 4700 
Q 1616 4750 1894 4750 
Q 2613 4750 3031 4423 
Q 3450 4097 3450 3541 
Q 3450 3153 3228 2886 
Q 3006 2619 2597 2516 
z
" transform="scale(0.015625)"/>
       </defs>
       <use xlink:href="#DejaVuSans-33"/>
       <use xlink:href="#DejaVuSans-30" transform="translate(63.623047 0)"/>
       <use xlink:href="#DejaVuSans-30" transform="translate(127.246094 0)"/>
       <use xlink:href="#DejaVuSans-30" transform="translate(190.869141 0)"/>
      </g>
     </g>
    </g>
    <g id="ytick_5">
     <g id="line2d_11">
      <g>
       <use xlink:href="#m0f65e6b8b8" x="67.932" y="17.748837" style="stroke: #000000; stroke-width: 0.8"/>
      </g>
     </g>
     <g id="text_5">
      <!-- 4000 -->
      <g transform="translate(35.482 21.548056) scale(0.1 -0.1)">
       <defs>
        <path id="DejaVuSans-34" d="M 2419 4116 
L 825 1625 
L 2419 1625 
L 2419 4116 
z
M 2253 4666 
L 3047 4666 
L 3047 1625 
L 3713 1625 
L 3713 1100 
L 3047 1100 
L 3047 0 
L 2419 0 
L 2419 1100 
L 313 1100 
L 313 1709 
L 2253 4666 
z
" transform="scale(0.015625)"/>
       </defs>
       <use xlink:href="#DejaVuSans-34"/>
       <use xlink:href="#DejaVuSans-30" transform="translate(63.623047 0)"/>
       <use xlink:href="#DejaVuSans-30" transform="translate(127.246094 0)"/>
       <use xlink:href="#DejaVuSans-30" transform="translate(190.869141 0)"/>
      </g>
     </g>
    </g>
   </g>
   <g id="patch_87">
    <path d="M 67.932 158.4 
L 67.932 7.2 
" style="fill: none; stroke: #000000; stroke-width: 0.8; stroke-linejoin: miter; stroke-linecap: square"/>
   </g>
   <g id="patch_88">
    <path d="M 458.532 158.4 
L 458.532 7.2 
" style="fill: none; stroke: #000000; stroke-width: 0.8; stroke-linejoin: miter; stroke-linecap: square"/>
   </g>
   <g id="patch_89">
    <path d="M 67.932 158.4 
L 458.532 158.4 
" style="fill: none; stroke: #000000; stroke-width: 0.8; stroke-linejoin: miter; stroke-linecap: square"/>
   </g>
   <g id="patch_90">
    <path d="M 67.932 7.2 
L 458.532 7.2 
" style="fill: none; stroke: #000000; stroke-width: 0.8; stroke-linejoin: miter; stroke-linecap: square"/>
   </g>
   <g id="legend_1">
    <g id="patch_91">
     <path d="M 84.431688 33.918437 
L 104.431688 33.918437 
L 104.431688 26.918437 
L 84.431688 26.918437 
z
" style="fill: #fbaa1b"/>
    </g>
    <g id="text_6">
     <!-- Solar -->
     <g transform="translate(112.431688 33.918437) scale(0.1 -0.1)">
      <defs>
       <path id="DejaVuSans-53" d="M 3425 4513 
L 3425 3897 
Q 3066 4069 2747 4153 
Q 2428 4238 2131 4238 
Q 1616 4238 1336 4038 
Q 1056 3838 1056 3469 
Q 1056 3159 1242 3001 
Q 1428 2844 1947 2747 
L 2328 2669 
Q 3034 2534 3370 2195 
Q 3706 1856 3706 1288 
Q 3706 609 3251 259 
Q 2797 -91 1919 -91 
Q 1588 -91 1214 -16 
Q 841 59 441 206 
L 441 856 
Q 825 641 1194 531 
Q 1563 422 1919 422 
Q 2459 422 2753 634 
Q 3047 847 3047 1241 
Q 3047 1584 2836 1778 
Q 2625 1972 2144 2069 
L 1759 2144 
Q 1053 2284 737 2584 
Q 422 2884 422 3419 
Q 422 4038 858 4394 
Q 1294 4750 2059 4750 
Q 2388 4750 2728 4690 
Q 3069 4631 3425 4513 
z
" transform="scale(0.015625)"/>
       <path id="DejaVuSans-6f" d="M 1959 3097 
Q 1497 3097 1228 2736 
Q 959 2375 959 1747 
Q 959 1119 1226 758 
Q 1494 397 1959 397 
Q 2419 397 2687 759 
Q 2956 1122 2956 1747 
Q 2956 2369 2687 2733 
Q 2419 3097 1959 3097 
z
M 1959 3584 
Q 2709 3584 3137 3096 
Q 3566 2609 3566 1747 
Q 3566 888 3137 398 
Q 2709 -91 1959 -91 
Q 1206 -91 779 398 
Q 353 888 353 1747 
Q 353 2609 779 3096 
Q 1206 3584 1959 3584 
z
" transform="scale(0.015625)"/>
       <path id="DejaVuSans-6c" d="M 603 4863 
L 1178 4863 
L 1178 0 
L 603 0 
L 603 4863 
z
" transform="scale(0.015625)"/>
       <path id="DejaVuSans-61" d="M 2194 1759 
Q 1497 1759 1228 1600 
Q 959 1441 959 1056 
Q 959 750 1161 570 
Q 1363 391 1709 391 
Q 2188 391 2477 730 
Q 2766 1069 2766 1631 
L 2766 1759 
L 2194 1759 
z
M 3341 1997 
L 3341 0 
L 2766 0 
L 2766 531 
Q 2569 213 2275 61 
Q 1981 -91 1556 -91 
Q 1019 -91 701 211 
Q 384 513 384 1019 
Q 384 1609 779 1909 
Q 1175 2209 1959 2209 
L 2766 2209 
L 2766 2266 
Q 2766 2663 2505 2880 
Q 2244 3097 1772 3097 
Q 1472 3097 1187 3025 
Q 903 2953 641 2809 
L 641 3341 
Q 956 3463 1253 3523 
Q 1550 3584 1831 3584 
Q 2591 3584 2966 3190 
Q 3341 2797 3341 1997 
z
" transform="scale(0.015625)"/>
       <path id="DejaVuSans-72" d="M 2631 2963 
Q 2534 3019 2420 3045 
Q 2306 3072 2169 3072 
Q 1681 3072 1420 2755 
Q 1159 2438 1159 1844 
L 1159 0 
L 581 0 
L 581 3500 
L 1159 3500 
L 1159 2956 
Q 1341 3275 1631 3429 
Q 1922 3584 2338 3584 
Q 2397 3584 2469 3576 
Q 2541 3569 2628 3553 
L 2631 2963 
z
" transform="scale(0.015625)"/>
      </defs>
      <use xlink:href="#DejaVuSans-53"/>
      <use xlink:href="#DejaVuSans-6f" transform="translate(63.476562 0)"/>
      <use xlink:href="#DejaVuSans-6c" transform="translate(124.658203 0)"/>
      <use xlink:href="#DejaVuSans-61" transform="translate(152.441406 0)"/>
      <use xlink:href="#DejaVuSans-72" transform="translate(213.720703 0)"/>
     </g>
    </g>
    <g id="patch_92">
     <path d="M 84.431688 48.596562 
L 104.431688 48.596562 
L 104.431688 41.596562 
L 84.431688 41.596562 
z
" style="fill: #8fc73e"/>
    </g>
    <g id="text_7">
     <!-- Eólica -->
     <g transform="translate(112.431688 48.596562) scale(0.1 -0.1)">
      <defs>
       <path id="DejaVuSans-45" d="M 628 4666 
L 3578 4666 
L 3578 4134 
L 1259 4134 
L 1259 2753 
L 3481 2753 
L 3481 2222 
L 1259 2222 
L 1259 531 
L 3634 531 
L 3634 0 
L 628 0 
L 628 4666 
z
" transform="scale(0.015625)"/>
       <path id="DejaVuSans-f3" d="M 1959 3097 
Q 1497 3097 1228 2736 
Q 959 2375 959 1747 
Q 959 1119 1226 758 
Q 1494 397 1959 397 
Q 2419 397 2687 759 
Q 2956 1122 2956 1747 
Q 2956 2369 2687 2733 
Q 2419 3097 1959 3097 
z
M 1959 3584 
Q 2709 3584 3137 3096 
Q 3566 2609 3566 1747 
Q 3566 888 3137 398 
Q 2709 -91 1959 -91 
Q 1206 -91 779 398 
Q 353 888 353 1747 
Q 353 2609 779 3096 
Q 1206 3584 1959 3584 
z
M 2394 5119 
L 3016 5119 
L 1998 3944 
L 1519 3944 
L 2394 5119 
z
" transform="scale(0.015625)"/>
       <path id="DejaVuSans-69" d="M 603 3500 
L 1178 3500 
L 1178 0 
L 603 0 
L 603 3500 
z
M 603 4863 
L 1178 4863 
L 1178 4134 
L 603 4134 
L 603 4863 
z
" transform="scale(0.015625)"/>
       <path id="DejaVuSans-63" d="M 3122 3366 
L 3122 2828 
Q 2878 2963 2633 3030 
Q 2388 3097 2138 3097 
Q 1578 3097 1268 2742 
Q 959 2388 959 1747 
Q 959 1106 1268 751 
Q 1578 397 2138 397 
Q 2388 397 2633 464 
Q 2878 531 3122 666 
L 3122 134 
Q 2881 22 2623 -34 
Q 2366 -91 2075 -91 
Q 1284 -91 818 406 
Q 353 903 353 1747 
Q 353 2603 823 3093 
Q 1294 3584 2113 3584 
Q 2378 3584 2631 3529 
Q 2884 3475 3122 3366 
z
" transform="scale(0.015625)"/>
      </defs>
      <use xlink:href="#DejaVuSans-45"/>
      <use xlink:href="#DejaVuSans-f3" transform="translate(63.183594 0)"/>
      <use xlink:href="#DejaVuSans-6c" transform="translate(124.365234 0)"/>
      <use xlink:href="#DejaVuSans-69" transform="translate(152.148438 0)"/>
      <use xlink:href="#DejaVuSans-63" transform="translate(179.931641 0)"/>
      <use xlink:href="#DejaVuSans-61" transform="translate(234.912109 0)"/>
     </g>
    </g>
    <g id="patch_93">
     <path d="M 84.431688 63.274687 
L 104.431688 63.274687 
L 104.431688 56.274687 
L 84.431688 56.274687 
z
" style="fill: #207653"/>
    </g>
    <g id="text_8">
     <!-- Hidro -->
     <g transform="translate(112.431688 63.274687) scale(0.1 -0.1)">
      <defs>
       <path id="DejaVuSans-48" d="M 628 4666 
L 1259 4666 
L 1259 2753 
L 3553 2753 
L 3553 4666 
L 4184 4666 
L 4184 0 
L 3553 0 
L 3553 2222 
L 1259 2222 
L 1259 0 
L 628 0 
L 628 4666 
z
" transform="scale(0.015625)"/>
       <path id="DejaVuSans-64" d="M 2906 2969 
L 2906 4863 
L 3481 4863 
L 3481 0 
L 2906 0 
L 2906 525 
Q 2725 213 2448 61 
Q 2172 -91 1784 -91 
Q 1150 -91 751 415 
Q 353 922 353 1747 
Q 353 2572 751 3078 
Q 1150 3584 1784 3584 
Q 2172 3584 2448 3432 
Q 2725 3281 2906 2969 
z
M 947 1747 
Q 947 1113 1208 752 
Q 1469 391 1925 391 
Q 2381 391 2643 752 
Q 2906 1113 2906 1747 
Q 2906 2381 2643 2742 
Q 2381 3103 1925 3103 
Q 1469 3103 1208 2742 
Q 947 2381 947 1747 
z
" transform="scale(0.015625)"/>
      </defs>
      <use xlink:href="#DejaVuSans-48"/>
      <use xlink:href="#DejaVuSans-69" transform="translate(75.195312 0)"/>
      <use xlink:href="#DejaVuSans-64" transform="translate(102.978516 0)"/>
      <use xlink:href="#DejaVuSans-72" transform="translate(166.455078 0)"/>
      <use xlink:href="#DejaVuSans-6f" transform="translate(205.318359 0)"/>
     </g>
    </g>
   </g>
  </g>
  <g id="axes_2">
   <g id="patch_94">
    <path d="M 67.932 228.96 
L 458.532 228.96 
L 458.532 178.56 
L 67.932 178.56 
z
" style="fill: #ffffff"/>
   </g>
   <g id="patch_95">
    <path d="M 69.327 178.56 
L 80.487 178.56 
L 80.487 178.56 
L 69.327 178.56 
z
" clip-path="url(#p143370151c)" style="fill: #6d6f70"/>
   </g>
   <g id="patch_96">
    <path d="M 83.277 178.56 
L 94.437 178.56 
L 94.437 178.56 
L 83.277 178.56 
z
" clip-path="url(#p143370151c)" style="fill: #6d6f70"/>
   </g>
   <g id="patch_97">
    <path d="M 97.227 178.56 
L 108.387 178.56 
L 108.387 178.56 
L 97.227 178.56 
z
" clip-path="url(#p143370151c)" style="fill: #6d6f70"/>
   </g>
   <g id="patch_98">
    <path d="M 111.177 178.56 
L 122.337 178.56 
L 122.337 178.56 
L 111.177 178.56 
z
" clip-path="url(#p143370151c)" style="fill: #6d6f70"/>
   </g>
   <g id="patch_99">
    <path d="M 125.127 178.56 
L 136.287 178.56 
L 136.287 178.56 
L 125.127 178.56 
z
" clip-path="url(#p143370151c)" style="fill: #6d6f70"/>
   </g>
   <g id="patch_100">
    <path d="M 139.077 178.56 
L 150.237 178.56 
L 150.237 178.56 
L 139.077 178.56 
z
" clip-path="url(#p143370151c)" style="fill: #6d6f70"/>
   </g>
   <g id="patch_101">
    <path d="M 153.027 178.56 
L 164.187 178.56 
L 164.187 183.753171 
L 153.027 183.753171 
z
" clip-path="url(#p143370151c)" style="fill: #6d6f70"/>
   </g>
   <g id="patch_102">
    <path d="M 166.977 178.56 
L 178.137 178.56 
L 178.137 179.793838 
L 166.977 179.793838 
z
" clip-path="url(#p143370151c)" style="fill: #6d6f70"/>
   </g>
   <g id="patch_103">
    <path d="M 180.927 178.56 
L 192.087 178.56 
L 192.087 180.410758 
L 180.927 180.410758 
z
" clip-path="url(#p143370151c)" style="fill: #6d6f70"/>
   </g>
   <g id="patch_104">
    <path d="M 194.877 178.56 
L 206.037 178.56 
L 206.037 181.156585 
L 194.877 181.156585 
z
" clip-path="url(#p143370151c)" style="fill: #6d6f70"/>
   </g>
   <g id="patch_105">
    <path d="M 208.827 178.56 
L 219.987 178.56 
L 219.987 182.767942 
L 208.827 182.767942 
z
" clip-path="url(#p143370151c)" style="fill: #6d6f70"/>
   </g>
   <g id="patch_106">
    <path d="M 222.777 178.56 
L 233.937 178.56 
L 233.937 183.163875 
L 222.777 183.163875 
z
" clip-path="url(#p143370151c)" style="fill: #6d6f70"/>
   </g>
   <g id="patch_107">
    <path d="M 236.727 178.56 
L 247.887 178.56 
L 247.887 183.18229 
L 236.727 183.18229 
z
" clip-path="url(#p143370151c)" style="fill: #6d6f70"/>
   </g>
   <g id="patch_108">
    <path d="M 250.677 178.56 
L 261.837 178.56 
L 261.837 183.403276 
L 250.677 183.403276 
z
" clip-path="url(#p143370151c)" style="fill: #6d6f70"/>
   </g>
   <g id="patch_109">
    <path d="M 264.627 178.56 
L 275.787 178.56 
L 275.787 184.913347 
L 264.627 184.913347 
z
" clip-path="url(#p143370151c)" style="fill: #6d6f70"/>
   </g>
   <g id="patch_110">
    <path d="M 278.577 178.56 
L 289.737 178.56 
L 289.737 187.362609 
L 278.577 187.362609 
z
" clip-path="url(#p143370151c)" style="fill: #6d6f70"/>
   </g>
   <g id="patch_111">
    <path d="M 292.527 178.56 
L 303.687 178.56 
L 303.687 192.92409 
L 292.527 192.92409 
z
" clip-path="url(#p143370151c)" style="fill: #6d6f70"/>
   </g>
   <g id="patch_112">
    <path d="M 306.477 178.56 
L 317.637 178.56 
L 317.637 198.605271 
L 306.477 198.605271 
z
" clip-path="url(#p143370151c)" style="fill: #6d6f70"/>
   </g>
   <g id="patch_113">
    <path d="M 320.427 178.56 
L 331.587 178.56 
L 331.587 205.124358 
L 320.427 205.124358 
z
" clip-path="url(#p143370151c)" style="fill: #6d6f70"/>
   </g>
   <g id="patch_114">
    <path d="M 334.377 178.56 
L 345.537 178.56 
L 345.537 210.934448 
L 334.377 210.934448 
z
" clip-path="url(#p143370151c)" style="fill: #6d6f70"/>
   </g>
   <g id="patch_115">
    <path d="M 348.327 178.56 
L 359.487 178.56 
L 359.487 216.026334 
L 348.327 216.026334 
z
" clip-path="url(#p143370151c)" style="fill: #6d6f70"/>
   </g>
   <g id="patch_116">
    <path d="M 362.277 178.56 
L 373.437 178.56 
L 373.437 217.481159 
L 362.277 217.481159 
z
" clip-path="url(#p143370151c)" style="fill: #6d6f70"/>
   </g>
   <g id="patch_117">
    <path d="M 376.227 178.56 
L 387.387 178.56 
L 387.387 219.56211 
L 376.227 219.56211 
z
" clip-path="url(#p143370151c)" style="fill: #6d6f70"/>
   </g>
   <g id="patch_118">
    <path d="M 390.177 178.56 
L 401.337 178.56 
L 401.337 221.468114 
L 390.177 221.468114 
z
" clip-path="url(#p143370151c)" style="fill: #6d6f70"/>
   </g>
   <g id="patch_119">
    <path d="M 404.127 178.56 
L 415.287 178.56 
L 415.287 223.374119 
L 404.127 223.374119 
z
" clip-path="url(#p143370151c)" style="fill: #6d6f70"/>
   </g>
   <g id="patch_120">
    <path d="M 418.077 178.56 
L 429.237 178.56 
L 429.237 224.764489 
L 418.077 224.764489 
z
" clip-path="url(#p143370151c)" style="fill: #6d6f70"/>
   </g>
   <g id="patch_121">
    <path d="M 432.027 178.56 
L 443.187 178.56 
L 443.187 225.869419 
L 432.027 225.869419 
z
" clip-path="url(#p143370151c)" style="fill: #6d6f70"/>
   </g>
   <g id="patch_122">
    <path d="M 445.977 178.56 
L 457.137 178.56 
L 457.137 226.56 
L 445.977 226.56 
z
" clip-path="url(#p143370151c)" style="fill: #6d6f70"/>
   </g>
   <g id="matplotlib.axis_3">
    <g id="xtick_7">
     <g id="line2d_12">
      <g>
       <use xlink:href="#mfb1194d876" x="102.807" y="228.96" style="stroke: #000000; stroke-width: 0.8"/>
      </g>
     </g>
     <g id="text_9">
      <!-- 2025 -->
      <g transform="translate(90.082 243.558437) scale(0.1 -0.1)">
       <defs>
        <path id="DejaVuSans-35" d="M 691 4666 
L 3169 4666 
L 3169 4134 
L 1269 4134 
L 1269 2991 
Q 1406 3038 1543 3061 
Q 1681 3084 1819 3084 
Q 2600 3084 3056 2656 
Q 3513 2228 3513 1497 
Q 3513 744 3044 326 
Q 2575 -91 1722 -91 
Q 1428 -91 1123 -41 
Q 819 9 494 109 
L 494 744 
Q 775 591 1075 516 
Q 1375 441 1709 441 
Q 2250 441 2565 725 
Q 2881 1009 2881 1497 
Q 2881 1984 2565 2268 
Q 2250 2553 1709 2553 
Q 1456 2553 1204 2497 
Q 953 2441 691 2322 
L 691 4666 
z
" transform="scale(0.015625)"/>
       </defs>
       <use xlink:href="#DejaVuSans-32"/>
       <use xlink:href="#DejaVuSans-30" transform="translate(63.623047 0)"/>
       <use xlink:href="#DejaVuSans-32" transform="translate(127.246094 0)"/>
       <use xlink:href="#DejaVuSans-35" transform="translate(190.869141 0)"/>
      </g>
     </g>
    </g>
    <g id="xtick_8">
     <g id="line2d_13">
      <g>
       <use xlink:href="#mfb1194d876" x="172.557" y="228.96" style="stroke: #000000; stroke-width: 0.8"/>
      </g>
     </g>
     <g id="text_10">
      <!-- 2030 -->
      <g transform="translate(159.832 243.558437) scale(0.1 -0.1)">
       <use xlink:href="#DejaVuSans-32"/>
       <use xlink:href="#DejaVuSans-30" transform="translate(63.623047 0)"/>
       <use xlink:href="#DejaVuSans-33" transform="translate(127.246094 0)"/>
       <use xlink:href="#DejaVuSans-30" transform="translate(190.869141 0)"/>
      </g>
     </g>
    </g>
    <g id="xtick_9">
     <g id="line2d_14">
      <g>
       <use xlink:href="#mfb1194d876" x="242.307" y="228.96" style="stroke: #000000; stroke-width: 0.8"/>
      </g>
     </g>
     <g id="text_11">
      <!-- 2035 -->
      <g transform="translate(229.582 243.558437) scale(0.1 -0.1)">
       <use xlink:href="#DejaVuSans-32"/>
       <use xlink:href="#DejaVuSans-30" transform="translate(63.623047 0)"/>
       <use xlink:href="#DejaVuSans-33" transform="translate(127.246094 0)"/>
       <use xlink:href="#DejaVuSans-35" transform="translate(190.869141 0)"/>
      </g>
     </g>
    </g>
    <g id="xtick_10">
     <g id="line2d_15">
      <g>
       <use xlink:href="#mfb1194d876" x="312.057" y="228.96" style="stroke: #000000; stroke-width: 0.8"/>
      </g>
     </g>
     <g id="text_12">
      <!-- 2040 -->
      <g transform="translate(299.332 243.558437) scale(0.1 -0.1)">
       <use xlink:href="#DejaVuSans-32"/>
       <use xlink:href="#DejaVuSans-30" transform="translate(63.623047 0)"/>
       <use xlink:href="#DejaVuSans-34" transform="translate(127.246094 0)"/>
       <use xlink:href="#DejaVuSans-30" transform="translate(190.869141 0)"/>
      </g>
     </g>
    </g>
    <g id="xtick_11">
     <g id="line2d_16">
      <g>
       <use xlink:href="#mfb1194d876" x="381.807" y="228.96" style="stroke: #000000; stroke-width: 0.8"/>
      </g>
     </g>
     <g id="text_13">
      <!-- 2045 -->
      <g transform="translate(369.082 243.558437) scale(0.1 -0.1)">
       <use xlink:href="#DejaVuSans-32"/>
       <use xlink:href="#DejaVuSans-30" transform="translate(63.623047 0)"/>
       <use xlink:href="#DejaVuSans-34" transform="translate(127.246094 0)"/>
       <use xlink:href="#DejaVuSans-35" transform="translate(190.869141 0)"/>
      </g>
     </g>
    </g>
    <g id="xtick_12">
     <g id="line2d_17">
      <g>
       <use xlink:href="#mfb1194d876" x="451.557" y="228.96" style="stroke: #000000; stroke-width: 0.8"/>
      </g>
     </g>
     <g id="text_14">
      <!-- 2050 -->
      <g transform="translate(438.832 243.558437) scale(0.1 -0.1)">
       <use xlink:href="#DejaVuSans-32"/>
       <use xlink:href="#DejaVuSans-30" transform="translate(63.623047 0)"/>
       <use xlink:href="#DejaVuSans-35" transform="translate(127.246094 0)"/>
       <use xlink:href="#DejaVuSans-30" transform="translate(190.869141 0)"/>
      </g>
     </g>
    </g>
   </g>
   <g id="matplotlib.axis_4">
    <g id="ytick_6">
     <g id="line2d_18">
      <g>
       <use xlink:href="#m0f65e6b8b8" x="67.932" y="224.598749" style="stroke: #000000; stroke-width: 0.8"/>
      </g>
     </g>
     <g id="text_15">
      <!-- −500 -->
      <g transform="translate(33.464813 228.397968) scale(0.1 -0.1)">
       <defs>
        <path id="DejaVuSans-2212" d="M 678 2272 
L 4684 2272 
L 4684 1741 
L 678 1741 
L 678 2272 
z
" transform="scale(0.015625)"/>
       </defs>
       <use xlink:href="#DejaVuSans-2212"/>
       <use xlink:href="#DejaVuSans-35" transform="translate(83.789062 0)"/>
       <use xlink:href="#DejaVuSans-30" transform="translate(147.412109 0)"/>
       <use xlink:href="#DejaVuSans-30" transform="translate(211.035156 0)"/>
      </g>
     </g>
    </g>
    <g id="ytick_7">
     <g id="line2d_19">
      <g>
       <use xlink:href="#m0f65e6b8b8" x="67.932" y="178.56" style="stroke: #000000; stroke-width: 0.8"/>
      </g>
     </g>
     <g id="text_16">
      <!-- 0 -->
      <g transform="translate(54.5695 182.359219) scale(0.1 -0.1)">
       <use xlink:href="#DejaVuSans-30"/>
      </g>
     </g>
    </g>
   </g>
   <g id="patch_123">
    <path d="M 67.932 228.96 
L 67.932 178.56 
" style="fill: none; stroke: #000000; stroke-width: 0.8; stroke-linejoin: miter; stroke-linecap: square"/>
   </g>
   <g id="patch_124">
    <path d="M 458.532 228.96 
L 458.532 178.56 
" style="fill: none; stroke: #000000; stroke-width: 0.8; stroke-linejoin: miter; stroke-linecap: square"/>
   </g>
   <g id="patch_125">
    <path d="M 67.932 228.96 
L 458.532 228.96 
" style="fill: none; stroke: #000000; stroke-width: 0.8; stroke-linejoin: miter; stroke-linecap: square"/>
   </g>
   <g id="patch_126">
    <path d="M 67.932 178.56 
L 458.532 178.56 
" style="fill: none; stroke: #000000; stroke-width: 0.8; stroke-linejoin: miter; stroke-linecap: square"/>
   </g>
   <g id="legend_2">
    <g id="patch_127">
     <path d="M 69.793313 201.837187 
L 89.793313 201.837187 
L 89.793313 194.837187 
L 69.793313 194.837187 
z
" style="fill: #6d6f70"/>
    </g>
    <g id="text_17">
     <!-- reducción  -->
     <g transform="translate(97.793313 195.198437) scale(0.1 -0.1)">
      <defs>
       <path id="DejaVuSans-65" d="M 3597 1894 
L 3597 1613 
L 953 1613 
Q 991 1019 1311 708 
Q 1631 397 2203 397 
Q 2534 397 2845 478 
Q 3156 559 3463 722 
L 3463 178 
Q 3153 47 2828 -22 
Q 2503 -91 2169 -91 
Q 1331 -91 842 396 
Q 353 884 353 1716 
Q 353 2575 817 3079 
Q 1281 3584 2069 3584 
Q 2775 3584 3186 3129 
Q 3597 2675 3597 1894 
z
M 3022 2063 
Q 3016 2534 2758 2815 
Q 2500 3097 2075 3097 
Q 1594 3097 1305 2825 
Q 1016 2553 972 2059 
L 3022 2063 
z
" transform="scale(0.015625)"/>
       <path id="DejaVuSans-75" d="M 544 1381 
L 544 3500 
L 1119 3500 
L 1119 1403 
Q 1119 906 1312 657 
Q 1506 409 1894 409 
Q 2359 409 2629 706 
Q 2900 1003 2900 1516 
L 2900 3500 
L 3475 3500 
L 3475 0 
L 2900 0 
L 2900 538 
Q 2691 219 2414 64 
Q 2138 -91 1772 -91 
Q 1169 -91 856 284 
Q 544 659 544 1381 
z
M 1991 3584 
L 1991 3584 
z
" transform="scale(0.015625)"/>
       <path id="DejaVuSans-6e" d="M 3513 2113 
L 3513 0 
L 2938 0 
L 2938 2094 
Q 2938 2591 2744 2837 
Q 2550 3084 2163 3084 
Q 1697 3084 1428 2787 
Q 1159 2491 1159 1978 
L 1159 0 
L 581 0 
L 581 3500 
L 1159 3500 
L 1159 2956 
Q 1366 3272 1645 3428 
Q 1925 3584 2291 3584 
Q 2894 3584 3203 3211 
Q 3513 2838 3513 2113 
z
" transform="scale(0.015625)"/>
       <path id="DejaVuSans-20" transform="scale(0.015625)"/>
      </defs>
      <use xlink:href="#DejaVuSans-72"/>
      <use xlink:href="#DejaVuSans-65" transform="translate(38.863281 0)"/>
      <use xlink:href="#DejaVuSans-64" transform="translate(100.386719 0)"/>
      <use xlink:href="#DejaVuSans-75" transform="translate(163.863281 0)"/>
      <use xlink:href="#DejaVuSans-63" transform="translate(227.242188 0)"/>
      <use xlink:href="#DejaVuSans-63" transform="translate(282.222656 0)"/>
      <use xlink:href="#DejaVuSans-69" transform="translate(337.203125 0)"/>
      <use xlink:href="#DejaVuSans-f3" transform="translate(364.986328 0)"/>
      <use xlink:href="#DejaVuSans-6e" transform="translate(426.167969 0)"/>
      <use xlink:href="#DejaVuSans-20" transform="translate(489.546875 0)"/>
     </g>
     <!-- vertimiento -->
     <g transform="translate(97.793313 206.39625) scale(0.1 -0.1)">
      <defs>
       <path id="DejaVuSans-76" d="M 191 3500 
L 800 3500 
L 1894 563 
L 2988 3500 
L 3597 3500 
L 2284 0 
L 1503 0 
L 191 3500 
z
" transform="scale(0.015625)"/>
       <path id="DejaVuSans-74" d="M 1172 4494 
L 1172 3500 
L 2356 3500 
L 2356 3053 
L 1172 3053 
L 1172 1153 
Q 1172 725 1289 603 
Q 1406 481 1766 481 
L 2356 481 
L 2356 0 
L 1766 0 
Q 1100 0 847 248 
Q 594 497 594 1153 
L 594 3053 
L 172 3053 
L 172 3500 
L 594 3500 
L 594 4494 
L 1172 4494 
z
" transform="scale(0.015625)"/>
       <path id="DejaVuSans-6d" d="M 3328 2828 
Q 3544 3216 3844 3400 
Q 4144 3584 4550 3584 
Q 5097 3584 5394 3201 
Q 5691 2819 5691 2113 
L 5691 0 
L 5113 0 
L 5113 2094 
Q 5113 2597 4934 2840 
Q 4756 3084 4391 3084 
Q 3944 3084 3684 2787 
Q 3425 2491 3425 1978 
L 3425 0 
L 2847 0 
L 2847 2094 
Q 2847 2600 2669 2842 
Q 2491 3084 2119 3084 
Q 1678 3084 1418 2786 
Q 1159 2488 1159 1978 
L 1159 0 
L 581 0 
L 581 3500 
L 1159 3500 
L 1159 2956 
Q 1356 3278 1631 3431 
Q 1906 3584 2284 3584 
Q 2666 3584 2933 3390 
Q 3200 3197 3328 2828 
z
" transform="scale(0.015625)"/>
      </defs>
      <use xlink:href="#DejaVuSans-76"/>
      <use xlink:href="#DejaVuSans-65" transform="translate(59.179688 0)"/>
      <use xlink:href="#DejaVuSans-72" transform="translate(120.703125 0)"/>
      <use xlink:href="#DejaVuSans-74" transform="translate(161.816406 0)"/>
      <use xlink:href="#DejaVuSans-69" transform="translate(201.025391 0)"/>
      <use xlink:href="#DejaVuSans-6d" transform="translate(228.808594 0)"/>
      <use xlink:href="#DejaVuSans-69" transform="translate(326.220703 0)"/>
      <use xlink:href="#DejaVuSans-65" transform="translate(354.003906 0)"/>
      <use xlink:href="#DejaVuSans-6e" transform="translate(415.527344 0)"/>
      <use xlink:href="#DejaVuSans-74" transform="translate(478.90625 0)"/>
      <use xlink:href="#DejaVuSans-6f" transform="translate(518.115234 0)"/>
     </g>
    </g>
   </g>
  </g>
  <g id="axes_3">
   <g id="matplotlib.axis_5">
    <g id="ytick_8">
     <g id="line2d_20">
      <defs>
       <path id="m37420be5d9" d="M 0 0 
L 3.5 0 
" style="stroke: #000000; stroke-width: 0.8"/>
      </defs>
      <g>
       <use xlink:href="#m37420be5d9" x="458.532" y="151.527273" style="stroke: #000000; stroke-width: 0.8"/>
      </g>
     </g>
     <g id="text_18">
      <!-- 0 -->
      <g transform="translate(465.532 155.326491) scale(0.1 -0.1)">
       <use xlink:href="#DejaVuSans-30"/>
      </g>
     </g>
    </g>
    <g id="ytick_9">
     <g id="line2d_21">
      <g>
       <use xlink:href="#m37420be5d9" x="458.532" y="112.698305" style="stroke: #000000; stroke-width: 0.8"/>
      </g>
     </g>
     <g id="text_19">
      <!-- 10 -->
      <g transform="translate(465.532 116.497524) scale(0.1 -0.1)">
       <use xlink:href="#DejaVuSans-31"/>
       <use xlink:href="#DejaVuSans-30" transform="translate(63.623047 0)"/>
      </g>
     </g>
    </g>
    <g id="ytick_10">
     <g id="line2d_22">
      <g>
       <use xlink:href="#m37420be5d9" x="458.532" y="73.869337" style="stroke: #000000; stroke-width: 0.8"/>
      </g>
     </g>
     <g id="text_20">
      <!-- 20 -->
      <g transform="translate(465.532 77.668556) scale(0.1 -0.1)">
       <use xlink:href="#DejaVuSans-32"/>
       <use xlink:href="#DejaVuSans-30" transform="translate(63.623047 0)"/>
      </g>
     </g>
    </g>
    <g id="ytick_11">
     <g id="line2d_23">
      <g>
       <use xlink:href="#m37420be5d9" x="458.532" y="35.04037" style="stroke: #000000; stroke-width: 0.8"/>
      </g>
     </g>
     <g id="text_21">
      <!-- 30 -->
      <g transform="translate(465.532 38.839589) scale(0.1 -0.1)">
       <use xlink:href="#DejaVuSans-33"/>
       <use xlink:href="#DejaVuSans-30" transform="translate(63.623047 0)"/>
      </g>
     </g>
    </g>
    <g id="text_22">
     <!-- % renovables -->
     <g transform="translate(491.375125 123.426562) rotate(-90) scale(0.12 -0.12)">
      <defs>
       <path id="DejaVuSans-25" d="M 4653 2053 
Q 4381 2053 4226 1822 
Q 4072 1591 4072 1178 
Q 4072 772 4226 539 
Q 4381 306 4653 306 
Q 4919 306 5073 539 
Q 5228 772 5228 1178 
Q 5228 1588 5073 1820 
Q 4919 2053 4653 2053 
z
M 4653 2450 
Q 5147 2450 5437 2106 
Q 5728 1763 5728 1178 
Q 5728 594 5436 251 
Q 5144 -91 4653 -91 
Q 4153 -91 3862 251 
Q 3572 594 3572 1178 
Q 3572 1766 3864 2108 
Q 4156 2450 4653 2450 
z
M 1428 4353 
Q 1159 4353 1004 4120 
Q 850 3888 850 3481 
Q 850 3069 1003 2837 
Q 1156 2606 1428 2606 
Q 1700 2606 1854 2837 
Q 2009 3069 2009 3481 
Q 2009 3884 1853 4118 
Q 1697 4353 1428 4353 
z
M 4250 4750 
L 4750 4750 
L 1831 -91 
L 1331 -91 
L 4250 4750 
z
M 1428 4750 
Q 1922 4750 2215 4408 
Q 2509 4066 2509 3481 
Q 2509 2891 2217 2550 
Q 1925 2209 1428 2209 
Q 931 2209 642 2551 
Q 353 2894 353 3481 
Q 353 4063 643 4406 
Q 934 4750 1428 4750 
z
" transform="scale(0.015625)"/>
       <path id="DejaVuSans-62" d="M 3116 1747 
Q 3116 2381 2855 2742 
Q 2594 3103 2138 3103 
Q 1681 3103 1420 2742 
Q 1159 2381 1159 1747 
Q 1159 1113 1420 752 
Q 1681 391 2138 391 
Q 2594 391 2855 752 
Q 3116 1113 3116 1747 
z
M 1159 2969 
Q 1341 3281 1617 3432 
Q 1894 3584 2278 3584 
Q 2916 3584 3314 3078 
Q 3713 2572 3713 1747 
Q 3713 922 3314 415 
Q 2916 -91 2278 -91 
Q 1894 -91 1617 61 
Q 1341 213 1159 525 
L 1159 0 
L 581 0 
L 581 4863 
L 1159 4863 
L 1159 2969 
z
" transform="scale(0.015625)"/>
       <path id="DejaVuSans-73" d="M 2834 3397 
L 2834 2853 
Q 2591 2978 2328 3040 
Q 2066 3103 1784 3103 
Q 1356 3103 1142 2972 
Q 928 2841 928 2578 
Q 928 2378 1081 2264 
Q 1234 2150 1697 2047 
L 1894 2003 
Q 2506 1872 2764 1633 
Q 3022 1394 3022 966 
Q 3022 478 2636 193 
Q 2250 -91 1575 -91 
Q 1294 -91 989 -36 
Q 684 19 347 128 
L 347 722 
Q 666 556 975 473 
Q 1284 391 1588 391 
Q 1994 391 2212 530 
Q 2431 669 2431 922 
Q 2431 1156 2273 1281 
Q 2116 1406 1581 1522 
L 1381 1569 
Q 847 1681 609 1914 
Q 372 2147 372 2553 
Q 372 3047 722 3315 
Q 1072 3584 1716 3584 
Q 2034 3584 2315 3537 
Q 2597 3491 2834 3397 
z
" transform="scale(0.015625)"/>
      </defs>
      <use xlink:href="#DejaVuSans-25"/>
      <use xlink:href="#DejaVuSans-20" transform="translate(95.019531 0)"/>
      <use xlink:href="#DejaVuSans-72" transform="translate(126.806641 0)"/>
      <use xlink:href="#DejaVuSans-65" transform="translate(165.669922 0)"/>
      <use xlink:href="#DejaVuSans-6e" transform="translate(227.193359 0)"/>
      <use xlink:href="#DejaVuSans-6f" transform="translate(290.572266 0)"/>
      <use xlink:href="#DejaVuSans-76" transform="translate(351.753906 0)"/>
      <use xlink:href="#DejaVuSans-61" transform="translate(410.933594 0)"/>
      <use xlink:href="#DejaVuSans-62" transform="translate(472.212891 0)"/>
      <use xlink:href="#DejaVuSans-6c" transform="translate(535.689453 0)"/>
      <use xlink:href="#DejaVuSans-65" transform="translate(563.472656 0)"/>
      <use xlink:href="#DejaVuSans-73" transform="translate(624.996094 0)"/>
     </g>
    </g>
   </g>
   <g id="line2d_24">
    <defs>
     <path id="m2f53c6f886" d="M 0 2.5 
C 0.663008 2.5 1.29895 2.236584 1.767767 1.767767 
C 2.236584 1.29895 2.5 0.663008 2.5 0 
C 2.5 -0.663008 2.236584 -1.29895 1.767767 -1.767767 
C 1.29895 -2.236584 0.663008 -2.5 0 -2.5 
C -0.663008 -2.5 -1.29895 -2.236584 -1.767767 -1.767767 
C -2.236584 -1.29895 -2.5 -0.663008 -2.5 0 
C -2.5 0.663008 -2.236584 1.29895 -1.767767 1.767767 
C -1.29895 2.236584 -0.663008 2.5 0 2.5 
z
" style="stroke: #000000"/>
    </defs>
    <g clip-path="url(#pb103e1061f)">
     <use xlink:href="#m2f53c6f886" x="74.907" y="151.527273" style="stroke: #000000"/>
     <use xlink:href="#m2f53c6f886" x="88.857" y="151.527273" style="stroke: #000000"/>
     <use xlink:href="#m2f53c6f886" x="102.807" y="145.702928" style="stroke: #000000"/>
     <use xlink:href="#m2f53c6f886" x="116.757" y="145.702928" style="stroke: #000000"/>
     <use xlink:href="#m2f53c6f886" x="130.707" y="138.713713" style="stroke: #000000"/>
     <use xlink:href="#m2f53c6f886" x="144.657" y="123.958706" style="stroke: #000000"/>
     <use xlink:href="#m2f53c6f886" x="158.607" y="105.709091" style="stroke: #000000"/>
     <use xlink:href="#m2f53c6f886" x="172.557" y="41.641294" style="stroke: #000000"/>
     <use xlink:href="#m2f53c6f886" x="186.507" y="14.072727" style="stroke: #000000"/>
     <use xlink:href="#m2f53c6f886" x="200.457" y="21.450231" style="stroke: #000000"/>
     <use xlink:href="#m2f53c6f886" x="214.407" y="28.051156" style="stroke: #000000"/>
     <use xlink:href="#m2f53c6f886" x="228.357" y="23.39168" style="stroke: #000000"/>
     <use xlink:href="#m2f53c6f886" x="242.307" y="23.00339" style="stroke: #000000"/>
     <use xlink:href="#m2f53c6f886" x="256.257" y="23.779969" style="stroke: #000000"/>
     <use xlink:href="#m2f53c6f886" x="270.207" y="31.934052" style="stroke: #000000"/>
     <use xlink:href="#m2f53c6f886" x="284.157" y="40.476425" style="stroke: #000000"/>
     <use xlink:href="#m2f53c6f886" x="298.107" y="49.018798" style="stroke: #000000"/>
     <use xlink:href="#m2f53c6f886" x="312.057" y="56.784592" style="stroke: #000000"/>
     <use xlink:href="#m2f53c6f886" x="326.007" y="65.326965" style="stroke: #000000"/>
     <use xlink:href="#m2f53c6f886" x="339.957" y="73.092758" style="stroke: #000000"/>
     <use xlink:href="#m2f53c6f886" x="353.907" y="80.470262" style="stroke: #000000"/>
     <use xlink:href="#m2f53c6f886" x="367.857" y="86.682897" style="stroke: #000000"/>
     <use xlink:href="#m2f53c6f886" x="381.807" y="92.895532" style="stroke: #000000"/>
     <use xlink:href="#m2f53c6f886" x="395.757" y="99.108166" style="stroke: #000000"/>
     <use xlink:href="#m2f53c6f886" x="409.707" y="104.932512" style="stroke: #000000"/>
     <use xlink:href="#m2f53c6f886" x="423.657" y="109.980277" style="stroke: #000000"/>
     <use xlink:href="#m2f53c6f886" x="437.607" y="115.416333" style="stroke: #000000"/>
     <use xlink:href="#m2f53c6f886" x="451.557" y="118.52265" style="stroke: #000000"/>
    </g>
   </g>
   <g id="patch_128">
    <path d="M 67.932 158.4 
L 67.932 7.2 
" style="fill: none; stroke: #000000; stroke-width: 0.8; stroke-linejoin: miter; stroke-linecap: square"/>
   </g>
   <g id="patch_129">
    <path d="M 458.532 158.4 
L 458.532 7.2 
" style="fill: none; stroke: #000000; stroke-width: 0.8; stroke-linejoin: miter; stroke-linecap: square"/>
   </g>
   <g id="patch_130">
    <path d="M 67.932 158.4 
L 458.532 158.4 
" style="fill: none; stroke: #000000; stroke-width: 0.8; stroke-linejoin: miter; stroke-linecap: square"/>
   </g>
   <g id="patch_131">
    <path d="M 67.932 7.2 
L 458.532 7.2 
" style="fill: none; stroke: #000000; stroke-width: 0.8; stroke-linejoin: miter; stroke-linecap: square"/>
   </g>
  </g>
  <g id="text_23">
   <!-- [GWh] -->
   <g transform="translate(17.837813 138.883594) rotate(-90) scale(0.14 -0.14)">
    <defs>
     <path id="DejaVuSans-5b" d="M 550 4863 
L 1875 4863 
L 1875 4416 
L 1125 4416 
L 1125 -397 
L 1875 -397 
L 1875 -844 
L 550 -844 
L 550 4863 
z
" transform="scale(0.015625)"/>
     <path id="DejaVuSans-47" d="M 3809 666 
L 3809 1919 
L 2778 1919 
L 2778 2438 
L 4434 2438 
L 4434 434 
Q 4069 175 3628 42 
Q 3188 -91 2688 -91 
Q 1594 -91 976 548 
Q 359 1188 359 2328 
Q 359 3472 976 4111 
Q 1594 4750 2688 4750 
Q 3144 4750 3555 4637 
Q 3966 4525 4313 4306 
L 4313 3634 
Q 3963 3931 3569 4081 
Q 3175 4231 2741 4231 
Q 1884 4231 1454 3753 
Q 1025 3275 1025 2328 
Q 1025 1384 1454 906 
Q 1884 428 2741 428 
Q 3075 428 3337 486 
Q 3600 544 3809 666 
z
" transform="scale(0.015625)"/>
     <path id="DejaVuSans-57" d="M 213 4666 
L 850 4666 
L 1831 722 
L 2809 4666 
L 3519 4666 
L 4500 722 
L 5478 4666 
L 6119 4666 
L 4947 0 
L 4153 0 
L 3169 4050 
L 2175 0 
L 1381 0 
L 213 4666 
z
" transform="scale(0.015625)"/>
     <path id="DejaVuSans-68" d="M 3513 2113 
L 3513 0 
L 2938 0 
L 2938 2094 
Q 2938 2591 2744 2837 
Q 2550 3084 2163 3084 
Q 1697 3084 1428 2787 
Q 1159 2491 1159 1978 
L 1159 0 
L 581 0 
L 581 4863 
L 1159 4863 
L 1159 2956 
Q 1366 3272 1645 3428 
Q 1925 3584 2291 3584 
Q 2894 3584 3203 3211 
Q 3513 2838 3513 2113 
z
" transform="scale(0.015625)"/>
     <path id="DejaVuSans-5d" d="M 1947 4863 
L 1947 -844 
L 622 -844 
L 622 -397 
L 1369 -397 
L 1369 4416 
L 622 4416 
L 622 4863 
L 1947 4863 
z
" transform="scale(0.015625)"/>
    </defs>
    <use xlink:href="#DejaVuSans-5b"/>
    <use xlink:href="#DejaVuSans-47" transform="translate(39.013672 0)"/>
    <use xlink:href="#DejaVuSans-57" transform="translate(116.503906 0)"/>
    <use xlink:href="#DejaVuSans-68" transform="translate(215.380859 0)"/>
    <use xlink:href="#DejaVuSans-5d" transform="translate(278.759766 0)"/>
   </g>
  </g>
 </g>
 <defs>
  <clipPath id="pb103e1061f">
   <rect x="67.932" y="7.2" width="390.6" height="151.2"/>
  </clipPath>
  <clipPath id="p143370151c">
   <rect x="67.932" y="178.56" width="390.6" height="50.4"/>
  </clipPath>
 </defs>
</svg>
