<?xml version="1.0" encoding="utf-8" standalone="no"?>
<!DOCTYPE svg PUBLIC "-//W3C//DTD SVG 1.1//EN"
  "http://www.w3.org/Graphics/SVG/1.1/DTD/svg11.dtd">
<svg xmlns:xlink="http://www.w3.org/1999/xlink" width="488.4025pt" height="141.958125pt" viewBox="0 0 488.4025 141.958125" xmlns="http://www.w3.org/2000/svg" version="1.1">
 <metadata>
  <rdf:RDF xmlns:dc="http://purl.org/dc/elements/1.1/" xmlns:cc="http://creativecommons.org/ns#" xmlns:rdf="http://www.w3.org/1999/02/22-rdf-syntax-ns#">
   <cc:Work>
    <dc:type rdf:resource="http://purl.org/dc/dcmitype/StillImage"/>
    <dc:date>2026-04-21T09:26:51.348641</dc:date>
    <dc:format>image/svg+xml</dc:format>
    <dc:creator>
     <cc:Agent>
      <dc:title>Matplotlib v3.10.3, https://matplotlib.org/</dc:title>
     </cc:Agent>
    </dc:creator>
   </cc:Work>
  </rdf:RDF>
 </metadata>
 <defs>
  <style type="text/css">*{stroke-linejoin: round; stroke-linecap: butt}</style>
 </defs>
 <g id="figure_1">
  <g id="patch_1">
   <path d="M 0 141.958125 
L 488.4025 141.958125 
L 488.4025 0 
L 0 0 
z
" style="fill: #ffffff"/>
  </g>
  <g id="axes_1">
   <g id="patch_2">
    <path d="M 55.26375 118.08 
L 445.86375 118.08 
L 445.86375 7.2 
L 55.26375 7.2 
z
" style="fill: #ffffff"/>
   </g>
   <g id="patch_3">
    <path d="M 56.65875 118.08 
L 67.81875 118.08 
L 67.81875 118.08 
L 56.65875 118.08 
z
" clip-path="url(#p87fb654ab8)" style="fill: #fbaa1b"/>
   </g>
   <g id="patch_4">
    <path d="M 70.60875 118.08 
L 81.76875 118.08 
L 81.76875 118.08 
L 70.60875 118.08 
z
" clip-path="url(#p87fb654ab8)" style="fill: #fbaa1b"/>
   </g>
   <g id="patch_5">
    <path d="M 84.55875 118.08 
L 95.71875 118.08 
L 95.71875 118.08 
L 84.55875 118.08 
z
" clip-path="url(#p87fb654ab8)" style="fill: #fbaa1b"/>
   </g>
   <g id="patch_6">
    <path d="M 98.50875 118.08 
L 109.66875 118.08 
L 109.66875 118.08 
L 98.50875 118.08 
z
" clip-path="url(#p87fb654ab8)" style="fill: #fbaa1b"/>
   </g>
   <g id="patch_7">
    <path d="M 112.45875 118.08 
L 123.61875 118.08 
L 123.61875 118.08 
L 112.45875 118.08 
z
" clip-path="url(#p87fb654ab8)" style="fill: #fbaa1b"/>
   </g>
   <g id="patch_8">
    <path d="M 126.40875 118.08 
L 137.56875 118.08 
L 137.56875 118.08 
L 126.40875 118.08 
z
" clip-path="url(#p87fb654ab8)" style="fill: #fbaa1b"/>
   </g>
   <g id="patch_9">
    <path d="M 140.35875 118.08 
L 151.51875 118.08 
L 151.51875 118.08 
L 140.35875 118.08 
z
" clip-path="url(#p87fb654ab8)" style="fill: #fbaa1b"/>
   </g>
   <g id="patch_10">
    <path d="M 154.30875 118.08 
L 165.46875 118.08 
L 165.46875 117.257425 
L 154.30875 117.257425 
z
" clip-path="url(#p87fb654ab8)" style="fill: #fbaa1b"/>
   </g>
   <g id="patch_11">
    <path d="M 168.25875 118.08 
L 179.41875 118.08 
L 179.41875 113.95939 
L 168.25875 113.95939 
z
" clip-path="url(#p87fb654ab8)" style="fill: #fbaa1b"/>
   </g>
   <g id="patch_12">
    <path d="M 182.20875 118.08 
L 193.36875 118.08 
L 193.36875 113.985176 
L 182.20875 113.985176 
z
" clip-path="url(#p87fb654ab8)" style="fill: #fbaa1b"/>
   </g>
   <g id="patch_13">
    <path d="M 196.15875 118.08 
L 207.31875 118.08 
L 207.31875 114.041905 
L 196.15875 114.041905 
z
" clip-path="url(#p87fb654ab8)" style="fill: #fbaa1b"/>
   </g>
   <g id="patch_14">
    <path d="M 210.10875 118.08 
L 221.26875 118.08 
L 221.26875 112.118266 
L 210.10875 112.118266 
z
" clip-path="url(#p87fb654ab8)" style="fill: #fbaa1b"/>
   </g>
   <g id="patch_15">
    <path d="M 224.05875 118.08 
L 235.21875 118.08 
L 235.21875 112.394177 
L 224.05875 112.394177 
z
" clip-path="url(#p87fb654ab8)" style="fill: #fbaa1b"/>
   </g>
   <g id="patch_16">
    <path d="M 238.00875 118.08 
L 249.16875 118.08 
L 249.16875 112.77581 
L 238.00875 112.77581 
z
" clip-path="url(#p87fb654ab8)" style="fill: #fbaa1b"/>
   </g>
   <g id="patch_17">
    <path d="M 251.95875 118.08 
L 263.11875 118.08 
L 263.11875 113.258009 
L 251.95875 113.258009 
z
" clip-path="url(#p87fb654ab8)" style="fill: #fbaa1b"/>
   </g>
   <g id="patch_18">
    <path d="M 265.90875 118.08 
L 277.06875 118.08 
L 277.06875 113.79178 
L 265.90875 113.79178 
z
" clip-path="url(#p87fb654ab8)" style="fill: #fbaa1b"/>
   </g>
   <g id="patch_19">
    <path d="M 279.85875 118.08 
L 291.01875 118.08 
L 291.01875 114.348759 
L 279.85875 114.348759 
z
" clip-path="url(#p87fb654ab8)" style="fill: #fbaa1b"/>
   </g>
   <g id="patch_20">
    <path d="M 293.80875 118.08 
L 304.96875 118.08 
L 304.96875 114.823222 
L 293.80875 114.823222 
z
" clip-path="url(#p87fb654ab8)" style="fill: #fbaa1b"/>
   </g>
   <g id="patch_21">
    <path d="M 307.75875 118.08 
L 318.91875 118.08 
L 318.91875 115.3441 
L 307.75875 115.3441 
z
" clip-path="url(#p87fb654ab8)" style="fill: #fbaa1b"/>
   </g>
   <g id="patch_22">
    <path d="M 321.70875 118.08 
L 332.86875 118.08 
L 332.86875 115.730891 
L 321.70875 115.730891 
z
" clip-path="url(#p87fb654ab8)" style="fill: #fbaa1b"/>
   </g>
   <g id="patch_23">
    <path d="M 335.65875 118.08 
L 346.81875 118.08 
L 346.81875 115.999066 
L 335.65875 115.999066 
z
" clip-path="url(#p87fb654ab8)" style="fill: #fbaa1b"/>
   </g>
   <g id="patch_24">
    <path d="M 349.60875 118.08 
L 360.76875 118.08 
L 360.76875 116.293027 
L 349.60875 116.293027 
z
" clip-path="url(#p87fb654ab8)" style="fill: #fbaa1b"/>
   </g>
   <g id="patch_25">
    <path d="M 363.55875 118.08 
L 374.71875 118.08 
L 374.71875 116.599881 
L 363.55875 116.599881 
z
" clip-path="url(#p87fb654ab8)" style="fill: #fbaa1b"/>
   </g>
   <g id="patch_26">
    <path d="M 377.50875 118.08 
L 388.66875 118.08 
L 388.66875 116.937678 
L 377.50875 116.937678 
z
" clip-path="url(#p87fb654ab8)" style="fill: #fbaa1b"/>
   </g>
   <g id="patch_27">
    <path d="M 391.45875 118.08 
L 402.61875 118.08 
L 402.61875 117.262582 
L 391.45875 117.262582 
z
" clip-path="url(#p87fb654ab8)" style="fill: #fbaa1b"/>
   </g>
   <g id="patch_28">
    <path d="M 405.40875 118.08 
L 416.56875 118.08 
L 416.56875 117.5256 
L 405.40875 117.5256 
z
" clip-path="url(#p87fb654ab8)" style="fill: #fbaa1b"/>
   </g>
   <g id="patch_29">
    <path d="M 419.35875 118.08 
L 430.51875 118.08 
L 430.51875 117.72931 
L 419.35875 117.72931 
z
" clip-path="url(#p87fb654ab8)" style="fill: #fbaa1b"/>
   </g>
   <g id="patch_30">
    <path d="M 433.30875 118.08 
L 444.46875 118.08 
L 444.46875 117.891762 
L 433.30875 117.891762 
z
" clip-path="url(#p87fb654ab8)" style="fill: #fbaa1b"/>
   </g>
   <g id="patch_31">
    <path d="M 56.65875 118.08 
L 67.81875 118.08 
L 67.81875 118.08 
L 56.65875 118.08 
z
" clip-path="url(#p87fb654ab8)" style="fill: #8fc73e"/>
   </g>
   <g id="patch_32">
    <path d="M 70.60875 118.08 
L 81.76875 118.08 
L 81.76875 118.08 
L 70.60875 118.08 
z
" clip-path="url(#p87fb654ab8)" style="fill: #8fc73e"/>
   </g>
   <g id="patch_33">
    <path d="M 84.55875 118.08 
L 95.71875 118.08 
L 95.71875 118.08 
L 84.55875 118.08 
z
" clip-path="url(#p87fb654ab8)" style="fill: #8fc73e"/>
   </g>
   <g id="patch_34">
    <path d="M 98.50875 118.08 
L 109.66875 118.08 
L 109.66875 118.08 
L 98.50875 118.08 
z
" clip-path="url(#p87fb654ab8)" style="fill: #8fc73e"/>
   </g>
   <g id="patch_35">
    <path d="M 112.45875 118.08 
L 123.61875 118.08 
L 123.61875 118.08 
L 112.45875 118.08 
z
" clip-path="url(#p87fb654ab8)" style="fill: #8fc73e"/>
   </g>
   <g id="patch_36">
    <path d="M 126.40875 118.08 
L 137.56875 118.08 
L 137.56875 118.08 
L 126.40875 118.08 
z
" clip-path="url(#p87fb654ab8)" style="fill: #8fc73e"/>
   </g>
   <g id="patch_37">
    <path d="M 140.35875 118.08 
L 151.51875 118.08 
L 151.51875 118.08 
L 140.35875 118.08 
z
" clip-path="url(#p87fb654ab8)" style="fill: #8fc73e"/>
   </g>
   <g id="patch_38">
    <path d="M 154.30875 117.257425 
L 165.46875 117.257425 
L 165.46875 117.257425 
L 154.30875 117.257425 
z
" clip-path="url(#p87fb654ab8)" style="fill: #8fc73e"/>
   </g>
   <g id="patch_39">
    <path d="M 168.25875 113.95939 
L 179.41875 113.95939 
L 179.41875 113.211594 
L 168.25875 113.211594 
z
" clip-path="url(#p87fb654ab8)" style="fill: #8fc73e"/>
   </g>
   <g id="patch_40">
    <path d="M 182.20875 113.985176 
L 193.36875 113.985176 
L 193.36875 113.214173 
L 182.20875 113.214173 
z
" clip-path="url(#p87fb654ab8)" style="fill: #8fc73e"/>
   </g>
   <g id="patch_41">
    <path d="M 196.15875 114.041905 
L 207.31875 114.041905 
L 207.31875 113.27606 
L 196.15875 113.27606 
z
" clip-path="url(#p87fb654ab8)" style="fill: #8fc73e"/>
   </g>
   <g id="patch_42">
    <path d="M 210.10875 112.118266 
L 221.26875 112.118266 
L 221.26875 110.323557 
L 210.10875 110.323557 
z
" clip-path="url(#p87fb654ab8)" style="fill: #8fc73e"/>
   </g>
   <g id="patch_43">
    <path d="M 224.05875 112.394177 
L 235.21875 112.394177 
L 235.21875 108.95174 
L 224.05875 108.95174 
z
" clip-path="url(#p87fb654ab8)" style="fill: #8fc73e"/>
   </g>
   <g id="patch_44">
    <path d="M 238.00875 112.77581 
L 249.16875 112.77581 
L 249.16875 107.623758 
L 238.00875 107.623758 
z
" clip-path="url(#p87fb654ab8)" style="fill: #8fc73e"/>
   </g>
   <g id="patch_45">
    <path d="M 251.95875 113.258009 
L 263.11875 113.258009 
L 263.11875 108.631993 
L 251.95875 108.631993 
z
" clip-path="url(#p87fb654ab8)" style="fill: #8fc73e"/>
   </g>
   <g id="patch_46">
    <path d="M 265.90875 113.79178 
L 277.06875 113.79178 
L 277.06875 109.751107 
L 265.90875 109.751107 
z
" clip-path="url(#p87fb654ab8)" style="fill: #8fc73e"/>
   </g>
   <g id="patch_47">
    <path d="M 279.85875 114.348759 
L 291.01875 114.348759 
L 291.01875 110.888272 
L 279.85875 110.888272 
z
" clip-path="url(#p87fb654ab8)" style="fill: #8fc73e"/>
   </g>
   <g id="patch_48">
    <path d="M 293.80875 114.823222 
L 304.96875 114.823222 
L 304.96875 112.113109 
L 293.80875 112.113109 
z
" clip-path="url(#p87fb654ab8)" style="fill: #8fc73e"/>
   </g>
   <g id="patch_49">
    <path d="M 307.75875 115.3441 
L 318.91875 115.3441 
L 318.91875 113.433354 
L 307.75875 113.433354 
z
" clip-path="url(#p87fb654ab8)" style="fill: #8fc73e"/>
   </g>
   <g id="patch_50">
    <path d="M 321.70875 115.730891 
L 332.86875 115.730891 
L 332.86875 114.655613 
L 321.70875 114.655613 
z
" clip-path="url(#p87fb654ab8)" style="fill: #8fc73e"/>
   </g>
   <g id="patch_51">
    <path d="M 335.65875 115.999066 
L 346.81875 115.999066 
L 346.81875 115.398251 
L 335.65875 115.398251 
z
" clip-path="url(#p87fb654ab8)" style="fill: #8fc73e"/>
   </g>
   <g id="patch_52">
    <path d="M 349.60875 116.293027 
L 360.76875 116.293027 
L 360.76875 116.099632 
L 349.60875 116.099632 
z
" clip-path="url(#p87fb654ab8)" style="fill: #8fc73e"/>
   </g>
   <g id="patch_53">
    <path d="M 363.55875 116.599881 
L 374.71875 116.599881 
L 374.71875 116.599881 
L 363.55875 116.599881 
z
" clip-path="url(#p87fb654ab8)" style="fill: #8fc73e"/>
   </g>
   <g id="patch_54">
    <path d="M 377.50875 116.937678 
L 388.66875 116.937678 
L 388.66875 116.937678 
L 377.50875 116.937678 
z
" clip-path="url(#p87fb654ab8)" style="fill: #8fc73e"/>
   </g>
   <g id="patch_55">
    <path d="M 391.45875 117.262582 
L 402.61875 117.262582 
L 402.61875 117.262582 
L 391.45875 117.262582 
z
" clip-path="url(#p87fb654ab8)" style="fill: #8fc73e"/>
   </g>
   <g id="patch_56">
    <path d="M 405.40875 117.5256 
L 416.56875 117.5256 
L 416.56875 117.5256 
L 405.40875 117.5256 
z
" clip-path="url(#p87fb654ab8)" style="fill: #8fc73e"/>
   </g>
   <g id="patch_57">
    <path d="M 419.35875 117.72931 
L 430.51875 117.72931 
L 430.51875 117.72931 
L 419.35875 117.72931 
z
" clip-path="url(#p87fb654ab8)" style="fill: #8fc73e"/>
   </g>
   <g id="patch_58">
    <path d="M 433.30875 117.891762 
L 444.46875 117.891762 
L 444.46875 117.891762 
L 433.30875 117.891762 
z
" clip-path="url(#p87fb654ab8)" style="fill: #8fc73e"/>
   </g>
   <g id="patch_59">
    <path d="M 56.65875 118.08 
L 67.81875 118.08 
L 67.81875 118.08 
L 56.65875 118.08 
z
" clip-path="url(#p87fb654ab8)" style="fill: #207653"/>
   </g>
   <g id="patch_60">
    <path d="M 70.60875 118.08 
L 81.76875 118.08 
L 81.76875 118.08 
L 70.60875 118.08 
z
" clip-path="url(#p87fb654ab8)" style="fill: #207653"/>
   </g>
   <g id="patch_61">
    <path d="M 84.55875 118.08 
L 95.71875 118.08 
L 95.71875 115.385358 
L 84.55875 115.385358 
z
" clip-path="url(#p87fb654ab8)" style="fill: #207653"/>
   </g>
   <g id="patch_62">
    <path d="M 98.50875 118.08 
L 109.66875 118.08 
L 109.66875 115.014039 
L 98.50875 115.014039 
z
" clip-path="url(#p87fb654ab8)" style="fill: #207653"/>
   </g>
   <g id="patch_63">
    <path d="M 112.45875 118.08 
L 123.61875 118.08 
L 123.61875 110.859907 
L 112.45875 110.859907 
z
" clip-path="url(#p87fb654ab8)" style="fill: #207653"/>
   </g>
   <g id="patch_64">
    <path d="M 126.40875 118.08 
L 137.56875 118.08 
L 137.56875 102.072022 
L 126.40875 102.072022 
z
" clip-path="url(#p87fb654ab8)" style="fill: #207653"/>
   </g>
   <g id="patch_65">
    <path d="M 140.35875 118.08 
L 151.51875 118.08 
L 151.51875 87.082593 
L 140.35875 87.082593 
z
" clip-path="url(#p87fb654ab8)" style="fill: #207653"/>
   </g>
   <g id="patch_66">
    <path d="M 154.30875 117.257425 
L 165.46875 117.257425 
L 165.46875 38.290236 
L 154.30875 38.290236 
z
" clip-path="url(#p87fb654ab8)" style="fill: #207653"/>
   </g>
   <g id="patch_67">
    <path d="M 168.25875 113.211594 
L 179.41875 113.211594 
L 179.41875 16.562913 
L 168.25875 16.562913 
z
" clip-path="url(#p87fb654ab8)" style="fill: #207653"/>
   </g>
   <g id="patch_68">
    <path d="M 182.20875 113.214173 
L 193.36875 113.214173 
L 193.36875 20.335412 
L 182.20875 20.335412 
z
" clip-path="url(#p87fb654ab8)" style="fill: #207653"/>
   </g>
   <g id="patch_69">
    <path d="M 196.15875 113.27606 
L 207.31875 113.27606 
L 207.31875 23.625712 
L 196.15875 23.625712 
z
" clip-path="url(#p87fb654ab8)" style="fill: #207653"/>
   </g>
   <g id="patch_70">
    <path d="M 210.10875 110.323557 
L 221.26875 110.323557 
L 221.26875 18.628376 
L 210.10875 18.628376 
z
" clip-path="url(#p87fb654ab8)" style="fill: #207653"/>
   </g>
   <g id="patch_71">
    <path d="M 224.05875 108.95174 
L 235.21875 108.95174 
L 235.21875 15.94147 
L 224.05875 15.94147 
z
" clip-path="url(#p87fb654ab8)" style="fill: #207653"/>
   </g>
   <g id="patch_72">
    <path d="M 238.00875 107.623758 
L 249.16875 107.623758 
L 249.16875 13.979152 
L 238.00875 13.979152 
z
" clip-path="url(#p87fb654ab8)" style="fill: #207653"/>
   </g>
   <g id="patch_73">
    <path d="M 251.95875 108.631993 
L 263.11875 108.631993 
L 263.11875 18.618061 
L 251.95875 18.618061 
z
" clip-path="url(#p87fb654ab8)" style="fill: #207653"/>
   </g>
   <g id="patch_74">
    <path d="M 265.90875 109.751107 
L 277.06875 109.751107 
L 277.06875 23.236342 
L 265.90875 23.236342 
z
" clip-path="url(#p87fb654ab8)" style="fill: #207653"/>
   </g>
   <g id="patch_75">
    <path d="M 279.85875 110.888272 
L 291.01875 110.888272 
L 291.01875 27.26928 
L 279.85875 27.26928 
z
" clip-path="url(#p87fb654ab8)" style="fill: #207653"/>
   </g>
   <g id="patch_76">
    <path d="M 293.80875 112.113109 
L 304.96875 112.113109 
L 304.96875 31.147501 
L 293.80875 31.147501 
z
" clip-path="url(#p87fb654ab8)" style="fill: #207653"/>
   </g>
   <g id="patch_77">
    <path d="M 307.75875 113.433354 
L 318.91875 113.433354 
L 318.91875 35.180439 
L 307.75875 35.180439 
z
" clip-path="url(#p87fb654ab8)" style="fill: #207653"/>
   </g>
   <g id="patch_78">
    <path d="M 321.70875 114.655613 
L 332.86875 114.655613 
L 332.86875 39.249477 
L 321.70875 39.249477 
z
" clip-path="url(#p87fb654ab8)" style="fill: #207653"/>
   </g>
   <g id="patch_79">
    <path d="M 335.65875 115.398251 
L 346.81875 115.398251 
L 346.81875 43.403609 
L 335.65875 43.403609 
z
" clip-path="url(#p87fb654ab8)" style="fill: #207653"/>
   </g>
   <g id="patch_80">
    <path d="M 349.60875 116.099632 
L 360.76875 116.099632 
L 360.76875 47.869753 
L 349.60875 47.869753 
z
" clip-path="url(#p87fb654ab8)" style="fill: #207653"/>
   </g>
   <g id="patch_81">
    <path d="M 363.55875 116.599881 
L 374.71875 116.599881 
L 374.71875 52.1064 
L 363.55875 52.1064 
z
" clip-path="url(#p87fb654ab8)" style="fill: #207653"/>
   </g>
   <g id="patch_82">
    <path d="M 377.50875 116.937678 
L 388.66875 116.937678 
L 388.66875 56.536443 
L 377.50875 56.536443 
z
" clip-path="url(#p87fb654ab8)" style="fill: #207653"/>
   </g>
   <g id="patch_83">
    <path d="M 391.45875 117.262582 
L 402.61875 117.262582 
L 402.61875 61.082523 
L 391.45875 61.082523 
z
" clip-path="url(#p87fb654ab8)" style="fill: #207653"/>
   </g>
   <g id="patch_84">
    <path d="M 405.40875 117.5256 
L 416.56875 117.5256 
L 416.56875 64.630683 
L 405.40875 64.630683 
z
" clip-path="url(#p87fb654ab8)" style="fill: #207653"/>
   </g>
   <g id="patch_85">
    <path d="M 419.35875 117.72931 
L 430.51875 117.72931 
L 430.51875 69.305693 
L 419.35875 69.305693 
z
" clip-path="url(#p87fb654ab8)" style="fill: #207653"/>
   </g>
   <g id="patch_86">
    <path d="M 433.30875 117.891762 
L 444.46875 117.891762 
L 444.46875 71.072037 
L 433.30875 71.072037 
z
" clip-path="url(#p87fb654ab8)" style="fill: #207653"/>
   </g>
   <g id="matplotlib.axis_1">
    <g id="xtick_1">
     <g id="line2d_1">
      <defs>
       <path id="m97482d7098" d="M 0 0 
L 0 3.5 
" style="stroke: #000000; stroke-width: 0.8"/>
      </defs>
      <g>
       <use xlink:href="#m97482d7098" x="90.13875" y="118.08" style="stroke: #000000; stroke-width: 0.8"/>
      </g>
     </g>
     <g id="text_1">
      <!-- 2025 -->
      <g transform="translate(77.41375 132.678438) scale(0.1 -0.1)">
       <defs>
        <path id="DejaVuSans-32" d="M 1228 531 
L 3431 531 
L 3431 0 
L 469 0 
L 469 531 
Q 828 903 1448 1529 
Q 2069 2156 2228 2338 
Q 2531 2678 2651 2914 
Q 2772 3150 2772 3378 
Q 2772 3750 2511 3984 
Q 2250 4219 1831 4219 
Q 1534 4219 1204 4116 
Q 875 4013 500 3803 
L 500 4441 
Q 881 4594 1212 4672 
Q 1544 4750 1819 4750 
Q 2544 4750 2975 4387 
Q 3406 4025 3406 3419 
Q 3406 3131 3298 2873 
Q 3191 2616 2906 2266 
Q 2828 2175 2409 1742 
Q 1991 1309 1228 531 
z
" transform="scale(0.015625)"/>
        <path id="DejaVuSans-30" d="M 2034 4250 
Q 1547 4250 1301 3770 
Q 1056 3291 1056 2328 
Q 1056 1369 1301 889 
Q 1547 409 2034 409 
Q 2525 409 2770 889 
Q 3016 1369 3016 2328 
Q 3016 3291 2770 3770 
Q 2525 4250 2034 4250 
z
M 2034 4750 
Q 2819 4750 3233 4129 
Q 3647 3509 3647 2328 
Q 3647 1150 3233 529 
Q 2819 -91 2034 -91 
Q 1250 -91 836 529 
Q 422 1150 422 2328 
Q 422 3509 836 4129 
Q 1250 4750 2034 4750 
z
" transform="scale(0.015625)"/>
        <path id="DejaVuSans-35" d="M 691 4666 
L 3169 4666 
L 3169 4134 
L 1269 4134 
L 1269 2991 
Q 1406 3038 1543 3061 
Q 1681 3084 1819 3084 
Q 2600 3084 3056 2656 
Q 3513 2228 3513 1497 
Q 3513 744 3044 326 
Q 2575 -91 1722 -91 
Q 1428 -91 1123 -41 
Q 819 9 494 109 
L 494 744 
Q 775 591 1075 516 
Q 1375 441 1709 441 
Q 2250 441 2565 725 
Q 2881 1009 2881 1497 
Q 2881 1984 2565 2268 
Q 2250 2553 1709 2553 
Q 1456 2553 1204 2497 
Q 953 2441 691 2322 
L 691 4666 
z
" transform="scale(0.015625)"/>
       </defs>
       <use xlink:href="#DejaVuSans-32"/>
       <use xlink:href="#DejaVuSans-30" transform="translate(63.623047 0)"/>
       <use xlink:href="#DejaVuSans-32" transform="translate(127.246094 0)"/>
       <use xlink:href="#DejaVuSans-35" transform="translate(190.869141 0)"/>
      </g>
     </g>
    </g>
    <g id="xtick_2">
     <g id="line2d_2">
      <g>
       <use xlink:href="#m97482d7098" x="159.88875" y="118.08" style="stroke: #000000; stroke-width: 0.8"/>
      </g>
     </g>
     <g id="text_2">
      <!-- 2030 -->
      <g transform="translate(147.16375 132.678438) scale(0.1 -0.1)">
       <defs>
        <path id="DejaVuSans-33" d="M 2597 2516 
Q 3050 2419 3304 2112 
Q 3559 1806 3559 1356 
Q 3559 666 3084 287 
Q 2609 -91 1734 -91 
Q 1441 -91 1130 -33 
Q 819 25 488 141 
L 488 750 
Q 750 597 1062 519 
Q 1375 441 1716 441 
Q 2309 441 2620 675 
Q 2931 909 2931 1356 
Q 2931 1769 2642 2001 
Q 2353 2234 1838 2234 
L 1294 2234 
L 1294 2753 
L 1863 2753 
Q 2328 2753 2575 2939 
Q 2822 3125 2822 3475 
Q 2822 3834 2567 4026 
Q 2313 4219 1838 4219 
Q 1578 4219 1281 4162 
Q 984 4106 628 3988 
L 628 4550 
Q 988 4650 1302 4700 
Q 1616 4750 1894 4750 
Q 2613 4750 3031 4423 
Q 3450 4097 3450 3541 
Q 3450 3153 3228 2886 
Q 3006 2619 2597 2516 
z
" transform="scale(0.015625)"/>
       </defs>
       <use xlink:href="#DejaVuSans-32"/>
       <use xlink:href="#DejaVuSans-30" transform="translate(63.623047 0)"/>
       <use xlink:href="#DejaVuSans-33" transform="translate(127.246094 0)"/>
       <use xlink:href="#DejaVuSans-30" transform="translate(190.869141 0)"/>
      </g>
     </g>
    </g>
    <g id="xtick_3">
     <g id="line2d_3">
      <g>
       <use xlink:href="#m97482d7098" x="229.63875" y="118.08" style="stroke: #000000; stroke-width: 0.8"/>
      </g>
     </g>
     <g id="text_3">
      <!-- 2035 -->
      <g transform="translate(216.91375 132.678438) scale(0.1 -0.1)">
       <use xlink:href="#DejaVuSans-32"/>
       <use xlink:href="#DejaVuSans-30" transform="translate(63.623047 0)"/>
       <use xlink:href="#DejaVuSans-33" transform="translate(127.246094 0)"/>
       <use xlink:href="#DejaVuSans-35" transform="translate(190.869141 0)"/>
      </g>
     </g>
    </g>
    <g id="xtick_4">
     <g id="line2d_4">
      <g>
       <use xlink:href="#m97482d7098" x="299.38875" y="118.08" style="stroke: #000000; stroke-width: 0.8"/>
      </g>
     </g>
     <g id="text_4">
      <!-- 2040 -->
      <g transform="translate(286.66375 132.678438) scale(0.1 -0.1)">
       <defs>
        <path id="DejaVuSans-34" d="M 2419 4116 
L 825 1625 
L 2419 1625 
L 2419 4116 
z
M 2253 4666 
L 3047 4666 
L 3047 1625 
L 3713 1625 
L 3713 1100 
L 3047 1100 
L 3047 0 
L 2419 0 
L 2419 1100 
L 313 1100 
L 313 1709 
L 2253 4666 
z
" transform="scale(0.015625)"/>
       </defs>
       <use xlink:href="#DejaVuSans-32"/>
       <use xlink:href="#DejaVuSans-30" transform="translate(63.623047 0)"/>
       <use xlink:href="#DejaVuSans-34" transform="translate(127.246094 0)"/>
       <use xlink:href="#DejaVuSans-30" transform="translate(190.869141 0)"/>
      </g>
     </g>
    </g>
    <g id="xtick_5">
     <g id="line2d_5">
      <g>
       <use xlink:href="#m97482d7098" x="369.13875" y="118.08" style="stroke: #000000; stroke-width: 0.8"/>
      </g>
     </g>
     <g id="text_5">
      <!-- 2045 -->
      <g transform="translate(356.41375 132.678438) scale(0.1 -0.1)">
       <use xlink:href="#DejaVuSans-32"/>
       <use xlink:href="#DejaVuSans-30" transform="translate(63.623047 0)"/>
       <use xlink:href="#DejaVuSans-34" transform="translate(127.246094 0)"/>
       <use xlink:href="#DejaVuSans-35" transform="translate(190.869141 0)"/>
      </g>
     </g>
    </g>
    <g id="xtick_6">
     <g id="line2d_6">
      <g>
       <use xlink:href="#m97482d7098" x="438.88875" y="118.08" style="stroke: #000000; stroke-width: 0.8"/>
      </g>
     </g>
     <g id="text_6">
      <!-- 2050 -->
      <g transform="translate(426.16375 132.678438) scale(0.1 -0.1)">
       <use xlink:href="#DejaVuSans-32"/>
       <use xlink:href="#DejaVuSans-30" transform="translate(63.623047 0)"/>
       <use xlink:href="#DejaVuSans-35" transform="translate(127.246094 0)"/>
       <use xlink:href="#DejaVuSans-30" transform="translate(190.869141 0)"/>
      </g>
     </g>
    </g>
   </g>
   <g id="matplotlib.axis_2">
    <g id="ytick_1">
     <g id="line2d_7">
      <defs>
       <path id="m3125f9b8df" d="M 0 0 
L -3.5 0 
" style="stroke: #000000; stroke-width: 0.8"/>
      </defs>
      <g>
       <use xlink:href="#m3125f9b8df" x="55.26375" y="118.08" style="stroke: #000000; stroke-width: 0.8"/>
      </g>
     </g>
     <g id="text_7">
      <!-- 0 -->
      <g transform="translate(41.90125 121.879219) scale(0.1 -0.1)">
       <use xlink:href="#DejaVuSans-30"/>
      </g>
     </g>
    </g>
    <g id="ytick_2">
     <g id="line2d_8">
      <g>
       <use xlink:href="#m3125f9b8df" x="55.26375" y="92.293953" style="stroke: #000000; stroke-width: 0.8"/>
      </g>
     </g>
     <g id="text_8">
      <!-- 1000 -->
      <g transform="translate(22.81375 96.093172) scale(0.1 -0.1)">
       <defs>
        <path id="DejaVuSans-31" d="M 794 531 
L 1825 531 
L 1825 4091 
L 703 3866 
L 703 4441 
L 1819 4666 
L 2450 4666 
L 2450 531 
L 3481 531 
L 3481 0 
L 794 0 
L 794 531 
z
" transform="scale(0.015625)"/>
       </defs>
       <use xlink:href="#DejaVuSans-31"/>
       <use xlink:href="#DejaVuSans-30" transform="translate(63.623047 0)"/>
       <use xlink:href="#DejaVuSans-30" transform="translate(127.246094 0)"/>
       <use xlink:href="#DejaVuSans-30" transform="translate(190.869141 0)"/>
      </g>
     </g>
    </g>
    <g id="ytick_3">
     <g id="line2d_9">
      <g>
       <use xlink:href="#m3125f9b8df" x="55.26375" y="66.507907" style="stroke: #000000; stroke-width: 0.8"/>
      </g>
     </g>
     <g id="text_9">
      <!-- 2000 -->
      <g transform="translate(22.81375 70.307126) scale(0.1 -0.1)">
       <use xlink:href="#DejaVuSans-32"/>
       <use xlink:href="#DejaVuSans-30" transform="translate(63.623047 0)"/>
       <use xlink:href="#DejaVuSans-30" transform="translate(127.246094 0)"/>
       <use xlink:href="#DejaVuSans-30" transform="translate(190.869141 0)"/>
      </g>
     </g>
    </g>
    <g id="ytick_4">
     <g id="line2d_10">
      <g>
       <use xlink:href="#m3125f9b8df" x="55.26375" y="40.72186" style="stroke: #000000; stroke-width: 0.8"/>
      </g>
     </g>
     <g id="text_10">
      <!-- 3000 -->
      <g transform="translate(22.81375 44.521079) scale(0.1 -0.1)">
       <use xlink:href="#DejaVuSans-33"/>
       <use xlink:href="#DejaVuSans-30" transform="translate(63.623047 0)"/>
       <use xlink:href="#DejaVuSans-30" transform="translate(127.246094 0)"/>
       <use xlink:href="#DejaVuSans-30" transform="translate(190.869141 0)"/>
      </g>
     </g>
    </g>
    <g id="ytick_5">
     <g id="line2d_11">
      <g>
       <use xlink:href="#m3125f9b8df" x="55.26375" y="14.935814" style="stroke: #000000; stroke-width: 0.8"/>
      </g>
     </g>
     <g id="text_11">
      <!-- 4000 -->
      <g transform="translate(22.81375 18.735033) scale(0.1 -0.1)">
       <use xlink:href="#DejaVuSans-34"/>
       <use xlink:href="#DejaVuSans-30" transform="translate(63.623047 0)"/>
       <use xlink:href="#DejaVuSans-30" transform="translate(127.246094 0)"/>
       <use xlink:href="#DejaVuSans-30" transform="translate(190.869141 0)"/>
      </g>
     </g>
    </g>
    <g id="text_12">
     <!-- [GWh] -->
     <g transform="translate(16.318125 81.705937) rotate(-90) scale(0.12 -0.12)">
      <defs>
       <path id="DejaVuSans-5b" d="M 550 4863 
L 1875 4863 
L 1875 4416 
L 1125 4416 
L 1125 -397 
L 1875 -397 
L 1875 -844 
L 550 -844 
L 550 4863 
z
" transform="scale(0.015625)"/>
       <path id="DejaVuSans-47" d="M 3809 666 
L 3809 1919 
L 2778 1919 
L 2778 2438 
L 4434 2438 
L 4434 434 
Q 4069 175 3628 42 
Q 3188 -91 2688 -91 
Q 1594 -91 976 548 
Q 359 1188 359 2328 
Q 359 3472 976 4111 
Q 1594 4750 2688 4750 
Q 3144 4750 3555 4637 
Q 3966 4525 4313 4306 
L 4313 3634 
Q 3963 3931 3569 4081 
Q 3175 4231 2741 4231 
Q 1884 4231 1454 3753 
Q 1025 3275 1025 2328 
Q 1025 1384 1454 906 
Q 1884 428 2741 428 
Q 3075 428 3337 486 
Q 3600 544 3809 666 
z
" transform="scale(0.015625)"/>
       <path id="DejaVuSans-57" d="M 213 4666 
L 850 4666 
L 1831 722 
L 2809 4666 
L 3519 4666 
L 4500 722 
L 5478 4666 
L 6119 4666 
L 4947 0 
L 4153 0 
L 3169 4050 
L 2175 0 
L 1381 0 
L 213 4666 
z
" transform="scale(0.015625)"/>
       <path id="DejaVuSans-68" d="M 3513 2113 
L 3513 0 
L 2938 0 
L 2938 2094 
Q 2938 2591 2744 2837 
Q 2550 3084 2163 3084 
Q 1697 3084 1428 2787 
Q 1159 2491 1159 1978 
L 1159 0 
L 581 0 
L 581 4863 
L 1159 4863 
L 1159 2956 
Q 1366 3272 1645 3428 
Q 1925 3584 2291 3584 
Q 2894 3584 3203 3211 
Q 3513 2838 3513 2113 
z
" transform="scale(0.015625)"/>
       <path id="DejaVuSans-5d" d="M 1947 4863 
L 1947 -844 
L 622 -844 
L 622 -397 
L 1369 -397 
L 1369 4416 
L 622 4416 
L 622 4863 
L 1947 4863 
z
" transform="scale(0.015625)"/>
      </defs>
      <use xlink:href="#DejaVuSans-5b"/>
      <use xlink:href="#DejaVuSans-47" transform="translate(39.013672 0)"/>
      <use xlink:href="#DejaVuSans-57" transform="translate(116.503906 0)"/>
      <use xlink:href="#DejaVuSans-68" transform="translate(215.380859 0)"/>
      <use xlink:href="#DejaVuSans-5d" transform="translate(278.759766 0)"/>
     </g>
    </g>
   </g>
   <g id="patch_87">
    <path d="M 55.26375 118.08 
L 55.26375 7.2 
" style="fill: none; stroke: #000000; stroke-width: 0.8; stroke-linejoin: miter; stroke-linecap: square"/>
   </g>
   <g id="patch_88">
    <path d="M 445.86375 118.08 
L 445.86375 7.2 
" style="fill: none; stroke: #000000; stroke-width: 0.8; stroke-linejoin: miter; stroke-linecap: square"/>
   </g>
   <g id="patch_89">
    <path d="M 55.26375 118.08 
L 445.86375 118.08 
" style="fill: none; stroke: #000000; stroke-width: 0.8; stroke-linejoin: miter; stroke-linecap: square"/>
   </g>
   <g id="patch_90">
    <path d="M 55.26375 7.2 
L 445.86375 7.2 
" style="fill: none; stroke: #000000; stroke-width: 0.8; stroke-linejoin: miter; stroke-linecap: square"/>
   </g>
   <g id="legend_1">
    <g id="patch_91">
     <path d="M 71.763438 29.886437 
L 91.763438 29.886437 
L 91.763438 22.886437 
L 71.763438 22.886437 
z
" style="fill: #fbaa1b"/>
    </g>
    <g id="text_13">
     <!-- Solar -->
     <g transform="translate(99.763438 29.886437) scale(0.1 -0.1)">
      <defs>
       <path id="DejaVuSans-53" d="M 3425 4513 
L 3425 3897 
Q 3066 4069 2747 4153 
Q 2428 4238 2131 4238 
Q 1616 4238 1336 4038 
Q 1056 3838 1056 3469 
Q 1056 3159 1242 3001 
Q 1428 2844 1947 2747 
L 2328 2669 
Q 3034 2534 3370 2195 
Q 3706 1856 3706 1288 
Q 3706 609 3251 259 
Q 2797 -91 1919 -91 
Q 1588 -91 1214 -16 
Q 841 59 441 206 
L 441 856 
Q 825 641 1194 531 
Q 1563 422 1919 422 
Q 2459 422 2753 634 
Q 3047 847 3047 1241 
Q 3047 1584 2836 1778 
Q 2625 1972 2144 2069 
L 1759 2144 
Q 1053 2284 737 2584 
Q 422 2884 422 3419 
Q 422 4038 858 4394 
Q 1294 4750 2059 4750 
Q 2388 4750 2728 4690 
Q 3069 4631 3425 4513 
z
" transform="scale(0.015625)"/>
       <path id="DejaVuSans-6f" d="M 1959 3097 
Q 1497 3097 1228 2736 
Q 959 2375 959 1747 
Q 959 1119 1226 758 
Q 1494 397 1959 397 
Q 2419 397 2687 759 
Q 2956 1122 2956 1747 
Q 2956 2369 2687 2733 
Q 2419 3097 1959 3097 
z
M 1959 3584 
Q 2709 3584 3137 3096 
Q 3566 2609 3566 1747 
Q 3566 888 3137 398 
Q 2709 -91 1959 -91 
Q 1206 -91 779 398 
Q 353 888 353 1747 
Q 353 2609 779 3096 
Q 1206 3584 1959 3584 
z
" transform="scale(0.015625)"/>
       <path id="DejaVuSans-6c" d="M 603 4863 
L 1178 4863 
L 1178 0 
L 603 0 
L 603 4863 
z
" transform="scale(0.015625)"/>
       <path id="DejaVuSans-61" d="M 2194 1759 
Q 1497 1759 1228 1600 
Q 959 1441 959 1056 
Q 959 750 1161 570 
Q 1363 391 1709 391 
Q 2188 391 2477 730 
Q 2766 1069 2766 1631 
L 2766 1759 
L 2194 1759 
z
M 3341 1997 
L 3341 0 
L 2766 0 
L 2766 531 
Q 2569 213 2275 61 
Q 1981 -91 1556 -91 
Q 1019 -91 701 211 
Q 384 513 384 1019 
Q 384 1609 779 1909 
Q 1175 2209 1959 2209 
L 2766 2209 
L 2766 2266 
Q 2766 2663 2505 2880 
Q 2244 3097 1772 3097 
Q 1472 3097 1187 3025 
Q 903 2953 641 2809 
L 641 3341 
Q 956 3463 1253 3523 
Q 1550 3584 1831 3584 
Q 2591 3584 2966 3190 
Q 3341 2797 3341 1997 
z
" transform="scale(0.015625)"/>
       <path id="DejaVuSans-72" d="M 2631 2963 
Q 2534 3019 2420 3045 
Q 2306 3072 2169 3072 
Q 1681 3072 1420 2755 
Q 1159 2438 1159 1844 
L 1159 0 
L 581 0 
L 581 3500 
L 1159 3500 
L 1159 2956 
Q 1341 3275 1631 3429 
Q 1922 3584 2338 3584 
Q 2397 3584 2469 3576 
Q 2541 3569 2628 3553 
L 2631 2963 
z
" transform="scale(0.015625)"/>
      </defs>
      <use xlink:href="#DejaVuSans-53"/>
      <use xlink:href="#DejaVuSans-6f" transform="translate(63.476562 0)"/>
      <use xlink:href="#DejaVuSans-6c" transform="translate(124.658203 0)"/>
      <use xlink:href="#DejaVuSans-61" transform="translate(152.441406 0)"/>
      <use xlink:href="#DejaVuSans-72" transform="translate(213.720703 0)"/>
     </g>
    </g>
    <g id="patch_92">
     <path d="M 71.763438 44.564562 
L 91.763438 44.564562 
L 91.763438 37.564562 
L 71.763438 37.564562 
z
" style="fill: #8fc73e"/>
    </g>
    <g id="text_14">
     <!-- Eólica -->
     <g transform="translate(99.763438 44.564562) scale(0.1 -0.1)">
      <defs>
       <path id="DejaVuSans-45" d="M 628 4666 
L 3578 4666 
L 3578 4134 
L 1259 4134 
L 1259 2753 
L 3481 2753 
L 3481 2222 
L 1259 2222 
L 1259 531 
L 3634 531 
L 3634 0 
L 628 0 
L 628 4666 
z
" transform="scale(0.015625)"/>
       <path id="DejaVuSans-f3" d="M 1959 3097 
Q 1497 3097 1228 2736 
Q 959 2375 959 1747 
Q 959 1119 1226 758 
Q 1494 397 1959 397 
Q 2419 397 2687 759 
Q 2956 1122 2956 1747 
Q 2956 2369 2687 2733 
Q 2419 3097 1959 3097 
z
M 1959 3584 
Q 2709 3584 3137 3096 
Q 3566 2609 3566 1747 
Q 3566 888 3137 398 
Q 2709 -91 1959 -91 
Q 1206 -91 779 398 
Q 353 888 353 1747 
Q 353 2609 779 3096 
Q 1206 3584 1959 3584 
z
M 2394 5119 
L 3016 5119 
L 1998 3944 
L 1519 3944 
L 2394 5119 
z
" transform="scale(0.015625)"/>
       <path id="DejaVuSans-69" d="M 603 3500 
L 1178 3500 
L 1178 0 
L 603 0 
L 603 3500 
z
M 603 4863 
L 1178 4863 
L 1178 4134 
L 603 4134 
L 603 4863 
z
" transform="scale(0.015625)"/>
       <path id="DejaVuSans-63" d="M 3122 3366 
L 3122 2828 
Q 2878 2963 2633 3030 
Q 2388 3097 2138 3097 
Q 1578 3097 1268 2742 
Q 959 2388 959 1747 
Q 959 1106 1268 751 
Q 1578 397 2138 397 
Q 2388 397 2633 464 
Q 2878 531 3122 666 
L 3122 134 
Q 2881 22 2623 -34 
Q 2366 -91 2075 -91 
Q 1284 -91 818 406 
Q 353 903 353 1747 
Q 353 2603 823 3093 
Q 1294 3584 2113 3584 
Q 2378 3584 2631 3529 
Q 2884 3475 3122 3366 
z
" transform="scale(0.015625)"/>
      </defs>
      <use xlink:href="#DejaVuSans-45"/>
      <use xlink:href="#DejaVuSans-f3" transform="translate(63.183594 0)"/>
      <use xlink:href="#DejaVuSans-6c" transform="translate(124.365234 0)"/>
      <use xlink:href="#DejaVuSans-69" transform="translate(152.148438 0)"/>
      <use xlink:href="#DejaVuSans-63" transform="translate(179.931641 0)"/>
      <use xlink:href="#DejaVuSans-61" transform="translate(234.912109 0)"/>
     </g>
    </g>
    <g id="patch_93">
     <path d="M 71.763438 59.242688 
L 91.763438 59.242688 
L 91.763438 52.242688 
L 71.763438 52.242688 
z
" style="fill: #207653"/>
    </g>
    <g id="text_15">
     <!-- Hidro -->
     <g transform="translate(99.763438 59.242688) scale(0.1 -0.1)">
      <defs>
       <path id="DejaVuSans-48" d="M 628 4666 
L 1259 4666 
L 1259 2753 
L 3553 2753 
L 3553 4666 
L 4184 4666 
L 4184 0 
L 3553 0 
L 3553 2222 
L 1259 2222 
L 1259 0 
L 628 0 
L 628 4666 
z
" transform="scale(0.015625)"/>
       <path id="DejaVuSans-64" d="M 2906 2969 
L 2906 4863 
L 3481 4863 
L 3481 0 
L 2906 0 
L 2906 525 
Q 2725 213 2448 61 
Q 2172 -91 1784 -91 
Q 1150 -91 751 415 
Q 353 922 353 1747 
Q 353 2572 751 3078 
Q 1150 3584 1784 3584 
Q 2172 3584 2448 3432 
Q 2725 3281 2906 2969 
z
M 947 1747 
Q 947 1113 1208 752 
Q 1469 391 1925 391 
Q 2381 391 2643 752 
Q 2906 1113 2906 1747 
Q 2906 2381 2643 2742 
Q 2381 3103 1925 3103 
Q 1469 3103 1208 2742 
Q 947 2381 947 1747 
z
" transform="scale(0.015625)"/>
      </defs>
      <use xlink:href="#DejaVuSans-48"/>
      <use xlink:href="#DejaVuSans-69" transform="translate(75.195312 0)"/>
      <use xlink:href="#DejaVuSans-64" transform="translate(102.978516 0)"/>
      <use xlink:href="#DejaVuSans-72" transform="translate(166.455078 0)"/>
      <use xlink:href="#DejaVuSans-6f" transform="translate(205.318359 0)"/>
     </g>
    </g>
   </g>
  </g>
  <g id="axes_2">
   <g id="matplotlib.axis_3">
    <g id="ytick_6">
     <g id="line2d_12">
      <defs>
       <path id="m59fd458180" d="M 0 0 
L 3.5 0 
" style="stroke: #000000; stroke-width: 0.8"/>
      </defs>
      <g>
       <use xlink:href="#m59fd458180" x="445.86375" y="113.04" style="stroke: #000000; stroke-width: 0.8"/>
      </g>
     </g>
     <g id="text_16">
      <!-- 0 -->
      <g transform="translate(452.86375 116.839219) scale(0.1 -0.1)">
       <use xlink:href="#DejaVuSans-30"/>
      </g>
     </g>
    </g>
    <g id="ytick_7">
     <g id="line2d_13">
      <g>
       <use xlink:href="#m59fd458180" x="445.86375" y="84.883575" style="stroke: #000000; stroke-width: 0.8"/>
      </g>
     </g>
     <g id="text_17">
      <!-- 10 -->
      <g transform="translate(452.86375 88.682794) scale(0.1 -0.1)">
       <use xlink:href="#DejaVuSans-31"/>
       <use xlink:href="#DejaVuSans-30" transform="translate(63.623047 0)"/>
      </g>
     </g>
    </g>
    <g id="ytick_8">
     <g id="line2d_14">
      <g>
       <use xlink:href="#m59fd458180" x="445.86375" y="56.727151" style="stroke: #000000; stroke-width: 0.8"/>
      </g>
     </g>
     <g id="text_18">
      <!-- 20 -->
      <g transform="translate(452.86375 60.52637) scale(0.1 -0.1)">
       <use xlink:href="#DejaVuSans-32"/>
       <use xlink:href="#DejaVuSans-30" transform="translate(63.623047 0)"/>
      </g>
     </g>
    </g>
    <g id="ytick_9">
     <g id="line2d_15">
      <g>
       <use xlink:href="#m59fd458180" x="445.86375" y="28.570726" style="stroke: #000000; stroke-width: 0.8"/>
      </g>
     </g>
     <g id="text_19">
      <!-- 30 -->
      <g transform="translate(452.86375 32.369945) scale(0.1 -0.1)">
       <use xlink:href="#DejaVuSans-33"/>
       <use xlink:href="#DejaVuSans-30" transform="translate(63.623047 0)"/>
      </g>
     </g>
    </g>
    <g id="text_20">
     <!-- % renovables -->
     <g transform="translate(478.706875 103.266562) rotate(-90) scale(0.12 -0.12)">
      <defs>
       <path id="DejaVuSans-25" d="M 4653 2053 
Q 4381 2053 4226 1822 
Q 4072 1591 4072 1178 
Q 4072 772 4226 539 
Q 4381 306 4653 306 
Q 4919 306 5073 539 
Q 5228 772 5228 1178 
Q 5228 1588 5073 1820 
Q 4919 2053 4653 2053 
z
M 4653 2450 
Q 5147 2450 5437 2106 
Q 5728 1763 5728 1178 
Q 5728 594 5436 251 
Q 5144 -91 4653 -91 
Q 4153 -91 3862 251 
Q 3572 594 3572 1178 
Q 3572 1766 3864 2108 
Q 4156 2450 4653 2450 
z
M 1428 4353 
Q 1159 4353 1004 4120 
Q 850 3888 850 3481 
Q 850 3069 1003 2837 
Q 1156 2606 1428 2606 
Q 1700 2606 1854 2837 
Q 2009 3069 2009 3481 
Q 2009 3884 1853 4118 
Q 1697 4353 1428 4353 
z
M 4250 4750 
L 4750 4750 
L 1831 -91 
L 1331 -91 
L 4250 4750 
z
M 1428 4750 
Q 1922 4750 2215 4408 
Q 2509 4066 2509 3481 
Q 2509 2891 2217 2550 
Q 1925 2209 1428 2209 
Q 931 2209 642 2551 
Q 353 2894 353 3481 
Q 353 4063 643 4406 
Q 934 4750 1428 4750 
z
" transform="scale(0.015625)"/>
       <path id="DejaVuSans-20" transform="scale(0.015625)"/>
       <path id="DejaVuSans-65" d="M 3597 1894 
L 3597 1613 
L 953 1613 
Q 991 1019 1311 708 
Q 1631 397 2203 397 
Q 2534 397 2845 478 
Q 3156 559 3463 722 
L 3463 178 
Q 3153 47 2828 -22 
Q 2503 -91 2169 -91 
Q 1331 -91 842 396 
Q 353 884 353 1716 
Q 353 2575 817 3079 
Q 1281 3584 2069 3584 
Q 2775 3584 3186 3129 
Q 3597 2675 3597 1894 
z
M 3022 2063 
Q 3016 2534 2758 2815 
Q 2500 3097 2075 3097 
Q 1594 3097 1305 2825 
Q 1016 2553 972 2059 
L 3022 2063 
z
" transform="scale(0.015625)"/>
       <path id="DejaVuSans-6e" d="M 3513 2113 
L 3513 0 
L 2938 0 
L 2938 2094 
Q 2938 2591 2744 2837 
Q 2550 3084 2163 3084 
Q 1697 3084 1428 2787 
Q 1159 2491 1159 1978 
L 1159 0 
L 581 0 
L 581 3500 
L 1159 3500 
L 1159 2956 
Q 1366 3272 1645 3428 
Q 1925 3584 2291 3584 
Q 2894 3584 3203 3211 
Q 3513 2838 3513 2113 
z
" transform="scale(0.015625)"/>
       <path id="DejaVuSans-76" d="M 191 3500 
L 800 3500 
L 1894 563 
L 2988 3500 
L 3597 3500 
L 2284 0 
L 1503 0 
L 191 3500 
z
" transform="scale(0.015625)"/>
       <path id="DejaVuSans-62" d="M 3116 1747 
Q 3116 2381 2855 2742 
Q 2594 3103 2138 3103 
Q 1681 3103 1420 2742 
Q 1159 2381 1159 1747 
Q 1159 1113 1420 752 
Q 1681 391 2138 391 
Q 2594 391 2855 752 
Q 3116 1113 3116 1747 
z
M 1159 2969 
Q 1341 3281 1617 3432 
Q 1894 3584 2278 3584 
Q 2916 3584 3314 3078 
Q 3713 2572 3713 1747 
Q 3713 922 3314 415 
Q 2916 -91 2278 -91 
Q 1894 -91 1617 61 
Q 1341 213 1159 525 
L 1159 0 
L 581 0 
L 581 4863 
L 1159 4863 
L 1159 2969 
z
" transform="scale(0.015625)"/>
       <path id="DejaVuSans-73" d="M 2834 3397 
L 2834 2853 
Q 2591 2978 2328 3040 
Q 2066 3103 1784 3103 
Q 1356 3103 1142 2972 
Q 928 2841 928 2578 
Q 928 2378 1081 2264 
Q 1234 2150 1697 2047 
L 1894 2003 
Q 2506 1872 2764 1633 
Q 3022 1394 3022 966 
Q 3022 478 2636 193 
Q 2250 -91 1575 -91 
Q 1294 -91 989 -36 
Q 684 19 347 128 
L 347 722 
Q 666 556 975 473 
Q 1284 391 1588 391 
Q 1994 391 2212 530 
Q 2431 669 2431 922 
Q 2431 1156 2273 1281 
Q 2116 1406 1581 1522 
L 1381 1569 
Q 847 1681 609 1914 
Q 372 2147 372 2553 
Q 372 3047 722 3315 
Q 1072 3584 1716 3584 
Q 2034 3584 2315 3537 
Q 2597 3491 2834 3397 
z
" transform="scale(0.015625)"/>
      </defs>
      <use xlink:href="#DejaVuSans-25"/>
      <use xlink:href="#DejaVuSans-20" transform="translate(95.019531 0)"/>
      <use xlink:href="#DejaVuSans-72" transform="translate(126.806641 0)"/>
      <use xlink:href="#DejaVuSans-65" transform="translate(165.669922 0)"/>
      <use xlink:href="#DejaVuSans-6e" transform="translate(227.193359 0)"/>
      <use xlink:href="#DejaVuSans-6f" transform="translate(290.572266 0)"/>
      <use xlink:href="#DejaVuSans-76" transform="translate(351.753906 0)"/>
      <use xlink:href="#DejaVuSans-61" transform="translate(410.933594 0)"/>
      <use xlink:href="#DejaVuSans-62" transform="translate(472.212891 0)"/>
      <use xlink:href="#DejaVuSans-6c" transform="translate(535.689453 0)"/>
      <use xlink:href="#DejaVuSans-65" transform="translate(563.472656 0)"/>
      <use xlink:href="#DejaVuSans-73" transform="translate(624.996094 0)"/>
     </g>
    </g>
   </g>
   <g id="line2d_16">
    <defs>
     <path id="m4ae39034b3" d="M 0 2.5 
C 0.663008 2.5 1.29895 2.236584 1.767767 1.767767 
C 2.236584 1.29895 2.5 0.663008 2.5 0 
C 2.5 -0.663008 2.236584 -1.29895 1.767767 -1.767767 
C 1.29895 -2.236584 0.663008 -2.5 0 -2.5 
C -0.663008 -2.5 -1.29895 -2.236584 -1.767767 -1.767767 
C -2.236584 -1.29895 -2.5 -0.663008 -2.5 0 
C -2.5 0.663008 -2.236584 1.29895 -1.767767 1.767767 
C -1.29895 2.236584 -0.663008 2.5 0 2.5 
z
" style="stroke: #000000"/>
    </defs>
    <g clip-path="url(#p87fb654ab8)">
     <use xlink:href="#m4ae39034b3" x="62.23875" y="113.04" style="stroke: #000000"/>
     <use xlink:href="#m4ae39034b3" x="76.18875" y="113.04" style="stroke: #000000"/>
     <use xlink:href="#m4ae39034b3" x="90.13875" y="108.816536" style="stroke: #000000"/>
     <use xlink:href="#m4ae39034b3" x="104.08875" y="108.816536" style="stroke: #000000"/>
     <use xlink:href="#m4ae39034b3" x="118.03875" y="103.74838" style="stroke: #000000"/>
     <use xlink:href="#m4ae39034b3" x="131.98875" y="93.048939" style="stroke: #000000"/>
     <use xlink:href="#m4ae39034b3" x="145.93875" y="78.126034" style="stroke: #000000"/>
     <use xlink:href="#m4ae39034b3" x="159.88875" y="32.79419" style="stroke: #000000"/>
     <use xlink:href="#m4ae39034b3" x="173.83875" y="12.24" style="stroke: #000000"/>
     <use xlink:href="#m4ae39034b3" x="187.78875" y="17.308156" style="stroke: #000000"/>
     <use xlink:href="#m4ae39034b3" x="201.73875" y="21.53162" style="stroke: #000000"/>
     <use xlink:href="#m4ae39034b3" x="215.68875" y="18.434413" style="stroke: #000000"/>
     <use xlink:href="#m4ae39034b3" x="229.63875" y="18.152849" style="stroke: #000000"/>
     <use xlink:href="#m4ae39034b3" x="243.58875" y="18.434413" style="stroke: #000000"/>
     <use xlink:href="#m4ae39034b3" x="257.53875" y="24.065698" style="stroke: #000000"/>
     <use xlink:href="#m4ae39034b3" x="271.48875" y="29.415419" style="stroke: #000000"/>
     <use xlink:href="#m4ae39034b3" x="285.43875" y="33.920447" style="stroke: #000000"/>
     <use xlink:href="#m4ae39034b3" x="299.38875" y="38.143911" style="stroke: #000000"/>
     <use xlink:href="#m4ae39034b3" x="313.33875" y="42.648939" style="stroke: #000000"/>
     <use xlink:href="#m4ae39034b3" x="327.28875" y="46.872402" style="stroke: #000000"/>
     <use xlink:href="#m4ae39034b3" x="341.23875" y="51.095866" style="stroke: #000000"/>
     <use xlink:href="#m4ae39034b3" x="355.18875" y="55.600894" style="stroke: #000000"/>
     <use xlink:href="#m4ae39034b3" x="369.13875" y="59.824358" style="stroke: #000000"/>
     <use xlink:href="#m4ae39034b3" x="383.08875" y="63.766257" style="stroke: #000000"/>
     <use xlink:href="#m4ae39034b3" x="397.03875" y="67.989721" style="stroke: #000000"/>
     <use xlink:href="#m4ae39034b3" x="410.98875" y="71.650056" style="stroke: #000000"/>
     <use xlink:href="#m4ae39034b3" x="424.93875" y="75.87352" style="stroke: #000000"/>
     <use xlink:href="#m4ae39034b3" x="438.88875" y="78.126034" style="stroke: #000000"/>
    </g>
   </g>
   <g id="patch_94">
    <path d="M 55.26375 118.08 
L 55.26375 7.2 
" style="fill: none; stroke: #000000; stroke-width: 0.8; stroke-linejoin: miter; stroke-linecap: square"/>
   </g>
   <g id="patch_95">
    <path d="M 445.86375 118.08 
L 445.86375 7.2 
" style="fill: none; stroke: #000000; stroke-width: 0.8; stroke-linejoin: miter; stroke-linecap: square"/>
   </g>
   <g id="patch_96">
    <path d="M 55.26375 118.08 
L 445.86375 118.08 
" style="fill: none; stroke: #000000; stroke-width: 0.8; stroke-linejoin: miter; stroke-linecap: square"/>
   </g>
   <g id="patch_97">
    <path d="M 55.26375 7.2 
L 445.86375 7.2 
" style="fill: none; stroke: #000000; stroke-width: 0.8; stroke-linejoin: miter; stroke-linecap: square"/>
   </g>
  </g>
 </g>
 <defs>
  <clipPath id="p87fb654ab8">
   <rect x="55.26375" y="7.2" width="390.6" height="110.88"/>
  </clipPath>
 </defs>
</svg>
